<svg display="none" xmlns="http://www.w3.org/2000/svg">
    
    <symbol id="facebook" viewBox="0 0 98.6 98.6">
        <g>
            <path d="M49.3,0C22.1,0,0,22.1,0,49.3s22.1,49.3,49.3,49.3s49.3-22.1,49.3-49.3S76.5,0,49.3,0z M63.8,28.3c-2.3,0-4.7,0-7,0
                c-1.5-0.1-3,1-3.3,2.5c0,2.6,0,5.1,0,7.7c3.4,0,6.9,0,10.3,0c-0.3,3.7-0.7,7.4-1.3,11.1c-3,0-6.1,0-9.1,0c0,11,0,21.9,0,32.8
                c-4.5,0-9,0-13.6,0c-0.1-11,0-21.9,0-32.9c-2.2,0-4.4,0-6.6,0c0-3.7,0-7.4,0-11c2.2,0,4.4,0,6.6,0c0.1-3.6-0.1-7.2,0.1-10.7
                c0.2-2.9,1.3-5.7,3.4-7.7c2.6-2.4,6.2-3.3,9.6-3.4c3.6,0,7.3,0,10.9,0C63.8,20.6,63.8,24.4,63.8,28.3z"/>
        </g>
    </symbol>

    <symbol id="instagram" viewBox="0 0 98.6 98.6">
        <g>
            <path d="M62.2,24.5H36.2c-6.5,0-11.8,5.3-11.8,11.8v26.2c0,6.5,5.3,11.8,11.8,11.8h25.9c6.5,0,11.8-5.3,11.8-11.8V36.2
                C73.9,29.8,68.7,24.5,62.2,24.5z M49.2,65c-8.8,0-16-7.1-16-15.8s7.2-15.8,16-15.8s16,7.1,16,15.8S58,65,49.2,65z M65.5,36.5
                c-2.1,0-3.8-1.7-3.8-3.8s1.7-3.8,3.8-3.8c2.1,0,3.8,1.7,3.8,3.8S67.6,36.5,65.5,36.5z"/>
            <path d="M49.3,0C22.1,0,0,22.1,0,49.3s22.1,49.3,49.3,49.3s49.3-22.1,49.3-49.3S76.5,0,49.3,0z M79.8,62.4
                c0,9.7-7.9,17.6-17.6,17.6H36.2c-9.7,0-17.6-7.9-17.6-17.6V36.2c0-9.7,7.9-17.6,17.6-17.6h25.9c9.7,0,17.6,7.9,17.6,17.6V62.4z"/>
            <path d="M49.2,39.2c-5.6,0-10.1,4.5-10.1,10s4.6,10,10.1,10s10.1-4.5,10.1-10S54.8,39.2,49.2,39.2z"/>
        </g>
    </symbol>

    <symbol id="odnoklassniki" viewBox="0 0 98.6 98.6">
       <g>
	        <circle cx="49.9" cy="30.9" r="8.3"/>
	        <path d="M49.3,0C22.1,0,0,22.1,0,49.3s22.1,49.3,49.3,49.3s49.3-22.1,49.3-49.3S76.5,0,49.3,0z M49.9,14c9.3,0,16.9,7.6,16.9,16.9
                s-7.6,16.9-16.9,16.9s-16.9-7.6-16.9-16.9S40.5,14,49.9,14z M64.9,57.6c-3.6,2.3-8.5,3.2-11.8,3.5l2.7,2.7l10,10
                c1.5,1.5,1.5,4,0,5.5l-0.5,0.5c-1.5,1.5-4,1.5-5.5,0c-2.5-2.5-6.2-6.2-10-10l-10,10c-1.5,1.5-4,1.5-5.5,0L34,79.3
                c-1.5-1.5-1.5-4,0-5.5c2.5-2.5,6.2-6.2,10-10l2.7-2.7c-3.2-0.3-8.2-1.2-11.8-3.5c-4.2-2.7-6.1-4.3-4.5-7.7c1-1.9,3.6-3.5,7.1-0.7
                c4.8,3.7,12.4,3.7,12.4,3.7s7.6,0,12.4-3.7c3.5-2.8,6.2-1.2,7.1,0.7C71,53.2,69.2,54.9,64.9,57.6z"/>
        </g>
    </symbol>

    <symbol id="vk" viewBox="0 0 98.6 98.6">
       <g>
	        <path d="M49.3,0C22.1,0,0,22.1,0,49.3s22.1,49.3,49.3,49.3s49.3-22.1,49.3-49.3S76.5,0,49.3,0z M70.7,55.8c0.4,0.5,1.3,1.4,2.8,2.8
            h0l0,0l0,0l0.1,0.1c3.2,3,5.4,5.5,6.5,7.6c0.1,0.1,0.1,0.3,0.2,0.4c0.1,0.2,0.2,0.5,0.2,0.9c0.1,0.4,0.1,0.8,0,1.2
            c-0.1,0.3-0.4,0.7-0.9,0.9c-0.5,0.3-1.2,0.4-2,0.4L69,70.3c-0.5,0.1-1.2,0.1-1.9-0.2c-0.7-0.2-1.3-0.5-1.8-0.8L64.6,69
            c-0.7-0.5-1.5-1.2-2.4-2.2c-0.9-1-1.7-1.9-2.3-2.7s-1.3-1.4-2.1-2c-0.7-0.5-1.4-0.7-1.9-0.5c-0.1,0-0.2,0.1-0.3,0.1
            c-0.1,0.1-0.3,0.2-0.6,0.5c-0.3,0.3-0.5,0.6-0.7,1c-0.2,0.4-0.4,1-0.6,1.8c-0.2,0.8-0.2,1.7-0.2,2.7c0,0.3,0,0.7-0.1,0.9
            c-0.1,0.3-0.2,0.5-0.3,0.6l-0.1,0.2c-0.4,0.4-1,0.7-1.8,0.8h-3.9c-1.6,0.1-3.3-0.1-5-0.6c-1.7-0.5-3.2-1.1-4.5-1.8
            c-1.3-0.7-2.5-1.5-3.5-2.3c-1.1-0.8-1.9-1.4-2.4-2l-0.9-0.8c-0.2-0.2-0.5-0.6-0.9-1c-0.4-0.5-1.2-1.5-2.4-3.1
            c-1.2-1.6-2.4-3.3-3.6-5.2c-1.2-1.8-2.6-4.2-4.2-7.2c-1.6-3-3.1-6.1-4.5-9.3C15.1,36.6,15,36.3,15,36c0-0.2,0-0.4,0.1-0.5l0.1-0.2
            c0.3-0.4,1-0.7,1.9-0.7l9.4-0.1c0.3,0,0.5,0.1,0.8,0.2c0.3,0.1,0.4,0.2,0.5,0.3l0.2,0.1c0.4,0.3,0.6,0.6,0.8,1.1
            c0.5,1.1,1,2.3,1.6,3.5c0.6,1.2,1.1,2.2,1.4,2.8l0.5,1c0.7,1.4,1.3,2.6,1.9,3.6c0.6,1,1.2,1.8,1.7,2.3c0.5,0.6,1,1,1.4,1.3
            c0.5,0.3,0.8,0.5,1.2,0.5c0.3,0,0.6-0.1,0.9-0.2c0,0,0.1-0.1,0.2-0.2s0.2-0.3,0.4-0.8c0.2-0.4,0.4-0.9,0.5-1.6
            c0.1-0.7,0.2-1.6,0.3-2.8c0.1-1.2,0.1-2.6,0-4.3c0-0.9-0.1-1.7-0.3-2.5c-0.2-0.8-0.3-1.3-0.5-1.6L39.9,37c-0.6-0.8-1.5-1.3-2.9-1.5
            c-0.3,0-0.2-0.3,0.2-0.8c0.4-0.4,0.8-0.8,1.3-1c1.2-0.6,3.9-0.9,8.2-0.8c1.9,0,3.4,0.2,4.6,0.4c0.5,0.1,0.8,0.3,1.1,0.5
            c0.3,0.2,0.5,0.5,0.7,0.8c0.2,0.4,0.3,0.7,0.4,1.1c0.1,0.4,0.1,0.9,0.1,1.6c0,0.7,0,1.3,0,1.9c0,0.6-0.1,1.4-0.1,2.4
            c0,1-0.1,2-0.1,2.8c0,0.3,0,0.7,0,1.4c0,0.7,0,1.3,0,1.6c0,0.4,0.1,0.9,0.1,1.4c0.1,0.5,0.2,1,0.4,1.3c0.2,0.4,0.5,0.6,0.8,0.8
            c0.2,0,0.4,0.1,0.6,0.1c0.2,0,0.5-0.1,0.9-0.4c0.4-0.3,0.8-0.7,1.3-1.2c0.5-0.5,1.1-1.3,1.8-2.3c0.7-1,1.5-2.3,2.3-3.7
            c1.4-2.4,2.6-4.9,3.7-7.7c0.1-0.2,0.2-0.4,0.3-0.6c0.1-0.2,0.3-0.3,0.4-0.4l0.1-0.1c0,0,0.1-0.1,0.2-0.1c0.1,0,0.2-0.1,0.4-0.1
            c0.2,0,0.5,0,0.7,0l9.9-0.1c0.9-0.1,1.6-0.1,2.2,0.1c0.6,0.2,0.9,0.4,1.1,0.6l0.2,0.3c0.5,1.5-1.2,4.8-5.1,10.1
            c-0.5,0.7-1.3,1.7-2.2,2.9c-1.8,2.3-2.8,3.8-3.1,4.5C69.8,54,70,54.9,70.7,55.8z"/>
        </g>
    </symbol>

    <symbol id="youtube" viewBox="0 0 98.6 98.6">
       <g>
	       <g>
	            <polygon points="43.7,56.5 59,48.4 43.7,40.5 	"/>
	                <path d="M49.3,0C22.1,0,0,22.1,0,49.3s22.1,49.3,49.3,49.3s49.3-22.1,49.3-49.3S76.5,0,49.3,0z M76.8,60.8
                        c-0.7,4.2-2.7,6.4-6.9,6.9c-4.7,0.5-15.4,0.8-20.1,0.8c-4.9,0-14.8-0.2-19.7-0.6c-4.2-0.4-7.1-2.7-7.7-6.9
                        c-0.4-3.1-0.7-6.7-0.7-12.5c0-6.5,0.2-9.2,0.8-12.1c0.8-4.2,2.8-6.2,7.3-6.6c4.8-0.5,9.3-0.7,19.3-0.7c4.9,0,15.5,0.3,20.4,0.7
                        c4.3,0.4,6.7,3,7.2,7.2c0.4,2.9,0.7,7.1,0.7,11.6C77.5,56.2,76.8,60.8,76.8,60.8z"/>
            </g>
        </g>
    </symbol>

    <symbol id="call" viewBox="0 0 30 30">
       <g>
	        <path d="M23.7094 18.5839C23.0952 17.9444 22.3544 17.6025 21.5692 17.6025C20.7904 17.6025 20.0433 17.9381 19.4038 18.5776L17.403 20.5721C17.2384 20.4834 17.0737 20.4011 16.9154 20.3188C16.6875 20.2048 16.4722 20.0972 16.2886 19.9832C14.4144 18.7929 12.7112 17.2416 11.0776 15.2345C10.2861 14.234 9.75429 13.3919 9.36805 12.5371C9.88725 12.0623 10.3685 11.5684 10.837 11.0935C11.0143 10.9162 11.1916 10.7326 11.3689 10.5553C12.6985 9.22567 12.6985 7.50344 11.3689 6.17379L9.64032 4.44523C9.44403 4.24895 9.24142 4.04633 9.05147 3.84372C8.67156 3.45115 8.27267 3.04592 7.86111 2.66602C7.24693 2.05818 6.51245 1.73526 5.73998 1.73526C4.96752 1.73526 4.22038 2.05818 3.58721 2.66602C3.58087 2.67235 3.58087 2.67235 3.57454 2.67868L1.42176 4.85046C0.611304 5.66092 0.14909 6.64866 0.0477825 7.7947C-0.104178 9.64356 0.440348 11.3658 0.858241 12.4928C1.88398 15.2598 3.41625 17.8241 5.70199 20.5721C8.47528 23.8836 11.8121 26.4986 15.6238 28.3411C17.0801 29.0312 19.0239 29.848 21.1957 29.9873C21.3286 29.9937 21.4679 30 21.5946 30C23.0572 30 24.2855 29.4745 25.248 28.4297C25.2543 28.4171 25.267 28.4107 25.2733 28.3981C25.6025 27.9992 25.9824 27.6383 26.3813 27.252C26.6536 26.9924 26.9322 26.7202 27.2045 26.4352C27.8313 25.7831 28.1606 25.0233 28.1606 24.2445C28.1606 23.4593 27.825 22.7059 27.1855 22.0727L23.7094 18.5839ZM25.9761 25.2512C25.9698 25.2512 25.9698 25.2575 25.9761 25.2512C25.7292 25.5171 25.4759 25.7577 25.2036 26.0237C24.7921 26.4162 24.3742 26.8278 23.9816 27.29C23.3421 27.9738 22.5887 28.2968 21.6009 28.2968C21.5059 28.2968 21.4046 28.2968 21.3096 28.2904C19.4291 28.1701 17.6816 27.4357 16.3709 26.8088C12.7872 25.0739 9.64032 22.6109 7.02532 19.4894C4.86621 16.887 3.42258 14.481 2.46649 11.8976C1.87765 10.3211 1.66237 9.0927 1.75734 7.934C1.82066 7.19319 2.10559 6.57901 2.63112 6.05348L4.79023 3.89437C5.10048 3.60311 5.42973 3.44482 5.75265 3.44482C6.15155 3.44482 6.47446 3.68543 6.67708 3.88804C6.68341 3.89437 6.68974 3.9007 6.69607 3.90704C7.08231 4.26794 7.44954 4.64151 7.83578 5.04041C8.03206 5.24303 8.23468 5.44564 8.43729 5.65459L10.1658 7.38314C10.837 8.0543 10.837 8.67481 10.1658 9.34597C9.98223 9.52959 9.80494 9.71321 9.62132 9.8905C9.08946 10.435 8.58292 10.9416 8.03206 11.4354C8.0194 11.4481 8.00674 11.4544 8.0004 11.4671C7.45588 12.0116 7.55718 12.5435 7.67115 12.9044C7.67749 12.9234 7.68382 12.9424 7.69015 12.9614C8.1397 14.0504 8.77287 15.0762 9.73529 16.2982L9.74162 16.3045C11.4892 18.4573 13.3317 20.1352 15.3642 21.4205C15.6238 21.5852 15.8897 21.7181 16.143 21.8448C16.3709 21.9587 16.5862 22.0664 16.7698 22.1803C16.7951 22.193 16.8205 22.212 16.8458 22.2247C17.0611 22.3323 17.2637 22.383 17.4726 22.383C17.9982 22.383 18.3274 22.0537 18.4351 21.9461L20.6005 19.7806C20.8158 19.5653 21.1577 19.3057 21.5566 19.3057C21.9491 19.3057 22.2721 19.5527 22.4683 19.768C22.4747 19.7743 22.4747 19.7743 22.481 19.7806L25.9698 23.2694C26.6219 23.9152 26.6219 24.5801 25.9761 25.2512Z" fill="#C49953"/>
            <path d="M16.2126 7.1362C17.8715 7.41479 19.3785 8.19992 20.5815 9.40295C21.7845 10.606 22.5633 12.1129 22.8482 13.7718C22.9179 14.1897 23.2788 14.481 23.6904 14.481C23.741 14.481 23.7853 14.4746 23.836 14.4683C24.3045 14.3923 24.6148 13.9491 24.5388 13.4806C24.1969 11.4734 23.2471 9.64355 21.7972 8.19359C20.3472 6.74363 18.5174 5.79388 16.5102 5.45197C16.0417 5.37598 15.6048 5.68624 15.5225 6.14845C15.4402 6.61067 15.7441 7.06022 16.2126 7.1362Z" fill="#C49953"/>
            <path d="M29.9649 13.2338C29.4014 9.92867 27.8438 6.9211 25.4504 4.52772C23.057 2.13434 20.0495 0.576736 16.7443 0.0132147C16.2821 -0.0690975 15.8452 0.247488 15.7629 0.709702C15.6869 1.17825 15.9972 1.61514 16.4657 1.69745C19.4163 2.19765 22.1073 3.59696 24.2474 5.73074C26.3875 7.87086 27.7805 10.5618 28.2807 13.5124C28.3503 13.9303 28.7112 14.2216 29.1228 14.2216C29.1735 14.2216 29.2178 14.2152 29.2684 14.2089C29.7306 14.1392 30.0472 13.696 29.9649 13.2338Z" fill="#C49953"/>
        </g>
    </symbol>

    <symbol id="date" viewBox="0 0 41 36">
       <g>
	        <g clip-path="url(#clip0)">
                <path d="M1.2009 31.2H7.20676V34.8C7.20676 35.464 7.74328 36 8.40793 36H39.7986C40.4632 36 40.9998 35.464 40.9998 34.8V3.6C40.9998 2.936 40.4632 2.4 39.7986 2.4H33.7927V1.2C33.7927 0.536 33.2562 0 32.5915 0C31.9269 0 31.3904 0.536 31.3904 1.2V2.4H25.3044V1.2C25.3044 0.536 24.7679 0 24.1033 0C23.4386 0 22.9021 0.536 22.9021 1.2V2.4H16.8962V1.2C16.8962 0.536 16.3597 0 15.695 0C15.0304 0 14.4939 0.536 14.4939 1.2V2.4H8.40793C7.74328 2.4 7.20676 2.936 7.20676 3.6V10.8C7.20676 19.64 3.53117 26.448 0.432147 29.08C0.0397637 29.4 -0.104377 29.936 0.0717949 30.408C0.239959 30.88 0.696405 31.2 1.2009 31.2ZM38.5974 33.6H9.60911V31.2H32.5915C32.8718 31.2 33.1441 31.104 33.3603 30.92C34.8017 29.72 37.0439 26.856 38.5974 23.192V33.6ZM9.60911 4.8H14.4939V6C14.4939 6.664 15.0304 7.2 15.695 7.2C16.3597 7.2 16.8962 6.664 16.8962 6V4.8H22.9021V6C22.9021 6.664 23.4386 7.2 24.1033 7.2C24.7679 7.2 25.3044 6.664 25.3044 6V4.8H31.3904V6C31.3904 6.664 31.9269 7.2 32.5915 7.2C33.2562 7.2 33.7927 6.664 33.7927 6V4.8H38.5974V9.6H9.60911V4.8ZM9.58508 12H38.5734C38.3011 19.616 35.3783 25.6 32.1191 28.8H3.93156C7.63118 24.096 9.39289 17.976 9.58508 12Z" fill="#C1A073"/>
            </g>
            <defs>
                <clipPath id="clip0">
                <rect width="41" height="36" fill="white"/>
                </clipPath>
            </defs>
        </g>
    </symbol>

    <symbol id="telegram" viewBox="0 0 42 35">
       <g>
	       <g>
	            <g clip-path="url(#clip0)">
                    <path d="M41.3515 0.96145C40.8347 0.339335 40.0718 0 39.1859 0C38.7101 0 38.2015 0.0969529 37.6765 0.298938L2.12415 13.6623C0.237427 14.3733 -0.0168696 15.4317 -0.00046331 16.0053C0.0159429 16.5789 0.327662 17.6212 2.2554 18.2271C2.2636 18.2271 2.28001 18.2352 2.28821 18.2352L9.66282 20.3116L13.6495 31.542C14.1909 33.0771 15.4132 34.0224 16.8323 34.0224C17.7265 34.0224 18.6124 33.6507 19.3835 32.9559L23.9445 28.8193L30.5644 34.0628L30.63 34.1113C30.6382 34.1193 30.6382 34.1193 30.6464 34.1274C31.3847 34.693 32.1886 34.9838 32.9679 34.9838C34.5019 34.9838 35.7159 33.8689 36.0769 32.1399L41.9011 3.81348C42.139 2.68236 41.9421 1.67244 41.3515 0.96145ZM12.132 19.9238L26.3562 12.7655L17.4968 22.0406C17.3491 22.1941 17.2507 22.38 17.2015 22.5819L15.4952 29.401L12.132 19.9238ZM17.7183 31.1784C17.6609 31.235 17.6034 31.2754 17.5378 31.3239L19.121 25.0058L22.0003 27.2922L17.7183 31.1784ZM39.4894 3.34488L33.6652 31.6713C33.6077 31.946 33.4273 32.5762 32.9679 32.5762C32.7382 32.5762 32.4511 32.455 32.164 32.2288L24.6663 26.2823L20.2038 22.7435L33.0171 9.3398C33.4273 8.91159 33.4683 8.25716 33.1073 7.78047C32.7464 7.31187 32.0984 7.15836 31.5652 7.42498L10.4913 18.0332L3.01829 15.9245L38.5542 2.56117C38.8577 2.44806 39.0628 2.42382 39.1859 2.42382C39.2597 2.42382 39.3991 2.4319 39.4484 2.49654C39.514 2.56925 39.596 2.83587 39.4894 3.34488Z" fill="#C1A073"/>
                </g>
                <defs>
                    <clipPath id="clip0">
                    <rect width="42" height="35" fill="white"/>
                    </clipPath>
                </defs>
            </g>
        </g>
    </symbol>

    <symbol id="check" viewBox="0 0 20 18">
       <g>
	       <g>
	            <path d="M18.9239 3.99998L9.3503 16.5C8.93406 16.9167 8.3097 17.3333 7.68534 17.3333C7.06097 17.3333 6.43661 17.125 6.02037 16.5L1.02547 10.0416C0.401104 9.20831 0.401104 7.74998 1.44171 7.12498C2.48231 6.49998 3.73104 6.49998 4.3554 7.54165L7.68534 11.9166L15.5939 1.49998C16.2183 0.666645 17.6751 0.458312 18.5076 1.08331C19.5482 1.70831 19.5482 2.95831 18.9239 3.99998Z" fill="#9271EE"/>
            </g>
        </g>
    </symbol>
</svg>