<svg width="580" height="580" viewBox="0 0 580 580" fill="none" xmlns="http://www.w3.org/2000/svg">
<g clip-path="url(#clip0)">
<path d="M580 0H0V580H580V0Z" fill="#EEE6DC"/>
<path d="M123.753 543.286C123.849 543.808 123.985 544.388 124.391 544.736C125.473 545.664 126.981 544.272 127.677 543.034C144.575 513.396 151.612 478.886 152.308 444.763C152.675 426.938 151.38 409.132 149.118 391.461C147.958 382.374 146.547 373.326 144.981 364.317C144.188 359.812 143.376 355.308 142.525 350.803C142.255 349.372 141.752 340.498 138.755 342.142C137.943 342.586 137.576 343.553 137.267 344.423C115.575 407.952 110.857 477.204 123.714 543.112C123.753 543.189 123.753 543.228 123.753 543.286Z" fill="#3A3F57"/>
<path d="M130.171 510.574C130.79 511.424 132.221 511.115 132.82 510.265C133.419 509.414 133.439 508.292 133.419 507.248C133.11 484.435 133.613 461.602 134.927 438.828C135.585 427.44 136.455 416.072 137.537 404.704C138.079 399.02 138.659 393.356 139.297 387.691C139.548 385.545 140.998 381.002 140.263 379.01C138.62 374.486 135.739 378.044 135.024 380.982C129.997 401.572 128.779 422.742 127.774 443.835C126.73 465.682 127.329 487.625 129.804 509.375C129.823 509.53 129.843 509.685 129.862 509.82C129.939 510.11 130.017 510.361 130.171 510.574Z" fill="#3A3F57"/>
<path d="M137.479 411.259C141.791 408.32 146.083 405.362 150.394 402.423C150.587 404.26 150.761 406.116 150.935 407.953C148.615 410.408 146.179 412.786 143.666 415.048C141.481 417.02 137.518 421.621 134.599 422.298C132.955 422.665 132.008 421.409 131.641 419.765C130.616 415.164 134.115 413.559 137.479 411.259Z" fill="#3A3F57"/>
<path d="M132.066 449.016C138.813 443.738 145.561 438.441 152.308 433.163C152.347 435.038 152.366 436.894 152.366 438.77C146.895 444.202 141.404 449.635 135.913 455.068C134.773 456.189 131.447 458.142 130.867 455.416C130.771 455.01 130.713 454.488 130.693 453.927C130.635 452.148 130.964 449.886 132.066 449.016Z" fill="#3A3F57"/>
<path d="M132.472 477.533C138.369 472.236 144.691 467.422 151.322 463.052C151.09 465.643 150.819 468.234 150.51 470.824C144.845 475.986 139.181 481.129 133.535 486.291C132.607 487.122 130.655 488.708 129.63 487.103C129.301 486.6 129.243 485.808 129.34 484.88C129.63 482.231 131.331 478.538 132.472 477.533Z" fill="#3A3F57"/>
<path d="M114.937 510.361C112.52 443.274 92.22 376.903 56.666 319.928C56.1633 319.135 55.6027 318.284 54.694 318.033C51.388 317.105 52.9153 325.863 52.9733 327.313C53.1667 331.895 53.3793 336.458 53.65 341.02C54.172 350.165 54.8487 359.29 55.7767 368.396C57.594 386.106 60.378 403.757 64.7667 421.022C73.1767 454.082 87.87 486.098 111.051 511.135C112.017 512.178 113.796 513.184 114.627 512.043C114.956 511.598 114.937 511.018 114.917 510.477C114.937 510.458 114.937 510.4 114.937 510.361Z" fill="#3A3F57"/>
<path d="M101.384 479.312C101.384 479.157 101.365 479.002 101.345 478.848C98.8127 457.117 94.424 435.619 88.45 414.565C82.6887 394.245 76.6954 373.887 67.1254 354.979C65.7527 352.273 62.1374 349.489 61.5767 354.264C61.3254 356.371 63.7807 360.47 64.496 362.5C66.41 367.875 68.266 373.269 70.0834 378.682C73.6987 389.489 77.14 400.374 80.3687 411.317C86.826 433.202 92.51 455.319 97.3627 477.61C97.5754 478.635 97.846 479.718 98.6194 480.414C99.3927 481.11 100.881 481.071 101.268 480.124C101.384 479.853 101.403 479.582 101.384 479.312Z" fill="#3F456C"/>
<path d="M71.63 385.043C66.7773 383.148 61.9053 381.253 57.0527 379.378C57.2847 381.215 57.536 383.051 57.7873 384.888C60.61 386.763 63.51 388.523 66.4873 390.147C69.0587 391.558 73.9693 395.154 76.966 395.135C78.648 395.135 79.286 393.665 79.2667 392.003C79.1893 387.285 75.4387 386.512 71.63 385.043Z" fill="#3F456C"/>
<path d="M85.4727 420.577C77.7007 416.962 69.9287 413.347 62.1567 409.731C62.5433 411.549 62.9493 413.385 63.3747 415.203C69.948 419.243 76.5213 423.303 83.0947 427.344C84.448 428.175 88.1407 429.335 88.0827 426.532C88.0827 426.107 88.0247 425.604 87.9087 425.043C87.5607 423.303 86.7487 421.177 85.4727 420.577Z" fill="#3F456C"/>
<path d="M91.5433 448.437C84.6026 444.628 77.3526 441.361 69.9093 438.615C70.7213 441.09 71.572 443.545 72.4613 446.001C79.1506 449.732 85.8207 453.483 92.51 457.214C93.5927 457.813 95.8547 458.915 96.4927 457.117C96.686 456.557 96.57 455.764 96.2607 454.875C95.3907 452.361 92.8773 449.171 91.5433 448.437Z" fill="#3F456C"/>
<path d="M155.131 322.441C154.821 321.011 152.637 321.61 152.946 323.041C165.919 383.921 170.713 446.291 167.214 508.428C167.137 509.897 169.399 509.878 169.495 508.428C172.975 446.097 168.142 383.496 155.131 322.441Z" fill="#5B3426"/>
<path d="M174.155 313.277C178.853 310.203 174.541 303.572 172.859 299.995C167.33 288.299 156.793 297.211 152.327 305.428C152.347 303.05 152.269 300.653 152.076 298.275C151.883 295.974 151.921 292.861 150.645 290.793C148.383 287.197 143.047 288.434 139.683 289.459C135.991 290.58 132.124 293.596 132.955 297.927C133.303 299.763 134.579 301.059 135.817 302.373C137.673 304.345 139.606 306.279 141.539 308.193C137.518 307.265 133.033 306.801 129.611 308.096C124.932 309.855 126.111 316.603 126.247 320.508C126.653 331.528 136.474 326.482 143.337 321.803C140.263 324.684 136.977 327.487 136.629 331.837C136.281 336.207 139.413 338.797 143.26 340.035C147.378 341.369 151.593 341.272 153.294 336.69C154.531 333.384 154.802 329.575 154.589 325.825C158.475 333.21 164.333 340.421 170.81 332.437C173.439 329.189 176.204 324.22 172.821 320.547C171.177 318.749 168.703 318.014 166.46 317.241C164.121 316.429 161.762 315.733 159.384 315.114C162.129 314.94 164.894 314.747 167.639 314.553C169.766 314.418 172.318 314.476 174.155 313.277Z" fill="#C49953"/>
<path d="M157.76 313.278C157.489 312.234 156.967 311.267 156.213 310.494C155.305 309.566 154.087 308.966 152.83 308.657C150.8 308.174 148.577 308.464 146.837 309.604C142.719 312.311 143.125 318.42 147.204 320.934C149.273 322.21 151.999 322.306 154.145 321.204C156.291 320.102 157.799 317.802 157.953 315.385C158.011 314.689 157.953 313.974 157.76 313.278Z" fill="#9F5D3A"/>
<path d="M127.658 509.742C119.113 430.456 106.817 351.615 90.8086 273.489C90.364 271.343 87.0773 272.252 87.522 274.398C103.472 352.214 115.729 430.766 124.236 509.742C124.468 511.908 127.89 511.927 127.658 509.742Z" fill="#645D33"/>
<path d="M132.221 337.618C131.776 337.695 131.312 337.85 130.906 338.024C123.869 341.136 117.953 346.472 113.699 352.852C112.172 355.134 103.491 371.915 107.339 372.843C108.17 373.056 109.04 372.708 109.833 372.36C122.689 366.618 132.279 354.07 134.425 340.15C134.521 339.474 134.599 338.739 134.212 338.178C133.787 337.579 132.994 337.482 132.221 337.618Z" fill="#645D33"/>
<path d="M140.534 435.096C140.109 435.251 139.664 435.483 139.297 435.715C132.859 439.949 127.909 446.174 124.758 453.173C123.637 455.686 117.837 473.647 121.761 473.937C122.631 473.995 123.424 473.531 124.139 473.048C135.894 465.276 143.279 451.317 143.125 437.242C143.125 436.566 143.067 435.812 142.583 435.328C142.081 434.787 141.307 434.826 140.534 435.096Z" fill="#645D33"/>
<path d="M88.6047 404.878C88.2373 405.439 88.334 406.193 88.4693 406.85C91.2147 420.673 101.326 432.795 114.415 437.977C115.227 438.286 116.097 438.595 116.928 438.344C120.717 437.242 111.341 420.867 109.717 418.643C105.193 412.437 99.064 407.372 91.8913 404.549C91.4853 404.395 91.0213 404.259 90.5573 404.182C89.784 404.105 89.0107 404.221 88.6047 404.878Z" fill="#645D33"/>
<path d="M87.9473 465.894C87.754 466.532 88.044 467.228 88.3533 467.828C94.7527 480.375 107.783 489.307 121.781 490.718C122.651 490.815 123.579 490.854 124.313 490.39C127.658 488.302 114.183 475.097 112.017 473.396C105.985 468.659 98.716 465.43 91.0407 464.676C90.596 464.638 90.1127 464.618 89.668 464.696C88.8753 464.831 88.16 465.179 87.9473 465.894Z" fill="#645D33"/>
<path d="M125.995 248.472C124.893 248.046 123.637 247.776 122.709 247.37C123.598 246.983 124.449 246.422 124.971 245.552C126.459 243.136 125.145 240.777 122.883 239.501C119.364 237.51 113.545 237.78 109.717 237.877C108.17 237.916 106.623 238.032 105.077 238.225C106.759 237.2 108.383 236.079 109.91 234.803C112.249 232.87 116.773 228.114 112.269 225.678C111.727 225.388 111.109 225.33 110.509 225.272C107.919 224.982 108.131 225.252 108.905 222.642C109.427 220.883 110.239 219.491 108.827 217.828C107.919 216.765 106.604 216.436 105.251 216.572C103.743 216.707 102.08 218.466 100.804 219.182C100.514 219.356 100.205 219.51 99.876 219.53C98.1746 219.607 99.3153 216.688 99.3153 215.837C99.3153 214.29 98.9867 212.956 97.962 211.758C96.222 209.728 93.438 209.109 90.9633 210.018C87.6573 211.255 85.4726 214.793 83.7133 217.654C82.3213 219.916 81.1613 222.294 80.156 224.75C79.8853 220.11 79.5566 215.45 78.6673 211.004C77.894 207.176 75.8446 203.386 71.7266 202.478C70.064 202.11 68.382 202.323 66.9513 203.212C65.192 204.276 64.844 206.596 63.278 207.91C60.436 210.288 55.7573 208.123 53.6693 211.139C52.896 212.26 52.7993 213.575 52.8766 214.89C52.9153 215.644 53.5726 216.92 53.4566 217.635C52.7993 221.811 50.634 220.226 48.314 220.38C45.1046 220.612 42.688 222.275 42.572 225.697C42.398 230.337 47.212 233.276 50.6726 235.402C53.6693 237.258 56.84 238.728 60.1266 239.907C55.5446 239.772 50.9626 239.656 46.3806 239.675C42.4366 239.694 37.7966 240.178 35.728 244.102C34.394 246.616 34.6453 249.554 36.7333 251.507C37.99 252.686 39.7493 252.416 40.136 254.33C40.5033 256.205 39.324 256.089 38.3573 257.462C37.5066 258.66 36.946 259.917 37.4486 261.425C37.7773 262.372 38.4926 263.126 39.4206 263.571C41.0253 264.344 43.9446 263.223 43.616 265.04C43.326 266.548 41.5666 267.051 41.702 269.023C41.7793 270.26 42.5913 271.575 43.5386 272.348C46.8446 275.036 51.6006 272.754 54.8873 271.324C56.028 270.84 57.13 270.299 58.232 269.738C55.2546 274.146 53.302 279.192 52.8573 284.586C52.606 287.796 53.2246 291.836 56.9173 292.745C58.5026 293.132 59.4306 292.61 60.9193 292.107C62.292 291.624 63.974 289.845 65.6753 291.14C65.424 290.947 66.9126 294.311 66.7773 294.156C68.15 296.07 70.5666 296.921 72.442 295.142C74.182 293.499 72.6933 291.643 76.1926 292.378C77.7586 292.706 78.0486 293.615 79.808 293.286C83.7133 292.532 84.0806 287.757 84.3513 284.586C84.5253 282.498 84.5833 280.391 84.5833 278.303C86.1106 282.054 88.4307 285.398 91.64 287.834C93.2833 289.072 95.7773 289.884 97.8267 289.381C100.823 288.666 100.765 286.307 101.113 283.755C101.171 283.31 101.307 281.222 102.138 281.512C102.273 281.551 102.389 281.667 102.486 281.783C103.259 282.692 104.033 283.774 105.27 284.045C107.59 284.567 108.344 283.136 108.905 281.203C109.291 279.908 109.639 278.593 111.051 278.052C112.771 277.394 114.279 278.593 115.807 277.008C118.339 274.378 116.522 270.956 114.395 268.868C113.139 267.631 111.766 266.471 110.335 265.35C112.346 265.872 114.415 266.162 116.541 266.2C119.48 266.239 123.037 265.775 124.371 262.72C125.86 259.298 122.554 256.592 119.48 255.992C121.529 255.702 123.869 255.238 125.899 254.794C127.407 254.465 128.76 253.402 128.721 251.72C128.702 249.883 127.465 249.032 125.995 248.472Z" fill="#C49953"/>
<path d="M100.456 250.637C100.765 246.867 98.2133 244.141 94.9459 243.387C95.4873 240.313 94.4819 237.084 91.8719 235.112C88.8366 232.831 84.6606 233.102 81.7026 235.306C78.5319 233.314 74.5686 231.748 71.0499 233.875C68.9619 235.132 67.9953 237.51 68.3433 239.714C66.468 239.714 64.5733 240.603 63.5293 242.382C62.0793 244.837 62.5046 247.563 63.9933 249.67C61.8086 251.468 61.1513 254.929 62.6786 257.5C63.974 259.685 65.9846 260.729 68.1886 261C67.512 263.455 68.2273 266.297 70.6826 267.94C74.6653 270.628 79.2086 268.946 82.0313 265.698C84.5833 267.341 87.9086 267.708 90.6733 266.084C93.8439 264.228 95.0813 260.4 94.3079 256.998C97.4206 256.592 100.166 254.059 100.456 250.637Z" fill="#FFC152"/>
<path d="M83.5006 241.918C81.084 241.473 78.184 242.15 76.2313 243.348C72.7513 245.456 71.2046 250.25 72.732 254.02C74.2786 257.79 78.6866 260.13 82.6886 259.318C86.6906 258.506 89.842 254.697 89.9193 250.618C89.9773 247.602 88.3533 244.644 85.9173 242.904C85.2213 242.401 84.39 242.072 83.5006 241.918Z" fill="#9F5D3A"/>
<path d="M37.4873 395.231C32.828 449.19 32.0933 503.401 35.322 557.476C35.4187 558.946 37.6807 558.81 37.584 557.341C34.3747 503.478 35.0707 449.461 39.7107 395.714C39.846 394.264 37.6227 393.781 37.4873 395.231Z" fill="#5B3426"/>
<path d="M45.5107 351.654C45.2787 350.9 44.834 350.262 44.0993 350.339C43.616 350.397 43.2293 350.784 42.92 351.151C32.422 363.447 33.5433 380.383 37.294 395.134C37.5453 396.12 38.2027 397.358 39.1887 397.106C39.8267 396.952 40.136 396.236 40.3487 395.618C45.008 381.852 46.8447 367.14 45.7233 352.659C45.6653 352.33 45.6073 351.982 45.5107 351.654Z" fill="#5B3426"/>
<path d="M36.4433 438.75C36.4626 438.441 36.4239 438.112 36.4046 437.803C34.7613 423.361 30.45 409.228 23.78 396.333C23.5866 395.965 23.374 395.559 23.0066 395.347C22.3686 394.979 21.4986 395.385 21.112 396.004C20.3 397.319 20.648 399.503 20.6673 400.953C20.6866 403.157 20.7446 405.342 20.8413 407.546C21.0346 411.799 21.46 416.072 22.388 420.248C24.012 427.459 27.2986 434.516 32.886 439.369C33.7366 440.123 35.0706 440.819 35.9213 440.065C36.2886 439.717 36.4239 439.253 36.4433 438.75Z" fill="#5B3426"/>
<path d="M35.322 484.725C35.3413 484.416 35.3027 484.087 35.2833 483.778C33.64 469.336 29.3287 455.203 22.6587 442.308C22.4653 441.94 22.2527 441.534 21.8853 441.322C21.2473 440.954 20.3773 441.36 19.9907 441.979C19.1787 443.294 19.5267 445.478 19.546 446.928C19.5653 449.132 19.6233 451.317 19.72 453.521C19.9133 457.774 20.3387 462.047 21.2667 466.223C22.8907 473.434 26.1773 480.491 31.7647 485.343C32.6153 486.097 33.9493 486.794 34.8 486.04C35.1673 485.711 35.3027 485.228 35.322 484.725Z" fill="#5B3426"/>
<path d="M34.974 514.556C34.916 514.285 34.8387 514.034 34.742 513.783C30.4693 502.183 24.07 491.375 15.95 482.076C15.718 481.805 15.4473 481.515 15.1187 481.419C14.5193 481.245 13.8813 481.747 13.688 482.347C13.282 483.584 14.0167 485.324 14.326 486.523C14.79 488.34 15.2733 490.138 15.7953 491.936C16.82 495.416 18.0187 498.857 19.6427 502.105C22.4267 507.731 26.5833 512.893 32.1707 515.774C33.0407 516.219 34.2587 516.528 34.8193 515.735C35.0513 515.387 35.0513 514.981 34.974 514.556Z" fill="#5B3426"/>
<path d="M34.0073 485.769C34.7227 486.659 36.134 486.214 37.12 485.634C43.4807 481.864 48.0047 475.523 50.9047 468.717C52.5674 464.793 53.766 460.675 54.7327 456.518C55.2354 454.372 55.6607 452.226 56.086 450.061C56.3567 448.63 57.1107 446.561 56.55 445.131C56.2794 444.435 55.506 443.893 54.81 444.145C54.404 444.28 54.1334 444.628 53.8627 444.976C44.9694 456.46 38.1834 469.587 33.9493 483.488C33.8527 483.778 33.7753 484.087 33.7367 484.397C33.6593 484.899 33.7173 485.383 34.0073 485.769Z" fill="#5B3426"/>
<path d="M34.4713 518.868C35.0513 519.834 36.54 519.583 37.584 519.138C44.37 516.219 49.6866 510.516 53.4179 504.136C55.5833 500.443 57.2846 496.518 58.7733 492.516C59.5466 490.448 60.2619 488.379 60.9579 486.291C61.4219 484.918 62.4273 482.947 62.0599 481.458C61.8859 480.743 61.1706 480.105 60.4553 480.259C60.0493 480.337 59.7206 480.646 59.4113 480.955C49.1066 491.202 40.6966 503.343 34.7033 516.586C34.568 516.857 34.452 517.166 34.3746 517.476C34.2393 517.959 34.22 518.442 34.4713 518.868Z" fill="#5B3426"/>
<path d="M35.438 439.292C35.9986 440.142 37.3133 439.852 38.2413 439.408C44.254 436.527 48.7973 431.191 51.9293 425.294C53.7273 421.892 55.1193 418.296 56.2986 414.642C56.9173 412.766 57.4779 410.852 58.0193 408.958C58.3866 407.701 59.2179 405.884 58.8119 404.569C58.6186 403.931 57.9613 403.39 57.3233 403.544C56.9559 403.641 56.6659 403.931 56.4146 404.202C47.5406 413.83 40.426 425.082 35.554 437.223C35.4573 437.474 35.3606 437.745 35.2833 438.035C35.1866 438.48 35.1866 438.924 35.438 439.292Z" fill="#5B3426"/>
<path d="M227.147 331.025C223.049 328.686 218.853 332.726 216.282 335.491C213.962 337.966 212.029 340.692 210.424 343.611C211.178 339.474 211.99 335.336 212.86 331.218C216.011 326.984 218.293 322.093 219.491 316.931C220.033 314.611 220.226 311.788 218.447 310.203C217.809 309.623 216.997 309.333 216.166 309.275C214.813 309.178 213.363 309.662 212.338 310.59C210.675 312.078 209.921 314.34 209.612 316.544C208.916 321.61 208.935 326.482 210.482 331.392C210.482 331.412 210.501 331.431 210.501 331.47C209.187 337.714 208.007 343.998 206.944 350.281C206.383 346.588 205.378 342.915 203.541 339.899C202.014 337.366 198.553 335.124 195.731 337.27C192.521 339.706 194.513 344.423 195.885 347.246C198.147 351.847 201.511 355.675 205.571 358.768C204.759 364.24 204.025 369.73 203.406 375.221C202.594 372.514 201.376 369.943 199.675 367.546C197.529 364.491 193.643 360.16 189.447 362.326C180.109 367.101 197.606 381.756 202.343 385.41C201.898 390.262 201.511 395.115 201.221 399.987C199.578 396.971 197.954 393.878 195.982 391.152C194.648 389.296 192.347 388.116 190.433 389.992C185.349 394.96 196.639 401.94 200.951 404.453C200.622 410.949 200.409 417.445 200.332 423.96C200.313 425.41 202.575 425.681 202.594 424.212C202.671 417.735 202.884 411.258 203.213 404.801C203.406 404.646 203.541 404.434 203.619 404.221C209.071 402.713 214.117 400.161 218.331 396.333C220.709 394.187 226.548 389.044 223.435 385.41C220.477 381.949 215.296 386.434 213.015 388.329C209.129 391.558 205.977 395.444 203.483 399.774C203.793 394.69 204.199 389.605 204.682 384.52C204.933 384.404 205.165 384.192 205.281 383.882C209.979 381.137 214.136 377.638 217.442 373.307C219.124 371.103 223.899 365.477 220.168 363.002C216.611 360.644 212.667 365.632 210.656 367.99C208.529 370.504 206.828 373.288 205.513 376.246C206.383 368.454 207.466 360.663 208.723 352.91C208.781 352.852 208.839 352.794 208.897 352.717C208.916 352.698 208.935 352.698 208.955 352.698C212.125 350.339 215.315 347.98 218.486 345.622C221.328 343.514 224.769 341.542 227.244 338.99C229.545 336.69 230.376 332.862 227.147 331.025Z" fill="#5B3426"/>
<path d="M65.9073 489.771C58.5413 472.313 52.3353 454.41 47.3086 436.14C46.922 434.729 49.184 434.419 49.5513 435.811C54.1913 452.651 59.856 469.161 66.5066 485.324C67.0673 466.339 69.0586 447.392 72.5193 428.639C72.79 427.208 75.052 427.479 74.7813 428.909C70.5086 452.071 68.4593 475.522 68.614 498.993C72.5193 489.887 77.952 481.631 84.8346 474.401C85.84 473.357 87.6766 474.691 86.6713 475.754C78.6673 484.145 72.6546 493.869 68.7686 504.773C68.7493 504.812 68.73 504.831 68.7106 504.87C68.962 515.813 69.6966 526.775 70.9146 537.679C71.0693 539.129 68.8266 539.477 68.672 538.007C66.8933 522.135 66.1393 506.185 66.3906 490.254C66.1973 490.196 66.0233 490.041 65.9073 489.771Z" fill="#5B3426"/>
<path d="M72.9833 413.346C85.2987 411.51 88.16 430.65 75.8253 432.467C63.51 434.304 60.6487 415.183 72.9833 413.346Z" fill="white"/>
<path d="M46.6513 427.749C55.332 426.454 57.362 439.968 48.662 441.244C39.9813 442.539 37.9513 429.045 46.6513 427.749Z" fill="white"/>
<path d="M85.6467 469.548C93.612 468.369 95.468 480.742 87.4833 481.922C79.518 483.101 77.662 470.728 85.6467 469.548Z" fill="white"/>
<path d="M194.145 309.99C168.529 371.567 149.814 435.85 138.349 501.564C138.098 502.995 140.283 503.613 140.534 502.163C151.979 436.449 170.694 372.166 196.33 310.589C196.91 309.236 194.706 308.656 194.145 309.99Z" fill="#645D33"/>
<path d="M208.645 297.365C207.137 296.012 204.353 294.659 203.425 294.175C200.39 292.59 196.949 291.797 193.527 291.894C190.453 291.991 192.077 297.791 192.173 299.917C192.367 303.881 192.56 307.863 192.753 311.827C192.792 312.523 192.947 313.393 193.604 313.605C194.184 313.799 194.764 313.335 195.209 312.909C199.791 308.579 204.373 304.267 208.974 299.937C209.283 299.647 209.631 299.279 209.612 298.854C209.593 298.39 209.225 297.887 208.645 297.365Z" fill="#645D33"/>
<path d="M245.881 290.038C240.681 287.796 234.223 287.718 228.172 288.279C237.143 283.6 248.53 274.784 241.377 266.49C237.742 262.256 230.975 264.209 226.664 266.065C222.681 267.786 219.24 270.26 216.359 273.354C220.941 262.914 225.04 246.79 212.087 245.939C205.339 245.494 199.887 251.758 197.2 257.249C194.609 262.546 193.875 268.366 194.822 274.05C190.975 267.786 187.263 261.212 182.681 255.586C179.529 251.7 174.889 249.052 169.998 251.546C156.445 258.486 169.012 275.229 175.682 281.899C186.083 292.281 199.327 299.628 213.401 303.688C220.613 305.756 228.114 306.994 235.615 307.303C241.009 307.535 247.621 307.458 250.889 302.373C254.04 297.443 250.695 292.126 245.881 290.038Z" fill="#C49953"/>
<path d="M203.928 355.443C203.251 354.515 202.343 353.8 201.241 353.491C199.23 352.93 197.103 353.8 195.325 354.902C191.69 357.145 188.713 360.296 185.987 363.583C180.245 370.465 175.295 377.967 170.636 385.623C168.857 388.542 167.137 391.481 165.493 394.458C164.836 395.657 160.37 402.191 163.231 402.481C163.831 402.539 164.43 402.269 164.971 401.979C177.151 395.753 187.475 386.377 196.369 375.975C199.307 372.553 202.111 368.938 203.909 364.801C204.779 362.79 205.417 360.567 205.107 358.382C204.953 357.319 204.547 356.294 203.928 355.443Z" fill="#645D33"/>
<path d="M154.415 433.666C154.435 432.95 154.299 432.216 154.183 431.52C152.521 422.646 150.839 413.772 148.19 405.149C146.856 400.838 145.29 396.546 142.854 392.737C141.346 390.378 139.084 388.02 136.3 388.194C132.221 388.445 130.964 392.95 131.428 396.275C132.066 400.78 133.671 405.091 135.488 409.248C139.567 418.547 144.884 427.324 151.206 435.27C151.67 435.85 152.289 436.469 153.004 436.295C153.313 436.218 153.565 436.005 153.739 435.754C154.241 435.174 154.415 434.439 154.415 433.666Z" fill="#645D33"/>
<path d="M400.103 290.251C385.429 273.567 399.736 252.184 405.265 234.629C411.085 216.185 413.772 196.581 412.709 177.267C410.756 141.945 395.773 107.88 368.977 84.3899C343.882 62.3692 310.725 52.1612 277.704 58.1739C243.561 64.3799 216.707 87.4252 204.044 119.538C190.607 153.661 193.604 193.159 209.206 226.026C224.383 257.965 252.223 282.711 285.225 295.143C290.232 297.018 295.336 298.584 300.537 299.86C303.166 300.498 305.834 301.078 308.502 301.561C311.615 302.122 314.689 301.619 317.801 301.581C320.721 301.561 323.737 302.277 326.424 303.359C330.6 305.022 334.293 307.709 337.425 310.919C344.288 317.956 348.619 327.236 351.673 336.477C354.651 345.525 356.526 354.999 357.261 364.491C357.319 365.245 357.377 366.019 357.415 366.773C358.904 394.052 350.939 421.892 334.428 443.758C316.177 467.905 287.835 481.671 268.695 505.025C251.333 526.215 240.507 552.373 237.955 579.652H304.113C304.307 572.673 304.094 565.616 304.055 558.598C303.959 541.817 305.699 521.961 319.928 510.748C342.548 492.923 381.234 500.907 393.066 469.046C398.943 453.231 394.419 435.309 389.799 419.785C384.501 402.017 377.599 379.745 390.398 363.505C400.587 350.571 419.108 343.051 421.312 324.839C423.207 309.082 409.209 300.614 400.103 290.251Z" fill="#D8C19E"/>
<path d="M343.495 338.585C341.562 333.036 339.165 327.661 336.284 322.519C330.484 312.156 322.751 302.605 319.58 291.16C316.177 278.864 318.439 265.679 322.287 253.518C322.557 252.667 322.828 251.778 322.635 250.889C322.055 248.337 318.497 248.279 315.926 248.743C301.967 251.217 287.506 250.889 273.663 247.757C271.769 247.331 269.313 247.061 268.289 248.723C267.593 249.864 267.999 251.314 268.385 252.59C274.611 273.277 270.048 296.921 256.553 313.799C248.994 323.273 239.037 330.484 229.951 338.488C216.862 350.03 208.433 362.945 205.533 380.248C202.323 399.465 203.174 419.34 208.085 438.19C208.587 440.123 209.225 442.173 210.811 443.391C212.164 444.435 213.943 444.667 215.644 444.841C244.799 447.915 274.34 447.161 303.282 442.598C314.785 440.781 326.888 438.016 335.182 429.857C342.587 422.588 345.815 412.109 347.671 401.901C351.557 380.905 350.533 358.672 343.495 338.585Z" fill="#AB7051"/>
<path d="M335.221 429.896C342.625 422.627 345.854 412.148 347.71 401.94C351.557 380.905 350.533 358.691 343.495 338.604C341.562 333.055 339.165 327.681 336.284 322.538C334.389 319.155 332.282 315.849 330.213 312.543C320.914 321.629 307.497 326.153 294.331 324.819C281.377 323.505 269.835 316.951 260.768 307.883C259.473 309.933 258.081 311.943 256.573 313.838C249.013 323.311 239.057 330.523 229.97 338.527C216.881 350.069 208.452 362.983 205.552 380.287C202.343 399.504 203.193 419.379 208.104 438.229C208.607 440.162 209.245 442.211 210.83 443.429C212.183 444.473 213.962 444.705 215.663 444.879C244.818 447.953 274.359 447.199 303.301 442.637C314.824 440.819 326.907 438.055 335.221 429.896Z" fill="#F8F8F8"/>
<path d="M366.251 301.407C365.516 300.672 364.762 299.976 363.989 299.319C352.775 290.039 336.071 290.039 321.262 291.373C317.086 291.74 315.133 297.173 316.757 301.175C322.287 314.805 324.877 317.009 323.118 325.4C321.378 333.79 314.998 341.06 306.897 343.882C297.54 347.13 287.313 344.598 277.511 343.186C267.709 341.794 256.399 342.104 249.613 349.315C240.603 358.924 244.277 375.531 236.195 385.932C230.569 393.182 220.497 395.541 211.333 395.038C202.169 394.536 193.275 391.713 184.15 390.727C167.349 388.91 147.185 396.295 143.453 412.767C139.741 429.181 153.971 446.484 148.113 462.26C143.724 474.034 129.959 479.332 117.469 480.724C97.6139 482.966 74.8973 479.854 60.1266 493.31C48.3913 504.02 46.1873 521.575 37.526 534.895C29.464 547.327 15.3506 555.37 0.676636 556.723V579.691H282.421C287.641 554.306 290.213 527.143 306.105 507.423C317.125 493.774 333.365 485.325 345.448 472.604C367.372 449.5 372.824 415.706 376.497 384.076C378.817 364.105 380.847 343.728 376.787 324.046C375.105 315.772 372.167 307.439 366.251 301.407Z" fill="#D8C19E"/>
<path d="M310.474 275.868C303.765 279.406 294.93 274.398 289.285 270.609C283.601 266.8 278.941 261.87 275.21 256.148C273.47 253.48 269.159 255.974 270.918 258.661C278.535 270.319 297.791 288.183 312.987 280.16C315.81 278.671 313.297 274.36 310.474 275.868Z" fill="#68422D"/>
<path d="M323.079 108.441C322.306 108.015 321.494 107.629 320.624 107.667C318.942 107.764 317.84 109.388 316.97 110.838C299.783 139.548 272.078 161.82 240.352 172.434C235.461 174.077 229.487 175.933 226.355 180.341C222.72 185.445 223.493 192.985 227.263 197.799C230.221 201.589 235.055 203.851 239.869 203.696C245.862 218.022 252.01 232.406 260.729 245.243C269.449 258.1 280.952 269.449 295.22 275.597C302.857 278.883 309.681 282.731 317.569 277.704C325.399 272.716 333.113 264.364 339.203 257.423C346.975 248.549 353.491 238.554 358.227 227.766C367.353 206.944 369.769 183.029 363.776 161.105C357.783 139.181 343.147 119.519 323.253 108.518C323.157 108.479 323.118 108.46 323.079 108.441Z" fill="#AB7051"/>
<path d="M296.245 178.002C295.916 178.041 295.587 178.195 295.317 178.408C294.775 178.833 294.447 179.471 294.099 180.051C291.759 183.937 287.583 186.663 283.098 187.263C278.593 187.862 273.857 186.335 270.589 183.203C269.855 182.507 269.12 181.695 268.115 181.501C263.185 180.573 270.338 188.867 271.421 189.679C274.669 192.115 278.767 193.43 282.827 193.101C289.71 192.521 295.955 187.205 297.598 180.496C297.791 179.703 297.869 178.717 297.231 178.234C296.941 178.021 296.593 177.963 296.245 178.002Z" fill="#311C17"/>
<path d="M277.975 211.468C275.519 211.487 273.083 212.319 270.879 213.865C265.563 217.577 261.754 224.518 262.779 231.014C263.803 237.568 268.83 243.175 275.674 243.813C282.421 244.451 289.207 239.888 291.527 233.508C294.176 226.2 290.928 217.365 284.335 213.305C282.305 212.029 280.14 211.429 277.975 211.468Z" fill="#9F5D3A"/>
<path d="M291.392 163.463C282.634 159.113 272.465 159.964 264.693 165.957C263.436 166.924 264.673 169.089 265.949 168.103C273.006 162.651 282.112 161.607 290.135 165.609C291.566 166.324 292.823 164.178 291.392 163.463Z" fill="#291410"/>
<path d="M325.071 179.703C324.587 180.302 324.839 181.25 325.148 182.004C327.816 188.345 334.293 192.56 340.479 191.999C344.133 191.67 347.517 189.698 349.933 186.779C350.745 185.793 355.559 176.494 351.383 178.195C350.533 178.543 350.03 179.452 349.508 180.264C347.169 183.879 343.263 186.16 339.184 186.296C335.105 186.431 330.929 184.42 328.164 180.979C327.739 180.457 327.333 179.896 326.791 179.548C326.521 179.394 326.211 179.297 325.902 179.297C325.573 179.316 325.283 179.432 325.071 179.703Z" fill="#311C17"/>
<path d="M364.066 210.288C362.21 209.264 360.238 208.684 358.247 208.645C356.101 208.626 353.916 209.206 351.886 210.462C345.293 214.522 342.045 223.358 344.694 230.666C346.028 234.339 348.851 237.394 352.311 239.211C354.496 235.499 356.468 231.652 358.208 227.708C360.663 222.12 362.616 216.262 364.066 210.288Z" fill="#9F5D3A"/>
<path d="M335.646 160.621C343.592 156.271 352.814 157.122 359.871 163.115C361.011 164.082 359.89 166.247 358.73 165.261C352.331 159.809 344.075 158.765 336.787 162.767C335.491 163.483 334.351 161.337 335.646 160.621Z" fill="#291410"/>
<path d="M318.652 198.611C318.401 198.012 318.149 197.432 317.898 196.833C315.288 190.491 313.838 183.473 315.095 176.726C315.23 176.011 315.385 175.257 315.153 174.58C314.921 173.903 314.089 173.362 313.451 173.691C312.949 173.961 312.794 174.599 312.697 175.16C311.344 183.86 312.755 192.966 316.661 200.854C317.55 202.671 318.594 204.431 319.135 206.383C319.677 208.336 319.657 210.559 318.536 212.241C317.241 214.175 314.824 215.006 312.523 215.354C309.101 215.876 310.223 217.945 312.91 218.602C315.211 219.163 317.898 218.273 319.483 216.533C321.842 213.943 322.248 210.076 321.552 206.654C320.991 203.831 319.793 201.221 318.652 198.611Z" fill="#291410"/>
<path d="M320.083 235.461C319.541 235.693 319.155 236.157 318.729 236.563C316.583 238.67 313.664 239.946 310.648 240.081C307.651 240.197 304.616 239.173 302.315 237.239C301.658 236.698 301.02 236.06 300.189 235.886C296.496 235.151 300.672 240.642 301.445 241.454C303.282 243.387 305.699 244.799 308.328 245.34C312.659 246.21 317.434 244.586 320.16 241.106C321.146 239.849 321.881 238.322 321.919 236.717C321.919 236.389 321.9 236.021 321.707 235.751C321.397 235.267 320.663 235.209 320.083 235.461Z" fill="#291410"/>
<path d="M443.874 411.104C419.205 471.85 403.274 535.031 399.794 600.648C399.717 602.118 401.998 602.098 402.075 600.648C405.555 535.224 421.467 472.275 446.078 411.704C446.619 410.35 444.415 409.77 443.874 411.104Z" fill="#645D33"/>
<path d="M459.283 379.417C459.186 379.088 459.051 378.759 458.741 378.643C458.374 378.508 457.968 378.721 457.639 378.953C452.671 382.297 448.862 387.189 446.387 392.641C444.667 396.43 443.584 400.471 443.004 404.589C442.714 406.561 442.656 408.514 442.521 410.486C442.405 412.013 442.076 413.753 443.371 414.913C443.584 415.106 443.855 415.28 444.145 415.28C444.667 415.3 445.073 414.874 445.401 414.488C449.597 409.558 453.618 404.396 456.363 398.537C459.128 392.679 460.559 386.029 459.379 379.668C459.321 379.591 459.302 379.494 459.283 379.417Z" fill="#645D33"/>
<path d="M428.388 411.742C428.33 411.665 428.253 411.607 428.156 411.549C427.731 411.317 427.17 411.549 426.88 411.955C426.609 412.361 426.532 412.863 426.474 413.347C425.894 418.277 425.739 422.994 426.88 427.866C428.021 432.68 430.263 436.585 432.815 440.742C432.97 440.955 433.144 441.167 433.395 441.225C433.975 441.341 434.265 440.568 434.323 439.988C435.232 430.437 433.221 420.616 428.659 412.187C428.581 412.013 428.485 411.858 428.388 411.742Z" fill="#645D33"/>
<path d="M456.344 422.665C456.344 422.646 456.344 422.607 456.344 422.588C456.247 422.028 455.455 422.008 454.894 422.143C449.964 423.4 445.401 425.933 441.651 429.355C439.737 431.095 438.016 433.086 436.585 435.251C435.87 436.334 435.213 437.455 434.633 438.615C434.091 439.698 433.299 441.032 435.213 440.897C437.359 440.742 439.311 439.621 441.051 438.383C443.893 436.353 446.426 433.937 448.901 431.462C451.453 428.91 453.966 426.281 456.073 423.342C456.189 423.129 456.344 422.897 456.344 422.665Z" fill="#645D33"/>
<path d="M350.262 685.619C353.143 618.532 338.159 550.768 307.226 491.183C306.801 490.352 306.298 489.462 305.409 489.134C302.199 487.954 303.011 496.809 302.973 498.259C302.799 502.841 302.663 507.404 302.547 511.986C302.335 521.13 302.296 530.294 302.509 539.439C302.915 557.245 304.287 575.051 307.303 592.606C313.084 626.226 325.187 659.306 346.318 686.102C347.188 687.223 348.889 688.364 349.817 687.301C350.165 686.895 350.204 686.315 350.243 685.773C350.262 685.715 350.262 685.677 350.262 685.619Z" fill="#3A3F57"/>
<path d="M339.203 653.622C339.203 653.467 339.203 653.312 339.203 653.158C338.391 631.292 335.723 609.503 331.431 588.062C327.294 567.356 322.944 546.592 314.901 526.988C313.761 524.185 310.358 521.111 309.43 525.828C309.005 527.916 311.131 532.189 311.692 534.258C313.161 539.768 314.592 545.297 315.984 550.826C318.749 561.904 321.301 573.021 323.659 584.176C328.377 606.506 332.282 628.991 335.356 651.592C335.491 652.616 335.665 653.738 336.4 654.472C337.115 655.226 338.585 655.304 339.068 654.395C339.165 654.163 339.203 653.892 339.203 653.622Z" fill="#495382"/>
<path d="M316.989 557.284C312.291 555.022 307.593 552.741 302.895 550.479C302.992 552.335 303.089 554.191 303.205 556.027C305.873 558.115 308.637 560.087 311.46 561.963C313.915 563.587 318.517 567.55 321.513 567.763C323.195 567.879 323.949 566.487 324.046 564.824C324.355 560.107 320.682 559.063 316.989 557.284Z" fill="#495382"/>
<path d="M360.103 697.586C332.514 636.376 288.666 582.591 234.243 543.267C233.489 542.726 232.638 542.146 231.71 542.262C228.307 542.648 233.025 550.188 233.624 551.503C235.519 555.66 237.452 559.816 239.424 563.954C243.349 572.209 247.428 580.406 251.739 588.488C260.111 604.206 269.352 619.498 279.947 633.824C300.227 661.258 325.902 685.367 356.835 699.79C358.131 700.389 360.161 700.66 360.509 699.287C360.644 698.765 360.412 698.224 360.199 697.721C360.141 697.663 360.122 697.624 360.103 697.586Z" fill="#3A3F57"/>
<path d="M335.839 673.96C335.781 673.825 335.704 673.689 335.627 673.554C325.071 654.395 312.891 636.144 299.415 618.899C286.404 602.272 273.18 585.684 257.172 571.783C254.891 569.792 250.483 568.574 251.759 573.214C252.319 575.263 256.128 578.125 257.578 579.729C261.367 583.983 265.137 588.275 268.849 592.605C276.293 601.247 283.581 610.044 290.696 618.937C304.945 636.763 318.536 655.091 331.47 673.902C332.069 674.753 332.707 675.661 333.693 676.009C334.679 676.357 336.033 675.777 336.052 674.733C336.033 674.463 335.955 674.211 335.839 673.96Z" fill="#495382"/>
<path d="M352.698 599.759C352.659 600.3 352.621 600.88 352.93 601.344C353.723 602.523 355.54 601.595 356.545 600.609C380.867 576.675 397.01 545.374 406.947 512.739C412.129 495.687 415.725 478.191 418.354 460.578C419.707 451.53 420.809 442.443 421.757 433.337C422.221 428.794 422.665 424.231 423.052 419.669C423.187 418.219 425.101 409.538 421.776 410.311C420.867 410.524 420.249 411.336 419.727 412.109C381.582 467.364 358.227 532.73 352.717 599.643C352.698 599.662 352.698 599.701 352.698 599.759Z" fill="#3A3F57"/>
<path d="M367.759 570.024C368.126 571.01 369.595 571.107 370.407 570.449C371.219 569.792 371.529 568.709 371.799 567.704C377.696 545.664 384.385 523.837 391.848 502.28C395.579 491.492 399.504 480.781 403.622 470.148C405.69 464.831 407.798 459.534 409.944 454.256C410.756 452.265 413.385 448.282 413.25 446.175C412.902 441.38 409.151 444.009 407.662 446.639C397.223 465.083 390.32 485.131 383.612 505.161C376.671 525.905 371.297 547.191 367.759 568.787C367.739 568.941 367.701 569.096 367.701 569.231C367.662 569.502 367.662 569.773 367.759 570.024Z" fill="#495382"/>
<path d="M401.766 476.431C406.715 474.769 411.645 473.106 416.595 471.443C416.285 473.28 415.937 475.097 415.609 476.915C412.709 478.655 409.712 480.279 406.677 481.767C404.028 483.063 398.982 486.427 395.985 486.272C394.303 486.175 393.723 484.706 393.839 483.024C394.11 478.326 397.899 477.727 401.766 476.431Z" fill="#495382"/>
<path d="M386.299 511.29C394.226 508.042 402.172 504.794 410.099 501.526C409.615 503.324 409.132 505.142 408.629 506.92C401.882 510.652 395.135 514.402 388.368 518.134C386.976 518.907 383.245 519.874 383.419 517.09C383.438 516.664 383.535 516.162 383.651 515.62C384.076 513.919 384.985 511.831 386.299 511.29Z" fill="#495382"/>
<path d="M378.953 538.839C386.067 535.359 393.453 532.421 401.012 530.023C400.084 532.459 399.117 534.876 398.112 537.273C391.268 540.695 384.424 544.117 377.561 547.539C376.459 548.1 374.139 549.086 373.578 547.249C373.404 546.669 373.559 545.896 373.907 545.026C374.931 542.59 377.561 539.516 378.953 538.839Z" fill="#495382"/>
<path d="M379.281 528.245C382.432 529.908 386.299 530.7 389.663 531.822C393.414 533.059 397.164 534.316 400.934 535.553C400.954 535.553 400.973 535.553 400.993 535.553C401.07 535.611 401.147 535.65 401.224 535.688C404.84 542.648 408.3 549.705 411.568 556.839C409.383 554.442 406.908 552.334 404.105 550.614C401.476 548.99 396.178 545.49 393.51 548.854C390.746 552.354 397.029 556.22 399.33 557.786C403.834 560.86 408.88 562.89 414.197 564.031C414.41 564.282 414.68 564.418 414.97 564.437C417.02 569.116 418.992 573.814 420.867 578.55C417.136 575.206 412.941 572.499 408.243 570.662C405.478 569.58 399.156 566.931 397.416 571.146C395.599 575.573 402.771 578.628 405.69 579.923C410.91 582.224 416.498 583.094 422.143 582.804C422.278 582.997 422.472 583.132 422.704 583.229C425.043 589.261 427.266 595.332 429.354 601.48C429.818 602.872 431.887 601.905 431.423 600.532C429.316 594.365 427.092 588.256 424.734 582.204C428.059 578.473 436.604 568.304 430.205 565.172C427.808 563.992 425.99 565.829 425.294 568.014C424.27 571.223 423.709 574.664 423.09 578.048C421.292 573.524 419.398 569.019 417.464 564.553C420.828 559.604 432.873 540.212 422.51 538.588C417.851 537.854 415.512 543.19 414.429 546.747C413.579 549.55 413.23 552.373 413.288 555.196C410.968 550.169 408.571 545.181 406.077 540.232C408.977 536.036 410.968 531.338 411.684 526.254C412.109 523.141 412.535 518.056 408.726 516.722C405.362 515.562 402.81 518.772 402.133 521.652C401.34 525.094 401.515 528.902 402.153 532.576C399.175 526.93 396.101 521.343 392.892 515.814C392.892 515.794 392.892 515.756 392.892 515.736C392.814 510.594 391.306 505.954 389.083 501.372C388.097 499.361 386.686 497.447 384.636 496.558C383.38 496.016 381.852 495.997 380.596 496.519C379.822 496.848 379.146 497.37 378.72 498.124C377.522 500.192 378.585 502.802 379.822 504.852C382.568 509.356 386.26 513.3 390.591 516.336C392.698 519.97 394.767 523.644 396.778 527.336C394.342 525.055 391.654 523.083 388.677 521.459C385.371 519.661 380.132 517.128 376.961 520.628C374.467 523.392 376.439 526.756 379.281 528.245Z" fill="#645D33"/>
<path d="M288.453 549.995C286.52 531.145 283.33 512.469 278.941 494.044C278.593 492.613 276.467 493.426 276.815 494.837C280.855 511.831 283.833 529.037 285.766 546.399C276.138 530.023 265.273 514.383 253.209 499.612C252.281 498.491 250.425 499.806 251.353 500.946C266.239 519.197 279.328 538.762 290.483 559.41C282.673 553.32 273.953 548.68 264.422 545.664C263.049 545.219 262.083 547.288 263.475 547.733C274.514 551.232 284.471 556.858 293.151 564.553C293.19 564.591 293.229 564.591 293.248 564.611C298.294 574.335 302.934 584.273 307.11 594.442C307.671 595.795 309.797 595.003 309.237 593.649C303.147 578.879 296.148 564.533 288.26 550.691C288.395 550.517 288.473 550.285 288.453 549.995Z" fill="#5B3426"/>
<path d="M245.456 486.427C233.779 490.757 240.487 508.892 252.165 504.561C263.842 500.231 257.153 482.096 245.456 486.427Z" fill="white"/>
<path d="M275.481 486.388C267.245 489.443 271.962 502.242 280.217 499.187C288.453 496.132 283.717 483.314 275.481 486.388Z" fill="white"/>
<path d="M261.406 541.778C253.847 544.581 258.197 556.317 265.756 553.513C273.315 550.71 268.985 538.975 261.406 541.778Z" fill="white"/>
<path d="M304.326 417.214C304.249 416.924 304.152 416.614 303.92 416.44C303.495 416.131 302.915 416.324 302.431 416.537C300.266 417.542 298.217 418.741 296.303 420.152C294.563 421.409 291.721 423.652 294.176 425.546C297.115 427.808 300.073 430.032 303.05 432.255C303.63 432.68 304.326 433.125 305.003 432.893C305.873 432.584 306.008 431.443 305.989 430.534C305.853 426.107 305.312 421.699 304.365 417.368C304.345 417.31 304.345 417.252 304.326 417.214Z" fill="#645D33"/>
<path d="M309.333 393.511C308.85 387.344 307.883 377.194 300.865 374.874C295.375 373.056 291.701 377.793 290.831 382.684C289.942 387.653 290.367 392.892 291.566 397.957C290.271 395.927 288.898 393.936 287.409 392.022C285.341 389.354 281.532 384.115 277.472 386.764C273.799 389.161 276.177 394.458 277.472 397.455C278.806 400.568 280.469 403.468 282.363 406.213C277.685 402.984 272.078 400.355 267.438 401.418C260.903 402.926 264.171 408.61 267.206 411.877C275.829 421.157 293.113 433.183 303.881 419.533C309.275 412.67 309.971 401.882 309.333 393.511Z" fill="#645D33"/>
<path d="M305.08 429.684C304.481 428.35 302.528 429.51 303.108 430.824C327.7 486.04 342.799 545.162 347.671 605.404C347.787 606.854 350.069 606.874 349.953 605.404C345.042 544.756 329.865 485.286 305.08 429.684Z" fill="#645D33"/>
<path d="M323.35 479.525C323.311 479.389 323.273 479.254 323.215 479.119C322.035 475.987 319.928 473.261 317.473 470.979C315.017 468.698 312.195 466.842 309.353 465.102C305.196 462.531 300.769 460.114 295.916 459.495C294.466 459.321 292.958 459.302 291.605 459.901C287.042 461.893 289.826 466.591 292.397 468.872C300.401 475.948 310.725 480.337 321.359 481.284C322.055 481.342 322.905 481.323 323.273 480.723C323.485 480.337 323.447 479.931 323.35 479.525Z" fill="#645D33"/>
<path d="M347.865 465.875C347.613 465.779 347.343 465.721 347.053 465.682C344.945 465.353 342.819 466.436 341.388 468.002C339.957 469.568 339.107 471.579 338.372 473.57C333.809 486.001 332.301 499.554 333.036 512.72C333.094 513.764 333.481 515.117 334.505 515.137C335.221 515.156 335.723 514.479 336.11 513.899C340.634 506.881 344.539 499.477 347.826 491.801C350.011 486.717 351.925 481.439 352.369 475.929C352.543 473.821 352.466 471.617 351.654 469.665C350.977 467.944 349.605 466.455 347.865 465.875Z" fill="#645D33"/>
<path d="M344.191 563.103C342.548 560.725 340.634 558.54 338.701 556.375C332.089 549.028 325.167 541.952 317.956 535.185C314.611 532.053 311.189 528.96 307.4 526.369C305.583 525.132 303.572 523.953 301.387 523.953C296.206 523.933 295.916 529.269 298.333 532.537C309.237 547.346 325.341 557.612 342.335 564.649C342.761 564.823 343.225 565.017 343.689 564.978C344.153 564.939 344.636 564.611 344.675 564.147C344.694 563.818 344.52 563.509 344.327 563.238C344.249 563.18 344.23 563.141 344.191 563.103Z" fill="#645D33"/>
<path d="M377.406 406.232C363.505 478.654 355.231 552.082 352.64 625.781C352.563 627.985 355.985 627.966 356.062 625.781C358.633 552.372 366.869 479.273 380.712 407.14C381.118 404.994 377.831 404.066 377.406 406.232Z" fill="#5B3426"/>
<path d="M371.664 455.706C371.606 455.474 371.529 455.242 371.432 455.049C366.251 444.377 359.561 434.459 351.789 425.488C351.345 424.985 350.861 424.444 350.185 424.328C347.439 423.864 350.204 431.675 350.61 432.873C351.731 436.218 353.239 439.408 355.115 442.405C358.827 448.379 363.931 453.521 369.963 457.156C370.311 457.369 370.717 457.581 371.103 457.485C371.819 457.349 371.877 456.499 371.664 455.706Z" fill="#5B3426"/>
<path d="M394.013 446.117C393.917 446.175 393.82 446.252 393.723 446.329C387.363 451.337 381.717 457.214 376.942 463.749C374.525 467.055 372.341 470.515 370.388 474.131C369.692 475.426 364.646 483.894 367.295 484.281C367.952 484.377 368.571 484.01 369.112 483.643C380.074 476.451 388.716 465.798 393.549 453.618C394.284 451.762 394.922 449.867 395.579 447.973C395.831 447.219 395.966 446.136 395.212 445.827C394.825 445.672 394.4 445.865 394.013 446.117Z" fill="#5B3426"/>
<path d="M431.965 341.272C425.237 328.067 408.339 340.209 398.344 350.243C398.499 349.817 398.653 349.411 398.789 349.044C401.65 341.852 404.724 334.718 407.392 327.449C408.861 323.447 410.079 318.787 406.251 315.713C402.307 312.543 394.941 312.504 390.108 312.079C386.57 311.769 382.723 312.021 381.099 315.713C378.856 320.798 380.867 329.092 381.447 334.389C382.104 340.479 383.129 346.511 384.385 352.505C380.074 343.708 374.719 334.293 367.604 328.048C360.741 322.035 354.129 326.695 349.392 332.785C343.341 340.576 345.351 345.873 352.563 351.809C359.136 357.241 366.695 361.166 374.757 363.641L362.732 363.467C357.512 363.389 351.886 362.713 346.705 363.525C339.068 364.723 338.333 370.659 339.957 377.193C341.678 384.153 345.719 391.674 354.129 389.741C359.329 388.561 363.718 384.637 367.971 381.679C372.379 378.605 376.807 375.531 381.215 372.476C374.835 380.538 368.957 389.335 364.994 398.789C361.147 407.953 367.817 412.206 375.705 415.454C382.007 418.045 390.785 417.948 393.375 410.331C395.115 405.227 394.052 398.615 393.897 393.317C393.743 387.614 393.414 381.93 392.969 376.246C397.938 383.283 403.699 389.702 410.35 395.212C415.899 399.813 422.24 402.423 426.783 395.154C430.476 389.219 432.641 381.756 426.126 377.116C418.876 371.954 409.171 368.667 400.316 365.845C409.751 365.323 419.205 363.486 427.885 359.774C436.469 356.081 435.793 348.754 431.965 341.272Z" fill="#C49953"/>
<path d="M395.367 348.232C394.497 347.923 393.588 347.729 392.66 347.613C389.122 347.169 385.468 348.077 382.394 349.914C371.393 356.526 372.457 374.448 385.449 378.141C391.829 379.958 399.253 376.826 402.423 371.007C404.067 367.991 404.608 364.453 404.376 361.031C404.183 358.111 403.39 355.192 401.689 352.814C400.123 350.668 397.861 349.102 395.367 348.232Z" fill="#FFC152"/>
<path d="M392.718 351.558C388.097 351.558 388.097 358.73 392.718 358.73C397.339 358.73 397.339 351.558 392.718 351.558Z" fill="#9F5D3A"/>
<path d="M383.399 357.783C379.707 357.783 379.707 363.525 383.399 363.525C387.092 363.525 387.092 357.783 383.399 357.783Z" fill="#9F5D3A"/>
<path d="M386.744 366.154C380.287 366.154 380.267 376.208 386.744 376.208C393.201 376.188 393.221 366.154 386.744 366.154Z" fill="#9F5D3A"/>
<path d="M398.46 358.015C393.839 358.015 393.839 365.187 398.46 365.187C403.081 365.187 403.081 358.015 398.46 358.015Z" fill="#9F5D3A"/>
<path d="M396.797 368.068C394.033 368.068 394.013 372.38 396.797 372.38C399.562 372.36 399.562 368.068 396.797 368.068Z" fill="#9F5D3A"/>
<path d="M433.821 471.501C433.415 470.09 431.211 470.689 431.636 472.1C443.294 512.41 449.345 554.074 449.635 596.027C449.654 597.496 451.917 597.496 451.917 596.027C451.607 553.88 445.536 512.004 433.821 471.501Z" fill="#645D33"/>
<path d="M426.377 447.354C426.339 447.296 426.281 447.238 426.223 447.18C426.049 446.987 425.817 446.774 425.565 446.813C425.256 446.871 425.159 447.238 425.121 447.547C423.709 457.021 425.449 466.494 432.448 473.551C432.699 473.802 433.086 474.053 433.356 473.841C433.492 473.744 433.53 473.551 433.55 473.396C435.212 464.232 432.486 454.372 426.377 447.354Z" fill="#645D33"/>
<path d="M422.105 489.443C422.027 489.423 421.969 489.404 421.892 489.385C421.641 489.307 421.331 489.249 421.138 489.443C420.906 489.655 421.022 490.023 421.157 490.313C425.005 499.09 431.558 506.166 441.225 508.409C441.573 508.486 442.037 508.505 442.153 508.177C442.211 508.022 442.153 507.848 442.076 507.693C438.576 499.013 431.017 492.13 422.105 489.443Z" fill="#645D33"/>
<path d="M427.692 520.376C427.634 520.357 427.557 520.337 427.499 520.318C427.267 520.26 426.977 520.221 426.822 520.395C426.629 520.608 426.745 520.937 426.861 521.188C430.708 529.037 436.953 535.224 445.846 536.887C446.155 536.945 446.581 536.945 446.677 536.635C446.716 536.481 446.658 536.326 446.6 536.191C443.081 528.457 435.928 522.483 427.692 520.376Z" fill="#645D33"/>
<path d="M430.379 554.287C430.302 554.267 430.244 554.248 430.167 554.229C429.915 554.171 429.625 554.132 429.451 554.306C429.239 554.519 429.374 554.867 429.49 555.137C433.531 563.393 440.104 569.908 449.461 571.648C449.79 571.706 450.234 571.706 450.331 571.377C450.37 571.223 450.312 571.068 450.234 570.913C446.561 562.793 439.041 556.491 430.379 554.287Z" fill="#645D33"/>
<path d="M441.109 506.63C441.129 506.804 441.167 506.978 441.303 507.094C441.573 507.326 441.96 507.074 442.211 506.823C449.365 499.94 451.337 490.486 450.119 480.994C450.08 480.684 449.983 480.317 449.674 480.24C449.423 480.182 449.191 480.394 448.997 480.588C448.939 480.646 448.901 480.704 448.843 480.742C442.598 487.644 439.659 497.427 441.109 506.63Z" fill="#645D33"/>
<path d="M446.31 535.263C446.31 535.417 446.329 535.591 446.426 535.707C446.639 535.939 447.045 535.765 447.296 535.572C454.623 530.081 457.523 521.671 457.504 512.836C457.504 512.546 457.465 512.198 457.195 512.101C456.963 512.024 456.731 512.178 456.537 512.333C456.479 512.372 456.441 512.43 456.383 512.468C449.867 518.056 446.059 526.679 446.31 535.263Z" fill="#645D33"/>
<path d="M450.331 570.353C450.331 570.488 450.351 570.643 450.447 570.759C450.641 570.971 451.008 570.817 451.24 570.623C457.949 565.616 460.578 557.921 460.578 549.84C460.578 549.589 460.539 549.26 460.288 549.163C460.075 549.086 459.863 549.241 459.689 549.376C459.65 549.415 459.592 549.453 459.553 549.492C453.579 554.615 450.099 562.503 450.331 570.353Z" fill="#645D33"/>
<path d="M251.836 108.692C251.836 108.499 251.759 108.305 251.507 108.247C248.414 107.377 245.321 106.527 242.227 105.657C243.465 104.535 244.721 103.395 245.959 102.273C246.403 101.867 245.746 101.229 245.301 101.616C244.006 102.795 242.711 103.975 241.415 105.154C241.048 102.041 240.681 98.9481 240.313 95.8355C240.294 95.6035 240.12 95.4681 239.927 95.4101C239.695 95.1975 239.269 95.1975 239.192 95.6035C238.573 98.8515 237.955 102.099 237.336 105.367C236.195 104.071 235.035 102.757 233.895 101.461C233.508 101.017 232.851 101.674 233.237 102.119C234.32 103.337 235.383 104.555 236.466 105.773C233.334 106.217 230.183 106.643 227.051 107.087C226.703 107.126 226.645 107.474 226.78 107.706C226.741 107.919 226.819 108.151 227.089 108.228C230.395 109.021 233.701 109.813 237.007 110.606C236.118 111.843 235.229 113.081 234.359 114.337C234.011 114.821 234.823 115.285 235.151 114.801C235.983 113.622 236.833 112.462 237.665 111.283L239.347 119.499C239.347 119.596 239.366 119.693 239.405 119.77C239.559 120.292 240.391 120.06 240.275 119.499L242.285 111.863C243.117 112.887 243.967 113.912 244.799 114.937C245.166 115.401 245.823 114.743 245.456 114.279C244.509 113.119 243.561 111.959 242.614 110.799C245.591 110.316 248.569 109.813 251.546 109.33C251.913 109.272 251.971 108.943 251.836 108.692Z" fill="#C1A073"/>
<path d="M127.813 507.732C127.813 507.538 127.735 507.345 127.484 507.287C124.391 506.417 121.297 505.566 118.204 504.696C119.441 503.575 120.698 502.434 121.935 501.313C122.38 500.907 121.723 500.269 121.278 500.656C119.983 501.835 118.687 503.014 117.392 504.194C117.025 501.081 116.657 497.988 116.29 494.875C116.271 494.643 116.097 494.508 115.903 494.45C115.671 494.237 115.246 494.237 115.169 494.643C114.55 497.891 113.931 501.139 113.313 504.406C112.172 503.111 111.012 501.796 109.871 500.501C109.485 500.056 108.827 500.714 109.214 501.158C110.297 502.376 111.36 503.594 112.443 504.812C109.311 505.257 106.159 505.682 103.027 506.127C102.679 506.166 102.641 506.514 102.776 506.746C102.737 506.958 102.815 507.19 103.085 507.268C106.391 508.06 109.697 508.853 113.003 509.646C112.114 510.883 111.225 512.12 110.355 513.377C110.007 513.86 110.819 514.324 111.147 513.841C111.979 512.662 112.829 511.502 113.661 510.322L115.343 518.539C115.343 518.636 115.362 518.732 115.401 518.81C115.555 519.332 116.387 519.1 116.271 518.539L118.281 510.902C119.113 511.927 119.963 512.952 120.795 513.976C121.162 514.44 121.819 513.783 121.452 513.319C120.505 512.159 119.557 510.999 118.61 509.858C121.587 509.375 124.565 508.872 127.542 508.389C127.909 508.312 127.948 507.983 127.813 507.732Z" fill="#C1A073"/>
<path d="M353.046 449.925C353.046 449.732 352.969 449.538 352.717 449.48C349.624 448.61 346.531 447.76 343.437 446.89C344.675 445.768 345.931 444.628 347.169 443.506C347.613 443.1 346.956 442.462 346.511 442.849C345.216 444.028 343.921 445.208 342.625 446.387C342.258 443.274 341.891 440.181 341.523 437.068C341.504 436.836 341.33 436.701 341.137 436.643C340.905 436.43 340.479 436.43 340.402 436.836C339.783 440.084 339.165 443.332 338.546 446.6C337.405 445.304 336.245 443.99 335.105 442.694C334.718 442.25 334.061 442.907 334.447 443.352C335.53 444.57 336.593 445.788 337.676 447.006C334.544 447.45 331.393 447.876 328.261 448.32C327.913 448.359 327.874 448.707 328.009 448.939C327.971 449.152 328.048 449.384 328.319 449.461C331.625 450.254 334.931 451.046 338.237 451.839C337.347 453.076 336.458 454.314 335.588 455.57C335.24 456.054 336.052 456.518 336.381 456.034C337.212 454.855 338.063 453.695 338.894 452.516L340.576 460.732C340.576 460.829 340.595 460.926 340.634 461.003C340.789 461.525 341.62 461.293 341.504 460.732L343.515 453.096C344.346 454.12 345.197 455.145 346.028 456.17C346.395 456.634 347.053 455.976 346.685 455.512C345.738 454.352 344.791 453.192 343.843 452.032C346.821 451.549 349.798 451.046 352.775 450.563C353.123 450.505 353.181 450.176 353.046 449.925Z" fill="#C1A073"/>
<path d="M398.228 159.945C398.228 159.751 398.151 159.558 397.899 159.5C394.806 158.63 391.713 157.779 388.619 156.909C389.857 155.788 391.113 154.647 392.351 153.526C392.795 153.12 392.138 152.482 391.693 152.869C390.398 154.048 389.103 155.227 387.807 156.407C387.44 153.294 387.073 150.201 386.705 147.088C386.686 146.856 386.512 146.721 386.319 146.663C386.087 146.45 385.661 146.45 385.584 146.856C384.965 150.104 384.347 153.352 383.728 156.619C382.587 155.324 381.427 154.009 380.287 152.714C379.9 152.269 379.243 152.927 379.629 153.371C380.712 154.589 381.775 155.807 382.858 157.025C379.726 157.47 376.575 157.895 373.443 158.34C373.095 158.379 373.037 158.727 373.172 158.959C373.133 159.171 373.211 159.403 373.481 159.481C376.787 160.273 380.093 161.066 383.399 161.859C382.51 163.096 381.621 164.333 380.751 165.59C380.403 166.073 381.215 166.537 381.543 166.054C382.375 164.875 383.225 163.715 384.057 162.535L385.739 170.752C385.739 170.849 385.758 170.945 385.797 171.023C385.951 171.564 386.783 171.313 386.667 170.752L388.677 163.115C389.509 164.14 390.359 165.165 391.191 166.189C391.558 166.653 392.215 165.996 391.848 165.532C390.901 164.372 389.953 163.212 389.006 162.052C391.983 161.569 394.961 161.066 397.938 160.583C398.305 160.525 398.363 160.177 398.228 159.945Z" fill="#C1A073"/>
<path d="M185.89 553.127C185.89 552.933 185.813 552.74 185.561 552.682C182.468 551.812 179.375 550.961 176.281 550.091C177.519 548.97 178.775 547.829 180.013 546.708C180.457 546.302 179.8 545.664 179.355 546.051C178.06 547.23 176.765 548.409 175.469 549.589C175.102 546.476 174.735 543.383 174.367 540.27C174.348 540.038 174.174 539.903 173.981 539.845C173.749 539.632 173.323 539.632 173.246 540.038C172.627 543.286 172.009 546.534 171.39 549.801C170.249 548.506 169.089 547.191 167.949 545.896C167.562 545.451 166.905 546.109 167.291 546.553C168.374 547.771 169.437 548.989 170.52 550.207C167.388 550.633 164.237 551.077 161.105 551.503C160.757 551.541 160.699 551.889 160.834 552.121C160.795 552.334 160.873 552.566 161.143 552.643C164.449 553.436 167.755 554.229 171.061 555.021C170.172 556.259 169.283 557.496 168.413 558.753C168.065 559.236 168.877 559.7 169.205 559.217C170.037 558.037 170.887 556.877 171.719 555.698L173.401 563.915C173.401 564.011 173.42 564.108 173.459 564.185C173.613 564.727 174.445 564.475 174.329 563.915L176.339 556.278C177.171 557.303 178.021 558.327 178.853 559.352C179.22 559.816 179.877 559.159 179.51 558.695C178.563 557.535 177.615 556.375 176.668 555.215C179.645 554.731 182.623 554.229 185.6 553.745C185.967 553.707 186.025 553.378 185.89 553.127Z" fill="#C1A073"/>
<path d="M312.813 77.1785C309.43 77.6812 306.047 78.1838 302.644 78.7058C301.929 76.4438 301.213 74.2011 300.498 71.9391C300.459 71.7845 300.363 71.7071 300.247 71.6491C300.111 71.2818 299.551 71.1078 299.338 71.5525C298.255 73.6405 297.173 75.7091 296.109 77.7971H287.023C286.926 77.7971 286.849 77.8165 286.771 77.8552C286.443 77.9712 286.23 78.3771 286.559 78.6865L293.673 85.0665C291.779 87.9858 289.903 90.9245 288.009 93.8438C287.835 94.1338 287.97 94.4045 288.202 94.5205C288.318 94.7718 288.589 94.9652 288.898 94.7525C292.687 92.1618 296.477 89.5518 300.266 86.9612C302.045 89.1265 304.442 91.1758 306.743 92.7612C307.593 93.3605 309.391 94.5398 308.869 92.6065C308.038 89.5132 306.743 86.4972 305.37 83.6165C307.941 81.8185 310.532 80.0205 313.103 78.2225C313.142 78.1838 313.181 78.1645 313.2 78.1258C313.683 77.9131 313.413 77.0818 312.813 77.1785Z" fill="#C1A073"/>
<path d="M211.758 465.431C206.828 466.165 201.917 466.9 196.987 467.635C195.943 464.367 194.899 461.081 193.875 457.813C193.797 457.601 193.681 457.465 193.507 457.388C193.295 456.866 192.502 456.615 192.173 457.253C190.607 460.269 189.041 463.285 187.475 466.32H174.251C174.116 466.32 174 466.359 173.903 466.417C173.42 466.591 173.111 467.19 173.594 467.615L183.937 476.915C181.192 481.168 178.466 485.421 175.721 489.675C175.45 490.081 175.663 490.487 175.991 490.661C176.146 491.047 176.571 491.299 176.997 490.989C182.507 487.219 188.017 483.449 193.527 479.679C196.117 482.831 199.597 485.789 202.942 488.109C204.179 488.959 206.789 490.699 206.035 487.877C204.817 483.391 202.942 478.983 200.951 474.807C204.701 472.197 208.452 469.587 212.203 466.977C212.261 466.939 212.299 466.881 212.338 466.823C213.015 466.494 212.628 465.295 211.758 465.431Z" fill="#C1A073"/>
<path d="M372.418 277.124C368.319 277.742 364.24 278.342 360.141 278.96C359.271 276.234 358.421 273.508 357.551 270.802C357.493 270.628 357.377 270.512 357.261 270.434C357.087 270.009 356.429 269.777 356.159 270.318C354.863 272.832 353.549 275.345 352.253 277.839H341.272C341.156 277.839 341.059 277.878 340.982 277.916C340.595 278.052 340.325 278.554 340.711 278.922L349.315 286.655C347.033 290.193 344.752 293.731 342.49 297.269C342.277 297.617 342.432 297.946 342.722 298.081C342.857 298.39 343.205 298.603 343.553 298.352C348.135 295.22 352.717 292.088 357.299 288.956C359.465 291.566 362.345 294.04 365.129 295.954C366.154 296.67 368.339 298.1 367.701 295.761C366.695 292.03 365.129 288.376 363.467 284.896C366.579 282.73 369.692 280.546 372.805 278.38C372.863 278.342 372.882 278.303 372.921 278.264C373.462 278.013 373.133 277.027 372.418 277.124Z" fill="#C1A073"/>
<path d="M277.027 127.155C272.929 127.774 268.849 128.373 264.751 128.992C263.881 126.266 263.03 123.54 262.16 120.833C262.102 120.659 261.986 120.543 261.87 120.466C261.696 120.041 261.039 119.809 260.768 120.35C259.473 122.863 258.158 125.377 256.863 127.871H245.881C245.765 127.871 245.669 127.909 245.591 127.948C245.205 128.083 244.934 128.586 245.321 128.953L253.924 136.687C251.643 140.225 249.361 143.763 247.099 147.301C246.887 147.649 247.041 147.977 247.331 148.113C247.467 148.422 247.815 148.635 248.163 148.383C252.745 145.251 257.327 142.119 261.909 138.987C264.074 141.597 266.955 144.072 269.739 145.986C270.763 146.701 272.948 148.132 272.31 145.793C271.305 142.061 269.739 138.407 268.076 134.927C271.189 132.762 274.301 130.577 277.414 128.412C277.472 128.373 277.491 128.335 277.53 128.296C278.091 128.045 277.762 127.059 277.027 127.155Z" fill="#C1A073"/>
<path d="M408.823 206.151C404.511 205.648 400.219 205.145 395.908 204.643C394.071 199.171 392.235 193.7 390.398 188.209C390.34 188.055 390.263 187.958 390.166 187.881C389.876 187.397 389.006 187.339 388.793 188.035L383.496 205.977C379.049 207.388 374.525 208.393 369.885 208.954C369.75 208.954 369.653 208.973 369.557 209.012C368.725 209.225 368.745 210.578 369.653 210.481C369.711 210.481 369.789 210.462 369.847 210.462C373.713 211.525 377.561 212.589 381.427 213.633C380.093 218.698 378.779 223.763 377.445 228.848C377.232 229.66 378.315 230.066 378.74 229.525C378.875 229.505 378.991 229.428 379.107 229.293C382.723 224.807 386.338 220.322 389.953 215.817C393.762 219.413 397.551 223.029 401.36 226.625C401.959 227.205 402.829 226.489 402.597 225.851C402.655 225.716 402.655 225.561 402.597 225.387C400.683 220.805 398.789 216.223 396.875 211.641C400.877 210.385 404.898 209.128 408.9 207.871C409.151 207.794 409.286 207.62 409.364 207.427C409.712 207.059 409.519 206.228 408.823 206.151Z" fill="#C1A073"/>
<path fill-rule="evenodd" clip-rule="evenodd" d="M390.089 124.101C385.294 124.101 385.275 131.563 390.089 131.563C394.883 131.563 394.903 124.101 390.089 124.101Z" fill="#C1A073"/>
<path fill-rule="evenodd" clip-rule="evenodd" d="M233.218 151.457C228.423 151.457 228.404 158.92 233.218 158.92C238.032 158.9 238.032 151.457 233.218 151.457Z" fill="#C1A073"/>
<path fill-rule="evenodd" clip-rule="evenodd" d="M292.359 112.578C287.564 112.578 287.545 120.041 292.359 120.041C297.173 120.041 297.173 112.578 292.359 112.578Z" fill="#C1A073"/>
<path fill-rule="evenodd" clip-rule="evenodd" d="M365.342 116.309C360.547 116.309 360.528 123.772 365.342 123.772C370.156 123.772 370.156 116.309 365.342 116.309Z" fill="#C1A073"/>
<path fill-rule="evenodd" clip-rule="evenodd" d="M265.06 95.2744C260.265 95.2744 260.246 102.737 265.06 102.737C269.874 102.737 269.874 95.2744 265.06 95.2744Z" fill="#C1A073"/>
<path fill-rule="evenodd" clip-rule="evenodd" d="M229.622 220.226C224.827 220.226 224.808 227.688 229.622 227.688C234.417 227.688 234.436 220.226 229.622 220.226Z" fill="#C1A073"/>
<path fill-rule="evenodd" clip-rule="evenodd" d="M389.238 294.736C384.443 294.736 384.424 302.199 389.238 302.199C394.052 302.199 394.052 294.736 389.238 294.736Z" fill="#C1A073"/>
<path fill-rule="evenodd" clip-rule="evenodd" d="M373.191 245.475C368.397 245.475 368.377 252.938 373.191 252.938C377.986 252.918 378.005 245.475 373.191 245.475Z" fill="#C1A073"/>
<path fill-rule="evenodd" clip-rule="evenodd" d="M324.317 390.611C319.522 390.611 319.503 398.073 324.317 398.073C329.111 398.073 329.131 390.611 324.317 390.611Z" fill="#C1A073"/>
<path fill-rule="evenodd" clip-rule="evenodd" d="M347.71 400.451C342.915 400.451 342.896 407.914 347.71 407.914C352.524 407.894 352.524 400.451 347.71 400.451Z" fill="#C1A073"/>
<path fill-rule="evenodd" clip-rule="evenodd" d="M282.518 443.545C277.723 443.545 277.704 451.008 282.518 451.008C287.313 450.988 287.313 443.545 282.518 443.545Z" fill="#C1A073"/>
<path fill-rule="evenodd" clip-rule="evenodd" d="M257.868 379.358C253.073 379.358 253.054 386.821 257.868 386.821C262.663 386.821 262.663 379.358 257.868 379.358Z" fill="#C1A073"/>
<path fill-rule="evenodd" clip-rule="evenodd" d="M60.0299 548.371C55.2353 548.371 55.216 555.833 60.0299 555.833C64.8246 555.814 64.8439 548.371 60.0299 548.371Z" fill="#C1A073"/>
<path fill-rule="evenodd" clip-rule="evenodd" d="M242.923 428.813C238.129 428.813 238.109 436.276 242.923 436.276C247.718 436.276 247.718 428.813 242.923 428.813Z" fill="#C1A073"/>
<path fill-rule="evenodd" clip-rule="evenodd" d="M327.913 347.961C323.118 347.961 323.099 355.424 327.913 355.424C332.727 355.424 332.727 347.961 327.913 347.961Z" fill="#C1A073"/>
<path fill-rule="evenodd" clip-rule="evenodd" d="M335.588 79.3247C330.793 79.3247 330.774 86.7874 335.588 86.7874C340.383 86.7874 340.402 79.3247 335.588 79.3247Z" fill="#C1A073"/>
<path fill-rule="evenodd" clip-rule="evenodd" d="M200.97 414.139C196.175 414.139 196.156 421.602 200.97 421.602C205.765 421.602 205.784 414.139 200.97 414.139Z" fill="#C1A073"/>
<path fill-rule="evenodd" clip-rule="evenodd" d="M240.429 461.196C235.635 461.196 235.615 468.659 240.429 468.659C245.224 468.659 245.243 461.196 240.429 461.196Z" fill="#C1A073"/>
<path fill-rule="evenodd" clip-rule="evenodd" d="M154.435 508.833C149.64 508.833 149.621 516.296 154.435 516.296C159.229 516.296 159.229 508.833 154.435 508.833Z" fill="#C1A073"/>
<path fill-rule="evenodd" clip-rule="evenodd" d="M218.351 129.572C213.556 129.572 213.537 137.034 218.351 137.034C223.165 137.034 223.165 129.572 218.351 129.572Z" fill="#C1A073"/>
<path fill-rule="evenodd" clip-rule="evenodd" d="M189.563 516.954C184.769 516.954 184.749 524.416 189.563 524.416C194.358 524.416 194.377 516.954 189.563 516.954Z" fill="#C1A073"/>
<path fill-rule="evenodd" clip-rule="evenodd" d="M120.447 560.744C115.652 560.744 115.633 568.206 120.447 568.206C125.241 568.206 125.241 560.744 120.447 560.744Z" fill="#C1A073"/>
<path fill-rule="evenodd" clip-rule="evenodd" d="M209.631 554.77C204.837 554.77 204.817 562.232 209.631 562.232C214.426 562.232 214.426 554.77 209.631 554.77Z" fill="#C1A073"/>
<path fill-rule="evenodd" clip-rule="evenodd" d="M83.6746 521.285C78.8799 521.285 78.8606 528.747 83.6746 528.747C88.4693 528.747 88.4886 521.285 83.6746 521.285Z" fill="#C1A073"/>
<path d="M288.473 206.171C298.104 206.171 305.911 198.363 305.911 188.732C305.911 179.101 298.104 171.293 288.473 171.293C278.842 171.293 271.034 179.101 271.034 188.732C271.034 198.363 278.842 206.171 288.473 206.171Z" stroke="white" stroke-miterlimit="10"/>
<path d="M343.708 203.019C353.339 203.019 361.147 195.212 361.147 185.581C361.147 175.95 353.339 168.142 343.708 168.142C334.077 168.142 326.269 175.95 326.269 185.581C326.269 195.212 334.077 203.019 343.708 203.019Z" stroke="white" stroke-miterlimit="10"/>
<path d="M305.892 188.732L326.714 187.533" stroke="white" stroke-miterlimit="10"/>
<circle cx="496.5" cy="134.5" r="9.5" fill="#F7F4F0"/>
<circle cx="160.5" cy="203.5" r="9.5" fill="#F7F4F0"/>
<circle cx="496.5" cy="500.5" r="9.5" fill="#9F5D3A"/>
<circle cx="425.5" cy="314.5" r="9" stroke="#645D33"/>
</g>
<defs>
<clipPath id="clip0">
<rect width="580" height="580" fill="white"/>
</clipPath>
</defs>
</svg>
