<svg width="333" height="319" viewBox="0 0 333 319" fill="none" xmlns="http://www.w3.org/2000/svg">
<rect x="50" y="63" width="180" height="256" fill="#EEE6DC"/>
<g clip-path="url(#clip0)">
<path d="M229.486 239.128C225.821 236.952 222.864 234.328 222.736 230.296C222.543 225.368 227.364 220.888 226.271 216.152C224.343 208.024 210.521 211.224 204.864 205.016C198.179 197.656 208.593 185.176 204.029 176.344C200.429 169.368 188.793 167.704 188.021 160.024C187.507 154.84 192.65 150.552 192.65 145.368C192.714 137.432 182.364 134.36 176.9 128.6C170.15 121.368 171.243 109.848 165.714 101.784C159.543 92.888 144.886 91.416 137.043 98.904C129.907 94.296 120.329 93.528 112.614 96.984C104.771 100.44 99.05 107.992 97.6357 116.248C96.4785 122.712 97.8928 129.304 97.8285 135.896C97.7643 142.424 95.45 149.784 89.4714 152.728C84.2643 155.224 75.9714 154.968 74.6214 160.664C73.2071 166.872 82.5285 170.456 83.6214 176.792C84.5214 182.296 78.7357 186.712 73.4 188.696C68.0643 190.68 61.7 192.664 59.6428 197.912C57.2642 204.056 62.0857 211.928 58.2928 217.304C56.4285 219.992 53.0857 221.016 49.9357 222.168V333.272C49.9357 334.232 49.6143 334.936 49.1 335.448C48.5214 338.968 42.7357 338.776 42.7357 334.872V330.072C42.4785 329.624 42.35 329.112 42.35 328.472V326.936C41.6428 326.424 41.1285 325.592 41.1285 324.44V321.496C40.6142 321.432 40.1 321.304 39.65 320.984V340.888H229.55V239.128H229.486Z" fill="#D8C19E"/>
<path d="M229.486 322.712C218.814 325.72 207.179 325.464 196.764 321.688C189.114 318.808 181.4 313.304 179.986 305.24C178.957 299.224 181.4 292.056 177.607 287.32C175.486 284.632 172.143 283.544 168.993 281.944C165.971 280.344 162.95 277.656 163.079 274.328C163.336 269.784 168.736 267.672 171.5 264.152C175.357 259.544 173.943 251.544 168.8 248.472C165.264 246.36 160.893 246.36 156.907 245.464C152.921 244.568 148.743 241.432 149.064 237.336C149.579 232.536 155.75 230.68 158.836 227.032C162.693 222.36 161.214 215.064 157.55 209.944C154.014 204.888 148.871 201.112 145.207 196.248C143.214 193.496 142.186 190.296 142.186 186.84C142.186 185.176 142.443 183.384 142.7 181.656C142.957 179.288 143.279 179.544 141.35 178.712C138.586 177.368 128.814 175.96 126.757 179.16C126.179 180.056 126.307 181.272 126.5 182.232C127.336 189.336 124.379 196.632 118.914 201.368C115.314 204.376 110.814 206.168 107.086 209.112C103.357 212.056 100.4 216.728 101.75 221.208C103.871 228.184 115.25 231.384 113.836 238.488C112.164 246.872 95.45 244.696 94.4214 253.272C93.5214 260.824 106.507 262.936 108.179 270.36C109.079 274.776 105.671 279 101.75 281.496C98.0214 284.184 93.5857 286.296 91.5286 290.392C88.7643 295.896 91.5286 302.744 90.6286 308.824C89.3428 316.376 82.5928 321.752 75.5214 324.696C67.4857 328.024 58.3571 328.856 49.6786 327.448V333.272C49.6786 334.232 49.3571 334.936 48.8428 335.448C48.2643 338.968 42.4786 338.776 42.4786 334.872V330.072C42.2214 329.624 42.0928 329.112 42.0928 328.472V326.936C41.5143 326.552 41.0643 325.912 40.9357 325.08C40.4214 324.888 39.8428 324.696 39.3286 324.44V341.016H229.293V322.712H229.486Z" fill="white"/>
<path d="M135.371 223.256C144.886 223.32 153.436 218.328 158.386 210.776C158.193 210.52 157.936 210.136 157.743 209.88C154.207 204.824 149.064 201.048 145.4 196.184C143.407 193.432 142.379 190.232 142.379 186.776C142.379 185.112 142.636 183.32 142.893 181.592C143.15 179.224 143.471 179.48 141.543 178.648C138.779 177.304 129.007 175.896 126.95 179.096C126.371 179.992 126.5 181.208 126.693 182.168C127.529 189.272 124.571 196.568 119.107 201.304C116.6 203.48 113.45 205.016 110.686 206.68C114.993 216.472 124.443 223.192 135.371 223.256Z" fill="#AB7051"/>
<path d="M140.707 179.736C136.979 183.192 131.836 182.744 128.557 179.096C127.271 177.688 125.279 179.736 126.564 181.208C130.936 186.136 137.943 186.328 142.829 181.848C144.179 180.568 142.121 178.456 140.707 179.736Z" fill="#68422D"/>
<path d="M160.379 139.928C160.314 138.648 160.186 137.56 160.121 136.344C159.929 133.656 159.543 130.904 157.743 128.856C155.557 126.488 151.829 126.168 148.743 125.336C143.793 123.928 139.55 120.536 137.043 115.928C136.979 115.672 136.786 115.416 136.464 115.288C135.886 115.032 135.179 115.736 134.857 116.184C130.743 122.2 124.571 126.744 117.629 128.92C114.35 129.944 110.686 130.584 108.436 133.208C105.671 136.216 105.993 140.824 106.507 144.6C107.279 149.4 107.857 154.328 108.5 159.192C109.143 163.992 110.429 168.92 113.45 172.76C117.564 177.944 123.993 180.504 130.293 182.68C132.093 183.32 134.021 184.024 136.014 183.96C138.393 183.896 140.643 182.808 142.764 181.72C147.007 179.352 150.929 176.536 153.95 172.76C157.807 167.832 159.864 161.496 160.507 155.224C161.021 150.232 160.7 145.048 160.379 139.928Z" fill="#AB7051"/>
<path d="M160.379 139.928C160.314 138.648 160.186 137.56 160.121 136.344C159.929 133.656 159.543 130.904 157.743 128.856C155.557 126.488 151.829 126.168 148.743 125.336C143.793 123.928 139.55 120.536 137.043 115.928C136.979 115.672 136.786 115.416 136.464 115.288C135.886 115.032 135.179 115.736 134.857 116.184C130.743 122.2 124.571 126.744 117.629 128.92C114.35 129.944 110.686 130.584 108.436 133.208C105.671 136.216 105.993 140.824 106.507 144.6C107.279 149.4 107.857 154.328 108.5 159.192C109.143 163.992 110.429 168.92 113.45 172.76C117.564 177.944 123.993 180.504 130.293 182.68C132.093 183.32 134.021 184.024 136.014 183.96C138.393 183.896 140.643 182.808 142.764 181.72C147.007 179.352 150.929 176.536 153.95 172.76C157.807 167.832 159.864 161.496 160.507 155.224C161.021 150.232 160.7 145.048 160.379 139.928Z" fill="#AB7051"/>
<path d="M126.371 145.368C126.307 145.368 126.114 145.432 125.921 145.56C125.729 145.752 125.471 146.008 125.407 146.2C124.507 147.736 122.9 148.888 121.036 149.08C119.236 149.272 117.436 148.632 116.086 147.48C115.829 147.224 115.507 146.904 115.186 146.84C113.193 146.392 116.021 149.784 116.536 150.04C117.821 150.936 119.493 151.576 121.1 151.384C123.864 151.192 126.307 149.016 127.014 146.328C127.079 146.072 127.079 145.688 126.821 145.496C126.629 145.368 126.436 145.304 126.371 145.368Z" fill="#291410"/>
<path d="M117.243 157.848C116.343 157.848 115.314 158.296 114.35 158.744C112.229 160.28 110.75 162.968 111.136 165.464C111.586 167.96 113.514 170.264 116.279 170.52C118.979 170.776 121.614 168.984 122.514 166.488C123.543 163.608 122.321 160.088 119.621 158.552C118.914 158.168 118.079 157.848 117.243 157.848Z" fill="#9F5D3A"/>
<path d="M124.764 140.184C121.293 138.52 117.243 138.776 114.221 141.08C113.707 141.528 114.221 142.36 114.736 141.912C117.5 139.736 121.164 139.416 124.379 141.016C124.829 141.272 125.343 140.504 124.764 140.184Z" fill="#291410"/>
<path d="M144.436 145.112C144.243 145.368 144.371 145.688 144.436 146.008C145.593 148.44 148.293 150.04 151.121 149.848C152.729 149.656 154.271 148.952 155.364 147.672C155.814 147.224 157.871 143.64 156.007 144.216C155.557 144.408 155.429 144.728 155.171 145.048C154.143 146.456 152.407 147.416 150.607 147.48C148.807 147.544 147.007 146.84 145.721 145.496C145.529 145.304 145.271 145.048 145.143 144.92C145.079 144.856 144.886 144.856 144.693 144.856C144.693 144.92 144.564 145.048 144.436 145.112Z" fill="#291410"/>
<path d="M156.2 158.36C155.364 157.784 154.4 157.464 153.307 157.464C152.471 157.464 151.636 157.656 150.8 158.232C148.293 159.832 146.943 163.352 147.907 166.168C148.807 168.664 151.507 170.52 154.143 170.2C154.721 170.136 155.171 170.008 155.686 169.752C157.1 167.384 158.129 164.696 158.9 162.008C158.514 160.536 157.55 159.192 156.2 158.36Z" fill="#9F5D3A"/>
<path d="M146.879 139.16C150.35 137.496 154.4 137.752 157.421 140.056C157.936 140.504 157.421 141.336 156.907 140.888C154.143 138.712 150.479 138.392 147.264 139.992C146.75 140.248 146.236 139.416 146.879 139.16Z" fill="#291410"/>
<path d="M139.1 154.52C139.036 154.328 138.907 154.008 138.843 153.88C137.814 151.448 137.236 148.568 137.686 145.944C137.75 145.688 137.75 145.368 137.686 145.112C137.621 144.856 137.236 144.6 136.979 144.664C136.786 144.728 136.721 145.112 136.721 145.24C136.143 148.696 136.721 152.216 138.264 155.416C138.714 156.184 139.036 156.824 139.164 157.592C139.357 158.36 139.357 159.192 138.907 159.832C138.393 160.6 137.493 160.984 136.529 161.112C135.179 161.304 135.629 162.136 136.721 162.456C137.621 162.648 138.714 162.392 139.229 161.624C140.129 160.6 140.386 159.128 140.064 157.784C140.129 156.504 139.614 155.544 139.1 154.52Z" fill="#291410"/>
<path d="M140.386 168.6C140.193 168.664 139.936 168.856 139.807 169.112C138.971 169.944 137.814 170.456 136.593 170.52C135.436 170.584 134.214 170.072 133.25 169.368C132.993 169.176 132.736 168.856 132.414 168.792C131 168.536 132.607 170.712 132.929 170.968C133.7 171.736 134.6 172.312 135.693 172.504C137.364 172.952 139.293 172.248 140.321 170.84C140.771 170.328 140.964 169.688 140.964 169.176C140.964 169.112 140.964 168.92 140.9 168.728C140.9 168.408 140.514 168.408 140.386 168.6Z" fill="#291410"/>
<path d="M132.929 116.12C132.929 115.928 132.864 115.672 132.671 115.608C132.414 115.544 132.093 115.608 131.9 115.8C131 116.44 130.1 117.336 129.457 118.232C128.943 118.808 128.621 119.512 128.3 120.152C127.593 121.944 127.721 123.928 128.236 125.784C128.686 127.064 129.136 128.28 129.264 129.624C129.264 131.224 128.429 132.696 127.079 133.464C126.307 134.04 125.471 133.976 124.893 133.016C124.314 132.248 124.829 131.48 124.443 130.84C124.25 130.392 123.607 130.648 123.286 130.904C122 132.248 122.643 134.168 124.314 134.744C125.15 135 126.243 134.808 127.079 134.68C130.421 133.848 133.507 131.416 134.279 128.088C135.114 124.312 132.929 120.472 132.993 116.504C133.057 116.376 133.057 116.248 132.929 116.12Z" fill="#D8C19E"/>
<path d="M229.486 272.28C219.714 297.24 213.286 323.224 211.871 350.104C211.871 350.744 212.771 350.744 212.771 350.104C214.186 324.12 220.1 299.096 229.486 274.84V272.28Z" fill="#68422D"/>
<path d="M224.279 268.632L224.214 268.568C224.021 268.504 223.7 268.568 223.636 268.76C223.571 268.952 223.443 269.208 223.443 269.336C223.186 271.448 223.186 273.56 223.636 275.544C224.15 277.656 225.05 279.32 226.143 281.176C226.207 281.24 226.336 281.368 226.4 281.368C226.657 281.432 226.85 281.112 226.85 280.792C227.3 276.632 226.336 272.472 224.407 268.824C224.343 268.888 224.343 268.696 224.279 268.632Z" fill="#68422D"/>
<path d="M229.486 276.888C228.907 277.464 228.329 278.168 227.879 278.872C227.621 279.384 227.3 279.768 227.043 280.28C226.85 280.792 226.464 281.304 227.3 281.176C228.071 281.112 228.843 280.728 229.486 280.344V276.888Z" fill="#68422D"/>
<path d="M111.329 265.176C111.264 264.536 110.3 264.728 110.429 265.432C116.086 291.608 118.079 318.488 116.6 345.24C116.6 345.88 117.5 345.88 117.5 345.24C119.107 318.424 116.986 291.48 111.329 265.176Z" fill="#68422D"/>
<path d="M119.621 261.272C121.614 259.928 119.814 257.048 119.043 255.512C116.664 250.456 112.1 254.232 110.107 257.88C110.107 256.856 110.107 255.768 110.043 254.808C109.979 253.784 109.979 252.44 109.4 251.608C108.5 250.072 106.121 250.584 104.707 251.032C103.1 251.544 101.493 252.824 101.75 254.744C101.943 255.512 102.393 256.088 103.036 256.664C103.807 257.496 104.643 258.328 105.479 259.16C103.807 258.712 101.75 258.584 100.336 259.16C98.3428 259.928 98.7928 262.872 98.9214 264.536C99.1142 269.208 103.421 267.032 106.314 265.112C104.964 266.392 103.55 267.544 103.357 269.464C103.164 271.384 104.643 272.472 106.25 272.984C108.05 273.56 109.85 273.56 110.621 271.576C111.2 270.168 111.264 268.568 111.2 266.904C112.871 270.104 115.443 273.304 118.271 269.784C119.429 268.376 120.65 266.264 119.107 264.664C118.464 263.896 117.307 263.512 116.343 263.256C115.314 262.808 114.35 262.616 113.321 262.36C114.607 262.296 115.7 262.168 116.921 262.104C117.693 261.72 118.85 261.72 119.621 261.272Z" fill="#C1A073"/>
<path d="M112.421 261.272C112.357 260.76 111.971 260.44 111.779 259.992C111.329 259.544 110.879 259.352 110.364 259.224C109.529 259.032 108.564 259.16 107.857 259.672C106.057 260.824 106.25 263.448 108.05 264.6C108.886 265.176 110.171 265.176 111.071 264.664C111.971 264.152 112.679 263.256 112.679 262.168C112.614 261.848 112.55 261.592 112.421 261.272Z" fill="#9F5D3A"/>
<path d="M99.4357 345.816C95.7071 311.704 90.4357 277.656 83.4285 244.056C83.2357 243.16 81.8214 243.48 82.0142 244.504C88.8928 278.04 94.2928 311.896 97.8928 345.816C98.0857 346.776 99.5642 346.776 99.4357 345.816Z" fill="#645D33"/>
<path d="M101.429 271.704C101.236 271.704 100.979 271.768 100.85 271.896C97.8285 273.24 95.1928 275.48 93.4571 278.36C92.8142 279.256 89.0857 286.552 90.6928 287C91.1428 287.064 91.4642 286.936 91.7214 286.808C97.3785 284.376 101.429 278.936 102.329 272.92C102.329 272.664 102.393 272.344 102.264 272.088C102.071 271.64 101.814 271.64 101.429 271.704Z" fill="#645D33"/>
<path d="M105.029 313.752C104.836 313.816 104.579 313.944 104.45 314.008C101.686 315.8 99.4999 318.552 98.2142 321.56C97.6999 322.584 95.1928 330.392 96.8642 330.52C97.3142 330.52 97.6357 330.328 97.8928 330.072C103.036 326.808 106.186 320.664 106.057 314.648C106.057 314.392 106.057 314.072 105.864 313.816C105.736 313.624 105.35 313.624 105.029 313.752Z" fill="#645D33"/>
<path d="M82.5286 300.632C82.3357 300.888 82.4643 301.208 82.4643 301.464C83.75 307.416 88.1214 312.6 93.65 314.904C94.1 314.968 94.4214 315.16 94.6786 315.096C96.2857 314.584 92.3 307.544 91.5286 306.648C89.5357 303.96 86.9 301.848 83.8786 300.632C83.6857 300.568 83.4286 300.568 83.3 300.44C83.0429 300.376 82.6571 300.376 82.5286 300.632Z" fill="#645D33"/>
<path d="M98.7929 233.304C98.2786 233.112 97.7643 233.048 97.3786 232.792C97.8286 232.6 98.15 232.344 98.2786 232.024C98.9214 231 98.3429 229.912 97.3786 229.336C95.8357 228.504 93.2643 228.568 91.6572 228.696C91.0143 228.696 90.3071 228.76 89.6643 228.888C90.4357 228.376 91.0786 227.992 91.7857 227.352C92.8143 226.52 94.7429 224.472 92.8143 223.384C92.6214 223.32 92.3 223.192 92.0429 223.192C90.8857 223.128 91.0143 223.192 91.4 222.04C91.5929 221.272 91.9786 220.696 91.4 219.928C90.95 219.416 90.5 219.352 89.8571 219.352C89.2143 219.416 88.5071 220.184 87.9286 220.504C87.8643 220.568 87.6714 220.696 87.4786 220.696C86.7071 220.696 87.2214 219.416 87.2214 219.096C87.2214 218.456 87.1571 217.816 86.6429 217.304C85.8714 216.472 84.65 216.152 83.6214 216.536C82.2071 217.112 81.2429 218.648 80.4714 219.8C79.8929 220.696 79.3143 221.784 78.9286 222.808C78.8643 220.824 78.6714 218.84 78.2857 216.856C77.8357 215.256 77 213.592 75.2643 213.144C74.4929 212.952 73.85 213.08 73.1429 213.4C72.3714 213.912 72.2429 214.808 71.5357 215.384C70.25 216.408 68.3214 215.448 67.2929 216.792C67.0357 217.304 66.8429 217.816 66.8429 218.392C66.8429 218.648 67.1 219.224 67.1 219.672C66.8429 221.464 65.8143 220.824 64.9143 220.952C63.5 221.016 62.4714 221.784 62.4714 223.192C62.4071 225.176 64.4643 226.456 66.0071 227.416C67.3571 228.184 68.7071 228.824 70.1214 229.4C68.1286 229.336 66.1357 229.336 64.1429 229.336C62.4714 229.336 60.4143 229.528 59.5143 231.256C58.9357 232.28 59 233.624 60.0286 234.456C60.6071 234.968 61.3786 234.904 61.4429 235.736C61.6357 236.568 60.9929 236.504 60.6714 237.08C60.2214 237.592 60.0929 238.104 60.2214 238.744C60.2857 239.192 60.7357 239.512 61.0571 239.64C61.7 240.088 63.05 239.448 62.8571 240.28C62.7929 240.92 62.0214 241.112 62.0214 241.944C62.0214 242.52 62.4714 243.096 62.7929 243.352C64.2071 244.504 66.3286 243.544 67.7429 242.84C68.2571 242.648 68.6429 242.328 69.1571 242.2C67.8071 244.12 66.9714 246.232 66.9071 248.664C66.8429 250.072 67.1 251.736 68.5786 252.184C69.2214 252.376 69.6071 252.12 70.25 251.928C70.8286 251.736 71.6 251.032 72.3714 251.48C72.3071 251.416 72.95 252.824 72.8857 252.824C73.4643 253.656 74.4929 254.104 75.3286 253.336C76.1 252.568 75.3929 251.8 76.9357 252.056C77.5786 252.12 77.7071 252.632 78.4786 252.504C80.15 252.248 80.2786 250.136 80.4714 248.728C80.5357 247.832 80.5357 246.936 80.5357 245.976C81.1786 247.576 82.2071 248.984 83.5571 250.008C84.2 250.584 85.3571 250.84 86.2571 250.648C87.6071 250.392 87.5429 249.304 87.6714 248.216C87.6714 248.024 87.7357 247.064 88.1857 247.32C88.25 247.32 88.25 247.384 88.3786 247.384C88.8286 247.832 89.0214 248.216 89.6643 248.28C90.6929 248.472 91.0143 247.832 91.2714 247C91.4643 246.424 91.5286 245.848 92.1714 245.656C92.9429 245.4 93.5857 245.848 94.2929 245.144C95.45 243.992 94.55 242.456 93.7143 241.624C93.1357 241.048 92.5571 240.6 92.0429 240.088C92.8786 240.28 93.8429 240.536 94.7429 240.536C96.0286 240.536 97.6357 240.344 98.2143 239C98.8571 237.464 97.4429 236.312 96.0929 236.056C96.9286 235.992 98.0214 235.8 98.8571 235.544C99.5 235.352 100.143 234.968 100.143 234.2C99.8857 234.008 99.3071 233.56 98.7929 233.304Z" fill="#C1A073"/>
<path d="M87.6714 234.264C87.7357 232.664 86.7714 231.384 85.2928 231.192C85.4857 229.848 85.1 228.44 83.9428 227.608C82.5928 226.712 80.7928 226.776 79.5714 227.672C78.2214 226.84 76.55 226.136 74.9428 227.096C74.0428 227.672 73.5928 228.696 73.7857 229.592C72.95 229.592 72.1785 230.04 71.6643 230.744C71.0214 231.768 71.15 232.984 71.8571 233.816C70.9571 234.584 70.5714 236.056 71.2785 237.272C71.8571 238.168 72.6928 238.68 73.6571 238.808C73.4 239.832 73.6571 241.048 74.6857 241.816C76.3571 242.968 78.4143 242.328 79.6357 240.92C80.7928 241.688 82.1428 241.752 83.3643 241.112C84.7143 240.28 85.2928 238.68 84.9714 237.272C86.3214 236.76 87.6071 235.736 87.6714 234.264Z" fill="#FFC152"/>
<path d="M80.3428 230.488C79.3143 230.296 78.0928 230.552 77.1928 231.064C75.65 231.96 75.0071 234.008 75.65 235.672C76.2928 237.272 78.1571 238.36 79.9571 237.912C81.6286 237.464 83.1071 235.928 83.1071 234.136C83.1071 232.792 82.4643 231.64 81.4357 230.872C81.1143 230.744 80.6643 230.552 80.3428 230.488Z" fill="#9F5D3A"/>
<path d="M54.5 281.176C52.1214 297.048 50.5785 312.984 49.8714 329.048V333.208C49.8714 333.656 49.8071 334.04 49.6785 334.36C49.4857 339.864 49.4214 345.368 49.4214 350.936C49.4214 351.576 50.3214 351.576 50.3214 350.936C50.3214 327.704 51.9928 304.408 55.4 281.432C55.5285 280.856 54.6285 280.6 54.5 281.176Z" fill="#68422D"/>
<path d="M59.0642 262.68C59 262.424 58.8071 262.04 58.4857 262.104C58.2928 262.104 58.0357 262.296 57.9071 262.36C53.0214 267.416 53.0214 274.712 54.3714 281.112C54.4357 281.624 54.8214 282.008 55.1428 281.944C55.4 281.88 55.6571 281.496 55.7214 281.368C58.1 275.608 59.2571 269.272 59.1928 263C59.1285 263 59.1285 262.808 59.0642 262.68Z" fill="#68422D"/>
<path d="M53.0214 299.864V299.416C52.7 294.296 51.6714 289.176 49.8714 284.376V297.496C50.3857 298.328 51.0285 299.096 51.7357 299.8C52.1857 300.248 52.6357 300.44 53.0857 300.248C52.8928 300.312 53.0214 300.12 53.0214 299.864Z" fill="#68422D"/>
<path d="M51.2857 319.704V319.256C51.0928 316.056 50.5785 312.856 49.8714 309.72V319.512C49.9357 319.576 50 319.64 50.0643 319.704C50.5143 320.152 50.9643 320.344 51.4143 320.152C51.1571 320.024 51.2857 319.832 51.2857 319.704Z" fill="#68422D"/>
<path d="M50.7071 320.024C50.9643 320.472 51.6071 320.28 52.0571 320.024C54.95 318.616 57.0071 315.992 58.4857 313.176C59.3214 311.576 59.9 309.72 60.4786 307.992C60.7357 307.096 60.9929 306.2 61.25 305.24C61.4429 304.664 61.8286 303.704 61.5071 303.128C61.4429 302.872 61.0571 302.552 60.7357 302.616C60.5429 302.68 60.4786 302.808 60.2214 302.872C55.9786 307.544 52.8286 313.112 50.5786 319C50.5786 319.064 50.5143 319.256 50.5143 319.448C50.6429 319.704 50.6429 319.832 50.7071 320.024Z" fill="#68422D"/>
<path d="M50.0643 334.36C50.2571 334.872 50.9 334.808 51.4143 334.552C54.4357 333.528 56.8143 331.096 58.6786 328.536C59.7071 327 60.6071 325.336 61.3786 323.736C61.8286 322.904 62.15 322.072 62.5357 321.048C62.7286 320.472 63.3071 319.64 63.1143 318.936C63.05 318.68 62.6643 318.36 62.4714 318.36C62.2786 318.36 62.2143 318.552 61.9571 318.616C57.2643 322.84 53.2786 327.768 50.3214 333.272C50.2571 333.336 50.2571 333.528 50.1286 333.592C49.9357 333.912 49.9357 334.104 50.0643 334.36Z" fill="#68422D"/>
<path d="M52.5071 300.12C52.7 300.568 53.2786 300.376 53.7928 300.184C56.4928 299.032 58.4857 296.92 60.0286 294.424C60.8643 293.016 61.5714 291.48 62.2143 290.008C62.4714 289.24 62.7928 288.408 63.05 287.64C63.2428 287.064 63.6286 286.296 63.5643 285.72C63.5 285.464 63.1143 285.144 62.9214 285.208C62.7286 285.208 62.6643 285.4 62.4714 285.464C58.3571 289.304 55.0786 294.104 52.6357 299.16C52.5714 299.224 52.5714 299.352 52.5714 299.608C52.4428 299.736 52.4428 299.864 52.5071 300.12Z" fill="#68422D"/>
<path d="M90.3714 346.2C89.3428 317.272 80.5357 288.792 65.0428 264.216C64.85 263.768 64.5285 263.576 64.2071 263.384C62.7928 262.936 63.4357 266.84 63.4357 267.352C63.5 269.336 63.6285 271.32 63.6928 273.304C63.8857 277.272 64.2071 281.176 64.5928 285.144C65.3643 292.76 66.5857 300.312 68.45 307.864C72.05 322.136 78.4143 335.96 88.5071 346.712C88.9571 347.224 89.7928 347.544 90.05 347.16C90.3714 346.712 90.3714 346.456 90.3714 346.2Z" fill="#495382"/>
<path d="M84.4571 332.696C84.4571 332.632 84.4571 332.632 84.4571 332.504C83.3 323.096 81.4357 313.88 78.8 304.856C76.3571 296.024 73.6571 287.32 69.6071 279.128C69.0285 277.976 67.4214 276.76 67.2285 278.872C67.1642 279.768 68.1285 281.56 68.5142 282.456C69.35 284.696 70.1214 287.064 70.8928 289.432C72.5 294.04 73.9142 298.84 75.3928 303.512C78.1571 312.984 80.6 322.52 82.7214 331.992C82.7857 332.504 82.9142 332.888 83.3 333.272C83.75 333.528 84.2 333.528 84.4571 333.208C84.4571 333.016 84.4571 332.952 84.4571 332.696Z" fill="#3F456C"/>
<path d="M71.5357 292.184C69.4143 291.352 67.2928 290.584 65.3 289.752C65.3643 290.52 65.4928 291.352 65.5571 292.12C66.8428 292.952 68 293.72 69.35 294.36C70.5071 294.936 72.5643 296.536 73.9143 296.536C74.6857 296.536 74.9428 295.896 74.8143 295.192C74.8143 293.08 73.1428 292.824 71.5357 292.184Z" fill="#3F456C"/>
<path d="M77.5142 307.544C74.1714 306.008 70.7642 304.472 67.4214 302.936C67.6142 303.704 67.8714 304.536 68 305.304C70.8928 306.968 73.7214 308.824 76.6142 310.488C77.1928 310.936 78.8 311.32 78.8 310.04C78.8 309.848 78.8 309.592 78.7357 309.4C78.4785 308.632 78.1571 307.672 77.5142 307.544Z" fill="#3F456C"/>
<path d="M80.2143 319.512C77.1929 317.912 74.0429 316.504 70.7643 315.224C71.2143 316.248 71.5357 317.336 71.9214 318.424C74.8143 320.024 77.7714 321.624 80.6 323.224C81.1143 323.48 82.0143 323.992 82.2714 323.224C82.3357 322.968 82.2714 322.648 82.2071 322.328C81.8214 321.176 80.7286 319.768 80.2143 319.512Z" fill="#3F456C"/>
<path d="M110.107 348.888C110.107 349.08 110.107 349.4 110.171 349.528C110.621 350.04 111.329 349.592 111.779 349.272C122.257 338.904 129.264 325.4 133.443 311.32C135.629 303.96 137.171 296.408 138.329 288.856C138.907 285.016 139.357 280.984 139.743 277.144C139.936 275.16 140.193 273.176 140.321 271.256C140.386 270.616 141.157 266.904 139.743 267.224C139.293 267.288 139.1 267.736 138.907 267.992C122.386 291.736 112.357 319.96 110.107 348.888Z" fill="#495382"/>
<path d="M116.6 336.024C116.793 336.472 117.371 336.536 117.757 336.216C118.207 335.96 118.271 335.448 118.336 334.936C120.779 325.4 123.671 316.056 126.95 306.712C128.557 302.104 130.164 297.496 132.029 292.824C132.864 290.584 133.829 288.28 134.729 285.976C135.179 285.144 136.271 283.48 136.143 282.456C135.95 280.344 134.343 281.56 133.764 282.648C129.264 290.584 126.371 299.224 123.479 307.864C120.521 316.824 118.271 325.976 116.729 335.256C116.729 335.32 116.729 335.32 116.729 335.448C116.471 335.896 116.471 335.96 116.6 336.024Z" fill="#3F456C"/>
<path d="M131.064 295.704C133.186 294.936 135.371 294.296 137.493 293.528C137.429 294.296 137.236 295.128 137.043 295.896C135.757 296.664 134.536 297.304 133.186 298.008C132.029 298.584 129.907 299.992 128.557 299.992C127.786 299.992 127.657 299.352 127.657 298.584C127.786 296.536 129.393 296.216 131.064 295.704Z" fill="#3F456C"/>
<path d="M124.443 310.68C127.914 309.272 131.257 307.8 134.729 306.392C134.536 307.16 134.279 307.928 134.086 308.76C131.129 310.36 128.236 311.96 125.343 313.688C124.764 314.136 123.157 314.456 123.157 313.176C123.157 312.984 123.157 312.728 123.221 312.536C123.479 311.832 123.929 310.872 124.443 310.68Z" fill="#3F456C"/>
<path d="M188.536 386.648C189.821 357.72 183.329 328.536 169.893 302.872C169.7 302.424 169.443 302.104 169.121 302.04C167.707 301.528 168.093 305.304 168.093 306.008C168.029 307.992 168.029 309.976 167.9 311.96C167.836 315.928 167.836 319.832 167.9 323.8C168.093 331.416 168.671 339.16 170.021 346.712C172.464 361.112 177.671 375.448 186.993 386.968C187.443 387.48 188.15 387.864 188.536 387.48C188.536 387.288 188.536 387.032 188.536 386.648Z" fill="#495382"/>
<path d="M183.779 372.952C183.779 372.888 183.779 372.888 183.779 372.76C183.329 363.288 182.236 354.008 180.436 344.664C178.636 335.768 176.707 326.808 173.3 318.424C172.786 317.144 171.307 315.928 170.921 317.912C170.729 318.744 171.693 320.664 171.821 321.496C172.464 323.864 173.107 326.168 173.75 328.728C175.036 333.4 176 338.264 177.029 343.064C179.021 352.728 180.757 362.328 182.107 372.056C182.171 372.568 182.171 372.952 182.621 373.336C182.879 373.592 183.521 373.784 183.779 373.336C183.779 373.08 183.779 373.016 183.779 372.952Z" fill="#3F456C"/>
<path d="M187.7 349.592C187.7 349.784 187.7 350.104 187.764 350.232C188.214 350.744 188.921 350.296 189.371 349.976C199.914 339.672 206.921 326.168 211.293 312.088C213.543 304.728 215.086 297.24 216.243 289.624C216.821 285.784 217.271 281.752 217.657 277.912C217.85 275.928 218.107 273.944 218.236 272.024C218.3 271.384 219.071 267.672 217.657 267.992C217.207 268.056 217.014 268.504 216.821 268.76C200.236 292.696 190.143 320.792 187.7 349.592C187.764 349.592 187.764 349.592 187.7 349.592Z" fill="#495382"/>
<path d="M194.257 336.856C194.45 337.304 195.029 337.368 195.414 337.048C195.864 336.792 195.929 336.28 195.993 335.896C198.5 326.424 201.393 317.016 204.671 307.736C206.279 303.128 208.014 298.52 209.814 293.912C210.65 291.672 211.614 289.368 212.579 287.128C213.029 286.296 214.121 284.632 213.993 283.608C213.8 281.496 212.193 282.712 211.614 283.8C207.05 291.736 204.093 300.312 201.136 309.016C198.114 317.976 195.8 327.128 194.321 336.408C194.321 336.472 194.321 336.472 194.321 336.6C194.257 336.728 194.257 336.792 194.257 336.856Z" fill="#3F456C"/>
<path d="M208.979 296.536C211.164 295.768 213.286 295.128 215.471 294.36C215.407 295.128 215.214 295.96 214.957 296.728C213.671 297.496 212.45 298.136 211.1 298.84C209.943 299.416 207.757 300.824 206.471 300.824C205.7 300.824 205.571 300.184 205.571 299.416C205.636 297.368 207.243 297.112 208.979 296.536Z" fill="#3F456C"/>
<path d="M202.357 311.576C205.829 310.168 209.171 308.696 212.643 307.416C212.45 308.184 212.193 308.952 212 309.784C209.043 311.384 206.086 312.984 203.257 314.584C202.679 315.032 201.071 315.352 201.071 314.072C201.071 313.88 201.071 313.624 201.136 313.432C201.329 312.728 201.779 311.832 202.357 311.576Z" fill="#3F456C"/>
<path d="M146.879 309.272C145.271 307.992 143.15 309.464 141.929 310.424C140.771 311.256 139.743 312.344 138.907 313.432C139.486 311.768 140.193 309.976 140.836 308.312C142.443 306.712 143.793 304.792 144.629 302.616C145.079 301.72 145.271 300.44 144.629 299.672C144.436 299.416 144.05 299.16 143.729 299.096C143.15 299.032 142.443 299.096 142.057 299.352C141.221 299.864 140.707 300.76 140.45 301.72C139.807 303.832 139.55 305.944 139.807 308.12C138.907 310.616 137.879 313.304 137.043 315.864C137.043 314.264 136.85 312.664 136.271 311.256C135.757 310.104 134.471 308.888 133.121 309.656C131.579 310.488 132.093 312.6 132.543 313.944C133.186 316.056 134.343 317.912 135.886 319.448C135.114 321.688 134.471 323.992 133.764 326.296C133.571 325.016 133.25 323.928 132.736 322.776C132.093 321.368 130.614 319.192 128.75 319.832C124.443 321.24 130.936 328.664 132.736 330.456C132.221 332.568 131.707 334.488 131.321 336.6C130.807 335.192 130.421 333.72 129.714 332.376C129.2 331.544 128.364 330.84 127.464 331.544C125.021 333.336 129.264 336.984 131 338.392C130.421 341.144 129.843 343.832 129.393 346.584C129.329 347.224 130.229 347.416 130.293 346.84C130.807 344.088 131.321 341.4 131.9 338.648C131.964 338.584 132.093 338.584 132.093 338.456C134.536 338.2 136.786 337.432 138.907 336.088C140.064 335.32 142.893 333.592 141.864 331.736C140.836 330.072 138.329 331.672 137.236 332.312C135.307 333.464 133.7 334.808 132.35 336.6C132.864 334.424 133.25 332.312 133.893 330.136C133.957 330.136 134.086 330.072 134.15 329.944C136.336 329.112 138.393 327.832 140.064 326.232C140.9 325.4 143.407 323.288 141.993 322.008C140.643 320.728 138.521 322.584 137.621 323.544C136.593 324.44 135.629 325.528 134.857 326.616C135.757 323.416 136.786 320.088 137.814 316.888C137.814 316.888 137.879 316.888 137.879 316.824C139.421 316.056 140.9 315.224 142.443 314.456C143.793 313.816 145.4 313.112 146.686 312.216C147.521 311.832 148.036 310.232 146.879 309.272Z" fill="#68422D"/>
<path d="M201.136 318.936C202.486 319.704 204.157 319.96 205.636 320.472C207.243 321.048 208.85 321.496 210.521 322.072C210.521 322.072 210.586 322.072 210.586 322.136C212.193 325.144 213.607 328.152 215.086 331.16C214.186 330.136 213.093 329.176 211.871 328.472C210.714 327.832 208.4 326.296 207.307 327.704C206.021 329.24 208.85 330.904 209.75 331.544C211.743 332.888 213.993 333.72 216.243 334.232C216.307 334.296 216.436 334.424 216.693 334.424C217.529 336.408 218.364 338.456 219.2 340.44C217.593 339.032 215.729 337.752 213.736 336.984C212.45 336.472 209.879 335.384 209.107 337.176C208.336 339.096 211.357 340.376 212.707 340.952C214.957 341.848 217.336 342.296 219.843 342.232C219.907 342.296 220.036 342.424 220.1 342.424C221.129 344.92 222.093 347.608 222.993 350.296C223.186 350.872 224.15 350.488 223.829 349.848C222.929 347.16 221.9 344.536 220.936 341.912C222.35 340.312 226.079 335.96 223.314 334.552C222.286 334.04 221.514 334.808 221.193 335.832C220.679 337.24 220.55 338.712 220.293 340.184C219.521 338.2 218.686 336.344 217.85 334.424C219.264 332.248 224.536 323.928 220.036 323.288C218.043 323.032 217.014 325.272 216.5 326.808C216.05 328.088 215.986 329.24 215.986 330.52C214.957 328.344 213.993 326.168 212.836 324.056C214.121 322.264 214.957 320.216 215.279 318.04C215.471 316.696 215.729 314.52 213.929 314.008C212.514 313.496 211.421 314.84 211.036 316.12C210.586 317.656 210.779 319.192 211.036 320.792C209.686 318.36 208.336 315.992 207.05 313.56C207.05 311.384 206.407 309.272 205.443 307.416C204.993 306.584 204.414 305.752 203.514 305.304C202.936 305.112 202.229 305.048 201.843 305.304C201.393 305.368 201.2 305.752 201.007 305.944C200.493 306.776 200.943 307.928 201.521 308.888C202.807 310.872 204.286 312.6 206.15 313.816C207.05 315.416 207.95 316.888 208.85 318.488C207.821 317.592 206.664 316.696 205.314 315.992C203.9 315.224 201.586 314.072 200.236 315.544C199.079 316.76 199.914 318.232 201.136 318.936Z" fill="#68422D"/>
<path d="M158 325.72C160.121 317.784 161.536 309.848 162.564 301.72C162.629 301.08 161.664 301.08 161.664 301.72C160.764 309.208 159.414 316.568 157.55 323.928C156.136 315.864 154.014 307.928 151.379 300.12C151.186 299.544 150.221 299.672 150.479 300.376C153.757 310.04 156.2 319.832 157.614 329.88C155.364 326.296 152.471 323.096 149 320.408C148.486 319.96 147.714 320.664 148.357 321.048C152.343 324.056 155.493 327.832 157.871 332.312C158.45 336.984 158.771 341.72 159.029 346.392C159.029 347.032 160.057 347.032 159.929 346.392C159.671 339.544 159.029 332.696 157.807 325.848C157.871 325.976 158 325.912 158 325.72Z" fill="#645D33"/>
<path d="M150.093 293.72C144.693 293.72 144.693 302.04 150.093 302.04C155.429 301.976 155.429 293.72 150.093 293.72Z" fill="#C1A073"/>
<path d="M162.179 298.136C158.386 298.136 158.386 304.024 162.179 304.024C166.1 304.024 166.1 298.136 162.179 298.136Z" fill="#C1A073"/>
<path d="M148.293 318.424C144.757 318.424 144.757 323.8 148.293 323.8C151.636 323.864 151.636 318.424 148.293 318.424Z" fill="#C1A073"/>
<path d="M65.6214 334.872C65.0428 326.744 64.9785 318.616 65.4285 310.36C65.4285 309.72 66.4571 309.848 66.3285 310.552C65.8143 318.104 65.8785 325.592 66.3928 333.08C69.2857 325.464 72.6285 317.976 76.7428 310.808C77 310.232 78.0285 310.744 77.5785 311.256C72.6285 320.152 68.5785 329.368 65.2357 339.032C68.1285 335.832 71.4714 333.272 75.3285 331.288C75.9071 331.032 76.4857 331.8 75.9071 332.12C71.4071 334.488 67.6143 337.56 64.5285 341.528C63.1143 346.072 61.8285 350.552 60.9285 355.224C60.8643 355.864 59.7714 355.736 60.0285 355.032C61.4428 348.312 63.5 341.72 65.75 335.256C65.6214 335.128 65.6214 335 65.6214 334.872Z" fill="#645D33"/>
<path d="M79.1214 304.664C84.4571 305.56 82.9143 313.816 77.5786 312.856C72.3071 311.96 73.85 303.64 79.1214 304.664Z" fill="#C1A073"/>
<path d="M66.3286 306.968C70.0571 307.608 69.0286 313.432 65.3 312.728C61.5071 312.024 62.6 306.264 66.3286 306.968Z" fill="#C1A073"/>
<path d="M128.3 259.8C117.179 286.36 109.079 314.072 104.129 342.296C104.064 342.936 104.964 343.128 105.029 342.552C109.979 314.2 118.207 286.552 129.2 260.056C129.457 259.48 128.557 259.288 128.3 259.8Z" fill="#645D33"/>
<path d="M134.536 254.36C133.893 253.784 132.607 253.208 132.286 252.952C130.936 252.312 129.521 251.928 127.979 252.056C126.629 252.056 127.336 254.552 127.4 255.576C127.464 257.24 127.593 259.032 127.657 260.696C127.657 260.952 127.721 261.336 128.107 261.464C128.364 261.528 128.621 261.4 128.75 261.208C130.743 259.288 132.736 257.496 134.729 255.576C134.793 255.512 134.986 255.32 134.986 255.064C135.05 254.872 134.793 254.616 134.536 254.36Z" fill="#645D33"/>
<path d="M150.736 251.288C148.486 250.392 145.657 250.264 143.086 250.52C146.943 248.536 151.957 244.76 148.807 241.112C147.2 239.32 144.307 240.216 142.379 240.92C140.707 241.688 139.164 242.712 137.879 243.992C139.871 239.448 141.671 232.6 135.95 232.152C132.993 231.96 130.614 234.584 129.457 237.08C128.3 239.32 128.043 241.88 128.429 244.376C126.757 241.624 125.214 238.936 123.221 236.44C121.871 234.776 119.75 233.56 117.757 234.776C111.843 237.784 117.307 245.016 120.2 247.832C124.7 252.248 130.486 255.448 136.529 257.24C139.679 258.072 142.957 258.648 146.171 258.776C148.55 258.84 151.379 258.84 152.857 256.664C154.271 254.36 152.857 252.12 150.736 251.288Z" fill="#C1A073"/>
<path d="M132.543 279.448C132.286 279 131.9 278.68 131.386 278.616C130.55 278.36 129.586 278.68 128.879 279.192C127.271 280.088 125.986 281.56 124.764 282.968C122.321 285.912 120.136 289.176 118.079 292.44C117.307 293.72 116.536 294.936 115.893 296.216C115.636 296.728 113.707 299.48 114.993 299.736C115.25 299.736 115.507 299.672 115.764 299.544C121.1 296.856 125.536 292.824 129.329 288.28C130.614 286.744 131.771 285.272 132.543 283.48C132.993 282.648 133.186 281.688 133.057 280.728C133.057 280.216 132.864 279.768 132.543 279.448Z" fill="#645D33"/>
<path d="M111.007 313.048C111.007 312.792 111.007 312.408 110.943 312.152C110.171 308.376 109.529 304.536 108.436 300.824C107.857 298.904 107.15 297.112 106.186 295.448C105.543 294.424 104.579 293.336 103.293 293.464C101.493 293.528 101.043 295.576 101.171 296.984C101.429 298.968 102.071 300.76 102.971 302.616C104.771 306.584 107.086 310.36 109.786 313.88C109.979 314.136 110.3 314.392 110.557 314.392C110.621 314.392 110.814 314.328 110.814 314.2C110.943 313.752 111.007 313.496 111.007 313.048Z" fill="#645D33"/>
<path d="M168.607 271C168.607 270.936 168.543 270.744 168.414 270.552C168.221 270.488 167.9 270.488 167.771 270.552C166.871 271.064 165.971 271.448 165.071 272.088C164.3 272.664 163.079 273.624 164.171 274.456C165.457 275.352 166.679 276.376 167.964 277.4C168.221 277.592 168.543 277.848 168.8 277.656C169.25 277.592 169.314 277.016 169.25 276.632C169.314 274.904 169.121 272.984 168.607 271C168.607 271.128 168.607 271.128 168.607 271Z" fill="#645D33"/>
<path d="M170.793 260.824C170.6 258.136 170.15 253.848 167.064 252.76C164.686 251.992 163.079 254.04 162.693 256.216C162.243 258.392 162.5 260.632 162.95 262.808C162.371 261.976 161.793 261.144 161.15 260.312C160.314 259.16 158.643 256.856 156.843 258.072C155.236 259.096 156.264 261.336 156.843 262.68C157.421 264.024 158.193 265.176 158.964 266.456C156.971 265.048 154.464 263.96 152.471 264.344C149.579 264.984 151.057 267.416 152.407 268.888C156.136 272.856 163.593 278.04 168.286 272.152C170.793 269.144 171.05 264.536 170.793 260.824Z" fill="#C1A073"/>
<path d="M168.864 276.44C168.607 275.864 167.707 276.376 168.029 276.952C178.636 300.76 185.257 326.168 187.314 352.152C187.379 352.792 188.343 352.792 188.214 352.152C186.35 325.976 179.664 300.376 168.864 276.44Z" fill="#645D33"/>
<path d="M176.9 297.88C176.9 297.816 176.9 297.816 176.836 297.688C176.321 296.344 175.421 295.192 174.393 294.168C173.364 293.272 172.143 292.376 170.857 291.672C169.057 290.52 167.129 289.496 165.007 289.24C164.364 289.176 163.657 289.176 163.079 289.432C161.086 290.264 162.307 292.376 163.529 293.272C167.064 296.28 171.564 298.2 176.064 298.648C176.321 298.648 176.707 298.648 176.9 298.392C176.9 298.2 176.9 298.072 176.9 297.88Z" fill="#645D33"/>
<path d="M187.571 291.992C187.507 291.992 187.379 291.928 187.121 291.928C186.221 291.736 185.321 292.184 184.679 292.952C183.971 293.592 183.779 294.488 183.329 295.32C181.336 300.696 180.629 306.456 181.079 312.152C181.079 312.664 181.271 313.176 181.786 313.176C182.043 313.176 182.364 312.92 182.429 312.6C184.421 309.592 186.029 306.392 187.507 303.064C188.407 300.888 189.307 298.648 189.5 296.28C189.564 295.384 189.5 294.36 189.243 293.528C188.857 292.952 188.279 292.248 187.571 291.992Z" fill="#645D33"/>
<path d="M185.9 333.848C185.257 332.824 184.357 331.864 183.521 330.904C180.629 327.704 177.607 324.696 174.521 321.752C173.107 320.408 171.564 319.064 169.957 317.976C169.186 317.4 168.35 316.952 167.45 316.952C165.2 316.952 165.071 319.192 166.1 320.664C170.793 327.064 177.8 331.48 185.257 334.488C185.45 334.552 185.707 334.68 185.836 334.552C186.029 334.552 186.286 334.36 186.286 334.104C186.157 334.296 186.093 334.04 185.9 333.848C185.9 333.912 185.9 333.912 185.9 333.848Z" fill="#645D33"/>
<path d="M196.443 258.072C190.464 289.24 186.8 320.984 185.643 352.664C185.643 353.56 187.057 353.56 187.186 352.664C188.343 320.984 191.814 289.56 197.793 258.392C198.05 257.56 196.636 257.112 196.443 258.072Z" fill="#68422D"/>
<path d="M193.936 279.448C193.936 279.384 193.871 279.256 193.871 279.192C191.621 274.584 188.729 270.296 185.257 266.456C185.064 266.264 184.807 265.944 184.614 265.944C183.329 265.752 184.614 269.016 184.807 269.656C185.321 271.064 185.964 272.536 186.736 273.688C188.343 276.184 190.529 278.488 193.229 280.088C193.421 280.152 193.486 280.28 193.743 280.28C194 280.088 194 279.704 193.936 279.448Z" fill="#68422D"/>
<path d="M203.579 275.224L203.514 275.288C200.75 277.464 198.307 279.96 196.186 282.776C195.157 284.184 194.193 285.72 193.293 287.192C193.036 287.768 190.85 291.48 191.943 291.544C192.2 291.544 192.521 291.48 192.714 291.288C197.407 288.216 201.136 283.672 203.257 278.36C203.514 277.592 203.836 276.76 204.093 275.928C204.157 275.672 204.286 275.16 203.9 275.032C203.964 275.096 203.836 275.16 203.579 275.224Z" fill="#68422D"/>
<path d="M220.164 230.04C217.207 224.344 209.879 229.528 205.571 233.88C205.636 233.688 205.636 233.432 205.764 233.368C207.05 230.296 208.271 227.224 209.493 224.152C210.136 222.488 210.65 220.44 208.979 219.096C207.307 217.752 204.029 217.688 201.907 217.496C200.364 217.432 198.693 217.496 198.05 219.096C197.15 221.272 197.986 224.856 198.243 227.16C198.5 229.848 199.014 232.344 199.529 235.032C197.6 231.256 195.286 227.16 192.2 224.472C189.243 221.976 186.35 223.896 184.293 226.584C181.593 230.04 182.621 232.28 185.643 234.776C188.536 237.144 191.686 238.808 195.286 239.896L190.079 239.832C187.829 239.832 185.45 239.576 183.136 239.832C179.793 240.408 179.536 242.84 180.179 245.72C180.95 248.728 182.621 251.928 186.35 251.096C188.6 250.584 190.593 248.92 192.329 247.576C194.257 246.232 196.121 244.888 198.05 243.608C195.286 247.128 192.714 250.904 190.979 254.936C189.307 258.904 192.264 260.696 195.607 262.168C198.371 263.32 202.164 263.192 203.257 259.992C204.029 257.816 203.514 254.936 203.45 252.632C203.386 250.2 203.257 247.704 203 245.272C205.186 248.28 207.629 251.032 210.521 253.4C212.9 255.384 215.664 256.472 217.657 253.4C219.264 250.904 220.164 247.64 217.4 245.656C214.25 243.416 210.071 241.944 206.214 240.856C210.329 240.664 214.379 239.832 218.171 238.168C221.964 236.504 221.707 233.304 220.164 230.04Z" fill="#C1A073"/>
<path d="M204.221 233.048C203.771 232.984 203.45 232.856 203.064 232.792C201.521 232.6 199.914 232.984 198.564 233.688C193.871 236.568 194.257 244.248 199.914 245.848C202.679 246.616 205.893 245.272 207.243 242.84C207.886 241.496 208.143 239.96 208.079 238.552C208.014 237.272 207.629 236.056 206.921 235.032C206.279 234.136 205.314 233.496 204.221 233.048Z" fill="#FFC152"/>
<path d="M203.129 234.52C201.136 234.52 201.136 237.592 203.129 237.592C205.057 237.656 205.057 234.52 203.129 234.52Z" fill="#9F5D3A"/>
<path d="M198.95 237.208C197.343 237.208 197.343 239.64 198.95 239.64C200.557 239.704 200.557 237.208 198.95 237.208Z" fill="#9F5D3A"/>
<path d="M200.493 240.856C197.729 240.856 197.6 245.208 200.493 245.208C203.257 245.144 203.257 240.856 200.493 240.856Z" fill="#9F5D3A"/>
<path d="M205.571 237.336C203.579 237.336 203.579 240.408 205.571 240.408C207.564 240.344 207.564 237.336 205.571 237.336Z" fill="#9F5D3A"/>
<path d="M204.8 241.624C203.514 241.624 203.514 243.544 204.8 243.544C206.086 243.544 206.086 241.624 204.8 241.624Z" fill="#9F5D3A"/>
<path d="M229.486 314.392C228.264 307.672 226.721 300.952 224.729 294.424C224.536 293.848 223.571 293.976 223.829 294.68C226.271 303.128 228.2 311.768 229.486 320.472V314.392Z" fill="#645D33"/>
<path d="M221.579 284.056C221.579 284.056 221.579 283.992 221.579 284.056C221.514 283.864 221.321 283.8 221.129 283.864C221.064 283.864 220.936 284.056 220.936 284.12C220.357 288.152 221.129 292.248 224.086 295.384C224.15 295.448 224.343 295.576 224.536 295.448C224.6 295.448 224.6 295.384 224.6 295.256C225.436 291.352 224.214 287.064 221.579 284.056Z" fill="#645D33"/>
<path d="M219.714 302.168C219.714 302.168 219.65 302.104 219.714 302.168C219.521 302.104 219.264 302.104 219.264 302.168C219.2 302.232 219.2 302.424 219.264 302.616C220.936 306.392 223.764 309.4 227.943 310.36C228.136 310.36 228.393 310.36 228.393 310.296C228.393 310.232 228.393 310.104 228.393 310.104C226.85 306.264 223.507 303.32 219.714 302.168Z" fill="#645D33"/>
<path d="M229.486 320.92C227.75 318.232 225.114 316.184 222.093 315.48C221.9 315.48 221.836 315.416 221.643 315.48C221.579 315.544 221.643 315.672 221.643 315.928C223.25 319.256 225.821 321.752 229.486 322.648V320.92Z" fill="#645D33"/>
<path d="M229.486 300.952C228.007 303.512 227.429 306.648 227.879 309.528C227.879 309.592 227.879 309.72 227.943 309.72C228.007 309.784 228.2 309.72 228.393 309.656C228.779 309.272 229.164 308.888 229.486 308.44V300.952Z" fill="#645D33"/>
<path d="M178.636 150.168C178.636 150.104 178.636 149.976 178.571 149.976C177.221 149.528 175.871 149.208 174.586 148.824C175.164 148.312 175.614 147.928 176.193 147.416C176.386 147.224 176.129 146.904 175.936 147.16C175.357 147.672 174.779 148.184 174.264 148.696C174.071 147.352 174.007 146.008 173.75 144.728C173.75 144.664 173.686 144.536 173.557 144.536C173.493 144.472 173.3 144.472 173.3 144.6C173.043 146.008 172.721 147.48 172.529 148.76C172.014 148.184 171.629 147.608 170.986 147.096C170.793 146.904 170.471 147.16 170.729 147.352C171.243 147.928 171.629 148.376 172.143 148.952C170.793 149.144 169.379 149.4 168.029 149.528C167.836 149.528 167.836 149.72 167.964 149.784C167.964 149.848 167.964 149.976 168.029 149.976C169.443 150.424 170.921 150.616 172.336 151C171.886 151.576 171.564 152.024 171.179 152.6C170.986 152.792 171.371 153.048 171.629 152.792C172.079 152.28 172.4 151.768 172.657 151.256L173.429 154.776V154.84C173.493 155.032 173.943 154.904 173.879 154.776L174.714 151.512C175.164 152.024 175.486 152.344 175.743 152.856C175.936 153.048 176.257 152.792 176 152.6C175.55 152.088 175.164 151.576 174.714 151.064C176.064 150.872 177.221 150.616 178.571 150.424C178.636 150.296 178.636 150.232 178.636 150.168Z" fill="#C1A073"/>
<path d="M90.6928 194.392C90.6928 194.328 90.6928 194.2 90.6285 194.2C89.2785 193.752 87.9285 193.432 86.6428 193.048C87.2214 192.536 87.6714 192.152 88.2499 191.64C88.4428 191.448 88.1857 191.128 87.9928 191.384C87.4142 191.896 86.8357 192.408 86.3214 192.92C86.1285 191.576 86.0642 190.232 85.8071 188.952C85.8071 188.888 85.7428 188.76 85.6142 188.76C85.5499 188.696 85.3571 188.696 85.3571 188.824C85.0999 190.232 84.7785 191.704 84.5857 193.048C84.0714 192.472 83.6857 191.896 83.0428 191.384C82.8499 191.192 82.5285 191.448 82.7857 191.64C83.2999 192.216 83.6857 192.664 84.1999 193.24C82.8499 193.432 81.4357 193.688 80.0857 193.816C79.8928 193.816 79.8928 194.008 80.0214 194.072C80.0214 194.136 80.0214 194.264 80.0857 194.264C81.4999 194.712 82.9785 194.904 84.3928 195.288C83.9428 195.864 83.6214 196.312 83.2357 196.888C83.0428 197.08 83.4285 197.336 83.6857 197.08C84.1357 196.568 84.4571 196.056 84.7142 195.544L85.4857 199.064V199.128C85.5499 199.32 85.9999 199.192 85.9357 199.064L86.7714 195.8C87.2214 196.312 87.5428 196.632 87.7999 197.144C87.9928 197.336 88.3142 197.08 88.0571 196.888C87.6071 196.376 87.2214 195.864 86.7714 195.352C88.1214 195.16 89.2785 194.904 90.6285 194.712C90.6928 194.648 90.6928 194.584 90.6928 194.392Z" fill="#C1A073"/>
<path d="M191.364 210.712C191.364 210.648 191.364 210.52 191.3 210.52C189.95 210.072 188.6 209.752 187.314 209.368C187.893 208.856 188.343 208.472 188.921 207.96C189.114 207.768 188.857 207.448 188.664 207.704C188.086 208.216 187.507 208.728 186.993 209.24C186.8 207.896 186.736 206.552 186.479 205.272C186.479 205.208 186.414 205.08 186.286 205.08C186.221 205.016 186.029 205.016 186.029 205.144C185.771 206.552 185.45 208.024 185.257 209.368C184.743 208.792 184.357 208.216 183.714 207.704C183.521 207.512 183.2 207.768 183.457 207.96C183.971 208.536 184.357 208.984 184.871 209.56C183.521 209.752 182.107 210.008 180.757 210.136C180.564 210.136 180.564 210.328 180.693 210.392C180.693 210.456 180.693 210.584 180.757 210.584C182.171 211.032 183.65 211.224 185.064 211.608C184.614 212.184 184.293 212.632 183.907 213.208C183.714 213.4 184.1 213.656 184.357 213.4C184.807 212.888 185.129 212.376 185.386 211.864L186.157 215.384V215.448C186.221 215.64 186.671 215.512 186.607 215.384L187.443 212.12C187.893 212.632 188.214 212.952 188.471 213.464C188.664 213.656 188.986 213.4 188.729 213.208C188.279 212.696 187.893 212.184 187.443 211.672C188.793 211.48 189.95 211.224 191.3 211.032C191.364 210.904 191.364 210.776 191.364 210.712Z" fill="#C1A073"/>
<path d="M126.371 108.952C124.25 109.208 122.064 109.592 119.943 109.848C119.429 108.44 119.107 106.968 118.593 105.56C118.593 105.496 118.529 105.368 118.4 105.368C118.336 105.176 117.886 104.92 117.821 105.304C117.179 106.648 116.471 107.992 115.829 109.144H110.107C110.043 109.144 110.043 109.144 109.914 109.144C109.721 109.208 109.464 109.592 109.85 109.656L114.35 113.624C113.193 115.416 111.971 117.336 110.814 119.064C110.75 119.256 110.814 119.512 110.879 119.576C110.943 119.768 111.136 119.832 111.393 119.768C113.771 118.168 116.086 116.568 118.529 114.84C119.686 116.184 121.229 117.528 122.643 118.424C123.221 118.872 124.314 119.576 123.993 118.36C123.414 116.44 122.643 114.52 121.807 112.664C123.414 111.512 125.021 110.424 126.693 109.208C126.693 109.208 126.693 109.208 126.757 109.144C126.95 109.464 126.757 108.952 126.371 108.952Z" fill="#C1A073"/>
<path d="M185.579 167.576C183.779 167.832 182.043 168.152 180.243 168.344C179.793 167.192 179.471 165.976 179.086 164.824C179.086 164.76 179.021 164.76 179.021 164.632C178.957 164.44 178.571 164.376 178.507 164.568C177.929 165.592 177.35 166.744 176.836 167.768H172.143C172.079 167.768 172.079 167.768 172.079 167.768C171.886 167.832 171.821 168.024 172.014 168.28L175.743 171.544C174.843 173.08 173.75 174.552 172.786 176.088C172.721 176.28 172.786 176.344 172.85 176.408C172.914 176.472 173.043 176.6 173.3 176.472C175.293 175.128 177.286 173.72 179.279 172.44C180.179 173.592 181.464 174.616 182.75 175.448C183.264 175.704 184.164 176.344 183.907 175.384C183.393 173.784 182.75 172.184 182.107 170.712C183.457 169.816 184.807 168.792 186.221 167.832C186.221 167.832 186.221 167.832 186.286 167.768C186.093 168.024 185.836 167.512 185.579 167.576Z" fill="#C1A073"/>
<path d="M118.464 183.768C116.664 184.024 114.929 184.344 113.129 184.536C112.679 183.384 112.357 182.168 111.971 181.016C111.971 180.952 111.907 180.952 111.907 180.824C111.843 180.632 111.457 180.568 111.393 180.76C110.814 181.784 110.236 182.936 109.721 183.96H105.029C104.964 183.96 104.964 183.96 104.964 183.96C104.771 184.024 104.707 184.216 104.9 184.472L108.629 187.736C107.729 189.272 106.636 190.744 105.671 192.28C105.607 192.472 105.671 192.536 105.736 192.728C105.8 192.792 105.929 192.92 106.186 192.792C108.179 191.448 110.171 190.04 112.164 188.76C113.064 189.912 114.35 190.936 115.636 191.768C116.15 192.024 117.05 192.664 116.793 191.704C116.279 190.104 115.636 188.504 114.993 187.032C116.343 186.136 117.693 185.112 119.107 184.152C119.107 184.152 119.107 184.152 119.171 184.088C118.914 184.216 118.85 183.768 118.464 183.768Z" fill="#C1A073"/>
<path d="M175.421 195.032C173.493 194.84 171.693 194.52 169.764 194.392C168.993 192.024 168.157 189.72 167.386 187.288C167.386 187.224 167.321 187.224 167.321 187.096C167.257 186.904 166.807 186.904 166.743 187.16L164.493 194.904C162.564 195.48 160.636 195.928 158.579 196.248C158.514 196.248 158.514 196.248 158.386 196.248C157.936 196.312 157.936 196.888 158.386 196.888H158.45C160.121 197.4 161.793 197.784 163.529 198.232C162.95 200.408 162.371 202.584 161.857 204.76C161.793 205.208 162.307 205.336 162.436 205.016C162.5 205.016 162.5 205.016 162.629 204.952C164.171 203.032 165.779 201.112 167.257 199.192C168.864 200.728 170.536 202.264 172.207 203.8C172.464 204.056 172.914 203.736 172.786 203.352C172.786 203.288 172.786 203.288 172.786 203.16C171.95 201.176 171.179 199.192 170.343 197.208C172.014 196.632 173.879 196.184 175.55 195.608C175.614 195.608 175.743 195.544 175.743 195.416C175.871 195.48 175.807 195.096 175.421 195.032Z" fill="#C1A073"/>
<path fill-rule="evenodd" clip-rule="evenodd" d="M103.679 127.896C101.557 127.896 101.557 131.096 103.679 131.096C105.8 131.096 105.8 127.896 103.679 127.896Z" fill="#C1A073"/>
<path fill-rule="evenodd" clip-rule="evenodd" d="M123.479 100.504C121.357 100.504 121.357 103.704 123.479 103.704C125.6 103.704 125.6 100.504 123.479 100.504Z" fill="#C1A073"/>
<path fill-rule="evenodd" clip-rule="evenodd" d="M134.471 103.704C132.35 103.704 132.35 106.904 134.471 106.904C136.593 106.904 136.593 103.704 134.471 103.704Z" fill="#C1A073"/>
<path fill-rule="evenodd" clip-rule="evenodd" d="M94.2929 159.512C92.1714 159.512 92.1714 162.712 94.2929 162.712C96.4143 162.776 96.4143 159.512 94.2929 159.512Z" fill="#C1A073"/>
<path fill-rule="evenodd" clip-rule="evenodd" d="M155.3 102.104C153.179 102.104 153.179 105.304 155.3 105.304C157.421 105.304 157.421 102.104 155.3 102.104Z" fill="#C1A073"/>
<path fill-rule="evenodd" clip-rule="evenodd" d="M152.086 115.608C149.964 115.608 149.964 118.808 152.086 118.808C154.207 118.872 154.207 115.608 152.086 115.608Z" fill="#C1A073"/>
<path fill-rule="evenodd" clip-rule="evenodd" d="M165.65 123.672C163.529 123.672 163.529 126.872 165.65 126.872C167.771 126.808 167.771 123.672 165.65 123.672Z" fill="#C1A073"/>
<path fill-rule="evenodd" clip-rule="evenodd" d="M94.2929 180.184C92.1714 180.184 92.1714 183.384 94.2929 183.384C96.4143 183.448 96.4143 180.184 94.2929 180.184Z" fill="#C1A073"/>
<path fill-rule="evenodd" clip-rule="evenodd" d="M102.071 170.968C99.95 170.968 99.95 174.168 102.071 174.168C104.193 174.104 104.193 170.968 102.071 170.968Z" fill="#C1A073"/>
<path fill-rule="evenodd" clip-rule="evenodd" d="M192.393 185.432C190.271 185.432 190.271 188.632 192.393 188.632C194.514 188.632 194.514 185.432 192.393 185.432Z" fill="#C1A073"/>
<path fill-rule="evenodd" clip-rule="evenodd" d="M198.243 208.6C196.121 208.6 196.121 211.8 198.243 211.8C200.3 211.8 200.3 208.6 198.243 208.6Z" fill="#C1A073"/>
<path fill-rule="evenodd" clip-rule="evenodd" d="M175.679 213.976C173.557 213.976 173.557 217.176 175.679 217.176C177.8 217.112 177.736 213.976 175.679 213.976Z" fill="#C1A073"/>
<path fill-rule="evenodd" clip-rule="evenodd" d="M156.714 182.36C154.593 182.36 154.593 185.56 156.714 185.56C158.836 185.56 158.836 182.36 156.714 182.36Z" fill="#C1A073"/>
<path fill-rule="evenodd" clip-rule="evenodd" d="M167.257 231.32C165.136 231.32 165.136 234.52 167.257 234.52C169.379 234.52 169.379 231.32 167.257 231.32Z" fill="#C1A073"/>
<path fill-rule="evenodd" clip-rule="evenodd" d="M206.986 266.456C204.864 266.456 204.864 269.656 206.986 269.656C209.107 269.72 209.107 266.456 206.986 266.456Z" fill="#C1A073"/>
<path fill-rule="evenodd" clip-rule="evenodd" d="M226.271 248.088C224.15 248.088 224.15 251.288 226.271 251.288C228.393 251.288 228.393 248.088 226.271 248.088Z" fill="#C1A073"/>
<path fill-rule="evenodd" clip-rule="evenodd" d="M180.436 257.496C178.314 257.496 178.314 260.696 180.436 260.696C182.557 260.76 182.557 257.496 180.436 257.496Z" fill="#C1A073"/>
<path fill-rule="evenodd" clip-rule="evenodd" d="M177.286 271.384C175.164 271.384 175.164 274.584 177.286 274.584C179.214 274.584 179.407 271.384 177.286 271.384Z" fill="#C1A073"/>
<path fill-rule="evenodd" clip-rule="evenodd" d="M83.6214 280.856C81.5 280.856 81.5 284.056 83.6214 284.056C85.7428 284.056 85.7428 280.856 83.6214 280.856Z" fill="#C1A073"/>
<path fill-rule="evenodd" clip-rule="evenodd" d="M105.543 239.384C103.421 239.384 103.421 242.584 105.543 242.584C107.664 242.52 107.664 239.384 105.543 239.384Z" fill="#C1A073"/>
<path fill-rule="evenodd" clip-rule="evenodd" d="M73.0786 263.256C70.9571 263.256 70.9571 266.456 73.0786 266.456C75.2 266.456 75.2 263.256 73.0786 263.256Z" fill="#C1A073"/>
<path fill-rule="evenodd" clip-rule="evenodd" d="M50.3857 240.92C50.1928 240.92 50 240.984 49.8714 240.984V243.992C50 244.12 50.1928 244.12 50.3857 244.12C52.5071 244.12 52.5071 240.92 50.3857 240.92Z" fill="#C1A073"/>
<path fill-rule="evenodd" clip-rule="evenodd" d="M89.5357 209.24C87.4143 209.24 87.4143 212.44 89.5357 212.44C91.5929 212.504 91.5929 209.24 89.5357 209.24Z" fill="#C1A073"/>
<path fill-rule="evenodd" clip-rule="evenodd" d="M98.9857 203.224C96.8643 203.224 96.8643 206.424 98.9857 206.424C101.043 206.488 101.043 203.224 98.9857 203.224Z" fill="#C1A073"/>
<path fill-rule="evenodd" clip-rule="evenodd" d="M71.4714 200.28C69.35 200.28 69.35 203.48 71.4714 203.48C73.5928 203.544 73.5928 200.28 71.4714 200.28Z" fill="#C1A073"/>
<path d="M120.393 155.352C125.536 155.352 129.65 151.192 129.65 146.136C129.65 141.016 125.471 136.92 120.393 136.92C115.314 136.92 111.136 141.08 111.136 146.136C111.136 151.192 115.314 155.352 120.393 155.352Z" stroke="white" stroke-miterlimit="10"/>
<path d="M149.707 153.176C154.85 153.176 158.964 149.208 158.964 144.28C158.964 139.352 154.786 135.384 149.707 135.384C144.564 135.384 140.45 139.352 140.45 144.28C140.45 149.208 144.564 153.176 149.707 153.176Z" stroke="white" stroke-miterlimit="10"/>
<path d="M129.714 146.072L140.45 145.368" stroke="white" stroke-miterlimit="10"/>
</g>
<circle cx="328" cy="217" r="5" fill="#C1A073"/>
<circle cx="9.5" cy="9.5" r="9" stroke="#645D33"/>
<defs>
<clipPath id="clip0">
<rect width="180" height="256" fill="white" transform="translate(50 63)"/>
</clipPath>
</defs>
</svg>
