<svg width="140" height="200" viewBox="0 0 140 200" fill="none" xmlns="http://www.w3.org/2000/svg">
<rect width="140" height="199.111" fill="#EEE6DC"/>
<g clip-path="url(#clip0)">
<path d="M139.6 136.988C136.75 135.296 134.45 133.255 134.35 130.119C134.2 126.286 137.95 122.802 137.1 119.118C135.6 112.796 124.85 115.285 120.45 110.457C115.25 104.732 123.35 95.0257 119.8 88.1563C117 82.7306 107.95 81.4363 107.35 75.463C106.95 71.431 110.95 68.0959 110.95 64.0639C111 57.8915 102.95 55.5021 98.7 51.0221C93.45 45.3972 94.3 36.4372 90 30.1652C85.2 23.2461 73.7999 22.1012 67.7 27.9252C62.1499 24.3412 54.7 23.7439 48.7 26.4319C42.6 29.1199 38.1499 34.9937 37.0499 41.415C36.1499 46.4426 37.25 51.5697 37.2 56.6968C37.15 61.7741 35.35 67.4986 30.7 69.7883C26.65 71.7297 20.2 71.5306 19.15 75.9608C18.05 80.7892 25.3 83.5768 26.15 88.5048C26.85 92.7857 22.35 96.2203 18.2 97.7635C14.05 99.3066 9.09995 100.85 7.49995 104.931C5.64995 109.71 9.39995 115.833 6.44995 120.014C4.99995 122.105 2.39995 122.901 -0.0500488 123.797V210.211C-0.0500488 210.958 -0.300048 211.506 -0.700048 211.904C-1.15005 214.642 -5.65005 214.492 -5.65005 211.456V207.723C-5.85005 207.374 -5.95005 206.976 -5.95005 206.478V205.283C-6.50005 204.885 -6.90005 204.238 -6.90005 203.342V201.052C-7.30005 201.003 -7.70005 200.903 -8.05005 200.654V216.135H139.65V136.988H139.6Z" fill="#D8C19E"/>
<path d="M139.6 201.998C131.3 204.337 122.25 204.138 114.15 201.202C108.2 198.962 102.2 194.681 101.1 188.409C100.3 183.729 102.2 178.154 99.25 174.471C97.6 172.38 95 171.534 92.55 170.289C90.2 169.045 87.85 166.954 87.95 164.366C88.1499 160.832 92.35 159.189 94.5 156.451C97.5 152.867 96.4 146.645 92.4 144.256C89.65 142.613 86.25 142.613 83.15 141.916C80.05 141.219 76.8 138.78 77.05 135.594C77.45 131.861 82.25 130.417 84.65 127.58C87.65 123.946 86.5 118.272 83.65 114.289C80.9 110.357 76.9 107.42 74.05 103.637C72.5 101.497 71.7 99.0077 71.7 96.3197C71.7 95.0255 71.9 93.6317 72.1 92.2877C72.2999 90.4459 72.55 90.645 71.05 89.9979C68.9 88.9526 61.2999 87.8575 59.7 90.3464C59.25 91.0433 59.35 91.989 59.5 92.7357C60.15 98.261 57.8499 103.936 53.5999 107.619C50.7999 109.959 47.3 111.353 44.4 113.642C41.5 115.932 39.2 119.566 40.25 123.05C41.9 128.476 50.75 130.965 49.65 136.49C48.35 143.011 35.3499 141.319 34.5499 147.989C33.8499 153.863 43.95 155.505 45.25 161.28C45.95 164.714 43.2999 168 40.25 169.941C37.3499 172.032 33.8999 173.674 32.2999 176.86C30.1499 181.141 32.3 186.467 31.6 191.196C30.6 197.07 25.35 201.251 19.85 203.541C13.6 206.13 6.49995 206.777 -0.250049 205.682V210.211C-0.250049 210.958 -0.500049 211.506 -0.900049 211.904C-1.35005 214.642 -5.85005 214.492 -5.85005 211.456V207.722C-6.05005 207.374 -6.15005 206.976 -6.15005 206.478V205.283C-6.60005 204.985 -6.95005 204.487 -7.05005 203.84C-7.45005 203.69 -7.90005 203.541 -8.30005 203.342V216.234H139.45V201.998H139.6Z" fill="white"/>
<path d="M66.3999 124.643C73.7999 124.693 80.4499 120.81 84.2999 114.937C84.1499 114.737 83.9499 114.439 83.7999 114.24C81.0499 110.307 77.0499 107.37 74.1999 103.587C72.6499 101.447 71.8499 98.9579 71.8499 96.2699C71.8499 94.9757 72.0499 93.5819 72.2499 92.2379C72.4499 90.3961 72.6999 90.5952 71.1999 89.9481C69.0499 88.9028 61.4499 87.8077 59.8499 90.2966C59.3999 90.9935 59.4999 91.9392 59.6499 92.6859C60.2999 98.2112 57.9999 103.886 53.7499 107.569C51.7999 109.262 49.35 110.457 47.2 111.751C50.55 119.367 57.8999 124.593 66.3999 124.643Z" fill="#AB7051"/>
<path d="M70.5499 90.7944C67.6499 93.4824 63.6499 93.134 61.0999 90.2966C60.0999 89.2015 58.5499 90.7944 59.5499 91.9393C62.9499 95.7722 68.3999 95.9215 72.1999 92.4371C73.2499 91.4415 71.6499 89.7988 70.5499 90.7944Z" fill="#68422D"/>
<path d="M85.8501 59.8328C85.8001 58.8373 85.7001 57.9911 85.6501 57.0453C85.5001 54.9546 85.2001 52.8142 83.8001 51.2213C82.1001 49.3795 79.2001 49.1306 76.8001 48.4835C72.9501 47.3884 69.6501 44.7502 67.7001 41.1662C67.6501 40.9671 67.5001 40.7679 67.2501 40.6684C66.8001 40.4693 66.2501 41.0168 66.0001 41.3653C62.8001 46.0444 58.0001 49.5786 52.6001 51.2711C50.0501 52.0675 47.2001 52.5653 45.4501 54.6062C43.3001 56.9457 43.5501 60.5297 43.9501 63.4666C44.5501 67.1999 45.0001 71.0328 45.5001 74.8159C46.0001 78.5493 47.0001 82.3822 49.3501 85.3688C52.5501 89.4008 57.5501 91.3919 62.4501 93.0844C63.8501 93.5822 65.3501 94.1297 66.9001 94.0799C68.7501 94.0302 70.5001 93.1839 72.1501 92.3377C75.4501 90.4959 78.5001 88.3057 80.8501 85.3688C83.8501 81.5359 85.4501 76.6079 85.9501 71.7297C86.3501 67.8471 86.1001 63.8151 85.8501 59.8328Z" fill="#AB7051"/>
<path d="M85.8501 59.8328C85.8001 58.8373 85.7001 57.9911 85.6501 57.0453C85.5001 54.9546 85.2001 52.8142 83.8001 51.2213C82.1001 49.3795 79.2001 49.1306 76.8001 48.4835C72.9501 47.3884 69.6501 44.7502 67.7001 41.1662C67.6501 40.9671 67.5001 40.7679 67.2501 40.6684C66.8001 40.4693 66.2501 41.0168 66.0001 41.3653C62.8001 46.0444 58.0001 49.5786 52.6001 51.2711C50.0501 52.0675 47.2001 52.5653 45.4501 54.6062C43.3001 56.9457 43.5501 60.5297 43.9501 63.4666C44.5501 67.1999 45.0001 71.0328 45.5001 74.8159C46.0001 78.5493 47.0001 82.3822 49.3501 85.3688C52.5501 89.4008 57.5501 91.3919 62.4501 93.0844C63.8501 93.5822 65.3501 94.1297 66.9001 94.0799C68.7501 94.0302 70.5001 93.1839 72.1501 92.3377C75.4501 90.4959 78.5001 88.3057 80.8501 85.3688C83.8501 81.5359 85.4501 76.6079 85.9501 71.7297C86.3501 67.8471 86.1001 63.8151 85.8501 59.8328Z" fill="#AB7051"/>
<path d="M59.4001 64.064C59.3501 64.064 59.2001 64.1137 59.0501 64.2133C58.9001 64.3626 58.7001 64.5617 58.6501 64.7111C57.9501 65.9057 56.7001 66.8017 55.2501 66.9511C53.8501 67.1004 52.4501 66.6026 51.4001 65.7066C51.2001 65.5075 50.9501 65.2586 50.7001 65.2089C49.1501 64.8604 51.3501 67.4986 51.7501 67.6977C52.7501 68.3946 54.0501 68.8924 55.3001 68.7431C57.4501 68.5937 59.3501 66.9013 59.9001 64.8106C59.9501 64.6115 59.9501 64.3128 59.7501 64.1635C59.6001 64.064 59.4501 64.0142 59.4001 64.064Z" fill="#291410"/>
<path d="M52.3001 73.7705C51.6001 73.7705 50.8001 74.119 50.0501 74.4674C48.4001 75.6621 47.2501 77.7527 47.5501 79.6941C47.9001 81.6354 49.4001 83.4274 51.5501 83.6265C53.6501 83.8256 55.7001 82.4318 56.4001 80.4905C57.2001 78.2505 56.2501 75.5127 54.1501 74.3181C53.6001 74.0194 52.9501 73.7705 52.3001 73.7705Z" fill="#9F5D3A"/>
<path d="M58.1499 60.032C55.4499 58.7378 52.2999 58.9369 49.9499 60.7289C49.5499 61.0774 49.9499 61.7245 50.3499 61.376C52.4999 59.6836 55.3499 59.4347 57.8499 60.6792C58.1999 60.8783 58.5999 60.2809 58.1499 60.032Z" fill="#291410"/>
<path d="M73.4498 63.8646C73.2998 64.0637 73.3998 64.3126 73.4498 64.5615C74.3498 66.4531 76.4498 67.6975 78.6498 67.5482C79.8998 67.3989 81.0998 66.8513 81.9498 65.8557C82.2998 65.5073 83.8998 62.7197 82.4498 63.1677C82.0998 63.3171 81.9998 63.566 81.7998 63.8149C80.9998 64.91 79.6498 65.6566 78.2498 65.7064C76.8498 65.7562 75.4498 65.2086 74.4498 64.1633C74.2998 64.014 74.0998 63.8149 73.9998 63.7153C73.9498 63.6655 73.7998 63.6655 73.6498 63.6655C73.6498 63.7153 73.5498 63.8149 73.4498 63.8646Z" fill="#291410"/>
<path d="M82.6 74.1686C81.95 73.7206 81.2 73.4717 80.35 73.4717C79.7 73.4717 79.05 73.621 78.4 74.069C76.45 75.3135 75.4 78.0512 76.15 80.2415C76.85 82.1828 78.95 83.6264 81 83.3775C81.45 83.3277 81.8 83.2281 82.2 83.029C83.3 81.1872 84.1 79.0966 84.7 77.0059C84.4 75.861 83.65 74.8157 82.6 74.1686Z" fill="#9F5D3A"/>
<path d="M75.35 59.2357C78.05 57.9414 81.2 58.1405 83.55 59.9325C83.95 60.281 83.55 60.9281 83.15 60.5797C81 58.8872 78.15 58.6383 75.65 59.8828C75.25 60.0819 74.85 59.4348 75.35 59.2357Z" fill="#291410"/>
<path d="M69.3 71.1823C69.25 71.033 69.15 70.7841 69.1 70.6845C68.3 68.793 67.85 66.553 68.2 64.5121C68.25 64.313 68.25 64.0641 68.2 63.865C68.15 63.6659 67.85 63.4667 67.65 63.5165C67.5 63.5663 67.45 63.865 67.45 63.9645C67 66.6525 67.45 69.3903 68.65 71.8792C69 72.4765 69.25 72.9743 69.35 73.5716C69.5 74.169 69.5 74.8161 69.15 75.3139C68.75 75.9112 68.05 76.2099 67.3 76.3094C66.25 76.4588 66.6 77.1059 67.45 77.3547C68.15 77.5041 69 77.305 69.4 76.7076C70.1 75.9112 70.3 74.7663 70.05 73.721C70.1 72.7254 69.7 71.9788 69.3 71.1823Z" fill="#291410"/>
<path d="M70.3 82.1332C70.15 82.1829 69.95 82.3323 69.85 82.5314C69.2 83.1785 68.3 83.5767 67.35 83.6265C66.45 83.6763 65.5 83.2781 64.75 82.7305C64.55 82.5812 64.35 82.3323 64.1 82.2825C63 82.0834 64.25 83.7758 64.5 83.9749C65.1 84.5723 65.8 85.0203 66.65 85.1696C67.95 85.5181 69.45 84.9705 70.25 83.8754C70.6 83.4772 70.75 82.9794 70.75 82.5812C70.75 82.5314 70.75 82.3821 70.7 82.2327C70.7 81.9838 70.4 81.9838 70.3 82.1332Z" fill="#291410"/>
<path d="M64.5 41.3156C64.5 41.1662 64.45 40.9671 64.3 40.9173C64.1 40.8676 63.85 40.9173 63.7 41.0667C63 41.5645 62.3 42.2614 61.8 42.9582C61.4 43.4062 61.15 43.9538 60.9 44.4516C60.35 45.8453 60.45 47.3885 60.85 48.832C61.2 49.8276 61.55 50.7733 61.65 51.8187C61.65 53.0631 61 54.208 59.95 54.8053C59.35 55.2533 58.7 55.2036 58.25 54.4569C57.8 53.8596 58.2 53.2622 57.9 52.7645C57.75 52.416 57.25 52.6151 57 52.8142C56 53.8596 56.5 55.3529 57.8 55.8009C58.45 56 59.3 55.8507 59.95 55.7511C62.55 55.104 64.95 53.2125 65.55 50.624C66.2 47.6871 64.5 44.7005 64.55 41.6142C64.6 41.5147 64.6 41.4151 64.5 41.3156Z" fill="#D8C19E"/>
<path d="M139.6 162.773C132 182.187 127 202.397 125.9 223.303C125.9 223.801 126.6 223.801 126.6 223.303C127.7 203.093 132.3 183.63 139.6 164.765V162.773Z" fill="#68422D"/>
<path d="M135.55 159.936L135.5 159.886C135.35 159.837 135.1 159.886 135.05 160.036C135 160.185 134.9 160.384 134.9 160.484C134.7 162.126 134.7 163.769 135.05 165.312C135.45 166.955 136.15 168.249 137 169.693C137.05 169.742 137.15 169.842 137.2 169.842C137.4 169.892 137.55 169.643 137.55 169.394C137.9 166.158 137.15 162.923 135.65 160.085C135.6 160.135 135.6 159.986 135.55 159.936Z" fill="#68422D"/>
<path d="M139.6 166.357C139.15 166.805 138.7 167.353 138.35 167.901C138.15 168.299 137.9 168.597 137.7 168.996C137.55 169.394 137.25 169.792 137.9 169.693C138.5 169.643 139.1 169.344 139.6 169.045V166.357Z" fill="#68422D"/>
<path d="M47.6999 157.248C47.6499 156.75 46.8999 156.9 46.9999 157.447C51.3999 177.806 52.9499 198.713 51.7999 219.52C51.7999 220.018 52.4999 220.018 52.4999 219.52C53.7499 198.663 52.0999 177.707 47.6999 157.248Z" fill="#68422D"/>
<path d="M54.15 154.211C55.7 153.166 54.3 150.926 53.7 149.731C51.85 145.799 48.3 148.736 46.75 151.573C46.75 150.777 46.75 149.93 46.7 149.184C46.65 148.387 46.65 147.342 46.2 146.695C45.5 145.5 43.65 145.898 42.55 146.247C41.3 146.645 40.05 147.641 40.25 149.134C40.4 149.731 40.75 150.179 41.25 150.627C41.85 151.274 42.5 151.922 43.15 152.569C41.85 152.22 40.25 152.121 39.15 152.569C37.6 153.166 37.95 155.456 38.05 156.75C38.2 160.384 41.55 158.691 43.8 157.198C42.75 158.194 41.65 159.09 41.5 160.583C41.35 162.076 42.5 162.922 43.75 163.321C45.15 163.769 46.55 163.769 47.15 162.226C47.6 161.13 47.65 159.886 47.6 158.592C48.9 161.081 50.9 163.57 53.1 160.832C54 159.737 54.95 158.094 53.75 156.85C53.25 156.252 52.35 155.954 51.6 155.754C50.8 155.406 50.05 155.257 49.25 155.058C50.25 155.008 51.1 154.908 52.05 154.858C52.65 154.56 53.55 154.56 54.15 154.211Z" fill="#C1A073"/>
<path d="M48.55 154.212C48.5 153.813 48.2 153.564 48.05 153.216C47.7 152.868 47.35 152.718 46.95 152.619C46.3 152.469 45.55 152.569 45 152.967C43.6 153.863 43.75 155.904 45.15 156.8C45.8 157.248 46.8 157.248 47.5 156.85C48.2 156.452 48.75 155.755 48.75 154.908C48.7 154.66 48.65 154.46 48.55 154.212Z" fill="#9F5D3A"/>
<path d="M38.45 219.968C35.55 193.436 31.45 166.955 26 140.821C25.85 140.124 24.75 140.373 24.9 141.17C30.25 167.253 34.45 193.586 37.25 219.968C37.4 220.715 38.55 220.715 38.45 219.968Z" fill="#645D33"/>
<path d="M39.9999 162.325C39.8499 162.325 39.6499 162.375 39.5499 162.475C37.1999 163.52 35.1499 165.262 33.7999 167.502C33.2999 168.199 30.3999 173.874 31.6499 174.222C31.9999 174.272 32.2499 174.172 32.4499 174.073C36.8499 172.181 39.9999 167.95 40.6999 163.271C40.6999 163.072 40.7499 162.823 40.6499 162.624C40.4999 162.276 40.2999 162.276 39.9999 162.325Z" fill="#645D33"/>
<path d="M42.7999 195.029C42.6499 195.079 42.4499 195.179 42.3499 195.228C40.1999 196.622 38.4999 198.763 37.4999 201.102C37.0999 201.899 35.1499 207.972 36.4499 208.071C36.7999 208.071 37.0499 207.922 37.2499 207.723C41.2499 205.184 43.6999 200.405 43.5999 195.726C43.5999 195.527 43.5999 195.278 43.4499 195.079C43.3499 194.93 43.0499 194.93 42.7999 195.029Z" fill="#645D33"/>
<path d="M25.2999 184.825C25.1499 185.024 25.2499 185.273 25.2499 185.472C26.2499 190.101 29.6499 194.133 33.9499 195.925C34.2999 195.975 34.5499 196.125 34.7499 196.075C35.9999 195.677 32.8999 190.201 32.2999 189.504C30.7499 187.413 28.6999 185.771 26.3499 184.825C26.1999 184.775 25.9999 184.775 25.8999 184.676C25.6999 184.626 25.3999 184.626 25.2999 184.825Z" fill="#645D33"/>
<path d="M37.9501 132.459C37.5501 132.309 37.1501 132.26 36.8501 132.06C37.2001 131.911 37.4501 131.712 37.5501 131.463C38.0501 130.667 37.6001 129.82 36.8501 129.372C35.6501 128.725 33.6501 128.775 32.4001 128.875C31.9001 128.875 31.3501 128.924 30.8501 129.024C31.4501 128.626 31.9501 128.327 32.5001 127.829C33.3001 127.182 34.8001 125.589 33.3001 124.743C33.1501 124.693 32.9001 124.594 32.7001 124.594C31.8001 124.544 31.9001 124.594 32.2001 123.698C32.3501 123.1 32.6501 122.652 32.2001 122.055C31.8501 121.657 31.5001 121.607 31.0001 121.607C30.5001 121.657 29.9501 122.254 29.5001 122.503C29.4501 122.553 29.3001 122.652 29.1501 122.652C28.5501 122.652 28.9501 121.657 28.9501 121.408C28.9501 120.91 28.9001 120.412 28.5001 120.014C27.9001 119.367 26.9501 119.118 26.1501 119.417C25.0501 119.865 24.3001 121.06 23.7001 121.956C23.2501 122.652 22.8001 123.499 22.5001 124.295C22.4501 122.752 22.3001 121.209 22.0001 119.666C21.6501 118.421 21.0001 117.127 19.6501 116.779C19.0501 116.629 18.5501 116.729 18.0001 116.978C17.4001 117.376 17.3001 118.073 16.7501 118.521C15.7501 119.317 14.2501 118.571 13.4501 119.616C13.2501 120.014 13.1001 120.412 13.1001 120.86C13.1001 121.06 13.3001 121.508 13.3001 121.856C13.1001 123.25 12.3001 122.752 11.6001 122.852C10.5001 122.901 9.70009 123.499 9.70009 124.594C9.65009 126.137 11.2501 127.132 12.4501 127.879C13.5001 128.476 14.5501 128.974 15.6501 129.422C14.1001 129.372 12.5501 129.372 11.0001 129.372C9.70009 129.372 8.10009 129.522 7.40009 130.866C6.95009 131.662 7.00009 132.708 7.80009 133.355C8.25009 133.753 8.85009 133.703 8.90009 134.35C9.05009 134.997 8.55009 134.948 8.30009 135.396C7.95009 135.794 7.85009 136.192 7.95009 136.69C8.00009 137.038 8.35009 137.287 8.60009 137.387C9.10009 137.735 10.1501 137.237 10.0001 137.884C9.95009 138.382 9.35009 138.532 9.35009 139.179C9.35009 139.627 9.70009 140.075 9.95009 140.274C11.0501 141.17 12.7001 140.423 13.8001 139.876C14.2001 139.726 14.5001 139.477 14.9001 139.378C13.8501 140.871 13.2001 142.514 13.1501 144.405C13.1001 145.5 13.3001 146.795 14.4501 147.143C14.9501 147.292 15.2501 147.093 15.7501 146.944C16.2001 146.795 16.8001 146.247 17.4001 146.596C17.3501 146.546 17.8501 147.641 17.8001 147.641C18.2501 148.288 19.0501 148.636 19.7001 148.039C20.3001 147.442 19.7501 146.844 20.9501 147.044C21.4501 147.093 21.5501 147.492 22.1501 147.392C23.4501 147.193 23.5501 145.55 23.7001 144.455C23.7501 143.758 23.7501 143.061 23.7501 142.315C24.2501 143.559 25.0501 144.654 26.1001 145.451C26.6001 145.899 27.5001 146.098 28.2001 145.948C29.2501 145.749 29.2001 144.903 29.3001 144.057C29.3001 143.908 29.3501 143.161 29.7001 143.36C29.7501 143.36 29.7501 143.41 29.8501 143.41C30.2001 143.758 30.3501 144.057 30.8501 144.107C31.6501 144.256 31.9001 143.758 32.1001 143.111C32.2501 142.663 32.3001 142.215 32.8001 142.066C33.4001 141.867 33.9001 142.215 34.4501 141.668C35.3501 140.772 34.6501 139.577 34.0001 138.93C33.5501 138.482 33.1001 138.133 32.7001 137.735C33.3501 137.884 34.1001 138.084 34.8001 138.084C35.8001 138.084 37.0501 137.934 37.5001 136.889C38.0001 135.694 36.9001 134.798 35.8501 134.599C36.5001 134.549 37.3501 134.4 38.0001 134.201C38.5001 134.052 39.0001 133.753 39.0001 133.156C38.8001 133.006 38.3501 132.658 37.9501 132.459Z" fill="#C1A073"/>
<path d="M29.2999 133.205C29.3499 131.961 28.5999 130.965 27.4499 130.816C27.5999 129.771 27.2999 128.676 26.3999 128.028C25.3499 127.332 23.9499 127.381 22.9999 128.078C21.9499 127.431 20.6499 126.884 19.3999 127.63C18.6999 128.078 18.3499 128.875 18.4999 129.572C17.8499 129.572 17.2499 129.92 16.8499 130.468C16.3499 131.264 16.4499 132.21 16.9999 132.857C16.2999 133.454 15.9999 134.599 16.5499 135.545C16.9999 136.242 17.6499 136.64 18.3999 136.74C18.1999 137.536 18.3999 138.482 19.1999 139.079C20.4999 139.975 22.0999 139.477 23.0499 138.382C23.9499 138.98 24.9999 139.029 25.9499 138.532C26.9999 137.884 27.4499 136.64 27.1999 135.545C28.2499 135.147 29.2499 134.35 29.2999 133.205Z" fill="#FFC152"/>
<path d="M23.6 130.268C22.8 130.119 21.85 130.318 21.15 130.716C19.95 131.413 19.45 133.006 19.95 134.3C20.45 135.545 21.9 136.391 23.3 136.043C24.6 135.694 25.75 134.499 25.75 133.106C25.75 132.06 25.25 131.164 24.45 130.567C24.2 130.467 23.85 130.318 23.6 130.268Z" fill="#9F5D3A"/>
<path d="M3.50005 169.692C1.65005 182.037 0.450049 194.432 -0.0999512 206.926V210.162C-0.0999512 210.51 -0.149951 210.809 -0.249951 211.058C-0.399951 215.339 -0.449951 219.62 -0.449951 223.95C-0.449951 224.448 0.250049 224.448 0.250049 223.95C0.250049 205.881 1.55005 187.762 4.20005 169.892C4.30005 169.444 3.60005 169.244 3.50005 169.692Z" fill="#68422D"/>
<path d="M7.04992 155.307C6.99992 155.107 6.84992 154.809 6.59992 154.859C6.44992 154.859 6.24992 155.008 6.14992 155.058C2.34992 158.99 2.34992 164.665 3.39992 169.643C3.44992 170.041 3.74992 170.339 3.99992 170.29C4.19992 170.24 4.39992 169.941 4.44992 169.842C6.29992 165.362 7.19992 160.434 7.14992 155.555C7.09992 155.555 7.09992 155.406 7.04992 155.307Z" fill="#68422D"/>
<path d="M2.3499 184.227V183.879C2.0999 179.897 1.2999 175.914 -0.100098 172.181V182.386C0.299902 183.033 0.799902 183.63 1.3499 184.178C1.6999 184.526 2.0499 184.675 2.3999 184.526C2.2499 184.576 2.3499 184.426 2.3499 184.227Z" fill="#68422D"/>
<path d="M0.999902 199.658V199.31C0.849902 196.821 0.449902 194.332 -0.100098 191.893V199.509C-0.0500977 199.559 -9.76473e-05 199.609 0.0499023 199.658C0.399902 200.007 0.749902 200.156 1.0999 200.007C0.899902 199.907 0.999902 199.758 0.999902 199.658Z" fill="#68422D"/>
<path d="M0.549902 199.907C0.749902 200.256 1.2499 200.106 1.5999 199.907C3.8499 198.812 5.4499 196.771 6.5999 194.581C7.2499 193.337 7.6999 191.893 8.1499 190.549C8.3499 189.852 8.54991 189.155 8.74991 188.409C8.89991 187.961 9.19991 187.214 8.94991 186.766C8.89991 186.567 8.59991 186.318 8.34991 186.368C8.19991 186.418 8.1499 186.517 7.9499 186.567C4.6499 190.201 2.1999 194.531 0.449902 199.111C0.449902 199.161 0.399902 199.31 0.399902 199.459C0.499902 199.658 0.499902 199.758 0.549902 199.907Z" fill="#68422D"/>
<path d="M0.0499185 211.058C0.199919 211.456 0.699919 211.406 1.09992 211.207C3.44992 210.411 5.29992 208.519 6.74992 206.528C7.54992 205.333 8.24992 204.039 8.84992 202.795C9.19992 202.147 9.44992 201.5 9.74992 200.704C9.89992 200.256 10.3499 199.609 10.1999 199.061C10.1499 198.862 9.84992 198.613 9.69992 198.613C9.54992 198.613 9.49992 198.763 9.29992 198.812C5.64992 202.098 2.54992 205.931 0.249919 210.211C0.199919 210.261 0.199919 210.411 0.0999185 210.46C-0.0500816 210.709 -0.0500816 210.859 0.0499185 211.058Z" fill="#68422D"/>
<path d="M1.95008 184.426C2.10008 184.775 2.55008 184.626 2.95008 184.476C5.05008 183.58 6.60008 181.938 7.80008 179.996C8.45008 178.901 9.00008 177.706 9.50008 176.562C9.70008 175.964 9.95008 175.317 10.1501 174.72C10.3001 174.272 10.6001 173.674 10.5501 173.226C10.5001 173.027 10.2001 172.778 10.0501 172.828C9.90008 172.828 9.85008 172.978 9.70008 173.027C6.50008 176.014 3.95008 179.747 2.05008 183.68C2.00008 183.73 2.00008 183.829 2.00008 184.028C1.90008 184.128 1.90008 184.227 1.95008 184.426Z" fill="#68422D"/>
<path d="M31.4 220.266C30.6 197.767 23.75 175.616 11.7 156.501C11.55 156.153 11.3 156.003 11.05 155.854C9.95005 155.506 10.45 158.542 10.45 158.94C10.5 160.483 10.6 162.026 10.65 163.57C10.8 166.656 11.05 169.692 11.35 172.778C11.95 178.702 12.9 184.576 14.35 190.45C17.15 201.55 22.1 212.302 29.95 220.665C30.3 221.063 30.95 221.312 31.15 221.013C31.4 220.665 31.4 220.466 31.4 220.266Z" fill="#495382"/>
<path d="M26.7998 209.764C26.7998 209.714 26.7998 209.714 26.7998 209.614C25.8998 202.297 24.4498 195.129 22.3998 188.11C20.4998 181.241 18.3998 174.471 15.2498 168.1C14.7998 167.204 13.5498 166.258 13.3998 167.901C13.3498 168.597 14.0998 169.991 14.3998 170.688C15.0498 172.43 15.6498 174.272 16.2498 176.114C17.4998 179.698 18.5998 183.431 19.7498 187.065C21.8998 194.432 23.7998 201.849 25.4498 209.216C25.4998 209.614 25.5998 209.913 25.8998 210.212C26.2498 210.411 26.5998 210.411 26.7998 210.162C26.7998 210.013 26.7998 209.963 26.7998 209.764Z" fill="#3F456C"/>
<path d="M16.7499 178.254C15.0999 177.607 13.4499 177.009 11.8999 176.362C11.9499 176.96 12.0499 177.607 12.0999 178.204C13.0999 178.851 13.9999 179.449 15.0499 179.946C15.9499 180.394 17.5499 181.639 18.5999 181.639C19.1999 181.639 19.3999 181.141 19.2999 180.593C19.2999 178.951 17.9999 178.752 16.7499 178.254Z" fill="#3F456C"/>
<path d="M21.4001 190.201C18.8001 189.006 16.1501 187.811 13.55 186.617C13.7 187.214 13.9 187.861 14 188.458C16.2501 189.753 18.4501 191.196 20.7001 192.49C21.1501 192.839 22.4001 193.138 22.4001 192.142C22.4001 191.993 22.4001 191.794 22.3501 191.644C22.1501 191.047 21.9001 190.3 21.4001 190.201Z" fill="#3F456C"/>
<path d="M23.4999 199.509C21.1499 198.265 18.6999 197.17 16.1499 196.174C16.4999 196.971 16.7499 197.817 17.0499 198.663C19.2999 199.908 21.5999 201.152 23.7999 202.397C24.1999 202.596 24.8999 202.994 25.0999 202.397C25.1499 202.197 25.0999 201.949 25.0499 201.7C24.7499 200.804 23.8999 199.709 23.4999 199.509Z" fill="#3F456C"/>
<path d="M46.75 222.357C46.75 222.507 46.75 222.756 46.8 222.855C47.15 223.253 47.7 222.905 48.05 222.656C56.2 214.592 61.65 204.089 64.9 193.138C66.6 187.413 67.8 181.54 68.7 175.666C69.15 172.679 69.5 169.543 69.8 166.556C69.95 165.013 70.15 163.47 70.25 161.977C70.3 161.479 70.9 158.592 69.8 158.841C69.45 158.891 69.3 159.239 69.15 159.438C56.3 177.906 48.5 199.858 46.75 222.357Z" fill="#495382"/>
<path d="M51.8001 212.352C51.9501 212.7 52.4001 212.75 52.7001 212.501C53.0501 212.302 53.1001 211.904 53.1501 211.506C55.0501 204.089 57.3001 196.821 59.8501 189.554C61.1001 185.97 62.3501 182.386 63.8001 178.752C64.4501 177.01 65.2001 175.218 65.9001 173.426C66.2501 172.779 67.1001 171.484 67.0001 170.688C66.8501 169.045 65.6001 169.991 65.1501 170.837C61.6501 177.01 59.4001 183.73 57.1501 190.45C54.8501 197.419 53.1001 204.537 51.9001 211.755C51.9001 211.804 51.9001 211.804 51.9001 211.904C51.7001 212.252 51.7001 212.302 51.8001 212.352Z" fill="#3F456C"/>
<path d="M63.0499 180.992C64.6999 180.394 66.3999 179.897 68.0499 179.299C67.9999 179.897 67.8499 180.544 67.6999 181.141C66.6999 181.738 65.7499 182.236 64.6999 182.784C63.7999 183.232 62.1499 184.327 61.0999 184.327C60.4999 184.327 60.3999 183.829 60.3999 183.232C60.4999 181.639 61.7499 181.39 63.0499 180.992Z" fill="#3F456C"/>
<path d="M57.8999 192.64C60.5999 191.545 63.1999 190.4 65.8999 189.305C65.7499 189.902 65.5499 190.499 65.3999 191.146C63.0999 192.391 60.8499 193.635 58.5999 194.979C58.1499 195.328 56.8999 195.577 56.8999 194.581C56.8999 194.432 56.8999 194.233 56.9499 194.083C57.1499 193.536 57.4999 192.789 57.8999 192.64Z" fill="#3F456C"/>
<path d="M107.75 251.726C108.75 229.226 103.7 206.528 93.2499 186.567C93.0999 186.218 92.8999 185.97 92.6499 185.92C91.5499 185.522 91.8499 188.458 91.8499 189.006C91.7999 190.549 91.7999 192.092 91.6999 193.635C91.6499 196.722 91.6499 199.758 91.6999 202.844C91.8499 208.768 92.2999 214.791 93.3499 220.665C95.2499 231.865 99.2999 243.015 106.55 251.975C106.9 252.373 107.45 252.672 107.75 252.373C107.75 252.224 107.75 252.025 107.75 251.726Z" fill="#495382"/>
<path d="M104.05 241.074C104.05 241.024 104.05 241.024 104.05 240.925C103.7 233.557 102.85 226.34 101.45 219.072C100.05 212.153 98.55 205.184 95.9 198.663C95.5 197.668 94.35 196.722 94.05 198.265C93.9 198.912 94.65 200.405 94.75 201.053C95.25 202.894 95.75 204.686 96.25 206.677C97.25 210.311 98 214.094 98.8 217.828C100.35 225.344 101.7 232.811 102.75 240.377C102.8 240.775 102.8 241.074 103.15 241.373C103.35 241.572 103.85 241.721 104.05 241.373C104.05 241.173 104.05 241.124 104.05 241.074Z" fill="#3F456C"/>
<path d="M107.1 222.905C107.1 223.054 107.1 223.303 107.15 223.402C107.5 223.801 108.05 223.452 108.4 223.203C116.6 215.189 122.05 204.686 125.45 193.735C127.2 188.01 128.4 182.186 129.3 176.263C129.75 173.276 130.1 170.14 130.4 167.154C130.55 165.61 130.75 164.067 130.85 162.574C130.9 162.076 131.5 159.189 130.4 159.438C130.05 159.488 129.9 159.836 129.75 160.035C116.85 178.652 109 200.505 107.1 222.905C107.15 222.905 107.15 222.905 107.1 222.905Z" fill="#495382"/>
<path d="M112.2 212.999C112.35 213.347 112.8 213.397 113.1 213.148C113.45 212.949 113.5 212.551 113.55 212.252C115.5 204.885 117.75 197.568 120.3 190.35C121.55 186.766 122.9 183.182 124.3 179.598C124.95 177.856 125.7 176.064 126.45 174.322C126.8 173.675 127.65 172.38 127.55 171.584C127.4 169.941 126.15 170.887 125.7 171.733C122.15 177.906 119.85 184.576 117.55 191.346C115.2 198.315 113.4 205.433 112.25 212.651C112.25 212.7 112.25 212.7 112.25 212.8C112.2 212.899 112.2 212.949 112.2 212.999Z" fill="#3F456C"/>
<path d="M123.65 181.639C125.35 181.041 127 180.544 128.7 179.946C128.65 180.544 128.5 181.191 128.3 181.788C127.3 182.385 126.35 182.883 125.3 183.431C124.4 183.879 122.7 184.974 121.7 184.974C121.1 184.974 121 184.476 121 183.879C121.05 182.286 122.3 182.087 123.65 181.639Z" fill="#3F456C"/>
<path d="M118.5 193.337C121.2 192.242 123.8 191.097 126.5 190.101C126.35 190.698 126.15 191.296 126 191.943C123.7 193.187 121.4 194.432 119.2 195.676C118.75 196.025 117.5 196.274 117.5 195.278C117.5 195.129 117.5 194.93 117.55 194.78C117.7 194.233 118.05 193.536 118.5 193.337Z" fill="#3F456C"/>
<path d="M75.35 191.545C74.1 190.549 72.45 191.694 71.5 192.441C70.6 193.088 69.8 193.934 69.15 194.78C69.6 193.486 70.15 192.092 70.65 190.798C71.9 189.554 72.95 188.06 73.6 186.368C73.95 185.671 74.1 184.676 73.6 184.078C73.45 183.879 73.15 183.68 72.9 183.63C72.45 183.58 71.9 183.63 71.6 183.829C70.95 184.228 70.55 184.924 70.35 185.671C69.85 187.314 69.65 188.956 69.85 190.649C69.15 192.59 68.35 194.681 67.7 196.672C67.7 195.428 67.55 194.183 67.1 193.088C66.7 192.192 65.7 191.246 64.65 191.844C63.45 192.491 63.85 194.133 64.2 195.179C64.7 196.821 65.6 198.265 66.8 199.46C66.2 201.202 65.7 202.994 65.15 204.786C65 203.79 64.75 202.944 64.35 202.048C63.85 200.953 62.7 199.26 61.25 199.758C57.9 200.853 62.95 206.628 64.35 208.021C63.95 209.664 63.55 211.157 63.25 212.8C62.85 211.705 62.55 210.56 62 209.515C61.6 208.868 60.95 208.32 60.25 208.868C58.35 210.261 61.65 213.099 63 214.194C62.55 216.334 62.1 218.425 61.75 220.565C61.7 221.063 62.4 221.213 62.45 220.765C62.85 218.624 63.25 216.533 63.7 214.393C63.75 214.343 63.85 214.343 63.85 214.244C65.75 214.044 67.5 213.447 69.15 212.402C70.05 211.805 72.25 210.46 71.45 209.017C70.65 207.723 68.7 208.967 67.85 209.465C66.35 210.361 65.1 211.406 64.05 212.8C64.45 211.108 64.75 209.465 65.25 207.772C65.3 207.772 65.4 207.723 65.45 207.623C67.15 206.976 68.75 205.98 70.05 204.736C70.7 204.089 72.65 202.446 71.55 201.451C70.5 200.455 68.85 201.899 68.15 202.645C67.35 203.342 66.6 204.188 66 205.035C66.7 202.546 67.5 199.957 68.3 197.468C68.3 197.468 68.35 197.468 68.35 197.419C69.55 196.821 70.7 196.174 71.9 195.577C72.95 195.079 74.2 194.532 75.2 193.835C75.85 193.536 76.25 192.292 75.35 191.545Z" fill="#68422D"/>
<path d="M117.55 199.061C118.6 199.658 119.9 199.858 121.05 200.256C122.3 200.704 123.55 201.052 124.85 201.5C124.85 201.5 124.9 201.5 124.9 201.55C126.15 203.89 127.25 206.229 128.4 208.569C127.7 207.772 126.85 207.026 125.9 206.478C125 205.98 123.2 204.786 122.35 205.881C121.35 207.075 123.55 208.37 124.25 208.867C125.8 209.913 127.55 210.56 129.3 210.958C129.35 211.008 129.45 211.107 129.65 211.107C130.3 212.65 130.95 214.243 131.6 215.786C130.35 214.691 128.9 213.696 127.35 213.098C126.35 212.7 124.35 211.854 123.75 213.248C123.15 214.741 125.5 215.737 126.55 216.185C128.3 216.882 130.15 217.23 132.1 217.18C132.15 217.23 132.25 217.33 132.3 217.33C133.1 219.271 133.85 221.362 134.55 223.452C134.7 223.9 135.45 223.602 135.2 223.104C134.5 221.013 133.7 218.972 132.95 216.931C134.05 215.687 136.95 212.302 134.8 211.207C134 210.809 133.4 211.406 133.15 212.202C132.75 213.298 132.65 214.442 132.45 215.587C131.85 214.044 131.2 212.601 130.55 211.107C131.65 209.415 135.75 202.944 132.25 202.446C130.7 202.247 129.9 203.989 129.5 205.184C129.15 206.179 129.1 207.075 129.1 208.071C128.3 206.378 127.55 204.686 126.65 203.043C127.65 201.65 128.3 200.057 128.55 198.364C128.7 197.319 128.9 195.626 127.5 195.228C126.4 194.83 125.55 195.875 125.25 196.871C124.9 198.066 125.05 199.26 125.25 200.505C124.2 198.613 123.15 196.771 122.15 194.88C122.15 193.187 121.65 191.545 120.9 190.101C120.55 189.454 120.1 188.807 119.4 188.458C118.95 188.309 118.4 188.259 118.1 188.458C117.75 188.508 117.6 188.807 117.45 188.956C117.05 189.603 117.4 190.499 117.85 191.246C118.85 192.789 120 194.133 121.45 195.079C122.15 196.323 122.85 197.468 123.55 198.713C122.75 198.016 121.85 197.319 120.8 196.771C119.7 196.174 117.9 195.278 116.85 196.423C115.95 197.369 116.6 198.514 117.55 199.061Z" fill="#68422D"/>
<path d="M84.0001 204.338C85.6501 198.165 86.7501 191.993 87.5501 185.671C87.6001 185.173 86.8501 185.173 86.8501 185.671C86.1501 191.495 85.1001 197.22 83.6501 202.944C82.5501 196.672 80.9001 190.5 78.8501 184.427C78.7001 183.979 77.9501 184.078 78.1501 184.626C80.7001 192.142 82.6001 199.758 83.7001 207.573C81.9501 204.786 79.7001 202.297 77.0001 200.206C76.6001 199.858 76.0001 200.405 76.5001 200.704C79.6001 203.044 82.0501 205.98 83.9001 209.465C84.3501 213.099 84.6001 216.782 84.8001 220.416C84.8001 220.914 85.6001 220.914 85.5001 220.416C85.3001 215.09 84.8001 209.764 83.8501 204.437C83.9001 204.537 84.0001 204.487 84.0001 204.338Z" fill="#645D33"/>
<path d="M77.85 179.449C73.6499 179.449 73.6499 185.92 77.85 185.92C82 185.87 82 179.449 77.85 179.449Z" fill="#C1A073"/>
<path d="M87.2499 182.883C84.2999 182.883 84.2999 187.463 87.2499 187.463C90.2999 187.463 90.2999 182.883 87.2499 182.883Z" fill="#C1A073"/>
<path d="M76.4499 198.663C73.7 198.663 73.7 202.844 76.4499 202.844C79.0499 202.894 79.0499 198.663 76.4499 198.663Z" fill="#C1A073"/>
<path d="M12.1499 211.456C11.6999 205.134 11.6499 198.812 11.9999 192.391C11.9999 191.893 12.7999 191.993 12.6999 192.54C12.2999 198.414 12.3499 204.238 12.7499 210.062C14.9999 204.138 17.5999 198.314 20.7999 192.739C20.9999 192.291 21.7999 192.689 21.4499 193.088C17.5999 200.007 14.4499 207.175 11.8499 214.691C14.0999 212.202 16.6999 210.211 19.6999 208.668C20.1499 208.469 20.5999 209.066 20.1499 209.315C16.6499 211.157 13.6999 213.546 11.2999 216.633C10.1999 220.167 9.19994 223.651 8.49994 227.285C8.44994 227.783 7.59994 227.683 7.79994 227.136C8.89994 221.909 10.4999 216.782 12.2499 211.754C12.1499 211.655 12.1499 211.555 12.1499 211.456Z" fill="#645D33"/>
<path d="M22.6499 187.961C26.7999 188.658 25.5999 195.079 21.4499 194.332C17.3499 193.636 18.5499 187.164 22.6499 187.961Z" fill="#C1A073"/>
<path d="M12.7 189.753C15.6 190.251 14.8 194.78 11.9 194.233C8.95002 193.685 9.80002 189.205 12.7 189.753Z" fill="#C1A073"/>
<path d="M60.9 153.066C52.25 173.724 45.95 195.278 42.1 217.23C42.05 217.728 42.75 217.877 42.8 217.429C46.65 195.378 53.05 173.874 61.6 153.266C61.8 152.818 61.1 152.668 60.9 153.066Z" fill="#645D33"/>
<path d="M65.7501 148.835C65.2501 148.387 64.2501 147.939 64.0001 147.74C62.9501 147.243 61.8501 146.944 60.65 147.043C59.6 147.043 60.15 148.985 60.2 149.781C60.25 151.075 60.35 152.469 60.4 153.763C60.4 153.963 60.45 154.261 60.75 154.361C60.95 154.411 61.15 154.311 61.25 154.162C62.8001 152.668 64.3501 151.275 65.9001 149.781C65.9501 149.731 66.1001 149.582 66.1001 149.383C66.1501 149.234 65.9501 149.035 65.7501 148.835Z" fill="#645D33"/>
<path d="M78.3499 146.446C76.5999 145.749 74.3999 145.65 72.3999 145.849C75.3999 144.306 79.2999 141.369 76.8499 138.531C75.5999 137.138 73.3499 137.834 71.8499 138.382C70.5499 138.979 69.3499 139.776 68.3499 140.771C69.8999 137.237 71.2999 131.911 66.8499 131.562C64.5499 131.413 62.6999 133.454 61.7999 135.395C60.8999 137.138 60.6999 139.129 60.9999 141.07C59.6999 138.93 58.4999 136.839 56.9499 134.898C55.8999 133.603 54.2499 132.658 52.6999 133.603C48.0999 135.943 52.3498 141.568 54.5998 143.758C58.0999 147.193 62.5999 149.682 67.2999 151.075C69.7499 151.722 72.2999 152.17 74.7999 152.27C76.6499 152.32 78.8499 152.32 79.9999 150.627C81.0999 148.835 79.9999 147.093 78.3499 146.446Z" fill="#C1A073"/>
<path d="M64.1999 168.348C63.9999 168 63.6999 167.751 63.2999 167.701C62.6499 167.502 61.8999 167.751 61.3499 168.149C60.0999 168.846 59.0999 169.991 58.1499 171.086C56.2499 173.376 54.5499 175.914 52.9499 178.453C52.3499 179.448 51.7499 180.394 51.2499 181.39C51.0499 181.788 49.5499 183.928 50.5499 184.128C50.7499 184.128 50.9499 184.078 51.1499 183.978C55.2999 181.888 58.7499 178.752 61.6999 175.217C62.6999 174.023 63.5999 172.878 64.1999 171.484C64.5499 170.837 64.6999 170.09 64.5999 169.344C64.5999 168.945 64.4499 168.597 64.1999 168.348Z" fill="#645D33"/>
<path d="M47.4499 194.482C47.4499 194.283 47.4499 193.984 47.3999 193.785C46.7999 190.848 46.2999 187.861 45.4499 184.974C44.9999 183.481 44.4499 182.087 43.6999 180.793C43.1999 179.996 42.4499 179.15 41.4499 179.25C40.0499 179.299 39.6999 180.892 39.7999 181.987C39.9999 183.531 40.4999 184.924 41.1999 186.368C42.5999 189.454 44.3999 192.391 46.4999 195.129C46.6499 195.328 46.8999 195.527 47.0999 195.527C47.1499 195.527 47.2999 195.477 47.2999 195.378C47.3999 195.029 47.4499 194.83 47.4499 194.482Z" fill="#645D33"/>
<path d="M92.2501 161.777C92.2501 161.728 92.2001 161.578 92.1001 161.429C91.9501 161.379 91.7001 161.379 91.6001 161.429C90.9001 161.827 90.2001 162.126 89.5001 162.624C88.9001 163.072 87.9501 163.818 88.8001 164.465C89.8001 165.162 90.7501 165.959 91.7501 166.755C91.9501 166.905 92.2001 167.104 92.4001 166.954C92.7501 166.905 92.8001 166.457 92.7501 166.158C92.8001 164.814 92.6501 163.321 92.2501 161.777C92.2501 161.877 92.2501 161.877 92.2501 161.777Z" fill="#645D33"/>
<path d="M93.9499 153.863C93.7999 151.772 93.4499 148.437 91.0499 147.591C89.1999 146.994 87.9499 148.587 87.6499 150.279C87.2999 151.971 87.4999 153.714 87.8499 155.406C87.3999 154.759 86.9499 154.112 86.4499 153.465C85.7999 152.569 84.4999 150.777 83.0999 151.723C81.8499 152.519 82.6499 154.261 83.0999 155.307C83.5499 156.352 84.1499 157.248 84.7499 158.243C83.1999 157.148 81.2499 156.302 79.6999 156.601C77.4499 157.099 78.5999 158.99 79.6499 160.135C82.5499 163.221 88.3499 167.253 91.9999 162.674C93.9499 160.334 94.1499 156.75 93.9499 153.863Z" fill="#C1A073"/>
<path d="M92.4499 166.009C92.2499 165.561 91.5499 165.959 91.7999 166.407C100.05 184.924 105.2 204.686 106.8 224.896C106.85 225.394 107.6 225.394 107.5 224.896C106.05 204.537 100.85 184.626 92.4499 166.009Z" fill="#645D33"/>
<path d="M98.6999 182.684C98.6999 182.634 98.6999 182.634 98.6499 182.535C98.2499 181.49 97.5499 180.594 96.7499 179.797C95.9499 179.1 94.9999 178.403 93.9999 177.856C92.5999 176.96 91.0999 176.163 89.4499 175.964C88.9499 175.914 88.3999 175.914 87.9499 176.114C86.3999 176.761 87.3499 178.403 88.2999 179.1C91.0499 181.44 94.5499 182.933 98.0499 183.282C98.2499 183.282 98.5499 183.281 98.6999 183.082C98.6999 182.933 98.6999 182.834 98.6999 182.684Z" fill="#645D33"/>
<path d="M107 178.105C106.95 178.105 106.85 178.055 106.65 178.055C105.95 177.906 105.25 178.254 104.75 178.851C104.2 179.349 104.05 180.046 103.7 180.693C102.15 184.875 101.6 189.355 101.95 193.785C101.95 194.183 102.1 194.581 102.5 194.581C102.7 194.581 102.95 194.382 103 194.133C104.55 191.794 105.8 189.305 106.95 186.716C107.65 185.024 108.35 183.282 108.5 181.44C108.55 180.743 108.5 179.947 108.3 179.299C108 178.851 107.55 178.304 107 178.105Z" fill="#645D33"/>
<path d="M105.7 210.659C105.2 209.863 104.5 209.116 103.85 208.37C101.6 205.881 99.2499 203.541 96.8499 201.251C95.7499 200.206 94.5499 199.161 93.2999 198.315C92.6999 197.867 92.0499 197.518 91.3499 197.518C89.5998 197.518 89.4999 199.26 90.2999 200.405C93.9499 205.383 99.3999 208.818 105.2 211.157C105.35 211.207 105.55 211.307 105.65 211.207C105.8 211.207 106 211.058 106 210.859C105.9 211.008 105.85 210.809 105.7 210.659C105.7 210.709 105.7 210.709 105.7 210.659Z" fill="#645D33"/>
<path d="M113.9 151.723C109.25 175.964 106.4 200.654 105.5 225.294C105.5 225.991 106.6 225.991 106.7 225.294C107.6 200.654 110.3 176.213 114.95 151.971C115.15 151.324 114.05 150.976 113.9 151.723Z" fill="#68422D"/>
<path d="M111.95 168.348C111.95 168.299 111.9 168.199 111.9 168.149C110.15 164.565 107.9 161.23 105.2 158.243C105.05 158.094 104.85 157.845 104.7 157.845C103.7 157.696 104.7 160.235 104.85 160.732C105.25 161.827 105.75 162.972 106.35 163.868C107.6 165.81 109.3 167.602 111.4 168.846C111.55 168.896 111.6 168.995 111.8 168.995C112 168.846 112 168.547 111.95 168.348Z" fill="#68422D"/>
<path d="M119.45 165.063L119.4 165.113C117.25 166.805 115.35 168.746 113.7 170.937C112.9 172.032 112.15 173.226 111.45 174.371C111.25 174.819 109.55 177.706 110.4 177.756C110.6 177.756 110.85 177.706 111 177.557C114.65 175.168 117.55 171.634 119.2 167.502C119.4 166.905 119.65 166.258 119.85 165.61C119.9 165.411 120 165.013 119.7 164.914C119.75 164.963 119.65 165.013 119.45 165.063Z" fill="#68422D"/>
<path d="M132.35 129.92C130.05 125.49 124.35 129.522 121 132.907C121.05 132.757 121.05 132.558 121.15 132.508C122.15 130.119 123.1 127.73 124.05 125.34C124.55 124.046 124.95 122.453 123.65 121.408C122.35 120.363 119.8 120.313 118.15 120.163C116.95 120.114 115.65 120.163 115.15 121.408C114.45 123.1 115.1 125.888 115.3 127.68C115.5 129.771 115.9 131.712 116.3 133.803C114.8 130.866 113 127.68 110.6 125.589C108.3 123.648 106.05 125.141 104.45 127.232C102.35 129.92 103.15 131.662 105.5 133.603C107.75 135.445 110.2 136.739 113 137.586L108.95 137.536C107.2 137.536 105.35 137.337 103.55 137.536C100.95 137.984 100.75 139.875 101.25 142.115C101.85 144.455 103.15 146.944 106.05 146.297C107.8 145.899 109.35 144.604 110.7 143.559C112.2 142.514 113.65 141.468 115.15 140.473C113 143.211 111 146.147 109.65 149.283C108.35 152.37 110.65 153.763 113.25 154.908C115.4 155.804 118.35 155.705 119.2 153.216C119.8 151.523 119.4 149.283 119.35 147.491C119.3 145.6 119.2 143.659 119 141.767C120.7 144.107 122.6 146.247 124.85 148.089C126.7 149.632 128.85 150.478 130.4 148.089C131.65 146.147 132.35 143.609 130.2 142.066C127.75 140.323 124.5 139.179 121.5 138.332C124.7 138.183 127.85 137.536 130.8 136.242C133.75 134.947 133.55 132.459 132.35 129.92Z" fill="#C1A073"/>
<path d="M119.95 132.259C119.6 132.21 119.35 132.11 119.05 132.06C117.85 131.911 116.6 132.21 115.55 132.757C111.9 134.997 112.2 140.971 116.6 142.215C118.75 142.812 121.25 141.767 122.3 139.875C122.8 138.83 123 137.635 122.95 136.54C122.9 135.545 122.6 134.599 122.05 133.803C121.55 133.106 120.8 132.608 119.95 132.259Z" fill="#FFC152"/>
<path d="M119.1 133.404C117.55 133.404 117.55 135.794 119.1 135.794C120.6 135.843 120.6 133.404 119.1 133.404Z" fill="#9F5D3A"/>
<path d="M115.85 135.495C114.6 135.495 114.6 137.387 115.85 137.387C117.1 137.436 117.1 135.495 115.85 135.495Z" fill="#9F5D3A"/>
<path d="M117.05 138.332C114.9 138.332 114.8 141.717 117.05 141.717C119.2 141.667 119.2 138.332 117.05 138.332Z" fill="#9F5D3A"/>
<path d="M121 135.595C119.45 135.595 119.45 137.984 121 137.984C122.55 137.934 122.55 135.595 121 135.595Z" fill="#9F5D3A"/>
<path d="M120.4 138.93C119.4 138.93 119.4 140.423 120.4 140.423C121.4 140.423 121.4 138.93 120.4 138.93Z" fill="#9F5D3A"/>
<path d="M139.6 195.527C138.65 190.3 137.45 185.074 135.9 179.996C135.75 179.548 135 179.648 135.2 180.196C137.1 186.766 138.6 193.486 139.6 200.256V195.527Z" fill="#645D33"/>
<path d="M133.45 171.932C133.45 171.932 133.45 171.882 133.45 171.932C133.4 171.783 133.25 171.733 133.1 171.783C133.05 171.783 132.95 171.932 132.95 171.982C132.5 175.118 133.1 178.304 135.4 180.743C135.45 180.793 135.6 180.892 135.75 180.793C135.8 180.793 135.8 180.743 135.8 180.643C136.45 177.607 135.5 174.272 133.45 171.932Z" fill="#645D33"/>
<path d="M132 186.019C132 186.019 131.95 185.969 132 186.019C131.85 185.969 131.65 185.969 131.65 186.019C131.6 186.069 131.6 186.218 131.65 186.368C132.95 189.305 135.15 191.644 138.4 192.391C138.55 192.391 138.75 192.391 138.75 192.341C138.75 192.291 138.75 192.192 138.75 192.192C137.55 189.205 134.95 186.915 132 186.019Z" fill="#645D33"/>
<path d="M139.6 200.604C138.25 198.514 136.2 196.921 133.85 196.373C133.7 196.373 133.65 196.323 133.5 196.373C133.45 196.423 133.5 196.523 133.5 196.722C134.75 199.31 136.75 201.251 139.6 201.948V200.604Z" fill="#645D33"/>
<path d="M139.6 185.074C138.45 187.065 138 189.504 138.35 191.744C138.35 191.794 138.35 191.893 138.4 191.893C138.45 191.943 138.6 191.893 138.75 191.844C139.05 191.545 139.35 191.246 139.6 190.898V185.074Z" fill="#645D33"/>
<path d="M100.05 67.7974C100.05 67.7476 100.05 67.6481 99.9999 67.6481C98.9499 67.2996 97.8999 67.0508 96.8999 66.7521C97.3499 66.3539 97.6999 66.0552 98.1499 65.657C98.2999 65.5076 98.0999 65.2588 97.9499 65.4579C97.4999 65.8561 97.0499 66.2543 96.6499 66.6525C96.4999 65.6072 96.4499 64.5619 96.2499 63.5663C96.2499 63.5165 96.1999 63.417 96.0999 63.417C96.0499 63.3672 95.8999 63.3672 95.8999 63.4668C95.6999 64.5619 95.4499 65.7068 95.2999 66.7023C94.8999 66.2543 94.5999 65.8063 94.0999 65.4081C93.9499 65.2587 93.6999 65.4579 93.8999 65.6072C94.2999 66.0552 94.5999 66.4036 94.9999 66.8516C93.9499 67.001 92.8499 67.2001 91.7999 67.2996C91.6499 67.2996 91.6499 67.449 91.7499 67.4988C91.7499 67.5485 91.7499 67.6481 91.7999 67.6481C92.8999 67.9965 94.0499 68.1459 95.1499 68.4445C94.7999 68.8925 94.5499 69.241 94.2499 69.689C94.0999 69.8383 94.3999 70.0374 94.5999 69.8383C94.9499 69.4401 95.1999 69.0419 95.3999 68.6436L95.9999 71.3814V71.4312C96.0499 71.5805 96.3999 71.481 96.3499 71.3814L96.9999 68.8428C97.3499 69.241 97.5999 69.4899 97.7999 69.8881C97.9499 70.0374 98.1999 69.8383 97.9999 69.689C97.6499 69.2907 97.3499 68.8925 96.9999 68.4943C98.0499 68.345 98.9499 68.1459 99.9999 67.9965C100.05 67.897 100.05 67.8472 100.05 67.7974Z" fill="#C1A073"/>
<path d="M31.65 102.193C31.65 102.144 31.65 102.044 31.6 102.044C30.55 101.696 29.5 101.447 28.5 101.148C28.95 100.75 29.3 100.451 29.75 100.053C29.9 99.9036 29.7 99.6548 29.55 99.8539C29.1 100.252 28.65 100.65 28.25 101.049C28.1 100.003 28.05 98.9579 27.85 97.9623C27.85 97.9125 27.8 97.813 27.7 97.813C27.65 97.7632 27.5 97.7632 27.5 97.8627C27.3 98.9579 27.05 100.103 26.9 101.148C26.5 100.7 26.2 100.252 25.7 99.8539C25.55 99.7045 25.3 99.9036 25.5 100.053C25.9 100.501 26.2 100.849 26.6 101.297C25.55 101.447 24.45 101.646 23.4 101.745C23.25 101.745 23.25 101.895 23.35 101.945C23.35 101.994 23.35 102.094 23.4 102.094C24.5 102.442 25.65 102.592 26.75 102.89C26.4 103.338 26.15 103.687 25.85 104.135C25.7 104.284 26 104.483 26.2 104.284C26.55 103.886 26.8 103.488 27 103.089L27.6 105.827V105.877C27.65 106.026 28 105.927 27.95 105.827L28.6 103.289C28.95 103.687 29.2 103.936 29.4 104.334C29.55 104.483 29.8 104.284 29.6 104.135C29.25 103.737 28.95 103.338 28.6 102.94C29.65 102.791 30.55 102.592 31.6 102.442C31.65 102.393 31.65 102.343 31.65 102.193Z" fill="#C1A073"/>
<path d="M109.95 114.887C109.95 114.837 109.95 114.737 109.9 114.737C108.85 114.389 107.8 114.14 106.8 113.841C107.25 113.443 107.6 113.145 108.05 112.746C108.2 112.597 108 112.348 107.85 112.547C107.4 112.945 106.95 113.344 106.55 113.742C106.4 112.697 106.35 111.651 106.15 110.656C106.15 110.606 106.1 110.506 106 110.506C105.95 110.457 105.8 110.457 105.8 110.556C105.6 111.651 105.35 112.796 105.2 113.841C104.8 113.393 104.5 112.945 104 112.547C103.85 112.398 103.6 112.597 103.8 112.746C104.2 113.194 104.5 113.543 104.9 113.991C103.85 114.14 102.75 114.339 101.7 114.439C101.55 114.439 101.55 114.588 101.65 114.638C101.65 114.688 101.65 114.787 101.7 114.787C102.8 115.136 103.95 115.285 105.05 115.584C104.7 116.032 104.45 116.38 104.15 116.828C104 116.977 104.3 117.177 104.5 116.977C104.85 116.579 105.1 116.181 105.3 115.783L105.9 118.521V118.57C105.95 118.72 106.3 118.62 106.25 118.521L106.9 115.982C107.25 116.38 107.5 116.629 107.7 117.027C107.85 117.177 108.1 116.977 107.9 116.828C107.55 116.43 107.25 116.032 106.9 115.633C107.95 115.484 108.85 115.285 109.9 115.136C109.95 115.036 109.95 114.937 109.95 114.887Z" fill="#C1A073"/>
<path d="M59.4001 35.7403C57.7501 35.9394 56.0501 36.238 54.4001 36.4372C54.0001 35.342 53.7501 34.1972 53.3501 33.102C53.3501 33.0523 53.3001 32.9527 53.2001 32.9527C53.1501 32.8034 52.8001 32.6043 52.7501 32.9029C52.2501 33.9483 51.7001 34.9936 51.2001 35.8896H46.7501C46.7001 35.8896 46.7001 35.8896 46.6001 35.8896C46.4501 35.9394 46.2501 36.238 46.5501 36.2878L50.0501 39.374C49.1501 40.7678 48.2001 42.2612 47.3001 43.6052C47.2501 43.7545 47.3001 43.9536 47.3501 44.0034C47.4001 44.1527 47.5501 44.2025 47.7501 44.1527C49.6001 42.9083 51.4001 41.6638 53.3001 40.3198C54.2001 41.3652 55.4001 42.4105 56.5001 43.1074C56.9501 43.4558 57.8001 44.0034 57.5501 43.0576C57.1001 41.5643 56.5001 40.0709 55.8501 38.6274C57.1001 37.7314 58.3501 36.8852 59.6501 35.9394C59.6501 35.9394 59.6501 35.9394 59.7001 35.8896C59.8501 36.1385 59.7001 35.7403 59.4001 35.7403Z" fill="#C1A073"/>
<path d="M105.45 81.3369C104.05 81.5361 102.7 81.785 101.3 81.9343C100.95 81.0383 100.7 80.0925 100.4 79.1965C100.4 79.1467 100.35 79.1467 100.35 79.0472C100.3 78.8978 99.9999 78.8481 99.9499 78.9974C99.4999 79.7938 99.0499 80.6898 98.6499 81.4863H94.9999C94.9499 81.4863 94.9499 81.4863 94.9499 81.4863C94.7999 81.5361 94.7499 81.6854 94.8999 81.8845L97.7999 84.4232C97.0999 85.6178 96.2499 86.7627 95.4999 87.9574C95.4499 88.1067 95.4999 88.1565 95.5499 88.2063C95.5999 88.2561 95.6999 88.3556 95.8999 88.2561C97.4499 87.2107 98.9999 86.1156 100.55 85.1201C101.25 86.0161 102.25 86.8125 103.25 87.4596C103.65 87.6587 104.35 88.1565 104.15 87.4098C103.75 86.1654 103.25 84.921 102.75 83.7761C103.8 83.0792 104.85 82.2827 105.95 81.5361C105.95 81.5361 105.95 81.5361 106 81.4863C105.85 81.6854 105.65 81.2872 105.45 81.3369Z" fill="#C1A073"/>
<path d="M53.2499 93.9307C51.8499 94.1298 50.4999 94.3787 49.0999 94.528C48.7499 93.632 48.4999 92.6862 48.1999 91.7903C48.1999 91.7405 48.1499 91.7405 48.1499 91.6409C48.0999 91.4916 47.7999 91.4418 47.7499 91.5911C47.2999 92.3876 46.8499 93.2836 46.4499 94.08H42.7999C42.7499 94.08 42.7499 94.08 42.7499 94.08C42.5999 94.1298 42.5499 94.2791 42.6999 94.4783L45.5999 97.0169C44.8999 98.2116 44.0499 99.3565 43.2999 100.551C43.2499 100.7 43.2999 100.75 43.3499 100.9C43.3999 100.949 43.4999 101.049 43.6999 100.949C45.2499 99.904 46.7999 98.8089 48.3499 97.8134C49.0499 98.7094 50.0499 99.5058 51.0499 100.153C51.4499 100.352 52.1499 100.85 51.9499 100.103C51.5499 98.8587 51.0499 97.6143 50.5499 96.4694C51.5999 95.7725 52.6499 94.976 53.7499 94.2294C53.7499 94.2294 53.7499 94.2294 53.7999 94.1796C53.5999 94.2791 53.5499 93.9307 53.2499 93.9307Z" fill="#C1A073"/>
<path d="M97.5498 102.691C96.0498 102.542 94.6498 102.293 93.1498 102.194C92.5498 100.352 91.8998 98.5599 91.2998 96.6684C91.2998 96.6186 91.2498 96.6186 91.2498 96.519C91.1998 96.3697 90.8498 96.3697 90.7998 96.5688L89.0499 102.592C87.5499 103.04 86.0498 103.388 84.4498 103.637C84.3998 103.637 84.3999 103.637 84.2999 103.637C83.9499 103.687 83.9499 104.135 84.2999 104.135H84.3498C85.6498 104.533 86.9499 104.832 88.2999 105.18C87.8499 106.873 87.3998 108.565 86.9998 110.258C86.9498 110.606 87.3498 110.706 87.4498 110.457C87.4998 110.457 87.4998 110.457 87.5998 110.407C88.7998 108.914 90.0498 107.42 91.1998 105.927C92.4498 107.122 93.7498 108.316 95.0498 109.511C95.2498 109.71 95.5998 109.461 95.4998 109.163C95.4998 109.113 95.4998 109.113 95.4998 109.013C94.8498 107.47 94.2498 105.927 93.5998 104.384C94.8998 103.936 96.3498 103.587 97.6498 103.139C97.6998 103.139 97.7998 103.09 97.7998 102.99C97.8998 103.04 97.8498 102.741 97.5498 102.691Z" fill="#C1A073"/>
<path fill-rule="evenodd" clip-rule="evenodd" d="M41.7499 50.4746C40.1 50.4746 40.1 52.9635 41.7499 52.9635C43.3999 52.9635 43.3999 50.4746 41.7499 50.4746Z" fill="#C1A073"/>
<path fill-rule="evenodd" clip-rule="evenodd" d="M57.1501 29.1697C55.5001 29.1697 55.5001 31.6586 57.1501 31.6586C58.8001 31.6586 58.8001 29.1697 57.1501 29.1697Z" fill="#C1A073"/>
<path fill-rule="evenodd" clip-rule="evenodd" d="M65.6999 31.6587C64.0499 31.6587 64.0499 34.1476 65.6999 34.1476C67.3499 34.1476 67.3499 31.6587 65.6999 31.6587Z" fill="#C1A073"/>
<path fill-rule="evenodd" clip-rule="evenodd" d="M34.4499 75.0649C32.7999 75.0649 32.7999 77.5538 34.4499 77.5538C36.0999 77.6036 36.0999 75.0649 34.4499 75.0649Z" fill="#C1A073"/>
<path fill-rule="evenodd" clip-rule="evenodd" d="M81.8998 30.4141C80.2499 30.4141 80.2499 32.903 81.8998 32.903C83.5498 32.903 83.5498 30.4141 81.8998 30.4141Z" fill="#C1A073"/>
<path fill-rule="evenodd" clip-rule="evenodd" d="M79.3999 40.9172C77.7498 40.9172 77.7498 43.4061 79.3999 43.4061C81.0499 43.4559 81.0499 40.9172 79.3999 40.9172Z" fill="#C1A073"/>
<path fill-rule="evenodd" clip-rule="evenodd" d="M89.9499 47.1892C88.2999 47.1892 88.2999 49.6781 89.9499 49.6781C91.5999 49.6283 91.5999 47.1892 89.9499 47.1892Z" fill="#C1A073"/>
<path fill-rule="evenodd" clip-rule="evenodd" d="M34.4499 91.1431C32.7999 91.1431 32.7999 93.632 34.4499 93.632C36.0999 93.6817 36.0999 91.1431 34.4499 91.1431Z" fill="#C1A073"/>
<path fill-rule="evenodd" clip-rule="evenodd" d="M40.4999 83.9751C38.85 83.9751 38.85 86.464 40.4999 86.464C42.1499 86.4142 42.1499 83.9751 40.4999 83.9751Z" fill="#C1A073"/>
<path fill-rule="evenodd" clip-rule="evenodd" d="M110.75 95.2246C109.1 95.2246 109.1 97.7135 110.75 97.7135C112.4 97.7135 112.4 95.2246 110.75 95.2246Z" fill="#C1A073"/>
<path fill-rule="evenodd" clip-rule="evenodd" d="M115.3 113.244C113.65 113.244 113.65 115.733 115.3 115.733C116.9 115.733 116.9 113.244 115.3 113.244Z" fill="#C1A073"/>
<path fill-rule="evenodd" clip-rule="evenodd" d="M97.75 117.426C96.0999 117.426 96.0999 119.915 97.75 119.915C99.4 119.865 99.35 117.426 97.75 117.426Z" fill="#C1A073"/>
<path fill-rule="evenodd" clip-rule="evenodd" d="M83 92.8354C81.35 92.8354 81.35 95.3243 83 95.3243C84.65 95.3243 84.65 92.8354 83 92.8354Z" fill="#C1A073"/>
<path fill-rule="evenodd" clip-rule="evenodd" d="M91.1999 130.916C89.5499 130.916 89.5499 133.404 91.1999 133.404C92.8499 133.404 92.8499 130.916 91.1999 130.916Z" fill="#C1A073"/>
<path fill-rule="evenodd" clip-rule="evenodd" d="M122.1 158.244C120.45 158.244 120.45 160.733 122.1 160.733C123.75 160.782 123.75 158.244 122.1 158.244Z" fill="#C1A073"/>
<path fill-rule="evenodd" clip-rule="evenodd" d="M137.1 143.957C135.45 143.957 135.45 146.446 137.1 146.446C138.75 146.446 138.75 143.957 137.1 143.957Z" fill="#C1A073"/>
<path fill-rule="evenodd" clip-rule="evenodd" d="M101.45 151.274C99.7999 151.274 99.7999 153.763 101.45 153.763C103.1 153.813 103.1 151.274 101.45 151.274Z" fill="#C1A073"/>
<path fill-rule="evenodd" clip-rule="evenodd" d="M99 162.076C97.3499 162.076 97.3499 164.565 99 164.565C100.5 164.565 100.65 162.076 99 162.076Z" fill="#C1A073"/>
<path fill-rule="evenodd" clip-rule="evenodd" d="M26.1499 169.443C24.4999 169.443 24.4999 171.932 26.1499 171.932C27.7998 171.932 27.7998 169.443 26.1499 169.443Z" fill="#C1A073"/>
<path fill-rule="evenodd" clip-rule="evenodd" d="M43.1999 137.188C41.5499 137.188 41.5499 139.676 43.1999 139.676C44.8499 139.627 44.8499 137.188 43.1999 137.188Z" fill="#C1A073"/>
<path fill-rule="evenodd" clip-rule="evenodd" d="M17.9499 155.754C16.2999 155.754 16.2999 158.243 17.9499 158.243C19.5999 158.243 19.5999 155.754 17.9499 155.754Z" fill="#C1A073"/>
<path fill-rule="evenodd" clip-rule="evenodd" d="M0.299902 138.382C0.149902 138.382 -9.76548e-05 138.432 -0.100098 138.432V140.771C-9.76548e-05 140.871 0.149902 140.871 0.299902 140.871C1.9499 140.871 1.9499 138.382 0.299902 138.382Z" fill="#C1A073"/>
<path fill-rule="evenodd" clip-rule="evenodd" d="M30.7499 113.742C29.1 113.742 29.1 116.231 30.7499 116.231C32.3499 116.281 32.3499 113.742 30.7499 113.742Z" fill="#C1A073"/>
<path fill-rule="evenodd" clip-rule="evenodd" d="M38.1 109.063C36.45 109.063 36.45 111.552 38.1 111.552C39.7 111.602 39.7 109.063 38.1 109.063Z" fill="#C1A073"/>
<path fill-rule="evenodd" clip-rule="evenodd" d="M16.6999 106.773C15.0499 106.773 15.0499 109.262 16.6999 109.262C18.3499 109.312 18.3499 106.773 16.6999 106.773Z" fill="#C1A073"/>
<path d="M54.7501 71.8292C58.7501 71.8292 61.9501 68.5936 61.9501 64.6612C61.9501 60.6789 58.7001 57.4932 54.7501 57.4932C50.8001 57.4932 47.55 60.7287 47.55 64.6612C47.55 68.5936 50.8001 71.8292 54.7501 71.8292Z" stroke="white" stroke-miterlimit="10"/>
<path d="M77.5499 70.1366C81.5499 70.1366 84.7499 67.0503 84.7499 63.2175C84.7499 59.3846 81.4999 56.2983 77.5499 56.2983C73.5499 56.2983 70.3499 59.3846 70.3499 63.2175C70.3499 67.0503 73.5499 70.1366 77.5499 70.1366Z" stroke="white" stroke-miterlimit="10"/>
<path d="M62 64.6115L70.35 64.064" stroke="white" stroke-miterlimit="10"/>
</g>
<defs>
<clipPath id="clip0">
<rect width="140" height="199.111" fill="white"/>
</clipPath>
</defs>
</svg>
