<svg width="140" height="206" viewBox="0 0 140 206" fill="none" xmlns="http://www.w3.org/2000/svg">
<g clip-path="url(#clip0)">
<path d="M62.6506 157.214C62.5246 157.037 62.3733 156.91 62.222 156.758C58.3647 153.333 53.6501 152.242 48.633 152.546C48.3557 152.572 48.0783 152.597 47.8766 152.775C47.6749 152.978 47.6497 153.308 47.6497 153.587C47.5993 157.696 46.5152 161.882 44.1201 165.231C41.725 168.58 37.9181 170.99 33.8338 171.244C29.7495 171.497 25.4887 169.417 23.5474 165.789C22.8919 164.546 22.4886 163.151 21.7574 161.933C21.0263 160.715 19.7657 159.675 18.3791 159.726C17.1185 159.777 16.0848 160.69 15.1772 161.578C13.2359 163.506 11.4207 165.612 9.80712 167.844C8.97514 168.986 8.16837 170.508 8.8995 171.726C9.3281 172.436 10.2105 172.791 11.0173 172.715C11.8493 172.639 12.5804 172.182 13.1351 171.548C13.8158 170.787 14.32 169.722 15.278 169.366C16.1857 169.037 17.1941 169.468 17.8748 170.153C18.5555 170.838 18.9589 171.726 19.4127 172.563C22.3121 177.891 27.5561 181.874 33.4304 183.193C39.3299 184.512 45.7589 183.142 50.5995 179.514C53.877 177.053 56.3982 173.679 58.289 170.051C60.1799 166.424 61.4657 162.491 62.6506 158.559C62.7515 158.204 62.8523 157.823 62.7515 157.468C62.7767 157.392 62.7263 157.291 62.6506 157.214Z" fill="#A86A39"/>
<path d="M27.6569 169.849C25.9425 168.91 24.4802 167.54 23.5726 165.789C22.9171 164.546 22.5137 163.151 21.7826 161.933C21.0514 160.716 19.7908 159.675 18.4042 159.726C17.1436 159.777 16.11 160.69 15.2023 161.578C13.261 163.506 11.4458 165.612 9.83227 167.844C9.00028 168.986 8.19351 170.508 8.92465 171.726C9.35325 172.436 10.2357 172.791 11.0424 172.715C11.8744 172.639 12.6055 172.183 13.1602 171.548C13.8409 170.787 14.3451 169.722 15.3032 169.367C16.2108 169.037 17.2193 169.468 17.9 170.153C18.5807 170.838 18.9841 171.726 19.4379 172.563C20.3203 174.161 21.4044 175.658 22.665 176.977C23.7743 174.263 25.4635 171.827 27.6569 169.849Z" fill="#495382"/>
<path d="M113.553 196.664C113.503 196.537 113.452 196.436 113.377 196.334C112.671 195.345 111.158 195.472 110.074 195.979C108.99 196.487 107.931 197.248 106.746 197.273C105.511 197.298 104.376 196.487 103.695 195.446C102.989 194.406 102.662 193.188 102.334 191.996C100.014 183.624 97.4429 175.328 94.8713 167.033C94.7452 166.652 94.6192 166.221 94.2914 165.992C94.0645 165.815 93.762 165.764 93.4594 165.713C90.9635 165.358 88.3919 165.409 85.9212 165.916C84.2824 166.246 82.6437 166.804 81.3075 167.819C80.8284 168.2 79.8956 168.91 79.7695 169.544C79.6183 170.331 80.5259 171.574 80.8536 172.233C86.0977 182.178 91.3417 192.123 96.5857 202.042C97.3924 203.59 98.3757 205.264 100.014 205.797C101.325 206.228 102.788 205.822 104.048 205.264C106.847 204.072 109.318 202.22 111.687 200.317C112.318 199.81 112.948 199.277 113.351 198.592C113.679 198.009 113.78 197.273 113.553 196.664Z" fill="#A86A39"/>
<path d="M113.351 198.618C113.679 198.034 113.805 197.273 113.553 196.664C113.503 196.537 113.452 196.436 113.377 196.334C112.671 195.345 111.158 195.472 110.074 195.979C108.99 196.487 107.931 197.248 106.746 197.273C105.511 197.298 104.376 196.487 103.695 195.446C102.989 194.406 102.662 193.189 102.334 191.996C102.006 190.778 101.628 189.561 101.3 188.343C98.5522 190.677 95.4008 192.326 91.9468 193.265C93.4847 196.208 95.0478 199.15 96.5857 202.068C97.3925 203.615 98.3757 205.29 100.014 205.823C101.325 206.254 102.788 205.848 104.048 205.29C106.847 204.097 109.318 202.245 111.687 200.343C112.318 199.835 112.948 199.328 113.351 198.618Z" fill="#495382"/>
<path d="M104.275 156.098C103.771 152.039 102.283 148.132 100.266 144.555C97.8966 140.369 94.846 136.589 91.7197 132.936C91.4172 132.606 91.1146 132.251 90.686 132.099C90.2575 131.972 89.8036 132.073 89.375 132.2C83.0721 133.875 76.6684 135.219 70.1638 135.524C66.8107 135.676 63.4323 135.549 60.0792 135.067C58.39 134.813 56.7008 134.458 55.062 134.002C53.8771 133.672 52.7426 133.114 51.5324 132.784C50.3979 132.479 49.9189 132.936 48.9356 133.469C47.8263 134.052 46.7422 134.712 45.7085 135.422C43.616 136.843 41.6999 138.492 39.9603 140.344C36.7584 143.718 34.2121 147.726 32.5481 152.065C31.6657 154.373 31.0606 157.088 32.3212 159.219C33.2792 160.868 35.1953 161.781 37.1114 161.959C39.0023 162.111 40.8931 161.629 42.7084 161.045C42.2293 164.42 44.8766 167.743 48.1541 168.682C51.4064 169.646 54.9864 168.631 57.8605 166.779C57.8857 169.925 60.3061 172.868 63.3567 173.502C66.4073 174.136 69.7856 172.335 71.021 169.468C72.5841 171.548 75.0044 173.147 77.6012 173.172C80.198 173.197 82.8452 171.32 83.1982 168.732C84.963 170.635 87.8371 171.396 90.2827 170.61C92.7534 169.823 94.6695 167.54 95.0224 164.978C97.2411 166.906 101.023 166.601 102.888 164.318C104.25 162.669 104.552 160.386 104.477 158.229C104.426 157.544 104.376 156.809 104.275 156.098Z" fill="#FFC152"/>
<path d="M55.062 134.839C54.9108 133.57 53.146 135.27 52.8938 135.6C49.0869 140.725 46.0111 146.458 44.448 152.648C44.3219 153.105 44.2211 153.587 44.3723 154.018C44.5236 154.449 45.053 154.805 45.4564 154.602C45.7085 154.475 45.8346 154.221 45.9607 153.967C48.9356 147.803 51.9106 141.663 54.8856 135.498C54.9864 135.321 55.0872 135.093 55.062 134.839Z" fill="white"/>
<path d="M63.6088 136.716C63.155 135.372 61.7684 137.604 61.5919 138.035C58.9447 144.428 57.2303 151.329 57.1042 158.356C57.1042 158.864 57.1042 159.422 57.3564 159.853C57.6085 160.284 58.2388 160.538 58.5917 160.234C58.8186 160.056 58.8943 159.726 58.9447 159.422C60.4826 152.09 62.0205 144.784 63.5584 137.452C63.6593 137.249 63.7097 136.97 63.6088 136.716Z" fill="white"/>
<path d="M83.8789 135.524C86.8539 141.688 89.8288 147.828 92.8038 153.993C92.9299 154.246 93.0559 154.5 93.308 154.627C93.7366 154.83 94.2409 154.5 94.3921 154.043C94.5434 153.612 94.4425 153.105 94.3165 152.673C92.7534 146.483 89.6776 140.75 85.8706 135.625C85.6185 135.295 83.8537 133.596 83.7024 134.864C83.6772 135.092 83.778 135.321 83.8789 135.524Z" fill="white"/>
<path d="M76.6432 136.462C78.1811 143.794 79.719 151.1 81.2569 158.432C81.3074 158.737 81.383 159.041 81.6099 159.244C81.9881 159.574 82.5932 159.32 82.8453 158.864C83.0974 158.432 83.1226 157.874 83.0974 157.367C82.9713 150.314 81.2569 143.414 78.6097 137.046C78.4332 136.64 77.0466 134.382 76.5928 135.727C76.5172 135.955 76.5928 136.209 76.6432 136.462Z" fill="white"/>
<path d="M68.2982 137.553C68.8276 145.773 69.3571 153.967 69.8613 162.187C69.8865 162.517 69.9118 162.872 70.1134 163.1C70.4664 163.481 71.1219 163.278 71.4749 162.847C71.8026 162.39 71.9035 161.781 71.9791 161.223C72.9119 153.485 72.1052 145.722 70.3151 138.416C70.1891 137.934 69.0798 135.321 68.399 136.741C68.273 136.97 68.2982 137.274 68.2982 137.553Z" fill="white"/>
<path d="M118.595 72.5568C118.116 71.6942 116.982 71.4152 116.124 71.8211C115.04 72.3792 114.435 73.6984 113.956 74.7386C110.906 81.2839 106.847 87.5755 101.048 91.8376C95.2492 96.0996 87.4337 98.0785 80.677 95.643C80.4248 95.5669 80.1727 95.4654 79.9206 95.5415C79.5424 95.643 79.3659 96.0996 79.2651 96.5056C78.0549 101.376 78.66 106.704 80.9543 111.169C81.1308 111.55 81.3577 111.93 81.7106 112.133C82.0132 112.311 82.3913 112.336 82.7443 112.336C89.1985 112.387 95.4005 109.419 100.518 105.436C108.536 99.2201 114.511 90.3915 117.309 80.5989C117.814 78.7977 118.242 76.9711 118.62 75.1445C118.797 74.358 118.948 73.5208 118.671 72.7597C118.671 72.6836 118.62 72.6075 118.595 72.5568Z" fill="#A86A39"/>
<path d="M116.125 84.1504C114.234 83.161 112.469 81.994 110.805 80.6748C108.208 84.9876 105.031 88.8945 101.023 91.8374C95.2241 96.0994 87.4085 98.0783 80.6518 95.6428C80.3997 95.5667 80.1476 95.4652 79.8955 95.5413C79.5173 95.6428 79.3408 96.0994 79.24 96.5053C78.0298 101.376 78.6349 106.704 80.9291 111.169C81.1056 111.549 81.3325 111.93 81.6855 112.133C81.988 112.311 82.3662 112.336 82.7192 112.336C89.1733 112.387 95.3754 109.418 100.493 105.435C107.553 99.981 112.998 92.497 116.125 84.1504Z" fill="#495382"/>
<path d="M125.579 68.6245C125.251 68.2947 124.696 68.5737 124.369 68.7259C123.89 68.9543 123.411 69.2333 122.932 69.4363C122.73 69.5378 122.528 69.6392 122.301 69.7153C123.133 68.802 123.89 67.8126 124.52 66.7471C124.898 66.1382 125.049 64.7176 123.89 64.9713C123.562 65.0474 123.31 65.2757 123.058 65.4786C122.301 66.1636 121.595 66.9247 120.99 67.7365C121.621 66.4173 122.251 65.0727 122.453 63.6013C122.503 63.1954 122.503 62.7134 122.175 62.485C121.923 62.3075 121.57 62.3582 121.318 62.5104C121.066 62.6626 120.889 62.9163 120.713 63.17C120.032 64.2102 119.478 65.3264 118.923 66.4427C119.125 65.4025 119.352 64.337 119.352 63.2715C119.352 62.7895 119.226 62.1806 118.772 62.0284C118.494 61.9269 118.167 62.0538 117.94 62.2567C117.713 62.4597 117.587 62.7387 117.461 63.0178C117.133 63.8043 116.956 64.6161 116.755 65.4279C116.452 66.7217 116.2 68.041 115.948 69.3348C115.57 68.3708 115.217 67.4067 114.839 66.468C114.662 66.0114 114.385 65.504 113.906 65.4786C112.771 65.4786 113.099 67.0515 113.25 67.7619C113.553 69.208 113.629 70.6794 114.183 72.0493C114.511 72.8612 114.864 73.7491 115.545 74.3326C116.175 74.84 117.007 75.0683 117.814 74.9415C118.52 74.84 119.2 74.5102 119.831 74.1804C121.898 73.0895 123.89 71.618 125.276 69.7153C125.528 69.4616 125.932 68.9796 125.579 68.6245Z" fill="#A86A39"/>
<path d="M92.0726 133.114C92.4256 131.871 92.2743 130.526 92.0978 129.258C90.5599 118.374 87.6102 107.694 83.1729 97.6472C82.7696 96.7085 82.3158 95.7445 81.5846 95.0595C79.4164 92.9792 75.6095 95.0088 73.1639 95.4654C69.9117 96.0743 66.5585 96.2772 63.2558 96.125C62.0708 96.0743 60.7598 95.9982 59.7766 96.6578C59.2724 97.013 58.8942 97.5203 58.5412 98.0531C52.2383 107.313 48.6583 118.425 48.3557 129.638C48.3305 130.932 48.3305 132.277 48.8852 133.469C49.7172 135.321 51.6332 136.386 53.4989 137.173C58.3647 139.177 63.6592 139.837 68.9032 139.761C74.1472 139.659 79.3408 138.822 84.5092 137.858C85.9966 137.579 87.5345 137.274 88.896 136.615C90.2574 135.955 91.4928 134.839 92.0222 133.393C92.0222 133.266 92.0474 133.19 92.0726 133.114Z" fill="#495382"/>
<path d="M82.4167 112.64C82.3915 112.59 82.3663 112.514 82.3411 112.463C81.383 110.053 78.7863 111.042 77.6769 112.717C77.0971 113.604 76.7693 114.619 76.4416 115.634C75.9626 114.366 75.1306 113.173 73.9204 112.539C72.7103 111.93 71.0967 112.006 70.1387 112.996C69.4832 113.681 69.2059 114.67 69.2311 115.609C69.2563 116.547 69.584 117.486 69.9118 118.349C71.1724 121.571 73.038 124.564 75.2818 127.203C75.3827 127.329 75.4835 127.456 75.6348 127.507C75.9626 127.634 76.2903 127.355 76.5424 127.076C79.5426 123.778 81.736 119.668 82.4167 115.254C82.6184 114.366 82.694 113.452 82.4167 112.64Z" fill="white"/>
<path d="M54.7595 111.955C54.8099 111.93 54.8856 111.905 54.936 111.879C55.0872 111.778 55.1881 111.6 55.2889 111.423C57.3311 107.82 59.348 104.243 61.3902 100.641C61.6171 100.235 61.8692 99.7781 61.8692 99.2961C61.8944 97.4441 58.6673 98.6872 57.684 98.8902C55.7428 99.2453 53.8015 99.6512 51.8602 100.083C47.9272 100.945 44.0194 101.935 40.1368 103.051C36.5819 104.066 32.9767 105.233 30.0521 107.49C27.1276 109.748 24.9594 113.351 25.3376 117.029C25.5393 118.957 26.3965 120.759 27.5562 122.306C30.279 125.909 34.6154 128.04 39.0275 128.902C43.4395 129.765 48.0028 129.486 52.4905 129.054C53.7006 128.928 55.1125 128.674 55.6671 127.583C55.894 127.126 55.9444 126.594 55.768 126.112C55.3898 125.021 54.1292 124.539 53.0199 124.209C49.7172 123.194 46.3388 122.255 43.4143 120.403C41.9772 119.516 40.5654 118.12 40.6662 116.446C40.7419 115.431 41.3974 114.518 42.2293 113.934C43.0613 113.351 44.0446 113.021 45.0278 112.767C47.9776 112.006 51.0534 111.752 54.0788 112.006C54.3309 112.006 54.5578 112.006 54.7595 111.955Z" fill="#A86A39"/>
<path d="M57.684 98.8896C55.7428 99.2448 53.8015 99.6507 51.8602 100.082C47.9272 100.945 44.0194 101.934 40.1368 103.05C36.5819 104.065 32.9767 105.232 30.0521 107.49C27.1276 109.748 24.9594 113.35 25.3376 117.029C25.5393 118.957 26.3965 120.758 27.5562 122.306C30.279 125.908 34.6154 128.039 39.0275 128.902C40.3637 129.155 41.7251 129.308 43.0865 129.384C44.574 127.151 45.3304 124.386 45.8598 121.697C45.0278 121.316 44.2211 120.885 43.4395 120.403C42.0024 119.515 40.5906 118.12 40.6914 116.445C40.7671 115.431 41.4226 114.517 42.2545 113.934C43.0865 113.35 44.0698 113.02 45.053 112.767C48.0028 112.006 51.0786 111.752 54.104 112.006C54.3309 112.031 54.5578 112.031 54.7595 111.98C54.8099 111.955 54.8856 111.93 54.936 111.904C55.0872 111.803 55.1881 111.625 55.2889 111.448C57.3311 107.845 59.348 104.268 61.3902 100.665C61.6171 100.26 61.8692 99.8029 61.8692 99.3209C61.9196 97.4436 58.6673 98.712 57.684 98.8896Z" fill="#495382"/>
<path d="M60.7347 134.864C60.9868 134.483 60.6339 133.976 60.4322 133.672C60.1297 133.24 59.7767 132.809 59.4742 132.352C59.3481 132.149 59.222 131.972 59.096 131.769C60.1297 132.454 61.239 133.012 62.3987 133.443C63.0542 133.697 64.466 133.596 64.0122 132.505C63.8862 132.2 63.6089 131.972 63.3567 131.769C62.55 131.135 61.6928 130.577 60.7852 130.12C62.197 130.5 63.6341 130.881 65.0711 130.83C65.4745 130.805 65.9283 130.729 66.1048 130.348C66.2309 130.069 66.13 129.739 65.9283 129.511C65.7266 129.283 65.4493 129.156 65.172 129.029C64.0374 128.547 62.8273 128.192 61.6423 127.837C62.7012 127.862 63.7853 127.887 64.819 127.71C65.298 127.634 65.8527 127.405 65.9283 126.923C65.9787 126.619 65.8023 126.314 65.5754 126.137C65.3485 125.959 65.0459 125.858 64.7434 125.807C63.9366 125.629 63.1046 125.579 62.2726 125.553C60.9616 125.503 59.6254 125.452 58.3144 125.452C59.1968 124.919 60.054 124.386 60.9364 123.854C61.3398 123.6 61.8188 123.245 61.718 122.763C61.5163 121.646 60.0288 122.23 59.3733 122.509C58.0119 123.067 56.5748 123.422 55.3395 124.209C54.5831 124.691 53.8015 125.173 53.3477 125.959C52.9444 126.67 52.8939 127.558 53.146 128.319C53.3729 129.004 53.8015 129.613 54.2554 130.196C55.6924 132.048 57.4824 133.773 59.6002 134.813C59.9027 134.965 60.4574 135.27 60.7347 134.864Z" fill="#A86A39"/>
<path d="M92.2744 56.2441C90.1062 53.5803 87.4338 51.2971 84.484 49.5719C71.9539 42.2909 55.2638 45.3352 45.7086 56.1426C44.8514 57.1067 44.0446 58.1468 43.3387 59.2377C39.0779 65.5547 37.3131 73.5207 38.4728 81.0555C39.1536 85.4444 40.8679 89.7825 43.9186 92.9791C47.3725 96.6069 52.2636 98.5096 57.1294 99.6513C63.4071 101.123 70.0126 101.529 76.3155 100.133C82.6184 98.738 88.5935 95.4907 92.7282 90.4929C97.7705 84.4042 99.7118 75.9055 98.0731 68.1678C97.1403 63.7789 95.0981 59.6944 92.2744 56.2441Z" fill="#AB7051"/>
<path d="M64.3398 76.8443C63.407 76.9711 62.4994 77.58 62.096 78.6455C61.7178 79.6349 61.743 80.7511 61.7682 81.8167C61.7682 82.0196 61.7934 82.2226 61.8943 82.4002C61.9951 82.5777 62.2472 82.6792 62.3985 82.5524C62.5498 82.4509 62.575 82.2479 62.575 82.0704C62.6002 81.2332 62.6002 80.396 62.8775 79.6349C63.1801 78.8738 63.8608 78.1888 64.6928 78.1888C65.3735 78.1888 65.9785 78.6709 66.3315 79.2544C66.6845 79.8378 66.8105 80.5228 66.9618 81.1824C66.987 81.36 67.0374 81.5376 67.1635 81.6644C67.2895 81.7913 67.5417 81.7913 67.6173 81.6391C67.6425 81.5883 67.6425 81.5376 67.6425 81.4869C67.7181 80.396 67.6425 79.2797 67.1131 78.3157C66.4828 77.1994 65.3735 76.7174 64.3398 76.8443Z" fill="#291410"/>
<path d="M61.3397 76.0577C61.0372 76.0323 60.6086 76.1338 60.4573 76.1846C59.9531 76.3368 59.4741 76.6666 59.1715 77.1232C59.0959 77.2501 59.0203 77.3769 59.0203 77.5291C59.0203 77.6814 59.0959 77.8336 59.222 77.8843C59.4236 77.9604 59.6253 77.7575 59.7766 77.5799C60.1044 77.2247 60.533 76.971 61.012 76.8442C61.138 76.8188 61.2893 76.7934 61.4154 76.7173C61.5414 76.6412 61.6423 76.5397 61.6675 76.3875C61.6927 76.1592 61.5414 76.0831 61.3397 76.0577Z" fill="#291410"/>
<path d="M84.8117 75.3979C84.5343 76.4381 84.736 77.5543 85.0638 78.5945C85.089 78.6452 85.089 78.696 85.1394 78.7213C85.2403 78.8482 85.4924 78.7974 85.5932 78.6452C85.6941 78.493 85.6688 78.3154 85.6688 78.1378C85.6436 77.4529 85.6184 76.7679 85.7949 76.1083C85.9966 75.4487 86.4756 74.8398 87.1059 74.6876C87.8875 74.4846 88.7447 74.9667 89.2237 75.6516C89.7027 76.3366 89.9044 77.1484 90.1061 77.9349C90.1565 78.1125 90.2321 78.2901 90.3834 78.3662C90.5599 78.4423 90.7868 78.2647 90.8372 78.0871C90.9128 77.9095 90.8624 77.6812 90.812 77.5036C90.5851 76.4635 90.3582 75.3726 89.7279 74.51C89.0724 73.5713 88.0639 73.1908 87.1059 73.3176C86.0974 73.4445 85.1394 74.1548 84.8117 75.3979Z" fill="#291410"/>
<path d="M89.854 71.7956C90.1566 71.6941 90.5852 71.6941 90.7364 71.6941C91.2659 71.7195 91.7953 71.9224 92.1987 72.303C92.2995 72.4044 92.4004 72.5059 92.4508 72.6581C92.5012 72.785 92.4508 72.9626 92.3248 73.0387C92.1483 73.1655 91.8962 73.0133 91.7197 72.8865C91.3163 72.6074 90.8373 72.4805 90.333 72.4552C90.1818 72.4552 90.0557 72.4552 89.9045 72.4298C89.7784 72.4044 89.6271 72.303 89.5767 72.1761C89.5515 71.9985 89.6775 71.8717 89.854 71.7956Z" fill="#291410"/>
<path d="M60.9867 88.7423C59.474 88.4378 57.7848 88.9706 56.8016 90.2137C55.9444 91.2792 55.667 92.776 56.0704 94.0698C56.4738 95.3637 57.5327 96.4546 58.8185 96.8605C59.5244 97.0888 60.2808 97.1142 60.9867 96.8858C61.7935 96.6322 62.4994 96.0487 62.9784 95.3383C63.4574 94.628 63.7095 93.7908 63.7852 92.9282C63.9112 91.6851 63.6087 90.3152 62.6507 89.5287C62.1464 89.1228 61.5918 88.8691 60.9867 88.7423Z" fill="#9F5D3A"/>
<path d="M87.4588 83.8967C86.8789 84.6832 86.9041 85.7994 87.2319 86.7127C87.4588 87.347 87.8118 87.9559 88.316 88.4125C88.8202 88.8692 89.4505 89.1736 90.1312 89.199C90.7111 89.2243 91.2909 89.0721 91.77 88.7677C92.6776 88.2095 93.3079 87.1948 93.3583 86.1039C93.4087 85.0384 92.9045 83.9475 92.0725 83.2879C91.0893 82.5268 89.6774 82.4253 88.5933 82.9581C88.1647 83.161 87.7613 83.4908 87.4588 83.8967Z" fill="#9F5D3A"/>
<path d="M79.2904 80.4974C79.2652 80.4213 79.24 80.3705 79.2148 80.3198C78.7357 79.5841 78.4332 80.7257 78.2567 81.0301C77.8281 81.842 76.9205 82.3747 76.0129 82.3747C75.8616 82.3747 75.7103 82.3747 75.5591 82.4255C75.4078 82.4762 75.3069 82.6284 75.3574 82.7806C75.4078 82.9328 75.559 82.9836 75.7103 83.009C76.8448 83.2373 78.0802 82.806 78.8366 81.9181C79.0887 81.6136 79.2652 81.2838 79.3156 80.9033C79.3156 80.7764 79.3156 80.6242 79.2904 80.4974Z" fill="#291410"/>
<path d="M81.4585 86.8904C81.3324 86.9919 81.2568 87.1695 81.1812 87.3217C80.5004 89.0215 79.0382 90.3914 77.2986 90.9495C75.559 91.533 73.5925 91.3047 72.0294 90.3407C71.7772 90.1884 71.2982 89.7825 70.9705 89.8079C70.5167 89.8586 70.6679 90.2899 70.92 90.569C72.3571 92.1419 74.6514 92.8015 76.7439 92.3956C78.8365 91.9897 80.6517 90.5182 81.6098 88.6155C81.8115 88.2096 82.0131 87.753 81.9879 87.271C81.9879 87.068 81.9375 86.8397 81.761 86.7889C81.6602 86.7382 81.5341 86.7889 81.4585 86.8904Z" fill="#291410"/>
<path d="M45.3304 47.9229C45.2547 47.517 45.1287 47.1111 44.9774 46.7305C44.574 45.6904 44.1202 44.6756 43.5908 43.7116C40.7166 38.3586 35.9264 34.0965 30.3547 31.7372C24.5812 29.2763 16.4883 28.5406 10.74 31.4074C9.37862 32.0924 8.04241 33.1071 7.53818 34.5532C6.88267 36.3544 7.76508 38.5869 9.47947 39.4241C6.42886 40.5911 3.75644 42.6968 1.89078 45.3859C0.857102 46.8827 0.0503307 48.5825 -9.25008e-05 50.4091C-0.0505157 52.2357 0.806679 54.1384 2.39501 54.9756C3.83207 55.7367 5.59688 55.5591 7.18521 55.2039C10.0341 54.6204 12.7822 53.6564 15.379 52.3372C14.6983 53.5042 13.9923 54.8741 14.4714 56.1426C15.026 57.5887 16.9421 58.0707 18.4296 57.6901C19.9423 57.3096 21.2029 56.3456 22.6147 55.6859C22.0096 56.3963 21.8584 57.4618 22.2113 58.3244C22.5643 59.1869 23.4215 59.8212 24.3543 59.9226C25.3124 60.0241 26.2704 59.5421 27.0015 58.8825C27.7327 58.2483 28.2873 57.4364 28.9176 56.6754C32.0438 52.946 36.9097 50.7389 41.7503 50.8404C42.8596 50.8657 44.1202 50.9419 44.8766 50.13C45.4312 49.5465 45.4816 48.7347 45.3304 47.9229Z" fill="#D8C19E"/>
<path d="M48.1794 44.8785C47.3474 43.7623 45.7338 43.128 44.1959 43.0519C41.9521 42.9505 39.7083 44.0413 38.1703 45.665C36.5568 47.3647 35.6492 49.7495 35.75 52.0835C35.7752 52.3879 35.8005 52.7177 35.9013 52.9968C37.1367 55.9396 41.9269 54.7726 43.7925 53.4534C45.2548 52.4133 46.6667 51.018 47.6499 49.5212C48.5575 48.1512 49.2635 46.2992 48.1794 44.8785Z" fill="#FFC152"/>
<path d="M98.6277 47.7706C97.8965 47.2632 97.0898 46.8573 96.283 46.4768C82.7443 40.1344 66.1047 37.5213 51.8854 43.128C47.675 44.8024 43.7168 47.1617 40.3637 50.2314C33.254 56.726 28.968 66.5694 30.1277 76.1844C31.2875 85.774 38.2711 94.6787 47.5994 97.0635C48.8347 97.3679 50.5743 97.2664 50.776 96.0233C50.8769 95.5159 50.6248 95.0085 50.3979 94.5519C47.8515 89.275 45.5824 83.643 45.6833 77.7827C45.7841 71.9223 48.8095 65.7829 54.2048 63.5758C54.6838 63.3728 55.2133 63.2206 55.7427 63.2967C56.373 63.4236 56.852 63.8802 57.3058 64.3369C58.9194 65.859 60.9867 67.2036 63.1801 66.9245C65.3736 66.6455 67.214 63.9563 65.9786 62.1297C71.4243 65.377 77.2482 68.6243 83.5763 68.5989C85.3916 68.5989 87.5093 68.0408 88.1396 66.341C88.3918 65.6561 88.3413 64.9204 88.2153 64.21C87.7362 61.9014 86.2236 59.9987 84.7613 58.1721C86.0723 58.578 87.2068 59.3898 88.5178 59.7704C89.8288 60.1509 91.4676 59.9733 92.1987 58.8317C93.2072 57.208 91.7449 55.2292 90.4087 53.8846C92.8542 54.6204 95.3754 55.3561 97.8965 54.9502C98.7789 54.8233 99.6613 54.5189 100.292 53.8593C101.426 52.6669 101.224 50.6627 100.266 49.3181C99.7874 48.6839 99.2327 48.1765 98.6277 47.7706Z" fill="#D8C19E"/>
<path d="M79.3158 74.7385C79.2906 74.6877 79.2402 74.637 79.215 74.5862C77.0216 72.1254 72.9877 72.8611 71.6515 75.8293C71.5759 76.0069 71.5002 76.1845 71.5255 76.3621C71.5507 76.5397 71.6515 76.7426 71.828 76.768C72.0801 76.8187 72.307 76.5904 72.4583 76.3621C73.1894 75.4742 74.2231 74.8399 75.3324 74.6116C76.4669 74.3833 77.6519 74.5862 78.6603 75.1444C78.8872 75.2712 79.1898 75.3981 79.341 75.1951C79.4671 75.0936 79.4167 74.8907 79.3158 74.7385Z" fill="white"/>
<path d="M62.9787 70.4511C60.1802 70.4764 57.4574 71.5419 55.7178 73.9267C54.1294 76.1084 53.6252 79.0513 54.432 81.6136C54.9866 83.3895 56.1212 84.9877 57.6086 86.104C60.1802 88.0321 63.7351 88.5141 66.71 87.3217C69.685 86.1294 71.9541 83.288 72.4583 80.1168C72.8112 77.9858 72.3826 75.6772 71.0969 73.952C70.1388 72.6836 68.7774 71.7703 67.2899 71.2121C65.9285 70.7047 64.441 70.4257 62.9787 70.4511ZM65.9537 86.3577C65.1217 86.6368 64.2393 86.789 63.3821 86.7636C60.8862 86.7129 58.4406 85.3429 57.1296 83.1865C55.8438 81.0301 55.743 78.1634 56.9784 75.9816C59.323 71.7703 66.0293 71.2629 69.4077 74.4848C70.5926 75.6264 71.2733 77.2501 71.3238 78.8991C71.3742 80.5481 70.8195 82.1971 69.8363 83.5163C68.8782 84.8355 67.4916 85.8249 65.9537 86.3577Z" fill="white"/>
<path d="M87.081 64.5145C84.2825 64.5399 81.5597 65.6054 79.8201 67.9901C78.2317 70.1719 77.7275 73.1148 78.5343 75.6771C79.0889 77.453 80.2235 79.0512 81.7109 80.1675C84.2825 82.0956 87.8374 82.5776 90.8123 81.3852C93.7873 80.1929 96.0563 77.3515 96.5606 74.1803C96.9135 72.0493 96.4849 69.7406 95.1991 68.0155C94.2411 66.747 92.8797 65.8337 91.3922 65.2756C90.0308 64.7682 88.5433 64.4892 87.081 64.5145ZM90.056 80.4212C89.224 80.7003 88.3416 80.8525 87.4844 80.8271C84.9884 80.7764 82.5429 79.4064 81.2319 77.25C79.9461 75.0936 79.8453 72.2269 81.0806 70.0451C83.4253 65.8337 90.1316 65.3264 93.51 68.5483C94.6949 69.6899 95.3756 71.3136 95.4261 72.9626C95.4765 74.6116 94.9218 76.2606 93.9386 77.5798C92.9805 78.899 91.5939 79.8884 90.056 80.4212Z" fill="white"/>
<path d="M55.2134 76.5396C54.7092 76.4888 53.9024 76.6918 53.5747 76.7425C52.3393 76.9708 51.1039 77.1992 49.8938 77.4275C47.4482 77.9095 45.0027 78.493 42.6328 79.2795C41.1958 79.7615 39.7083 80.3957 38.8259 81.6388C38.0191 82.8058 37.8931 84.3787 38.3973 85.6979C38.9267 87.0171 40.0613 88.0573 41.3723 88.5393C41.6496 88.6408 42.0782 88.6662 42.1538 88.3617C42.2294 88.0573 41.8261 87.8543 41.5235 87.7782C40.5907 87.4992 39.7839 86.8142 39.3805 85.9263C38.9772 85.0383 39.0276 83.9474 39.4814 83.1103C40.2882 81.6642 42.053 81.1314 43.6413 80.7509C47.0197 79.9137 50.4232 79.0765 53.8016 78.2139C54.4066 78.0617 55.0369 77.8841 55.3899 77.3768C55.8185 76.8186 55.6168 76.5903 55.2134 76.5396Z" fill="white"/>
<path d="M134.428 42.0879C134.201 41.8342 133.848 41.7835 133.52 41.7327C125.175 40.515 116.477 41.7074 108.737 45.1576C107.653 45.6396 107.653 46.0202 107.981 47.035C108.309 48.0244 108.637 49.0391 109.015 50.0286C109.721 52.0074 110.502 53.9608 111.334 55.9143C112.998 59.7958 114.864 63.5758 116.881 67.2798C117.511 68.4214 118.141 69.563 118.797 70.6793C120.461 73.5207 122.226 76.3367 124.495 78.7214C124.848 79.1019 125.276 79.4825 125.806 79.4825C126.512 79.5079 127.016 78.8229 127.369 78.1887C128.604 75.9561 129.386 73.4699 130.066 71.0091C132.613 61.9268 134.151 52.5401 134.63 43.1027C134.655 42.7729 134.655 42.367 134.428 42.0879Z" fill="#FFC152"/>
<path d="M129.563 68.2698C130.269 67.1028 130.95 65.9358 131.656 64.7688C132.009 63.1706 132.361 61.5723 132.639 59.9486C132.462 60.2784 132.286 60.5829 132.084 60.9127C131.227 60.0247 130.37 59.1622 129.538 58.2996C130.471 56.7013 131.429 55.1284 132.362 53.5302C132.74 53.8853 133.118 54.2405 133.496 54.621C133.597 53.9614 133.673 53.2765 133.773 52.6169C133.597 52.4393 133.42 52.2617 133.219 52.0841C133.471 51.6528 133.723 51.2215 133.975 50.8156C134.126 49.4964 134.252 48.1772 134.353 46.858C133.546 48.1772 132.74 49.5218 131.933 50.8664C131.403 50.3336 130.849 49.8262 130.319 49.3188C129.613 48.6339 128.908 47.9743 128.202 47.3146C129.336 45.3866 130.496 43.4839 131.63 41.5558C131.05 41.505 130.471 41.4543 129.891 41.4036C128.882 42.9511 127.899 44.524 126.916 46.1223C125.63 44.9299 124.319 43.7376 123.008 42.5959C123.235 42.2154 123.462 41.8348 123.689 41.4543C122.428 41.5558 121.168 41.708 119.932 41.8856C120.285 42.2154 120.638 42.5452 120.991 42.9004C120.033 44.3718 119.1 45.8432 118.193 47.34C116.73 45.9701 115.243 44.6509 113.73 43.3063C113.15 43.4839 112.596 43.6614 112.016 43.8644C113.755 45.5134 115.52 47.1624 117.26 48.8368C116.579 49.9531 115.924 51.0693 115.268 52.1856C115.041 52.5661 114.839 52.9213 114.613 53.3018C112.419 51.1962 110.175 49.1159 107.906 47.0863C108.234 48.0757 108.562 49.0905 108.94 50.0799C108.99 50.2068 109.016 50.3082 109.066 50.4351C110.629 51.9065 112.167 53.3779 113.73 54.8494C113.175 55.8388 112.621 56.8028 112.066 57.7922C112.747 59.3398 113.478 60.8619 114.209 62.3587C114.965 63.0691 115.697 63.7541 116.453 64.4644C116.251 64.8196 116.075 65.2001 115.873 65.5553C116.1 65.9866 116.327 66.3925 116.554 66.8238C116.831 66.3417 117.134 65.8597 117.411 65.3777C118.823 66.7223 120.235 68.0669 121.647 69.3861C121.067 70.5023 120.487 71.5932 119.907 72.7095C120.083 72.9885 120.26 73.2676 120.411 73.5213C121.092 72.3797 121.747 71.2634 122.428 70.1218C123.462 71.0858 124.47 72.0499 125.504 73.0139C124.949 74.054 124.42 75.0942 123.865 76.109C123.638 76.5403 123.437 76.9462 123.21 77.3774C123.386 77.5804 123.537 77.7834 123.714 77.9609C124.571 76.5403 125.403 75.1196 126.26 73.6989C126.991 74.3839 127.723 75.0688 128.428 75.7538C128.529 75.5001 128.63 75.221 128.731 74.942C128.655 74.8659 128.555 74.7644 128.479 74.6883C127.899 74.0794 127.319 73.4706 126.739 72.8617C127.47 71.644 128.202 70.4009 128.933 69.1831C129.336 69.5637 129.739 69.9442 130.168 70.3501C130.269 70.0203 130.345 69.6651 130.445 69.3353C130.219 68.9548 129.891 68.5996 129.563 68.2698ZM131.101 52.3378C130.168 53.9107 129.26 55.509 128.378 57.1073C127.143 55.8388 125.882 54.5957 124.622 53.3526C125.529 51.8304 126.437 50.3082 127.344 48.7607C128.58 49.9531 129.84 51.1454 131.101 52.3378ZM127.597 58.4772C126.689 60.1262 125.781 61.7499 124.899 63.3989C123.613 62.0543 122.302 60.7351 120.991 59.4159C121.899 57.8937 122.806 56.3462 123.739 54.824C125.025 56.0417 126.311 57.2595 127.597 58.4772ZM122.226 43.9405C123.512 45.1582 124.773 46.3506 126.059 47.5683C125.378 48.6846 124.722 49.8009 124.067 50.9171C123.84 51.323 123.588 51.7289 123.361 52.1348C122.806 51.5767 122.226 51.044 121.672 50.4858C120.966 49.8009 120.26 49.1412 119.554 48.4816C120.436 46.9595 121.319 45.4627 122.226 43.9405ZM118.621 50.0038C119.907 51.2215 121.193 52.4393 122.479 53.657C121.596 55.2045 120.714 56.7521 119.857 58.2996C118.571 57.0058 117.26 55.7373 115.974 54.4688C116.856 52.972 117.739 51.4752 118.621 50.0038ZM113.276 58.9846C113.881 57.9698 114.486 56.955 115.092 55.9656C116.428 57.2341 117.764 58.4772 119.075 59.7457C118.47 60.8366 117.89 61.9021 117.31 62.993C115.949 61.6484 114.613 60.3038 113.276 58.9846ZM118.268 63.9824C118.899 62.9169 119.529 61.8513 120.159 60.7858C121.521 62.0543 122.857 63.3481 124.218 64.6166C123.588 65.7836 122.958 66.9506 122.327 68.143C120.991 66.7476 119.655 65.3523 118.268 63.9824ZM126.084 72.0245C125.126 71.0097 124.143 69.9949 123.159 68.9802C123.84 67.8385 124.521 66.6969 125.201 65.5299C126.159 66.4432 127.117 67.3311 128.076 68.2444C127.42 69.5129 126.739 70.7814 126.084 72.0245ZM128.605 67.2804C127.697 66.3164 126.79 65.3777 125.882 64.439C126.84 62.8154 127.798 61.2171 128.756 59.5935C129.639 60.4307 130.521 61.2678 131.429 62.105C130.471 63.8302 129.538 65.5553 128.605 67.2804Z" fill="#9F5D3A"/>
<path d="M135.815 36.405C135.739 32.4474 134.63 28.439 132.21 25.3186C129.134 21.3863 124.041 19.1538 119.1 19.5344C114.133 19.9149 109.444 22.807 106.796 27.0437C104.149 31.2804 103.569 36.7348 105.183 41.4789C105.107 41.276 103.216 42.8996 103.065 43.0518C102.51 43.7368 101.956 44.6247 102.006 45.5127C102.132 47.39 104.149 48.9375 105.964 48.5316C107.401 48.2018 108.738 46.9334 110.099 47.4408C110.78 47.6944 111.234 48.3541 111.788 48.8614C112.948 49.9016 114.688 50.2314 116.125 49.6479C117.461 49.1151 118.595 47.8974 120.032 47.872C121.243 47.872 122.276 48.7092 123.461 48.9375C124.823 49.2166 126.31 48.557 127.066 47.39C127.344 46.9587 127.52 46.4513 127.924 46.1469C128.957 45.3605 130.369 46.426 131.655 46.5021C132.916 46.5782 134.075 45.6395 134.504 44.4472C134.655 44.0412 134.731 43.5846 135.008 43.2802C135.689 42.5444 136.924 43.0772 137.907 42.9504C138.992 42.8235 139.849 41.7834 139.95 40.6925C140.05 39.6016 139.521 38.5107 138.714 37.775C137.933 37.0393 136.874 36.6334 135.815 36.405Z" fill="#645D33"/>
<path d="M134.378 26.1052C134.302 22.1476 133.193 18.1392 130.772 15.0188C127.697 11.0865 122.604 8.85401 117.662 9.23455C112.696 9.61509 108.006 12.5072 105.359 16.7439C102.712 20.9806 102.132 26.435 103.746 31.1791C103.67 30.9762 101.779 32.5998 101.628 32.752C101.073 33.437 100.518 34.3249 100.569 35.2129C100.695 37.0902 102.712 38.6378 104.527 38.2318C105.964 37.902 107.3 36.6336 108.662 37.141C109.343 37.3946 109.796 38.0543 110.351 38.5616C111.511 39.6018 113.25 39.9316 114.687 39.3481C116.024 38.8153 117.158 37.5976 118.595 37.5722C119.805 37.5722 120.839 38.4094 122.024 38.6378C123.385 38.9168 124.873 38.2572 125.629 37.0902C125.907 36.6589 126.083 36.1515 126.486 35.8471C127.52 35.0607 128.932 36.1262 130.218 36.2023C131.478 36.2784 132.638 35.3397 133.067 34.1474C133.218 33.7414 133.294 33.2848 133.571 32.9804C134.252 32.2446 135.487 32.7774 136.47 32.6506C137.554 32.5237 138.411 31.4836 138.512 30.3927C138.613 29.3018 138.084 28.2109 137.277 27.4752C136.495 26.7648 135.462 26.3336 134.378 26.1052Z" fill="#FFE4CC"/>
<path d="M133.117 16.896C133.041 12.9384 131.932 8.93 129.512 5.80956C126.436 1.87729 121.343 -0.35522 116.402 0.025322C111.435 0.405864 106.746 3.29798 104.099 7.53468C101.451 11.7714 100.871 17.2258 102.485 21.9699C102.409 21.7669 100.519 23.3906 100.367 23.5428C99.8126 24.2278 99.2579 25.1157 99.3084 26.0036C99.4344 27.881 101.451 29.4285 103.267 29.0226C104.704 28.6928 106.04 27.4243 107.401 27.9317C108.082 28.1854 108.536 28.845 109.09 29.3524C110.25 30.3926 111.99 30.7224 113.427 30.1389C114.763 29.6061 115.898 28.3884 117.335 28.363C118.545 28.363 119.578 29.2002 120.763 29.4285C122.125 29.7076 123.612 29.048 124.369 27.881C124.646 27.4497 124.823 26.9423 125.226 26.6379C126.26 25.8514 127.671 26.9169 128.957 26.9931C130.218 27.0692 131.378 26.1305 131.806 24.9381C131.957 24.5322 132.033 24.0756 132.31 23.7711C132.991 23.0354 134.226 23.5682 135.21 23.4413C136.294 23.3145 137.151 22.2743 137.252 21.1834C137.353 20.0926 136.823 19.0017 136.016 18.266C135.235 17.5556 134.176 17.1243 133.117 16.896Z" fill="#FFC152"/>
<path d="M112.393 11.3401C112.469 11.0103 112.368 10.5029 111.94 10.5029C111.561 10.5029 111.284 10.8581 111.082 11.1118C110.755 11.5177 110.452 11.949 110.301 12.4564C110.2 12.7608 110.2 13.1414 110.452 13.3189C110.654 13.4458 110.931 13.4204 111.133 13.2936C111.41 13.1414 111.612 12.8877 111.763 12.634C111.965 12.3042 112.166 11.949 112.293 11.5938C112.343 11.4923 112.368 11.4162 112.393 11.3401Z" fill="white"/>
<path d="M123.562 4.23666C123.562 3.90686 123.385 3.42484 122.957 3.50094C122.604 3.57705 122.402 3.98296 122.251 4.2874C122.024 4.74405 121.797 5.25144 121.747 5.75883C121.722 6.06326 121.797 6.4438 122.074 6.57065C122.301 6.67213 122.554 6.57065 122.73 6.39306C122.957 6.19011 123.108 5.91104 123.209 5.60661C123.36 5.25144 123.461 4.8709 123.512 4.49035C123.562 4.41425 123.562 4.33814 123.562 4.23666Z" fill="white"/>
<path d="M119.251 3.09506C119.377 2.76526 119.352 2.25787 118.923 2.20713C118.57 2.15639 118.242 2.48619 117.99 2.71452C117.612 3.06969 117.259 3.4756 117.032 3.93225C116.906 4.21132 116.856 4.59186 117.083 4.79482C117.259 4.94703 117.536 4.94703 117.763 4.87092C118.041 4.76945 118.293 4.54112 118.494 4.3128C118.747 4.00836 118.974 3.70393 119.15 3.34876C119.2 3.27265 119.226 3.17117 119.251 3.09506Z" fill="white"/>
<path d="M106.847 11.6699C106.594 11.4416 106.115 11.264 105.889 11.6446C105.687 11.949 105.889 12.3803 105.989 12.7101C106.166 13.1921 106.393 13.6741 106.771 14.0547C106.973 14.283 107.3 14.4859 107.578 14.3337C107.805 14.2322 107.88 13.9786 107.88 13.7249C107.88 13.4204 107.779 13.116 107.628 12.8369C107.452 12.4818 107.25 12.152 106.998 11.8475C106.973 11.7968 106.897 11.7207 106.847 11.6699Z" fill="white"/>
<path d="M104.679 16.7945C104.351 16.7438 103.847 16.896 103.872 17.3273C103.897 17.7078 104.3 17.9362 104.552 18.1391C104.981 18.4182 105.435 18.6972 105.964 18.7987C106.267 18.8495 106.645 18.8241 106.796 18.5704C106.922 18.3674 106.847 18.0884 106.695 17.8854C106.519 17.6317 106.267 17.4541 105.99 17.3019C105.637 17.1243 105.284 16.9721 104.905 16.8706C104.855 16.8199 104.779 16.8199 104.679 16.7945Z" fill="white"/>
<path d="M117.385 8.2452C117.486 7.91539 117.41 7.408 116.982 7.38263C116.604 7.35727 116.326 7.71244 116.099 7.96613C115.746 8.34667 115.444 8.77795 115.267 9.28534C115.167 9.58978 115.141 9.94495 115.393 10.1479C115.595 10.3001 115.872 10.2494 116.074 10.1479C116.352 9.99569 116.553 9.76736 116.73 9.51367C116.957 9.20924 117.133 8.85406 117.284 8.49889C117.335 8.39741 117.36 8.3213 117.385 8.2452Z" fill="white"/>
<path d="M113.024 15.8052C112.948 15.4754 112.645 15.0695 112.267 15.2471C111.939 15.3993 111.839 15.8559 111.763 16.1858C111.637 16.6931 111.561 17.2259 111.637 17.7333C111.687 18.0377 111.839 18.3929 112.141 18.4183C112.368 18.4436 112.595 18.2914 112.746 18.0885C112.923 17.8348 112.998 17.5303 113.024 17.2259C113.074 16.8454 113.074 16.4394 113.049 16.0589C113.074 15.9828 113.049 15.9067 113.024 15.8052Z" fill="white"/>
<path d="M122.125 11.3909C122.049 11.0611 121.721 10.6552 121.343 10.8582C121.015 11.0104 120.94 11.4924 120.864 11.7968C120.763 12.3042 120.688 12.837 120.789 13.3698C120.839 13.6742 121.016 14.004 121.318 14.0547C121.545 14.0801 121.772 13.9025 121.898 13.7249C122.074 13.4712 122.125 13.1414 122.15 12.837C122.2 12.4565 122.175 12.0505 122.15 11.67C122.175 11.5432 122.15 11.467 122.125 11.3909Z" fill="white"/>
<path d="M117.688 13.9785C117.41 13.7756 116.906 13.6995 116.755 14.1054C116.629 14.4606 116.881 14.8411 117.032 15.1202C117.284 15.5768 117.612 16.0081 118.015 16.3379C118.268 16.5155 118.621 16.6677 118.873 16.4901C119.074 16.3633 119.125 16.0842 119.074 15.8305C119.024 15.5261 118.873 15.247 118.671 14.9933C118.444 14.6889 118.167 14.3844 117.889 14.1308C117.814 14.08 117.738 14.0293 117.688 13.9785Z" fill="white"/>
<path d="M116.78 18.5959C116.553 18.3422 116.074 18.1646 115.822 18.5198C115.62 18.8242 115.772 19.2555 115.872 19.5853C116.024 20.0927 116.225 20.5747 116.578 20.9806C116.78 21.2089 117.083 21.4373 117.385 21.3104C117.612 21.2089 117.713 20.9552 117.738 20.7269C117.763 20.4225 117.663 20.1181 117.536 19.839C117.385 19.4838 117.183 19.1287 116.957 18.8242C116.906 18.7481 116.856 18.672 116.78 18.5959Z" fill="white"/>
<path d="M108.99 5.27677C108.687 5.12455 108.183 5.12455 108.082 5.53047C108.006 5.88564 108.309 6.24081 108.511 6.49451C108.838 6.90042 109.191 7.30633 109.67 7.56002C109.948 7.71224 110.301 7.78835 110.528 7.58539C110.704 7.43318 110.704 7.12874 110.654 6.90042C110.553 6.59598 110.351 6.36766 110.149 6.13933C109.872 5.86027 109.569 5.60657 109.242 5.40362C109.141 5.37825 109.065 5.32751 108.99 5.27677Z" fill="white"/>
<path d="M127.243 8.95551C127.243 8.62571 127.016 8.14369 126.587 8.27053C126.234 8.37201 126.058 8.80329 125.932 9.10773C125.73 9.58975 125.554 10.0971 125.529 10.6299C125.529 10.9343 125.604 11.3149 125.907 11.4163C126.134 11.4925 126.386 11.3656 126.562 11.2134C126.789 10.9851 126.915 10.706 127.016 10.4016C127.142 10.021 127.218 9.64048 127.243 9.25994C127.243 9.1331 127.243 9.05699 127.243 8.95551Z" fill="white"/>
<path d="M130.218 12.8624C130.117 12.5326 129.789 12.152 129.411 12.355C129.083 12.5326 129.033 12.9892 128.983 13.319C128.907 13.8264 128.857 14.3592 128.957 14.8919C129.033 15.1963 129.209 15.5262 129.512 15.5515C129.739 15.5769 129.966 15.3993 130.092 15.1963C130.243 14.9427 130.294 14.6128 130.319 14.3084C130.344 13.9279 130.319 13.522 130.268 13.1414C130.243 13.0146 130.218 12.9385 130.218 12.8624Z" fill="white"/>
<path d="M125.176 14.3338C124.873 14.1816 124.369 14.1816 124.268 14.6128C124.192 14.968 124.495 15.3232 124.697 15.5769C125.024 15.9828 125.403 16.3633 125.856 16.617C126.134 16.7692 126.487 16.8453 126.714 16.6424C126.89 16.4648 126.89 16.1857 126.814 15.9574C126.714 15.653 126.512 15.4247 126.31 15.1963C126.033 14.9173 125.73 14.6636 125.403 14.4606C125.352 14.4099 125.276 14.3591 125.176 14.3338Z" fill="white"/>
<path d="M113.679 3.24737C113.427 3.01905 112.948 2.86683 112.721 3.222C112.544 3.55181 112.721 3.95772 112.847 4.28752C113.049 4.76954 113.276 5.25156 113.654 5.6321C113.881 5.86043 114.183 6.03802 114.461 5.91117C114.687 5.80969 114.763 5.53063 114.763 5.3023C114.763 4.99787 114.637 4.69343 114.511 4.41437C114.334 4.0592 114.108 3.75476 113.855 3.45033C113.805 3.37422 113.755 3.29811 113.679 3.24737Z" fill="white"/>
<path d="M117.309 30.9507C117.385 30.6209 117.284 30.1135 116.856 30.1135C116.477 30.1135 116.2 30.4687 115.998 30.7224C115.671 31.1283 115.368 31.5596 115.217 32.067C115.116 32.3714 115.116 32.752 115.368 32.9295C115.57 33.0564 115.847 33.031 116.049 32.9042C116.326 32.752 116.528 32.4983 116.679 32.2446C116.881 31.9148 117.082 31.5596 117.209 31.2044C117.259 31.1029 117.284 31.0268 117.309 30.9507Z" fill="white"/>
<path d="M109.544 31.0774C109.292 30.8491 108.813 30.6715 108.586 31.052C108.385 31.3565 108.586 31.7878 108.687 32.1176C108.864 32.5996 109.091 33.0816 109.469 33.4621C109.67 33.6905 109.998 33.8934 110.275 33.7412C110.502 33.6397 110.578 33.386 110.578 33.1323C110.578 32.8279 110.477 32.5235 110.326 32.2444C110.149 31.8892 109.948 31.5594 109.696 31.255C109.645 31.2043 109.595 31.1535 109.544 31.0774Z" fill="white"/>
<path d="M105.637 33.9696C105.309 33.9188 104.805 34.0711 104.83 34.5023C104.855 34.8829 105.258 35.1112 105.51 35.3142C105.939 35.5932 106.393 35.8723 106.922 35.9738C107.225 36.0245 107.603 35.9991 107.754 35.7454C107.88 35.5425 107.805 35.2634 107.653 35.0605C107.477 34.8068 107.225 34.6292 106.948 34.477C106.595 34.2994 106.242 34.1472 105.863 34.0457C105.813 33.9949 105.712 33.9696 105.637 33.9696Z" fill="white"/>
<path d="M114.158 35.2127C114.082 34.8829 113.78 34.477 113.402 34.6546C113.074 34.8068 112.973 35.2634 112.897 35.5932C112.771 36.1006 112.696 36.6334 112.771 37.1408C112.822 37.4452 112.973 37.8004 113.276 37.8257C113.503 37.8511 113.729 37.6989 113.881 37.4959C114.057 37.2422 114.133 36.9378 114.158 36.6334C114.208 36.2528 114.208 35.8469 114.183 35.4664C114.183 35.3903 114.183 35.2888 114.158 35.2127Z" fill="white"/>
<path d="M125.73 31.4835C125.655 31.1537 125.327 30.7477 124.949 30.9507C124.621 31.1029 124.545 31.5849 124.47 31.8894C124.369 32.3968 124.293 32.9295 124.394 33.4623C124.444 33.7667 124.621 34.0965 124.924 34.1473C125.15 34.1726 125.377 33.995 125.503 33.8175C125.68 33.5638 125.73 33.234 125.755 32.9295C125.806 32.549 125.781 32.1431 125.755 31.7625C125.755 31.661 125.73 31.5849 125.73 31.4835Z" fill="white"/>
<path d="M120.36 33.4114C120.083 33.2084 119.579 33.1323 119.427 33.5382C119.301 33.8934 119.553 34.274 119.705 34.553C119.957 35.0097 120.284 35.441 120.688 35.7708C120.94 35.9483 121.293 36.1006 121.545 35.923C121.747 35.7961 121.797 35.5171 121.747 35.2634C121.696 34.9589 121.545 34.6799 121.343 34.4262C121.116 34.1217 120.839 33.8173 120.562 33.5636C120.511 33.5129 120.436 33.4621 120.36 33.4114Z" fill="white"/>
<path d="M129.94 28.3884C129.94 28.0586 129.714 27.5765 129.285 27.7034C128.932 27.8049 128.756 28.2362 128.629 28.5406C128.428 29.0226 128.251 29.53 128.226 30.0628C128.226 30.3672 128.302 30.7477 128.604 30.8492C128.831 30.9253 129.083 30.7985 129.26 30.6463C129.487 30.4179 129.613 30.1389 129.714 29.8344C129.84 29.4539 129.915 29.0733 129.94 28.6928C129.915 28.566 129.94 28.4898 129.94 28.3884Z" fill="white"/>
<path d="M133.546 29.2002C133.445 28.8704 133.117 28.4899 132.739 28.6929C132.411 28.8704 132.361 29.3271 132.31 29.6569C132.235 30.1643 132.184 30.697 132.285 31.2298C132.361 31.5342 132.537 31.864 132.84 31.8894C133.067 31.9148 133.294 31.7372 133.42 31.5342C133.571 31.2805 133.621 30.9507 133.647 30.6463C133.672 30.2658 133.647 29.8599 133.596 29.4793C133.596 29.3778 133.571 29.3017 133.546 29.2002Z" fill="white"/>
<path d="M118.696 40.8702C118.772 40.5403 118.671 40.033 118.242 40.033C117.864 40.033 117.587 40.3881 117.385 40.6418C117.057 41.0477 116.755 41.479 116.604 41.9864C116.503 42.2908 116.503 42.6714 116.755 42.849C116.956 42.9758 117.234 42.9504 117.436 42.8236C117.713 42.6714 117.915 42.4177 118.066 42.164C118.267 41.8342 118.469 41.479 118.595 41.1238C118.646 41.0477 118.671 40.9716 118.696 40.8702Z" fill="white"/>
<path d="M110.906 41.0222C110.654 40.7939 110.175 40.6163 109.948 40.9969C109.746 41.3013 109.948 41.7326 110.048 42.0624C110.225 42.5444 110.452 43.0264 110.83 43.407C111.032 43.6353 111.359 43.8382 111.637 43.686C111.864 43.5845 111.939 43.3309 111.939 43.0772C111.939 42.7727 111.838 42.4683 111.687 42.1892C111.511 41.8341 111.309 41.5042 111.057 41.1998C111.032 41.1491 110.956 41.073 110.906 41.0222Z" fill="white"/>
<path d="M106.998 43.889C106.67 43.8383 106.166 43.9905 106.191 44.4218C106.216 44.8023 106.62 45.0306 106.872 45.2336C107.3 45.5127 107.754 45.7917 108.284 45.8932C108.586 45.9439 108.964 45.9186 109.116 45.6649C109.242 45.4619 109.166 45.1829 109.015 44.9799C108.838 44.7262 108.586 44.5486 108.309 44.3964C107.956 44.2188 107.603 44.0666 107.225 43.9651C107.174 43.9144 107.099 43.9144 106.998 43.889Z" fill="white"/>
<path d="M115.519 45.1321C115.444 44.8023 115.141 44.3964 114.763 44.574C114.435 44.7262 114.334 45.1829 114.259 45.5127C114.133 46.02 114.057 46.5528 114.133 47.0602C114.183 47.3646 114.334 47.7198 114.637 47.7452C114.864 47.7705 115.091 47.6183 115.242 47.4154C115.419 47.1617 115.494 46.8572 115.519 46.5528C115.57 46.1723 115.57 45.7663 115.545 45.3858C115.57 45.3097 115.545 45.2336 115.519 45.1321Z" fill="white"/>
<path d="M127.091 41.4283C127.016 41.0985 126.688 40.6926 126.31 40.8955C125.982 41.0477 125.906 41.5298 125.831 41.8342C125.73 42.3416 125.654 42.8744 125.755 43.4071C125.806 43.7115 125.982 44.0414 126.285 44.0921C126.512 44.1175 126.738 43.9399 126.864 43.7623C127.041 43.5086 127.091 43.1788 127.117 42.8744C127.167 42.4938 127.142 42.0879 127.117 41.7074C127.117 41.6059 127.117 41.5044 127.091 41.4283Z" fill="white"/>
<path d="M121.747 43.3562C121.469 43.1533 120.965 43.0772 120.814 43.4831C120.688 43.8382 120.94 44.2188 121.091 44.4978C121.343 44.9545 121.671 45.3858 122.074 45.7156C122.326 45.8932 122.679 46.0454 122.931 45.8678C123.133 45.7409 123.184 45.4619 123.133 45.2082C123.083 44.9038 122.931 44.6247 122.73 44.371C122.503 44.0666 122.226 43.7621 121.948 43.5084C121.873 43.4577 121.797 43.3816 121.747 43.3562Z" fill="white"/>
<path d="M131.302 38.3332C131.302 38.0034 131.075 37.5214 130.646 37.6482C130.293 37.7497 130.117 38.181 129.991 38.4854C129.789 38.9674 129.613 39.4748 129.587 40.0076C129.587 40.312 129.663 40.6926 129.966 40.794C130.192 40.8701 130.445 40.7433 130.621 40.5911C130.848 40.3627 130.974 40.0837 131.075 39.7793C131.201 39.3987 131.277 39.0182 131.302 38.6376C131.302 38.5108 131.302 38.4093 131.302 38.3332Z" fill="white"/>
<path d="M134.907 39.1451C134.806 38.8153 134.479 38.4347 134.1 38.6377C133.773 38.8153 133.722 39.2719 133.672 39.6017C133.596 40.1091 133.546 40.6419 133.647 41.1746C133.722 41.4791 133.899 41.8089 134.201 41.8342C134.428 41.8596 134.655 41.682 134.781 41.4791C134.932 41.2254 134.983 40.8956 135.008 40.5911C135.033 40.2106 135.008 39.8047 134.958 39.4241C134.958 39.2973 134.932 39.2212 134.907 39.1451Z" fill="white"/>
</g>
<defs>
<clipPath id="clip0">
<rect width="140" height="206" fill="white"/>
</clipPath>
</defs>
</svg>
