<svg width="729" height="894" viewBox="0 0 729 894" fill="none" xmlns="http://www.w3.org/2000/svg">
<g opacity="0.5" filter="url(#filter0_f)">
<ellipse cx="282" cy="446.959" rx="247" ry="246.959" fill="#F0E7DD"/>
</g>
<g clip-path="url(#clip0)">
<path d="M321.551 516.479C321.389 516.251 321.195 516.089 321 515.894C316.041 511.504 309.979 510.106 303.528 510.497C303.172 510.529 302.815 510.562 302.556 510.789C302.297 511.049 302.264 511.472 302.264 511.83C302.199 517.097 300.806 522.461 297.726 526.753C294.647 531.044 289.752 534.133 284.501 534.458C279.25 534.783 273.771 532.117 271.276 527.468C270.433 525.875 269.914 524.087 268.974 522.526C268.034 520.966 266.413 519.633 264.63 519.698C263.01 519.763 261.681 520.933 260.514 522.071C258.018 524.542 255.684 527.24 253.609 530.101C252.54 531.565 251.502 533.515 252.442 535.076C252.994 535.986 254.128 536.441 255.165 536.344C256.235 536.246 257.175 535.661 257.888 534.848C258.763 533.873 259.412 532.507 260.643 532.052C261.81 531.63 263.107 532.182 263.982 533.06C264.857 533.938 265.376 535.076 265.959 536.149C269.687 542.976 276.43 548.081 283.982 549.771C291.567 551.462 299.833 549.706 306.057 545.057C310.271 541.903 313.512 537.579 315.943 532.93C318.374 528.281 320.028 523.241 321.551 518.202C321.681 517.747 321.81 517.259 321.681 516.804C321.713 516.706 321.648 516.576 321.551 516.479Z" fill="#A86A39"/>
<path d="M276.559 532.67C274.355 531.467 272.475 529.711 271.308 527.468C270.465 525.875 269.947 524.087 269.006 522.526C268.066 520.966 266.446 519.633 264.663 519.698C263.042 519.763 261.713 520.933 260.546 522.071C258.05 524.542 255.716 527.24 253.642 530.101C252.572 531.565 251.535 533.515 252.475 535.076C253.026 535.986 254.16 536.441 255.198 536.344C256.267 536.246 257.207 535.661 257.921 534.848C258.796 533.873 259.444 532.507 260.676 532.052C261.843 531.63 263.139 532.182 264.015 533.06C264.89 533.938 265.408 535.076 265.992 536.149C267.126 538.197 268.52 540.115 270.141 541.806C271.567 538.327 273.739 535.206 276.559 532.67Z" fill="#495382"/>
<path d="M386.997 567.036C386.932 566.873 386.867 566.743 386.77 566.613C385.862 565.345 383.917 565.507 382.524 566.158C381.13 566.808 379.768 567.783 378.245 567.816C376.656 567.848 375.198 566.808 374.323 565.475C373.415 564.142 372.994 562.581 372.572 561.053C369.59 550.324 366.284 539.693 362.977 529.061C362.815 528.573 362.653 528.021 362.232 527.728C361.94 527.501 361.551 527.436 361.162 527.371C357.953 526.915 354.647 526.98 351.47 527.631C349.363 528.053 347.256 528.769 345.538 530.069C344.922 530.557 343.723 531.467 343.561 532.28C343.366 533.288 344.533 534.881 344.955 535.726C351.697 548.471 358.439 561.216 365.182 573.928C366.219 575.911 367.483 578.057 369.59 578.74C371.276 579.293 373.156 578.772 374.776 578.057C378.374 576.529 381.551 574.156 384.598 571.717C385.408 571.067 386.219 570.384 386.737 569.506C387.159 568.759 387.288 567.816 386.997 567.036Z" fill="#A86A39"/>
<path d="M386.737 569.539C387.159 568.791 387.321 567.816 386.997 567.036C386.932 566.873 386.867 566.743 386.77 566.613C385.862 565.345 383.917 565.507 382.524 566.158C381.13 566.808 379.768 567.783 378.245 567.816C376.656 567.848 375.198 566.808 374.323 565.475C373.415 564.142 372.994 562.581 372.572 561.053C372.151 559.493 371.665 557.932 371.243 556.371C367.71 559.363 363.658 561.476 359.217 562.679C361.195 566.45 363.204 570.222 365.182 573.961C366.219 575.944 367.483 578.09 369.59 578.772C371.276 579.325 373.156 578.805 374.776 578.09C378.374 576.562 381.551 574.188 384.598 571.75C385.408 571.1 386.219 570.449 386.737 569.539Z" fill="#495382"/>
<path d="M375.068 515.048C374.42 509.846 372.507 504.839 369.914 500.255C366.867 494.891 362.945 490.046 358.925 485.365C358.536 484.942 358.148 484.487 357.596 484.292C357.045 484.129 356.462 484.259 355.911 484.422C347.807 486.568 339.574 488.291 331.211 488.681C326.9 488.876 322.556 488.713 318.245 488.096C316.073 487.771 313.901 487.315 311.794 486.73C310.271 486.307 308.812 485.592 307.256 485.17C305.797 484.779 305.182 485.365 303.917 486.047C302.491 486.795 301.097 487.64 299.768 488.551C297.078 490.371 294.614 492.485 292.378 494.858C288.261 499.182 284.987 504.319 282.848 509.879C281.713 512.838 280.935 516.316 282.556 519.047C283.788 521.161 286.251 522.331 288.715 522.559C291.146 522.754 293.577 522.136 295.911 521.388C295.295 525.712 298.699 529.972 302.913 531.174C307.094 532.41 311.697 531.109 315.392 528.736C315.425 532.768 318.536 536.539 322.459 537.352C326.381 538.165 330.725 535.856 332.313 532.182C334.323 534.848 337.434 536.897 340.773 536.929C344.112 536.962 347.515 534.556 347.969 531.239C350.238 533.678 353.934 534.653 357.078 533.645C360.254 532.638 362.718 529.711 363.172 526.428C366.024 528.899 370.887 528.508 373.285 525.582C375.036 523.469 375.425 520.543 375.327 517.779C375.263 516.902 375.198 515.959 375.068 515.048Z" fill="#FFC152"/>
<path d="M311.794 487.803C311.6 486.177 309.331 488.356 309.006 488.778C304.112 495.346 300.157 502.694 298.147 510.627C297.985 511.212 297.856 511.83 298.05 512.382C298.245 512.935 298.925 513.39 299.444 513.13C299.768 512.968 299.93 512.642 300.092 512.317C303.917 504.417 307.742 496.549 311.567 488.648C311.697 488.421 311.827 488.128 311.794 487.803Z" fill="white"/>
<path d="M322.783 490.209C322.199 488.486 320.417 491.347 320.19 491.9C316.786 500.093 314.582 508.936 314.42 517.942C314.42 518.592 314.42 519.307 314.744 519.86C315.068 520.413 315.878 520.738 316.332 520.348C316.624 520.12 316.721 519.698 316.786 519.307C318.763 509.911 320.741 500.548 322.718 491.152C322.848 490.892 322.913 490.534 322.783 490.209Z" fill="white"/>
<path d="M348.844 488.681C352.669 496.581 356.494 504.449 360.319 512.35C360.481 512.675 360.643 513 360.968 513.163C361.519 513.423 362.167 513 362.361 512.415C362.556 511.862 362.426 511.212 362.264 510.659C360.254 502.726 356.3 495.378 351.405 488.811C351.081 488.388 348.812 486.21 348.617 487.836C348.585 488.128 348.715 488.421 348.844 488.681Z" fill="white"/>
<path d="M339.541 489.884C341.519 499.28 343.496 508.643 345.473 518.039C345.538 518.43 345.635 518.82 345.927 519.08C346.413 519.503 347.191 519.177 347.515 518.592C347.84 518.04 347.872 517.324 347.84 516.674C347.677 507.636 345.473 498.792 342.07 490.632C341.843 490.111 340.06 487.218 339.476 488.941C339.379 489.233 339.476 489.559 339.541 489.884Z" fill="white"/>
<path d="M328.812 491.282C329.493 501.816 330.173 512.317 330.822 522.851C330.854 523.274 330.887 523.729 331.146 524.022C331.6 524.509 332.442 524.249 332.896 523.697C333.318 523.111 333.447 522.331 333.545 521.616C334.744 511.7 333.707 501.751 331.405 492.387C331.243 491.769 329.817 488.421 328.942 490.241C328.78 490.534 328.812 490.924 328.812 491.282Z" fill="white"/>
<path d="M393.48 407.985C392.864 406.88 391.405 406.522 390.303 407.042C388.909 407.758 388.131 409.448 387.515 410.781C383.593 419.169 378.374 427.233 370.919 432.695C363.464 438.157 353.415 440.693 344.728 437.571C344.404 437.474 344.079 437.344 343.755 437.441C343.269 437.571 343.042 438.157 342.913 438.677C341.357 444.919 342.135 451.747 345.084 457.469C345.311 457.957 345.603 458.444 346.057 458.704C346.446 458.932 346.932 458.965 347.386 458.965C355.684 459.03 363.658 455.226 370.238 450.121C380.546 442.156 388.229 430.841 391.827 418.292C392.475 415.983 393.026 413.642 393.512 411.301C393.739 410.294 393.934 409.221 393.577 408.245C393.577 408.148 393.512 408.05 393.48 407.985Z" fill="#A86A39"/>
<path d="M390.303 422.843C387.872 421.575 385.603 420.08 383.464 418.389C380.125 423.916 376.041 428.923 370.887 432.695C363.431 438.157 353.383 440.693 344.695 437.571C344.371 437.474 344.047 437.344 343.723 437.441C343.237 437.571 343.01 438.157 342.88 438.677C341.324 444.919 342.102 451.747 345.052 457.469C345.279 457.957 345.571 458.444 346.024 458.704C346.413 458.932 346.9 458.965 347.353 458.965C355.652 459.03 363.626 455.226 370.206 450.121C379.282 443.131 386.284 433.54 390.303 422.843Z" fill="#495382"/>
<path d="M402.459 402.946C402.037 402.523 401.324 402.881 400.903 403.076C400.287 403.368 399.671 403.726 399.055 403.986C398.796 404.116 398.537 404.246 398.245 404.344C399.314 403.173 400.287 401.905 401.097 400.54C401.584 399.76 401.778 397.939 400.287 398.264C399.866 398.362 399.541 398.654 399.217 398.914C398.245 399.792 397.337 400.767 396.559 401.808C397.37 400.117 398.18 398.394 398.439 396.508C398.504 395.988 398.504 395.37 398.083 395.078C397.759 394.85 397.305 394.915 396.981 395.11C396.656 395.305 396.43 395.631 396.203 395.956C395.327 397.289 394.614 398.719 393.901 400.15C394.161 398.817 394.452 397.451 394.452 396.086C394.452 395.468 394.29 394.688 393.707 394.493C393.35 394.363 392.929 394.525 392.637 394.785C392.345 395.045 392.183 395.403 392.021 395.761C391.6 396.768 391.373 397.809 391.114 398.849C390.725 400.507 390.4 402.198 390.076 403.856C389.59 402.621 389.136 401.385 388.65 400.182C388.423 399.597 388.067 398.947 387.451 398.914C385.992 398.914 386.413 400.93 386.608 401.84C386.997 403.694 387.094 405.579 387.807 407.335C388.229 408.375 388.682 409.513 389.558 410.261C390.368 410.911 391.438 411.204 392.475 411.041C393.383 410.911 394.258 410.489 395.068 410.066C397.726 408.668 400.287 406.782 402.07 404.344C402.394 404.019 402.913 403.401 402.459 402.946Z" fill="#A86A39"/>
<path d="M359.379 485.592C359.833 483.999 359.639 482.276 359.412 480.65C357.434 466.702 353.642 453.015 347.937 440.14C347.418 438.937 346.835 437.702 345.895 436.824C343.107 434.158 338.212 436.759 335.068 437.344C330.887 438.124 326.575 438.384 322.329 438.189C320.806 438.124 319.12 438.027 317.856 438.872C317.207 439.327 316.721 439.977 316.267 440.66C308.164 452.527 303.561 466.768 303.172 481.138C303.139 482.796 303.139 484.519 303.853 486.047C304.922 488.421 307.386 489.786 309.784 490.794C316.041 493.363 322.848 494.208 329.59 494.11C336.332 493.98 343.01 492.907 349.655 491.672C351.567 491.314 353.545 490.924 355.295 490.079C357.045 489.234 358.634 487.803 359.314 485.95C359.314 485.787 359.347 485.69 359.379 485.592Z" fill="#495382"/>
<path d="M346.964 459.355C346.932 459.29 346.9 459.192 346.867 459.127C345.635 456.038 342.297 457.306 340.87 459.452C340.125 460.59 339.703 461.891 339.282 463.191C338.666 461.566 337.596 460.037 336.041 459.225C334.485 458.444 332.41 458.542 331.178 459.81C330.336 460.688 329.979 461.956 330.011 463.159C330.044 464.362 330.465 465.565 330.887 466.67C332.507 470.799 334.906 474.635 337.791 478.017C337.921 478.179 338.05 478.342 338.245 478.407C338.666 478.569 339.088 478.212 339.412 477.854C343.269 473.628 346.089 468.361 346.964 462.703C347.224 461.566 347.321 460.395 346.964 459.355Z" fill="white"/>
<path d="M311.405 458.477C311.47 458.444 311.567 458.412 311.632 458.379C311.827 458.249 311.956 458.022 312.086 457.794C314.712 453.177 317.305 448.593 319.93 443.976C320.222 443.456 320.546 442.871 320.546 442.253C320.579 439.88 316.43 441.473 315.165 441.733C312.669 442.188 310.173 442.708 307.677 443.261C302.621 444.366 297.596 445.634 292.605 447.065C288.034 448.365 283.399 449.861 279.639 452.755C275.878 455.648 273.091 460.265 273.577 464.979C273.836 467.45 274.938 469.759 276.43 471.742C279.93 476.359 285.506 479.09 291.178 480.195C296.851 481.3 302.718 480.943 308.488 480.39C310.044 480.228 311.859 479.902 312.572 478.504C312.864 477.919 312.929 477.236 312.702 476.619C312.216 475.221 310.595 474.603 309.169 474.18C304.922 472.88 300.579 471.677 296.818 469.303C294.971 468.165 293.156 466.377 293.285 464.231C293.383 462.931 294.225 461.761 295.295 461.013C296.365 460.265 297.629 459.842 298.893 459.517C302.686 458.542 306.64 458.217 310.53 458.542C310.854 458.542 311.146 458.542 311.405 458.477Z" fill="#A86A39"/>
<path d="M315.165 441.732C312.669 442.187 310.173 442.708 307.677 443.26C302.621 444.366 297.596 445.634 292.605 447.064C288.034 448.365 283.399 449.86 279.639 452.754C275.878 455.648 273.091 460.264 273.577 464.979C273.836 467.45 274.938 469.758 276.43 471.741C279.93 476.358 285.506 479.089 291.178 480.194C292.896 480.52 294.647 480.715 296.397 480.812C298.31 477.951 299.282 474.407 299.963 470.961C298.893 470.473 297.856 469.92 296.851 469.303C295.003 468.165 293.188 466.377 293.318 464.231C293.415 462.93 294.258 461.76 295.327 461.012C296.397 460.264 297.661 459.842 298.925 459.517C302.718 458.541 306.673 458.216 310.562 458.541C310.854 458.574 311.146 458.574 311.405 458.509C311.47 458.476 311.567 458.444 311.632 458.411C311.827 458.281 311.956 458.053 312.086 457.826C314.712 453.209 317.305 448.625 319.93 444.008C320.222 443.488 320.546 442.903 320.546 442.285C320.611 439.879 316.43 441.505 315.165 441.732Z" fill="#495382"/>
<path d="M319.088 487.835C319.412 487.348 318.958 486.698 318.699 486.307C318.31 485.755 317.856 485.202 317.467 484.617C317.305 484.357 317.143 484.129 316.981 483.869C318.31 484.747 319.736 485.462 321.227 486.015C322.07 486.34 323.885 486.21 323.301 484.812C323.139 484.422 322.783 484.129 322.459 483.869C321.421 483.056 320.319 482.341 319.152 481.756C320.968 482.243 322.815 482.731 324.663 482.666C325.182 482.633 325.765 482.536 325.992 482.048C326.154 481.691 326.024 481.268 325.765 480.975C325.506 480.683 325.149 480.52 324.793 480.358C323.334 479.74 321.778 479.285 320.254 478.83C321.616 478.862 323.01 478.895 324.339 478.667C324.955 478.569 325.668 478.277 325.765 477.659C325.83 477.269 325.603 476.879 325.311 476.651C325.019 476.424 324.63 476.294 324.241 476.229C323.204 476.001 322.135 475.936 321.065 475.903C319.379 475.838 317.661 475.773 315.976 475.773C317.11 475.091 318.212 474.408 319.347 473.725C319.865 473.4 320.481 472.945 320.352 472.327C320.092 470.897 318.18 471.644 317.337 472.002C315.587 472.717 313.739 473.172 312.151 474.18C311.178 474.798 310.173 475.416 309.59 476.424C309.071 477.334 309.006 478.472 309.331 479.447C309.622 480.325 310.173 481.105 310.757 481.853C312.605 484.227 314.906 486.437 317.629 487.77C318.018 487.966 318.731 488.356 319.088 487.835Z" fill="#A86A39"/>
<path d="M359.639 387.08C356.851 383.666 353.415 380.74 349.622 378.529C333.512 369.198 312.054 373.1 299.768 386.95C298.666 388.185 297.629 389.518 296.721 390.916C291.243 399.012 288.974 409.221 290.465 418.877C291.34 424.501 293.545 430.061 297.467 434.158C301.908 438.807 308.196 441.245 314.452 442.708C322.524 444.594 331.016 445.114 339.12 443.326C347.224 441.538 354.906 437.376 360.222 430.971C366.705 423.168 369.201 412.277 367.094 402.361C365.895 396.736 363.269 391.501 359.639 387.08Z" fill="#AB7051"/>
<path d="M323.723 413.48C322.524 413.642 321.357 414.423 320.838 415.788C320.352 417.056 320.384 418.487 320.417 419.852C320.417 420.112 320.449 420.372 320.579 420.6C320.708 420.827 321.032 420.958 321.227 420.795C321.421 420.665 321.454 420.405 321.454 420.177C321.486 419.104 321.486 418.031 321.843 417.056C322.232 416.081 323.107 415.203 324.177 415.203C325.052 415.203 325.83 415.821 326.284 416.568C326.737 417.316 326.9 418.194 327.094 419.039C327.126 419.267 327.191 419.494 327.353 419.657C327.515 419.82 327.84 419.82 327.937 419.625C327.969 419.56 327.969 419.494 327.969 419.429C328.066 418.031 327.969 416.601 327.289 415.365C326.478 413.935 325.052 413.317 323.723 413.48Z" fill="#291410"/>
<path d="M319.866 412.472C319.477 412.439 318.925 412.569 318.731 412.634C318.083 412.83 317.467 413.252 317.078 413.837C316.981 414 316.883 414.163 316.883 414.358C316.883 414.553 316.981 414.748 317.143 414.813C317.402 414.91 317.661 414.65 317.856 414.423C318.277 413.967 318.828 413.642 319.444 413.48C319.606 413.447 319.801 413.415 319.963 413.317C320.125 413.22 320.254 413.09 320.287 412.895C320.319 412.602 320.125 412.504 319.866 412.472Z" fill="#291410"/>
<path d="M350.044 411.627C349.687 412.96 349.947 414.39 350.368 415.723C350.4 415.788 350.4 415.853 350.465 415.886C350.595 416.048 350.919 415.983 351.049 415.788C351.178 415.593 351.146 415.366 351.146 415.138C351.113 414.26 351.081 413.382 351.308 412.537C351.567 411.692 352.183 410.911 352.994 410.716C353.998 410.456 355.1 411.074 355.716 411.952C356.332 412.83 356.592 413.87 356.851 414.878C356.916 415.105 357.013 415.333 357.207 415.431C357.434 415.528 357.726 415.3 357.791 415.073C357.888 414.845 357.823 414.553 357.759 414.325C357.467 412.992 357.175 411.594 356.365 410.489C355.522 409.286 354.225 408.798 352.994 408.961C351.697 409.123 350.465 410.034 350.044 411.627Z" fill="#291410"/>
<path d="M356.527 407.01C356.916 406.88 357.467 406.88 357.661 406.88C358.342 406.912 359.023 407.172 359.541 407.66C359.671 407.79 359.801 407.92 359.865 408.115C359.93 408.278 359.865 408.505 359.703 408.603C359.476 408.765 359.152 408.57 358.925 408.408C358.407 408.05 357.791 407.888 357.143 407.855C356.948 407.855 356.786 407.855 356.592 407.823C356.43 407.79 356.235 407.66 356.17 407.497C356.138 407.27 356.3 407.107 356.527 407.01Z" fill="#291410"/>
<path d="M319.412 428.728C317.467 428.338 315.295 429.021 314.031 430.614C312.929 431.979 312.572 433.897 313.091 435.556C313.609 437.214 314.971 438.612 316.624 439.132C317.532 439.425 318.504 439.457 319.412 439.164C320.449 438.839 321.357 438.092 321.972 437.181C322.588 436.271 322.912 435.198 323.01 434.093C323.172 432.499 322.783 430.744 321.551 429.736C320.903 429.216 320.19 428.891 319.412 428.728Z" fill="#9F5D3A"/>
<path d="M353.447 422.518C352.702 423.526 352.734 424.957 353.156 426.127C353.447 426.94 353.901 427.72 354.549 428.305C355.198 428.891 356.008 429.281 356.883 429.313C357.629 429.346 358.374 429.151 358.99 428.761C360.157 428.045 360.968 426.745 361.032 425.347C361.097 423.981 360.449 422.583 359.379 421.738C358.115 420.762 356.3 420.632 354.906 421.315C354.355 421.575 353.836 421.998 353.447 422.518Z" fill="#9F5D3A"/>
<path d="M342.945 418.162C342.912 418.064 342.88 417.999 342.848 417.934C342.232 416.991 341.843 418.454 341.616 418.844C341.065 419.885 339.898 420.567 338.731 420.567C338.536 420.567 338.342 420.567 338.147 420.632C337.953 420.698 337.823 420.893 337.888 421.088C337.953 421.283 338.147 421.348 338.342 421.38C339.801 421.673 341.389 421.12 342.361 419.982C342.686 419.592 342.912 419.169 342.977 418.682C342.977 418.519 342.977 418.324 342.945 418.162Z" fill="#291410"/>
<path d="M345.733 426.355C345.57 426.485 345.473 426.712 345.376 426.907C344.501 429.086 342.621 430.841 340.384 431.557C338.147 432.304 335.619 432.012 333.609 430.776C333.285 430.581 332.669 430.061 332.248 430.094C331.665 430.159 331.859 430.711 332.183 431.069C334.031 433.085 336.981 433.93 339.671 433.41C342.361 432.89 344.695 431.004 345.927 428.565C346.186 428.045 346.446 427.46 346.413 426.842C346.413 426.582 346.348 426.29 346.122 426.225C345.992 426.16 345.83 426.225 345.733 426.355Z" fill="#291410"/>
<path d="M299.282 376.416C299.185 375.896 299.023 375.375 298.828 374.888C298.31 373.555 297.726 372.254 297.045 371.019C293.35 364.159 287.191 358.697 280.028 355.673C272.605 352.519 262.199 351.576 254.809 355.25C253.058 356.128 251.34 357.429 250.692 359.282C249.849 361.59 250.984 364.451 253.188 365.524C249.266 367.02 245.83 369.718 243.431 373.165C242.102 375.083 241.065 377.261 241 379.602C240.935 381.943 242.037 384.381 244.079 385.454C245.927 386.43 248.196 386.202 250.238 385.747C253.901 384.999 257.434 383.764 260.773 382.073C259.898 383.568 258.99 385.324 259.606 386.95C260.319 388.803 262.783 389.421 264.695 388.933C266.64 388.445 268.261 387.21 270.076 386.365C269.298 387.275 269.104 388.64 269.558 389.746C270.011 390.851 271.113 391.664 272.313 391.794C273.545 391.924 274.776 391.306 275.716 390.461C276.656 389.648 277.37 388.608 278.18 387.632C282.199 382.853 288.455 380.025 294.679 380.155C296.105 380.187 297.726 380.285 298.699 379.244C299.412 378.497 299.477 377.456 299.282 376.416Z" fill="#D8C19E"/>
<path d="M302.945 372.514C301.875 371.084 299.801 370.271 297.823 370.173C294.938 370.043 292.053 371.441 290.076 373.522C288.002 375.701 286.835 378.757 286.964 381.748C286.997 382.138 287.029 382.561 287.159 382.918C288.747 386.69 294.906 385.194 297.305 383.503C299.185 382.17 301 380.382 302.264 378.464C303.431 376.708 304.339 374.335 302.945 372.514Z" fill="#FFC152"/>
<path d="M367.807 376.221C366.867 375.57 365.83 375.05 364.793 374.563C347.386 366.434 325.992 363.086 307.71 370.271C302.297 372.417 297.207 375.44 292.896 379.374C283.755 387.698 278.245 400.312 279.736 412.634C281.227 424.924 290.206 436.336 302.199 439.392C303.788 439.782 306.024 439.652 306.284 438.059C306.413 437.409 306.089 436.759 305.797 436.173C302.524 429.411 299.606 422.193 299.736 414.683C299.865 407.172 303.755 399.304 310.692 396.476C311.308 396.216 311.989 396.021 312.669 396.118C313.48 396.281 314.096 396.866 314.679 397.451C316.754 399.402 319.412 401.125 322.232 400.767C325.052 400.41 327.418 396.964 325.83 394.623C332.831 398.784 340.319 402.946 348.455 402.913C350.789 402.913 353.512 402.198 354.323 400.02C354.647 399.142 354.582 398.199 354.42 397.289C353.804 394.33 351.859 391.892 349.979 389.551C351.665 390.071 353.123 391.111 354.809 391.599C356.494 392.087 358.601 391.859 359.541 390.396C360.838 388.315 358.958 385.779 357.24 384.056C360.384 384.999 363.626 385.942 366.867 385.422C368.002 385.259 369.136 384.869 369.947 384.024C371.405 382.496 371.146 379.927 369.914 378.204C369.298 377.391 368.585 376.741 367.807 376.221Z" fill="#D8C19E"/>
<path d="M342.977 410.781C342.945 410.716 342.88 410.651 342.848 410.586C340.028 407.432 334.841 408.375 333.123 412.179C333.026 412.407 332.929 412.634 332.961 412.862C332.994 413.09 333.123 413.35 333.35 413.382C333.674 413.447 333.966 413.155 334.16 412.862C335.101 411.724 336.43 410.911 337.856 410.619C339.314 410.326 340.838 410.586 342.135 411.301C342.426 411.464 342.815 411.627 343.01 411.366C343.172 411.236 343.107 410.976 342.977 410.781Z" fill="white"/>
<path d="M321.972 405.287C318.374 405.319 314.874 406.685 312.637 409.741C310.595 412.537 309.947 416.308 310.984 419.592C311.697 421.868 313.156 423.916 315.068 425.347C318.374 427.818 322.945 428.435 326.77 426.907C330.595 425.379 333.512 421.738 334.16 417.674C334.614 414.943 334.063 411.984 332.41 409.773C331.178 408.148 329.428 406.977 327.515 406.262C325.765 405.612 323.853 405.254 321.972 405.287ZM325.797 425.672C324.728 426.03 323.593 426.225 322.491 426.192C319.282 426.127 316.138 424.371 314.452 421.608C312.799 418.844 312.669 415.17 314.258 412.374C317.272 406.977 325.895 406.327 330.238 410.456C331.762 411.919 332.637 414 332.702 416.113C332.767 418.227 332.053 420.34 330.789 422.031C329.558 423.721 327.775 424.989 325.797 425.672Z" fill="white"/>
<path d="M352.961 397.679C349.363 397.711 345.862 399.077 343.626 402.133C341.584 404.929 340.935 408.7 341.972 411.984C342.686 414.26 344.144 416.308 346.057 417.739C349.363 420.21 353.934 420.828 357.759 419.299C361.584 417.771 364.501 414.13 365.149 410.066C365.603 407.335 365.052 404.376 363.399 402.166C362.167 400.54 360.417 399.369 358.504 398.654C356.754 398.004 354.841 397.646 352.961 397.679ZM356.786 418.064C355.716 418.422 354.582 418.617 353.48 418.584C350.271 418.519 347.126 416.764 345.441 414C343.788 411.236 343.658 407.563 345.246 404.766C348.261 399.369 356.883 398.719 361.227 402.848C362.75 404.311 363.626 406.392 363.69 408.505C363.755 410.619 363.042 412.732 361.778 414.423C360.546 416.113 358.763 417.381 356.786 418.064Z" fill="white"/>
<path d="M311.989 413.09C311.34 413.025 310.303 413.285 309.882 413.35C308.293 413.642 306.705 413.935 305.149 414.228C302.005 414.845 298.861 415.593 295.814 416.601C293.966 417.219 292.053 418.031 290.919 419.625C289.882 421.12 289.72 423.136 290.368 424.827C291.049 426.517 292.507 427.85 294.193 428.468C294.549 428.598 295.1 428.631 295.198 428.24C295.295 427.85 294.776 427.59 294.387 427.493C293.188 427.135 292.151 426.257 291.632 425.119C291.113 423.981 291.178 422.583 291.762 421.51C292.799 419.657 295.068 418.974 297.11 418.487C301.454 417.414 305.83 416.341 310.173 415.235C310.951 415.04 311.762 414.813 312.216 414.163C312.767 413.447 312.507 413.155 311.989 413.09Z" fill="white"/>
<path d="M413.836 368.938C413.545 368.613 413.091 368.548 412.669 368.483C401.94 366.922 390.757 368.45 380.806 372.872C379.412 373.49 379.412 373.977 379.833 375.278C380.254 376.546 380.676 377.846 381.162 379.114C382.07 381.65 383.075 384.154 384.144 386.657C386.284 391.632 388.682 396.476 391.276 401.223C392.086 402.686 392.896 404.149 393.739 405.579C395.878 409.221 398.147 412.83 401.065 415.886C401.519 416.373 402.07 416.861 402.75 416.861C403.658 416.894 404.306 416.016 404.76 415.203C406.348 412.342 407.353 409.156 408.229 406.002C411.502 394.363 413.48 382.333 414.096 370.238C414.128 369.816 414.128 369.296 413.836 368.938Z" fill="#FFC152"/>
<path d="M407.581 402.491C408.489 400.996 409.364 399.5 410.272 398.005C410.725 395.956 411.179 393.908 411.536 391.827C411.309 392.25 411.082 392.64 410.823 393.063C409.721 391.925 408.618 390.819 407.549 389.714C408.748 387.666 409.98 385.65 411.179 383.602C411.665 384.057 412.152 384.512 412.638 385C412.768 384.154 412.865 383.277 412.994 382.431C412.768 382.204 412.541 381.976 412.281 381.748C412.605 381.196 412.93 380.643 413.254 380.123C413.448 378.432 413.61 376.742 413.74 375.051C412.703 376.742 411.665 378.465 410.628 380.188C409.947 379.505 409.234 378.855 408.554 378.205C407.646 377.327 406.738 376.481 405.831 375.636C407.289 373.165 408.78 370.727 410.239 368.256C409.494 368.191 408.748 368.126 408.003 368.061C406.706 370.044 405.442 372.06 404.178 374.108C402.524 372.58 400.839 371.052 399.153 369.589C399.445 369.101 399.737 368.613 400.028 368.126C398.408 368.256 396.787 368.451 395.199 368.679C395.652 369.101 396.106 369.524 396.56 369.979C395.328 371.865 394.129 373.75 392.962 375.669C391.082 373.913 389.169 372.222 387.225 370.499C386.479 370.727 385.766 370.954 385.02 371.214C387.257 373.328 389.526 375.441 391.763 377.587C390.887 379.017 390.045 380.448 389.202 381.879C388.91 382.366 388.651 382.821 388.359 383.309C385.539 380.611 382.654 377.945 379.737 375.344C380.158 376.612 380.579 377.912 381.066 379.18C381.131 379.343 381.163 379.473 381.228 379.635C383.238 381.521 385.215 383.407 387.225 385.292C386.511 386.56 385.798 387.796 385.085 389.064C385.96 391.047 386.9 392.998 387.84 394.916C388.813 395.826 389.753 396.704 390.725 397.614C390.466 398.07 390.239 398.557 389.98 399.013C390.272 399.565 390.563 400.085 390.855 400.638C391.212 400.02 391.601 399.403 391.957 398.785C393.772 400.508 395.588 402.231 397.403 403.922C396.657 405.352 395.912 406.75 395.166 408.181C395.393 408.539 395.62 408.896 395.815 409.221C396.69 407.758 397.533 406.328 398.408 404.865C399.737 406.1 401.033 407.336 402.362 408.571C401.649 409.904 400.968 411.237 400.255 412.538C399.964 413.09 399.704 413.611 399.413 414.163C399.639 414.423 399.834 414.683 400.061 414.911C401.163 413.09 402.233 411.27 403.335 409.449C404.275 410.327 405.215 411.205 406.122 412.082C406.252 411.757 406.382 411.4 406.511 411.042C406.414 410.945 406.285 410.814 406.187 410.717C405.442 409.937 404.696 409.156 403.951 408.376C404.891 406.815 405.831 405.222 406.771 403.662C407.289 404.149 407.808 404.637 408.359 405.157C408.489 404.735 408.586 404.279 408.716 403.857C408.424 403.369 408.003 402.914 407.581 402.491ZM409.558 382.074C408.359 384.089 407.192 386.138 406.058 388.186C404.469 386.56 402.849 384.967 401.228 383.374C402.395 381.423 403.562 379.473 404.729 377.489C406.317 379.017 407.938 380.546 409.558 382.074ZM405.053 389.942C403.886 392.055 402.719 394.136 401.584 396.249C399.931 394.526 398.246 392.835 396.56 391.145C397.727 389.194 398.894 387.211 400.093 385.26C401.746 386.82 403.4 388.381 405.053 389.942ZM398.148 371.312C399.802 372.873 401.422 374.401 403.075 375.961C402.2 377.392 401.357 378.822 400.515 380.253C400.223 380.773 399.899 381.293 399.607 381.813C398.894 381.098 398.148 380.415 397.435 379.7C396.528 378.822 395.62 377.977 394.712 377.132C395.847 375.181 396.981 373.263 398.148 371.312ZM393.513 379.082C395.166 380.643 396.819 382.204 398.473 383.764C397.338 385.747 396.203 387.731 395.101 389.714C393.448 388.056 391.763 386.43 390.109 384.805C391.244 382.886 392.379 380.968 393.513 379.082ZM386.641 390.592C387.419 389.291 388.197 387.991 388.975 386.723C390.693 388.348 392.411 389.942 394.097 391.567C393.319 392.965 392.573 394.331 391.827 395.729C390.077 394.006 388.359 392.282 386.641 390.592ZM393.059 396.997C393.87 395.631 394.68 394.266 395.49 392.9C397.241 394.526 398.959 396.184 400.709 397.81C399.899 399.305 399.088 400.801 398.278 402.329C396.56 400.541 394.842 398.752 393.059 396.997ZM403.108 407.303C401.876 406.003 400.612 404.702 399.348 403.402C400.223 401.939 401.098 400.476 401.973 398.98C403.205 400.15 404.437 401.288 405.669 402.459C404.826 404.084 403.951 405.71 403.108 407.303ZM406.349 401.223C405.182 399.988 404.015 398.785 402.849 397.582C404.08 395.501 405.312 393.453 406.544 391.372C407.678 392.445 408.813 393.518 409.98 394.591C408.748 396.802 407.549 399.013 406.349 401.223Z" fill="#9F5D3A"/>
<path d="M415.619 361.655C415.522 356.583 414.096 351.446 410.984 347.447C407.029 342.408 400.481 339.547 394.128 340.035C387.742 340.522 381.713 344.229 378.31 349.658C374.906 355.088 374.16 362.078 376.235 368.158C376.138 367.898 373.707 369.978 373.512 370.173C372.799 371.051 372.086 372.189 372.151 373.327C372.313 375.733 374.906 377.716 377.24 377.196C379.088 376.773 380.806 375.148 382.556 375.798C383.431 376.123 384.015 376.968 384.728 377.619C386.219 378.952 388.455 379.374 390.303 378.627C392.021 377.944 393.48 376.383 395.327 376.351C396.883 376.351 398.212 377.424 399.736 377.716C401.486 378.074 403.399 377.229 404.371 375.733C404.728 375.18 404.955 374.53 405.473 374.14C406.802 373.132 408.618 374.498 410.271 374.595C411.891 374.693 413.383 373.49 413.934 371.962C414.128 371.441 414.225 370.856 414.582 370.466C415.457 369.523 417.045 370.206 418.31 370.043C419.703 369.881 420.806 368.548 420.935 367.15C421.065 365.752 420.384 364.354 419.347 363.411C418.342 362.468 416.981 361.948 415.619 361.655Z" fill="#645D33"/>
<path d="M413.772 348.455C413.674 343.383 412.248 338.246 409.136 334.247C405.182 329.208 398.634 326.347 392.28 326.834C385.895 327.322 379.865 331.029 376.462 336.458C373.058 341.888 372.313 348.878 374.387 354.958C374.29 354.698 371.859 356.778 371.665 356.973C370.951 357.851 370.238 358.989 370.303 360.127C370.465 362.533 373.058 364.516 375.392 363.996C377.24 363.573 378.958 361.948 380.708 362.598C381.583 362.923 382.167 363.768 382.88 364.419C384.371 365.752 386.608 366.174 388.455 365.427C390.173 364.744 391.632 363.183 393.48 363.151C395.036 363.151 396.365 364.224 397.888 364.516C399.639 364.874 401.551 364.029 402.524 362.533C402.88 361.98 403.107 361.33 403.626 360.94C404.955 359.932 406.77 361.298 408.423 361.395C410.044 361.493 411.535 360.29 412.086 358.762C412.28 358.241 412.378 357.656 412.734 357.266C413.609 356.323 415.198 357.006 416.462 356.843C417.856 356.681 418.958 355.348 419.088 353.95C419.217 352.552 418.537 351.154 417.499 350.211C416.494 349.3 415.165 348.748 413.772 348.455Z" fill="#FFE4CC"/>
<path d="M412.151 336.653C412.053 331.581 410.627 326.444 407.515 322.445C403.561 317.406 397.013 314.545 390.66 315.033C384.274 315.52 378.245 319.227 374.841 324.656C371.438 330.086 370.692 337.076 372.767 343.156C372.669 342.896 370.238 344.976 370.044 345.171C369.331 346.049 368.617 347.187 368.682 348.325C368.844 350.731 371.438 352.714 373.771 352.194C375.619 351.771 377.337 350.146 379.088 350.796C379.963 351.121 380.546 351.967 381.259 352.617C382.75 353.95 384.987 354.372 386.835 353.625C388.553 352.942 390.011 351.381 391.859 351.349C393.415 351.349 394.744 352.422 396.267 352.714C398.018 353.072 399.93 352.227 400.903 350.731C401.259 350.178 401.486 349.528 402.005 349.138C403.334 348.13 405.149 349.496 406.802 349.593C408.423 349.691 409.914 348.488 410.465 346.96C410.66 346.439 410.757 345.854 411.113 345.464C411.989 344.521 413.577 345.204 414.841 345.041C416.235 344.879 417.337 343.546 417.467 342.148C417.596 340.75 416.916 339.352 415.878 338.409C414.874 337.499 413.512 336.946 412.151 336.653Z" fill="#FFC152"/>
<path d="M385.506 329.533C385.603 329.11 385.473 328.46 384.922 328.46C384.436 328.46 384.079 328.915 383.82 329.24C383.399 329.761 383.01 330.313 382.815 330.964C382.686 331.354 382.686 331.841 383.01 332.069C383.269 332.232 383.626 332.199 383.885 332.036C384.241 331.841 384.501 331.516 384.695 331.191C384.955 330.768 385.214 330.313 385.376 329.858C385.441 329.728 385.473 329.631 385.506 329.533Z" fill="white"/>
<path d="M399.865 320.43C399.865 320.007 399.639 319.389 399.088 319.487C398.634 319.584 398.374 320.104 398.18 320.495C397.888 321.08 397.596 321.73 397.532 322.38C397.499 322.77 397.596 323.258 397.953 323.421C398.245 323.551 398.569 323.421 398.796 323.193C399.088 322.933 399.282 322.575 399.412 322.185C399.606 321.73 399.736 321.242 399.801 320.755C399.865 320.657 399.865 320.56 399.865 320.43Z" fill="white"/>
<path d="M394.323 318.966C394.485 318.544 394.452 317.894 393.901 317.829C393.447 317.764 393.026 318.186 392.702 318.479C392.216 318.934 391.762 319.454 391.47 320.039C391.308 320.397 391.243 320.885 391.535 321.145C391.762 321.34 392.118 321.34 392.41 321.242C392.767 321.112 393.091 320.82 393.35 320.527C393.674 320.137 393.966 319.747 394.193 319.292C394.258 319.194 394.29 319.064 394.323 318.966Z" fill="white"/>
<path d="M378.374 329.956C378.05 329.663 377.434 329.435 377.143 329.923C376.883 330.313 377.143 330.866 377.272 331.289C377.499 331.906 377.791 332.524 378.277 333.012C378.536 333.304 378.958 333.565 379.314 333.369C379.606 333.239 379.703 332.914 379.703 332.589C379.703 332.199 379.574 331.809 379.379 331.451C379.152 330.996 378.893 330.573 378.569 330.183C378.536 330.118 378.439 330.021 378.374 329.956Z" fill="white"/>
<path d="M375.587 336.523C375.165 336.458 374.517 336.653 374.549 337.206C374.582 337.694 375.101 337.986 375.425 338.246C375.976 338.604 376.559 338.962 377.24 339.092C377.629 339.157 378.115 339.124 378.31 338.799C378.472 338.539 378.374 338.181 378.18 337.921C377.953 337.596 377.629 337.368 377.272 337.173C376.818 336.946 376.365 336.751 375.878 336.621C375.814 336.556 375.716 336.556 375.587 336.523Z" fill="white"/>
<path d="M391.924 325.567C392.053 325.144 391.956 324.494 391.405 324.461C390.919 324.429 390.562 324.884 390.271 325.209C389.817 325.697 389.428 326.249 389.201 326.9C389.071 327.29 389.039 327.745 389.363 328.005C389.622 328.2 389.979 328.135 390.238 328.005C390.595 327.81 390.854 327.517 391.081 327.192C391.373 326.802 391.6 326.347 391.794 325.892C391.859 325.762 391.891 325.664 391.924 325.567Z" fill="white"/>
<path d="M386.316 335.255C386.219 334.833 385.83 334.312 385.344 334.54C384.922 334.735 384.793 335.32 384.695 335.743C384.533 336.393 384.436 337.076 384.533 337.726C384.598 338.116 384.793 338.571 385.182 338.604C385.473 338.636 385.765 338.441 385.96 338.181C386.186 337.856 386.284 337.466 386.316 337.076C386.381 336.588 386.381 336.068 386.349 335.58C386.381 335.483 386.349 335.385 386.316 335.255Z" fill="white"/>
<path d="M398.018 329.598C397.921 329.175 397.499 328.655 397.013 328.915C396.592 329.11 396.494 329.728 396.397 330.118C396.267 330.768 396.17 331.451 396.3 332.134C396.365 332.524 396.592 332.947 396.981 333.012C397.272 333.044 397.564 332.817 397.726 332.589C397.953 332.264 398.018 331.841 398.05 331.451C398.115 330.964 398.083 330.443 398.05 329.956C398.083 329.793 398.05 329.696 398.018 329.598Z" fill="white"/>
<path d="M392.313 332.914C391.956 332.654 391.308 332.557 391.113 333.077C390.951 333.532 391.276 334.02 391.47 334.377C391.794 334.963 392.216 335.515 392.734 335.938C393.058 336.165 393.512 336.361 393.836 336.133C394.096 335.97 394.16 335.613 394.096 335.288C394.031 334.898 393.836 334.54 393.577 334.215C393.285 333.825 392.929 333.434 392.572 333.109C392.475 333.044 392.378 332.979 392.313 332.914Z" fill="white"/>
<path d="M391.146 338.832C390.854 338.506 390.238 338.279 389.914 338.734C389.655 339.124 389.849 339.677 389.979 340.099C390.173 340.75 390.433 341.367 390.887 341.888C391.146 342.18 391.535 342.473 391.924 342.31C392.216 342.18 392.345 341.855 392.378 341.563C392.41 341.172 392.28 340.782 392.118 340.425C391.924 339.969 391.664 339.514 391.373 339.124C391.308 339.027 391.243 338.929 391.146 338.832Z" fill="white"/>
<path d="M381.13 321.763C380.741 321.567 380.092 321.567 379.963 322.088C379.865 322.543 380.254 322.998 380.514 323.323C380.935 323.843 381.389 324.364 382.005 324.689C382.361 324.884 382.815 324.981 383.107 324.721C383.334 324.526 383.334 324.136 383.269 323.843C383.139 323.453 382.88 323.161 382.621 322.868C382.264 322.51 381.875 322.185 381.454 321.925C381.324 321.893 381.227 321.828 381.13 321.763Z" fill="white"/>
<path d="M404.598 326.477C404.598 326.054 404.306 325.436 403.755 325.599C403.301 325.729 403.075 326.282 402.912 326.672C402.653 327.29 402.426 327.94 402.394 328.623C402.394 329.013 402.491 329.5 402.88 329.631C403.172 329.728 403.496 329.565 403.723 329.37C404.015 329.078 404.177 328.72 404.306 328.33C404.468 327.842 404.566 327.355 404.598 326.867C404.598 326.704 404.598 326.607 404.598 326.477Z" fill="white"/>
<path d="M408.423 331.484C408.293 331.061 407.872 330.573 407.386 330.834C406.964 331.061 406.9 331.646 406.835 332.069C406.737 332.719 406.673 333.402 406.802 334.085C406.9 334.475 407.126 334.898 407.515 334.93C407.807 334.963 408.099 334.735 408.261 334.475C408.456 334.15 408.52 333.727 408.553 333.337C408.585 332.849 408.553 332.329 408.488 331.841C408.456 331.679 408.423 331.581 408.423 331.484Z" fill="white"/>
<path d="M401.94 333.369C401.551 333.174 400.903 333.174 400.773 333.727C400.676 334.182 401.065 334.637 401.324 334.963C401.746 335.483 402.232 335.97 402.815 336.296C403.172 336.491 403.626 336.588 403.917 336.328C404.144 336.1 404.144 335.743 404.047 335.45C403.917 335.06 403.658 334.767 403.399 334.475C403.042 334.117 402.653 333.792 402.232 333.532C402.167 333.467 402.07 333.402 401.94 333.369Z" fill="white"/>
<path d="M387.159 319.162C386.835 318.869 386.219 318.674 385.927 319.129C385.7 319.552 385.927 320.072 386.089 320.495C386.348 321.112 386.64 321.73 387.126 322.218C387.418 322.51 387.807 322.738 388.164 322.575C388.455 322.445 388.553 322.088 388.553 321.795C388.553 321.405 388.391 321.015 388.229 320.657C388.002 320.202 387.71 319.812 387.386 319.422C387.321 319.324 387.256 319.227 387.159 319.162Z" fill="white"/>
<path d="M391.827 354.665C391.924 354.242 391.794 353.592 391.243 353.592C390.757 353.592 390.4 354.047 390.141 354.372C389.72 354.893 389.331 355.445 389.136 356.096C389.006 356.486 389.006 356.973 389.331 357.201C389.59 357.364 389.946 357.331 390.206 357.168C390.562 356.973 390.822 356.648 391.016 356.323C391.275 355.9 391.535 355.445 391.697 354.99C391.762 354.86 391.794 354.763 391.827 354.665Z" fill="white"/>
<path d="M381.843 354.828C381.519 354.535 380.903 354.307 380.611 354.795C380.352 355.185 380.611 355.738 380.741 356.161C380.968 356.778 381.259 357.396 381.746 357.884C382.005 358.176 382.426 358.436 382.783 358.241C383.075 358.111 383.172 357.786 383.172 357.461C383.172 357.071 383.042 356.681 382.848 356.323C382.621 355.868 382.361 355.445 382.037 355.055C381.972 354.99 381.908 354.925 381.843 354.828Z" fill="white"/>
<path d="M376.818 358.534C376.397 358.469 375.749 358.664 375.781 359.217C375.814 359.704 376.332 359.997 376.656 360.257C377.207 360.615 377.791 360.972 378.472 361.102C378.861 361.167 379.347 361.135 379.541 360.81C379.703 360.55 379.606 360.192 379.412 359.932C379.185 359.607 378.861 359.379 378.504 359.184C378.05 358.957 377.596 358.762 377.11 358.632C377.045 358.566 376.916 358.534 376.818 358.534Z" fill="white"/>
<path d="M387.775 360.127C387.677 359.704 387.288 359.184 386.802 359.412C386.381 359.607 386.251 360.192 386.154 360.615C385.992 361.265 385.895 361.948 385.992 362.598C386.057 362.988 386.251 363.443 386.64 363.476C386.932 363.508 387.224 363.313 387.418 363.053C387.645 362.728 387.742 362.338 387.775 361.948C387.84 361.46 387.84 360.94 387.807 360.452C387.807 360.355 387.807 360.225 387.775 360.127Z" fill="white"/>
<path d="M402.653 355.348C402.556 354.925 402.135 354.405 401.648 354.665C401.227 354.86 401.13 355.478 401.032 355.868C400.903 356.518 400.806 357.201 400.935 357.884C401 358.274 401.227 358.697 401.616 358.762C401.908 358.794 402.199 358.566 402.361 358.339C402.588 358.014 402.653 357.591 402.686 357.201C402.75 356.713 402.718 356.193 402.686 355.705C402.686 355.575 402.653 355.478 402.653 355.348Z" fill="white"/>
<path d="M395.749 357.819C395.392 357.559 394.744 357.461 394.549 357.981C394.387 358.436 394.712 358.924 394.906 359.282C395.23 359.867 395.652 360.42 396.17 360.842C396.494 361.07 396.948 361.265 397.272 361.037C397.532 360.875 397.596 360.517 397.532 360.192C397.467 359.802 397.272 359.444 397.013 359.119C396.721 358.729 396.365 358.339 396.008 358.014C395.943 357.949 395.846 357.884 395.749 357.819Z" fill="white"/>
<path d="M408.067 351.381C408.067 350.959 407.775 350.341 407.224 350.503C406.77 350.633 406.543 351.186 406.381 351.576C406.122 352.194 405.895 352.844 405.862 353.527C405.862 353.917 405.96 354.405 406.349 354.535C406.64 354.632 406.964 354.47 407.191 354.275C407.483 353.982 407.645 353.625 407.775 353.234C407.937 352.747 408.034 352.259 408.067 351.771C408.034 351.609 408.067 351.511 408.067 351.381Z" fill="white"/>
<path d="M412.702 352.422C412.572 351.999 412.151 351.511 411.665 351.771C411.243 351.999 411.178 352.584 411.113 353.007C411.016 353.657 410.951 354.34 411.081 355.023C411.178 355.413 411.405 355.835 411.794 355.868C412.086 355.9 412.378 355.673 412.54 355.413C412.734 355.088 412.799 354.665 412.831 354.275C412.864 353.787 412.831 353.267 412.767 352.779C412.767 352.649 412.734 352.552 412.702 352.422Z" fill="white"/>
<path d="M393.609 367.377C393.707 366.955 393.577 366.304 393.026 366.304C392.54 366.304 392.183 366.76 391.924 367.085C391.502 367.605 391.113 368.158 390.919 368.808C390.789 369.198 390.789 369.686 391.113 369.913C391.373 370.076 391.729 370.043 391.989 369.881C392.345 369.686 392.605 369.361 392.799 369.035C393.058 368.613 393.318 368.158 393.48 367.702C393.545 367.605 393.577 367.507 393.609 367.377Z" fill="white"/>
<path d="M383.593 367.572C383.269 367.28 382.653 367.052 382.361 367.54C382.102 367.93 382.361 368.483 382.491 368.905C382.718 369.523 383.01 370.141 383.496 370.629C383.755 370.921 384.177 371.181 384.533 370.986C384.825 370.856 384.922 370.531 384.922 370.206C384.922 369.816 384.793 369.426 384.598 369.068C384.371 368.613 384.112 368.19 383.788 367.8C383.755 367.735 383.658 367.637 383.593 367.572Z" fill="white"/>
<path d="M378.569 371.246C378.148 371.181 377.499 371.376 377.532 371.929C377.564 372.417 378.083 372.709 378.407 372.969C378.958 373.327 379.541 373.685 380.222 373.815C380.611 373.88 381.097 373.847 381.292 373.522C381.454 373.262 381.357 372.904 381.162 372.644C380.935 372.319 380.611 372.092 380.254 371.897C379.801 371.669 379.347 371.474 378.861 371.344C378.796 371.279 378.699 371.279 378.569 371.246Z" fill="white"/>
<path d="M389.525 372.839C389.428 372.417 389.039 371.897 388.553 372.124C388.131 372.319 388.002 372.904 387.904 373.327C387.742 373.977 387.645 374.66 387.742 375.31C387.807 375.7 388.002 376.156 388.391 376.188C388.682 376.221 388.974 376.026 389.169 375.765C389.395 375.44 389.493 375.05 389.525 374.66C389.59 374.172 389.59 373.652 389.558 373.165C389.59 373.067 389.558 372.969 389.525 372.839Z" fill="white"/>
<path d="M404.404 368.093C404.306 367.67 403.885 367.15 403.399 367.41C402.977 367.605 402.88 368.223 402.783 368.613C402.653 369.263 402.556 369.946 402.686 370.629C402.75 371.019 402.977 371.441 403.366 371.506C403.658 371.539 403.95 371.311 404.112 371.084C404.339 370.759 404.404 370.336 404.436 369.946C404.501 369.458 404.468 368.938 404.436 368.45C404.436 368.32 404.436 368.19 404.404 368.093Z" fill="white"/>
<path d="M397.532 370.564C397.175 370.303 396.527 370.206 396.332 370.726C396.17 371.181 396.494 371.669 396.689 372.027C397.013 372.612 397.434 373.165 397.953 373.587C398.277 373.815 398.731 374.01 399.055 373.782C399.314 373.62 399.379 373.262 399.314 372.937C399.25 372.547 399.055 372.189 398.796 371.864C398.504 371.474 398.148 371.084 397.791 370.759C397.694 370.694 397.596 370.596 397.532 370.564Z" fill="white"/>
<path d="M409.817 364.126C409.817 363.703 409.525 363.086 408.974 363.248C408.52 363.378 408.293 363.931 408.131 364.321C407.872 364.939 407.645 365.589 407.613 366.272C407.613 366.662 407.71 367.15 408.099 367.28C408.391 367.377 408.715 367.215 408.942 367.02C409.233 366.727 409.395 366.369 409.525 365.979C409.687 365.492 409.784 365.004 409.817 364.516C409.817 364.354 409.817 364.224 409.817 364.126Z" fill="white"/>
<path d="M414.452 365.166C414.323 364.744 413.901 364.256 413.415 364.516C412.994 364.744 412.929 365.329 412.864 365.752C412.767 366.402 412.702 367.085 412.831 367.767C412.929 368.158 413.156 368.58 413.545 368.613C413.836 368.645 414.128 368.418 414.29 368.158C414.485 367.832 414.549 367.41 414.582 367.02C414.614 366.532 414.582 366.012 414.517 365.524C414.517 365.362 414.485 365.264 414.452 365.166Z" fill="white"/>
</g>
<circle cx="192" cy="630" r="5" fill="#C1A073"/>
<defs>
<filter id="filter0_f" x="-165" y="0" width="894" height="893.918" filterUnits="userSpaceOnUse" color-interpolation-filters="sRGB">
<feFlood flood-opacity="0" result="BackgroundImageFix"/>
<feBlend mode="normal" in="SourceGraphic" in2="BackgroundImageFix" result="shape"/>
<feGaussianBlur stdDeviation="100" result="effect1_foregroundBlur"/>
</filter>
<clipPath id="clip0">
<rect width="180" height="264" fill="white" transform="translate(241 315)"/>
</clipPath>
</defs>
</svg>
