<svg width="719" height="894" viewBox="0 0 719 894" fill="none" xmlns="http://www.w3.org/2000/svg">
<g opacity="0.5" filter="url(#filter0_f)">
<ellipse cx="447" cy="446.959" rx="247" ry="246.959" fill="#F0E7DD"/>
</g>
<rect x="298" y="245" width="180" height="256" fill="#EEE6DC"/>
<g clip-path="url(#clip0)">
<path d="M477.486 421.128C473.821 418.952 470.864 416.328 470.736 412.296C470.543 407.368 475.364 402.888 474.271 398.152C472.343 390.024 458.521 393.224 452.864 387.016C446.179 379.656 456.593 367.176 452.029 358.344C448.429 351.368 436.793 349.704 436.021 342.024C435.507 336.84 440.65 332.552 440.65 327.368C440.714 319.432 430.364 316.36 424.9 310.6C418.15 303.368 419.243 291.848 413.714 283.784C407.543 274.888 392.886 273.416 385.043 280.904C377.907 276.296 368.329 275.528 360.614 278.984C352.771 282.44 347.05 289.992 345.636 298.248C344.479 304.712 345.893 311.304 345.829 317.896C345.764 324.424 343.45 331.784 337.471 334.728C332.264 337.224 323.971 336.968 322.621 342.664C321.207 348.872 330.529 352.456 331.621 358.792C332.521 364.296 326.736 368.712 321.4 370.696C316.064 372.68 309.7 374.664 307.643 379.912C305.264 386.056 310.086 393.928 306.293 399.304C304.429 401.992 301.086 403.016 297.936 404.168V515.272C297.936 516.232 297.614 516.936 297.1 517.448C296.521 520.968 290.736 520.776 290.736 516.872V512.072C290.479 511.624 290.35 511.112 290.35 510.472V508.936C289.643 508.424 289.129 507.592 289.129 506.44V503.496C288.614 503.432 288.1 503.304 287.65 502.984V522.888H477.55V421.128H477.486Z" fill="#D8C19E"/>
<path d="M477.486 504.712C466.814 507.72 455.179 507.464 444.764 503.688C437.114 500.808 429.4 495.304 427.986 487.24C426.957 481.224 429.4 474.056 425.607 469.32C423.486 466.632 420.143 465.544 416.993 463.944C413.971 462.344 410.95 459.656 411.079 456.328C411.336 451.784 416.736 449.672 419.5 446.152C423.357 441.544 421.943 433.544 416.8 430.472C413.264 428.36 408.893 428.36 404.907 427.464C400.921 426.568 396.743 423.432 397.064 419.336C397.579 414.536 403.75 412.68 406.836 409.032C410.693 404.36 409.214 397.064 405.55 391.944C402.014 386.888 396.871 383.112 393.207 378.248C391.214 375.496 390.186 372.296 390.186 368.84C390.186 367.176 390.443 365.384 390.7 363.656C390.957 361.288 391.279 361.544 389.35 360.712C386.586 359.368 376.814 357.96 374.757 361.16C374.179 362.056 374.307 363.272 374.5 364.232C375.336 371.336 372.379 378.632 366.914 383.368C363.314 386.376 358.814 388.168 355.086 391.112C351.357 394.056 348.4 398.728 349.75 403.208C351.871 410.184 363.25 413.384 361.836 420.488C360.164 428.872 343.45 426.696 342.421 435.272C341.521 442.824 354.507 444.936 356.179 452.36C357.079 456.776 353.671 461 349.75 463.496C346.021 466.184 341.586 468.296 339.529 472.392C336.764 477.896 339.529 484.744 338.629 490.824C337.343 498.376 330.593 503.752 323.521 506.696C315.486 510.024 306.357 510.856 297.679 509.448V515.272C297.679 516.232 297.357 516.936 296.843 517.448C296.264 520.968 290.479 520.776 290.479 516.872V512.072C290.221 511.624 290.093 511.112 290.093 510.472V508.936C289.514 508.552 289.064 507.912 288.936 507.08C288.421 506.888 287.843 506.696 287.329 506.44V523.016H477.293V504.712H477.486Z" fill="white"/>
<path d="M383.371 405.256C392.886 405.32 401.436 400.328 406.386 392.776C406.193 392.52 405.936 392.136 405.743 391.88C402.207 386.824 397.064 383.048 393.4 378.184C391.407 375.432 390.379 372.232 390.379 368.776C390.379 367.112 390.636 365.32 390.893 363.592C391.15 361.224 391.471 361.48 389.543 360.648C386.779 359.304 377.007 357.896 374.95 361.096C374.371 361.992 374.5 363.208 374.693 364.168C375.529 371.272 372.571 378.568 367.107 383.304C364.6 385.48 361.45 387.016 358.686 388.68C362.993 398.472 372.443 405.192 383.371 405.256Z" fill="#AB7051"/>
<path d="M388.707 361.736C384.979 365.192 379.836 364.744 376.557 361.096C375.271 359.688 373.279 361.736 374.564 363.208C378.936 368.136 385.943 368.328 390.829 363.848C392.179 362.568 390.121 360.456 388.707 361.736Z" fill="#68422D"/>
<path d="M408.379 321.928C408.314 320.648 408.186 319.56 408.121 318.344C407.929 315.656 407.543 312.904 405.743 310.856C403.557 308.488 399.829 308.168 396.743 307.336C391.793 305.928 387.55 302.536 385.043 297.928C384.979 297.672 384.786 297.416 384.464 297.288C383.886 297.032 383.179 297.736 382.857 298.184C378.743 304.2 372.571 308.744 365.629 310.92C362.35 311.944 358.686 312.584 356.436 315.208C353.671 318.216 353.993 322.824 354.507 326.6C355.279 331.4 355.857 336.328 356.5 341.192C357.143 345.992 358.429 350.92 361.45 354.76C365.564 359.944 371.993 362.504 378.293 364.68C380.093 365.32 382.021 366.024 384.014 365.96C386.393 365.896 388.643 364.808 390.764 363.72C395.007 361.352 398.929 358.536 401.95 354.76C405.807 349.832 407.864 343.496 408.507 337.224C409.021 332.232 408.7 327.048 408.379 321.928Z" fill="#AB7051"/>
<path d="M408.379 321.928C408.314 320.648 408.186 319.56 408.121 318.344C407.929 315.656 407.543 312.904 405.743 310.856C403.557 308.488 399.829 308.168 396.743 307.336C391.793 305.928 387.55 302.536 385.043 297.928C384.979 297.672 384.786 297.416 384.464 297.288C383.886 297.032 383.179 297.736 382.857 298.184C378.743 304.2 372.571 308.744 365.629 310.92C362.35 311.944 358.686 312.584 356.436 315.208C353.671 318.216 353.993 322.824 354.507 326.6C355.279 331.4 355.857 336.328 356.5 341.192C357.143 345.992 358.429 350.92 361.45 354.76C365.564 359.944 371.993 362.504 378.293 364.68C380.093 365.32 382.021 366.024 384.014 365.96C386.393 365.896 388.643 364.808 390.764 363.72C395.007 361.352 398.929 358.536 401.95 354.76C405.807 349.832 407.864 343.496 408.507 337.224C409.021 332.232 408.7 327.048 408.379 321.928Z" fill="#AB7051"/>
<path d="M374.371 327.368C374.307 327.368 374.114 327.432 373.921 327.56C373.729 327.752 373.471 328.008 373.407 328.2C372.507 329.736 370.9 330.888 369.036 331.08C367.236 331.272 365.436 330.632 364.086 329.48C363.829 329.224 363.507 328.904 363.186 328.84C361.193 328.392 364.021 331.784 364.536 332.04C365.821 332.936 367.493 333.576 369.1 333.384C371.864 333.192 374.307 331.016 375.014 328.328C375.079 328.072 375.079 327.688 374.821 327.496C374.629 327.368 374.436 327.304 374.371 327.368Z" fill="#291410"/>
<path d="M365.243 339.848C364.343 339.848 363.314 340.296 362.35 340.744C360.229 342.28 358.75 344.968 359.136 347.464C359.586 349.96 361.514 352.264 364.279 352.52C366.979 352.776 369.614 350.984 370.514 348.488C371.543 345.608 370.321 342.088 367.621 340.552C366.914 340.168 366.079 339.848 365.243 339.848Z" fill="#9F5D3A"/>
<path d="M372.764 322.184C369.293 320.52 365.243 320.776 362.221 323.08C361.707 323.528 362.221 324.36 362.736 323.912C365.5 321.736 369.164 321.416 372.379 323.016C372.829 323.272 373.343 322.504 372.764 322.184Z" fill="#291410"/>
<path d="M392.436 327.112C392.243 327.368 392.371 327.688 392.436 328.008C393.593 330.44 396.293 332.04 399.121 331.848C400.729 331.656 402.271 330.952 403.364 329.672C403.814 329.224 405.871 325.64 404.007 326.216C403.557 326.408 403.429 326.728 403.171 327.048C402.143 328.456 400.407 329.416 398.607 329.48C396.807 329.544 395.007 328.84 393.721 327.496C393.529 327.304 393.271 327.048 393.143 326.92C393.079 326.856 392.886 326.856 392.693 326.856C392.693 326.92 392.564 327.048 392.436 327.112Z" fill="#291410"/>
<path d="M404.2 340.36C403.364 339.784 402.4 339.464 401.307 339.464C400.471 339.464 399.636 339.656 398.8 340.232C396.293 341.832 394.943 345.352 395.907 348.168C396.807 350.664 399.507 352.52 402.143 352.2C402.721 352.136 403.171 352.008 403.686 351.752C405.1 349.384 406.129 346.696 406.9 344.008C406.514 342.536 405.55 341.192 404.2 340.36Z" fill="#9F5D3A"/>
<path d="M394.879 321.16C398.35 319.496 402.4 319.752 405.421 322.056C405.936 322.504 405.421 323.336 404.907 322.888C402.143 320.712 398.479 320.392 395.264 321.992C394.75 322.248 394.236 321.416 394.879 321.16Z" fill="#291410"/>
<path d="M387.1 336.52C387.036 336.328 386.907 336.008 386.843 335.88C385.814 333.448 385.236 330.568 385.686 327.944C385.75 327.688 385.75 327.368 385.686 327.112C385.621 326.856 385.236 326.6 384.979 326.664C384.786 326.728 384.721 327.112 384.721 327.24C384.143 330.696 384.721 334.216 386.264 337.416C386.714 338.184 387.036 338.824 387.164 339.592C387.357 340.36 387.357 341.192 386.907 341.832C386.393 342.6 385.493 342.984 384.529 343.112C383.179 343.304 383.629 344.136 384.721 344.456C385.621 344.648 386.714 344.392 387.229 343.624C388.129 342.6 388.386 341.128 388.064 339.784C388.129 338.504 387.614 337.544 387.1 336.52Z" fill="#291410"/>
<path d="M388.386 350.6C388.193 350.664 387.936 350.856 387.807 351.112C386.971 351.944 385.814 352.456 384.593 352.52C383.436 352.584 382.214 352.072 381.25 351.368C380.993 351.176 380.736 350.856 380.414 350.792C379 350.536 380.607 352.712 380.929 352.968C381.7 353.736 382.6 354.312 383.693 354.504C385.364 354.952 387.293 354.248 388.321 352.84C388.771 352.328 388.964 351.688 388.964 351.176C388.964 351.112 388.964 350.92 388.9 350.728C388.9 350.408 388.514 350.408 388.386 350.6Z" fill="#291410"/>
<path d="M380.929 298.12C380.929 297.928 380.864 297.672 380.671 297.608C380.414 297.544 380.093 297.608 379.9 297.8C379 298.44 378.1 299.336 377.457 300.232C376.943 300.808 376.621 301.512 376.3 302.152C375.593 303.944 375.721 305.928 376.236 307.784C376.686 309.064 377.136 310.28 377.264 311.624C377.264 313.224 376.429 314.696 375.079 315.464C374.307 316.04 373.471 315.976 372.893 315.016C372.314 314.248 372.829 313.48 372.443 312.84C372.25 312.392 371.607 312.648 371.286 312.904C370 314.248 370.643 316.168 372.314 316.744C373.15 317 374.243 316.808 375.079 316.68C378.421 315.848 381.507 313.416 382.279 310.088C383.114 306.312 380.929 302.472 380.993 298.504C381.057 298.376 381.057 298.248 380.929 298.12Z" fill="#D8C19E"/>
<path d="M477.486 454.28C467.714 479.24 461.286 505.224 459.871 532.104C459.871 532.744 460.771 532.744 460.771 532.104C462.186 506.12 468.1 481.096 477.486 456.84V454.28Z" fill="#68422D"/>
<path d="M472.279 450.632L472.214 450.568C472.021 450.504 471.7 450.568 471.636 450.76C471.571 450.952 471.443 451.208 471.443 451.336C471.186 453.448 471.186 455.56 471.636 457.544C472.15 459.656 473.05 461.32 474.143 463.176C474.207 463.24 474.336 463.368 474.4 463.368C474.657 463.432 474.85 463.112 474.85 462.792C475.3 458.632 474.336 454.472 472.407 450.824C472.343 450.888 472.343 450.696 472.279 450.632Z" fill="#68422D"/>
<path d="M477.486 458.888C476.907 459.464 476.329 460.168 475.879 460.872C475.621 461.384 475.3 461.768 475.043 462.28C474.85 462.792 474.464 463.304 475.3 463.176C476.071 463.112 476.843 462.728 477.486 462.344V458.888Z" fill="#68422D"/>
<path d="M359.329 447.176C359.264 446.536 358.3 446.728 358.429 447.432C364.086 473.608 366.079 500.488 364.6 527.24C364.6 527.88 365.5 527.88 365.5 527.24C367.107 500.424 364.986 473.48 359.329 447.176Z" fill="#68422D"/>
<path d="M367.621 443.272C369.614 441.928 367.814 439.048 367.043 437.512C364.664 432.456 360.1 436.232 358.107 439.88C358.107 438.856 358.107 437.768 358.043 436.808C357.979 435.784 357.979 434.44 357.4 433.608C356.5 432.072 354.121 432.584 352.707 433.032C351.1 433.544 349.493 434.824 349.75 436.744C349.943 437.512 350.393 438.088 351.036 438.664C351.807 439.496 352.643 440.328 353.479 441.16C351.807 440.712 349.75 440.584 348.336 441.16C346.343 441.928 346.793 444.872 346.921 446.536C347.114 451.208 351.421 449.032 354.314 447.112C352.964 448.392 351.55 449.544 351.357 451.464C351.164 453.384 352.643 454.472 354.25 454.984C356.05 455.56 357.85 455.56 358.621 453.576C359.2 452.168 359.264 450.568 359.2 448.904C360.871 452.104 363.443 455.304 366.271 451.784C367.429 450.376 368.65 448.264 367.107 446.664C366.464 445.896 365.307 445.512 364.343 445.256C363.314 444.808 362.35 444.616 361.321 444.36C362.607 444.296 363.7 444.168 364.921 444.104C365.693 443.72 366.85 443.72 367.621 443.272Z" fill="#C1A073"/>
<path d="M360.421 443.272C360.357 442.76 359.971 442.44 359.779 441.992C359.329 441.544 358.879 441.352 358.364 441.224C357.529 441.032 356.564 441.16 355.857 441.672C354.057 442.824 354.25 445.448 356.05 446.6C356.886 447.176 358.171 447.176 359.071 446.664C359.971 446.152 360.679 445.256 360.679 444.168C360.614 443.848 360.55 443.592 360.421 443.272Z" fill="#9F5D3A"/>
<path d="M347.436 527.816C343.707 493.704 338.436 459.656 331.429 426.056C331.236 425.16 329.821 425.48 330.014 426.504C336.893 460.04 342.293 493.896 345.893 527.816C346.086 528.776 347.564 528.776 347.436 527.816Z" fill="#645D33"/>
<path d="M349.429 453.704C349.236 453.704 348.979 453.768 348.85 453.896C345.829 455.24 343.193 457.48 341.457 460.36C340.814 461.256 337.086 468.552 338.693 469C339.143 469.064 339.464 468.936 339.721 468.808C345.379 466.376 349.429 460.936 350.329 454.92C350.329 454.664 350.393 454.344 350.264 454.088C350.071 453.64 349.814 453.64 349.429 453.704Z" fill="#645D33"/>
<path d="M353.029 495.752C352.836 495.816 352.579 495.944 352.45 496.008C349.686 497.8 347.5 500.552 346.214 503.56C345.7 504.584 343.193 512.392 344.864 512.52C345.314 512.52 345.636 512.328 345.893 512.072C351.036 508.808 354.186 502.664 354.057 496.648C354.057 496.392 354.057 496.072 353.864 495.816C353.736 495.624 353.35 495.624 353.029 495.752Z" fill="#645D33"/>
<path d="M330.529 482.632C330.336 482.888 330.464 483.208 330.464 483.464C331.75 489.416 336.121 494.6 341.65 496.904C342.1 496.968 342.421 497.16 342.679 497.096C344.286 496.584 340.3 489.544 339.529 488.648C337.536 485.96 334.9 483.848 331.879 482.632C331.686 482.568 331.429 482.568 331.3 482.44C331.043 482.376 330.657 482.376 330.529 482.632Z" fill="#645D33"/>
<path d="M346.793 415.304C346.279 415.112 345.764 415.048 345.379 414.792C345.829 414.6 346.15 414.344 346.279 414.024C346.921 413 346.343 411.912 345.379 411.336C343.836 410.504 341.264 410.568 339.657 410.696C339.014 410.696 338.307 410.76 337.664 410.888C338.436 410.376 339.079 409.992 339.786 409.352C340.814 408.52 342.743 406.472 340.814 405.384C340.621 405.32 340.3 405.192 340.043 405.192C338.886 405.128 339.014 405.192 339.4 404.04C339.593 403.272 339.979 402.696 339.4 401.928C338.95 401.416 338.5 401.352 337.857 401.352C337.214 401.416 336.507 402.184 335.929 402.504C335.864 402.568 335.671 402.696 335.479 402.696C334.707 402.696 335.221 401.416 335.221 401.096C335.221 400.456 335.157 399.816 334.643 399.304C333.871 398.472 332.65 398.152 331.621 398.536C330.207 399.112 329.243 400.648 328.471 401.8C327.893 402.696 327.314 403.784 326.929 404.808C326.864 402.824 326.671 400.84 326.286 398.856C325.836 397.256 325 395.592 323.264 395.144C322.493 394.952 321.85 395.08 321.143 395.4C320.371 395.912 320.243 396.808 319.536 397.384C318.25 398.408 316.321 397.448 315.293 398.792C315.036 399.304 314.843 399.816 314.843 400.392C314.843 400.648 315.1 401.224 315.1 401.672C314.843 403.464 313.814 402.824 312.914 402.952C311.5 403.016 310.471 403.784 310.471 405.192C310.407 407.176 312.464 408.456 314.007 409.416C315.357 410.184 316.707 410.824 318.121 411.4C316.129 411.336 314.136 411.336 312.143 411.336C310.471 411.336 308.414 411.528 307.514 413.256C306.936 414.28 307 415.624 308.029 416.456C308.607 416.968 309.379 416.904 309.443 417.736C309.636 418.568 308.993 418.504 308.671 419.08C308.221 419.592 308.093 420.104 308.221 420.744C308.286 421.192 308.736 421.512 309.057 421.64C309.7 422.088 311.05 421.448 310.857 422.28C310.793 422.92 310.021 423.112 310.021 423.944C310.021 424.52 310.471 425.096 310.793 425.352C312.207 426.504 314.329 425.544 315.743 424.84C316.257 424.648 316.643 424.328 317.157 424.2C315.807 426.12 314.971 428.232 314.907 430.664C314.843 432.072 315.1 433.736 316.579 434.184C317.221 434.376 317.607 434.12 318.25 433.928C318.829 433.736 319.6 433.032 320.371 433.48C320.307 433.416 320.95 434.824 320.886 434.824C321.464 435.656 322.493 436.104 323.329 435.336C324.1 434.568 323.393 433.8 324.936 434.056C325.579 434.12 325.707 434.632 326.479 434.504C328.15 434.248 328.279 432.136 328.471 430.728C328.536 429.832 328.536 428.936 328.536 427.976C329.179 429.576 330.207 430.984 331.557 432.008C332.2 432.584 333.357 432.84 334.257 432.648C335.607 432.392 335.543 431.304 335.671 430.216C335.671 430.024 335.736 429.064 336.186 429.32C336.25 429.32 336.25 429.384 336.379 429.384C336.829 429.832 337.021 430.216 337.664 430.28C338.693 430.472 339.014 429.832 339.271 429C339.464 428.424 339.529 427.848 340.171 427.656C340.943 427.4 341.586 427.848 342.293 427.144C343.45 425.992 342.55 424.456 341.714 423.624C341.136 423.048 340.557 422.6 340.043 422.088C340.879 422.28 341.843 422.536 342.743 422.536C344.029 422.536 345.636 422.344 346.214 421C346.857 419.464 345.443 418.312 344.093 418.056C344.929 417.992 346.021 417.8 346.857 417.544C347.5 417.352 348.143 416.968 348.143 416.2C347.886 416.008 347.307 415.56 346.793 415.304Z" fill="#C1A073"/>
<path d="M335.671 416.264C335.736 414.664 334.771 413.384 333.293 413.192C333.486 411.848 333.1 410.44 331.943 409.608C330.593 408.712 328.793 408.776 327.571 409.672C326.221 408.84 324.55 408.136 322.943 409.096C322.043 409.672 321.593 410.696 321.786 411.592C320.95 411.592 320.179 412.04 319.664 412.744C319.021 413.768 319.15 414.984 319.857 415.816C318.957 416.584 318.571 418.056 319.279 419.272C319.857 420.168 320.693 420.68 321.657 420.808C321.4 421.832 321.657 423.048 322.686 423.816C324.357 424.968 326.414 424.328 327.636 422.92C328.793 423.688 330.143 423.752 331.364 423.112C332.714 422.28 333.293 420.68 332.971 419.272C334.321 418.76 335.607 417.736 335.671 416.264Z" fill="#FFC152"/>
<path d="M328.343 412.488C327.314 412.296 326.093 412.552 325.193 413.064C323.65 413.96 323.007 416.008 323.65 417.672C324.293 419.272 326.157 420.36 327.957 419.912C329.629 419.464 331.107 417.928 331.107 416.136C331.107 414.792 330.464 413.64 329.436 412.872C329.114 412.744 328.664 412.552 328.343 412.488Z" fill="#9F5D3A"/>
<path d="M302.5 463.176C300.121 479.048 298.579 494.984 297.871 511.048V515.208C297.871 515.656 297.807 516.04 297.679 516.36C297.486 521.864 297.421 527.368 297.421 532.936C297.421 533.576 298.321 533.576 298.321 532.936C298.321 509.704 299.993 486.408 303.4 463.432C303.529 462.856 302.629 462.6 302.5 463.176Z" fill="#68422D"/>
<path d="M307.064 444.68C307 444.424 306.807 444.04 306.486 444.104C306.293 444.104 306.036 444.296 305.907 444.36C301.021 449.416 301.021 456.712 302.371 463.112C302.436 463.624 302.821 464.008 303.143 463.944C303.4 463.88 303.657 463.496 303.721 463.368C306.1 457.608 307.257 451.272 307.193 445C307.129 445 307.129 444.808 307.064 444.68Z" fill="#68422D"/>
<path d="M301.021 481.864V481.416C300.7 476.296 299.671 471.176 297.871 466.376V479.496C298.386 480.328 299.029 481.096 299.736 481.8C300.186 482.248 300.636 482.44 301.086 482.248C300.893 482.312 301.021 482.12 301.021 481.864Z" fill="#68422D"/>
<path d="M299.286 501.704V501.256C299.093 498.056 298.579 494.856 297.871 491.72V501.512C297.936 501.576 298 501.64 298.064 501.704C298.514 502.152 298.964 502.344 299.414 502.152C299.157 502.024 299.286 501.832 299.286 501.704Z" fill="#68422D"/>
<path d="M298.707 502.024C298.964 502.472 299.607 502.28 300.057 502.024C302.95 500.616 305.007 497.992 306.486 495.176C307.321 493.576 307.9 491.72 308.479 489.992C308.736 489.096 308.993 488.2 309.25 487.24C309.443 486.664 309.829 485.704 309.507 485.128C309.443 484.872 309.057 484.552 308.736 484.616C308.543 484.68 308.479 484.808 308.221 484.872C303.979 489.544 300.829 495.112 298.579 501C298.579 501.064 298.514 501.256 298.514 501.448C298.643 501.704 298.643 501.832 298.707 502.024Z" fill="#68422D"/>
<path d="M298.064 516.36C298.257 516.872 298.9 516.808 299.414 516.552C302.436 515.528 304.814 513.096 306.679 510.536C307.707 509 308.607 507.336 309.379 505.736C309.829 504.904 310.15 504.072 310.536 503.048C310.729 502.472 311.307 501.64 311.114 500.936C311.05 500.68 310.664 500.36 310.471 500.36C310.279 500.36 310.214 500.552 309.957 500.616C305.264 504.84 301.279 509.768 298.321 515.272C298.257 515.336 298.257 515.528 298.129 515.592C297.936 515.912 297.936 516.104 298.064 516.36Z" fill="#68422D"/>
<path d="M300.507 482.12C300.7 482.568 301.279 482.376 301.793 482.184C304.493 481.032 306.486 478.92 308.029 476.424C308.864 475.016 309.571 473.48 310.214 472.008C310.471 471.24 310.793 470.408 311.05 469.64C311.243 469.064 311.629 468.296 311.564 467.72C311.5 467.464 311.114 467.144 310.921 467.208C310.729 467.208 310.664 467.4 310.471 467.464C306.357 471.304 303.079 476.104 300.636 481.16C300.571 481.224 300.571 481.352 300.571 481.608C300.443 481.736 300.443 481.864 300.507 482.12Z" fill="#68422D"/>
<path d="M338.371 528.2C337.343 499.272 328.536 470.792 313.043 446.216C312.85 445.768 312.529 445.576 312.207 445.384C310.793 444.936 311.436 448.84 311.436 449.352C311.5 451.336 311.629 453.32 311.693 455.304C311.886 459.272 312.207 463.176 312.593 467.144C313.364 474.76 314.586 482.312 316.45 489.864C320.05 504.136 326.414 517.96 336.507 528.712C336.957 529.224 337.793 529.544 338.05 529.16C338.371 528.712 338.371 528.456 338.371 528.2Z" fill="#495382"/>
<path d="M332.457 514.696C332.457 514.632 332.457 514.632 332.457 514.504C331.3 505.096 329.436 495.88 326.8 486.856C324.357 478.024 321.657 469.32 317.607 461.128C317.029 459.976 315.421 458.76 315.229 460.872C315.164 461.768 316.129 463.56 316.514 464.456C317.35 466.696 318.121 469.064 318.893 471.432C320.5 476.04 321.914 480.84 323.393 485.512C326.157 494.984 328.6 504.52 330.721 513.992C330.786 514.504 330.914 514.888 331.3 515.272C331.75 515.528 332.2 515.528 332.457 515.208C332.457 515.016 332.457 514.952 332.457 514.696Z" fill="#3F456C"/>
<path d="M319.536 474.184C317.414 473.352 315.293 472.584 313.3 471.752C313.364 472.52 313.493 473.352 313.557 474.12C314.843 474.952 316 475.72 317.35 476.36C318.507 476.936 320.564 478.536 321.914 478.536C322.686 478.536 322.943 477.896 322.814 477.192C322.814 475.08 321.143 474.824 319.536 474.184Z" fill="#3F456C"/>
<path d="M325.514 489.544C322.171 488.008 318.764 486.472 315.421 484.936C315.614 485.704 315.871 486.536 316 487.304C318.893 488.968 321.721 490.824 324.614 492.488C325.193 492.936 326.8 493.32 326.8 492.04C326.8 491.848 326.8 491.592 326.736 491.4C326.479 490.632 326.157 489.672 325.514 489.544Z" fill="#3F456C"/>
<path d="M328.214 501.512C325.193 499.912 322.043 498.504 318.764 497.224C319.214 498.248 319.536 499.336 319.921 500.424C322.814 502.024 325.771 503.624 328.6 505.224C329.114 505.48 330.014 505.992 330.271 505.224C330.336 504.968 330.271 504.648 330.207 504.328C329.821 503.176 328.729 501.768 328.214 501.512Z" fill="#3F456C"/>
<path d="M358.107 530.888C358.107 531.08 358.107 531.4 358.171 531.528C358.621 532.04 359.329 531.592 359.779 531.272C370.257 520.904 377.264 507.4 381.443 493.32C383.629 485.96 385.171 478.408 386.329 470.856C386.907 467.016 387.357 462.984 387.743 459.144C387.936 457.16 388.193 455.176 388.321 453.256C388.386 452.616 389.157 448.904 387.743 449.224C387.293 449.288 387.1 449.736 386.907 449.992C370.386 473.736 360.357 501.96 358.107 530.888Z" fill="#495382"/>
<path d="M364.6 518.024C364.793 518.472 365.371 518.536 365.757 518.216C366.207 517.96 366.271 517.448 366.336 516.936C368.779 507.4 371.671 498.056 374.95 488.712C376.557 484.104 378.164 479.496 380.029 474.824C380.864 472.584 381.829 470.28 382.729 467.976C383.179 467.144 384.271 465.48 384.143 464.456C383.95 462.344 382.343 463.56 381.764 464.648C377.264 472.584 374.371 481.224 371.479 489.864C368.521 498.824 366.271 507.976 364.729 517.256C364.729 517.32 364.729 517.32 364.729 517.448C364.471 517.896 364.471 517.96 364.6 518.024Z" fill="#3F456C"/>
<path d="M379.064 477.704C381.186 476.936 383.371 476.296 385.493 475.528C385.429 476.296 385.236 477.128 385.043 477.896C383.757 478.664 382.536 479.304 381.186 480.008C380.029 480.584 377.907 481.992 376.557 481.992C375.786 481.992 375.657 481.352 375.657 480.584C375.786 478.536 377.393 478.216 379.064 477.704Z" fill="#3F456C"/>
<path d="M372.443 492.68C375.914 491.272 379.257 489.8 382.729 488.392C382.536 489.16 382.279 489.928 382.086 490.76C379.129 492.36 376.236 493.96 373.343 495.688C372.764 496.136 371.157 496.456 371.157 495.176C371.157 494.984 371.157 494.728 371.221 494.536C371.479 493.832 371.929 492.872 372.443 492.68Z" fill="#3F456C"/>
<path d="M436.536 568.648C437.821 539.72 431.329 510.536 417.893 484.872C417.7 484.424 417.443 484.104 417.121 484.04C415.707 483.528 416.093 487.304 416.093 488.008C416.029 489.992 416.029 491.976 415.9 493.96C415.836 497.928 415.836 501.832 415.9 505.8C416.093 513.416 416.671 521.16 418.021 528.712C420.464 543.112 425.671 557.448 434.993 568.968C435.443 569.48 436.15 569.864 436.536 569.48C436.536 569.288 436.536 569.032 436.536 568.648Z" fill="#495382"/>
<path d="M431.779 554.952C431.779 554.888 431.779 554.888 431.779 554.76C431.329 545.288 430.236 536.008 428.436 526.664C426.636 517.768 424.707 508.808 421.3 500.424C420.786 499.144 419.307 497.928 418.921 499.912C418.729 500.744 419.693 502.664 419.821 503.496C420.464 505.864 421.107 508.168 421.75 510.728C423.036 515.4 424 520.264 425.029 525.064C427.021 534.728 428.757 544.328 430.107 554.056C430.171 554.568 430.171 554.952 430.621 555.336C430.879 555.592 431.521 555.784 431.779 555.336C431.779 555.08 431.779 555.016 431.779 554.952Z" fill="#3F456C"/>
<path d="M435.7 531.592C435.7 531.784 435.7 532.104 435.764 532.232C436.214 532.744 436.921 532.296 437.371 531.976C447.914 521.672 454.921 508.168 459.293 494.088C461.543 486.728 463.086 479.24 464.243 471.624C464.821 467.784 465.271 463.752 465.657 459.912C465.85 457.928 466.107 455.944 466.236 454.024C466.3 453.384 467.071 449.672 465.657 449.992C465.207 450.056 465.014 450.504 464.821 450.76C448.236 474.696 438.143 502.792 435.7 531.592C435.764 531.592 435.764 531.592 435.7 531.592Z" fill="#495382"/>
<path d="M442.257 518.856C442.45 519.304 443.029 519.368 443.414 519.048C443.864 518.792 443.929 518.28 443.993 517.896C446.5 508.424 449.393 499.016 452.671 489.736C454.279 485.128 456.014 480.52 457.814 475.912C458.65 473.672 459.614 471.368 460.579 469.128C461.029 468.296 462.121 466.632 461.993 465.608C461.8 463.496 460.193 464.712 459.614 465.8C455.05 473.736 452.093 482.312 449.136 491.016C446.114 499.976 443.8 509.128 442.321 518.408C442.321 518.472 442.321 518.472 442.321 518.6C442.257 518.728 442.257 518.792 442.257 518.856Z" fill="#3F456C"/>
<path d="M456.979 478.536C459.164 477.768 461.286 477.128 463.471 476.36C463.407 477.128 463.214 477.96 462.957 478.728C461.671 479.496 460.45 480.136 459.1 480.84C457.943 481.416 455.757 482.824 454.471 482.824C453.7 482.824 453.571 482.184 453.571 481.416C453.636 479.368 455.243 479.112 456.979 478.536Z" fill="#3F456C"/>
<path d="M450.357 493.576C453.829 492.168 457.171 490.696 460.643 489.416C460.45 490.184 460.193 490.952 460 491.784C457.043 493.384 454.086 494.984 451.257 496.584C450.679 497.032 449.071 497.352 449.071 496.072C449.071 495.88 449.071 495.624 449.136 495.432C449.329 494.728 449.779 493.832 450.357 493.576Z" fill="#3F456C"/>
<path d="M394.879 491.272C393.271 489.992 391.15 491.464 389.929 492.424C388.771 493.256 387.743 494.344 386.907 495.432C387.486 493.768 388.193 491.976 388.836 490.312C390.443 488.712 391.793 486.792 392.629 484.616C393.079 483.72 393.271 482.44 392.629 481.672C392.436 481.416 392.05 481.16 391.729 481.096C391.15 481.032 390.443 481.096 390.057 481.352C389.221 481.864 388.707 482.76 388.45 483.72C387.807 485.832 387.55 487.944 387.807 490.12C386.907 492.616 385.879 495.304 385.043 497.864C385.043 496.264 384.85 494.664 384.271 493.256C383.757 492.104 382.471 490.888 381.121 491.656C379.579 492.488 380.093 494.6 380.543 495.944C381.186 498.056 382.343 499.912 383.886 501.448C383.114 503.688 382.471 505.992 381.764 508.296C381.571 507.016 381.25 505.928 380.736 504.776C380.093 503.368 378.614 501.192 376.75 501.832C372.443 503.24 378.936 510.664 380.736 512.456C380.221 514.568 379.707 516.488 379.321 518.6C378.807 517.192 378.421 515.72 377.714 514.376C377.2 513.544 376.364 512.84 375.464 513.544C373.021 515.336 377.264 518.984 379 520.392C378.421 523.144 377.843 525.832 377.393 528.584C377.329 529.224 378.229 529.416 378.293 528.84C378.807 526.088 379.321 523.4 379.9 520.648C379.964 520.584 380.093 520.584 380.093 520.456C382.536 520.2 384.786 519.432 386.907 518.088C388.064 517.32 390.893 515.592 389.864 513.736C388.836 512.072 386.329 513.672 385.236 514.312C383.307 515.464 381.7 516.808 380.35 518.6C380.864 516.424 381.25 514.312 381.893 512.136C381.957 512.136 382.086 512.072 382.15 511.944C384.336 511.112 386.393 509.832 388.064 508.232C388.9 507.4 391.407 505.288 389.993 504.008C388.643 502.728 386.521 504.584 385.621 505.544C384.593 506.44 383.629 507.528 382.857 508.616C383.757 505.416 384.786 502.088 385.814 498.888C385.814 498.888 385.879 498.888 385.879 498.824C387.421 498.056 388.9 497.224 390.443 496.456C391.793 495.816 393.4 495.112 394.686 494.216C395.521 493.832 396.036 492.232 394.879 491.272Z" fill="#68422D"/>
<path d="M449.136 500.936C450.486 501.704 452.157 501.96 453.636 502.472C455.243 503.048 456.85 503.496 458.521 504.072C458.521 504.072 458.586 504.072 458.586 504.136C460.193 507.144 461.607 510.152 463.086 513.16C462.186 512.136 461.093 511.176 459.871 510.472C458.714 509.832 456.4 508.296 455.307 509.704C454.021 511.24 456.85 512.904 457.75 513.544C459.743 514.888 461.993 515.72 464.243 516.232C464.307 516.296 464.436 516.424 464.693 516.424C465.529 518.408 466.364 520.456 467.2 522.44C465.593 521.032 463.729 519.752 461.736 518.984C460.45 518.472 457.879 517.384 457.107 519.176C456.336 521.096 459.357 522.376 460.707 522.952C462.957 523.848 465.336 524.296 467.843 524.232C467.907 524.296 468.036 524.424 468.1 524.424C469.129 526.92 470.093 529.608 470.993 532.296C471.186 532.872 472.15 532.488 471.829 531.848C470.929 529.16 469.9 526.536 468.936 523.912C470.35 522.312 474.079 517.96 471.314 516.552C470.286 516.04 469.514 516.808 469.193 517.832C468.679 519.24 468.55 520.712 468.293 522.184C467.521 520.2 466.686 518.344 465.85 516.424C467.264 514.248 472.536 505.928 468.036 505.288C466.043 505.032 465.014 507.272 464.5 508.808C464.05 510.088 463.986 511.24 463.986 512.52C462.957 510.344 461.993 508.168 460.836 506.056C462.121 504.264 462.957 502.216 463.279 500.04C463.471 498.696 463.729 496.52 461.929 496.008C460.514 495.496 459.421 496.84 459.036 498.12C458.586 499.656 458.779 501.192 459.036 502.792C457.686 500.36 456.336 497.992 455.05 495.56C455.05 493.384 454.407 491.272 453.443 489.416C452.993 488.584 452.414 487.752 451.514 487.304C450.936 487.112 450.229 487.048 449.843 487.304C449.393 487.368 449.2 487.752 449.007 487.944C448.493 488.776 448.943 489.928 449.521 490.888C450.807 492.872 452.286 494.6 454.15 495.816C455.05 497.416 455.95 498.888 456.85 500.488C455.821 499.592 454.664 498.696 453.314 497.992C451.9 497.224 449.586 496.072 448.236 497.544C447.079 498.76 447.914 500.232 449.136 500.936Z" fill="#68422D"/>
<path d="M406 507.72C408.121 499.784 409.536 491.848 410.564 483.72C410.629 483.08 409.664 483.08 409.664 483.72C408.764 491.208 407.414 498.568 405.55 505.928C404.136 497.864 402.014 489.928 399.379 482.12C399.186 481.544 398.221 481.672 398.479 482.376C401.757 492.04 404.2 501.832 405.614 511.88C403.364 508.296 400.471 505.096 397 502.408C396.486 501.96 395.714 502.664 396.357 503.048C400.343 506.056 403.493 509.832 405.871 514.312C406.45 518.984 406.771 523.72 407.029 528.392C407.029 529.032 408.057 529.032 407.929 528.392C407.671 521.544 407.029 514.696 405.807 507.848C405.871 507.976 406 507.912 406 507.72Z" fill="#645D33"/>
<path d="M398.093 475.72C392.693 475.72 392.693 484.04 398.093 484.04C403.429 483.976 403.429 475.72 398.093 475.72Z" fill="#C1A073"/>
<path d="M410.179 480.136C406.386 480.136 406.386 486.024 410.179 486.024C414.1 486.024 414.1 480.136 410.179 480.136Z" fill="#C1A073"/>
<path d="M396.293 500.424C392.757 500.424 392.757 505.8 396.293 505.8C399.636 505.864 399.636 500.424 396.293 500.424Z" fill="#C1A073"/>
<path d="M313.621 516.872C313.043 508.744 312.979 500.616 313.429 492.36C313.429 491.72 314.457 491.848 314.329 492.552C313.814 500.104 313.879 507.592 314.393 515.08C317.286 507.464 320.629 499.976 324.743 492.808C325 492.232 326.029 492.744 325.579 493.256C320.629 502.152 316.579 511.368 313.236 521.032C316.129 517.832 319.471 515.272 323.329 513.288C323.907 513.032 324.486 513.8 323.907 514.12C319.407 516.488 315.614 519.56 312.529 523.528C311.114 528.072 309.829 532.552 308.929 537.224C308.864 537.864 307.771 537.736 308.029 537.032C309.443 530.312 311.5 523.72 313.75 517.256C313.621 517.128 313.621 517 313.621 516.872Z" fill="#645D33"/>
<path d="M327.121 486.664C332.457 487.56 330.914 495.816 325.579 494.856C320.307 493.96 321.85 485.64 327.121 486.664Z" fill="#C1A073"/>
<path d="M314.329 488.968C318.057 489.608 317.029 495.432 313.3 494.728C309.507 494.024 310.6 488.264 314.329 488.968Z" fill="#C1A073"/>
<path d="M376.3 441.8C365.179 468.36 357.079 496.072 352.129 524.296C352.064 524.936 352.964 525.128 353.029 524.552C357.979 496.2 366.207 468.552 377.2 442.056C377.457 441.48 376.557 441.288 376.3 441.8Z" fill="#645D33"/>
<path d="M382.536 436.36C381.893 435.784 380.607 435.208 380.286 434.952C378.936 434.312 377.521 433.928 375.979 434.056C374.629 434.056 375.336 436.552 375.4 437.576C375.464 439.24 375.593 441.032 375.657 442.696C375.657 442.952 375.721 443.336 376.107 443.464C376.364 443.528 376.621 443.4 376.75 443.208C378.743 441.288 380.736 439.496 382.729 437.576C382.793 437.512 382.986 437.32 382.986 437.064C383.05 436.872 382.793 436.616 382.536 436.36Z" fill="#645D33"/>
<path d="M398.736 433.288C396.486 432.392 393.657 432.264 391.086 432.52C394.943 430.536 399.957 426.76 396.807 423.112C395.2 421.32 392.307 422.216 390.379 422.92C388.707 423.688 387.164 424.712 385.879 425.992C387.871 421.448 389.671 414.6 383.95 414.152C380.993 413.96 378.614 416.584 377.457 419.08C376.3 421.32 376.043 423.88 376.429 426.376C374.757 423.624 373.214 420.936 371.221 418.44C369.871 416.776 367.75 415.56 365.757 416.776C359.843 419.784 365.307 427.016 368.2 429.832C372.7 434.248 378.486 437.448 384.529 439.24C387.679 440.072 390.957 440.648 394.171 440.776C396.55 440.84 399.379 440.84 400.857 438.664C402.271 436.36 400.857 434.12 398.736 433.288Z" fill="#C1A073"/>
<path d="M380.543 461.448C380.286 461 379.9 460.68 379.386 460.616C378.55 460.36 377.586 460.68 376.879 461.192C375.271 462.088 373.986 463.56 372.764 464.968C370.321 467.912 368.136 471.176 366.079 474.44C365.307 475.72 364.536 476.936 363.893 478.216C363.636 478.728 361.707 481.48 362.993 481.736C363.25 481.736 363.507 481.672 363.764 481.544C369.1 478.856 373.536 474.824 377.329 470.28C378.614 468.744 379.771 467.272 380.543 465.48C380.993 464.648 381.186 463.688 381.057 462.728C381.057 462.216 380.864 461.768 380.543 461.448Z" fill="#645D33"/>
<path d="M359.007 495.048C359.007 494.792 359.007 494.408 358.943 494.152C358.171 490.376 357.529 486.536 356.436 482.824C355.857 480.904 355.15 479.112 354.186 477.448C353.543 476.424 352.579 475.336 351.293 475.464C349.493 475.528 349.043 477.576 349.171 478.984C349.429 480.968 350.071 482.76 350.971 484.616C352.771 488.584 355.086 492.36 357.786 495.88C357.979 496.136 358.3 496.392 358.557 496.392C358.621 496.392 358.814 496.328 358.814 496.2C358.943 495.752 359.007 495.496 359.007 495.048Z" fill="#645D33"/>
<path d="M416.607 453C416.607 452.936 416.543 452.744 416.414 452.552C416.221 452.488 415.9 452.488 415.771 452.552C414.871 453.064 413.971 453.448 413.071 454.088C412.3 454.664 411.079 455.624 412.171 456.456C413.457 457.352 414.679 458.376 415.964 459.4C416.221 459.592 416.543 459.848 416.8 459.656C417.25 459.592 417.314 459.016 417.25 458.632C417.314 456.904 417.121 454.984 416.607 453C416.607 453.128 416.607 453.128 416.607 453Z" fill="#645D33"/>
<path d="M418.793 442.824C418.6 440.136 418.15 435.848 415.064 434.76C412.686 433.992 411.079 436.04 410.693 438.216C410.243 440.392 410.5 442.632 410.95 444.808C410.371 443.976 409.793 443.144 409.15 442.312C408.314 441.16 406.643 438.856 404.843 440.072C403.236 441.096 404.264 443.336 404.843 444.68C405.421 446.024 406.193 447.176 406.964 448.456C404.971 447.048 402.464 445.96 400.471 446.344C397.579 446.984 399.057 449.416 400.407 450.888C404.136 454.856 411.593 460.04 416.286 454.152C418.793 451.144 419.05 446.536 418.793 442.824Z" fill="#C1A073"/>
<path d="M416.864 458.44C416.607 457.864 415.707 458.376 416.029 458.952C426.636 482.76 433.257 508.168 435.314 534.152C435.379 534.792 436.343 534.792 436.214 534.152C434.35 507.976 427.664 482.376 416.864 458.44Z" fill="#645D33"/>
<path d="M424.9 479.88C424.9 479.816 424.9 479.816 424.836 479.688C424.321 478.344 423.421 477.192 422.393 476.168C421.364 475.272 420.143 474.376 418.857 473.672C417.057 472.52 415.129 471.496 413.007 471.24C412.364 471.176 411.657 471.176 411.079 471.432C409.086 472.264 410.307 474.376 411.529 475.272C415.064 478.28 419.564 480.2 424.064 480.648C424.321 480.648 424.707 480.648 424.9 480.392C424.9 480.2 424.9 480.072 424.9 479.88Z" fill="#645D33"/>
<path d="M435.571 473.992C435.507 473.992 435.379 473.928 435.121 473.928C434.221 473.736 433.321 474.184 432.679 474.952C431.971 475.592 431.779 476.488 431.329 477.32C429.336 482.696 428.629 488.456 429.079 494.152C429.079 494.664 429.271 495.176 429.786 495.176C430.043 495.176 430.364 494.92 430.429 494.6C432.421 491.592 434.029 488.392 435.507 485.064C436.407 482.888 437.307 480.648 437.5 478.28C437.564 477.384 437.5 476.36 437.243 475.528C436.857 474.952 436.279 474.248 435.571 473.992Z" fill="#645D33"/>
<path d="M433.9 515.848C433.257 514.824 432.357 513.864 431.521 512.904C428.629 509.704 425.607 506.696 422.521 503.752C421.107 502.408 419.564 501.064 417.957 499.976C417.186 499.4 416.35 498.952 415.45 498.952C413.2 498.952 413.071 501.192 414.1 502.664C418.793 509.064 425.8 513.48 433.257 516.488C433.45 516.552 433.707 516.68 433.836 516.552C434.029 516.552 434.286 516.36 434.286 516.104C434.157 516.296 434.093 516.04 433.9 515.848C433.9 515.912 433.9 515.912 433.9 515.848Z" fill="#645D33"/>
<path d="M444.443 440.072C438.464 471.24 434.8 502.984 433.643 534.664C433.643 535.56 435.057 535.56 435.186 534.664C436.343 502.984 439.814 471.56 445.793 440.392C446.05 439.56 444.636 439.112 444.443 440.072Z" fill="#68422D"/>
<path d="M441.936 461.448C441.936 461.384 441.871 461.256 441.871 461.192C439.621 456.584 436.729 452.296 433.257 448.456C433.064 448.264 432.807 447.944 432.614 447.944C431.329 447.752 432.614 451.016 432.807 451.656C433.321 453.064 433.964 454.536 434.736 455.688C436.343 458.184 438.529 460.488 441.229 462.088C441.421 462.152 441.486 462.28 441.743 462.28C442 462.088 442 461.704 441.936 461.448Z" fill="#68422D"/>
<path d="M451.579 457.224L451.514 457.288C448.75 459.464 446.307 461.96 444.186 464.776C443.157 466.184 442.193 467.72 441.293 469.192C441.036 469.768 438.85 473.48 439.943 473.544C440.2 473.544 440.521 473.48 440.714 473.288C445.407 470.216 449.136 465.672 451.257 460.36C451.514 459.592 451.836 458.76 452.093 457.928C452.157 457.672 452.286 457.16 451.9 457.032C451.964 457.096 451.836 457.16 451.579 457.224Z" fill="#68422D"/>
<path d="M468.164 412.04C465.207 406.344 457.879 411.528 453.571 415.88C453.636 415.688 453.636 415.432 453.764 415.368C455.05 412.296 456.271 409.224 457.493 406.152C458.136 404.488 458.65 402.44 456.979 401.096C455.307 399.752 452.029 399.688 449.907 399.496C448.364 399.432 446.693 399.496 446.05 401.096C445.15 403.272 445.986 406.856 446.243 409.16C446.5 411.848 447.014 414.344 447.529 417.032C445.6 413.256 443.286 409.16 440.2 406.472C437.243 403.976 434.35 405.896 432.293 408.584C429.593 412.04 430.621 414.28 433.643 416.776C436.536 419.144 439.686 420.808 443.286 421.896L438.079 421.832C435.829 421.832 433.45 421.576 431.136 421.832C427.793 422.408 427.536 424.84 428.179 427.72C428.95 430.728 430.621 433.928 434.35 433.096C436.6 432.584 438.593 430.92 440.329 429.576C442.257 428.232 444.121 426.888 446.05 425.608C443.286 429.128 440.714 432.904 438.979 436.936C437.307 440.904 440.264 442.696 443.607 444.168C446.371 445.32 450.164 445.192 451.257 441.992C452.029 439.816 451.514 436.936 451.45 434.632C451.386 432.2 451.257 429.704 451 427.272C453.186 430.28 455.629 433.032 458.521 435.4C460.9 437.384 463.664 438.472 465.657 435.4C467.264 432.904 468.164 429.64 465.4 427.656C462.25 425.416 458.071 423.944 454.214 422.856C458.329 422.664 462.379 421.832 466.171 420.168C469.964 418.504 469.707 415.304 468.164 412.04Z" fill="#C1A073"/>
<path d="M452.221 415.048C451.771 414.984 451.45 414.856 451.064 414.792C449.521 414.6 447.914 414.984 446.564 415.688C441.871 418.568 442.257 426.248 447.914 427.848C450.679 428.616 453.893 427.272 455.243 424.84C455.886 423.496 456.143 421.96 456.079 420.552C456.014 419.272 455.629 418.056 454.921 417.032C454.279 416.136 453.314 415.496 452.221 415.048Z" fill="#FFC152"/>
<path d="M451.129 416.52C449.136 416.52 449.136 419.592 451.129 419.592C453.057 419.656 453.057 416.52 451.129 416.52Z" fill="#9F5D3A"/>
<path d="M446.95 419.208C445.343 419.208 445.343 421.64 446.95 421.64C448.557 421.704 448.557 419.208 446.95 419.208Z" fill="#9F5D3A"/>
<path d="M448.493 422.856C445.729 422.856 445.6 427.208 448.493 427.208C451.257 427.144 451.257 422.856 448.493 422.856Z" fill="#9F5D3A"/>
<path d="M453.571 419.336C451.579 419.336 451.579 422.408 453.571 422.408C455.564 422.344 455.564 419.336 453.571 419.336Z" fill="#9F5D3A"/>
<path d="M452.8 423.624C451.514 423.624 451.514 425.544 452.8 425.544C454.086 425.544 454.086 423.624 452.8 423.624Z" fill="#9F5D3A"/>
<path d="M477.486 496.392C476.264 489.672 474.721 482.952 472.729 476.424C472.536 475.848 471.571 475.976 471.829 476.68C474.271 485.128 476.2 493.768 477.486 502.472V496.392Z" fill="#645D33"/>
<path d="M469.579 466.056C469.579 466.056 469.579 465.992 469.579 466.056C469.514 465.864 469.321 465.8 469.129 465.864C469.064 465.864 468.936 466.056 468.936 466.12C468.357 470.152 469.129 474.248 472.086 477.384C472.15 477.448 472.343 477.576 472.536 477.448C472.6 477.448 472.6 477.384 472.6 477.256C473.436 473.352 472.214 469.064 469.579 466.056Z" fill="#645D33"/>
<path d="M467.714 484.168C467.714 484.168 467.65 484.104 467.714 484.168C467.521 484.104 467.264 484.104 467.264 484.168C467.2 484.232 467.2 484.424 467.264 484.616C468.936 488.392 471.764 491.4 475.943 492.36C476.136 492.36 476.393 492.36 476.393 492.296C476.393 492.232 476.393 492.104 476.393 492.104C474.85 488.264 471.507 485.32 467.714 484.168Z" fill="#645D33"/>
<path d="M477.486 502.92C475.75 500.232 473.114 498.184 470.093 497.48C469.9 497.48 469.836 497.416 469.643 497.48C469.579 497.544 469.643 497.672 469.643 497.928C471.25 501.256 473.821 503.752 477.486 504.648V502.92Z" fill="#645D33"/>
<path d="M477.486 482.952C476.007 485.512 475.429 488.648 475.879 491.528C475.879 491.592 475.879 491.72 475.943 491.72C476.007 491.784 476.2 491.72 476.393 491.656C476.779 491.272 477.164 490.888 477.486 490.44V482.952Z" fill="#645D33"/>
<path d="M426.636 332.168C426.636 332.104 426.636 331.976 426.571 331.976C425.221 331.528 423.871 331.208 422.586 330.824C423.164 330.312 423.614 329.928 424.193 329.416C424.386 329.224 424.129 328.904 423.936 329.16C423.357 329.672 422.779 330.184 422.264 330.696C422.071 329.352 422.007 328.008 421.75 326.728C421.75 326.664 421.686 326.536 421.557 326.536C421.493 326.472 421.3 326.472 421.3 326.6C421.043 328.008 420.721 329.48 420.529 330.76C420.014 330.184 419.629 329.608 418.986 329.096C418.793 328.904 418.471 329.16 418.729 329.352C419.243 329.928 419.629 330.376 420.143 330.952C418.793 331.144 417.379 331.4 416.029 331.528C415.836 331.528 415.836 331.72 415.964 331.784C415.964 331.848 415.964 331.976 416.029 331.976C417.443 332.424 418.921 332.616 420.336 333C419.886 333.576 419.564 334.024 419.179 334.6C418.986 334.792 419.371 335.048 419.629 334.792C420.079 334.28 420.4 333.768 420.657 333.256L421.429 336.776V336.84C421.493 337.032 421.943 336.904 421.879 336.776L422.714 333.512C423.164 334.024 423.486 334.344 423.743 334.856C423.936 335.048 424.257 334.792 424 334.6C423.55 334.088 423.164 333.576 422.714 333.064C424.064 332.872 425.221 332.616 426.571 332.424C426.636 332.296 426.636 332.232 426.636 332.168Z" fill="#C1A073"/>
<path d="M338.693 376.392C338.693 376.328 338.693 376.2 338.629 376.2C337.279 375.752 335.929 375.432 334.643 375.048C335.221 374.536 335.671 374.152 336.25 373.64C336.443 373.448 336.186 373.128 335.993 373.384C335.414 373.896 334.836 374.408 334.321 374.92C334.129 373.576 334.064 372.232 333.807 370.952C333.807 370.888 333.743 370.76 333.614 370.76C333.55 370.696 333.357 370.696 333.357 370.824C333.1 372.232 332.779 373.704 332.586 375.048C332.071 374.472 331.686 373.896 331.043 373.384C330.85 373.192 330.529 373.448 330.786 373.64C331.3 374.216 331.686 374.664 332.2 375.24C330.85 375.432 329.436 375.688 328.086 375.816C327.893 375.816 327.893 376.008 328.021 376.072C328.021 376.136 328.021 376.264 328.086 376.264C329.5 376.712 330.979 376.904 332.393 377.288C331.943 377.864 331.621 378.312 331.236 378.888C331.043 379.08 331.429 379.336 331.686 379.08C332.136 378.568 332.457 378.056 332.714 377.544L333.486 381.064V381.128C333.55 381.32 334 381.192 333.936 381.064L334.771 377.8C335.221 378.312 335.543 378.632 335.8 379.144C335.993 379.336 336.314 379.08 336.057 378.888C335.607 378.376 335.221 377.864 334.771 377.352C336.121 377.16 337.279 376.904 338.629 376.712C338.693 376.648 338.693 376.584 338.693 376.392Z" fill="#C1A073"/>
<path d="M439.364 392.712C439.364 392.648 439.364 392.52 439.3 392.52C437.95 392.072 436.6 391.752 435.314 391.368C435.893 390.856 436.343 390.472 436.921 389.96C437.114 389.768 436.857 389.448 436.664 389.704C436.086 390.216 435.507 390.728 434.993 391.24C434.8 389.896 434.736 388.552 434.479 387.272C434.479 387.208 434.414 387.08 434.286 387.08C434.221 387.016 434.029 387.016 434.029 387.144C433.771 388.552 433.45 390.024 433.257 391.368C432.743 390.792 432.357 390.216 431.714 389.704C431.521 389.512 431.2 389.768 431.457 389.96C431.971 390.536 432.357 390.984 432.871 391.56C431.521 391.752 430.107 392.008 428.757 392.136C428.564 392.136 428.564 392.328 428.693 392.392C428.693 392.456 428.693 392.584 428.757 392.584C430.171 393.032 431.65 393.224 433.064 393.608C432.614 394.184 432.293 394.632 431.907 395.208C431.714 395.4 432.1 395.656 432.357 395.4C432.807 394.888 433.129 394.376 433.386 393.864L434.157 397.384V397.448C434.221 397.64 434.671 397.512 434.607 397.384L435.443 394.12C435.893 394.632 436.214 394.952 436.471 395.464C436.664 395.656 436.986 395.4 436.729 395.208C436.279 394.696 435.893 394.184 435.443 393.672C436.793 393.48 437.95 393.224 439.3 393.032C439.364 392.904 439.364 392.776 439.364 392.712Z" fill="#C1A073"/>
<path d="M374.371 290.952C372.25 291.208 370.064 291.592 367.943 291.848C367.429 290.44 367.107 288.968 366.593 287.56C366.593 287.496 366.529 287.368 366.4 287.368C366.336 287.176 365.886 286.92 365.821 287.304C365.179 288.648 364.471 289.992 363.829 291.144H358.107C358.043 291.144 358.043 291.144 357.914 291.144C357.721 291.208 357.464 291.592 357.85 291.656L362.35 295.624C361.193 297.416 359.971 299.336 358.814 301.064C358.75 301.256 358.814 301.512 358.879 301.576C358.943 301.768 359.136 301.832 359.393 301.768C361.771 300.168 364.086 298.568 366.529 296.84C367.686 298.184 369.229 299.528 370.643 300.424C371.221 300.872 372.314 301.576 371.993 300.36C371.414 298.44 370.643 296.52 369.807 294.664C371.414 293.512 373.021 292.424 374.693 291.208C374.693 291.208 374.693 291.208 374.757 291.144C374.95 291.464 374.757 290.952 374.371 290.952Z" fill="#C1A073"/>
<path d="M433.579 349.576C431.779 349.832 430.043 350.152 428.243 350.344C427.793 349.192 427.471 347.976 427.086 346.824C427.086 346.76 427.021 346.76 427.021 346.632C426.957 346.44 426.571 346.376 426.507 346.568C425.929 347.592 425.35 348.744 424.836 349.768H420.143C420.079 349.768 420.079 349.768 420.079 349.768C419.886 349.832 419.821 350.024 420.014 350.28L423.743 353.544C422.843 355.08 421.75 356.552 420.786 358.088C420.721 358.28 420.786 358.344 420.85 358.408C420.914 358.472 421.043 358.6 421.3 358.472C423.293 357.128 425.286 355.72 427.279 354.44C428.179 355.592 429.464 356.616 430.75 357.448C431.264 357.704 432.164 358.344 431.907 357.384C431.393 355.784 430.75 354.184 430.107 352.712C431.457 351.816 432.807 350.792 434.221 349.832C434.221 349.832 434.221 349.832 434.286 349.768C434.093 350.024 433.836 349.512 433.579 349.576Z" fill="#C1A073"/>
<path d="M366.464 365.768C364.664 366.024 362.929 366.344 361.129 366.536C360.679 365.384 360.357 364.168 359.971 363.016C359.971 362.952 359.907 362.952 359.907 362.824C359.843 362.632 359.457 362.568 359.393 362.76C358.814 363.784 358.236 364.936 357.721 365.96H353.029C352.964 365.96 352.964 365.96 352.964 365.96C352.771 366.024 352.707 366.216 352.9 366.472L356.629 369.736C355.729 371.272 354.636 372.744 353.671 374.28C353.607 374.472 353.671 374.536 353.736 374.728C353.8 374.792 353.929 374.92 354.186 374.792C356.179 373.448 358.171 372.04 360.164 370.76C361.064 371.912 362.35 372.936 363.636 373.768C364.15 374.024 365.05 374.664 364.793 373.704C364.279 372.104 363.636 370.504 362.993 369.032C364.343 368.136 365.693 367.112 367.107 366.152C367.107 366.152 367.107 366.152 367.171 366.088C366.914 366.216 366.85 365.768 366.464 365.768Z" fill="#C1A073"/>
<path d="M423.421 377.032C421.493 376.84 419.693 376.52 417.764 376.392C416.993 374.024 416.157 371.72 415.386 369.288C415.386 369.224 415.321 369.224 415.321 369.096C415.257 368.904 414.807 368.904 414.743 369.16L412.493 376.904C410.564 377.48 408.636 377.928 406.579 378.248C406.514 378.248 406.514 378.248 406.386 378.248C405.936 378.312 405.936 378.888 406.386 378.888H406.45C408.121 379.4 409.793 379.784 411.529 380.232C410.95 382.408 410.371 384.584 409.857 386.76C409.793 387.208 410.307 387.336 410.436 387.016C410.5 387.016 410.5 387.016 410.629 386.952C412.171 385.032 413.779 383.112 415.257 381.192C416.864 382.728 418.536 384.264 420.207 385.8C420.464 386.056 420.914 385.736 420.786 385.352C420.786 385.288 420.786 385.288 420.786 385.16C419.95 383.176 419.179 381.192 418.343 379.208C420.014 378.632 421.879 378.184 423.55 377.608C423.614 377.608 423.743 377.544 423.743 377.416C423.871 377.48 423.807 377.096 423.421 377.032Z" fill="#C1A073"/>
<path fill-rule="evenodd" clip-rule="evenodd" d="M351.679 309.896C349.557 309.896 349.557 313.096 351.679 313.096C353.8 313.096 353.8 309.896 351.679 309.896Z" fill="#C1A073"/>
<path fill-rule="evenodd" clip-rule="evenodd" d="M371.479 282.504C369.357 282.504 369.357 285.704 371.479 285.704C373.6 285.704 373.6 282.504 371.479 282.504Z" fill="#C1A073"/>
<path fill-rule="evenodd" clip-rule="evenodd" d="M382.471 285.704C380.35 285.704 380.35 288.904 382.471 288.904C384.593 288.904 384.593 285.704 382.471 285.704Z" fill="#C1A073"/>
<path fill-rule="evenodd" clip-rule="evenodd" d="M342.293 341.512C340.171 341.512 340.171 344.712 342.293 344.712C344.414 344.776 344.414 341.512 342.293 341.512Z" fill="#C1A073"/>
<path fill-rule="evenodd" clip-rule="evenodd" d="M403.3 284.104C401.179 284.104 401.179 287.304 403.3 287.304C405.421 287.304 405.421 284.104 403.3 284.104Z" fill="#C1A073"/>
<path fill-rule="evenodd" clip-rule="evenodd" d="M400.086 297.608C397.964 297.608 397.964 300.808 400.086 300.808C402.207 300.872 402.207 297.608 400.086 297.608Z" fill="#C1A073"/>
<path fill-rule="evenodd" clip-rule="evenodd" d="M413.65 305.672C411.529 305.672 411.529 308.872 413.65 308.872C415.771 308.808 415.771 305.672 413.65 305.672Z" fill="#C1A073"/>
<path fill-rule="evenodd" clip-rule="evenodd" d="M342.293 362.184C340.171 362.184 340.171 365.384 342.293 365.384C344.414 365.448 344.414 362.184 342.293 362.184Z" fill="#C1A073"/>
<path fill-rule="evenodd" clip-rule="evenodd" d="M350.071 352.968C347.95 352.968 347.95 356.168 350.071 356.168C352.193 356.104 352.193 352.968 350.071 352.968Z" fill="#C1A073"/>
<path fill-rule="evenodd" clip-rule="evenodd" d="M440.393 367.432C438.271 367.432 438.271 370.632 440.393 370.632C442.514 370.632 442.514 367.432 440.393 367.432Z" fill="#C1A073"/>
<path fill-rule="evenodd" clip-rule="evenodd" d="M446.243 390.6C444.121 390.6 444.121 393.8 446.243 393.8C448.3 393.8 448.3 390.6 446.243 390.6Z" fill="#C1A073"/>
<path fill-rule="evenodd" clip-rule="evenodd" d="M423.679 395.976C421.557 395.976 421.557 399.176 423.679 399.176C425.8 399.112 425.736 395.976 423.679 395.976Z" fill="#C1A073"/>
<path fill-rule="evenodd" clip-rule="evenodd" d="M404.714 364.36C402.593 364.36 402.593 367.56 404.714 367.56C406.836 367.56 406.836 364.36 404.714 364.36Z" fill="#C1A073"/>
<path fill-rule="evenodd" clip-rule="evenodd" d="M415.257 413.32C413.136 413.32 413.136 416.52 415.257 416.52C417.379 416.52 417.379 413.32 415.257 413.32Z" fill="#C1A073"/>
<path fill-rule="evenodd" clip-rule="evenodd" d="M454.986 448.456C452.864 448.456 452.864 451.656 454.986 451.656C457.107 451.72 457.107 448.456 454.986 448.456Z" fill="#C1A073"/>
<path fill-rule="evenodd" clip-rule="evenodd" d="M474.271 430.088C472.15 430.088 472.15 433.288 474.271 433.288C476.393 433.288 476.393 430.088 474.271 430.088Z" fill="#C1A073"/>
<path fill-rule="evenodd" clip-rule="evenodd" d="M428.436 439.496C426.314 439.496 426.314 442.696 428.436 442.696C430.557 442.76 430.557 439.496 428.436 439.496Z" fill="#C1A073"/>
<path fill-rule="evenodd" clip-rule="evenodd" d="M425.286 453.384C423.164 453.384 423.164 456.584 425.286 456.584C427.214 456.584 427.407 453.384 425.286 453.384Z" fill="#C1A073"/>
<path fill-rule="evenodd" clip-rule="evenodd" d="M331.621 462.856C329.5 462.856 329.5 466.056 331.621 466.056C333.743 466.056 333.743 462.856 331.621 462.856Z" fill="#C1A073"/>
<path fill-rule="evenodd" clip-rule="evenodd" d="M353.543 421.384C351.421 421.384 351.421 424.584 353.543 424.584C355.664 424.52 355.664 421.384 353.543 421.384Z" fill="#C1A073"/>
<path fill-rule="evenodd" clip-rule="evenodd" d="M321.079 445.256C318.957 445.256 318.957 448.456 321.079 448.456C323.2 448.456 323.2 445.256 321.079 445.256Z" fill="#C1A073"/>
<path fill-rule="evenodd" clip-rule="evenodd" d="M298.386 422.92C298.193 422.92 298 422.984 297.871 422.984V425.992C298 426.12 298.193 426.12 298.386 426.12C300.507 426.12 300.507 422.92 298.386 422.92Z" fill="#C1A073"/>
<path fill-rule="evenodd" clip-rule="evenodd" d="M337.536 391.24C335.414 391.24 335.414 394.44 337.536 394.44C339.593 394.504 339.593 391.24 337.536 391.24Z" fill="#C1A073"/>
<path fill-rule="evenodd" clip-rule="evenodd" d="M346.986 385.224C344.864 385.224 344.864 388.424 346.986 388.424C349.043 388.488 349.043 385.224 346.986 385.224Z" fill="#C1A073"/>
<path fill-rule="evenodd" clip-rule="evenodd" d="M319.471 382.28C317.35 382.28 317.35 385.48 319.471 385.48C321.593 385.544 321.593 382.28 319.471 382.28Z" fill="#C1A073"/>
<path d="M368.393 337.352C373.536 337.352 377.65 333.192 377.65 328.136C377.65 323.016 373.471 318.92 368.393 318.92C363.314 318.92 359.136 323.08 359.136 328.136C359.136 333.192 363.314 337.352 368.393 337.352Z" stroke="white" stroke-miterlimit="10"/>
<path d="M397.707 335.176C402.85 335.176 406.964 331.208 406.964 326.28C406.964 321.352 402.786 317.384 397.707 317.384C392.564 317.384 388.45 321.352 388.45 326.28C388.45 331.208 392.564 335.176 397.707 335.176Z" stroke="white" stroke-miterlimit="10"/>
<path d="M377.714 328.072L388.45 327.368" stroke="white" stroke-miterlimit="10"/>
</g>
<circle cx="576" cy="399" r="5" fill="#C1A073"/>
<circle cx="257.5" cy="191.5" r="9" stroke="#645D33"/>
<defs>
<filter id="filter0_f" x="0" y="0" width="894" height="893.918" filterUnits="userSpaceOnUse" color-interpolation-filters="sRGB">
<feFlood flood-opacity="0" result="BackgroundImageFix"/>
<feBlend mode="normal" in="SourceGraphic" in2="BackgroundImageFix" result="shape"/>
<feGaussianBlur stdDeviation="100" result="effect1_foregroundBlur"/>
</filter>
<clipPath id="clip0">
<rect width="180" height="256" fill="white" transform="translate(298 245)"/>
</clipPath>
</defs>
</svg>
