<svg width="234" height="320" viewBox="0 0 234 320" fill="none" xmlns="http://www.w3.org/2000/svg">
<g clip-path="url(#clip0)">
<path d="M134.551 201.479C134.389 201.251 134.195 201.089 134 200.894C129.041 196.504 122.979 195.106 116.528 195.497C116.172 195.529 115.815 195.562 115.556 195.789C115.297 196.049 115.264 196.472 115.264 196.83C115.199 202.097 113.806 207.461 110.726 211.753C107.647 216.044 102.752 219.133 97.5008 219.458C92.2496 219.783 86.7715 217.117 84.2755 212.468C83.4328 210.875 82.9141 209.087 81.9741 207.526C81.0341 205.966 79.4133 204.633 77.6305 204.698C76.0097 204.763 74.6807 205.933 73.5138 207.071C71.0178 209.542 68.684 212.24 66.6094 215.101C65.5397 216.565 64.5024 218.515 65.4425 220.076C65.9935 220.986 67.1281 221.441 68.1653 221.344C69.235 221.246 70.1751 220.661 70.8882 219.848C71.7634 218.873 72.4117 217.507 73.6435 217.052C74.8104 216.63 76.107 217.182 76.9822 218.06C77.8574 218.938 78.376 220.076 78.9595 221.149C82.6872 227.976 89.4295 233.081 96.9822 234.771C104.567 236.462 112.833 234.706 119.057 230.057C123.271 226.903 126.512 222.579 128.943 217.93C131.374 213.281 133.028 208.241 134.551 203.202C134.681 202.747 134.81 202.259 134.681 201.804C134.713 201.706 134.648 201.576 134.551 201.479Z" fill="#A86A39"/>
<path d="M89.5592 217.67C87.355 216.467 85.4749 214.711 84.308 212.468C83.4652 210.875 82.9465 209.087 82.0065 207.526C81.0665 205.966 79.4457 204.633 77.6629 204.698C76.0422 204.763 74.7131 205.933 73.5462 207.071C71.0503 209.542 68.7164 212.24 66.6418 215.101C65.5721 216.565 64.5349 218.515 65.4749 220.076C66.0259 220.986 67.1605 221.441 68.1977 221.344C69.2674 221.246 70.2075 220.661 70.9206 219.848C71.7958 218.873 72.4441 217.507 73.6759 217.052C74.8428 216.63 76.1394 217.182 77.0146 218.06C77.8898 218.938 78.4084 220.076 78.9919 221.149C80.1264 223.197 81.5203 225.115 83.141 226.806C84.5673 223.327 86.7391 220.206 89.5592 217.67Z" fill="#495382"/>
<path d="M199.997 252.036C199.932 251.873 199.867 251.743 199.77 251.613C198.862 250.345 196.917 250.507 195.524 251.158C194.13 251.808 192.768 252.783 191.245 252.816C189.656 252.848 188.198 251.808 187.323 250.475C186.415 249.142 185.994 247.581 185.572 246.053C182.59 235.324 179.284 224.693 175.977 214.061C175.815 213.573 175.653 213.021 175.232 212.728C174.94 212.501 174.551 212.436 174.162 212.371C170.953 211.915 167.647 211.98 164.47 212.631C162.363 213.053 160.256 213.769 158.538 215.069C157.922 215.557 156.723 216.467 156.561 217.28C156.366 218.288 157.533 219.881 157.955 220.726C164.697 233.471 171.439 246.216 178.182 258.928C179.219 260.911 180.483 263.057 182.59 263.74C184.276 264.293 186.156 263.772 187.776 263.057C191.374 261.529 194.551 259.156 197.598 256.717C198.408 256.067 199.219 255.384 199.737 254.506C200.159 253.759 200.288 252.816 199.997 252.036Z" fill="#A86A39"/>
<path d="M199.737 254.539C200.159 253.791 200.321 252.816 199.997 252.036C199.932 251.873 199.867 251.743 199.77 251.613C198.862 250.345 196.917 250.507 195.524 251.158C194.13 251.808 192.768 252.783 191.245 252.816C189.656 252.848 188.198 251.808 187.323 250.475C186.415 249.142 185.994 247.581 185.572 246.053C185.151 244.493 184.665 242.932 184.243 241.371C180.71 244.363 176.658 246.476 172.217 247.679C174.195 251.45 176.204 255.222 178.182 258.961C179.219 260.944 180.483 263.09 182.59 263.772C184.276 264.325 186.156 263.805 187.776 263.09C191.374 261.562 194.551 259.188 197.598 256.75C198.408 256.1 199.219 255.449 199.737 254.539Z" fill="#495382"/>
<path d="M188.068 200.048C187.42 194.846 185.507 189.839 182.914 185.255C179.867 179.891 175.945 175.046 171.925 170.365C171.536 169.942 171.148 169.487 170.596 169.292C170.045 169.129 169.462 169.259 168.911 169.422C160.807 171.568 152.574 173.291 144.211 173.681C139.9 173.876 135.556 173.713 131.245 173.096C129.073 172.771 126.901 172.315 124.794 171.73C123.271 171.307 121.812 170.592 120.256 170.17C118.797 169.779 118.182 170.365 116.917 171.047C115.491 171.795 114.097 172.64 112.768 173.551C110.078 175.371 107.614 177.485 105.378 179.858C101.261 184.182 97.9871 189.319 95.8477 194.879C94.7131 197.838 93.9352 201.316 95.5559 204.047C96.7877 206.161 99.2512 207.331 101.715 207.559C104.146 207.754 106.577 207.136 108.911 206.388C108.295 210.712 111.699 214.972 115.913 216.174C120.094 217.41 124.697 216.109 128.392 213.736C128.425 217.768 131.536 221.539 135.459 222.352C139.381 223.165 143.725 220.856 145.313 217.182C147.323 219.848 150.434 221.897 153.773 221.929C157.112 221.962 160.515 219.556 160.969 216.239C163.238 218.678 166.934 219.653 170.078 218.645C173.254 217.638 175.718 214.711 176.172 211.428C179.024 213.899 183.887 213.508 186.285 210.582C188.036 208.469 188.425 205.543 188.327 202.779C188.263 201.902 188.198 200.959 188.068 200.048Z" fill="#FFC152"/>
<path d="M124.794 172.803C124.6 171.177 122.331 173.356 122.006 173.778C117.112 180.346 113.157 187.694 111.147 195.627C110.985 196.212 110.856 196.83 111.05 197.382C111.245 197.935 111.925 198.39 112.444 198.13C112.768 197.968 112.93 197.642 113.092 197.317C116.917 189.417 120.742 181.549 124.567 173.648C124.697 173.421 124.827 173.128 124.794 172.803Z" fill="white"/>
<path d="M135.783 175.209C135.199 173.486 133.417 176.347 133.19 176.9C129.786 185.093 127.582 193.936 127.42 202.942C127.42 203.592 127.42 204.307 127.744 204.86C128.068 205.413 128.878 205.738 129.332 205.348C129.624 205.12 129.721 204.698 129.786 204.307C131.763 194.911 133.741 185.548 135.718 176.152C135.848 175.892 135.913 175.534 135.783 175.209Z" fill="white"/>
<path d="M161.844 173.681C165.669 181.581 169.494 189.449 173.319 197.35C173.481 197.675 173.643 198 173.968 198.163C174.519 198.423 175.167 198 175.361 197.415C175.556 196.862 175.426 196.212 175.264 195.659C173.254 187.726 169.3 180.378 164.405 173.811C164.081 173.388 161.812 171.21 161.617 172.836C161.585 173.128 161.715 173.421 161.844 173.681Z" fill="white"/>
<path d="M152.541 174.884C154.519 184.28 156.496 193.643 158.473 203.039C158.538 203.43 158.635 203.82 158.927 204.08C159.413 204.503 160.191 204.177 160.515 203.592C160.84 203.04 160.872 202.324 160.84 201.674C160.677 192.636 158.473 183.792 155.07 175.632C154.843 175.111 153.06 172.218 152.476 173.941C152.379 174.233 152.476 174.559 152.541 174.884Z" fill="white"/>
<path d="M141.812 176.282C142.493 186.816 143.173 197.317 143.822 207.851C143.854 208.274 143.887 208.729 144.146 209.022C144.6 209.509 145.442 209.249 145.896 208.697C146.318 208.111 146.447 207.331 146.545 206.616C147.744 196.7 146.707 186.751 144.405 177.387C144.243 176.769 142.817 173.421 141.942 175.241C141.78 175.534 141.812 175.924 141.812 176.282Z" fill="white"/>
<path d="M206.48 92.9852C205.864 91.8798 204.405 91.5222 203.303 92.0424C201.909 92.7576 201.131 94.4483 200.515 95.7813C196.593 104.169 191.374 112.233 183.919 117.695C176.464 123.157 166.415 125.693 157.728 122.571C157.404 122.474 157.079 122.344 156.755 122.441C156.269 122.571 156.042 123.157 155.913 123.677C154.357 129.919 155.135 136.747 158.084 142.469C158.311 142.957 158.603 143.444 159.057 143.704C159.446 143.932 159.932 143.965 160.386 143.965C168.684 144.03 176.658 140.226 183.238 135.121C193.546 127.156 201.229 115.841 204.827 103.292C205.475 100.983 206.026 98.6424 206.512 96.3015C206.739 95.2936 206.934 94.2207 206.577 93.2453C206.577 93.1478 206.512 93.0503 206.48 92.9852Z" fill="#A86A39"/>
<path d="M203.303 107.843C200.872 106.575 198.603 105.08 196.464 103.389C193.125 108.916 189.041 113.923 183.887 117.695C176.431 123.157 166.383 125.693 157.695 122.571C157.371 122.474 157.047 122.344 156.723 122.441C156.237 122.571 156.01 123.157 155.88 123.677C154.324 129.919 155.102 136.747 158.052 142.469C158.279 142.957 158.571 143.444 159.024 143.704C159.413 143.932 159.9 143.965 160.353 143.965C168.652 144.03 176.626 140.226 183.206 135.121C192.282 128.131 199.284 118.54 203.303 107.843Z" fill="#495382"/>
<path d="M215.459 87.9458C215.037 87.5232 214.324 87.8808 213.903 88.0759C213.287 88.3685 212.671 88.7261 212.055 88.9862C211.796 89.1163 211.537 89.2463 211.245 89.3438C212.314 88.1734 213.287 86.9054 214.097 85.5399C214.584 84.7596 214.778 82.9389 213.287 83.264C212.866 83.3616 212.541 83.6542 212.217 83.9143C211.245 84.7921 210.337 85.7675 209.559 86.8079C210.37 85.1172 211.18 83.3941 211.439 81.5084C211.504 80.9882 211.504 80.3704 211.083 80.0778C210.759 79.8502 210.305 79.9153 209.981 80.1103C209.656 80.3054 209.43 80.6305 209.203 80.9557C208.327 82.2887 207.614 83.7192 206.901 85.1498C207.161 83.8167 207.452 82.4512 207.452 81.0857C207.452 80.468 207.29 79.6877 206.707 79.4926C206.35 79.3626 205.929 79.5251 205.637 79.7852C205.345 80.0453 205.183 80.403 205.021 80.7606C204.6 81.7685 204.373 82.8089 204.114 83.8493C203.725 85.5074 203.4 87.198 203.076 88.8562C202.59 87.6207 202.136 86.3852 201.65 85.1823C201.423 84.597 201.067 83.9468 200.451 83.9143C198.992 83.9143 199.413 85.9301 199.608 86.8404C199.997 88.6936 200.094 90.5793 200.807 92.335C201.229 93.3754 201.682 94.5133 202.558 95.2611C203.368 95.9113 204.438 96.2039 205.475 96.0414C206.383 95.9113 207.258 95.4887 208.068 95.066C210.726 93.668 213.287 91.7823 215.07 89.3438C215.394 89.0187 215.913 88.401 215.459 87.9458Z" fill="#A86A39"/>
<path d="M172.379 170.592C172.833 168.999 172.639 167.276 172.412 165.65C170.434 151.702 166.642 138.015 160.937 125.14C160.418 123.937 159.835 122.702 158.895 121.824C156.107 119.158 151.212 121.759 148.068 122.344C143.887 123.124 139.575 123.384 135.329 123.189C133.806 123.124 132.12 123.027 130.856 123.872C130.207 124.327 129.721 124.977 129.267 125.66C121.164 137.527 116.561 151.768 116.172 166.138C116.139 167.796 116.139 169.519 116.853 171.047C117.922 173.421 120.386 174.786 122.784 175.794C129.041 178.363 135.848 179.208 142.59 179.11C149.332 178.98 156.01 177.907 162.655 176.672C164.567 176.314 166.545 175.924 168.295 175.079C170.045 174.234 171.634 172.803 172.314 170.95C172.314 170.787 172.347 170.69 172.379 170.592Z" fill="#495382"/>
<path d="M159.964 144.355C159.932 144.29 159.9 144.192 159.867 144.127C158.635 141.038 155.297 142.306 153.87 144.452C153.125 145.59 152.703 146.891 152.282 148.191C151.666 146.566 150.596 145.037 149.041 144.225C147.485 143.444 145.41 143.542 144.178 144.81C143.336 145.688 142.979 146.956 143.011 148.159C143.044 149.362 143.465 150.565 143.887 151.67C145.507 155.799 147.906 159.635 150.791 163.017C150.921 163.179 151.05 163.342 151.245 163.407C151.666 163.569 152.088 163.212 152.412 162.854C156.269 158.628 159.089 153.361 159.964 147.703C160.224 146.566 160.321 145.395 159.964 144.355Z" fill="white"/>
<path d="M124.405 143.477C124.47 143.444 124.567 143.412 124.632 143.379C124.827 143.249 124.956 143.022 125.086 142.794C127.712 138.177 130.305 133.593 132.93 128.976C133.222 128.456 133.546 127.871 133.546 127.253C133.579 124.88 129.43 126.473 128.165 126.733C125.669 127.188 123.173 127.708 120.677 128.261C115.621 129.366 110.596 130.634 105.605 132.065C101.034 133.365 96.3987 134.861 92.6386 137.755C88.8784 140.648 86.0908 145.265 86.577 149.979C86.8363 152.45 87.9384 154.759 89.4295 156.742C92.9303 161.359 98.5057 164.09 104.178 165.195C109.851 166.3 115.718 165.943 121.488 165.39C123.044 165.228 124.859 164.902 125.572 163.504C125.864 162.919 125.929 162.236 125.702 161.619C125.216 160.221 123.595 159.603 122.169 159.18C117.922 157.88 113.579 156.677 109.818 154.303C107.971 153.165 106.156 151.377 106.285 149.231C106.383 147.931 107.225 146.761 108.295 146.013C109.365 145.265 110.629 144.842 111.893 144.517C115.686 143.542 119.64 143.217 123.53 143.542C123.854 143.542 124.146 143.542 124.405 143.477Z" fill="#A86A39"/>
<path d="M128.165 126.732C125.669 127.187 123.173 127.708 120.677 128.26C115.621 129.366 110.596 130.634 105.605 132.064C101.034 133.365 96.3987 134.86 92.6386 137.754C88.8784 140.648 86.0908 145.264 86.577 149.979C86.8363 152.45 87.9384 154.758 89.4295 156.741C92.9303 161.358 98.5057 164.089 104.178 165.194C105.896 165.52 107.647 165.715 109.397 165.812C111.31 162.951 112.282 159.407 112.963 155.961C111.893 155.473 110.856 154.92 109.851 154.303C108.003 153.165 106.188 151.377 106.318 149.231C106.415 147.93 107.258 146.76 108.327 146.012C109.397 145.264 110.661 144.842 111.925 144.517C115.718 143.541 119.673 143.216 123.562 143.541C123.854 143.574 124.146 143.574 124.405 143.509C124.47 143.476 124.567 143.444 124.632 143.411C124.827 143.281 124.956 143.053 125.086 142.826C127.712 138.209 130.305 133.625 132.93 129.008C133.222 128.488 133.546 127.903 133.546 127.285C133.611 124.879 129.43 126.505 128.165 126.732Z" fill="#495382"/>
<path d="M132.088 172.835C132.412 172.348 131.958 171.698 131.699 171.307C131.31 170.755 130.856 170.202 130.467 169.617C130.305 169.357 130.143 169.129 129.981 168.869C131.31 169.747 132.736 170.462 134.227 171.015C135.07 171.34 136.885 171.21 136.301 169.812C136.139 169.422 135.783 169.129 135.459 168.869C134.421 168.056 133.319 167.341 132.152 166.756C133.968 167.243 135.815 167.731 137.663 167.666C138.182 167.633 138.765 167.536 138.992 167.048C139.154 166.691 139.024 166.268 138.765 165.975C138.506 165.683 138.149 165.52 137.793 165.358C136.334 164.74 134.778 164.285 133.254 163.83C134.616 163.862 136.01 163.895 137.339 163.667C137.955 163.569 138.668 163.277 138.765 162.659C138.83 162.269 138.603 161.879 138.311 161.651C138.019 161.424 137.63 161.294 137.241 161.229C136.204 161.001 135.135 160.936 134.065 160.903C132.379 160.838 130.661 160.773 128.976 160.773C130.11 160.091 131.212 159.408 132.347 158.725C132.865 158.4 133.481 157.945 133.352 157.327C133.092 155.897 131.18 156.644 130.337 157.002C128.587 157.717 126.739 158.172 125.151 159.18C124.178 159.798 123.173 160.416 122.59 161.424C122.071 162.334 122.006 163.472 122.331 164.447C122.622 165.325 123.173 166.105 123.757 166.853C125.605 169.227 127.906 171.437 130.629 172.77C131.018 172.966 131.731 173.356 132.088 172.835Z" fill="#A86A39"/>
<path d="M172.639 72.0798C169.851 68.666 166.415 65.7399 162.622 63.5291C146.512 54.198 125.054 58.0995 112.768 71.9498C111.666 73.1852 110.629 74.5182 109.721 75.9163C104.243 84.0118 101.974 94.2207 103.465 103.877C104.34 109.501 106.545 115.061 110.467 119.158C114.908 123.807 121.196 126.245 127.452 127.708C135.524 129.594 144.016 130.114 152.12 128.326C160.224 126.538 167.906 122.376 173.222 115.971C179.705 108.168 182.201 97.2769 180.094 87.3606C178.895 81.736 176.269 76.5015 172.639 72.0798Z" fill="#AB7051"/>
<path d="M136.723 98.4797C135.524 98.6423 134.357 99.4226 133.838 100.788C133.352 102.056 133.384 103.487 133.417 104.852C133.417 105.112 133.449 105.372 133.579 105.6C133.708 105.827 134.032 105.958 134.227 105.795C134.421 105.665 134.454 105.405 134.454 105.177C134.486 104.104 134.486 103.031 134.843 102.056C135.232 101.081 136.107 100.203 137.177 100.203C138.052 100.203 138.83 100.821 139.284 101.568C139.737 102.316 139.9 103.194 140.094 104.039C140.126 104.267 140.191 104.494 140.353 104.657C140.515 104.82 140.84 104.82 140.937 104.625C140.969 104.56 140.969 104.494 140.969 104.429C141.066 103.031 140.969 101.601 140.289 100.365C139.478 98.9349 138.052 98.3171 136.723 98.4797Z" fill="#291410"/>
<path d="M132.866 97.4719C132.477 97.4394 131.925 97.5694 131.731 97.6344C131.083 97.8295 130.467 98.2522 130.078 98.8374C129.981 98.9999 129.883 99.1625 129.883 99.3576C129.883 99.5527 129.981 99.7477 130.143 99.8128C130.402 99.9103 130.661 99.6502 130.856 99.4226C131.277 98.9674 131.828 98.6423 132.444 98.4797C132.606 98.4472 132.801 98.4147 132.963 98.3172C133.125 98.2197 133.254 98.0896 133.287 97.8945C133.319 97.6019 133.125 97.5044 132.866 97.4719Z" fill="#291410"/>
<path d="M163.044 96.6266C162.687 97.9596 162.947 99.3901 163.368 100.723C163.4 100.788 163.4 100.853 163.465 100.886C163.595 101.048 163.919 100.983 164.049 100.788C164.178 100.593 164.146 100.366 164.146 100.138C164.113 99.2601 164.081 98.3823 164.308 97.5369C164.567 96.6916 165.183 95.9113 165.994 95.7163C166.998 95.4562 168.1 96.0739 168.716 96.9517C169.332 97.8296 169.592 98.87 169.851 99.8778C169.916 100.105 170.013 100.333 170.207 100.431C170.434 100.528 170.726 100.3 170.791 100.073C170.888 99.8453 170.823 99.5527 170.759 99.3251C170.467 97.9921 170.175 96.5941 169.365 95.4887C168.522 94.2857 167.225 93.798 165.994 93.9606C164.697 94.1232 163.465 95.0335 163.044 96.6266Z" fill="#291410"/>
<path d="M169.527 92.0098C169.916 91.8798 170.467 91.8798 170.661 91.8798C171.342 91.9123 172.023 92.1724 172.541 92.6601C172.671 92.7901 172.801 92.9202 172.865 93.1152C172.93 93.2778 172.865 93.5054 172.703 93.6029C172.476 93.7655 172.152 93.5704 171.925 93.4078C171.407 93.0502 170.791 92.8876 170.143 92.8551C169.948 92.8551 169.786 92.8551 169.592 92.8226C169.43 92.7901 169.235 92.6601 169.17 92.4975C169.138 92.2699 169.3 92.1073 169.527 92.0098Z" fill="#291410"/>
<path d="M132.412 113.728C130.467 113.338 128.295 114.021 127.031 115.614C125.929 116.979 125.572 118.897 126.091 120.556C126.609 122.214 127.971 123.612 129.624 124.132C130.532 124.425 131.504 124.457 132.412 124.164C133.449 123.839 134.357 123.092 134.972 122.181C135.588 121.271 135.912 120.198 136.01 119.093C136.172 117.499 135.783 115.744 134.551 114.736C133.903 114.216 133.19 113.891 132.412 113.728Z" fill="#9F5D3A"/>
<path d="M166.447 107.518C165.702 108.526 165.734 109.957 166.156 111.127C166.447 111.94 166.901 112.72 167.549 113.305C168.198 113.891 169.008 114.281 169.883 114.313C170.629 114.346 171.374 114.151 171.99 113.761C173.157 113.045 173.968 111.745 174.032 110.347C174.097 108.981 173.449 107.583 172.379 106.738C171.115 105.762 169.3 105.632 167.906 106.315C167.355 106.575 166.836 106.998 166.447 107.518Z" fill="#9F5D3A"/>
<path d="M155.945 103.162C155.912 103.064 155.88 102.999 155.848 102.934C155.232 101.991 154.843 103.454 154.616 103.844C154.065 104.885 152.898 105.567 151.731 105.567C151.536 105.567 151.342 105.567 151.147 105.632C150.953 105.698 150.823 105.893 150.888 106.088C150.953 106.283 151.147 106.348 151.342 106.38C152.801 106.673 154.389 106.12 155.361 104.982C155.686 104.592 155.912 104.169 155.977 103.682C155.977 103.519 155.977 103.324 155.945 103.162Z" fill="#291410"/>
<path d="M158.733 111.355C158.57 111.485 158.473 111.712 158.376 111.907C157.501 114.086 155.621 115.841 153.384 116.557C151.147 117.304 148.619 117.012 146.609 115.776C146.285 115.581 145.669 115.061 145.248 115.094C144.665 115.159 144.859 115.711 145.183 116.069C147.031 118.085 149.981 118.93 152.671 118.41C155.361 117.89 157.695 116.004 158.927 113.565C159.186 113.045 159.446 112.46 159.413 111.842C159.413 111.582 159.348 111.29 159.122 111.225C158.992 111.16 158.83 111.225 158.733 111.355Z" fill="#291410"/>
<path d="M112.282 61.4158C112.185 60.8956 112.023 60.3754 111.828 59.8877C111.31 58.5547 110.726 57.2542 110.045 56.0187C106.35 49.1586 100.191 43.6965 93.0276 40.6729C85.6045 37.5192 75.1994 36.5763 67.8088 40.2502C66.0584 41.1281 64.3404 42.4286 63.6921 44.2818C62.8493 46.5901 63.9838 49.4512 66.188 50.5241C62.2658 52.0197 58.8298 54.7182 56.4311 58.1645C55.1021 60.0827 54.0648 62.2611 54 64.602C53.9352 66.9428 55.0373 69.3813 57.0794 70.4542C58.9271 71.4295 61.1961 71.202 63.2383 70.7468C66.9011 69.999 70.4344 68.7635 73.7731 67.0729C72.8979 68.5685 71.9903 70.3241 72.6062 71.9497C73.3193 73.8029 75.7828 74.4207 77.6953 73.933C79.6402 73.4453 81.2609 72.2098 83.0762 71.3645C82.2982 72.2749 82.1037 73.6404 82.5575 74.7458C83.0114 75.8512 84.1135 76.664 85.3128 76.7941C86.5446 76.9241 87.7763 76.3064 88.7164 75.4611C89.6564 74.6483 90.3695 73.6079 91.1799 72.6325C95.1994 67.8532 101.455 65.0246 107.679 65.1547C109.105 65.1872 110.726 65.2847 111.699 64.2443C112.412 63.4965 112.477 62.4561 112.282 61.4158Z" fill="#D8C19E"/>
<path d="M115.945 57.5143C114.875 56.0838 112.801 55.2709 110.823 55.1734C107.938 55.0434 105.053 56.4414 103.076 58.5222C101.002 60.7005 99.8347 63.7567 99.9644 66.7478C99.9968 67.1379 100.029 67.5606 100.159 67.9182C101.747 71.6897 107.906 70.1941 110.305 68.5035C112.185 67.1705 114 65.3823 115.264 63.464C116.431 61.7084 117.339 59.335 115.945 57.5143Z" fill="#FFC152"/>
<path d="M180.807 61.2207C179.867 60.5704 178.83 60.0503 177.793 59.5626C160.386 51.4345 138.992 48.0857 120.71 55.2709C115.297 57.4168 110.207 60.4404 105.896 64.3744C96.7553 72.6975 91.2447 85.3123 92.7358 97.6345C94.2269 109.924 103.206 121.336 115.199 124.392C116.788 124.782 119.024 124.652 119.284 123.059C119.413 122.409 119.089 121.759 118.797 121.173C115.524 114.411 112.606 107.193 112.736 99.6828C112.865 92.1724 116.755 84.3044 123.692 81.4759C124.308 81.2158 124.989 81.0207 125.669 81.1182C126.48 81.2808 127.096 81.866 127.679 82.4512C129.754 84.402 132.412 86.1251 135.232 85.7675C138.052 85.4099 140.418 81.9636 138.83 79.6227C145.831 83.7842 153.319 87.9458 161.455 87.9133C163.789 87.9133 166.512 87.198 167.323 85.0197C167.647 84.1419 167.582 83.199 167.42 82.2887C166.804 79.3301 164.859 76.8916 162.979 74.5507C164.665 75.0709 166.123 76.1113 167.809 76.599C169.494 77.0867 171.601 76.8591 172.541 75.3961C173.838 73.3153 171.958 70.7793 170.24 69.0562C173.384 69.999 176.626 70.9419 179.867 70.4217C181.002 70.2591 182.136 69.869 182.947 69.0237C184.405 67.4956 184.146 64.9271 182.914 63.2039C182.298 62.3911 181.585 61.7409 180.807 61.2207Z" fill="#D8C19E"/>
<path d="M155.977 95.7813C155.945 95.7162 155.88 95.6512 155.848 95.5862C153.028 92.4325 147.841 93.3753 146.123 97.1793C146.026 97.4069 145.929 97.6345 145.961 97.862C145.994 98.0896 146.123 98.3497 146.35 98.3822C146.674 98.4473 146.966 98.1547 147.16 97.862C148.101 96.7241 149.43 95.9113 150.856 95.6187C152.314 95.3261 153.838 95.5862 155.135 96.3015C155.426 96.464 155.815 96.6266 156.01 96.3665C156.172 96.2364 156.107 95.9763 155.977 95.7813Z" fill="white"/>
<path d="M134.972 90.2867C131.374 90.3192 127.874 91.6847 125.637 94.7409C123.595 97.5369 122.947 101.308 123.984 104.592C124.697 106.868 126.156 108.916 128.068 110.347C131.374 112.818 135.945 113.435 139.77 111.907C143.595 110.379 146.512 106.738 147.16 102.674C147.614 99.9429 147.063 96.9842 145.41 94.7734C144.178 93.1478 142.428 91.9773 140.515 91.2621C138.765 90.6118 136.853 90.2542 134.972 90.2867ZM138.797 110.672C137.728 111.03 136.593 111.225 135.491 111.192C132.282 111.127 129.138 109.371 127.452 106.608C125.799 103.844 125.669 100.17 127.258 97.3744C130.272 91.9773 138.895 91.3271 143.238 95.4562C144.762 96.9192 145.637 99 145.702 101.113C145.767 103.227 145.053 105.34 143.789 107.031C142.558 108.721 140.775 109.989 138.797 110.672Z" fill="white"/>
<path d="M165.961 82.6788C162.363 82.7113 158.862 84.0768 156.626 87.133C154.584 89.929 153.935 93.7005 154.972 96.9842C155.686 99.2601 157.144 101.308 159.057 102.739C162.363 105.21 166.934 105.828 170.759 104.299C174.584 102.771 177.501 99.13 178.149 95.066C178.603 92.335 178.052 89.3763 176.399 87.1655C175.167 85.5399 173.417 84.3694 171.504 83.6542C169.754 83.0039 167.841 82.6463 165.961 82.6788ZM169.786 103.064C168.716 103.422 167.582 103.617 166.48 103.584C163.271 103.519 160.126 101.764 158.441 99C156.788 96.2364 156.658 92.5626 158.246 89.7665C161.261 84.3694 169.883 83.7192 174.227 87.8483C175.75 89.3113 176.626 91.3921 176.69 93.5054C176.755 95.6187 176.042 97.732 174.778 99.4226C173.546 101.113 171.763 102.381 169.786 103.064Z" fill="white"/>
<path d="M124.989 98.0896C124.34 98.0246 123.303 98.2847 122.882 98.3497C121.293 98.6423 119.705 98.935 118.149 99.2276C115.005 99.8453 111.861 100.593 108.814 101.601C106.966 102.219 105.053 103.031 103.919 104.625C102.882 106.12 102.72 108.136 103.368 109.827C104.049 111.517 105.507 112.85 107.193 113.468C107.549 113.598 108.1 113.631 108.198 113.24C108.295 112.85 107.776 112.59 107.387 112.493C106.188 112.135 105.151 111.257 104.632 110.119C104.113 108.981 104.178 107.583 104.762 106.51C105.799 104.657 108.068 103.974 110.11 103.487C114.454 102.414 118.83 101.341 123.173 100.235C123.951 100.04 124.762 99.8128 125.216 99.1625C125.767 98.4473 125.507 98.1547 124.989 98.0896Z" fill="white"/>
<path d="M226.836 53.9379C226.545 53.6128 226.091 53.5478 225.669 53.4827C214.94 51.9222 203.757 53.4502 193.806 57.8719C192.412 58.4896 192.412 58.9773 192.833 60.2778C193.254 61.5458 193.676 62.8463 194.162 64.1143C195.07 66.6502 196.075 69.1537 197.144 71.6571C199.284 76.6315 201.682 81.4759 204.276 86.2227C205.086 87.6857 205.896 89.1488 206.739 90.5793C208.878 94.2207 211.147 97.8295 214.065 100.886C214.519 101.373 215.07 101.861 215.75 101.861C216.658 101.894 217.306 101.016 217.76 100.203C219.348 97.3419 220.353 94.1557 221.229 91.002C224.502 79.3626 226.48 67.333 227.096 55.2384C227.128 54.8158 227.128 54.2956 226.836 53.9379Z" fill="#FFC152"/>
<path d="M220.581 87.4913C221.489 85.9958 222.364 84.5002 223.272 83.0046C223.725 80.9563 224.179 78.9081 224.536 76.8273C224.309 77.2499 224.082 77.6401 223.823 78.0628C222.721 76.9248 221.618 75.8194 220.549 74.714C221.748 72.6657 222.98 70.6499 224.179 68.6017C224.665 69.0568 225.152 69.512 225.638 69.9997C225.768 69.1544 225.865 68.2765 225.994 67.4312C225.768 67.2036 225.541 66.9761 225.281 66.7485C225.605 66.1958 225.93 65.6431 226.254 65.1229C226.448 63.4322 226.61 61.7416 226.74 60.0509C225.703 61.7416 224.665 63.4647 223.628 65.1879C222.947 64.5051 222.234 63.8549 221.554 63.2046C220.646 62.3268 219.738 61.4815 218.831 60.6362C220.289 58.1652 221.78 55.7268 223.239 53.2559C222.494 53.1908 221.748 53.1258 221.003 53.0608C219.706 55.044 218.442 57.0598 217.178 59.1081C215.524 57.58 213.839 56.0519 212.153 54.5889C212.445 54.1012 212.737 53.6135 213.028 53.1258C211.408 53.2559 209.787 53.4509 208.199 53.6785C208.652 54.1012 209.106 54.5238 209.56 54.979C208.328 56.8647 207.129 58.7504 205.962 60.6687C204.082 58.913 202.169 57.2224 200.225 55.4992C199.479 55.7268 198.766 55.9544 198.02 56.2145C200.257 58.3278 202.526 60.4411 204.763 62.5869C203.887 64.0174 203.045 65.448 202.202 66.8785C201.91 67.3662 201.651 67.8214 201.359 68.3091C198.539 65.6105 195.654 62.9445 192.737 60.3435C193.158 61.6115 193.579 62.912 194.066 64.18C194.131 64.3426 194.163 64.4726 194.228 64.6352C196.238 66.5209 198.215 68.4066 200.225 70.2923C199.511 71.5603 198.798 72.7958 198.085 74.0637C198.96 76.047 199.9 77.9977 200.84 79.916C201.813 80.8263 202.753 81.7041 203.725 82.6145C203.466 83.0696 203.239 83.5573 202.98 84.0125C203.272 84.5652 203.563 85.0854 203.855 85.6381C204.212 85.0204 204.601 84.4027 204.957 83.7849C206.772 85.5081 208.588 87.2312 210.403 88.9219C209.657 90.3524 208.912 91.7504 208.166 93.181C208.393 93.5386 208.62 93.8962 208.815 94.2214C209.69 92.7583 210.533 91.3278 211.408 89.8647C212.737 91.1002 214.033 92.3356 215.362 93.5711C214.649 94.9041 213.968 96.2371 213.255 97.5376C212.964 98.0903 212.704 98.6105 212.413 99.1632C212.639 99.4233 212.834 99.6834 213.061 99.911C214.163 98.0903 215.233 96.2696 216.335 94.449C217.275 95.3268 218.215 96.2046 219.122 97.0825C219.252 96.7573 219.382 96.3997 219.511 96.0421C219.414 95.9445 219.285 95.8145 219.187 95.7169C218.442 94.9366 217.696 94.1563 216.951 93.376C217.891 91.8155 218.831 90.2224 219.771 88.6618C220.289 89.1495 220.808 89.6371 221.359 90.1573C221.489 89.7347 221.586 89.2795 221.716 88.8568C221.424 88.3691 221.003 87.914 220.581 87.4913ZM222.558 67.0736C221.359 69.0894 220.192 71.1376 219.058 73.1859C217.469 71.5603 215.849 69.9672 214.228 68.3741C215.395 66.4233 216.562 64.4726 217.729 62.4894C219.317 64.0174 220.938 65.5455 222.558 67.0736ZM218.053 74.9416C216.886 77.0549 215.719 79.1357 214.584 81.249C212.931 79.5258 211.246 77.8352 209.56 76.1445C210.727 74.1938 211.894 72.2105 213.093 70.2598C214.746 71.8204 216.4 73.381 218.053 74.9416ZM211.148 56.312C212.802 57.8726 214.422 59.4007 216.075 60.9613C215.2 62.3918 214.357 63.8224 213.515 65.2529C213.223 65.7731 212.899 66.2933 212.607 66.8135C211.894 66.0982 211.148 65.4155 210.435 64.7002C209.528 63.8224 208.62 62.977 207.712 62.1317C208.847 60.181 209.981 58.2628 211.148 56.312ZM206.513 64.0825C208.166 65.6431 209.819 67.2036 211.473 68.7642C210.338 70.7475 209.203 72.7307 208.101 74.714C206.448 73.0559 204.763 71.4302 203.109 69.8046C204.244 67.8864 205.379 65.9682 206.513 64.0825ZM199.641 75.5918C200.419 74.2913 201.197 72.9908 201.975 71.7229C203.693 73.3485 205.411 74.9416 207.097 76.5672C206.319 77.9652 205.573 79.3307 204.827 80.7288C203.077 79.0056 201.359 77.2825 199.641 75.5918ZM206.059 81.9967C206.87 80.6312 207.68 79.2657 208.49 77.9002C210.241 79.5258 211.959 81.1839 213.709 82.8095C212.899 84.3051 212.088 85.8007 211.278 87.3288C209.56 85.5406 207.842 83.7524 206.059 81.9967ZM216.108 92.3031C214.876 91.0026 213.612 89.7022 212.348 88.4017C213.223 86.9386 214.098 85.4756 214.973 83.98C216.205 85.1504 217.437 86.2884 218.669 87.4588C217.826 89.0844 216.951 90.71 216.108 92.3031ZM219.349 86.2233C218.182 84.9879 217.015 83.7849 215.849 82.582C217.08 80.5012 218.312 78.4529 219.544 76.3721C220.678 77.445 221.813 78.5179 222.98 79.5908C221.748 81.8017 220.549 84.0125 219.349 86.2233Z" fill="#9F5D3A"/>
<path d="M228.619 46.6552C228.522 41.5833 227.096 36.4463 223.984 32.4473C220.029 27.4079 213.481 24.5468 207.128 25.0345C200.742 25.5222 194.713 29.2286 191.31 34.6581C187.906 40.0877 187.16 47.0778 189.235 53.1576C189.138 52.8976 186.707 54.9783 186.512 55.1734C185.799 56.0512 185.086 57.1892 185.151 58.3271C185.313 60.733 187.906 62.7163 190.24 62.1961C192.088 61.7734 193.806 60.1478 195.556 60.798C196.431 61.1232 197.015 61.9685 197.728 62.6187C199.219 63.9517 201.455 64.3744 203.303 63.6266C205.021 62.9439 206.48 61.3833 208.327 61.3507C209.883 61.3507 211.212 62.4237 212.736 62.7163C214.486 63.0739 216.399 62.2286 217.371 60.733C217.728 60.1803 217.955 59.5301 218.473 59.1399C219.802 58.132 221.618 59.4976 223.271 59.5951C224.891 59.6926 226.383 58.4897 226.934 56.9616C227.128 56.4414 227.225 55.8562 227.582 55.466C228.457 54.5232 230.045 55.2059 231.31 55.0434C232.703 54.8808 233.806 53.5478 233.935 52.1498C234.065 50.7517 233.384 49.3537 232.347 48.4109C231.342 47.468 229.981 46.9478 228.619 46.6552Z" fill="#645D33"/>
<path d="M226.772 33.4552C226.674 28.3833 225.248 23.2463 222.136 19.2473C218.182 14.2079 211.634 11.3468 205.28 11.8345C198.895 12.3222 192.865 16.0286 189.462 21.4581C186.058 26.8877 185.313 33.8778 187.387 39.9576C187.29 39.6975 184.859 41.7783 184.665 41.9734C183.951 42.8512 183.238 43.9892 183.303 45.1271C183.465 47.533 186.058 49.5163 188.392 48.9961C190.24 48.5734 191.958 46.9478 193.708 47.598C194.583 47.9232 195.167 48.7685 195.88 49.4187C197.371 50.7517 199.608 51.1744 201.455 50.4266C203.173 49.7438 204.632 48.1833 206.48 48.1507C208.036 48.1507 209.365 49.2236 210.888 49.5163C212.639 49.8739 214.551 49.0286 215.524 47.533C215.88 46.9803 216.107 46.3301 216.626 45.9399C217.955 44.932 219.77 46.2975 221.423 46.3951C223.044 46.4926 224.535 45.2897 225.086 43.7616C225.28 43.2414 225.378 42.6562 225.734 42.266C226.609 41.3232 228.198 42.0059 229.462 41.8434C230.856 41.6808 231.958 40.3478 232.088 38.9498C232.217 37.5517 231.537 36.1537 230.499 35.2108C229.494 34.3005 228.165 33.7478 226.772 33.4552Z" fill="#FFE4CC"/>
<path d="M225.151 21.6532C225.053 16.5813 223.627 11.4443 220.515 7.44532C216.561 2.40592 210.013 -0.455167 203.66 0.0325175C197.274 0.520202 191.245 4.22661 187.841 9.65616C184.438 15.0857 183.692 22.0759 185.767 28.1557C185.669 27.8956 183.238 29.9764 183.044 30.1714C182.331 31.0493 181.617 32.1872 181.682 33.3251C181.844 35.731 184.438 37.7143 186.771 37.1941C188.619 36.7714 190.337 35.1458 192.088 35.7961C192.963 36.1212 193.546 36.9665 194.259 37.6167C195.75 38.9498 197.987 39.3724 199.835 38.6246C201.553 37.9419 203.011 36.3813 204.859 36.3488C206.415 36.3488 207.744 37.4217 209.267 37.7143C211.018 38.0719 212.93 37.2266 213.903 35.731C214.259 35.1783 214.486 34.5281 215.005 34.1379C216.334 33.1301 218.149 34.4956 219.802 34.5931C221.423 34.6906 222.914 33.4877 223.465 31.9596C223.66 31.4394 223.757 30.8542 224.113 30.464C224.989 29.5212 226.577 30.2039 227.841 30.0414C229.235 29.8788 230.337 28.5458 230.467 27.1478C230.596 25.7498 229.916 24.3517 228.878 23.4089C227.874 22.4985 226.512 21.9458 225.151 21.6532Z" fill="#FFC152"/>
<path d="M198.506 14.533C198.603 14.1103 198.473 13.4601 197.922 13.4601C197.436 13.4601 197.079 13.9153 196.82 14.2404C196.399 14.7606 196.01 15.3133 195.815 15.9635C195.686 16.3537 195.686 16.8414 196.01 17.0689C196.269 17.2315 196.626 17.199 196.885 17.0364C197.241 16.8414 197.501 16.5162 197.695 16.1911C197.955 15.7685 198.214 15.3133 198.376 14.8581C198.441 14.7281 198.473 14.6305 198.506 14.533Z" fill="white"/>
<path d="M212.865 5.42955C212.865 5.00689 212.639 4.38916 212.088 4.48669C211.634 4.58423 211.374 5.10443 211.18 5.49458C210.888 6.0798 210.596 6.73005 210.532 7.38029C210.499 7.77044 210.596 8.25812 210.953 8.42069C211.245 8.55073 211.569 8.42069 211.796 8.1931C212.088 7.933 212.282 7.57537 212.412 7.18522C212.606 6.73005 212.736 6.24236 212.801 5.75468C212.865 5.65714 212.865 5.5596 212.865 5.42955Z" fill="white"/>
<path d="M207.323 3.9665C207.485 3.54384 207.452 2.89359 206.901 2.82857C206.447 2.76354 206.026 3.1862 205.702 3.47881C205.216 3.93399 204.762 4.45418 204.47 5.0394C204.308 5.39704 204.243 5.88473 204.535 6.14482C204.762 6.3399 205.118 6.3399 205.41 6.24236C205.767 6.11231 206.091 5.8197 206.35 5.52709C206.674 5.13694 206.966 4.74679 207.193 4.29162C207.258 4.19408 207.29 4.06404 207.323 3.9665Z" fill="white"/>
<path d="M191.374 14.9557C191.05 14.663 190.434 14.4355 190.143 14.9231C189.883 15.3133 190.143 15.866 190.272 16.2887C190.499 16.9064 190.791 17.5241 191.277 18.0118C191.536 18.3044 191.958 18.5645 192.314 18.3694C192.606 18.2394 192.703 17.9143 192.703 17.5892C192.703 17.199 192.574 16.8089 192.379 16.4512C192.152 15.9961 191.893 15.5734 191.569 15.1832C191.536 15.1182 191.439 15.0207 191.374 14.9557Z" fill="white"/>
<path d="M188.587 21.5231C188.165 21.4581 187.517 21.6532 187.549 22.2059C187.582 22.6936 188.101 22.9862 188.425 23.2463C188.976 23.6039 189.559 23.9616 190.24 24.0916C190.629 24.1566 191.115 24.1241 191.31 23.799C191.472 23.5389 191.374 23.1813 191.18 22.9212C190.953 22.5961 190.629 22.3685 190.272 22.1734C189.818 21.9458 189.365 21.7507 188.878 21.6207C188.814 21.5557 188.716 21.5557 188.587 21.5231Z" fill="white"/>
<path d="M204.924 10.5665C205.053 10.1439 204.956 9.4936 204.405 9.46109C203.919 9.42858 203.562 9.88375 203.271 10.2089C202.817 10.6966 202.428 11.2493 202.201 11.8995C202.071 12.2897 202.039 12.7448 202.363 13.0049C202.622 13.2 202.979 13.135 203.238 13.0049C203.595 12.8099 203.854 12.5173 204.081 12.1921C204.373 11.802 204.6 11.3468 204.794 10.8916C204.859 10.7616 204.891 10.664 204.924 10.5665Z" fill="white"/>
<path d="M199.316 20.2552C199.219 19.8325 198.83 19.3123 198.344 19.5399C197.922 19.735 197.793 20.3202 197.695 20.7428C197.533 21.3931 197.436 22.0759 197.533 22.7261C197.598 23.1162 197.793 23.5714 198.182 23.6039C198.473 23.6364 198.765 23.4414 198.96 23.1813C199.186 22.8562 199.284 22.466 199.316 22.0759C199.381 21.5882 199.381 21.068 199.349 20.5803C199.381 20.4827 199.349 20.3852 199.316 20.2552Z" fill="white"/>
<path d="M211.018 14.598C210.921 14.1754 210.499 13.6552 210.013 13.9153C209.592 14.1103 209.494 14.7281 209.397 15.1182C209.267 15.7685 209.17 16.4512 209.3 17.134C209.365 17.5241 209.592 17.9468 209.981 18.0118C210.272 18.0443 210.564 17.8167 210.726 17.5891C210.953 17.264 211.018 16.8414 211.05 16.4512C211.115 15.9635 211.083 15.4433 211.05 14.9557C211.083 14.7931 211.05 14.6956 211.018 14.598Z" fill="white"/>
<path d="M205.313 17.9143C204.956 17.6542 204.308 17.5566 204.113 18.0768C203.951 18.532 204.276 19.0197 204.47 19.3773C204.794 19.9625 205.216 20.5153 205.734 20.9379C206.058 21.1655 206.512 21.3606 206.836 21.133C207.096 20.9704 207.16 20.6128 207.096 20.2877C207.031 19.8975 206.836 19.5399 206.577 19.2148C206.285 18.8246 205.929 18.4345 205.572 18.1093C205.475 18.0443 205.378 17.9793 205.313 17.9143Z" fill="white"/>
<path d="M204.146 23.8315C203.854 23.5064 203.238 23.2788 202.914 23.734C202.655 24.1241 202.849 24.6768 202.979 25.0995C203.173 25.7497 203.433 26.3675 203.887 26.8877C204.146 27.1803 204.535 27.4729 204.924 27.3103C205.216 27.1803 205.345 26.8552 205.378 26.5625C205.41 26.1724 205.28 25.7822 205.118 25.4246C204.924 24.9694 204.664 24.5143 204.373 24.1241C204.308 24.0266 204.243 23.929 204.146 23.8315Z" fill="white"/>
<path d="M194.13 6.76256C193.741 6.56748 193.092 6.56748 192.963 7.08768C192.865 7.54285 193.254 7.99802 193.514 8.32315C193.935 8.84334 194.389 9.36354 195.005 9.68866C195.361 9.88374 195.815 9.98128 196.107 9.72118C196.334 9.5261 196.334 9.13596 196.269 8.84334C196.139 8.4532 195.88 8.16059 195.621 7.86797C195.264 7.51034 194.875 7.18522 194.454 6.92512C194.324 6.8926 194.227 6.82758 194.13 6.76256Z" fill="white"/>
<path d="M217.598 11.4768C217.598 11.0542 217.306 10.4364 216.755 10.599C216.301 10.729 216.075 11.2817 215.912 11.6719C215.653 12.2896 215.426 12.9399 215.394 13.6226C215.394 14.0128 215.491 14.5005 215.88 14.6305C216.172 14.7281 216.496 14.5655 216.723 14.3704C217.015 14.0778 217.177 13.7202 217.306 13.33C217.468 12.8423 217.566 12.3547 217.598 11.867C217.598 11.7044 217.598 11.6069 217.598 11.4768Z" fill="white"/>
<path d="M221.423 16.4837C221.293 16.0611 220.872 15.5734 220.386 15.8335C219.964 16.0611 219.9 16.6463 219.835 17.069C219.737 17.7192 219.673 18.402 219.802 19.0847C219.9 19.4749 220.126 19.8975 220.515 19.9301C220.807 19.9626 221.099 19.735 221.261 19.4749C221.456 19.1498 221.52 18.7271 221.553 18.337C221.585 17.8493 221.553 17.3291 221.488 16.8414C221.456 16.6788 221.423 16.5813 221.423 16.4837Z" fill="white"/>
<path d="M214.94 18.3694C214.551 18.1744 213.903 18.1744 213.773 18.7271C213.676 19.1822 214.065 19.6374 214.324 19.9625C214.746 20.4827 215.232 20.9704 215.815 21.2955C216.172 21.4906 216.626 21.5882 216.917 21.3281C217.144 21.1005 217.144 20.7428 217.047 20.4502C216.917 20.0601 216.658 19.7675 216.399 19.4749C216.042 19.1172 215.653 18.7921 215.232 18.532C215.167 18.467 215.07 18.4019 214.94 18.3694Z" fill="white"/>
<path d="M200.159 4.16156C199.835 3.86894 199.219 3.67387 198.927 4.12904C198.7 4.5517 198.927 5.0719 199.089 5.49456C199.348 6.11229 199.64 6.73003 200.126 7.21771C200.418 7.51032 200.807 7.73791 201.164 7.57535C201.455 7.4453 201.553 7.08766 201.553 6.79505C201.553 6.40491 201.391 6.01476 201.229 5.65712C201.002 5.20195 200.71 4.8118 200.386 4.42165C200.321 4.32412 200.256 4.22658 200.159 4.16156Z" fill="white"/>
<path d="M204.827 39.665C204.924 39.2423 204.794 38.5921 204.243 38.5921C203.757 38.5921 203.4 39.0473 203.141 39.3724C202.72 39.8926 202.331 40.4453 202.136 41.0956C202.006 41.4857 202.006 41.9734 202.331 42.201C202.59 42.3635 202.946 42.331 203.206 42.1685C203.562 41.9734 203.822 41.6483 204.016 41.3231C204.275 40.9005 204.535 40.4453 204.697 39.9901C204.762 39.8601 204.794 39.7625 204.827 39.665Z" fill="white"/>
<path d="M194.843 39.8276C194.519 39.535 193.903 39.3074 193.611 39.7951C193.352 40.1852 193.611 40.7379 193.741 41.1606C193.968 41.7783 194.259 42.3961 194.746 42.8837C195.005 43.1763 195.426 43.4364 195.783 43.2414C196.075 43.1113 196.172 42.7862 196.172 42.4611C196.172 42.0709 196.042 41.6808 195.848 41.3231C195.621 40.868 195.361 40.4453 195.037 40.0552C194.972 39.9901 194.908 39.9251 194.843 39.8276Z" fill="white"/>
<path d="M189.818 43.534C189.397 43.469 188.749 43.664 188.781 44.2167C188.814 44.7044 189.332 44.997 189.656 45.2571C190.207 45.6148 190.791 45.9724 191.472 46.1025C191.861 46.1675 192.347 46.135 192.541 45.8098C192.703 45.5497 192.606 45.1921 192.412 44.932C192.185 44.6069 191.861 44.3793 191.504 44.1842C191.05 43.9566 190.596 43.7616 190.11 43.6315C190.045 43.5665 189.916 43.534 189.818 43.534Z" fill="white"/>
<path d="M200.775 45.1271C200.677 44.7044 200.288 44.1843 199.802 44.4118C199.381 44.6069 199.251 45.1921 199.154 45.6148C198.992 46.265 198.895 46.9478 198.992 47.598C199.057 47.9882 199.251 48.4434 199.64 48.4759C199.932 48.5084 200.224 48.3133 200.418 48.0532C200.645 47.7281 200.742 47.3379 200.775 46.9478C200.84 46.4601 200.84 45.9399 200.807 45.4522C200.807 45.3547 200.807 45.2246 200.775 45.1271Z" fill="white"/>
<path d="M215.653 40.3478C215.556 39.9251 215.135 39.4049 214.648 39.665C214.227 39.8601 214.13 40.4778 214.032 40.868C213.903 41.5182 213.806 42.201 213.935 42.8837C214 43.2739 214.227 43.6965 214.616 43.7616C214.908 43.7941 215.199 43.5665 215.361 43.3389C215.588 43.0138 215.653 42.5911 215.686 42.201C215.75 41.7133 215.718 41.1931 215.686 40.7054C215.686 40.5754 215.653 40.4778 215.653 40.3478Z" fill="white"/>
<path d="M208.749 42.8187C208.392 42.5586 207.744 42.4611 207.549 42.9813C207.387 43.4365 207.712 43.9241 207.906 44.2818C208.23 44.867 208.652 45.4197 209.17 45.8424C209.494 46.07 209.948 46.265 210.272 46.0374C210.532 45.8749 210.596 45.5172 210.532 45.1921C210.467 44.802 210.272 44.4443 210.013 44.1192C209.721 43.7291 209.365 43.3389 209.008 43.0138C208.943 42.9488 208.846 42.8837 208.749 42.8187Z" fill="white"/>
<path d="M221.067 36.3813C221.067 35.9586 220.775 35.3409 220.224 35.5034C219.77 35.6335 219.543 36.1862 219.381 36.5763C219.122 37.1941 218.895 37.8443 218.862 38.5271C218.862 38.9172 218.96 39.4049 219.349 39.535C219.64 39.6325 219.964 39.4699 220.191 39.2749C220.483 38.9823 220.645 38.6246 220.775 38.2345C220.937 37.7468 221.034 37.2591 221.067 36.7714C221.034 36.6089 221.067 36.5113 221.067 36.3813Z" fill="white"/>
<path d="M225.702 37.4217C225.572 36.999 225.151 36.5113 224.665 36.7714C224.243 36.999 224.178 37.5842 224.113 38.0069C224.016 38.6571 223.951 39.3399 224.081 40.0227C224.178 40.4128 224.405 40.8355 224.794 40.868C225.086 40.9005 225.378 40.6729 225.54 40.4128C225.734 40.0877 225.799 39.665 225.831 39.2749C225.864 38.7872 225.831 38.267 225.767 37.7793C225.767 37.6493 225.734 37.5517 225.702 37.4217Z" fill="white"/>
<path d="M206.609 52.3773C206.707 51.9547 206.577 51.3044 206.026 51.3044C205.54 51.3044 205.183 51.7596 204.924 52.0847C204.502 52.6049 204.113 53.1576 203.919 53.8079C203.789 54.198 203.789 54.6857 204.113 54.9133C204.373 55.0759 204.729 55.0434 204.989 54.8808C205.345 54.6857 205.605 54.3606 205.799 54.0355C206.058 53.6128 206.318 53.1576 206.48 52.7025C206.545 52.6049 206.577 52.5074 206.609 52.3773Z" fill="white"/>
<path d="M196.593 52.5724C196.269 52.2798 195.653 52.0522 195.361 52.5399C195.102 52.93 195.361 53.4827 195.491 53.9054C195.718 54.5231 196.01 55.1409 196.496 55.6285C196.755 55.9212 197.177 56.1813 197.533 55.9862C197.825 55.8561 197.922 55.531 197.922 55.2059C197.922 54.8157 197.793 54.4256 197.598 54.068C197.371 53.6128 197.112 53.1901 196.788 52.8C196.755 52.7349 196.658 52.6374 196.593 52.5724Z" fill="white"/>
<path d="M191.569 56.2463C191.148 56.1812 190.499 56.3763 190.532 56.929C190.564 57.4167 191.083 57.7093 191.407 57.9694C191.958 58.3271 192.541 58.6847 193.222 58.8147C193.611 58.8798 194.097 58.8473 194.292 58.5221C194.454 58.262 194.357 57.9044 194.162 57.6443C193.935 57.3192 193.611 57.0916 193.254 56.8965C192.801 56.6689 192.347 56.4738 191.861 56.3438C191.796 56.2788 191.699 56.2788 191.569 56.2463Z" fill="white"/>
<path d="M202.525 57.8394C202.428 57.4167 202.039 56.8965 201.553 57.1241C201.131 57.3192 201.002 57.9044 200.904 58.3271C200.742 58.9773 200.645 59.6601 200.742 60.3103C200.807 60.7005 201.002 61.1556 201.391 61.1882C201.682 61.2207 201.974 61.0256 202.169 60.7655C202.395 60.4404 202.493 60.0502 202.525 59.6601C202.59 59.1724 202.59 58.6522 202.558 58.1645C202.59 58.067 202.558 57.9694 202.525 57.8394Z" fill="white"/>
<path d="M217.404 53.0926C217.306 52.6699 216.885 52.1497 216.399 52.4098C215.977 52.6049 215.88 53.2226 215.783 53.6128C215.653 54.263 215.556 54.9458 215.686 55.6286C215.75 56.0187 215.977 56.4414 216.366 56.5064C216.658 56.5389 216.95 56.3113 217.112 56.0837C217.339 55.7586 217.404 55.3359 217.436 54.9458C217.501 54.4581 217.468 53.9379 217.436 53.4502C217.436 53.3202 217.436 53.1901 217.404 53.0926Z" fill="white"/>
<path d="M210.532 55.5635C210.175 55.3034 209.527 55.2059 209.332 55.7261C209.17 56.1813 209.494 56.6689 209.689 57.0266C210.013 57.6118 210.434 58.1645 210.953 58.5872C211.277 58.8148 211.731 59.0098 212.055 58.7822C212.314 58.6197 212.379 58.2621 212.314 57.9369C212.25 57.5468 212.055 57.1891 211.796 56.864C211.504 56.4739 211.148 56.0837 210.791 55.7586C210.694 55.6936 210.596 55.596 210.532 55.5635Z" fill="white"/>
<path d="M222.817 49.1261C222.817 48.7034 222.525 48.0857 221.974 48.2482C221.52 48.3783 221.293 48.931 221.131 49.3212C220.872 49.9389 220.645 50.5891 220.613 51.2719C220.613 51.662 220.71 52.1497 221.099 52.2798C221.391 52.3773 221.715 52.2147 221.942 52.0197C222.233 51.7271 222.395 51.3694 222.525 50.9793C222.687 50.4916 222.784 50.0039 222.817 49.5162C222.817 49.3537 222.817 49.2236 222.817 49.1261Z" fill="white"/>
<path d="M227.452 50.1665C227.323 49.7438 226.901 49.2561 226.415 49.5162C225.994 49.7438 225.929 50.3291 225.864 50.7517C225.767 51.402 225.702 52.0847 225.831 52.7675C225.929 53.1576 226.156 53.5803 226.545 53.6128C226.836 53.6453 227.128 53.4177 227.29 53.1576C227.485 52.8325 227.549 52.4098 227.582 52.0197C227.614 51.532 227.582 51.0118 227.517 50.5241C227.517 50.3616 227.485 50.264 227.452 50.1665Z" fill="white"/>
</g>
<circle cx="5" cy="315" r="5" fill="#C1A073"/>
<defs>
<clipPath id="clip0">
<rect width="180" height="264" fill="white" transform="translate(54)"/>
</clipPath>
</defs>
</svg>
