<svg width="280" height="458" viewBox="0 0 280 458" fill="none" xmlns="http://www.w3.org/2000/svg">
<g clip-path="url(#clip0)">
<path d="M0 161.294C5.86667 162.761 11.6 164.629 16.1333 168.231C22.5333 173.434 25.8667 181.439 29.7333 188.643C33.6 195.981 39.0667 203.318 47.0667 205.186C59.7333 207.988 71.4667 195.714 84.4 196.648C95.3333 197.448 103.467 207.321 107.2 217.593C110.933 227.866 111.6 239.072 115.2 249.345C121.867 268.023 138.8 282.565 158.267 286.3C168.533 288.301 181.733 289.902 191.6 285.633C200.133 281.897 204.933 272.692 211.333 266.422C218.8 259.218 226.267 252.013 233.2 244.276C246.267 229.6 257.6 212.524 261.2 193.179C263.467 180.772 262 167.297 256.533 155.957C253.467 149.687 249.2 144.084 243.733 139.815C236.133 133.945 225.467 128.742 225.067 119.136C224.8 110.464 233.333 104.327 236.4 96.1893C238.933 89.2519 237.2 81.2473 232.933 75.1104C228.667 69.1069 222.267 64.8377 215.6 61.7693C202.933 56.0326 187.2 53.0976 180.933 40.6903C176 30.8179 178.8 17.6102 171.333 9.60557C167.067 5.06959 160.533 3.60207 154.8 1.20068C153.867 0.800442 152.8 0.266798 151.867 -0.266846H0V161.294Z" fill="#D8C19E"/>
<path d="M145.467 333.528C137.733 339.131 130.267 345.134 125.733 353.673C122.533 359.943 120.267 366.614 119.467 373.551H248.667C247.333 362.344 242.267 351.671 234 343.934C232.267 342.333 230.4 340.732 228.4 339.264C223.867 335.796 219.2 332.46 215.6 327.924C210 320.854 207.733 311.515 207.867 302.443C208 293.371 210.4 284.432 213.2 275.894C213.467 275.094 213.733 274.16 213.333 273.493C212.667 272.425 211.067 272.425 209.867 272.559C198.667 274.16 186.933 272.826 176.4 268.823C174.533 268.156 171.867 267.756 171.2 269.49C170.933 270.024 171.067 270.691 171.2 271.225C173.067 285.099 174.533 300.175 167.6 312.449C162.8 321.387 153.867 327.524 145.467 333.528Z" fill="#AB7051"/>
<path d="M187.067 355.007C171.467 354.206 153.333 347.402 146.133 332.994C145.867 333.127 145.733 333.261 145.467 333.394C137.733 338.997 130.267 345.001 125.733 353.539C122.533 359.809 120.267 366.48 119.467 373.417H248.667C247.333 362.211 242.267 351.538 234 343.8C232.267 342.199 230.4 340.598 228.4 339.131C227.467 338.33 226.4 337.53 225.467 336.863C216.8 349.137 203.067 355.941 187.067 355.007Z" fill="white"/>
<path d="M205.467 284.165C202.533 287.634 195.2 285.633 191.6 284.165C186.933 282.431 182.933 279.229 180.133 275.093C178.4 272.559 174.267 274.96 176 277.495C179.867 282.965 185.2 287.1 191.6 289.235C196.667 290.836 204.933 292.17 208.8 287.501C210.8 285.233 207.467 281.764 205.467 284.165Z" fill="#68422D"/>
<path d="M247.733 190.778C247.6 190.644 247.467 190.377 247.333 190.244C245.867 188.51 242.667 189.577 240.667 189.577C238 189.71 235.467 189.577 232.8 189.444C227.6 188.91 222.4 187.709 217.467 185.975C207.867 182.373 199.067 176.236 192.533 168.231C192.133 167.698 191.6 167.031 190.933 167.031C189.867 167.031 189.333 168.365 188.933 169.432C186.267 179.705 177.333 186.909 168.8 193.312C159.067 200.65 150.667 208.255 147.2 220.395C143.733 232.802 146.933 246.543 153.867 257.216C161.467 268.957 173.2 277.628 185.6 284.299C190.533 286.967 196 289.368 201.6 289.368C205.867 289.368 210.133 288.034 213.867 286.033C222.533 281.497 229.2 273.626 234.4 265.354C247.733 244.009 253.733 216.926 248 192.112C248 191.578 247.867 191.178 247.733 190.778Z" fill="#AB7051"/>
<path d="M197.067 210.656C196.8 210.656 196.533 210.789 196.4 210.923C196 211.19 195.733 211.723 195.467 212.124C193.733 215.059 190.533 217.193 187.067 217.593C183.6 217.994 180 216.926 177.467 214.525C176.933 213.991 176.4 213.324 175.6 213.191C171.867 212.524 177.333 218.794 178.133 219.461C180.667 221.329 183.733 222.396 186.8 222.129C192.133 221.729 196.8 217.593 198.133 212.524C198.267 211.857 198.4 211.19 197.867 210.789C197.6 210.789 197.333 210.656 197.067 210.656Z" fill="#291410"/>
<path d="M175.067 235.07C173.2 235.07 171.333 235.737 169.6 236.938C165.467 239.739 162.667 245.076 163.467 250.012C164.267 255.082 168.133 259.351 173.333 259.751C178.533 260.285 183.733 256.683 185.467 251.88C187.467 246.277 185.067 239.473 180 236.404C178.4 235.47 176.8 235.07 175.067 235.07Z" fill="#9F5D3A"/>
<path d="M189.787 195.094C183.12 191.759 175.253 192.426 169.387 196.962C168.453 197.763 169.387 199.363 170.32 198.563C175.787 194.427 182.72 193.627 188.853 196.695C189.92 197.362 190.853 195.761 189.787 195.094Z" fill="#291410"/>
<path d="M225.467 210.789C225.067 211.19 225.333 211.99 225.467 212.524C227.467 217.327 232.4 220.662 237.2 220.128C240 219.861 242.533 218.394 244.4 216.126C245.067 215.325 248.667 208.255 245.467 209.589C244.8 209.856 244.4 210.523 244 211.19C242.267 213.991 239.2 215.726 236.133 215.859C233.067 215.992 229.867 214.391 227.733 211.857C227.467 211.456 227.067 211.056 226.667 210.789C226.4 210.656 226.267 210.656 226 210.656C225.867 210.523 225.6 210.523 225.467 210.789Z" fill="#291410"/>
<path d="M242.4 232.936C240.8 232.936 239.067 233.336 237.467 234.27C232.4 237.338 230 244.142 232 249.745C233.2 253.081 236 255.749 239.2 256.95C242.8 249.879 245.6 242.274 247.467 234.536C245.867 233.469 244.133 232.936 242.4 232.936Z" fill="#9F5D3A"/>
<path d="M226.416 193.094C232.549 189.759 239.616 190.426 244.949 194.962C245.883 195.763 244.949 197.363 244.016 196.563C239.083 192.427 232.816 191.627 227.216 194.695C226.283 195.362 225.483 193.761 226.416 193.094Z" fill="#291410"/>
<path d="M217.333 228.4C217.2 227.999 216.933 227.466 216.8 227.066C214.8 222.263 213.733 216.793 214.667 211.723C214.8 211.19 214.933 210.656 214.667 210.122C214.533 209.589 213.867 209.188 213.333 209.455C212.933 209.722 212.8 210.122 212.8 210.523C211.733 217.193 212.8 224.13 215.867 230.134C216.533 231.468 217.333 232.936 217.733 234.403C218.133 235.871 218.133 237.605 217.333 238.939C216.4 240.407 214.533 241.074 212.667 241.34C210 241.741 210.933 243.342 212.933 243.875C214.667 244.276 216.8 243.609 218 242.274C219.867 240.273 220.133 237.338 219.6 234.67C219.2 232.402 218.267 230.401 217.333 228.4Z" fill="#291410"/>
<path d="M219.733 255.882C219.333 256.016 219.067 256.416 218.667 256.683C217.067 258.284 214.8 259.218 212.533 259.351C210.267 259.484 207.867 258.684 206.133 257.216C205.6 256.816 205.2 256.282 204.533 256.149C201.733 255.615 204.933 259.751 205.467 260.418C206.933 261.886 208.667 262.953 210.667 263.353C214 264.02 217.6 262.82 219.733 260.151C220.533 259.218 221.067 258.017 221.067 256.816C221.067 256.549 221.067 256.282 220.933 256.016C220.667 255.749 220.133 255.615 219.733 255.882Z" fill="#291410"/>
<path d="M131.6 263.887C126.667 260.952 121.467 265.755 118.267 269.09C115.333 272.025 112.933 275.36 110.933 278.829C112 273.76 113.067 268.69 114.133 263.754C118.133 258.684 120.933 252.681 122.533 246.41C123.2 243.609 123.467 240.14 121.333 238.139C120.533 237.472 119.6 237.072 118.533 236.938C116.933 236.805 115.067 237.338 113.867 238.406C111.733 240.14 110.8 242.942 110.4 245.61C109.467 251.747 109.333 257.75 111.2 263.754C111.2 263.754 111.2 263.754 111.2 263.887C109.467 271.492 107.867 279.096 106.4 286.834C105.733 282.298 104.667 277.762 102.4 274.026C100.533 270.958 96.4 268.023 92.9333 270.691C88.9333 273.626 91.3333 279.363 92.9333 282.831C95.6 288.568 99.6 293.238 104.533 297.106C103.467 303.777 102.4 310.448 101.6 317.118C100.667 313.783 99.2 310.581 97.2 307.646C94.6667 303.91 90 298.441 84.8 300.975C73.3333 306.579 94.4 324.856 100.133 329.525C99.4667 335.395 98.9333 341.399 98.4 347.269C96.4 343.533 94.5333 339.665 92.1333 336.329C90.5333 334.061 87.7333 332.594 85.3333 334.862C79.0667 340.865 92.6667 349.537 97.8667 352.739C97.3333 360.61 96.9333 368.615 96.6667 376.619C96.6667 378.354 99.3333 378.754 99.4667 377.02C99.7333 369.148 100.133 361.144 100.667 353.272C100.933 353.139 101.067 352.872 101.2 352.605C107.867 350.871 114.133 347.803 119.333 343.267C122.267 340.732 129.6 334.595 125.867 330.059C122.267 325.79 115.867 331.126 113.067 333.394C108.267 337.263 104.267 341.933 101.2 347.136C101.733 340.865 102.267 334.728 102.933 328.458C103.2 328.325 103.6 328.058 103.733 327.658C109.467 324.456 114.667 320.187 118.8 314.984C120.933 312.315 126.8 305.511 122.4 302.443C118.133 299.508 113.2 305.511 110.667 308.313C108 311.381 105.867 314.717 104.267 318.319C105.467 308.847 106.933 299.374 108.667 289.902C108.8 289.902 108.8 289.769 108.933 289.635C112.8 286.834 116.8 284.032 120.667 281.231C124.133 278.696 128.4 276.428 131.467 273.359C134.533 270.824 135.6 266.155 131.6 263.887Z" fill="#68422D"/>
<path d="M81.3333 393.563C95.8667 355.407 100.133 313.383 93.6 273.092C93.4667 272.559 93.3333 271.892 92.9333 271.625C91.3333 270.291 90.1333 275.627 89.7333 276.428C88.8 279.096 87.8667 281.631 86.9333 284.299C85.0667 289.502 83.3333 294.838 81.7333 300.175C78.5333 310.581 76 321.12 74.4 331.793C71.3333 352.339 72 373.684 79.0667 393.162C79.3333 393.963 80.1333 394.897 80.8 394.496C81.0667 394.363 81.2 393.963 81.3333 393.563C81.3333 393.696 81.3333 393.563 81.3333 393.563Z" fill="#3A3F57"/>
<path d="M81.0667 373.017C81.0667 372.884 81.0667 372.884 81.2 372.751C84.9333 359.943 87.4667 346.869 89.2 333.661C90.8 320.854 92.2667 308.046 91.3333 295.239C91.2 293.371 89.8667 290.97 88.4 293.504C87.7333 294.572 88.1333 297.507 88.1333 298.841C88 302.31 87.7333 305.778 87.4667 309.247C86.9333 316.184 86.2667 323.122 85.4667 329.926C83.8667 343.667 81.8667 357.408 79.3333 371.15C79.2 371.817 79.0667 372.484 79.3333 373.017C79.6 373.551 80.4 373.951 80.9333 373.418C80.9333 373.284 81.0667 373.151 81.0667 373.017Z" fill="#495382"/>
<path d="M86.6667 313.116C84.4 310.848 82.1333 308.713 79.8667 306.445C79.6 307.513 79.3333 308.58 78.9333 309.647C80.1333 311.382 81.3333 312.982 82.5333 314.583C83.6 316.051 85.6 319.119 87.2 319.92C88.1333 320.32 88.8 319.653 89.2 318.719C90.4 316.184 88.4 314.85 86.6667 313.116Z" fill="#495382"/>
<path d="M86 336.329C82.5333 332.461 79.0667 328.592 75.4667 324.723C75.2 325.79 75.0667 326.991 74.8 328.058C77.4667 331.927 80.2667 335.662 82.9333 339.531C83.4667 340.332 85.3333 341.799 85.8667 340.198C86 339.932 86 339.665 86.1333 339.264C86.5333 338.331 86.5333 336.997 86 336.329Z" fill="#495382"/>
<path d="M82.8 353.406C79.8667 349.671 76.5333 346.068 73.0667 342.733C72.9333 344.334 72.8 345.935 72.8 347.536C75.6 351.271 78.5333 354.874 81.3333 358.609C81.7333 359.143 82.8 360.343 83.6 359.543C83.8667 359.276 84 358.742 84 358.209C84 356.475 83.4667 354.073 82.8 353.406Z" fill="#495382"/>
<path d="M45.0667 292.971C46.2667 294.838 48.1333 296.306 49.6 297.907C51.2 299.641 52.9333 301.375 54.5333 303.243C54.5333 303.243 54.5333 303.377 54.6667 303.377C54.5333 308.179 54.4 312.982 54 317.652C53.6 315.784 52.8 313.916 51.8667 312.182C50.9333 310.581 49.2 307.112 46.8 308.179C44.2667 309.247 46.5333 313.116 47.3333 314.583C48.8 317.518 50.9333 320.053 53.4667 322.321C53.4667 322.454 53.6 322.721 53.7333 322.721C53.4667 325.79 53.0667 328.858 52.8 331.927C51.7333 328.992 50.4 326.323 48.4 324.055C47.2 322.721 44.6667 319.386 42.5333 321.12C40.2667 322.988 43.2 326.724 44.4 328.191C46.5333 330.993 49.2 332.994 52.2667 334.595C52.2667 334.728 52.4 334.862 52.4 334.995C51.8667 338.864 51.3333 342.733 50.6667 346.602C50.5333 347.536 51.8667 347.536 52 346.735C52.6667 342.866 53.3333 338.864 53.7333 334.995C56.5333 333.928 64.1333 331.126 61.6 327.524C60.6667 326.19 59.2 326.59 58.1333 327.657C56.6667 329.125 55.3333 330.726 54 332.327C54.4 329.392 54.6667 326.457 54.9333 323.522C58.1333 321.921 70.2667 315.117 65.2 311.114C62.9333 309.38 60.1333 311.515 58.5333 313.116C57.2 314.316 56.2667 315.784 55.4667 317.251C55.7333 313.916 55.8667 310.581 56 307.112C58.8 305.778 61.2 303.777 63.0667 301.242C64.2667 299.775 65.8667 297.106 64.2667 295.239C62.8 293.638 60.5333 294.572 59.3333 295.906C57.8667 297.507 56.9333 299.641 56.1333 301.776C56.2667 297.907 56.1333 294.038 56.1333 290.169C57.6 287.367 58.1333 284.432 58.2667 281.364C58.2667 280.03 58.1333 278.562 57.3333 277.495C56.8 276.828 56 276.428 55.2 276.294C54.6667 276.294 54.1333 276.294 53.7333 276.561C52.5333 277.361 52.2667 278.962 52.4 280.43C52.5333 283.632 53.3333 286.834 54.8 289.769C54.8 292.304 54.9333 294.838 54.9333 297.507C54.2667 295.639 53.4667 293.771 52.4 292.037C51.2 290.169 49.0667 287.234 46.4 288.168C44 288.968 44 291.37 45.0667 292.971Z" fill="#68422D"/>
<path d="M258 262.019C245.6 299.908 238.667 338.864 239.333 378.887C239.333 379.821 240.667 379.688 240.667 378.754C240 338.864 246.933 300.041 259.333 262.286C259.6 261.486 258.267 261.219 258 262.019Z" fill="#68422D"/>
<path d="M266 242.274C265.867 242.141 265.867 241.874 265.6 241.874C265.333 241.741 265.2 242.008 264.933 242.141C262 244.409 260 247.478 258.667 250.946C257.733 253.348 257.333 255.882 257.067 258.284C256.933 259.484 257.067 260.685 257.067 261.886C257.067 262.82 256.933 263.887 257.733 264.554C257.867 264.688 258 264.688 258.267 264.688C258.533 264.688 258.8 264.421 258.933 264.154C261.2 260.952 263.467 257.617 264.933 254.015C266.4 250.279 266.933 246.277 266 242.408C266 242.274 266 242.274 266 242.274Z" fill="#68422D"/>
<path d="M248.667 263.087L248.533 262.953C248.267 262.82 247.867 262.953 247.733 263.22C247.6 263.487 247.6 263.754 247.6 264.02C247.467 267.089 247.6 269.891 248.533 272.826C249.467 275.761 250.933 278.029 252.667 280.43C252.8 280.563 252.933 280.697 253.067 280.697C253.467 280.697 253.6 280.297 253.6 279.896C253.733 274.026 252.133 268.156 248.933 263.22C248.8 263.353 248.667 263.22 248.667 263.087Z" fill="#68422D"/>
<path d="M266 268.556C265.867 268.156 265.467 268.156 265.067 268.29C262.133 269.223 259.467 270.958 257.333 273.226C256.267 274.426 255.333 275.627 254.533 276.961C254.133 277.628 253.733 278.295 253.467 279.096C253.2 279.763 252.8 280.563 253.867 280.43C255.2 280.296 256.267 279.496 257.333 278.696C258.933 277.361 260.4 275.76 261.867 274.16C263.333 272.559 264.667 270.824 265.867 268.957C266 268.823 266 268.69 266 268.556Z" fill="#68422D"/>
<path d="M22.1333 284.165C17.3333 316.718 14.9333 349.67 14.9333 382.623C14.9333 383.556 16.2667 383.556 16.2667 382.623C16.2667 349.804 18.6667 316.984 23.3333 284.566C23.6 283.632 22.2667 283.231 22.1333 284.165Z" fill="#68422D"/>
<path d="M28.5333 258.017C28.4 257.617 28.1333 257.083 27.7333 257.216C27.4667 257.216 27.2 257.483 26.9333 257.617C20.1333 264.687 20.1333 274.96 22 284.165C22.1333 284.833 22.5333 285.5 23.0667 285.366C23.4667 285.233 23.7333 284.833 23.8667 284.566C27.2 276.428 28.8 267.489 28.6667 258.684C28.6667 258.417 28.5333 258.15 28.5333 258.017Z" fill="#68422D"/>
<path d="M19.8667 310.581C19.8667 310.448 19.8667 310.181 19.8667 310.047C19.3333 301.242 17.3333 292.437 13.7333 284.432C13.6 284.166 13.4667 283.899 13.3333 283.765C12.9333 283.498 12.4 283.765 12.1333 284.032C11.6 284.833 11.7333 286.167 11.7333 286.967C11.7333 288.301 11.6 289.635 11.6 290.97C11.6 293.504 11.7333 296.173 12.1333 298.707C12.8 303.11 14.6667 307.512 17.8667 310.714C18.4 311.248 19.2 311.648 19.7333 311.248C19.7333 311.115 19.8667 310.848 19.8667 310.581Z" fill="#68422D"/>
<path d="M17.6 338.33C17.6 338.197 17.6 337.93 17.6 337.797C17.0667 328.992 15.0667 320.187 11.4667 312.182C11.3333 311.915 11.2 311.648 11.0667 311.515C10.6667 311.248 10.1333 311.515 9.86667 311.782C9.2 312.716 9.33334 314.05 9.33334 314.85C9.33334 316.184 9.2 317.518 9.2 318.852C9.2 321.387 9.33334 324.055 9.73334 326.59C10.4 330.993 12.2667 335.395 15.4667 338.597C16 339.131 16.8 339.531 17.3333 339.131C17.4667 338.998 17.6 338.731 17.6 338.33Z" fill="#68422D"/>
<path d="M16.2667 356.474C16.2667 356.341 16.2667 356.207 16.1333 355.941C14 348.736 10.4 341.932 5.86667 336.062C5.73334 335.929 5.6 335.662 5.33333 335.662C4.93333 335.529 4.53333 335.796 4.4 336.196C4.13333 336.996 4.53333 338.064 4.66667 338.731C4.93333 339.798 5.06667 340.999 5.33333 342.066C5.86667 344.2 6.4 346.335 7.33333 348.336C8.8 351.805 11.2 355.14 14.4 357.141C14.9333 357.408 15.6 357.675 16 357.275C16.2667 357.008 16.2667 356.741 16.2667 356.474Z" fill="#68422D"/>
<path d="M16.8 338.997C17.2 339.531 18.1333 339.398 18.6667 338.997C22.6667 336.996 25.6 333.261 27.6 329.258C28.8 326.99 29.6 324.456 30.4 321.921C30.8 320.587 31.0667 319.386 31.4667 318.052C31.7333 317.251 32.2667 315.917 31.8667 315.117C31.7333 314.717 31.3333 314.316 30.8 314.45C30.5333 314.583 30.4 314.717 30.1333 314.85C24.2667 321.521 19.7333 329.258 16.6667 337.53C16.6667 337.663 16.5333 337.93 16.5333 338.064C16.5333 338.464 16.5333 338.731 16.8 338.997Z" fill="#68422D"/>
<path d="M15.8667 359.142C16.1333 359.81 17.0667 359.676 17.7333 359.409C22 357.942 25.3333 354.606 27.8667 350.871C29.3333 348.736 30.5333 346.335 31.6 344.067C32.1333 342.866 32.6667 341.666 33.2 340.331C33.4667 339.531 34.2667 338.33 34 337.396C33.8667 336.996 33.4667 336.596 33.0667 336.596C32.8 336.596 32.6667 336.863 32.4 336.996C25.7333 342.866 20.2667 349.937 16.1333 357.675C16 357.808 16 358.075 15.8667 358.209C15.7333 358.475 15.7333 358.876 15.8667 359.142Z" fill="#68422D"/>
<path d="M19.3333 310.848C19.6 311.381 20.4 311.248 21.0667 310.981C24.8 309.38 27.7333 306.312 29.8667 302.843C31.0667 300.842 32 298.707 32.9333 296.573C33.3333 295.505 33.7333 294.305 34.1333 293.237C34.4 292.437 34.9333 291.37 34.8 290.569C34.6667 290.169 34.2667 289.769 33.8667 289.902C33.6 289.902 33.4667 290.169 33.3333 290.302C27.6 295.772 22.9333 302.443 19.4667 309.647C19.3333 309.78 19.3333 309.914 19.3333 310.181C19.2 310.314 19.2 310.581 19.3333 310.848Z" fill="#68422D"/>
<path d="M70.9333 401.167C69.4667 360.343 57.0667 320.053 35.4667 285.366C35.2 284.833 34.8 284.432 34.2667 284.166C32.2667 283.632 33.2 288.968 33.2 289.769C33.3333 292.57 33.4667 295.372 33.6 298.174C33.8667 303.777 34.2667 309.247 34.9333 314.85C36 325.656 37.7333 336.329 40.4 346.869C45.4667 367.014 54.4 386.492 68.5333 401.701C69.0667 402.368 70.2667 402.901 70.6667 402.234C70.9333 401.834 70.9333 401.567 70.9333 401.167Z" fill="#3A3F57"/>
<path d="M62.6667 382.223C62.6667 382.089 62.6667 382.089 62.6667 381.956C61.0667 368.748 58.4 355.674 54.8 342.867C51.3333 330.459 47.6 318.185 41.8667 306.579C41.0667 304.978 38.8 303.243 38.5333 306.178C38.4 307.513 39.8667 309.914 40.2667 311.248C41.4667 314.45 42.5333 317.785 43.6 321.121C45.8667 327.658 47.8667 334.328 49.8667 340.999C53.7333 354.34 57.2 367.814 60.1333 381.289C60.2667 381.956 60.4 382.623 60.9333 383.023C61.4667 383.424 62.2667 383.424 62.5333 382.89C62.6667 382.623 62.6667 382.356 62.6667 382.223Z" fill="#495382"/>
<path d="M44.5333 324.856C41.6 323.655 38.6667 322.588 35.7333 321.387C35.8667 322.455 36 323.655 36.1333 324.723C37.8667 325.923 39.6 326.991 41.4667 327.925C43.0667 328.725 46 330.993 47.8667 330.993C48.9333 330.993 49.3333 330.059 49.2 329.125C49.2 326.324 46.8 325.79 44.5333 324.856Z" fill="#495382"/>
<path d="M52.9333 346.469C48.2667 344.334 43.4667 342.066 38.8 339.932C39.0667 340.999 39.3333 342.2 39.6 343.267C43.6 345.668 47.6 348.203 51.6 350.604C52.4 351.138 54.6667 351.805 54.6667 350.071C54.6667 349.804 54.6667 349.537 54.5333 349.137C54.2667 348.203 53.7333 346.869 52.9333 346.469Z" fill="#495382"/>
<path d="M56.6667 363.412C52.4 361.144 48 359.143 43.4667 357.408C44 358.876 44.5333 360.343 45.0667 361.944C49.0667 364.212 53.2 366.48 57.2 368.748C57.8667 369.149 59.2 369.816 59.6 368.748C59.7333 368.348 59.6 367.948 59.4667 367.414C58.9333 365.813 57.4667 363.946 56.6667 363.412Z" fill="#495382"/>
<path d="M98.5333 451.73C98.5333 451.997 98.5333 452.397 98.6667 452.664C99.2 453.331 100.267 452.797 100.933 452.263C115.6 437.588 125.333 418.51 131.333 398.632C134.4 388.226 136.533 377.553 138.133 366.88C138.933 361.411 139.6 355.807 140.133 350.337C140.4 347.536 140.667 344.734 140.933 342.066C141.067 341.132 142.133 335.929 140.133 336.329C139.6 336.463 139.2 336.996 138.933 337.397C115.733 371.016 101.733 410.906 98.5333 451.73C98.5333 451.596 98.5333 451.596 98.5333 451.73Z" fill="#3A3F57"/>
<path d="M107.6 433.586C107.867 434.119 108.667 434.253 109.2 433.853C109.733 433.452 109.867 432.785 110 432.118C113.467 418.644 117.467 405.436 122 392.228C124.267 385.691 126.533 379.154 129.067 372.617C130.267 369.415 131.6 366.213 132.8 362.878C133.333 361.677 134.933 359.276 134.8 357.942C134.533 355.007 132.267 356.608 131.467 358.209C125.2 369.415 121.067 381.689 117.067 393.829C112.933 406.503 109.733 419.444 107.6 432.519C107.6 432.652 107.6 432.652 107.6 432.785C107.467 433.186 107.467 433.452 107.6 433.586Z" fill="#495382"/>
<path d="M128 376.486C130.933 375.419 134 374.485 136.933 373.417C136.8 374.485 136.533 375.685 136.4 376.753C134.667 377.82 132.8 378.754 130.933 379.688C129.333 380.488 126.267 382.489 124.4 382.489C123.333 382.489 123.067 381.556 123.067 380.488C123.333 377.687 125.6 377.286 128 376.486Z" fill="#495382"/>
<path d="M118.667 397.832C123.467 395.83 128.267 393.829 133.067 391.828C132.8 392.895 132.533 393.963 132.133 395.163C128 397.431 124 399.699 119.867 402.101C119.067 402.634 116.8 403.168 116.8 401.434C116.8 401.167 116.8 400.9 116.933 400.5C117.333 399.433 117.867 398.098 118.667 397.832Z" fill="#495382"/>
<path d="M114.267 414.508C118.533 412.373 123.067 410.506 127.6 409.038C127.067 410.506 126.4 411.973 125.867 413.441C121.733 415.575 117.6 417.71 113.467 419.711C112.8 420.111 111.333 420.645 111.067 419.578C110.933 419.177 111.067 418.777 111.2 418.244C111.867 416.909 113.467 414.908 114.267 414.508Z" fill="#495382"/>
<path d="M178 425.848C180.667 385.158 172.4 343.667 154.267 307.112C154 306.579 153.733 306.045 153.2 305.912C151.2 305.111 151.6 310.581 151.6 311.381C151.467 314.183 151.333 316.985 151.2 319.786C150.933 325.39 150.8 330.859 150.8 336.463C150.8 347.269 151.467 358.075 153.067 368.882C156.133 389.427 163.067 409.705 175.6 426.248C176.133 426.915 177.2 427.716 177.733 427.049C177.867 426.648 178 426.248 178 425.848Z" fill="#3A3F57"/>
<path d="M171.6 406.237C171.6 406.103 171.6 406.103 171.6 405.97C171.333 392.629 170 379.421 167.733 366.347C165.467 353.673 163.067 340.999 158.4 328.992C157.733 327.257 155.733 325.39 155.067 328.191C154.8 329.392 156 332.06 156.267 333.394C157.067 336.73 157.867 340.198 158.667 343.533C160.267 350.337 161.6 357.141 162.933 363.945C165.467 377.553 167.6 391.295 169.2 405.036C169.333 405.703 169.333 406.37 169.733 406.77C170.133 407.171 171.067 407.304 171.333 406.77C171.6 406.503 171.6 406.37 171.6 406.237Z" fill="#495382"/>
<path d="M159.333 347.402C156.533 345.935 153.733 344.467 150.8 343.133C150.8 344.201 150.933 345.401 150.933 346.469C152.533 347.803 154.133 349.003 155.867 350.204C157.333 351.271 160.133 353.673 161.867 353.806C162.933 353.94 163.333 353.006 163.467 352.072C163.867 349.137 161.6 348.47 159.333 347.402Z" fill="#495382"/>
<path d="M165.6 369.682C161.067 367.014 156.667 364.346 152.133 361.677C152.267 362.745 152.4 363.945 152.533 365.013C156.267 367.814 160 370.749 163.733 373.551C164.533 374.085 166.667 375.019 166.8 373.418C166.8 373.151 166.8 372.884 166.8 372.484C166.667 371.55 166.267 370.216 165.6 369.682Z" fill="#495382"/>
<path d="M167.6 386.892C163.6 384.224 159.467 381.689 155.067 379.688C155.467 381.289 155.733 382.756 156.133 384.357C160 387.026 163.733 389.694 167.6 392.362C168.267 392.762 169.467 393.563 170 392.495C170.133 392.229 170.133 391.695 170 391.161C169.6 389.56 168.4 387.426 167.6 386.892Z" fill="#495382"/>
<path d="M196.4 440.924C196.4 441.19 196.4 441.591 196.533 441.857C197.067 442.524 198.133 441.991 198.8 441.457C213.6 426.915 223.333 407.838 229.467 387.959C232.667 377.553 234.8 367.014 236.4 356.208C237.2 350.738 237.867 345.134 238.4 339.665C238.667 336.863 238.933 334.061 239.2 331.393C239.333 330.459 240.4 325.256 238.4 325.656C237.867 325.79 237.467 326.323 237.2 326.724C213.867 360.343 199.733 400.1 196.4 440.924C196.4 440.79 196.4 440.924 196.4 440.924Z" fill="#3A3F57"/>
<path d="M205.467 422.779C205.733 423.313 206.533 423.447 207.067 423.046C207.6 422.646 207.733 421.979 207.867 421.445C211.467 408.104 215.467 394.763 220 381.689C222.267 375.152 224.667 368.615 227.2 362.211C228.4 359.009 229.733 355.807 231.067 352.605C231.6 351.405 233.2 349.003 233.067 347.669C232.8 344.734 230.533 346.335 229.733 347.936C223.333 359.142 219.2 371.283 215.067 383.557C210.8 396.231 207.6 409.172 205.467 422.246C205.467 422.379 205.467 422.379 205.467 422.513C205.467 422.513 205.467 422.646 205.467 422.779Z" fill="#495382"/>
<path d="M226.133 365.946C229.2 364.879 232.133 363.945 235.2 362.878C235.067 363.945 234.8 365.146 234.533 366.213C232.8 367.28 230.933 368.214 229.067 369.148C227.467 369.949 224.4 371.95 222.533 371.95C221.467 371.95 221.2 371.016 221.2 369.949C221.467 367.014 223.867 366.747 226.133 365.946Z" fill="#495382"/>
<path d="M216.8 387.159C221.6 385.158 226.4 383.156 231.2 381.289C230.933 382.356 230.667 383.423 230.267 384.624C226.133 386.892 222 389.16 218 391.428C217.2 391.961 214.933 392.495 214.933 390.761C214.933 390.494 214.933 390.227 215.067 389.827C215.467 388.76 216 387.426 216.8 387.159Z" fill="#495382"/>
<path d="M212.267 403.835C216.533 401.701 221.067 399.966 225.733 398.499C225.2 399.966 224.533 401.434 224 402.901C219.867 405.036 215.733 407.037 211.467 409.172C210.8 409.572 209.333 410.105 209.067 409.038C208.933 408.638 209.067 408.238 209.333 407.704C209.867 406.103 211.467 404.235 212.267 403.835Z" fill="#495382"/>
<path d="M148.533 374.085C151.467 362.878 153.467 351.672 154.933 340.198C155.067 339.264 153.6 339.264 153.6 340.198C152.267 350.738 150.4 361.144 147.867 371.55C145.867 360.21 142.933 349.003 139.2 337.93C138.933 337.13 137.6 337.397 137.867 338.331C142.533 351.938 145.867 365.813 147.867 379.955C144.667 374.885 140.667 370.349 135.867 366.614C135.2 366.08 134.133 367.014 134.933 367.548C140.533 371.817 144.933 377.153 148.267 383.423C149.067 390.094 149.6 396.631 149.867 403.302C149.867 404.236 151.333 404.236 151.2 403.302C150.8 393.563 149.867 383.957 148.267 374.351C148.4 374.351 148.533 374.218 148.533 374.085Z" fill="#645D33"/>
<path d="M137.467 328.725C129.867 328.725 129.867 340.465 137.467 340.465C145.067 340.465 145.067 328.725 137.467 328.725Z" fill="white"/>
<path d="M154.667 334.995C149.333 334.995 149.333 343.267 154.667 343.267C160 343.4 160 334.995 154.667 334.995Z" fill="white"/>
<path d="M134.933 363.678C130 363.678 130 371.283 134.933 371.283C139.733 371.283 139.733 363.678 134.933 363.678Z" fill="white"/>
<path d="M30.9333 374.218C30.1333 362.744 30 351.271 30.6667 339.664C30.6667 338.73 32.1333 338.997 32 339.931C31.3333 350.604 31.4667 361.144 32.1333 371.816C36.1333 361.01 40.9333 350.471 46.6667 340.331C47.0667 339.531 48.4 340.198 47.8667 340.865C40.9333 353.406 35.2 366.48 30.6667 380.088C34.6667 375.552 39.4667 371.95 44.8 369.148C45.6 368.748 46.4 369.815 45.6 370.349C39.3333 373.684 34 378.087 29.6 383.557C27.6 389.96 25.8667 396.364 24.5333 402.901C24.4 403.835 22.9333 403.568 23.2 402.634C25.2 393.162 28 383.823 31.2 374.751C30.9333 374.618 30.9333 374.485 30.9333 374.218Z" fill="#645D33"/>
<path d="M49.8667 331.66C57.3333 332.994 55.2 344.601 47.7333 343.266C40.2667 341.799 42.4 330.326 49.8667 331.66Z" fill="white"/>
<path d="M31.8667 334.728C37.0667 335.662 35.6 343.8 30.4 342.866C25.2 342.066 26.6667 333.794 31.8667 334.728Z" fill="white"/>
<path d="M46.1333 366.48C50.9333 367.414 49.6 374.885 44.8 373.951C40 373.017 41.3333 365.546 46.1333 366.48Z" fill="white"/>
<path d="M124 320.587C108.4 358.075 97.0667 397.165 90.1333 437.055C90 437.988 91.3333 438.255 91.4667 437.455C98.4 397.431 109.867 358.342 125.333 320.987C125.733 320.186 124.4 319.786 124 320.587Z" fill="#645D33"/>
<path d="M132.8 312.982C131.867 312.182 130.133 311.381 129.6 310.981C127.733 310.047 125.733 309.514 123.6 309.647C121.733 309.647 122.667 313.249 122.8 314.583C122.933 316.985 123.067 319.386 123.2 321.787C123.2 322.188 123.333 322.721 123.733 322.855C124.133 322.988 124.4 322.721 124.667 322.454C127.467 319.786 130.267 317.251 133.067 314.583C133.2 314.45 133.467 314.183 133.467 313.916C133.467 313.649 133.2 313.249 132.8 312.982Z" fill="#645D33"/>
<path d="M155.467 308.446C152.267 307.112 148.4 306.979 144.667 307.379C150.133 304.577 157.067 299.241 152.667 294.171C150.4 291.637 146.4 292.837 143.733 293.905C141.333 294.972 139.2 296.439 137.467 298.307C140.267 291.903 142.8 282.164 134.8 281.631C130.667 281.364 127.333 285.099 125.733 288.568C124.133 291.77 123.733 295.372 124.267 298.841C121.867 294.972 119.733 291.103 116.933 287.634C115.067 285.233 112.133 283.632 109.2 285.233C100.933 289.502 108.667 299.641 112.667 303.644C118.933 309.914 127.067 314.45 135.6 316.851C140 318.052 144.533 318.852 149.067 318.986C152.4 319.119 156.4 319.119 158.4 316.051C160.4 312.982 158.4 309.78 155.467 308.446Z" fill="#C49953"/>
<path d="M130 348.203C129.6 347.669 129.067 347.136 128.4 347.002C127.2 346.602 125.867 347.136 124.8 347.803C122.533 349.137 120.8 351.138 119.067 353.139C115.6 357.275 112.533 361.944 109.733 366.48C108.667 368.214 107.6 370.082 106.667 371.817C106.267 372.484 103.6 376.486 105.333 376.753C105.733 376.753 106 376.619 106.4 376.486C113.867 372.75 120.133 367.014 125.467 360.61C127.2 358.475 128.933 356.341 130 353.806C130.533 352.605 130.933 351.271 130.667 349.937C130.667 349.403 130.4 348.736 130 348.203Z" fill="#645D33"/>
<path d="M99.8667 395.83C99.8667 395.43 99.8667 394.897 99.7333 394.496C98.6667 389.16 97.7333 383.69 96.1333 378.487C95.3333 375.819 94.4 373.284 92.9333 370.883C92 369.415 90.6667 367.948 88.9333 368.081C86.4 368.214 85.7333 371.016 86 373.017C86.4 375.819 87.3333 378.354 88.5333 380.888C91.0667 386.492 94.2667 391.828 98.1333 396.764C98.4 397.165 98.8 397.431 99.2 397.431C99.3333 397.431 99.6 397.298 99.6 397.165C99.7333 396.764 99.8667 396.364 99.8667 395.83Z" fill="#645D33"/>
<path d="M190 336.729C190 336.596 190 336.329 189.867 336.196C189.6 335.929 189.333 336.062 188.933 336.062C187.6 336.463 186.133 336.996 184.933 337.663C183.733 338.197 181.867 339.264 183.2 340.732C184.8 342.333 186.267 343.934 187.867 345.535C188.133 345.801 188.533 346.202 188.933 346.068C189.467 345.935 189.733 345.268 189.733 344.734C190.133 342.199 190.267 339.531 190 336.729Z" fill="#645D33"/>
<path d="M195.333 322.988C195.6 319.253 196 313.116 192 310.981C188.933 309.38 186.267 311.915 185.2 314.717C184.133 317.652 184 320.854 184.133 323.922C183.6 322.588 182.933 321.254 182.133 319.92C181.2 318.185 179.333 314.583 176.667 315.784C174.267 316.851 175.2 320.32 175.6 322.188C176.133 324.189 176.8 326.057 177.733 327.924C175.2 325.523 172.133 323.388 169.2 323.655C165.2 323.922 166.533 327.658 168 329.926C172.267 336.329 181.467 345.134 189.333 338.064C193.467 334.462 194.933 328.058 195.333 322.988Z" fill="#C49953"/>
<path d="M189.333 344.2C189.067 343.4 187.867 343.8 188 344.734C197.467 380.221 200.933 417.176 198.133 453.864C198 454.798 199.467 454.932 199.467 454.131C202.4 417.176 198.933 379.955 189.333 344.2Z" fill="#645D33"/>
<path d="M195.467 375.952C195.467 375.819 195.467 375.819 195.467 375.685C195.067 373.684 194 371.817 192.8 370.216C191.6 368.615 190 367.281 188.533 365.946C186.267 363.945 183.867 362.078 181.067 361.277C180.267 361.01 179.333 360.877 178.4 361.144C175.467 361.944 176.667 365.013 178 366.614C182.133 371.683 187.867 375.285 194.267 376.886C194.667 377.02 195.2 377.02 195.467 376.753C195.6 376.486 195.6 376.219 195.467 375.952Z" fill="#645D33"/>
<path d="M211.6 370.082C211.467 369.949 211.333 369.949 211.2 369.949C210 369.549 208.533 369.949 207.6 370.749C206.533 371.55 205.867 372.617 205.2 373.818C201.333 380.889 199.067 388.893 198.267 396.765C198.267 397.432 198.267 398.232 198.933 398.366C199.333 398.499 199.733 398.099 200 397.832C203.333 394.096 206.4 389.961 209.2 385.692C210.933 382.89 212.667 379.821 213.467 376.62C213.733 375.419 214 374.085 213.6 372.751C213.2 371.683 212.533 370.616 211.6 370.082Z" fill="#645D33"/>
<path d="M200.133 428.116C199.333 426.515 198.4 425.048 197.467 423.58C194.133 418.51 190.667 413.574 187.067 408.905C185.333 406.637 183.6 404.502 181.6 402.634C180.667 401.701 179.6 400.767 178.267 400.633C175.2 400.1 174.533 403.302 175.6 405.436C180.667 415.309 189.467 423.046 198.933 428.916C199.2 429.05 199.467 429.183 199.733 429.183C200 429.183 200.4 429.05 200.4 428.783C200.267 428.516 200.267 428.383 200.133 428.116Z" fill="#645D33"/>
<path d="M219.467 323.522C211.067 367.547 206 412.24 204.4 457.066C204.4 458.4 206.4 458.4 206.533 457.066C208.133 412.374 213.067 367.948 221.467 324.055C221.733 322.721 219.733 322.188 219.467 323.522Z" fill="#68422D"/>
<path d="M216 353.539C216 353.406 215.867 353.272 215.867 353.139C212.667 346.602 208.667 340.598 203.867 335.128C203.6 334.862 203.333 334.461 202.933 334.461C201.2 334.195 202.933 338.864 203.2 339.664C203.867 341.666 204.8 343.667 205.867 345.401C208.133 349.003 211.2 352.205 214.933 354.34C215.2 354.473 215.333 354.607 215.6 354.607C216.133 354.607 216.133 354.073 216 353.539Z" fill="#68422D"/>
<path d="M229.6 347.803L229.467 347.936C225.6 351.004 222.133 354.607 219.2 358.475C217.733 360.477 216.4 362.611 215.2 364.746C214.8 365.546 211.733 370.749 213.333 370.883C213.733 370.883 214.133 370.749 214.4 370.482C221.067 366.08 226.267 359.676 229.2 352.205C229.6 351.138 230 349.937 230.4 348.736C230.533 348.336 230.667 347.669 230.133 347.402C230 347.536 229.867 347.669 229.6 347.803Z" fill="#68422D"/>
<path d="M252.667 284.032C248.533 276.027 238.267 283.365 232.267 289.502C232.4 289.235 232.4 288.968 232.533 288.835C234.267 284.432 236.133 280.163 237.733 275.761C238.667 273.359 239.333 270.558 237.067 268.69C234.667 266.822 230.133 266.689 227.2 266.422C225.067 266.288 222.667 266.422 221.733 268.69C220.4 271.758 221.6 276.828 222 280.03C222.4 283.765 223.067 287.367 223.733 291.103C221.067 285.766 217.867 280.03 213.467 276.161C209.333 272.559 205.333 275.36 202.4 279.096C198.667 283.899 200 287.101 204.267 290.703C208.267 294.038 212.8 296.439 217.733 297.907L210.4 297.773C207.2 297.773 203.867 297.373 200.667 297.773C196 298.574 195.6 302.043 196.533 306.045C197.6 310.314 200 314.85 205.2 313.649C208.4 312.982 211.067 310.581 213.6 308.713C216.267 306.845 218.933 304.978 221.6 303.11C217.733 308.046 214.133 313.383 211.733 319.119C209.333 324.722 213.467 327.257 218.267 329.258C222.133 330.859 227.467 330.726 229.067 326.19C230.133 323.122 229.467 319.119 229.333 315.784C229.2 312.315 229.067 308.847 228.8 305.378C231.867 309.647 235.333 313.516 239.333 316.851C242.667 319.653 246.533 321.254 249.333 316.851C251.6 313.249 252.933 308.713 248.933 305.912C244.533 302.71 238.667 300.709 233.2 299.108C238.933 298.841 244.667 297.64 250 295.372C255.333 292.971 254.933 288.568 252.667 284.032Z" fill="#C49953"/>
<path d="M230.4 288.301C229.867 288.168 229.333 288.034 228.8 287.901C226.667 287.634 224.4 288.168 222.533 289.235C215.867 293.237 216.533 304.177 224.4 306.445C228.267 307.512 232.8 305.645 234.667 302.176C235.6 300.308 236 298.174 235.867 296.172C235.733 294.438 235.333 292.57 234.267 291.236C233.333 289.769 231.867 288.835 230.4 288.301Z" fill="#FFC152"/>
<path d="M228.8 290.302C226 290.302 226 294.705 228.8 294.705C231.6 294.572 231.6 290.302 228.8 290.302Z" fill="#9F5D3A"/>
<path d="M223.067 294.038C220.8 294.038 220.8 297.507 223.067 297.507C225.333 297.507 225.333 294.038 223.067 294.038Z" fill="#9F5D3A"/>
<path d="M225.2 299.107C221.333 299.107 221.2 305.244 225.2 305.244C229.067 305.244 229.067 299.107 225.2 299.107Z" fill="#9F5D3A"/>
<path d="M232.267 294.171C229.467 294.171 229.467 298.574 232.267 298.574C235.067 298.574 235.067 294.171 232.267 294.171Z" fill="#9F5D3A"/>
<path d="M231.2 300.308C229.467 300.308 229.467 302.977 231.2 302.977C232.933 302.977 232.933 300.308 231.2 300.308Z" fill="#9F5D3A"/>
<path d="M261.067 309.247C260.8 308.446 259.467 308.713 259.733 309.647C266.8 334.195 270.533 359.543 270.667 385.024C270.667 385.958 272 385.958 272 385.024C271.867 359.276 268.133 333.795 261.067 309.247Z" fill="#645D33"/>
<path d="M256.533 294.438C256.533 294.438 256.4 294.438 256.533 294.438C256.4 294.171 256.133 294.038 256 294.171C255.867 294.171 255.733 294.438 255.733 294.572C254.933 300.308 256 306.045 260.133 310.448C260.267 310.581 260.533 310.714 260.667 310.581C260.8 310.581 260.8 310.448 260.8 310.314C261.867 304.711 260.267 298.841 256.533 294.438Z" fill="#645D33"/>
<path d="M253.867 320.053C253.6 319.92 253.333 319.92 253.333 320.053C253.2 320.187 253.2 320.453 253.333 320.587C255.733 325.923 259.6 330.192 265.467 331.527C265.733 331.527 266 331.527 266 331.393C266 331.26 266 331.126 266 331.126C263.867 325.923 259.333 321.788 253.867 320.053Z" fill="#645D33"/>
<path d="M257.333 338.864C257.2 338.864 257.2 338.864 257.333 338.864C257.067 338.864 256.933 338.731 256.8 338.864C256.667 338.998 256.8 339.131 256.8 339.398C259.2 344.201 262.933 347.936 268.4 349.003C268.533 349.003 268.8 349.003 268.933 348.87C268.933 348.737 268.933 348.737 268.933 348.603C266.667 343.8 262.267 340.198 257.333 338.864Z" fill="#645D33"/>
<path d="M258.933 359.543C258.933 359.543 258.8 359.543 258.933 359.543C258.667 359.41 258.533 359.41 258.4 359.543C258.267 359.676 258.4 359.943 258.4 360.077C260.8 365.146 264.8 369.015 270.533 370.082C270.8 370.082 271.067 370.082 271.067 369.949C271.067 369.816 271.067 369.816 271.067 369.682C268.8 364.746 264.133 360.877 258.933 359.543Z" fill="#645D33"/>
<path d="M265.467 330.593C265.467 330.726 265.467 330.859 265.6 330.859C265.733 330.993 266 330.859 266.133 330.726C270.533 326.59 271.733 320.854 270.933 314.983C270.933 314.85 270.8 314.583 270.667 314.583C270.533 314.583 270.4 314.717 270.267 314.85C270.267 314.85 270.267 314.85 270.133 314.983C266.4 318.986 264.533 324.989 265.467 330.593Z" fill="#645D33"/>
<path d="M268.667 347.936C268.667 348.069 268.667 348.069 268.8 348.203C268.933 348.336 269.2 348.203 269.333 348.069C273.733 344.734 275.6 339.665 275.6 334.195C275.6 334.061 275.6 333.794 275.467 333.794C275.333 333.794 275.2 333.794 275.067 333.928C275.067 333.928 275.067 333.928 274.933 334.061C270.8 337.53 268.4 342.733 268.667 347.936Z" fill="#645D33"/>
<path d="M271.067 369.282C271.067 369.415 271.067 369.415 271.2 369.549C271.333 369.682 271.6 369.549 271.733 369.415C275.867 366.347 277.467 361.677 277.467 356.741C277.467 356.608 277.467 356.341 277.333 356.341C277.2 356.341 277.067 356.341 276.933 356.474C276.933 356.474 276.933 356.474 276.8 356.608C273.067 359.676 270.933 364.479 271.067 369.282Z" fill="#645D33"/>
<path d="M259.6 339.798C259.467 338.864 258.133 339.264 258.267 340.198C266.133 377.153 269.067 415.175 266.933 452.93C266.933 453.864 268.267 453.864 268.267 452.93C270.4 414.908 267.467 376.886 259.6 339.798Z" fill="#68422D"/>
<path d="M271.2 334.194C274 332.327 271.467 328.324 270.4 326.056C267.067 318.986 260.667 324.322 257.867 329.392C257.867 327.924 257.867 326.457 257.733 324.989C257.6 323.522 257.6 321.654 256.8 320.453C255.467 318.319 252.133 318.986 250.133 319.653C247.867 320.32 245.6 322.187 246 324.856C246.267 325.923 246.933 326.723 247.733 327.524C248.8 328.725 250 329.925 251.2 331.126C248.8 330.592 246 330.326 244 331.126C241.2 332.193 241.867 336.329 242 338.73C242.267 345.401 248.267 342.333 252.4 339.531C250.533 341.265 248.533 343 248.267 345.668C248 348.336 250 349.937 252.267 350.604C254.8 351.404 257.333 351.404 258.4 348.603C259.2 346.602 259.333 344.334 259.2 341.932C261.6 346.468 265.067 350.871 269.067 345.935C270.667 343.933 272.4 340.998 270.267 338.73C269.333 337.663 267.733 337.13 266.4 336.729C264.933 336.196 263.6 335.795 262.133 335.395C263.867 335.262 265.467 335.128 267.2 334.995C268.533 334.862 270 334.862 271.2 334.194Z" fill="#C49953"/>
<path d="M261.2 334.194C261.067 333.527 260.667 332.994 260.267 332.46C259.733 331.926 258.933 331.526 258.267 331.393C257.067 331.126 255.733 331.259 254.667 331.926C252.133 333.527 252.4 337.263 254.933 338.864C256.133 339.664 257.867 339.664 259.2 338.997C260.533 338.33 261.467 336.996 261.467 335.395C261.333 334.995 261.333 334.595 261.2 334.194Z" fill="#9F5D3A"/>
<path d="M83.6 400.767C78.4 352.605 70.9333 304.577 61.2 257.083C60.9333 255.749 58.9333 256.283 59.2 257.617C68.9333 304.978 76.4 352.739 81.4667 400.767C81.7333 402.101 83.7333 402.101 83.6 400.767Z" fill="#645D33"/>
<path d="M86.4 296.039C86.1333 296.039 85.8667 296.172 85.6 296.306C81.3333 298.174 77.7333 301.376 75.2 305.378C74.2667 306.712 69.0667 316.985 71.3333 317.518C71.8667 317.652 72.4 317.385 72.8 317.251C80.6667 313.783 86.4 306.178 87.7333 297.64C87.7333 297.24 87.8667 296.84 87.6 296.439C87.3333 296.039 86.9333 296.039 86.4 296.039Z" fill="#645D33"/>
<path d="M91.4667 355.407C91.2 355.54 90.9333 355.674 90.6667 355.807C86.8 358.342 83.7333 362.211 81.8667 366.48C81.2 367.948 77.6 378.887 80 379.154C80.5333 379.154 81.0667 378.887 81.4667 378.62C88.6667 373.951 93.0667 365.413 92.9333 356.874C92.9333 356.474 92.9333 356.074 92.6667 355.674C92.4 355.14 91.8667 355.14 91.4667 355.407Z" fill="#645D33"/>
<path d="M59.8667 336.996C59.6 337.397 59.7333 337.797 59.7333 338.197C61.4667 346.602 67.6 353.94 75.4667 357.141C76 357.275 76.5333 357.542 76.9333 357.408C79.2 356.741 73.6 346.735 72.5333 345.401C69.7333 341.666 66 338.597 61.7333 336.863C61.4667 336.73 61.2 336.73 60.9333 336.596C60.6667 336.463 60.1333 336.596 59.8667 336.996Z" fill="#645D33"/>
<path d="M59.4667 374.085C59.3333 374.485 59.4667 374.885 59.7333 375.285C63.6 382.89 71.6 388.36 80 389.16C80.5333 389.16 81.0667 389.293 81.6 389.027C83.6 387.826 75.4667 379.688 74.1333 378.754C70.5333 375.819 66 373.951 61.3333 373.417C61.0667 373.417 60.8 373.417 60.5333 373.417C60 373.417 59.6 373.684 59.4667 374.085Z" fill="#645D33"/>
<path d="M82.6667 241.874C82 241.607 81.2 241.474 80.6667 241.207C81.2 240.94 81.7333 240.674 82 240.14C82.9333 238.672 82.1333 237.205 80.6667 236.404C78.5333 235.204 74.9333 235.337 72.6667 235.47C71.7333 235.47 70.8 235.604 69.8667 235.737C70.9333 235.07 71.8667 234.403 72.8 233.603C74.2667 232.402 76.9333 229.6 74.2667 227.999C74 227.866 73.6 227.733 73.2 227.733C71.6 227.599 71.7333 227.733 72.2667 226.132C72.5333 225.064 73.0667 224.264 72.2667 223.197C71.7333 222.53 70.9333 222.396 70.1333 222.396C69.2 222.53 68.2667 223.597 67.4667 223.997C67.3333 224.131 67.0667 224.264 66.9333 224.264C65.8667 224.264 66.5333 222.53 66.5333 221.996C66.5333 221.062 66.4 220.262 65.7333 219.461C64.6667 218.26 62.9333 217.86 61.4667 218.394C59.4667 219.194 58.1333 221.329 57.0667 223.063C56.2667 224.397 55.4667 225.865 54.9333 227.332C54.8 224.531 54.5333 221.729 54 218.928C53.4667 216.66 52.2667 214.258 49.7333 213.724C48.6667 213.458 47.7333 213.591 46.8 214.125C45.7333 214.792 45.4667 216.126 44.5333 216.926C42.8 218.394 40 217.06 38.6667 218.928C38.2667 219.595 38.1333 220.395 38.1333 221.195C38.1333 221.596 38.5333 222.396 38.5333 222.93C38.1333 225.465 36.8 224.531 35.4667 224.664C33.4667 224.798 32 225.865 32 227.866C31.8667 230.668 34.8 232.535 36.9333 233.736C38.8 234.803 40.6667 235.737 42.6667 236.538C39.8667 236.404 37.0667 236.404 34.2667 236.404C31.8667 236.404 29.0667 236.671 27.7333 239.073C26.9333 240.54 27.0667 242.408 28.4 243.609C29.2 244.276 30.2667 244.142 30.4 245.343C30.6667 246.544 29.8667 246.41 29.3333 247.211C28.8 247.878 28.5333 248.678 28.8 249.612C28.9333 250.146 29.4667 250.679 30 250.946C30.9333 251.48 32.8 250.679 32.5333 251.88C32.4 252.814 31.3333 253.081 31.3333 254.281C31.3333 255.082 31.8667 255.882 32.4 256.283C34.4 257.884 37.3333 256.549 39.3333 255.616C40 255.349 40.6667 254.948 41.3333 254.682C39.4667 257.35 38.2667 260.418 38.1333 263.754C38 265.755 38.4 268.156 40.5333 268.69C41.4667 268.957 42 268.556 42.9333 268.29C43.7333 268.023 44.8 266.955 45.8667 267.756C45.7333 267.623 46.6667 269.624 46.5333 269.624C47.3333 270.824 48.8 271.358 50 270.291C51.0667 269.223 50.1333 268.156 52.2667 268.556C53.2 268.69 53.3333 269.357 54.4 269.09C56.8 268.69 56.9333 265.755 57.2 263.754C57.3333 262.419 57.3333 261.219 57.3333 259.885C58.2667 262.153 59.7333 264.154 61.6 265.621C62.5333 266.422 64.1333 266.822 65.3333 266.555C67.2 266.155 67.0667 264.687 67.3333 263.087C67.3333 262.82 67.4667 261.486 68 261.752C68.1333 261.752 68.1333 261.886 68.2667 261.886C68.8 262.419 69.2 263.087 70 263.22C71.4667 263.487 71.8667 262.686 72.2667 261.486C72.5333 260.685 72.6667 259.885 73.6 259.618C74.6667 259.218 75.6 259.885 76.5333 258.951C78.1333 257.35 76.9333 255.215 75.7333 254.015C74.9333 253.214 74.1333 252.547 73.3333 251.88C74.5333 252.147 75.8667 252.414 77.0667 252.414C78.8 252.414 81.0667 252.147 81.8667 250.279C82.8 248.145 80.8 246.544 78.9333 246.143C80.1333 246.01 81.6 245.743 82.8 245.476C83.7333 245.209 84.5333 244.676 84.5333 243.609C84.2667 242.675 83.4667 242.274 82.6667 241.874Z" fill="#C49953"/>
<path d="M67.0667 243.208C67.2 240.94 65.7333 239.206 63.7333 238.806C64 236.938 63.4667 234.937 61.8667 233.736C60 232.402 57.4667 232.536 55.7333 233.87C53.8667 232.669 51.4667 231.735 49.2 233.069C47.8667 233.87 47.3333 235.337 47.6 236.671C46.4 236.671 45.3333 237.205 44.6667 238.272C43.7333 239.74 44 241.474 44.9333 242.675C43.6 243.742 43.2 245.877 44.1333 247.478C44.9333 248.812 46.1333 249.479 47.4667 249.612C47.0667 251.08 47.4667 252.814 48.9333 253.881C51.3333 255.482 54.1333 254.548 55.8667 252.547C57.4667 253.614 59.4667 253.748 61.0667 252.814C62.9333 251.613 63.7333 249.345 63.3333 247.344C65.2 246.811 66.9333 245.21 67.0667 243.208Z" fill="#FFC152"/>
<path d="M56.8 237.872C55.3333 237.605 53.6 238.005 52.4 238.672C50.2667 240.006 49.3333 242.808 50.2667 245.21C51.2 247.478 53.8667 248.945 56.2667 248.411C58.6667 247.878 60.6667 245.61 60.6667 243.075C60.6667 241.207 59.7333 239.473 58.2667 238.406C57.8667 238.139 57.3333 238.005 56.8 237.872Z" fill="#9F5D3A"/>
<path d="M213.6 76.5779C213.6 76.4445 213.6 76.3111 213.467 76.3111C211.6 75.7774 209.733 75.2438 207.867 74.7101C208.667 74.0431 209.333 73.376 210.133 72.709C210.4 72.4421 210 72.0419 209.733 72.3087C208.933 72.9758 208.133 73.7763 207.333 74.4433C207.067 72.5756 206.933 70.7078 206.667 68.84C206.667 68.7066 206.533 68.5732 206.4 68.5732C206.267 68.4398 206 68.4398 206 68.7066C205.6 70.7078 205.2 72.709 204.933 74.5767C204.267 73.7763 203.6 72.9758 202.8 72.1753C202.533 71.9085 202.133 72.3087 202.4 72.5756C203.067 73.376 203.733 74.0431 204.4 74.8435C202.533 75.1104 200.533 75.3772 198.667 75.644C198.4 75.644 198.4 75.9108 198.533 76.0442C198.533 76.1777 198.533 76.3111 198.667 76.3111C200.667 76.8447 202.667 77.2449 204.667 77.7786C204.133 78.5791 203.6 79.2461 203.067 80.0466C202.8 80.3134 203.333 80.5802 203.6 80.3134C204.133 79.6463 204.667 78.8459 205.067 78.1788L206.133 83.115V83.2484C206.267 83.5153 206.8 83.3819 206.667 83.115L207.867 78.4456C208.4 79.1127 208.933 79.6463 209.333 80.3134C209.6 80.5802 210 80.18 209.733 79.9132C209.2 79.2461 208.533 78.4456 208 77.7786C209.867 77.5118 211.6 77.2449 213.467 76.8447C213.6 76.9781 213.6 76.7113 213.6 76.5779Z" fill="#C1A073"/>
<path d="M100.667 141.549C100.667 141.416 100.667 141.282 100.533 141.282C98.6667 140.749 96.8 140.215 94.9333 139.681C95.7333 139.014 96.4 138.347 97.2 137.68C97.4667 137.413 97.0667 137.013 96.8 137.28C96 137.947 95.2 138.747 94.4 139.415C94.1333 137.547 94 135.679 93.7333 133.811C93.7333 133.678 93.6 133.544 93.4667 133.544C93.3333 133.411 93.0667 133.411 93.0667 133.678C92.6667 135.679 92.2667 137.68 92 139.548C91.3333 138.747 90.6667 137.947 89.8667 137.147C89.6 136.88 89.2 137.28 89.4667 137.547C90.1333 138.347 90.8 139.014 91.4667 139.815C89.6 140.082 87.6 140.348 85.7333 140.615C85.4667 140.615 85.4667 140.882 85.6 141.015C85.6 141.149 85.6 141.282 85.7333 141.282C87.7333 141.816 89.7333 142.216 91.7333 142.75C91.2 143.55 90.6667 144.217 90.1333 145.018C89.8667 145.285 90.4 145.551 90.6667 145.285C91.2 144.618 91.7333 143.817 92.1333 143.15L93.2 148.086V148.22C93.3333 148.486 93.8667 148.353 93.7333 148.086L94.9333 143.417C95.4667 144.084 96 144.618 96.4 145.285C96.6667 145.551 97.0667 145.151 96.8 144.884C96.2667 144.217 95.6 143.417 95.0667 142.75C96.9333 142.483 98.6667 142.216 100.533 141.816C100.667 141.949 100.667 141.682 100.667 141.549Z" fill="#C1A073"/>
<path d="M241.733 164.496C241.733 164.362 241.733 164.229 241.6 164.229C239.733 163.695 237.867 163.162 236 162.628C236.8 161.961 237.467 161.294 238.267 160.627C238.533 160.36 238.133 159.96 237.867 160.227C237.067 160.894 236.267 161.694 235.467 162.361C235.2 160.494 235.067 158.626 234.8 156.758C234.8 156.625 234.667 156.491 234.533 156.491C234.4 156.358 234.133 156.358 234.133 156.625C233.733 158.626 233.333 160.627 233.067 162.495C232.4 161.694 231.733 160.894 230.933 160.093C230.667 159.826 230.267 160.227 230.533 160.494C231.2 161.294 231.867 161.961 232.533 162.762C230.667 163.028 228.667 163.295 226.8 163.562C226.533 163.562 226.533 163.829 226.667 163.962C226.667 164.096 226.667 164.229 226.8 164.229C228.8 164.763 230.8 165.163 232.8 165.697C232.267 166.497 231.733 167.164 231.2 167.965C230.933 168.231 231.467 168.498 231.733 168.231C232.267 167.564 232.8 166.764 233.2 166.097L234.267 171.033V171.166C234.4 171.433 234.933 171.3 234.8 171.033L236 166.364C236.533 167.031 237.067 167.564 237.467 168.231C237.733 168.498 238.133 168.098 237.867 167.831C237.333 167.164 236.667 166.364 236.133 165.697C238 165.43 239.733 165.163 241.6 164.763C241.733 164.763 241.733 164.629 241.733 164.496Z" fill="#C1A073"/>
<path d="M140.133 227.199C140.133 227.066 140.133 226.932 140 226.932C138.133 226.399 136.267 225.865 134.4 225.331C135.2 224.664 135.867 223.997 136.667 223.33C136.933 223.063 136.533 222.663 136.267 222.93C135.467 223.597 134.667 224.397 133.867 225.064C133.6 223.197 133.467 221.329 133.2 219.461C133.2 219.328 133.067 219.194 132.933 219.194C132.8 219.061 132.533 219.061 132.533 219.328C132.133 221.329 131.733 223.33 131.467 225.198C130.8 224.397 130.133 223.597 129.333 222.796C129.067 222.53 128.667 222.93 128.933 223.197C129.6 223.997 130.267 224.664 130.933 225.465C129.067 225.731 127.067 225.998 125.2 226.265C124.933 226.265 124.933 226.532 125.067 226.665C125.067 226.799 125.067 226.932 125.2 226.932C127.2 227.466 129.2 227.866 131.2 228.4C130.667 229.2 130.133 229.867 129.6 230.668C129.333 230.934 129.867 231.201 130.133 230.935C130.667 230.267 131.2 229.467 131.6 228.8L132.667 233.736V233.87C132.8 234.136 133.333 234.003 133.2 233.736L134.4 229.067C134.933 229.734 135.467 230.267 135.867 230.935C136.133 231.201 136.533 230.801 136.267 230.534C135.733 229.867 135.067 229.067 134.533 228.4C136.4 228.133 138.133 227.866 140 227.466C140.133 227.599 140.133 227.332 140.133 227.199Z" fill="#C1A073"/>
<path d="M148 26.5488C146 26.8156 143.867 27.2159 141.867 27.4827C141.467 26.1486 140.933 24.6811 140.533 23.347C140.533 23.2135 140.4 23.2135 140.4 23.2135C140.267 22.9467 140 22.9467 139.867 23.2135C139.2 24.4142 138.533 25.7484 137.867 26.9491H132.4H132.267C132.133 27.0825 132 27.2159 132.133 27.4827L136.4 31.3516C135.2 33.086 134.133 34.9537 132.933 36.6881C132.8 36.8215 132.933 37.0883 133.067 37.0883C133.2 37.2217 133.333 37.3551 133.467 37.2217C135.733 35.6208 138.133 34.0198 140.4 32.5523C141.467 33.8864 142.933 35.0871 144.4 36.021C144.933 36.4212 146 37.0883 145.733 35.8876C145.2 34.0198 144.4 32.1521 143.6 30.4177C145.2 29.3505 146.8 28.2832 148.267 27.0825C148.533 26.9491 148.4 26.5488 148 26.5488Z" fill="#C1A073"/>
<path d="M155.867 173.835C152.933 174.235 149.867 174.768 146.933 175.169C146.267 173.167 145.733 171.166 145.067 169.165C145.067 169.032 144.933 168.898 144.8 168.898C144.667 168.631 144.133 168.365 144 168.765C143.067 170.633 142.133 172.5 141.2 174.235H133.2C133.067 174.235 133.067 174.235 132.933 174.235C132.667 174.368 132.4 174.768 132.8 174.902L139.067 180.505C137.467 183.04 135.733 185.708 134.133 188.243C134 188.51 134.133 188.777 134.267 188.91C134.4 189.177 134.667 189.31 134.933 189.177C138.267 186.909 141.6 184.641 144.933 182.239C146.533 184.107 148.667 185.975 150.667 187.309C151.467 187.843 153.067 188.91 152.533 187.176C151.733 184.507 150.667 181.706 149.467 179.171C151.733 177.57 154 175.969 156.267 174.368C156.267 174.368 156.267 174.368 156.4 174.235C156.533 174.502 156.4 173.835 155.867 173.835Z" fill="#C1A073"/>
<path d="M223.333 101.259C220.8 101.659 218.4 102.059 215.867 102.326C215.333 100.725 214.8 98.9908 214.267 97.3899C214.267 97.2565 214.133 97.2565 214.133 97.1231C214 96.8563 213.6 96.7229 213.467 96.9897C212.667 98.4572 211.867 100.058 211.067 101.526H204.4C204.267 101.526 204.267 101.526 204.267 101.526C204 101.659 203.867 101.926 204.133 102.193L209.333 106.862C208 108.997 206.533 111.131 205.2 113.266C205.067 113.533 205.2 113.666 205.333 113.799C205.467 113.933 205.6 114.066 205.867 113.933C208.667 112.065 211.467 110.064 214.267 108.196C215.6 109.797 217.333 111.265 219.067 112.465C219.733 112.866 221.067 113.799 220.667 112.332C220 110.064 219.067 107.796 218.133 105.661C220 104.327 221.867 102.993 223.867 101.659C223.867 101.659 223.867 101.659 224 101.526C224 101.792 223.733 101.125 223.333 101.259Z" fill="#C1A073"/>
<path d="M148.8 115.4C146.267 115.801 143.867 116.201 141.333 116.468C140.8 114.867 140.267 113.132 139.733 111.532C139.733 111.398 139.6 111.398 139.6 111.265C139.467 110.998 139.067 110.864 138.933 111.131C138.133 112.599 137.333 114.2 136.533 115.667H129.867C129.733 115.667 129.733 115.667 129.733 115.667C129.467 115.801 129.333 116.067 129.6 116.334L134.8 121.004C133.467 123.138 132 125.273 130.667 127.407C130.533 127.674 130.667 127.808 130.8 127.941C130.933 128.074 131.067 128.208 131.333 128.074C134.133 126.207 136.933 124.206 139.733 122.338C141.067 123.939 142.8 125.406 144.533 126.607C145.2 127.007 146.533 127.941 146.133 126.474C145.467 124.206 144.533 121.938 143.6 119.803C145.467 118.469 147.333 117.135 149.333 115.801C149.333 115.801 149.333 115.801 149.467 115.667C149.467 115.934 149.2 115.267 148.8 115.4Z" fill="#C1A073"/>
<path d="M212.267 143.417C209.6 143.15 207.067 142.75 204.4 142.483C203.333 139.148 202.133 135.812 201.067 132.477C201.067 132.344 200.933 132.344 200.933 132.21C200.8 131.943 200.267 131.943 200.133 132.344L196.933 143.283C194.267 144.084 191.467 144.751 188.667 145.151C188.533 145.151 188.533 145.151 188.4 145.151C187.867 145.284 187.867 146.085 188.4 146.085H188.533C190.933 146.752 193.2 147.419 195.6 147.953C194.8 151.021 194 154.09 193.2 157.158C193.067 157.692 193.733 157.958 194 157.558C194.133 157.558 194.133 157.558 194.267 157.425C196.4 154.757 198.667 151.955 200.8 149.287C203.067 151.421 205.467 153.689 207.733 155.824C208.133 156.224 208.667 155.69 208.533 155.29C208.533 155.157 208.533 155.157 208.533 155.023C207.333 152.222 206.267 149.42 205.067 146.619C207.467 145.818 210 145.151 212.4 144.351C212.533 144.351 212.667 144.217 212.667 144.084C212.8 143.95 212.667 143.55 212.267 143.417Z" fill="#C1A073"/>
<path fill-rule="evenodd" clip-rule="evenodd" d="M118.933 47.7612C116 47.7612 116 52.2972 118.933 52.2972C121.867 52.2972 121.867 47.7612 118.933 47.7612Z" fill="#C1A073"/>
<path fill-rule="evenodd" clip-rule="evenodd" d="M151.333 8.93848C148.4 8.93848 148.4 13.4745 151.333 13.4745C154.267 13.4745 154.267 8.93848 151.333 8.93848Z" fill="#C1A073"/>
<path fill-rule="evenodd" clip-rule="evenodd" d="M159.867 48.9617C156.933 48.9617 156.933 53.4976 159.867 53.4976C162.8 53.4976 162.8 48.9617 159.867 48.9617Z" fill="#C1A073"/>
<path fill-rule="evenodd" clip-rule="evenodd" d="M105.733 92.4539C102.8 92.4539 102.8 96.9898 105.733 96.9898C108.667 96.9898 108.667 92.4539 105.733 92.4539Z" fill="#C1A073"/>
<path fill-rule="evenodd" clip-rule="evenodd" d="M171.067 86.1833C168.133 86.1833 168.133 90.7193 171.067 90.7193C174 90.7193 174 86.1833 171.067 86.1833Z" fill="#C1A073"/>
<path fill-rule="evenodd" clip-rule="evenodd" d="M20.9333 53.0977C18 53.0977 18 57.6336 20.9333 57.6336C23.8667 57.6336 23.8667 53.0977 20.9333 53.0977Z" fill="#C1A073"/>
<path fill-rule="evenodd" clip-rule="evenodd" d="M73.7333 40.8237C70.8 40.8237 70.8 45.3597 73.7333 45.3597C76.6667 45.3597 76.6667 40.8237 73.7333 40.8237Z" fill="#C1A073"/>
<path fill-rule="evenodd" clip-rule="evenodd" d="M57.2 101.125C54.2667 101.125 54.2667 105.661 57.2 105.661C60.1333 105.661 60.1333 101.125 57.2 101.125Z" fill="#C1A073"/>
<path fill-rule="evenodd" clip-rule="evenodd" d="M116.667 108.463C113.733 108.463 113.733 112.999 116.667 112.999C119.6 112.999 119.6 108.463 116.667 108.463Z" fill="#C1A073"/>
<path fill-rule="evenodd" clip-rule="evenodd" d="M226.4 140.082C223.467 140.082 223.467 144.618 226.4 144.618C229.333 144.618 229.333 140.082 226.4 140.082Z" fill="#C1A073"/>
<path fill-rule="evenodd" clip-rule="evenodd" d="M251.333 161.561C248.4 161.561 248.4 166.097 251.333 166.097C254.267 166.097 254.267 161.561 251.333 161.561Z" fill="#C1A073"/>
<path fill-rule="evenodd" clip-rule="evenodd" d="M219.733 169.032C216.8 169.032 216.8 173.568 219.733 173.568C222.667 173.568 222.667 169.032 219.733 169.032Z" fill="#C1A073"/>
<path fill-rule="evenodd" clip-rule="evenodd" d="M186 125.54C183.067 125.54 183.067 130.076 186 130.076C188.933 130.076 188.933 125.54 186 125.54Z" fill="#C1A073"/>
<path fill-rule="evenodd" clip-rule="evenodd" d="M59.4667 184.107C56.5333 184.107 56.5333 188.643 59.4667 188.643C62.4 188.643 62.4 184.107 59.4667 184.107Z" fill="#C1A073"/>
<path fill-rule="evenodd" clip-rule="evenodd" d="M174.8 151.688C171.867 151.688 171.867 156.224 174.8 156.224C177.733 156.224 177.733 151.688 174.8 151.688Z" fill="#C1A073"/>
<path fill-rule="evenodd" clip-rule="evenodd" d="M253.6 179.038C250.667 179.038 250.667 183.574 253.6 183.574C256.4 183.574 256.533 179.038 253.6 179.038Z" fill="#C1A073"/>
<path fill-rule="evenodd" clip-rule="evenodd" d="M145.733 59.1011C142.8 59.1011 142.8 63.6371 145.733 63.6371C148.667 63.6371 148.667 59.1011 145.733 59.1011Z" fill="#C1A073"/>
<path fill-rule="evenodd" clip-rule="evenodd" d="M149.333 142.75C146.4 142.75 146.4 147.286 149.333 147.286C152.133 147.286 152.133 142.75 149.333 142.75Z" fill="#C1A073"/>
<path fill-rule="evenodd" clip-rule="evenodd" d="M20.9333 125.54C18 125.54 18 130.076 20.9333 130.076C23.8667 130.076 23.8667 125.54 20.9333 125.54Z" fill="#C1A073"/>
<path fill-rule="evenodd" clip-rule="evenodd" d="M173.2 171.3C170.267 171.3 170.267 175.836 173.2 175.836C176.133 175.836 176.133 171.3 173.2 171.3Z" fill="#C1A073"/>
<path fill-rule="evenodd" clip-rule="evenodd" d="M121.467 204.919C118.533 204.919 118.533 209.455 121.467 209.455C124.4 209.455 124.4 204.919 121.467 204.919Z" fill="#C1A073"/>
<path fill-rule="evenodd" clip-rule="evenodd" d="M31.0667 8.93848C28.1333 8.93848 28.1333 13.4745 31.0667 13.4745C34 13.4745 34 8.93848 31.0667 8.93848Z" fill="#C1A073"/>
<path fill-rule="evenodd" clip-rule="evenodd" d="M112.267 184.107C109.333 184.107 109.333 188.643 112.267 188.643C115.2 188.643 115.2 184.107 112.267 184.107Z" fill="#C1A073"/>
<path fill-rule="evenodd" clip-rule="evenodd" d="M99.0667 162.628C96.1333 162.628 96.1333 167.164 99.0667 167.164C102 167.164 102 162.628 99.0667 162.628Z" fill="#C1A073"/>
<path fill-rule="evenodd" clip-rule="evenodd" d="M112.267 154.09C109.333 154.09 109.333 158.626 112.267 158.626C115.2 158.626 115.2 154.09 112.267 154.09Z" fill="#C1A073"/>
<path fill-rule="evenodd" clip-rule="evenodd" d="M73.7333 149.821C70.8 149.821 70.8 154.357 73.7333 154.357C76.6667 154.357 76.6667 149.821 73.7333 149.821Z" fill="#C1A073"/>
<path d="M185.439 235.029C195.07 235.029 202.877 227.221 202.877 217.59C202.877 207.959 195.07 200.151 185.439 200.151C175.808 200.151 168 207.959 168 217.59C168 227.221 175.808 235.029 185.439 235.029Z" stroke="white" stroke-miterlimit="10"/>
<path d="M240.674 231.877C250.305 231.877 258.113 224.07 258.113 214.439C258.113 204.808 250.305 197 240.674 197C231.043 197 223.235 204.808 223.235 214.439C223.235 224.07 231.043 231.877 240.674 231.877Z" stroke="white" stroke-miterlimit="10"/>
<path d="M202.858 217.59L223.68 216.391" stroke="white" stroke-miterlimit="10"/>
</g>
<defs>
<clipPath id="clip0">
<rect width="280" height="458" fill="white"/>
</clipPath>
</defs>
</svg>
