<svg width="304" height="405" viewBox="0 0 304 405" fill="none" xmlns="http://www.w3.org/2000/svg">
<path d="M281.851 201.343C275.048 195.846 266.651 192.375 257.966 191.796C245.661 190.929 231.04 194.545 222.644 185.432C214.827 177.043 217.867 162.723 210.629 153.9C203.246 144.932 189.204 145.945 178.202 149.561C167.2 153.177 155.764 158.529 144.472 155.636C134.773 153.177 127.825 145.077 120.731 137.989C110.453 127.72 98.5828 118.752 84.8305 114.123C71.0781 109.495 55.4438 109.35 42.56 116.148C20.9905 127.575 14.4762 157.661 33.2952 175.018C38.5066 179.791 45.0209 182.973 50.3771 187.312C55.8781 191.796 60.5105 198.161 59.9314 205.248C59.2076 213.493 51.68 219.279 44.4419 223.329C37.3486 227.523 29.2419 231.573 26.0571 239.239C22.7276 247.339 26.0571 256.741 31.7028 263.395C37.3486 270.048 44.8762 274.677 51.8247 280.029C58.6286 285.38 65.2876 292.034 67.1695 300.423C69.0514 308.234 66.7352 316.479 67.3143 324.434C68.4724 338.754 79.1847 351.048 92.2133 357.268C105.242 363.488 120.152 364.5 134.484 363.632C139.695 363.343 144.907 362.764 150.263 363.198C156.198 363.632 161.989 365.368 167.924 366.236C184.861 368.695 202.667 364.355 216.709 354.375C230.606 344.395 240.449 328.918 243.634 312.139C245.082 304.618 245.227 296.518 249.425 290.154C255.65 280.752 267.954 278.004 277.653 272.218C293.288 262.671 301.394 242.566 297.051 224.775C294.88 215.518 289.379 207.273 281.851 201.343Z" fill="#D8C19E"/>
<path d="M121.31 385.618C115.665 389.523 109.44 392.271 105.387 398.202C103.939 400.371 102.926 402.541 102.347 405H196.731C193.257 398.346 186.888 392.705 181.242 387.643C175.741 382.87 170.53 377.952 167.49 371.298C164.305 364.355 163.291 356.4 164.739 348.879C165.029 347.432 163.291 346.564 162.423 347.287C162.133 347.143 161.844 347.143 161.554 347.287C154.606 348.879 147.512 348.879 140.564 347.287C140.13 347.143 139.695 347.287 139.406 347.577C138.537 347.287 137.379 347.721 137.524 348.879C139.261 362.909 133.181 377.518 121.31 385.618Z" fill="#AB7051"/>
<path d="M160.83 351.482C155.474 356.545 147.802 355.966 143.025 350.47C141.143 348.3 138.248 351.482 139.985 353.652C146.499 361.029 156.777 361.318 163.726 354.664C165.752 352.639 162.857 349.602 160.83 351.482Z" fill="#68422D"/>
<path d="M189.638 284.513C186.888 279.884 182.4 276.123 181.676 270.771C181.531 270.048 181.531 269.18 181.242 268.457C180.952 267.734 180.084 267.155 179.36 267.445C178.491 267.734 178.202 268.746 178.057 269.614C177.044 273.809 173.859 277.28 170.095 279.305C166.187 281.33 161.844 282.054 157.501 282.054C150.842 282.198 144.183 280.896 137.524 280.318C130.865 279.739 123.916 279.739 117.691 282.343C116.099 282.921 114.651 283.789 113.349 284.946C110.309 287.695 110.309 290.732 110.164 294.493C110.019 298.543 109.73 302.448 110.164 306.498C111.177 315.177 113.928 323.566 118.415 330.943C124.785 341.646 134.484 350.325 145.775 355.388C159.817 361.752 175.596 345.841 181.821 334.848C187.467 324.723 190.072 313.296 191.665 301.87C192.389 296.952 192.968 291.6 191.086 286.971C190.651 286.248 190.217 285.38 189.638 284.513Z" fill="#AB7051"/>
<path d="M139.695 299.555C139.55 299.555 139.261 299.7 139.116 299.845C138.827 300.134 138.537 300.423 138.392 300.857C136.945 303.171 134.484 304.763 131.878 305.196C129.272 305.486 126.377 304.618 124.495 302.738C124.061 302.304 123.627 301.87 123.048 301.725C120.152 301.146 124.35 306.064 125.074 306.643C126.956 308.089 129.417 308.813 131.878 308.668C135.931 308.379 139.695 305.196 140.709 301.146C140.853 300.712 140.853 300.134 140.419 299.845C140.13 299.555 139.84 299.555 139.695 299.555Z" fill="#291410"/>
<path d="M134.05 331.521C135.642 327.182 133.76 321.975 129.707 319.516C128.549 318.793 127.246 318.359 125.943 318.504C124.495 318.504 123.048 319.082 121.745 319.95C118.994 321.83 116.968 325.157 116.823 328.484C117.257 329.496 117.836 330.364 118.415 331.377C119.573 333.402 121.021 335.427 122.469 337.307C123.192 337.596 123.771 337.741 124.64 337.741C128.693 338.03 132.747 335.282 134.05 331.521Z" fill="#9F5D3A"/>
<path d="M137.379 291.6C132.168 288.996 126.088 289.575 121.455 293.047C120.731 293.625 121.455 294.927 122.179 294.348C126.377 291.166 131.733 290.443 136.511 292.902C137.524 293.336 138.248 292.034 137.379 291.6Z" fill="#291410"/>
<path d="M166.766 299.121C166.476 299.411 166.621 299.989 166.766 300.423C168.503 304.184 172.701 306.643 176.754 306.209C179.215 305.92 181.387 304.763 183.124 303.027C183.703 302.448 187.032 296.807 184.137 297.82C183.558 297.964 183.269 298.543 182.834 299.121C181.242 301.291 178.636 302.738 175.886 302.882C173.135 303.027 170.53 301.87 168.648 299.845C168.358 299.555 168.069 299.266 167.779 298.977C167.634 298.832 167.345 298.832 167.2 298.832C167.2 298.832 166.91 298.977 166.766 299.121Z" fill="#291410"/>
<path d="M187.467 321.975C186.743 320.818 185.73 319.805 184.571 319.082C183.269 318.214 181.821 317.636 180.373 317.636C179.071 317.636 177.768 317.925 176.61 318.648C172.701 321.107 170.819 326.314 172.267 330.654C173.57 334.125 177.044 336.729 180.808 336.873C181.242 336.295 181.531 335.716 181.821 335.137C184.282 330.943 186.019 326.604 187.467 321.975Z" fill="#9F5D3A"/>
<path d="M170.385 290.154C175.596 287.55 181.676 288.129 186.309 291.6C187.032 292.179 186.309 293.48 185.585 292.902C181.387 289.72 176.03 288.996 171.253 291.455C170.24 291.889 169.516 290.588 170.385 290.154Z" fill="#291410"/>
<path d="M158.949 313.296C158.804 313.007 158.659 312.573 158.514 312.284C156.922 308.523 156.053 304.329 156.777 300.279C156.922 299.845 156.922 299.411 156.777 298.977C156.632 298.543 156.198 298.254 155.764 298.398C155.474 298.543 155.329 298.977 155.329 299.266C154.461 304.473 155.329 309.825 157.646 314.598C158.225 315.611 158.804 316.768 159.093 317.925C159.383 319.082 159.383 320.384 158.804 321.396C158.08 322.554 156.632 322.988 155.185 323.277C153.158 323.566 153.882 324.868 155.474 325.157C156.777 325.446 158.514 325.013 159.383 323.855C160.83 322.264 160.975 319.95 160.686 317.925C160.251 316.334 159.528 314.888 158.949 313.296Z" fill="#291410"/>
<path d="M160.686 334.559C160.396 334.704 160.107 334.993 159.817 335.282C158.514 336.584 156.777 337.307 155.04 337.307C153.303 337.452 151.421 336.729 150.118 335.571C149.684 335.282 149.394 334.848 148.815 334.704C146.644 334.27 149.105 337.596 149.539 338.03C150.697 339.188 152 340.055 153.592 340.345C156.198 340.923 158.949 339.911 160.686 337.886C161.265 337.163 161.699 336.295 161.699 335.282C161.699 335.138 161.699 334.848 161.554 334.704C161.41 334.414 160.975 334.414 160.686 334.559Z" fill="#291410"/>
<path d="M191.375 163.157C191.375 163.012 191.375 162.868 191.23 162.868C189.204 162.289 187.177 161.711 185.15 161.132C186.019 160.409 186.743 159.686 187.611 158.962C187.901 158.673 187.467 158.239 187.177 158.528C186.309 159.252 185.44 160.12 184.571 160.843C184.282 158.818 184.137 156.793 183.848 154.768C183.848 154.623 183.703 154.478 183.558 154.478C183.413 154.334 183.124 154.334 183.124 154.623C182.69 156.793 182.255 158.962 181.966 160.987C181.242 160.12 180.518 159.252 179.65 158.384C179.36 158.095 178.926 158.529 179.215 158.818C179.939 159.686 180.663 160.409 181.387 161.277C179.36 161.566 177.189 161.855 175.162 162.145C174.872 162.145 174.872 162.434 175.017 162.579C175.017 162.723 175.017 162.868 175.162 162.868C177.333 163.446 179.505 163.88 181.676 164.459C181.097 165.327 180.518 166.05 179.939 166.918C179.65 167.207 180.229 167.496 180.518 167.207C181.097 166.484 181.676 165.616 182.11 164.893L183.269 170.245V170.389C183.413 170.679 183.992 170.534 183.848 170.245L185.15 165.182C185.73 165.905 186.309 166.484 186.743 167.207C187.032 167.496 187.467 167.062 187.177 166.773C186.598 166.05 185.874 165.182 185.295 164.459C187.322 164.17 189.204 163.88 191.23 163.446C191.52 163.591 191.52 163.302 191.375 163.157Z" fill="#C1A073"/>
<path d="M77.1581 222.461C77.1581 222.316 77.1581 222.171 77.0133 222.171C74.9867 221.593 72.96 221.014 70.9333 220.436C71.8019 219.712 72.5257 218.989 73.3943 218.266C73.6838 217.977 73.2495 217.543 72.96 217.832C72.0914 218.555 71.2228 219.423 70.3543 220.146C70.0647 218.121 69.92 216.096 69.6305 214.071C69.6305 213.927 69.4857 213.782 69.3409 213.782C69.1962 213.638 68.9067 213.637 68.9067 213.927C68.4724 216.096 68.0381 218.266 67.7486 220.291C67.0247 219.423 66.3009 218.555 65.4324 217.687C65.1428 217.398 64.7086 217.832 64.9981 218.121C65.7219 218.989 66.4457 219.712 67.1695 220.58C65.1428 220.87 62.9714 221.159 60.9447 221.448C60.6552 221.448 60.6552 221.737 60.8 221.882C60.8 222.027 60.8 222.171 60.9447 222.171C63.1162 222.75 65.2876 223.184 67.459 223.762C66.88 224.63 66.3009 225.354 65.7219 226.221C65.4324 226.511 66.0114 226.8 66.3009 226.511C66.88 225.787 67.459 224.92 67.8933 224.196L69.0514 229.548V229.693C69.1962 229.982 69.7752 229.837 69.6305 229.548L70.9333 224.486C71.5124 225.209 72.0914 225.787 72.5257 226.511C72.8152 226.8 73.2495 226.366 72.96 226.077C72.3809 225.354 71.6571 224.486 71.0781 223.762C73.1047 223.473 74.9867 223.184 77.0133 222.75C77.1581 222.895 77.1581 222.605 77.1581 222.461Z" fill="#C1A073"/>
<path d="M230.316 247.339C230.316 247.195 230.316 247.05 230.171 247.05C228.145 246.471 226.118 245.893 224.091 245.314C224.96 244.591 225.684 243.868 226.552 243.145C226.842 242.855 226.408 242.421 226.118 242.711C225.25 243.434 224.381 244.302 223.512 245.025C223.223 243 223.078 240.975 222.789 238.95C222.789 238.805 222.644 238.661 222.499 238.661C222.354 238.516 222.065 238.516 222.065 238.805C221.63 240.975 221.196 243.145 220.907 245.17C220.183 244.302 219.459 243.434 218.591 242.566C218.301 242.277 217.867 242.711 218.156 243C218.88 243.868 219.604 244.591 220.328 245.459C218.301 245.748 216.13 246.037 214.103 246.327C213.813 246.327 213.813 246.616 213.958 246.761C213.958 246.905 213.958 247.05 214.103 247.05C216.274 247.629 218.446 248.062 220.617 248.641C220.038 249.509 219.459 250.232 218.88 251.1C218.59 251.389 219.17 251.679 219.459 251.389C220.038 250.666 220.617 249.798 221.051 249.075L222.21 254.427V254.571C222.354 254.861 222.933 254.716 222.789 254.427L224.091 249.364C224.671 250.087 225.25 250.666 225.684 251.389C225.973 251.679 226.408 251.245 226.118 250.955C225.539 250.232 224.815 249.364 224.236 248.641C226.263 248.352 228.145 248.062 230.171 247.629C230.316 247.773 230.316 247.484 230.316 247.339Z" fill="#C1A073"/>
<path d="M102.926 327.616C102.926 327.471 102.926 327.327 102.781 327.327C100.754 326.748 98.7276 326.17 96.701 325.591C97.5695 324.868 98.2933 324.145 99.1619 323.421C99.4514 323.132 99.0171 322.698 98.7276 322.987C97.859 323.711 96.9905 324.579 96.1219 325.302C95.8324 323.277 95.6876 321.252 95.3981 319.227C95.3981 319.082 95.2533 318.937 95.1086 318.937C94.9638 318.793 94.6743 318.793 94.6743 319.082C94.24 321.252 93.8057 323.421 93.5162 325.446C92.7924 324.579 92.0686 323.711 91.2 322.843C90.9105 322.554 90.4762 322.987 90.7657 323.277C91.4895 324.145 92.2133 324.868 92.9371 325.736C90.9105 326.025 88.7391 326.314 86.7124 326.604C86.4229 326.604 86.4229 326.893 86.5676 327.037C86.5676 327.182 86.5676 327.327 86.7124 327.327C88.8838 327.905 91.0552 328.339 93.2267 328.918C92.6476 329.786 92.0686 330.509 91.4895 331.377C91.2 331.666 91.779 331.955 92.0686 331.666C92.6476 330.943 93.2267 330.075 93.661 329.352L94.819 334.704V334.848C94.9638 335.137 95.5429 334.993 95.3981 334.704L96.701 329.641C97.28 330.364 97.8591 330.943 98.2933 331.666C98.5829 331.955 99.0171 331.521 98.7276 331.232C98.1486 330.509 97.4248 329.641 96.8457 328.918C98.8724 328.629 100.754 328.339 102.781 327.905C102.926 328.05 102.926 327.761 102.926 327.616Z" fill="#C1A073"/>
<path d="M224.67 309.391C222.499 309.68 220.183 310.114 218.011 310.404C217.577 308.957 216.998 307.366 216.564 305.92C216.564 305.775 216.419 305.775 216.419 305.775C216.274 305.486 215.985 305.486 215.84 305.775C215.116 307.077 214.392 308.523 213.669 309.825H207.733H207.589C207.444 309.97 207.299 310.114 207.444 310.404L212.076 314.598C210.773 316.479 209.615 318.504 208.312 320.384C208.168 320.529 208.312 320.818 208.457 320.818C208.602 320.963 208.747 321.107 208.891 320.963C211.352 319.227 213.958 317.491 216.419 315.9C217.577 317.346 219.17 318.648 220.762 319.661C221.341 320.095 222.499 320.818 222.21 319.516C221.63 317.491 220.762 315.466 219.893 313.586C221.63 312.429 223.368 311.271 224.96 309.97C225.105 309.825 224.96 309.246 224.67 309.391Z" fill="#C1A073"/>
<path d="M137.09 257.609C133.905 258.043 130.575 258.621 127.39 259.055C126.667 256.886 126.088 254.716 125.364 252.546C125.364 252.402 125.219 252.257 125.074 252.257C124.93 251.968 124.351 251.679 124.206 252.112C123.192 254.137 122.179 256.162 121.166 258.043H112.48C112.335 258.043 112.335 258.043 112.191 258.043C111.901 258.187 111.611 258.621 112.046 258.766L118.85 264.841C117.112 267.589 115.231 270.482 113.493 273.23C113.349 273.52 113.493 273.809 113.638 273.954C113.783 274.243 114.072 274.387 114.362 274.243C117.981 271.784 121.6 269.325 125.219 266.721C126.956 268.746 129.272 270.771 131.444 272.218C132.312 272.796 134.05 273.954 133.47 272.073C132.602 269.18 131.444 266.143 130.141 263.395C132.602 261.659 135.063 259.923 137.524 258.187C137.524 258.187 137.524 258.187 137.669 258.043C137.958 258.332 137.669 257.464 137.09 257.609Z" fill="#C1A073"/>
<path d="M212.51 182.395C209.76 182.829 207.154 183.263 204.404 183.552C203.825 181.816 203.246 179.936 202.667 178.2C202.667 178.055 202.522 178.055 202.522 177.911C202.377 177.621 201.943 177.477 201.798 177.766C200.93 179.357 200.061 181.093 199.192 182.684H191.954C191.81 182.684 191.81 182.684 191.81 182.684C191.52 182.829 191.375 183.118 191.665 183.407L197.31 188.47C195.863 190.784 194.27 193.098 192.823 195.413C192.678 195.702 192.823 195.846 192.968 195.991C193.112 196.136 193.257 196.28 193.547 196.136C196.587 194.111 199.627 191.941 202.667 189.916C204.114 191.652 205.996 193.243 207.878 194.545C208.602 194.979 210.05 195.991 209.615 194.4C208.891 191.941 207.878 189.482 206.865 187.168C208.891 185.721 210.918 184.275 213.09 182.829C213.09 182.829 213.09 182.829 213.234 182.684C213.234 182.973 213.09 182.395 212.51 182.395Z" fill="#C1A073"/>
<path d="M129.417 194.111C126.667 194.545 124.061 194.979 121.31 195.268C120.731 193.532 120.152 191.652 119.573 189.916C119.573 189.771 119.429 189.771 119.429 189.627C119.284 189.338 118.849 189.193 118.705 189.482C117.836 191.073 116.968 192.809 116.099 194.4H108.861C108.716 194.4 108.716 194.4 108.716 194.4C108.427 194.545 108.282 194.834 108.571 195.123L114.217 200.186C112.769 202.5 111.177 204.814 109.729 207.129C109.585 207.418 109.729 207.563 109.874 207.707C110.019 207.852 110.164 207.996 110.453 207.852C113.493 205.827 116.533 203.657 119.573 201.632C121.021 203.368 122.903 204.959 124.785 206.261C125.509 206.695 126.956 207.707 126.522 206.116C125.798 203.657 124.785 201.198 123.771 198.884C125.798 197.438 127.825 195.991 129.996 194.545C129.996 194.545 129.996 194.545 130.141 194.4C130.141 194.689 129.851 194.111 129.417 194.111Z" fill="#C1A073"/>
<path d="M198.469 224.63C195.573 224.341 192.823 223.907 189.928 223.618C188.77 220.002 187.467 216.386 186.309 212.77C186.309 212.625 186.164 212.625 186.164 212.48C186.019 212.191 185.44 212.191 185.295 212.625L181.821 224.486C178.926 225.354 175.886 226.077 172.846 226.511C172.701 226.511 172.701 226.511 172.556 226.511C171.977 226.655 171.977 227.523 172.556 227.523H172.701C175.307 228.246 177.768 228.97 180.373 229.548C179.505 232.875 178.636 236.202 177.768 239.529C177.623 240.107 178.347 240.396 178.636 239.962C178.781 239.962 178.781 239.962 178.926 239.818C181.242 236.925 183.703 233.887 186.019 230.995C188.48 233.309 191.086 235.768 193.547 238.082C193.981 238.516 194.56 237.937 194.415 237.504C194.415 237.359 194.415 237.359 194.415 237.214C193.112 234.177 191.954 231.139 190.651 228.102C193.257 227.234 196.008 226.511 198.613 225.643C198.758 225.643 198.903 225.498 198.903 225.354C199.048 225.209 198.903 224.63 198.469 224.63Z" fill="#C1A073"/>
<path fill-rule="evenodd" clip-rule="evenodd" d="M114.072 149.85C110.888 149.85 110.888 154.768 114.072 154.768C117.257 154.768 117.257 149.85 114.072 149.85Z" fill="#C1A073"/>
<path fill-rule="evenodd" clip-rule="evenodd" d="M253.044 206.405C249.859 206.405 249.859 211.323 253.044 211.323C256.229 211.323 256.229 206.405 253.044 206.405Z" fill="#C1A073"/>
<path fill-rule="evenodd" clip-rule="evenodd" d="M277.943 239.963C274.758 239.963 274.758 244.88 277.943 244.88C281.128 244.88 281.128 239.963 277.943 239.963Z" fill="#C1A073"/>
<path fill-rule="evenodd" clip-rule="evenodd" d="M202.232 339.043C199.048 339.043 199.048 343.961 202.232 343.961C205.417 343.961 205.417 339.043 202.232 339.043Z" fill="#C1A073"/>
<path fill-rule="evenodd" clip-rule="evenodd" d="M62.9714 265.709C59.7866 265.709 59.7866 270.627 62.9714 270.627C66.1562 270.627 66.1562 265.709 62.9714 265.709Z" fill="#C1A073"/>
<path fill-rule="evenodd" clip-rule="evenodd" d="M153.592 162.434C150.408 162.434 150.408 167.352 153.592 167.352C156.777 167.352 156.777 162.434 153.592 162.434Z" fill="#C1A073"/>
<path fill-rule="evenodd" clip-rule="evenodd" d="M80.1981 304.184C77.0133 304.184 77.0133 309.102 80.1981 309.102C83.3828 309.102 83.3828 304.184 80.1981 304.184Z" fill="#C1A073"/>
<path fill-rule="evenodd" clip-rule="evenodd" d="M277.943 208.864C274.758 208.864 274.758 213.782 277.943 213.782C281.128 213.782 281.128 208.864 277.943 208.864Z" fill="#C1A073"/>
<path fill-rule="evenodd" clip-rule="evenodd" d="M145.63 196.425C142.446 196.425 142.446 201.343 145.63 201.343C148.815 201.343 148.815 196.425 145.63 196.425Z" fill="#C1A073"/>
<path fill-rule="evenodd" clip-rule="evenodd" d="M94.6743 186.589C91.4895 186.589 91.4895 191.507 94.6743 191.507C97.7143 191.507 97.859 186.589 94.6743 186.589Z" fill="#C1A073"/>
<path fill-rule="evenodd" clip-rule="evenodd" d="M213.669 220.87C210.484 220.87 210.484 225.787 213.669 225.787C216.853 225.787 216.853 220.87 213.669 220.87Z" fill="#C1A073"/>
<path fill-rule="evenodd" clip-rule="evenodd" d="M240.739 244.157C237.554 244.157 237.554 249.075 240.739 249.075C243.924 249.075 243.924 244.157 240.739 244.157Z" fill="#C1A073"/>
<path fill-rule="evenodd" clip-rule="evenodd" d="M206.43 252.257C203.246 252.257 203.246 257.175 206.43 257.175C209.615 257.175 209.615 252.257 206.43 252.257Z" fill="#C1A073"/>
<path fill-rule="evenodd" clip-rule="evenodd" d="M169.806 205.104C166.621 205.104 166.621 210.021 169.806 210.021C172.99 210.166 172.99 205.104 169.806 205.104Z" fill="#C1A073"/>
<path fill-rule="evenodd" clip-rule="evenodd" d="M199.916 275.255C196.731 275.255 196.731 280.173 199.916 280.173C203.101 280.173 203.101 275.255 199.916 275.255Z" fill="#C1A073"/>
<path fill-rule="evenodd" clip-rule="evenodd" d="M157.646 233.454C154.461 233.454 154.461 238.371 157.646 238.371C160.83 238.371 160.83 233.454 157.646 233.454Z" fill="#C1A073"/>
<path fill-rule="evenodd" clip-rule="evenodd" d="M243.2 263.25C240.015 263.25 240.015 268.168 243.2 268.168C246.385 268.168 246.385 263.25 243.2 263.25Z" fill="#C1A073"/>
<path fill-rule="evenodd" clip-rule="evenodd" d="M227.421 288.707C224.236 288.707 224.236 293.625 227.421 293.625C230.606 293.625 230.606 288.707 227.421 288.707Z" fill="#C1A073"/>
<path fill-rule="evenodd" clip-rule="evenodd" d="M129.996 223.762C126.811 223.762 126.811 228.68 129.996 228.68C133.181 228.68 133.181 223.762 129.996 223.762Z" fill="#C1A073"/>
<path fill-rule="evenodd" clip-rule="evenodd" d="M222.065 331.955C218.88 331.955 218.88 336.873 222.065 336.873C225.25 336.873 225.25 331.955 222.065 331.955Z" fill="#C1A073"/>
<path fill-rule="evenodd" clip-rule="evenodd" d="M156.053 254.716C152.869 254.716 152.869 259.634 156.053 259.634C159.093 259.634 159.093 254.716 156.053 254.716Z" fill="#C1A073"/>
<path fill-rule="evenodd" clip-rule="evenodd" d="M99.741 291.166C96.5562 291.166 96.5562 296.084 99.741 296.084C102.926 296.084 102.926 291.166 99.741 291.166Z" fill="#C1A073"/>
<path fill-rule="evenodd" clip-rule="evenodd" d="M45.6 120.198C42.4152 120.198 42.4152 125.116 45.6 125.116C48.7848 125.116 48.7848 120.198 45.6 120.198Z" fill="#C1A073"/>
<path fill-rule="evenodd" clip-rule="evenodd" d="M89.7523 268.602C86.5676 268.602 86.5676 273.52 89.7523 273.52C92.9371 273.52 92.9371 268.602 89.7523 268.602Z" fill="#C1A073"/>
<path fill-rule="evenodd" clip-rule="evenodd" d="M75.4209 245.314C72.2362 245.314 72.2362 250.232 75.4209 250.232C78.6057 250.232 78.6057 245.314 75.4209 245.314Z" fill="#C1A073"/>
<path fill-rule="evenodd" clip-rule="evenodd" d="M89.7523 236.057C86.5676 236.057 86.5676 240.975 89.7523 240.975C92.9371 240.975 92.9371 236.057 89.7523 236.057Z" fill="#C1A073"/>
<path fill-rule="evenodd" clip-rule="evenodd" d="M48.0609 231.429C44.8762 231.429 44.8762 236.346 48.0609 236.346C51.1009 236.346 51.2457 231.429 48.0609 231.429Z" fill="#C1A073"/>
<path d="M135 321C142.18 321 148 315.18 148 308C148 300.82 142.18 295 135 295C127.82 295 122 300.82 122 308C122 315.18 127.82 321 135 321Z" stroke="white" stroke-miterlimit="10"/>
<path d="M176 318C183.18 318 189 312.404 189 305.5C189 298.596 183.18 293 176 293C168.82 293 163 298.596 163 305.5C163 312.404 168.82 318 176 318Z" stroke="white" stroke-miterlimit="10"/>
<path d="M148 308L163 307" stroke="white" stroke-miterlimit="10"/>
</svg>
