<svg width="214" height="349" viewBox="0 0 214 349" fill="none" xmlns="http://www.w3.org/2000/svg">
<g clip-path="url(#clip0)">
<path d="M0 122.907C4.48381 124.026 8.86572 125.449 12.3305 128.194C17.2219 132.158 19.7695 138.258 22.7248 143.748C25.68 149.339 29.8581 154.93 35.9724 156.354C45.6533 158.489 54.621 149.136 64.5057 149.847C72.8619 150.457 79.0781 157.98 81.9314 165.808C84.7848 173.636 85.2943 182.175 88.0457 190.003C93.141 204.236 106.083 215.317 120.961 218.163C128.808 219.688 138.896 220.908 146.437 217.655C152.959 214.808 156.628 207.794 161.519 203.016C167.226 197.526 172.932 192.036 178.231 186.14C188.218 174.957 196.88 161.945 199.631 147.204C201.364 137.75 200.243 127.482 196.065 118.841C193.721 114.063 190.46 109.793 186.282 106.54C180.473 102.067 172.321 98.1023 172.015 90.7827C171.811 84.1748 178.333 79.4984 180.677 73.2971C182.613 68.0108 181.289 61.9112 178.028 57.2348C174.767 52.6601 169.875 49.4069 164.78 47.0688C155.099 42.6974 143.074 40.4608 138.285 31.0064C134.514 23.4836 136.654 13.4192 130.948 7.31956C127.687 3.86311 122.693 2.74484 118.311 0.914956C117.598 0.609975 116.783 0.203333 116.07 -0.203308H0V122.907Z" fill="#D8C19E"/>
<path d="M111.178 254.151C105.268 258.421 99.5609 262.995 96.0962 269.502C93.6505 274.28 91.9181 279.363 91.3066 284.649H190.052C189.033 276.11 185.161 267.977 178.843 262.08C177.518 260.861 176.091 259.641 174.563 258.522C171.098 255.879 167.531 253.338 164.78 249.881C160.5 244.493 158.768 237.377 158.869 230.464C158.971 223.551 160.806 216.74 162.946 210.234C163.149 209.624 163.353 208.912 163.048 208.404C162.538 207.591 161.315 207.591 160.398 207.692C151.838 208.912 142.87 207.896 134.82 204.846C133.393 204.337 131.355 204.032 130.846 205.354C130.642 205.761 130.744 206.269 130.846 206.676C132.272 217.248 133.393 228.736 128.094 238.089C124.426 244.9 117.598 249.576 111.178 254.151Z" fill="#AB7051"/>
<path d="M142.972 270.518C131.049 269.908 117.19 264.724 111.688 253.744C111.484 253.846 111.382 253.948 111.178 254.049C105.268 258.319 99.5609 262.894 96.0962 269.4C93.6505 274.178 91.9181 279.261 91.3066 284.547H190.052C189.033 276.008 185.161 267.875 178.843 261.979C177.518 260.759 176.091 259.539 174.563 258.421C173.849 257.811 173.034 257.201 172.321 256.692C165.697 266.045 155.201 271.23 142.972 270.518Z" fill="white"/>
<path d="M157.035 216.537C154.793 219.18 149.189 217.655 146.437 216.537C142.87 215.215 139.813 212.775 137.673 209.624C136.349 207.692 133.19 209.522 134.514 211.454C137.47 215.622 141.546 218.773 146.437 220.4C150.31 221.62 156.628 222.636 159.583 219.078C161.111 217.35 158.564 214.707 157.035 216.537Z" fill="#68422D"/>
<path d="M189.339 145.374C189.237 145.273 189.135 145.069 189.033 144.968C187.912 143.646 185.467 144.459 183.938 144.459C181.9 144.561 179.964 144.459 177.926 144.358C173.951 143.951 169.977 143.036 166.207 141.715C158.869 138.97 152.144 134.293 147.15 128.194C146.845 127.787 146.437 127.279 145.928 127.279C145.112 127.279 144.705 128.295 144.399 129.109C142.361 136.936 135.533 142.426 129.011 147.306C121.572 152.897 115.152 158.692 112.503 167.943C109.853 177.397 112.299 187.868 117.598 196.001C123.407 204.947 132.374 211.555 141.851 216.638C145.622 218.671 149.8 220.501 154.08 220.501C157.341 220.501 160.602 219.485 163.455 217.96C170.079 214.503 175.174 208.505 179.149 202.202C189.339 185.937 193.925 165.3 189.543 146.391C189.543 145.984 189.441 145.679 189.339 145.374Z" fill="#AB7051"/>
<path d="M150.615 160.522C150.411 160.522 150.208 160.623 150.106 160.725C149.8 160.928 149.596 161.335 149.392 161.64C148.068 163.876 145.622 165.503 142.972 165.808C140.323 166.113 137.572 165.3 135.635 163.47C135.228 163.063 134.82 162.555 134.209 162.453C131.355 161.945 135.533 166.723 136.145 167.231C138.081 168.655 140.425 169.468 142.769 169.264C146.845 168.959 150.411 165.808 151.431 161.945C151.532 161.437 151.634 160.928 151.227 160.623C151.023 160.623 150.819 160.522 150.615 160.522Z" fill="#291410"/>
<path d="M133.801 179.126C132.374 179.126 130.948 179.634 129.623 180.549C126.464 182.684 124.324 186.75 124.935 190.511C125.547 194.375 128.502 197.628 132.476 197.933C136.45 198.339 140.425 195.595 141.75 191.935C143.278 187.665 141.444 182.48 137.571 180.142C136.349 179.431 135.126 179.126 133.801 179.126Z" fill="#9F5D3A"/>
<path d="M145.051 148.664C139.956 146.122 133.944 146.63 129.46 150.087C128.746 150.697 129.46 151.917 130.173 151.307C134.351 148.155 139.65 147.545 144.338 149.884C145.153 150.392 145.866 149.172 145.051 148.664Z" fill="#291410"/>
<path d="M172.321 160.623C172.015 160.928 172.219 161.538 172.321 161.945C173.849 165.605 177.62 168.146 181.288 167.74C183.428 167.536 185.365 166.418 186.791 164.69C187.301 164.08 190.052 158.692 187.607 159.708C187.097 159.912 186.791 160.42 186.486 160.928C185.161 163.063 182.817 164.385 180.473 164.486C178.129 164.588 175.684 163.368 174.053 161.437C173.849 161.132 173.544 160.827 173.238 160.623C173.034 160.522 172.932 160.522 172.729 160.522C172.627 160.42 172.423 160.42 172.321 160.623Z" fill="#291410"/>
<path d="M185.263 177.499C184.04 177.499 182.715 177.804 181.492 178.516C177.62 180.854 175.786 186.038 177.314 190.308C178.231 192.85 180.371 194.883 182.817 195.798C185.568 190.41 187.708 184.615 189.135 178.719C187.912 177.906 186.587 177.499 185.263 177.499Z" fill="#9F5D3A"/>
<path d="M173.046 147.14C177.734 144.598 183.135 145.106 187.211 148.563C187.925 149.173 187.211 150.393 186.498 149.783C182.727 146.631 177.938 146.021 173.658 148.36C172.945 148.868 172.333 147.648 173.046 147.14Z" fill="#291410"/>
<path d="M166.105 174.043C166.003 173.738 165.799 173.331 165.697 173.026C164.168 169.366 163.353 165.198 164.067 161.335C164.168 160.928 164.27 160.522 164.067 160.115C163.965 159.708 163.455 159.403 163.047 159.607C162.742 159.81 162.64 160.115 162.64 160.42C161.825 165.503 162.64 170.789 164.984 175.364C165.493 176.381 166.105 177.499 166.41 178.617C166.716 179.736 166.716 181.057 166.105 182.074C165.391 183.192 163.965 183.7 162.538 183.904C160.5 184.209 161.213 185.429 162.742 185.835C164.067 186.14 165.697 185.632 166.614 184.615C168.041 183.09 168.245 180.854 167.837 178.821C167.531 177.092 166.818 175.567 166.105 174.043Z" fill="#291410"/>
<path d="M167.939 194.985C167.633 195.086 167.429 195.391 167.124 195.595C165.901 196.814 164.169 197.526 162.436 197.628C160.704 197.729 158.869 197.119 157.545 196.001C157.137 195.696 156.831 195.29 156.322 195.188C154.182 194.781 156.628 197.933 157.035 198.441C158.156 199.559 159.481 200.373 161.009 200.678C163.557 201.186 166.309 200.271 167.939 198.238C168.55 197.526 168.958 196.611 168.958 195.696C168.958 195.493 168.958 195.29 168.856 195.086C168.652 194.883 168.245 194.781 167.939 194.985Z" fill="#291410"/>
<path d="M100.58 201.084C96.8096 198.848 92.8353 202.507 90.3896 205.049C88.1477 207.285 86.3134 209.827 84.7849 212.47C85.6001 208.607 86.4153 204.744 87.2306 200.983C90.2877 197.119 92.4277 192.545 93.6506 187.767C94.1601 185.632 94.3639 182.989 92.7334 181.464C92.122 180.955 91.4087 180.65 90.5934 180.549C89.3706 180.447 87.9439 180.854 87.0268 181.667C85.3963 182.989 84.683 185.124 84.3773 187.157C83.6639 191.833 83.562 196.408 84.9887 200.983C84.9887 200.983 84.9887 200.983 84.9887 201.084C83.6639 206.879 82.4411 212.673 81.3201 218.57C80.8106 215.113 79.9954 211.657 78.263 208.81C76.8363 206.472 73.6773 204.236 71.0277 206.269C67.9706 208.505 69.8049 212.877 71.0277 215.52C73.0658 219.891 76.123 223.449 79.8934 226.398C79.0782 231.481 78.263 236.564 77.6515 241.647C76.9382 239.105 75.8173 236.665 74.2887 234.429C72.3525 231.582 68.7858 227.414 64.8115 229.346C56.0477 233.616 72.1487 247.543 76.5306 251.101C76.0211 255.574 75.6135 260.149 75.2058 264.622C73.6773 261.775 72.2506 258.827 70.4163 256.286C69.1935 254.558 67.0535 253.439 65.2192 255.167C60.4297 259.742 70.8239 266.35 74.7982 268.79C74.3906 274.788 74.0849 280.888 73.8811 286.987C73.8811 288.309 75.9192 288.614 76.0211 287.292C76.2249 281.294 76.5306 275.195 76.9382 269.197C77.142 269.095 77.2439 268.892 77.3458 268.688C82.4411 267.367 87.2306 265.029 91.2049 261.572C93.4468 259.641 99.0515 254.964 96.1982 251.508C93.4468 248.255 88.5553 252.321 86.4153 254.049C82.7468 256.997 79.6896 260.556 77.3458 264.52C77.7534 259.742 78.1611 255.066 78.6706 250.288C78.8744 250.186 79.1801 249.983 79.282 249.678C83.6639 247.238 87.6382 243.985 90.7972 240.02C92.4277 237.987 96.9115 232.802 93.5487 230.464C90.2877 228.228 86.5172 232.802 84.5811 234.937C82.543 237.275 80.9125 239.817 79.6896 242.562C80.6068 235.344 81.7277 228.126 83.0525 220.908C83.1544 220.908 83.1544 220.806 83.2563 220.705C86.2115 218.57 89.2687 216.435 92.2239 214.3C94.8734 212.369 98.1344 210.64 100.478 208.302C102.822 206.371 103.637 202.812 100.58 201.084Z" fill="#68422D"/>
<path d="M62.1617 299.898C73.2693 270.823 76.5302 238.8 71.5369 208.099C71.435 207.692 71.3331 207.184 71.0274 206.98C69.8045 205.964 68.8874 210.03 68.5817 210.64C67.8683 212.673 67.155 214.605 66.4417 216.638C65.015 220.603 63.6902 224.669 62.4674 228.736C60.0217 236.665 58.0855 244.696 56.8626 252.829C54.5188 268.485 55.0283 284.751 60.4293 299.593C60.6331 300.203 61.2445 300.915 61.7541 300.61C61.9579 300.508 62.0598 300.203 62.1617 299.898C62.1617 300 62.1617 299.898 62.1617 299.898Z" fill="#3A3F57"/>
<path d="M61.9578 284.242C61.9578 284.141 61.9578 284.141 62.0597 284.039C64.9131 274.28 66.8492 264.317 68.174 254.253C69.3969 244.493 70.5178 234.734 69.8045 224.974C69.7026 223.551 68.6835 221.721 67.5626 223.653C67.0531 224.466 67.3588 226.703 67.3588 227.719C67.2569 230.362 67.053 233.006 66.8492 235.649C66.4416 240.935 65.9321 246.221 65.3207 251.406C64.0978 261.877 62.5692 272.348 60.6331 282.819C60.5311 283.327 60.4292 283.836 60.6331 284.242C60.8369 284.649 61.4483 284.954 61.8559 284.547C61.8559 284.446 61.9578 284.344 61.9578 284.242Z" fill="#495382"/>
<path d="M66.2376 238.597C64.5052 236.869 62.7729 235.242 61.0405 233.514C60.8367 234.327 60.6329 235.14 60.3271 235.954C61.2443 237.275 62.1614 238.495 63.0786 239.715C63.8938 240.833 65.4224 243.172 66.6453 243.782C67.3586 244.087 67.8681 243.578 68.1738 242.867C69.091 240.935 67.5624 239.918 66.2376 238.597Z" fill="#495382"/>
<path d="M65.7282 256.286C63.0787 253.338 60.4292 250.39 57.6777 247.441C57.4739 248.255 57.372 249.17 57.1682 249.983C59.2063 252.931 61.3463 255.778 63.3844 258.726C63.792 259.336 65.2187 260.454 65.6263 259.234C65.7282 259.031 65.7282 258.827 65.8301 258.522C66.1358 257.811 66.1358 256.794 65.7282 256.286Z" fill="#495382"/>
<path d="M63.2825 269.298C61.0406 266.452 58.493 263.707 55.8435 261.165C55.7416 262.385 55.6396 263.605 55.6396 264.825C57.7797 267.672 60.0216 270.417 62.1616 273.263C62.4673 273.67 63.2825 274.585 63.894 273.975C64.0978 273.771 64.1997 273.365 64.1997 272.958C64.1997 271.637 63.792 269.807 63.2825 269.298Z" fill="#495382"/>
<path d="M34.4437 223.246C35.3608 224.669 36.7875 225.788 37.9084 227.008C39.1313 228.329 40.456 229.651 41.6789 231.074C41.6789 231.074 41.6789 231.176 41.7808 231.176C41.6789 234.835 41.577 238.495 41.2713 242.053C40.9656 240.63 40.3541 239.207 39.6408 237.885C38.9275 236.665 37.6027 234.022 35.7684 234.835C33.8322 235.649 35.5646 238.597 36.176 239.715C37.297 241.952 38.9275 243.883 40.8637 245.611C40.8637 245.713 40.9656 245.916 41.0675 245.916C40.8637 248.255 40.5579 250.593 40.3541 252.931C39.5389 250.694 38.5199 248.661 36.9913 246.933C36.0741 245.916 34.1379 243.375 32.5075 244.697C30.7751 246.12 33.017 248.966 33.9341 250.085C35.5646 252.219 37.6027 253.744 39.9465 254.964C39.9465 255.066 40.0484 255.168 40.0484 255.269C39.6408 258.217 39.2332 261.165 38.7237 264.114C38.6218 264.825 39.6408 264.825 39.7427 264.215C40.2522 261.267 40.7618 258.217 41.0675 255.269C43.2075 254.456 49.0161 252.321 47.0799 249.576C46.3665 248.56 45.2456 248.865 44.4303 249.678C43.3094 250.796 42.2903 252.016 41.2713 253.236C41.577 250.999 41.7808 248.763 41.9846 246.526C44.4303 245.306 53.7037 240.122 49.8313 237.072C48.0989 235.75 45.9589 237.377 44.736 238.597C43.717 239.512 43.0037 240.63 42.3922 241.748C42.596 239.207 42.698 236.665 42.7999 234.022C44.9399 233.006 46.7741 231.481 48.2008 229.549C49.118 228.431 50.3408 226.398 49.118 224.974C47.997 223.754 46.2646 224.466 45.3475 225.483C44.2265 226.703 43.5132 228.329 42.9018 229.956C43.0037 227.008 42.9018 224.059 42.9018 221.111C44.0227 218.976 44.4303 216.74 44.5322 214.402C44.5322 213.385 44.4303 212.267 43.8189 211.454C43.4113 210.945 42.7999 210.64 42.1884 210.539C41.7808 210.539 41.3732 210.539 41.0675 210.742C40.1503 211.352 39.9465 212.572 40.0484 213.69C40.1503 216.13 40.7618 218.57 41.8827 220.806C41.8827 222.738 41.9846 224.669 41.9846 226.703C41.4751 225.279 40.8637 223.856 40.0484 222.535C39.1313 221.111 37.5008 218.875 35.4627 219.586C33.6284 220.196 33.6284 222.026 34.4437 223.246Z" fill="#68422D"/>
<path d="M197.186 199.661C187.708 228.532 182.409 258.217 182.919 288.715C182.919 289.427 183.938 289.325 183.938 288.614C183.428 258.217 188.727 228.634 198.205 199.864C198.408 199.254 197.389 199.051 197.186 199.661Z" fill="#68422D"/>
<path d="M203.3 184.615C203.198 184.514 203.198 184.31 202.994 184.31C202.79 184.209 202.688 184.412 202.485 184.514C200.243 186.242 198.714 188.58 197.695 191.223C196.982 193.053 196.676 194.985 196.472 196.815C196.37 197.729 196.472 198.644 196.472 199.559C196.472 200.271 196.37 201.084 196.982 201.593C197.084 201.694 197.186 201.694 197.389 201.694C197.593 201.694 197.797 201.491 197.899 201.288C199.631 198.848 201.364 196.306 202.485 193.561C203.606 190.715 204.013 187.665 203.3 184.717C203.3 184.615 203.3 184.615 203.3 184.615Z" fill="#68422D"/>
<path d="M190.052 200.474L189.95 200.373C189.747 200.271 189.441 200.373 189.339 200.576C189.237 200.779 189.237 200.983 189.237 201.186C189.135 203.524 189.237 205.659 189.95 207.895C190.664 210.132 191.785 211.86 193.109 213.69C193.211 213.792 193.313 213.893 193.415 213.893C193.721 213.893 193.823 213.588 193.823 213.283C193.925 208.81 192.702 204.337 190.256 200.576C190.154 200.678 190.052 200.576 190.052 200.474Z" fill="#68422D"/>
<path d="M203.3 204.642C203.198 204.337 202.892 204.337 202.586 204.439C200.345 205.151 198.306 206.472 196.676 208.2C195.861 209.115 195.147 210.03 194.536 211.047C194.23 211.555 193.925 212.064 193.721 212.673C193.517 213.182 193.211 213.792 194.026 213.69C195.045 213.588 195.861 212.978 196.676 212.368C197.899 211.352 199.02 210.132 200.141 208.912C201.262 207.692 202.281 206.371 203.198 204.947C203.3 204.846 203.3 204.744 203.3 204.642Z" fill="#68422D"/>
<path d="M16.9162 216.537C13.2476 241.342 11.4133 266.452 11.4133 291.562C11.4133 292.274 12.4324 292.274 12.4324 291.562C12.4324 266.553 14.2667 241.545 17.8333 216.842C18.0371 216.13 17.0181 215.825 16.9162 216.537Z" fill="#68422D"/>
<path d="M21.8076 196.611C21.7057 196.306 21.5019 195.9 21.1962 196.001C20.9924 196.001 20.7886 196.205 20.5848 196.306C15.3876 201.694 15.3876 209.522 16.8143 216.537C16.9162 217.045 17.2219 217.553 17.6295 217.452C17.9353 217.35 18.1391 217.045 18.241 216.842C20.7886 210.64 22.0115 203.829 21.9095 197.119C21.9095 196.916 21.8076 196.713 21.8076 196.611Z" fill="#68422D"/>
<path d="M15.1838 236.665C15.1838 236.564 15.1838 236.36 15.1838 236.259C14.7762 229.549 13.2476 222.84 10.4962 216.74C10.3943 216.537 10.2924 216.333 10.1905 216.232C9.88477 216.028 9.47715 216.232 9.27334 216.435C8.86572 217.045 8.96763 218.061 8.96763 218.671C8.96763 219.688 8.86572 220.705 8.86572 221.721C8.86572 223.653 8.96763 225.686 9.27334 227.618C9.78287 230.972 11.2095 234.327 13.6552 236.767C14.0629 237.174 14.6743 237.479 15.0819 237.174C15.0819 237.072 15.1838 236.869 15.1838 236.665Z" fill="#68422D"/>
<path d="M13.4515 257.811C13.4515 257.709 13.4515 257.506 13.4515 257.404C13.0439 250.694 11.5153 243.985 8.76388 237.885C8.66197 237.682 8.56007 237.479 8.45816 237.377C8.15245 237.174 7.74483 237.377 7.54102 237.58C7.03149 238.292 7.1334 239.309 7.1334 239.918C7.1334 240.935 7.03149 241.952 7.03149 242.968C7.03149 244.9 7.1334 246.933 7.43911 248.865C7.94864 252.219 9.3753 255.574 11.821 258.014C12.2286 258.421 12.8401 258.726 13.2477 258.421C13.3496 258.319 13.4515 258.116 13.4515 257.811Z" fill="#68422D"/>
<path d="M12.4323 271.636C12.4323 271.535 12.4323 271.433 12.3304 271.23C10.6999 265.74 7.94846 260.555 4.4837 256.082C4.3818 255.981 4.27989 255.777 4.07608 255.777C3.77037 255.676 3.46465 255.879 3.36275 256.184C3.15894 256.794 3.46465 257.607 3.56656 258.116C3.77037 258.929 3.87227 259.844 4.07608 260.657C4.4837 262.284 4.89132 263.91 5.60465 265.435C6.7256 268.078 8.55989 270.62 11.0056 272.145C11.4132 272.348 11.9227 272.551 12.2285 272.246C12.4323 272.043 12.4323 271.84 12.4323 271.636Z" fill="#68422D"/>
<path d="M12.8398 258.319C13.1455 258.726 13.8588 258.624 14.2665 258.319C17.3236 256.794 19.5655 253.948 21.0941 250.898C22.0112 249.17 22.6227 247.238 23.2341 245.306C23.5398 244.29 23.7436 243.375 24.0493 242.358C24.2531 241.748 24.6607 240.732 24.355 240.122C24.2531 239.817 23.9474 239.512 23.5398 239.613C23.336 239.715 23.2341 239.817 23.0303 239.918C18.5465 245.001 15.0817 250.898 12.7379 257.201C12.7379 257.302 12.636 257.506 12.636 257.607C12.636 257.912 12.636 258.116 12.8398 258.319Z" fill="#68422D"/>
<path d="M12.1265 273.67C12.3303 274.178 13.0436 274.076 13.5531 273.873C16.8141 272.755 19.3617 270.213 21.2979 267.367C22.4189 265.74 23.336 263.91 24.1512 262.182C24.5589 261.267 24.9665 260.352 25.3741 259.336C25.5779 258.726 26.1893 257.811 25.9855 257.099C25.8836 256.794 25.5779 256.489 25.2722 256.489C25.0684 256.489 24.9665 256.692 24.7627 256.794C19.6674 261.267 15.4893 266.655 12.3303 272.551C12.2284 272.653 12.2284 272.856 12.1265 272.958C12.0246 273.161 12.0246 273.466 12.1265 273.67Z" fill="#68422D"/>
<path d="M14.7761 236.869C14.9799 237.275 15.5914 237.174 16.1009 236.97C18.9542 235.75 21.1961 233.412 22.8266 230.769C23.7438 229.244 24.4571 227.618 25.1704 225.991C25.4761 225.178 25.7819 224.263 26.0876 223.45C26.2914 222.84 26.699 222.026 26.5971 221.416C26.4952 221.111 26.1895 220.806 25.8838 220.908C25.6799 220.908 25.578 221.111 25.4761 221.213C21.0942 225.381 17.5276 230.464 14.878 235.954C14.7761 236.055 14.7761 236.157 14.7761 236.36C14.6742 236.462 14.6742 236.665 14.7761 236.869Z" fill="#68422D"/>
<path d="M54.2133 305.693C53.0923 274.585 43.6152 243.883 27.1066 217.452C26.9028 217.045 26.5971 216.74 26.1895 216.537C24.6609 216.13 25.3743 220.196 25.3743 220.806C25.4762 222.941 25.5781 225.076 25.68 227.211C25.8838 231.481 26.1895 235.649 26.699 239.918C27.5143 248.153 28.839 256.286 30.8771 264.317C34.7495 279.668 41.5771 294.51 52.379 306.099C52.7866 306.608 53.7038 307.014 54.0095 306.506C54.2133 306.201 54.2133 305.998 54.2133 305.693Z" fill="#3A3F57"/>
<path d="M47.8951 291.257C47.8951 291.155 47.8951 291.155 47.8951 291.054C46.6723 280.989 44.6342 271.027 41.8828 261.267C39.2332 251.813 36.3799 242.46 31.998 233.616C31.3866 232.396 29.6542 231.074 29.4504 233.311C29.3485 234.327 30.4694 236.157 30.7751 237.174C31.6923 239.613 32.5075 242.155 33.3228 244.696C35.0551 249.678 36.5837 254.761 38.1123 259.844C41.0675 270.01 43.717 280.278 45.9589 290.545C46.0608 291.054 46.1628 291.562 46.5704 291.867C46.978 292.172 47.5894 292.172 47.7932 291.765C47.8951 291.562 47.8951 291.359 47.8951 291.257Z" fill="#495382"/>
<path d="M34.036 247.543C31.7941 246.628 29.5522 245.815 27.3103 244.9C27.4122 245.713 27.5141 246.628 27.616 247.441C28.9408 248.356 30.2655 249.17 31.6922 249.881C32.9151 250.491 35.157 252.219 36.5836 252.219C37.3989 252.219 37.7046 251.508 37.6027 250.796C37.6027 248.661 35.7684 248.255 34.036 247.543Z" fill="#495382"/>
<path d="M40.456 264.012C36.8893 262.385 33.2207 260.657 29.6541 259.031C29.8579 259.844 30.0617 260.759 30.2655 261.572C33.3226 263.402 36.3798 265.334 39.4369 267.163C40.0483 267.57 41.7807 268.078 41.7807 266.757C41.7807 266.554 41.7807 266.35 41.6788 266.045C41.475 265.334 41.0674 264.317 40.456 264.012Z" fill="#495382"/>
<path d="M43.3093 276.923C40.0483 275.195 36.6855 273.67 33.2207 272.348C33.6283 273.466 34.0359 274.585 34.4436 275.805C37.5007 277.533 40.6598 279.261 43.7169 280.989C44.2264 281.294 45.2455 281.803 45.5512 280.989C45.6531 280.684 45.5512 280.379 45.4493 279.973C45.0417 278.753 43.9207 277.329 43.3093 276.923Z" fill="#495382"/>
<path d="M75.3074 344.222C75.3074 344.425 75.3074 344.73 75.4093 344.934C75.8169 345.442 76.6321 345.035 77.1417 344.629C88.3512 333.446 95.7902 318.909 100.376 303.761C102.72 295.832 104.35 287.699 105.573 279.566C106.185 275.398 106.694 271.128 107.102 266.96C107.305 264.825 107.509 262.69 107.713 260.657C107.815 259.946 108.63 255.981 107.102 256.286C106.694 256.387 106.388 256.794 106.185 257.099C88.4531 282.717 77.7531 313.114 75.3074 344.222C75.3074 344.12 75.3074 344.12 75.3074 344.222Z" fill="#3A3F57"/>
<path d="M82.2371 330.396C82.4409 330.803 83.0523 330.905 83.4599 330.6C83.8676 330.295 83.9695 329.786 84.0714 329.278C86.7209 319.01 89.778 308.946 93.2428 298.881C94.9752 293.9 96.7076 288.919 98.6438 283.937C99.5609 281.498 100.58 279.058 101.497 276.516C101.905 275.601 103.128 273.771 103.026 272.755C102.822 270.518 101.089 271.738 100.478 272.958C95.6885 281.498 92.5295 290.85 89.4723 300.101C86.3133 309.759 83.8676 319.62 82.2371 329.583C82.2371 329.685 82.2371 329.685 82.2371 329.786C82.1352 330.091 82.1352 330.295 82.2371 330.396Z" fill="#495382"/>
<path d="M97.8286 286.886C100.07 286.072 102.414 285.361 104.656 284.547C104.554 285.361 104.35 286.276 104.249 287.089C102.924 287.902 101.497 288.614 100.07 289.325C98.8476 289.935 96.5038 291.46 95.0772 291.46C94.2619 291.46 94.0581 290.749 94.0581 289.935C94.2619 287.8 95.9943 287.496 97.8286 286.886Z" fill="#495382"/>
<path d="M90.6952 303.151C94.3638 301.626 98.0324 300.101 101.701 298.577C101.497 299.39 101.293 300.203 100.988 301.118C97.8286 302.846 94.7714 304.574 91.6124 306.404C91.0009 306.811 89.2686 307.218 89.2686 305.896C89.2686 305.693 89.2686 305.489 89.3705 305.184C89.6762 304.371 90.0838 303.355 90.6952 303.151Z" fill="#495382"/>
<path d="M87.3324 315.859C90.5934 314.232 94.0581 312.809 97.5229 311.691C97.1153 312.809 96.6057 313.927 96.1981 315.045C93.0391 316.672 89.88 318.299 86.721 319.824C86.2115 320.129 85.0905 320.535 84.8867 319.722C84.7848 319.417 84.8867 319.112 84.9886 318.705C85.4981 317.689 86.721 316.164 87.3324 315.859Z" fill="#495382"/>
<path d="M136.043 324.5C138.081 293.493 131.763 261.877 117.904 234.022C117.7 233.615 117.496 233.209 117.088 233.107C115.56 232.497 115.866 236.665 115.866 237.275C115.764 239.41 115.662 241.545 115.56 243.68C115.356 247.95 115.254 252.118 115.254 256.387C115.254 264.622 115.764 272.856 116.987 281.091C119.33 296.747 124.629 312.199 134.208 324.805C134.616 325.313 135.431 325.923 135.839 325.415C135.941 325.11 136.043 324.805 136.043 324.5Z" fill="#3A3F57"/>
<path d="M131.151 309.556C131.151 309.454 131.151 309.454 131.151 309.352C130.948 299.186 129.929 289.122 128.196 279.159C126.464 269.502 124.629 259.844 121.063 250.694C120.553 249.373 119.025 247.95 118.515 250.084C118.311 250.999 119.229 253.033 119.432 254.049C120.044 256.591 120.655 259.234 121.267 261.775C122.489 266.96 123.509 272.145 124.528 277.329C126.464 287.699 128.094 298.17 129.317 308.641C129.419 309.149 129.419 309.657 129.725 309.962C130.03 310.267 130.744 310.369 130.948 309.962C131.151 309.759 131.151 309.657 131.151 309.556Z" fill="#495382"/>
<path d="M121.776 264.724C119.636 263.605 117.496 262.487 115.254 261.47C115.254 262.284 115.356 263.199 115.356 264.012C116.579 265.029 117.802 265.943 119.127 266.858C120.247 267.672 122.387 269.502 123.712 269.603C124.528 269.705 124.833 268.993 124.935 268.282C125.241 266.045 123.508 265.537 121.776 264.724Z" fill="#495382"/>
<path d="M126.566 281.701C123.101 279.668 119.738 277.635 116.273 275.601C116.375 276.415 116.477 277.33 116.579 278.143C119.432 280.278 122.286 282.514 125.139 284.649C125.75 285.056 127.381 285.767 127.483 284.547C127.483 284.344 127.483 284.141 127.483 283.836C127.381 283.124 127.075 282.108 126.566 281.701Z" fill="#495382"/>
<path d="M128.094 294.815C125.037 292.782 121.878 290.85 118.515 289.325C118.821 290.545 119.025 291.664 119.33 292.884C122.286 294.917 125.139 296.95 128.094 298.983C128.604 299.288 129.521 299.898 129.928 299.085C130.03 298.881 130.03 298.475 129.928 298.068C129.623 296.848 128.706 295.222 128.094 294.815Z" fill="#495382"/>
<path d="M150.106 335.988C150.106 336.191 150.106 336.496 150.208 336.699C150.615 337.207 151.43 336.801 151.94 336.394C163.251 325.313 170.69 310.776 175.378 295.628C177.824 287.699 179.454 279.668 180.677 271.433C181.289 267.265 181.798 262.995 182.206 258.827C182.41 256.692 182.613 254.558 182.817 252.524C182.919 251.813 183.734 247.848 182.206 248.153C181.798 248.255 181.492 248.661 181.289 248.966C163.455 274.585 152.653 304.879 150.106 335.988C150.106 335.886 150.106 335.988 150.106 335.988Z" fill="#3A3F57"/>
<path d="M157.035 322.162C157.239 322.568 157.85 322.67 158.258 322.365C158.666 322.06 158.768 321.552 158.869 321.145C161.621 310.979 164.678 300.813 168.143 290.85C169.875 285.869 171.709 280.888 173.646 276.008C174.563 273.568 175.582 271.128 176.601 268.688C177.008 267.773 178.231 265.944 178.129 264.927C177.926 262.69 176.193 263.91 175.582 265.13C170.69 273.67 167.531 282.921 164.372 292.274C161.111 301.931 158.666 311.792 157.035 321.755C157.035 321.857 157.035 321.857 157.035 321.958C157.035 321.958 157.035 322.06 157.035 322.162Z" fill="#495382"/>
<path d="M172.831 278.854C175.174 278.041 177.416 277.329 179.76 276.516C179.658 277.329 179.454 278.244 179.251 279.058C177.926 279.871 176.499 280.583 175.072 281.294C173.85 281.904 171.506 283.429 170.079 283.429C169.264 283.429 169.06 282.717 169.06 281.904C169.264 279.668 171.098 279.464 172.831 278.854Z" fill="#495382"/>
<path d="M165.697 295.018C169.366 293.494 173.034 291.969 176.703 290.545C176.499 291.359 176.295 292.172 175.99 293.087C172.831 294.815 169.671 296.543 166.614 298.272C166.003 298.678 164.271 299.085 164.271 297.763C164.271 297.56 164.271 297.357 164.372 297.052C164.678 296.238 165.086 295.222 165.697 295.018Z" fill="#495382"/>
<path d="M162.232 307.726C165.493 306.099 168.958 304.778 172.525 303.66C172.117 304.778 171.608 305.896 171.2 307.014C168.041 308.641 164.882 310.166 161.621 311.792C161.111 312.097 159.99 312.504 159.787 311.691C159.685 311.386 159.787 311.081 159.99 310.674C160.398 309.454 161.621 308.031 162.232 307.726Z" fill="#495382"/>
<path d="M113.522 285.056C115.764 276.516 117.292 267.977 118.413 259.234C118.515 258.522 117.394 258.522 117.394 259.234C116.375 267.265 114.948 275.195 113.012 283.124C111.484 274.483 109.242 265.944 106.388 257.506C106.184 256.896 105.165 257.099 105.369 257.811C108.936 268.18 111.484 278.753 113.012 289.529C110.566 285.666 107.509 282.209 103.841 279.363C103.331 278.956 102.516 279.668 103.127 280.074C107.407 283.327 110.77 287.394 113.318 292.172C113.929 297.255 114.337 302.236 114.541 307.319C114.541 308.031 115.662 308.031 115.56 307.319C115.254 299.898 114.541 292.579 113.318 285.259C113.42 285.259 113.522 285.157 113.522 285.056Z" fill="#645D33"/>
<path d="M105.063 250.491C99.2549 250.491 99.2549 259.437 105.063 259.437C110.872 259.437 110.872 250.491 105.063 250.491Z" fill="white"/>
<path d="M118.209 255.269C114.133 255.269 114.133 261.572 118.209 261.572C122.285 261.674 122.285 255.269 118.209 255.269Z" fill="white"/>
<path d="M103.127 277.126C99.3569 277.126 99.3569 282.921 103.127 282.921C106.796 282.921 106.796 277.126 103.127 277.126Z" fill="white"/>
<path d="M23.6417 285.157C23.0303 276.415 22.9284 267.672 23.4379 258.827C23.4379 258.116 24.5589 258.319 24.457 259.031C23.9474 267.163 24.0494 275.195 24.5589 283.327C27.616 275.093 31.2846 267.062 35.6665 259.336C35.9722 258.726 36.9913 259.234 36.5836 259.742C31.2846 269.298 26.9027 279.261 23.4379 289.63C26.4951 286.174 30.1636 283.429 34.2398 281.294C34.8513 280.989 35.4627 281.803 34.8513 282.209C30.0617 284.751 25.9855 288.106 22.6227 292.274C21.0941 297.153 19.7693 302.033 18.7503 307.014C18.6484 307.726 17.5274 307.523 17.7313 306.811C19.2598 299.593 21.3998 292.477 23.8455 285.564C23.6417 285.462 23.6417 285.361 23.6417 285.157Z" fill="#645D33"/>
<path d="M38.1123 252.728C43.819 253.744 42.1885 262.589 36.4819 261.572C30.7752 260.454 32.4057 251.711 38.1123 252.728Z" fill="white"/>
<path d="M24.3551 255.066C28.3294 255.777 27.2084 261.979 23.2341 261.267C19.2598 260.657 20.3808 254.354 24.3551 255.066Z" fill="white"/>
<path d="M35.2589 279.261C38.9275 279.973 37.9084 285.666 34.2399 284.954C30.5713 284.242 31.5903 278.549 35.2589 279.261Z" fill="white"/>
<path d="M94.7711 244.29C82.8482 272.856 74.1863 302.643 68.8873 333.039C68.7854 333.751 69.8044 333.954 69.9063 333.344C75.2054 302.846 83.9692 273.06 95.7901 244.595C96.0958 243.985 95.0768 243.68 94.7711 244.29Z" fill="#645D33"/>
<path d="M101.497 238.495C100.784 237.885 99.4588 237.275 99.0512 236.97C97.6245 236.259 96.096 235.852 94.4655 235.954C93.0388 235.954 93.7522 238.699 93.8541 239.715C93.956 241.545 94.0579 243.375 94.1598 245.205C94.1598 245.51 94.2617 245.916 94.5674 246.018C94.8731 246.12 95.0769 245.916 95.2807 245.713C97.4207 243.68 99.5607 241.748 101.701 239.715C101.803 239.614 102.006 239.41 102.006 239.207C102.006 239.004 101.803 238.699 101.497 238.495Z" fill="#645D33"/>
<path d="M118.821 235.039C116.375 234.022 113.42 233.921 110.566 234.226C114.745 232.091 120.044 228.024 116.681 224.161C114.948 222.23 111.891 223.145 109.853 223.958C108.019 224.771 106.388 225.889 105.064 227.313C107.204 222.433 109.14 215.012 103.026 214.605C99.8665 214.402 97.3189 217.248 96.096 219.891C94.8732 222.331 94.5674 225.076 94.9751 227.719C93.1408 224.771 91.5103 221.823 89.3703 219.18C87.9436 217.35 85.7017 216.13 83.4598 217.35C77.1417 220.603 83.0522 228.329 86.1094 231.379C90.8989 236.157 97.1151 239.614 103.637 241.443C107 242.358 110.465 242.968 113.929 243.07C116.477 243.172 119.534 243.172 121.063 240.833C122.591 238.495 121.063 236.055 118.821 235.039Z" fill="#C49953"/>
<path d="M99.3568 265.334C99.0511 264.927 98.6435 264.52 98.134 264.419C97.2168 264.114 96.1978 264.52 95.3825 265.029C93.6502 266.045 92.3254 267.57 91.0006 269.095C88.3511 272.247 86.0073 275.805 83.8673 279.261C83.0521 280.583 82.2368 282.006 81.5235 283.327C81.2178 283.836 79.1797 286.886 80.5044 287.089C80.8102 287.089 81.014 286.987 81.3197 286.886C87.0264 284.039 91.8159 279.668 95.8921 274.788C97.2168 273.161 98.5416 271.535 99.3568 269.603C99.7645 268.688 100.07 267.672 99.8664 266.655C99.8664 266.249 99.6625 265.74 99.3568 265.334Z" fill="#645D33"/>
<path d="M76.3264 301.626C76.3264 301.321 76.3264 300.915 76.2245 300.61C75.4093 296.543 74.6959 292.375 73.4731 288.41C72.8616 286.377 72.1483 284.446 71.0274 282.616C70.314 281.498 69.295 280.379 67.9702 280.481C66.034 280.583 65.5245 282.718 65.7283 284.242C66.034 286.377 66.7474 288.309 67.6645 290.24C69.6007 294.51 72.0464 298.577 75.0016 302.338C75.2055 302.643 75.5112 302.846 75.8169 302.846C75.9188 302.846 76.1226 302.745 76.1226 302.643C76.2245 302.338 76.3264 302.033 76.3264 301.626Z" fill="#645D33"/>
<path d="M145.214 256.591C145.214 256.489 145.214 256.286 145.112 256.184C144.909 255.981 144.705 256.083 144.399 256.083C143.38 256.387 142.259 256.794 141.342 257.302C140.425 257.709 138.998 258.522 140.017 259.641C141.24 260.861 142.361 262.081 143.584 263.3C143.788 263.504 144.093 263.809 144.399 263.707C144.807 263.605 145.01 263.097 145.01 262.69C145.316 260.759 145.418 258.726 145.214 256.591Z" fill="#645D33"/>
<path d="M149.29 246.12C149.494 243.273 149.8 238.597 146.743 236.97C144.399 235.75 142.361 237.682 141.546 239.817C140.73 242.053 140.629 244.493 140.73 246.831C140.323 245.815 139.813 244.798 139.202 243.782C138.489 242.46 137.062 239.715 135.024 240.63C133.189 241.443 133.903 244.087 134.209 245.51C134.616 247.035 135.126 248.458 135.839 249.881C133.903 248.051 131.559 246.425 129.317 246.628C126.26 246.831 127.279 249.678 128.4 251.406C131.661 256.286 138.692 262.995 144.705 257.607C147.864 254.863 148.985 249.983 149.29 246.12Z" fill="#C49953"/>
<path d="M144.705 262.284C144.501 261.674 143.584 261.979 143.686 262.69C150.921 289.732 153.571 317.892 151.431 345.849C151.329 346.56 152.45 346.662 152.45 346.052C154.692 317.892 152.042 289.529 144.705 262.284Z" fill="#645D33"/>
<path d="M149.392 286.479C149.392 286.377 149.392 286.377 149.392 286.276C149.087 284.751 148.271 283.327 147.354 282.108C146.437 280.888 145.214 279.871 144.093 278.854C142.361 277.33 140.527 275.906 138.387 275.296C137.775 275.093 137.062 274.991 136.349 275.195C134.107 275.805 135.024 278.143 136.043 279.363C139.202 283.226 143.584 285.971 148.475 287.191C148.781 287.292 149.189 287.292 149.392 287.089C149.494 286.886 149.494 286.682 149.392 286.479Z" fill="#645D33"/>
<path d="M161.723 282.006C161.621 281.904 161.519 281.904 161.417 281.904C160.5 281.599 159.379 281.904 158.666 282.514C157.85 283.124 157.341 283.938 156.831 284.852C153.876 290.24 152.144 296.34 151.532 302.338C151.532 302.846 151.532 303.456 152.042 303.558C152.347 303.66 152.653 303.355 152.857 303.151C155.405 300.305 157.748 297.153 159.888 293.9C161.213 291.765 162.538 289.427 163.149 286.987C163.353 286.072 163.557 285.056 163.251 284.039C162.946 283.226 162.436 282.413 161.723 282.006Z" fill="#645D33"/>
<path d="M152.959 326.228C152.348 325.008 151.634 323.89 150.921 322.772C148.373 318.909 145.724 315.147 142.972 311.589C141.648 309.861 140.323 308.234 138.794 306.811C138.081 306.099 137.266 305.388 136.247 305.286C133.903 304.879 133.393 307.319 134.209 308.946C138.081 316.469 144.807 322.365 152.042 326.838C152.246 326.94 152.45 327.041 152.653 327.041C152.857 327.041 153.163 326.94 153.163 326.736C153.061 326.533 153.061 326.431 152.959 326.228Z" fill="#645D33"/>
<path d="M167.735 246.526C161.315 280.074 157.443 314.131 156.22 348.288C156.22 349.305 157.749 349.305 157.85 348.288C159.073 314.232 162.844 280.379 169.264 246.933C169.468 245.916 167.939 245.51 167.735 246.526Z" fill="#68422D"/>
<path d="M165.086 269.4C165.086 269.298 164.984 269.197 164.984 269.095C162.538 264.114 159.481 259.539 155.812 255.371C155.608 255.167 155.405 254.862 155.099 254.862C153.774 254.659 155.099 258.217 155.303 258.827C155.812 260.352 156.526 261.877 157.341 263.199C159.073 265.943 161.417 268.383 164.27 270.01C164.474 270.112 164.576 270.213 164.78 270.213C165.187 270.213 165.187 269.807 165.086 269.4Z" fill="#68422D"/>
<path d="M175.48 265.029L175.378 265.13C172.423 267.468 169.773 270.213 167.532 273.161C166.411 274.686 165.392 276.313 164.474 277.939C164.169 278.549 161.825 282.514 163.048 282.616C163.353 282.616 163.659 282.514 163.863 282.311C168.958 278.956 172.932 274.076 175.174 268.383C175.48 267.57 175.786 266.655 176.092 265.74C176.193 265.435 176.295 264.927 175.888 264.724C175.786 264.825 175.684 264.927 175.48 265.029Z" fill="#68422D"/>
<path d="M193.109 216.435C189.95 210.335 182.104 215.927 177.518 220.603C177.62 220.4 177.62 220.196 177.722 220.095C179.047 216.74 180.473 213.487 181.696 210.132C182.409 208.302 182.919 206.167 181.187 204.744C179.352 203.321 175.888 203.219 173.646 203.016C172.015 202.914 170.181 203.016 169.468 204.744C168.448 207.082 169.366 210.945 169.671 213.385C169.977 216.232 170.487 218.976 170.996 221.823C168.958 217.756 166.512 213.385 163.149 210.437C159.99 207.692 156.933 209.827 154.691 212.673C151.838 216.333 152.857 218.773 156.118 221.518C159.175 224.059 162.64 225.889 166.41 227.008L160.806 226.906C158.36 226.906 155.812 226.601 153.367 226.906C149.8 227.516 149.494 230.159 150.208 233.209C151.023 236.462 152.857 239.918 156.831 239.003C159.277 238.495 161.315 236.665 163.251 235.242C165.289 233.819 167.328 232.396 169.366 230.972C166.41 234.734 163.659 238.8 161.825 243.172C159.99 247.441 163.149 249.373 166.818 250.898C169.773 252.118 173.849 252.016 175.072 248.56C175.888 246.221 175.378 243.172 175.276 240.63C175.174 237.987 175.072 235.344 174.869 232.701C177.212 235.954 179.862 238.902 182.919 241.443C185.467 243.578 188.422 244.798 190.562 241.443C192.294 238.699 193.313 235.242 190.256 233.107C186.893 230.667 182.409 229.142 178.231 227.923C182.613 227.719 186.995 226.804 191.071 225.076C195.148 223.246 194.842 219.891 193.109 216.435Z" fill="#C49953"/>
<path d="M176.091 219.688C175.684 219.586 175.276 219.485 174.868 219.383C173.238 219.18 171.506 219.586 170.079 220.4C164.984 223.449 165.493 231.786 171.506 233.514C174.461 234.327 177.926 232.904 179.352 230.261C180.066 228.837 180.371 227.211 180.269 225.686C180.167 224.364 179.862 222.941 179.047 221.925C178.333 220.806 177.212 220.095 176.091 219.688Z" fill="#FFC152"/>
<path d="M174.868 221.213C172.728 221.213 172.728 224.568 174.868 224.568C177.008 224.466 177.008 221.213 174.868 221.213Z" fill="#9F5D3A"/>
<path d="M170.487 224.059C168.754 224.059 168.754 226.703 170.487 226.703C172.219 226.703 172.219 224.059 170.487 224.059Z" fill="#9F5D3A"/>
<path d="M172.117 227.922C169.162 227.922 169.06 232.599 172.117 232.599C175.072 232.599 175.072 227.922 172.117 227.922Z" fill="#9F5D3A"/>
<path d="M177.518 224.161C175.378 224.161 175.378 227.516 177.518 227.516C179.658 227.516 179.658 224.161 177.518 224.161Z" fill="#9F5D3A"/>
<path d="M176.703 228.837C175.378 228.837 175.378 230.871 176.703 230.871C178.027 230.871 178.027 228.837 176.703 228.837Z" fill="#9F5D3A"/>
<path d="M199.529 235.649C199.326 235.039 198.307 235.242 198.51 235.954C203.911 254.659 206.765 273.975 206.867 293.392C206.867 294.103 207.886 294.103 207.886 293.392C207.784 273.771 204.93 254.354 199.529 235.649Z" fill="#645D33"/>
<path d="M196.065 224.364C196.065 224.364 195.963 224.364 196.065 224.364C195.963 224.161 195.759 224.059 195.657 224.161C195.555 224.161 195.453 224.364 195.453 224.466C194.842 228.838 195.657 233.209 198.816 236.564C198.918 236.665 199.122 236.767 199.224 236.665C199.326 236.665 199.326 236.564 199.326 236.462C200.141 232.192 198.918 227.719 196.065 224.364Z" fill="#645D33"/>
<path d="M194.027 243.883C193.823 243.782 193.619 243.782 193.619 243.883C193.517 243.985 193.517 244.188 193.619 244.29C195.453 248.356 198.408 251.609 202.892 252.626C203.096 252.626 203.3 252.626 203.3 252.524C203.3 252.423 203.3 252.321 203.3 252.321C201.669 248.356 198.205 245.205 194.027 243.883Z" fill="#645D33"/>
<path d="M196.676 258.217C196.574 258.217 196.574 258.217 196.676 258.217C196.472 258.217 196.37 258.116 196.268 258.217C196.167 258.319 196.268 258.421 196.268 258.624C198.103 262.284 200.956 265.13 205.134 265.944C205.236 265.944 205.44 265.944 205.542 265.842C205.542 265.74 205.542 265.74 205.542 265.639C203.809 261.979 200.447 259.234 196.676 258.217Z" fill="#645D33"/>
<path d="M197.899 273.975C197.899 273.975 197.797 273.975 197.899 273.975C197.695 273.873 197.593 273.873 197.491 273.975C197.389 274.076 197.491 274.28 197.491 274.381C199.326 278.244 202.383 281.193 206.765 282.006C206.969 282.006 207.172 282.006 207.172 281.904C207.172 281.802 207.172 281.802 207.172 281.701C205.44 277.939 201.873 274.991 197.899 273.975Z" fill="#645D33"/>
<path d="M202.892 251.914C202.892 252.016 202.892 252.118 202.994 252.118C203.096 252.219 203.3 252.118 203.402 252.016C206.765 248.865 207.682 244.493 207.07 240.02C207.07 239.919 206.968 239.715 206.867 239.715C206.765 239.715 206.663 239.817 206.561 239.918C206.561 239.918 206.561 239.919 206.459 240.02C203.606 243.07 202.179 247.645 202.892 251.914Z" fill="#645D33"/>
<path d="M205.338 265.13C205.338 265.232 205.338 265.232 205.44 265.334C205.542 265.435 205.746 265.334 205.847 265.232C209.21 262.69 210.637 258.827 210.637 254.659C210.637 254.558 210.637 254.354 210.535 254.354C210.433 254.354 210.331 254.354 210.229 254.456C210.229 254.456 210.229 254.456 210.127 254.558C206.968 257.201 205.134 261.165 205.338 265.13Z" fill="#645D33"/>
<path d="M207.172 281.396C207.172 281.498 207.172 281.498 207.274 281.599C207.376 281.701 207.58 281.599 207.682 281.498C210.841 279.159 212.064 275.601 212.064 271.84C212.064 271.738 212.064 271.535 211.962 271.535C211.86 271.535 211.758 271.535 211.656 271.636C211.656 271.636 211.656 271.636 211.554 271.738C208.701 274.076 207.07 277.736 207.172 281.396Z" fill="#645D33"/>
<path d="M198.409 258.929C198.307 258.217 197.288 258.522 197.389 259.234C203.402 287.394 205.644 316.367 204.013 345.137C204.013 345.849 205.032 345.849 205.032 345.137C206.663 316.164 204.421 287.19 198.409 258.929Z" fill="#68422D"/>
<path d="M207.274 254.659C209.414 253.236 207.478 250.186 206.663 248.458C204.115 243.07 199.224 247.136 197.084 250.999C197.084 249.881 197.084 248.763 196.982 247.645C196.88 246.526 196.88 245.103 196.269 244.188C195.25 242.562 192.702 243.07 191.173 243.578C189.441 244.087 187.709 245.51 188.014 247.543C188.218 248.356 188.728 248.966 189.339 249.576C190.154 250.491 191.071 251.406 191.989 252.321C190.154 251.914 188.014 251.711 186.486 252.321C184.346 253.134 184.855 256.286 184.957 258.116C185.161 263.199 189.747 260.86 192.906 258.726C191.479 260.047 189.951 261.369 189.747 263.402C189.543 265.435 191.071 266.655 192.804 267.163C194.74 267.773 196.676 267.773 197.491 265.638C198.103 264.114 198.205 262.385 198.103 260.555C199.937 264.012 202.587 267.367 205.644 263.605C206.867 262.08 208.191 259.844 206.561 258.116C205.848 257.302 204.625 256.896 203.606 256.591C202.485 256.184 201.466 255.879 200.345 255.574C201.67 255.472 202.892 255.371 204.217 255.269C205.236 255.167 206.357 255.167 207.274 254.659Z" fill="#C49953"/>
<path d="M199.632 254.659C199.53 254.151 199.224 253.744 198.918 253.338C198.511 252.931 197.899 252.626 197.39 252.524C196.472 252.321 195.453 252.423 194.638 252.931C192.702 254.151 192.906 256.997 194.842 258.217C195.759 258.827 197.084 258.827 198.103 258.319C199.122 257.811 199.835 256.794 199.835 255.574C199.733 255.269 199.733 254.964 199.632 254.659Z" fill="#9F5D3A"/>
<path d="M63.894 305.388C59.9197 268.688 54.2131 232.091 46.774 195.9C46.5702 194.883 45.0417 195.29 45.2455 196.306C52.6845 232.396 58.3912 268.79 62.2636 305.388C62.4674 306.404 63.9959 306.404 63.894 305.388Z" fill="#645D33"/>
<path d="M66.0342 225.584C65.8304 225.584 65.6266 225.686 65.4228 225.788C62.1618 227.211 59.4104 229.651 57.4742 232.701C56.7609 233.717 52.7866 241.545 54.519 241.952C54.9266 242.053 55.3342 241.85 55.6399 241.748C61.6523 239.105 66.0342 233.311 67.0532 226.804C67.0532 226.499 67.1551 226.194 66.9513 225.889C66.7475 225.584 66.4418 225.584 66.0342 225.584Z" fill="#645D33"/>
<path d="M69.9064 270.823C69.7026 270.925 69.4988 271.027 69.295 271.128C66.3398 273.06 63.9959 276.008 62.5693 279.261C62.0598 280.379 59.3083 288.715 61.1426 288.919C61.5502 288.919 61.9578 288.715 62.2636 288.512C67.7664 284.954 71.1293 278.448 71.0274 271.942C71.0274 271.637 71.0274 271.332 70.8236 271.027C70.6198 270.62 70.2121 270.62 69.9064 270.823Z" fill="#645D33"/>
<path d="M45.7551 256.794C45.5513 257.099 45.6532 257.404 45.6532 257.709C46.9779 264.114 51.6655 269.705 57.6779 272.145C58.0855 272.246 58.4932 272.45 58.7989 272.348C60.5312 271.84 56.2512 264.215 55.436 263.199C53.296 260.352 50.4427 258.014 47.1817 256.692C46.9779 256.591 46.7741 256.591 46.5703 256.489C46.3665 256.387 45.9589 256.489 45.7551 256.794Z" fill="#645D33"/>
<path d="M45.4494 285.056C45.3475 285.361 45.4494 285.666 45.6532 285.971C48.6084 291.765 54.7227 295.933 61.1427 296.543C61.5504 296.543 61.958 296.645 62.3656 296.442C63.8942 295.527 57.678 289.325 56.6589 288.614C53.9075 286.377 50.4427 284.954 46.8761 284.547C46.6723 284.547 46.4685 284.547 46.2646 284.547C45.857 284.547 45.5513 284.751 45.4494 285.056Z" fill="#645D33"/>
<path d="M63.1807 184.31C62.6712 184.107 62.0598 184.005 61.6521 183.802C62.0598 183.599 62.4674 183.395 62.6712 182.989C63.3845 181.87 62.7731 180.752 61.6521 180.142C60.0217 179.227 57.2702 179.329 55.5379 179.431C54.8245 179.431 54.1112 179.532 53.3979 179.634C54.2131 179.126 54.9264 178.617 55.6398 178.007C56.7607 177.092 58.7988 174.957 56.7607 173.738C56.5569 173.636 56.2512 173.534 55.9455 173.534C54.7226 173.433 54.8245 173.534 55.2321 172.314C55.436 171.501 55.8436 170.891 55.2321 170.078C54.8245 169.569 54.2131 169.468 53.6017 169.468C52.8883 169.569 52.175 170.383 51.5636 170.688C51.4617 170.789 51.2579 170.891 51.156 170.891C50.3407 170.891 50.8502 169.569 50.8502 169.163C50.8502 168.451 50.7483 167.841 50.2388 167.231C49.4236 166.316 48.0988 166.011 46.9779 166.418C45.4493 167.028 44.4302 168.655 43.615 169.976C43.0036 170.993 42.3921 172.111 41.9845 173.229C41.8826 171.094 41.6788 168.96 41.2712 166.825C40.8636 165.096 39.9464 163.267 38.0102 162.86C37.195 162.657 36.4817 162.758 35.7683 163.165C34.9531 163.673 34.7493 164.69 34.036 165.3C32.7112 166.418 30.5712 165.401 29.5522 166.825C29.2464 167.333 29.1445 167.943 29.1445 168.553C29.1445 168.858 29.4502 169.468 29.4502 169.874C29.1445 171.806 28.1255 171.094 27.1064 171.196C25.5779 171.298 24.4569 172.111 24.4569 173.636C24.355 175.771 26.5969 177.194 28.2274 178.109C29.6541 178.922 31.0807 179.634 32.6093 180.244C30.4693 180.142 28.3293 180.142 26.1893 180.142C24.355 180.142 22.215 180.345 21.196 182.175C20.5845 183.294 20.6864 184.717 21.7055 185.632C22.3169 186.14 23.1322 186.038 23.2341 186.953C23.4379 187.868 22.8264 187.767 22.4188 188.377C22.0112 188.885 21.8074 189.495 22.0112 190.207C22.1131 190.613 22.5207 191.02 22.9283 191.223C23.6417 191.63 25.0683 191.02 24.8645 191.935C24.7626 192.646 23.9474 192.85 23.9474 193.765C23.9474 194.375 24.355 194.985 24.7626 195.29C26.2912 196.509 28.5331 195.493 30.0617 194.781C30.5712 194.578 31.0807 194.273 31.5902 194.07C30.1636 196.103 29.2464 198.441 29.1445 200.983C29.0426 202.507 29.3483 204.337 30.9788 204.744C31.6922 204.947 32.0998 204.642 32.8131 204.439C33.4245 204.236 34.2398 203.422 35.055 204.032C34.9531 203.931 35.6664 205.456 35.5645 205.456C36.176 206.371 37.2969 206.777 38.2141 205.964C39.0293 205.151 38.316 204.337 39.9464 204.642C40.6598 204.744 40.7617 205.252 41.5769 205.049C43.4112 204.744 43.5131 202.507 43.7169 200.983C43.8188 199.966 43.8188 199.051 43.8188 198.034C44.5321 199.763 45.6531 201.288 47.0798 202.406C47.7931 203.016 49.016 203.321 49.9331 203.117C51.3598 202.812 51.2579 201.694 51.4617 200.474C51.4617 200.271 51.5636 199.254 51.9712 199.458C52.0731 199.458 52.0731 199.559 52.175 199.559C52.5826 199.966 52.8883 200.474 53.4998 200.576C54.6207 200.779 54.9264 200.169 55.2321 199.254C55.436 198.644 55.5379 198.034 56.2512 197.831C57.0664 197.526 57.7798 198.034 58.4931 197.323C59.716 196.103 58.7988 194.476 57.8817 193.561C57.2702 192.951 56.6588 192.443 56.0474 191.935C56.9645 192.138 57.9836 192.341 58.9007 192.341C60.2255 192.341 61.9579 192.138 62.5693 190.715C63.2826 189.088 61.7541 187.868 60.3274 187.563C61.2445 187.462 62.3655 187.258 63.2826 187.055C63.996 186.852 64.6074 186.445 64.6074 185.632C64.4036 184.92 63.7921 184.615 63.1807 184.31Z" fill="#C49953"/>
<path d="M51.2577 185.327C51.3596 183.599 50.2386 182.277 48.7101 181.972C48.9139 180.549 48.5063 179.024 47.2834 178.109C45.8567 177.092 43.9205 177.194 42.5958 178.211C41.1691 177.296 39.3348 176.584 37.6025 177.601C36.5834 178.211 36.1758 179.329 36.3796 180.345C35.4625 180.345 34.6472 180.752 34.1377 181.565C33.4244 182.684 33.6282 184.005 34.3415 184.92C33.3225 185.733 33.0167 187.36 33.7301 188.58C34.3415 189.597 35.2586 190.105 36.2777 190.207C35.972 191.325 36.2777 192.646 37.3986 193.46C39.2329 194.68 41.3729 193.968 42.6977 192.443C43.9205 193.256 45.4491 193.358 46.672 192.646C48.0986 191.731 48.7101 190.003 48.4044 188.478C49.831 188.072 51.1558 186.852 51.2577 185.327Z" fill="#FFC152"/>
<path d="M43.4112 181.26C42.2903 181.057 40.9655 181.362 40.0484 181.87C38.4179 182.887 37.7046 185.022 38.4179 186.852C39.1312 188.58 41.1693 189.698 43.0036 189.292C44.8379 188.885 46.3665 187.157 46.3665 185.225C46.3665 183.802 45.6531 182.48 44.5322 181.667C44.2265 181.464 43.8188 181.362 43.4112 181.26Z" fill="#9F5D3A"/>
<path d="M163.251 58.353C163.251 58.2514 163.251 58.1497 163.149 58.1497C161.723 57.7431 160.296 57.3364 158.869 56.9298C159.481 56.4215 159.99 55.9132 160.602 55.4049C160.806 55.2015 160.5 54.8966 160.296 55.0999C159.685 55.6082 159.073 56.2181 158.462 56.7264C158.258 55.3032 158.156 53.88 157.952 52.4567C157.952 52.355 157.85 52.2534 157.749 52.2534C157.647 52.1517 157.443 52.1517 157.443 52.3551C157.137 53.88 156.831 55.4049 156.628 56.8281C156.118 56.2181 155.609 55.6082 154.997 54.9982C154.793 54.7949 154.488 55.0999 154.691 55.3032C155.201 55.9132 155.71 56.4215 156.22 57.0314C154.793 57.2347 153.265 57.4381 151.838 57.6414C151.634 57.6414 151.634 57.8447 151.736 57.9464C151.736 58.048 151.736 58.1497 151.838 58.1497C153.367 58.5563 154.895 58.8613 156.424 59.268C156.016 59.8779 155.609 60.3862 155.201 60.9962C154.997 61.1995 155.405 61.4028 155.609 61.1995C156.016 60.6912 156.424 60.0812 156.729 59.5729L157.545 63.3344V63.436C157.647 63.6394 158.054 63.5377 157.952 63.3344L158.869 59.7763C159.277 60.2846 159.685 60.6912 159.99 61.1995C160.194 61.4028 160.5 61.0978 160.296 60.8945C159.889 60.3862 159.379 59.7763 158.971 59.268C160.398 59.0646 161.723 58.8613 163.149 58.5563C163.251 58.658 163.251 58.4547 163.251 58.353Z" fill="#C1A073"/>
<path d="M76.9381 107.862C76.9381 107.76 76.9381 107.658 76.8362 107.658C75.4096 107.252 73.9829 106.845 72.5562 106.438C73.1676 105.93 73.6772 105.422 74.2886 104.913C74.4924 104.71 74.1867 104.405 73.9829 104.608C73.3715 105.117 72.76 105.727 72.1486 106.235C71.9448 104.812 71.8429 103.389 71.6391 101.965C71.6391 101.864 71.5372 101.762 71.4353 101.762C71.3334 101.66 71.1296 101.66 71.1296 101.864C70.8238 103.389 70.5181 104.913 70.3143 106.337C69.8048 105.727 69.2953 105.117 68.6838 104.507C68.48 104.304 68.1743 104.608 68.3781 104.812C68.8877 105.422 69.3972 105.93 69.9067 106.54C68.48 106.743 66.9515 106.947 65.5248 107.15C65.321 107.15 65.321 107.353 65.4229 107.455C65.4229 107.557 65.4229 107.658 65.5248 107.658C67.0534 108.065 68.5819 108.37 70.1105 108.777C69.7029 109.387 69.2953 109.895 68.8877 110.505C68.6838 110.708 69.0915 110.911 69.2953 110.708C69.7029 110.2 70.1105 109.59 70.4162 109.082L71.2315 112.843V112.945C71.3334 113.148 71.741 113.046 71.6391 112.843L72.5562 109.285C72.9638 109.793 73.3715 110.2 73.6772 110.708C73.881 110.911 74.1867 110.606 73.9829 110.403C73.5753 109.895 73.0658 109.285 72.6581 108.777C74.0848 108.573 75.4096 108.37 76.8362 108.065C76.9381 108.167 76.9381 107.963 76.9381 107.862Z" fill="#C1A073"/>
<path d="M184.753 125.347C184.753 125.246 184.753 125.144 184.651 125.144C183.225 124.737 181.798 124.331 180.371 123.924C180.983 123.416 181.492 122.907 182.104 122.399C182.308 122.196 182.002 121.891 181.798 122.094C181.187 122.602 180.575 123.212 179.964 123.721C179.76 122.297 179.658 120.874 179.454 119.451C179.454 119.349 179.352 119.248 179.25 119.248C179.149 119.146 178.945 119.146 178.945 119.349C178.639 120.874 178.333 122.399 178.13 123.822C177.62 123.212 177.11 122.602 176.499 121.992C176.295 121.789 175.99 122.094 176.193 122.297C176.703 122.907 177.212 123.416 177.722 124.026C176.295 124.229 174.767 124.432 173.34 124.636C173.136 124.636 173.136 124.839 173.238 124.941C173.238 125.042 173.238 125.144 173.34 125.144C174.869 125.551 176.397 125.856 177.926 126.262C177.518 126.872 177.11 127.38 176.703 127.99C176.499 128.194 176.907 128.397 177.11 128.194C177.518 127.685 177.926 127.075 178.231 126.567L179.047 130.329V130.43C179.149 130.634 179.556 130.532 179.454 130.329L180.371 126.77C180.779 127.279 181.187 127.685 181.492 128.194C181.696 128.397 182.002 128.092 181.798 127.889C181.39 127.38 180.881 126.77 180.473 126.262C181.9 126.059 183.225 125.856 184.651 125.551C184.753 125.551 184.753 125.449 184.753 125.347Z" fill="#C1A073"/>
<path d="M107.102 173.128C107.102 173.026 107.102 172.924 107 172.924C105.573 172.518 104.147 172.111 102.72 171.704C103.331 171.196 103.841 170.688 104.452 170.179C104.656 169.976 104.351 169.671 104.147 169.875C103.535 170.383 102.924 170.993 102.312 171.501C102.109 170.078 102.007 168.655 101.803 167.231C101.803 167.13 101.701 167.028 101.599 167.028C101.497 166.926 101.293 166.926 101.293 167.13C100.988 168.655 100.682 170.179 100.478 171.603C99.9686 170.993 99.4591 170.383 98.8477 169.773C98.6439 169.57 98.3381 169.875 98.5419 170.078C99.0515 170.688 99.561 171.196 100.071 171.806C98.6439 172.009 97.1153 172.213 95.6886 172.416C95.4848 172.416 95.4848 172.619 95.5867 172.721C95.5867 172.823 95.5867 172.924 95.6886 172.924C97.2172 173.331 98.7458 173.636 100.274 174.043C99.8667 174.653 99.4591 175.161 99.0515 175.771C98.8477 175.974 99.2553 176.177 99.4591 175.974C99.8667 175.466 100.274 174.856 100.58 174.348L101.395 178.109V178.211C101.497 178.414 101.905 178.312 101.803 178.109L102.72 174.551C103.128 175.059 103.535 175.466 103.841 175.974C104.045 176.177 104.351 175.872 104.147 175.669C103.739 175.161 103.23 174.551 102.822 174.043C104.249 173.839 105.573 173.636 107 173.331C107.102 173.433 107.102 173.229 107.102 173.128Z" fill="#C1A073"/>
<path d="M113.114 20.2304C111.586 20.4338 109.955 20.7387 108.427 20.9421C108.121 19.9255 107.713 18.8072 107.408 17.7906C107.408 17.6889 107.306 17.6889 107.306 17.6889C107.204 17.4856 107 17.4856 106.898 17.6889C106.389 18.6039 105.879 19.6205 105.37 20.5354H101.192H101.09C100.988 20.6371 100.886 20.7387 100.988 20.9421L104.249 23.8902C103.332 25.2118 102.516 26.635 101.599 27.9566C101.497 28.0583 101.599 28.2616 101.701 28.2616C101.803 28.3633 101.905 28.4649 102.007 28.3633C103.739 27.1433 105.573 25.9234 107.306 24.8052C108.121 25.8218 109.242 26.7367 110.363 27.4483C110.771 27.7533 111.586 28.2616 111.382 27.3467C110.974 25.9234 110.363 24.5002 109.752 23.1786C110.974 22.3653 112.197 21.552 113.318 20.6371C113.522 20.5354 113.42 20.2304 113.114 20.2304Z" fill="#C1A073"/>
<path d="M119.126 132.463C116.885 132.768 114.541 133.175 112.299 133.48C111.789 131.955 111.382 130.43 110.872 128.905C110.872 128.804 110.77 128.702 110.668 128.702C110.566 128.499 110.159 128.295 110.057 128.6C109.344 130.024 108.63 131.447 107.917 132.768H101.803C101.701 132.768 101.701 132.768 101.599 132.768C101.395 132.87 101.191 133.175 101.497 133.277L106.286 137.546C105.064 139.478 103.739 141.511 102.516 143.443C102.414 143.646 102.516 143.849 102.618 143.951C102.72 144.154 102.924 144.256 103.127 144.154C105.675 142.426 108.223 140.698 110.77 138.868C111.993 140.291 113.624 141.715 115.152 142.731C115.764 143.138 116.986 143.951 116.579 142.629C115.967 140.596 115.152 138.461 114.235 136.53C115.967 135.31 117.7 134.09 119.432 132.87C119.432 132.87 119.432 132.87 119.534 132.768C119.636 132.972 119.534 132.463 119.126 132.463Z" fill="#C1A073"/>
<path d="M170.69 77.1602C168.754 77.4652 166.92 77.7702 164.984 77.9735C164.576 76.7535 164.168 75.432 163.761 74.212C163.761 74.1104 163.659 74.1104 163.659 74.0087C163.557 73.8054 163.251 73.7037 163.149 73.9071C162.538 75.0253 161.927 76.2452 161.315 77.3635H156.22C156.118 77.3635 156.118 77.3635 156.118 77.3635C155.914 77.4652 155.812 77.6685 156.016 77.8718L159.99 81.4299C158.971 83.0565 157.85 84.6831 156.831 86.3096C156.729 86.5129 156.831 86.6146 156.933 86.7163C157.035 86.8179 157.137 86.9196 157.341 86.8179C159.481 85.3947 161.621 83.8698 163.761 82.4465C164.78 83.6665 166.105 84.7847 167.429 85.6997C167.939 86.0046 168.958 86.7163 168.652 85.598C168.143 83.8698 167.429 82.1415 166.716 80.515C168.143 79.4984 169.569 78.4818 171.098 77.4652C171.098 77.4652 171.098 77.4652 171.2 77.3635C171.2 77.5668 170.996 77.0585 170.69 77.1602Z" fill="#C1A073"/>
<path d="M113.726 87.9362C111.79 88.2412 109.955 88.5462 108.019 88.7495C107.612 87.5296 107.204 86.208 106.796 84.9881C106.796 84.8864 106.694 84.8864 106.694 84.7848C106.592 84.5814 106.287 84.4798 106.185 84.6831C105.573 85.8014 104.962 87.0213 104.351 88.1395H99.2553C99.1534 88.1395 99.1534 88.1395 99.1534 88.1395C98.9496 88.2412 98.8477 88.4445 99.0515 88.6478L103.026 92.206C102.007 93.8325 100.886 95.4591 99.8668 97.0857C99.7649 97.289 99.8668 97.3906 99.9687 97.4923C100.071 97.594 100.172 97.6956 100.376 97.594C102.516 96.1707 104.656 94.6458 106.796 93.2226C107.815 94.4425 109.14 95.5608 110.465 96.4757C110.974 96.7807 111.993 97.4923 111.688 96.374C111.178 94.6458 110.465 92.9176 109.752 91.291C111.178 90.2744 112.605 89.2578 114.133 88.2412C114.133 88.2412 114.133 88.2412 114.235 88.1395C114.235 88.3429 114.032 87.8346 113.726 87.9362Z" fill="#C1A073"/>
<path d="M162.232 109.285C160.194 109.082 158.258 108.777 156.22 108.573C155.405 106.032 154.488 103.49 153.672 100.949C153.672 100.847 153.571 100.847 153.571 100.745C153.469 100.542 153.061 100.542 152.959 100.847L150.513 109.183C148.475 109.793 146.335 110.301 144.195 110.606C144.093 110.606 144.093 110.606 143.992 110.606C143.584 110.708 143.584 111.318 143.992 111.318H144.093C145.928 111.826 147.66 112.335 149.494 112.741C148.883 115.08 148.271 117.418 147.66 119.756C147.558 120.163 148.068 120.366 148.271 120.061C148.373 120.061 148.373 120.061 148.475 119.959C150.106 117.926 151.838 115.791 153.469 113.758C155.201 115.384 157.035 117.113 158.768 118.739C159.073 119.044 159.481 118.638 159.379 118.333C159.379 118.231 159.379 118.231 159.379 118.129C158.462 115.994 157.647 113.86 156.73 111.725C158.564 111.115 160.5 110.606 162.334 109.996C162.436 109.996 162.538 109.895 162.538 109.793C162.64 109.692 162.538 109.387 162.232 109.285Z" fill="#C1A073"/>
<path fill-rule="evenodd" clip-rule="evenodd" d="M90.899 36.3944C88.657 36.3944 88.657 39.8509 90.899 39.8509C93.1409 39.8509 93.1409 36.3944 90.899 36.3944Z" fill="#C1A073"/>
<path fill-rule="evenodd" clip-rule="evenodd" d="M115.662 6.81125C113.42 6.81125 113.42 10.2677 115.662 10.2677C117.904 10.2677 117.904 6.81125 115.662 6.81125Z" fill="#C1A073"/>
<path fill-rule="evenodd" clip-rule="evenodd" d="M122.184 37.3094C119.942 37.3094 119.942 40.7658 122.184 40.7658C124.426 40.7658 124.426 37.3094 122.184 37.3094Z" fill="#C1A073"/>
<path fill-rule="evenodd" clip-rule="evenodd" d="M80.8106 70.4507C78.5687 70.4507 78.5687 73.9071 80.8106 73.9071C83.0525 73.9071 83.0525 70.4507 80.8106 70.4507Z" fill="#C1A073"/>
<path fill-rule="evenodd" clip-rule="evenodd" d="M130.744 65.6726C128.502 65.6726 128.502 69.129 130.744 69.129C132.986 69.129 132.986 65.6726 130.744 65.6726Z" fill="#C1A073"/>
<path fill-rule="evenodd" clip-rule="evenodd" d="M15.9991 40.4608C13.7572 40.4608 13.7572 43.9173 15.9991 43.9173C18.241 43.9173 18.241 40.4608 15.9991 40.4608Z" fill="#C1A073"/>
<path fill-rule="evenodd" clip-rule="evenodd" d="M56.3533 31.1081C54.1114 31.1081 54.1114 34.5645 56.3533 34.5645C58.5952 34.5645 58.5952 31.1081 56.3533 31.1081Z" fill="#C1A073"/>
<path fill-rule="evenodd" clip-rule="evenodd" d="M43.7173 77.0586C41.4754 77.0586 41.4754 80.515 43.7173 80.515C45.9592 80.515 45.9592 77.0586 43.7173 77.0586Z" fill="#C1A073"/>
<path fill-rule="evenodd" clip-rule="evenodd" d="M89.1665 82.6499C86.9246 82.6499 86.9246 86.1063 89.1665 86.1063C91.4084 86.1063 91.4084 82.6499 89.1665 82.6499Z" fill="#C1A073"/>
<path fill-rule="evenodd" clip-rule="evenodd" d="M173.034 106.743C170.792 106.743 170.792 110.2 173.034 110.2C175.276 110.2 175.276 106.743 173.034 106.743Z" fill="#C1A073"/>
<path fill-rule="evenodd" clip-rule="evenodd" d="M192.091 123.111C189.849 123.111 189.849 126.567 192.091 126.567C194.333 126.567 194.333 123.111 192.091 123.111Z" fill="#C1A073"/>
<path fill-rule="evenodd" clip-rule="evenodd" d="M167.939 128.804C165.697 128.804 165.697 132.26 167.939 132.26C170.181 132.26 170.181 128.804 167.939 128.804Z" fill="#C1A073"/>
<path fill-rule="evenodd" clip-rule="evenodd" d="M142.157 95.6624C139.915 95.6624 139.915 99.1188 142.157 99.1188C144.399 99.1188 144.399 95.6624 142.157 95.6624Z" fill="#C1A073"/>
<path fill-rule="evenodd" clip-rule="evenodd" d="M45.4495 140.291C43.2076 140.291 43.2076 143.748 45.4495 143.748C47.6914 143.748 47.6914 140.291 45.4495 140.291Z" fill="#C1A073"/>
<path fill-rule="evenodd" clip-rule="evenodd" d="M133.597 115.588C131.355 115.588 131.355 119.044 133.597 119.044C135.839 119.044 135.839 115.588 133.597 115.588Z" fill="#C1A073"/>
<path fill-rule="evenodd" clip-rule="evenodd" d="M193.823 136.428C191.581 136.428 191.581 139.885 193.823 139.885C195.963 139.885 196.065 136.428 193.823 136.428Z" fill="#C1A073"/>
<path fill-rule="evenodd" clip-rule="evenodd" d="M111.382 45.0356C109.14 45.0356 109.14 48.492 111.382 48.492C113.624 48.492 113.624 45.0356 111.382 45.0356Z" fill="#C1A073"/>
<path fill-rule="evenodd" clip-rule="evenodd" d="M114.133 108.777C111.891 108.777 111.891 112.233 114.133 112.233C116.273 112.233 116.273 108.777 114.133 108.777Z" fill="#C1A073"/>
<path fill-rule="evenodd" clip-rule="evenodd" d="M15.9991 95.6624C13.7572 95.6624 13.7572 99.1188 15.9991 99.1188C18.241 99.1188 18.241 95.6624 15.9991 95.6624Z" fill="#C1A073"/>
<path fill-rule="evenodd" clip-rule="evenodd" d="M132.374 130.532C130.132 130.532 130.132 133.988 132.374 133.988C134.616 133.988 134.616 130.532 132.374 130.532Z" fill="#C1A073"/>
<path fill-rule="evenodd" clip-rule="evenodd" d="M92.8352 156.15C90.5933 156.15 90.5933 159.607 92.8352 159.607C95.0771 159.607 95.0771 156.15 92.8352 156.15Z" fill="#C1A073"/>
<path fill-rule="evenodd" clip-rule="evenodd" d="M23.7439 6.81125C21.502 6.81125 21.502 10.2677 23.7439 10.2677C25.9858 10.2677 25.9858 6.81125 23.7439 6.81125Z" fill="#C1A073"/>
<path fill-rule="evenodd" clip-rule="evenodd" d="M85.804 140.291C83.5621 140.291 83.5621 143.748 85.804 143.748C88.0459 143.748 88.0459 140.291 85.804 140.291Z" fill="#C1A073"/>
<path fill-rule="evenodd" clip-rule="evenodd" d="M75.7151 123.924C73.4732 123.924 73.4732 127.38 75.7151 127.38C77.957 127.38 77.957 123.924 75.7151 123.924Z" fill="#C1A073"/>
<path fill-rule="evenodd" clip-rule="evenodd" d="M85.804 117.418C83.5621 117.418 83.5621 120.874 85.804 120.874C88.0459 120.874 88.0459 117.418 85.804 117.418Z" fill="#C1A073"/>
<path fill-rule="evenodd" clip-rule="evenodd" d="M56.3533 114.165C54.1114 114.165 54.1114 117.621 56.3533 117.621C58.5952 117.621 58.5952 114.165 56.3533 114.165Z" fill="#C1A073"/>
<path d="M141.728 179.094C149.089 179.094 155.056 173.144 155.056 165.805C155.056 158.467 149.089 152.517 141.728 152.517C134.367 152.517 128.4 158.467 128.4 165.805C128.4 173.144 134.367 179.094 141.728 179.094Z" stroke="white" stroke-miterlimit="10"/>
<path d="M183.944 176.693C191.305 176.693 197.272 170.743 197.272 163.404C197.272 156.065 191.305 150.116 183.944 150.116C176.583 150.116 170.615 156.065 170.615 163.404C170.615 170.743 176.583 176.693 183.944 176.693Z" stroke="white" stroke-miterlimit="10"/>
<path d="M155.042 165.805L170.955 164.892" stroke="white" stroke-miterlimit="10"/>
</g>
<defs>
<clipPath id="clip0">
<rect width="214" height="349" fill="white"/>
</clipPath>
</defs>
</svg>
