<svg width="139" height="150" viewBox="0 0 139 150" fill="none" xmlns="http://www.w3.org/2000/svg">
<path d="M78.8207 149.998C112.057 149.998 139 123.045 139 89.7981C139 56.5507 112.057 29.5984 78.8207 29.5984C45.5846 29.5984 18.6414 56.5507 18.6414 89.7981C18.6414 123.045 45.5846 149.998 78.8207 149.998Z" fill="#C1A073"/>
<path d="M139 90.4904L116.252 75.5007L64.5583 127.242L75.4809 149.907C76.5942 149.968 77.7075 149.998 78.8209 149.998C111.829 149.998 138.609 123.42 139 90.4904Z" fill="#D8C19E"/>
<path d="M64.5583 127.242L75.6013 124.413L78.8208 89.7981L64.5583 127.242Z" fill="white"/>
<path d="M78.8209 89.798L75.6013 124.413L78.8209 127.242V89.798Z" fill="#E6E7E8"/>
<path d="M93.1134 127.242L82.0705 124.413L78.8208 89.798L93.1134 127.242Z" fill="#E6E7E8"/>
<path d="M78.8208 89.798L82.0705 124.413L78.8208 127.242V89.798Z" fill="white"/>
<path d="M81.168 114.901L82.0707 124.413L93.1136 127.242L86.2832 109.303L81.168 114.901Z" fill="#E6E7E8"/>
<path d="M89.5628 117.911L87.4264 112.283C85.4405 113.035 81.1076 113.758 81.1076 113.758L78.8508 114.781L76.6242 113.788C76.6242 113.788 72.2913 113.065 70.2753 112.313L68.1389 117.941C70.6364 118.905 76.0525 119.778 76.0525 119.778L78.8508 120.801L81.6492 119.778C81.6191 119.778 87.0653 118.875 89.5628 117.911Z" fill="#FFC152"/>
<path d="M85.2601 106.654L83.1237 101.025C82.1308 101.417 79.9643 101.778 79.9643 101.778L78.851 102.44L77.7076 101.778C77.7076 101.778 75.5712 101.417 74.5783 101.025L72.4419 106.654C73.9464 107.226 77.1961 107.768 77.1961 107.768L78.8811 108.761L80.5661 107.768C80.5059 107.768 83.7556 107.256 85.2601 106.654Z" fill="#FFC152"/>
<path d="M76.6846 95.4267C77.3465 95.6675 78.0687 95.818 78.8209 95.818C79.5732 95.818 80.2953 95.6675 80.9573 95.4267L78.8209 89.798L76.6846 95.4267Z" fill="#FFC152"/>
<path d="M95.1896 126.369L100.997 116.556L78.8208 89.7973L95.1896 126.369Z" fill="white"/>
<path d="M78.8208 89.7973L100.997 116.556L105.3 116.285L78.8208 89.7973Z" fill="#E6E7E8"/>
<path d="M115.38 106.172L105.601 111.981L78.8208 89.7973L115.38 106.172Z" fill="#E6E7E8"/>
<path d="M78.8208 89.7973L105.601 111.981L105.3 116.285L78.8208 89.7973Z" fill="white"/>
<path d="M98.2287 105.902L105.601 111.982L115.38 106.172L97.8977 98.3465L98.2287 105.902Z" fill="#E6E7E8"/>
<path d="M106.293 102.109L100.786 99.6408C99.9137 101.597 97.3561 105.149 97.3561 105.149L96.4835 107.467L94.1967 108.34C94.1967 108.34 90.616 110.898 88.6602 111.771L91.1275 117.279C93.5648 116.196 98.0481 112.975 98.0481 112.975L100.756 111.711L102.02 109.002C101.99 109.002 105.209 104.547 106.293 102.109Z" fill="#FFC152"/>
<path d="M95.3097 97.1726L89.8334 94.7043C89.3821 95.6675 88.1183 97.4736 88.1183 97.4736L87.7873 98.7378L86.5236 99.0689C86.5236 99.0689 84.7483 100.333 83.7854 100.785L86.2528 106.263C87.7271 105.601 90.4051 103.704 90.4051 103.704L92.3008 103.193L92.7822 101.296C92.722 101.326 94.6478 98.6475 95.3097 97.1726Z" fill="#FFC152"/>
<path d="M81.2874 95.2764C81.9493 94.9754 82.5511 94.5841 83.0927 94.0422C83.6343 93.5004 84.0255 92.8984 84.3264 92.2362L78.8501 89.7679L81.2874 95.2764Z" fill="#FFC152"/>
<path d="M116.253 75.5308L113.424 86.5474L78.8213 89.7982L116.253 75.5308Z" fill="white"/>
<path d="M78.8208 89.7981L113.424 86.5474L116.252 89.7981H78.8208Z" fill="#E6E7E8"/>
<path d="M116.252 104.065L113.424 93.0187L78.8208 89.798L116.252 104.065Z" fill="#E6E7E8"/>
<path d="M78.8208 89.798L113.424 93.0192L116.252 89.798H78.8208Z" fill="white"/>
<path d="M103.915 92.1459L113.424 93.0188L116.252 104.065L98.3489 97.2328L103.915 92.1459Z" fill="#E6E7E8"/>
<path d="M106.955 100.514L101.328 98.3766C102.08 96.39 102.802 92.0556 102.802 92.0556L103.825 89.7982L102.832 87.5708C102.832 87.5708 102.11 83.2364 101.358 81.2197L106.985 79.0826C107.948 81.5809 108.82 86.9989 108.82 86.9989L109.843 89.7982L108.82 92.5974C108.79 92.5974 107.887 98.0154 106.955 100.514Z" fill="#FFC152"/>
<path d="M95.701 96.2395L90.0742 94.1024C90.4654 93.1091 90.8265 90.9419 90.8265 90.9419L91.4884 89.8282L90.8265 88.6844C90.8265 88.6844 90.4654 86.5473 90.0742 85.554L95.701 83.4169C96.2727 84.9219 96.8143 88.1727 96.8143 88.1727L97.8073 89.8583L96.8143 91.5439C96.8143 91.4837 96.2727 94.7345 95.701 96.2395Z" fill="#FFC152"/>
<path d="M84.4476 87.6611C84.6883 88.3233 84.8387 89.0457 84.8387 89.7982C84.8387 90.5507 84.6883 91.2731 84.4476 91.9353L78.8208 89.7982L84.4476 87.6611Z" fill="#FFC152"/>
<path d="M95.1901 53.2269L100.997 63.0395L78.8213 89.7982L95.1901 53.2269Z" fill="white"/>
<path d="M78.8208 89.7982L100.997 63.0394L105.3 63.3103L78.8208 89.7982Z" fill="#E6E7E8"/>
<path d="M115.38 73.4239L105.571 67.6146L78.8208 89.7982L115.38 73.4239Z" fill="#E6E7E8"/>
<path d="M78.8208 89.7982L105.57 67.6146L105.3 63.3103L78.8208 89.7982Z" fill="white"/>
<path d="M98.2287 73.6948L105.571 67.6146L115.38 73.4239L97.8977 81.2498L98.2287 73.6948Z" fill="#E6E7E8"/>
<path d="M106.293 77.4874L100.786 79.9555C99.9137 77.999 97.3561 74.4473 97.3561 74.4473L96.4835 72.1296L94.1967 71.2567C94.1967 71.2567 90.616 68.6982 88.6602 67.8253L91.1275 62.317C93.5648 63.4006 98.0481 66.6213 98.0481 66.6213L100.756 67.8855L102.02 70.5945C101.99 70.5945 105.209 75.0493 106.293 77.4874Z" fill="#FFC152"/>
<path d="M95.3097 82.4237L89.8334 84.8919C89.4122 83.9287 88.1183 82.1227 88.1183 82.1227L87.7873 80.8585L86.5236 80.5274C86.5236 80.5274 84.7483 79.2632 83.7854 78.8117L86.2528 73.3336C87.7271 73.9958 90.4051 75.892 90.4051 75.892L92.3008 76.4037L92.7822 78.3C92.722 78.2699 94.6478 80.9488 95.3097 82.4237Z" fill="#FFC152"/>
<path d="M81.2881 84.3199C81.9501 84.6209 82.5519 85.0122 83.0935 85.554C83.6351 86.0958 84.0262 86.6978 84.3271 87.36L78.8508 89.8282L81.2881 84.3199Z" fill="#FFC152"/>
<path d="M64.5583 52.3539L75.6013 55.1833L78.8208 89.7981L64.5583 52.3539Z" fill="white"/>
<path d="M78.8209 89.798L75.6013 55.1832L78.8209 52.3538V89.798Z" fill="#E6E7E8"/>
<path d="M93.1134 52.3538L82.0705 55.1832L78.8208 89.798L93.1134 52.3538Z" fill="#E6E7E8"/>
<path d="M78.8208 89.798L82.0705 55.1832L78.8208 52.3538V89.798Z" fill="white"/>
<path d="M81.168 64.6947L82.0707 55.1832L93.1136 52.3538L86.2832 70.2932L81.168 64.6947Z" fill="#E6E7E8"/>
<path d="M89.5628 61.6847L87.4264 67.3134C85.4405 66.5609 81.1076 65.8385 81.1076 65.8385L78.8508 64.8151L76.6242 65.8084C76.6242 65.8084 72.2913 66.5308 70.2753 67.2833L68.1389 61.6546C70.6364 60.6914 76.0525 59.8185 76.0525 59.8185L78.8508 58.7951L81.6492 59.8185C81.6191 59.8185 87.0653 60.7215 89.5628 61.6847Z" fill="#FFC152"/>
<path d="M85.2601 72.9422L83.1237 78.5708C82.1308 78.1795 79.9643 77.8183 79.9643 77.8183L78.851 77.1561L77.7076 77.8183C77.7076 77.8183 75.5712 78.1795 74.5783 78.5708L72.4419 72.9422C73.9464 72.3703 77.1961 71.8285 77.1961 71.8285L78.8811 70.8353L80.5661 71.8285C80.5059 71.8285 83.7556 72.3402 85.2601 72.9422Z" fill="#FFC152"/>
<path d="M76.6846 84.1693C77.3465 83.9285 78.0687 83.778 78.8209 83.778C79.5732 83.778 80.2953 83.9285 80.9573 84.1693L78.8209 89.7979L76.6846 84.1693Z" fill="#FFC152"/>
<path d="M62.4521 53.227L56.6448 63.0395L78.8209 89.7983L62.4521 53.227Z" fill="white"/>
<path d="M78.8206 89.7982L56.6446 63.0394L52.3718 63.3103L78.8206 89.7982Z" fill="#E6E7E8"/>
<path d="M42.2617 73.4239L52.071 67.6146L78.8207 89.7982L42.2617 73.4239Z" fill="#E6E7E8"/>
<path d="M78.8208 89.7982L52.071 67.6146L52.3719 63.3103L78.8208 89.7982Z" fill="white"/>
<path d="M59.4429 73.6948L52.071 67.6146L42.2617 73.4239L59.7739 81.2498L59.4429 73.6948Z" fill="#E6E7E8"/>
<path d="M51.3789 77.4874L56.8853 79.9555C57.7579 77.999 60.3155 74.4473 60.3155 74.4473L61.1881 72.1296L63.475 71.2567C63.475 71.2567 67.0556 68.6982 69.0115 67.8253L66.5441 62.317C64.1068 63.4006 59.6235 66.6213 59.6235 66.6213L56.9154 67.8855L55.6516 70.5945C55.6516 70.5945 52.4621 75.0493 51.3789 77.4874Z" fill="#FFC152"/>
<path d="M62.3616 82.4238L67.8379 84.892C68.2892 83.9288 69.553 82.1228 69.553 82.1228L69.884 80.8586L71.1477 80.5275C71.1477 80.5275 72.923 79.2633 73.8859 78.8118L71.4186 73.3035C69.9442 73.9657 67.2662 75.862 67.2662 75.862L65.3705 76.3737L64.8891 78.27C64.9192 78.27 63.0235 80.9489 62.3616 82.4238Z" fill="#FFC152"/>
<path d="M76.3835 84.3199C75.7216 84.6209 75.1198 85.0122 74.5782 85.554C74.0365 86.0958 73.6454 86.6978 73.3445 87.36L78.8208 89.8282L76.3835 84.3199Z" fill="#FFC152"/>
<path d="M41.3892 75.5308L44.2176 86.5474L78.8207 89.7982L41.3892 75.5308Z" fill="white"/>
<path d="M78.8207 89.7981L44.2176 86.5474L41.3892 89.7981H78.8207Z" fill="#E6E7E8"/>
<path d="M41.3892 104.065L44.2176 93.0187L78.8207 89.798L41.3892 104.065Z" fill="#E6E7E8"/>
<path d="M78.8207 89.798L44.2176 93.0192L41.3892 89.798H78.8207Z" fill="white"/>
<path d="M53.7259 92.1459L44.2176 93.0188L41.3892 104.065L59.3226 97.2328L53.7259 92.1459Z" fill="#E6E7E8"/>
<path d="M50.717 100.514L56.3438 98.3766C55.5915 96.39 54.8694 92.0556 54.8694 92.0556L53.8463 89.7982L54.8393 87.5708C54.8393 87.5708 55.5614 83.2364 56.3137 81.2197L50.6869 79.0826C49.724 81.5809 48.8514 86.9989 48.8514 86.9989L47.8284 89.7982L48.8514 92.5974C48.8815 92.5974 49.7541 98.0154 50.717 100.514Z" fill="#FFC152"/>
<path d="M61.9705 96.2395L67.5973 94.1024C67.2062 93.1091 66.8451 90.9419 66.8451 90.9419L66.1831 89.8282L66.8451 88.6844C66.8451 88.6844 67.2062 86.5473 67.5973 85.554L61.9705 83.4169C61.3988 84.9219 60.8572 88.1727 60.8572 88.1727L59.8643 89.8583L60.8572 91.5439C60.8572 91.4837 61.3988 94.7345 61.9705 96.2395Z" fill="#FFC152"/>
<path d="M73.2242 87.6611C72.9835 88.3233 72.833 89.0457 72.833 89.7982C72.833 90.5507 72.9835 91.2731 73.2242 91.9353L78.8509 89.7982L73.2242 87.6611Z" fill="#FFC152"/>
<path d="M36.4421 124.289L44.1699 128.866L44.4069 132.233L47.773 132.47L52.348 140.201L65.2433 111.39L36.4421 124.289Z" fill="#645D33"/>
<path d="M34.1426 116.773L41.8703 121.349L62.9438 103.873L34.1426 116.773Z" fill="white"/>
<path d="M62.9438 103.873L41.8704 121.349L42.1074 124.716L62.9438 103.873Z" fill="#E6E7E8"/>
<path d="M50.0486 132.684L45.4736 124.953L62.944 103.873L50.0486 132.684Z" fill="#E6E7E8"/>
<path d="M62.9438 103.873L45.4735 124.954L42.1074 124.716L62.9438 103.873Z" fill="white"/>
<path d="M50.2857 119.167L45.4736 124.953L50.0486 132.684L56.2356 118.883L50.2857 119.167Z" fill="#E6E7E8"/>
<path d="M53.2726 125.523L55.2164 121.183C53.6756 120.496 50.8784 118.48 50.8784 118.48L49.0532 117.792L48.3657 115.99C48.3657 115.99 46.3508 113.168 45.6634 111.627L41.3254 113.571C42.1788 115.492 44.7152 119.025 44.7152 119.025L45.7108 121.159L47.8442 122.155C47.8205 122.132 51.3288 124.645 53.2726 125.523Z" fill="#FFC152"/>
<path d="M57.1364 116.844L59.0801 112.528C58.3216 112.172 56.8993 111.176 56.8993 111.176L55.9037 110.916L55.643 109.92C55.643 109.92 54.6474 108.521 54.2918 107.762L49.9775 109.706C50.499 110.868 51.9924 112.979 51.9924 112.979L52.3954 114.472L53.8888 114.852C53.8651 114.828 55.9748 116.346 57.1364 116.844Z" fill="#FFC152"/>
<path d="M58.6296 105.817C58.8667 106.339 59.1748 106.813 59.6015 107.24C60.0282 107.667 60.5023 107.975 61.0238 108.212L62.9676 103.897L58.6296 105.817Z" fill="#FFC152"/>
<path d="M50.7771 45.9427C51.8603 45.5514 52.7329 44.6785 53.1241 43.5949C53.3949 42.8424 53.3648 42.8424 53.6356 43.5949C54.0268 44.6785 54.8994 45.5514 55.9826 45.9427C56.7348 46.2136 56.7348 46.1835 55.9826 46.4544C54.8994 46.8457 54.0268 47.7186 53.6356 48.8022C53.3648 49.5547 53.3949 49.5547 53.1241 48.8022C52.7329 47.7186 51.8603 46.8457 50.7771 46.4544C50.0248 46.1534 50.0248 46.2136 50.7771 45.9427Z" fill="white"/>
<path d="M46.3237 52.4141C47.7981 51.8723 48.9716 50.6984 49.5433 49.1934C49.9344 48.1701 49.8442 48.1701 50.2353 49.1934C50.7769 50.6683 51.9504 51.8422 53.4549 52.4141C54.478 52.8054 54.478 52.7151 53.4549 53.1064C51.9805 53.6482 50.807 54.8221 50.2353 56.3271C49.8442 57.3505 49.9344 57.3505 49.5433 56.3271C49.0017 54.8522 47.8282 53.6783 46.3237 53.1064C45.3006 52.7151 45.3006 52.7753 46.3237 52.4141Z" fill="white"/>
<path d="M63.2641 39.2008C64.0451 39.2008 64.6783 38.5673 64.6783 37.7858C64.6783 37.0044 64.0451 36.3709 63.2641 36.3709C62.483 36.3709 61.8499 37.0044 61.8499 37.7858C61.8499 38.5673 62.483 39.2008 63.2641 39.2008Z" fill="white"/>
<path d="M129.672 92.8988C130.453 92.8988 131.086 92.2653 131.086 91.4839C131.086 90.7025 130.453 90.069 129.672 90.069C128.891 90.069 128.258 90.7025 128.258 91.4839C128.258 92.2653 128.891 92.8988 129.672 92.8988Z" fill="white"/>
<path d="M126.122 76.2231C126.903 76.2231 127.536 75.5897 127.536 74.8085C127.536 74.0272 126.903 73.3938 126.122 73.3938C125.341 73.3938 124.708 74.0272 124.708 74.8085C124.708 75.5897 125.341 76.2231 126.122 76.2231Z" fill="white"/>
<path d="M36.6649 59.5779C36.6649 60.1499 36.1834 60.6316 35.6117 60.6316C35.04 60.6316 34.5586 60.1499 34.5586 59.5779C34.5586 59.0059 35.04 58.5242 35.6117 58.5242C36.2135 58.4941 36.6649 58.9758 36.6649 59.5779Z" fill="white"/>
<path d="M129.672 80.738C129.672 81.0692 129.401 81.3702 129.04 81.3702C128.709 81.3702 128.408 81.0993 128.408 80.738C128.408 80.4069 128.679 80.1058 129.04 80.1058C129.401 80.1058 129.672 80.4069 129.672 80.738Z" fill="white"/>
<path d="M122.661 86.7883C122.661 87.1194 122.39 87.4205 122.029 87.4205C121.698 87.4205 121.397 87.1495 121.397 86.7883C121.397 86.4571 121.668 86.1561 122.029 86.1561C122.39 86.1561 122.661 86.427 122.661 86.7883Z" fill="white"/>
<path d="M55.7718 56.1165C55.7718 56.4477 55.501 56.7487 55.1399 56.7487C54.809 56.7487 54.5081 56.4778 54.5081 56.1165C54.5081 55.7854 54.7789 55.4843 55.1399 55.4843C55.4709 55.5144 55.7718 55.7854 55.7718 56.1165Z" fill="white"/>
<g clip-path="url(#clip0)">
<path d="M28.5649 39.3305C28.0144 39.815 27.4945 40.2691 26.9746 40.7536L26.7605 40.5416C27.2804 40.0572 27.8003 39.5728 28.3508 39.1186L28.5649 39.3305ZM16.5456 98.3112L16.7291 98.069C16.1786 97.6451 15.6587 97.1909 15.1388 96.6762L14.9247 96.8882C15.4446 97.4029 15.9951 97.8873 16.5456 98.3112ZM19.8792 99.8251C19.2981 99.6131 18.6865 99.3406 18.136 99.0076L17.983 98.9167L17.8301 99.1892L17.983 99.2801C18.5641 99.6131 19.1758 99.9159 19.7875 100.128L19.8792 99.8251ZM27.4333 97.4634C27.5251 97.1001 27.5862 96.7368 27.5862 96.3432C27.5862 96.0101 27.5556 95.6468 27.4639 95.2834L27.1581 95.344C27.2192 95.677 27.2498 96.0101 27.2498 96.3432C27.2498 96.7065 27.2192 97.0395 27.1275 97.3726L27.4333 97.4634ZM17.9525 139.67L18.0442 139.398C17.5549 139.246 17.035 139.035 16.5456 138.792C16.3927 138.732 16.2398 138.641 16.0869 138.58L15.934 138.853C16.0869 138.944 16.2398 139.004 16.3927 139.065C16.9126 139.307 17.4325 139.489 17.9525 139.67ZM16.1175 88.471C16.7903 88.3802 17.4325 88.3196 18.0748 88.3196H18.2277V88.0168H18.0748C17.4325 88.0168 16.7597 88.0774 16.0869 88.1682L16.1175 88.471ZM18.2889 49.6855C17.8607 50.2607 17.4325 50.836 17.0044 51.381L17.249 51.5627C17.6466 50.9874 18.0748 50.4121 18.503 49.8671L18.2889 49.6855ZM14.9859 54.439L15.2611 54.5904C15.6281 54.0151 16.0257 53.4096 16.4233 52.804L16.1786 52.6224C15.7505 53.2279 15.3529 53.8335 14.9859 54.439ZM29.513 38.0892L29.7271 38.3314C30.247 37.8772 30.7975 37.423 31.348 36.9689L31.1645 36.7267C30.614 37.1808 30.0635 37.635 29.513 38.0892ZM19.237 48.5046L19.4816 48.6863C19.9098 48.1413 20.3685 47.5963 20.8579 47.0513L20.6132 46.8394C20.1545 47.3844 19.6957 47.9596 19.237 48.5046ZM21.6225 139.973C20.919 139.973 20.2156 139.882 19.5122 139.761L19.451 140.064C20.1545 140.215 20.8885 140.276 21.5919 140.276L21.6225 139.973ZM19.7263 88.471C20.4297 88.5921 21.1331 88.7738 21.7448 89.016L21.8671 88.7435C21.2249 88.471 20.4909 88.2893 19.7569 88.1682L19.7263 88.471ZM23.0905 89.6821C23.6716 90.0454 24.2221 90.4996 24.7114 90.984L24.9255 90.7721C24.4056 90.2574 23.8551 89.8032 23.2434 89.4096L23.0905 89.6821ZM24.1303 43.0547L24.3444 43.2666C24.8337 42.7822 25.3536 42.2675 25.8736 41.783L25.6595 41.5711C25.1396 42.0555 24.6196 42.5702 24.1303 43.0547ZM25.9041 91.9529L25.6595 92.1346C25.7206 92.2254 25.7818 92.3162 25.843 92.4071C26.1794 92.9218 26.4546 93.4365 26.6993 93.9512L26.9746 93.8301C26.7605 93.3154 26.4546 92.7704 26.1182 92.2557C26.0571 92.1649 25.9959 92.0437 25.9041 91.9529ZM21.6225 45.7191L21.8365 45.931C22.2953 45.4163 22.7846 44.9016 23.274 44.3869L23.0599 44.1749C22.5706 44.6594 22.0812 45.2044 21.6225 45.7191ZM46.6091 24.3431C47.0984 23.8284 47.5878 23.2834 48.0159 22.7384L47.7713 22.5568C47.3125 23.1018 46.8538 23.6165 46.3644 24.1312L46.6091 24.3431ZM51.166 18.651C51.5636 18.0757 51.9306 17.4701 52.2976 16.8646L52.0224 16.7132C51.6554 17.3188 51.2884 17.9243 50.8908 18.4996L51.166 18.651ZM53.0622 15.5324C53.3986 14.9268 53.735 14.291 54.0409 13.6552L53.7656 13.5341C53.4598 14.1699 53.1234 14.8057 52.787 15.4113L53.0622 15.5324ZM23.4575 100.552L23.4269 100.249C22.7541 100.34 22.0506 100.31 21.3472 100.188L21.286 100.491C21.7142 100.552 22.173 100.612 22.6011 100.612C22.8764 100.612 23.1516 100.582 23.4575 100.552ZM48.9946 21.5879C49.4228 21.0429 49.8815 20.4676 50.2791 19.8923L50.0344 19.7107C49.6369 20.286 49.1781 20.831 48.7499 21.4062L48.9946 21.5879ZM57.2827 5.44996C57.4968 4.78385 57.6803 4.08747 57.8638 3.42136L57.558 3.33053C57.3745 4.02691 57.1604 4.69302 56.9769 5.35913L57.2827 5.44996ZM54.7137 12.2927C54.989 11.6569 55.2948 10.9908 55.57 10.3549L55.2948 10.2338C55.0195 10.8999 54.7443 11.5357 54.469 12.1716L54.7137 12.2927ZM56.1205 8.9016C56.3652 8.23549 56.6099 7.56939 56.824 6.90328L56.5487 6.81245C56.3346 7.47855 56.09 8.14466 55.8453 8.81077L56.1205 8.9016ZM31.8679 136.582L31.6844 136.34C31.0727 136.764 30.4611 137.127 29.88 137.46L30.0329 137.733C30.6446 137.369 31.2562 137.006 31.8679 136.582ZM34.8345 134.432L34.651 134.19C34.0393 134.675 33.4888 135.068 32.9383 135.462L33.1218 135.704C33.6723 135.31 34.2228 134.886 34.8345 134.432ZM32.3572 35.7881L32.5407 36.0303C33.0912 35.5761 33.6723 35.1522 34.2228 34.7283L34.0393 34.4861C33.4582 34.8797 32.9077 35.3339 32.3572 35.7881ZM43.7954 26.7351L44.0095 26.947C44.5294 26.4626 45.0494 25.9479 45.5387 25.4634L45.3246 25.2515C44.8353 25.7359 44.3459 26.2506 43.7954 26.7351ZM35.2627 33.5475L35.4462 33.7897C36.0272 33.3659 36.5778 32.942 37.1588 32.5181L36.9753 32.2759C36.3942 32.6997 35.8438 33.1236 35.2627 33.5475ZM41.257 29.3692C41.8075 28.9151 42.358 28.4306 42.8779 27.9765L42.6638 27.7645C42.1439 28.2187 41.5934 28.7031 41.0429 29.1573L41.257 29.3692ZM38.3822 31.6098C38.9633 31.1859 39.5138 30.7317 40.0643 30.3078L39.8808 30.0656C39.3303 30.4895 38.7798 30.9437 38.1987 31.3675L38.3822 31.6098ZM37.6787 132.131L37.4953 131.889C36.9447 132.343 36.3942 132.797 35.8437 133.221L36.0272 133.463C36.6083 133.009 37.1588 132.585 37.6787 132.131ZM58.4143 0C58.2614 0.635828 58.1085 1.27166 57.9555 1.87721L58.2614 1.93776C58.4143 1.30193 58.5672 0.635828 58.7201 0H58.4143ZM14.8024 137.823C14.2213 137.46 13.6402 137.036 13.0897 136.582L12.9062 136.824C13.4873 137.278 14.0684 137.702 14.6495 138.096L14.8024 137.823ZM11.1935 90.6813L10.9183 90.8024C11.2241 91.4685 11.5299 92.1043 11.8664 92.7099L12.1416 92.5585C11.7746 91.9529 11.4688 91.3171 11.1935 90.6813ZM0.305834 113.359L0.611668 113.329C0.519918 112.632 0.428168 111.936 0.397584 111.24L0.0917502 111.27C0.122334 111.936 0.214084 112.632 0.305834 113.359ZM5.16859 127.045L5.44385 126.893C5.10743 126.288 4.77101 125.652 4.46518 125.016L4.18993 125.137C4.49576 125.803 4.83218 126.439 5.16859 127.045ZM5.22976 94.1632C4.77101 94.7082 4.31226 95.2834 3.91468 95.8587L4.15934 96.0404C4.55693 95.4651 4.98509 94.9201 5.44385 94.3751L5.22976 94.1632ZM14.2213 55.741C13.8543 56.3465 13.5179 56.9823 13.1814 57.6182L13.4567 57.7696C13.7931 57.164 14.1295 56.5282 14.4965 55.9226L14.2213 55.741ZM12.478 58.9504C12.1722 59.5862 11.8664 60.2523 11.5911 60.8881L11.8664 61.0093C12.1416 60.3734 12.4474 59.7073 12.7533 59.0715L12.478 58.9504ZM14.6189 88.7738L14.5577 88.471C13.8849 88.6527 13.1814 88.8646 12.5086 89.1371L12.6309 89.4096C13.2732 89.1674 13.9766 88.9554 14.6189 88.7738ZM14.1295 95.5559C13.7014 95.0412 13.2732 94.466 12.8756 93.8604L12.6309 94.0118C13.0285 94.6173 13.4567 95.1926 13.8849 95.7376L14.1295 95.5559ZM3.82293 123.654C3.51709 123.018 3.24184 122.352 2.99717 121.716L2.72192 121.837C2.99717 122.503 3.27242 123.139 3.57826 123.805L3.82293 123.654ZM0.305834 109.696C0.305834 109.484 0.305834 109.302 0.305834 109.09C0.305834 108.575 0.305834 108.091 0.336417 107.576L0.0305834 107.546C0 108.091 0 108.575 0 109.09C0 109.302 0 109.484 0 109.696H0.305834ZM3.08892 97.1304C2.72192 97.7359 2.38551 98.3717 2.11025 99.0379L2.38551 99.159C2.69134 98.5231 2.99717 97.8873 3.36417 97.2818L3.08892 97.1304ZM2.14084 120.414L2.41609 120.323C2.29376 119.99 2.17142 119.657 2.04909 119.324C1.92675 118.991 1.835 118.658 1.71267 118.325L1.40684 118.415C1.49859 118.749 1.62092 119.082 1.74325 119.445C1.89617 119.717 2.0185 120.05 2.14084 120.414ZM25.2619 139.791L25.1701 139.489C24.4667 139.67 23.7633 139.822 23.0905 139.882L23.1211 140.185C23.8551 140.124 24.5585 140.003 25.2619 139.791ZM0.489334 103.943C0.336417 104.639 0.244667 105.336 0.152917 106.062L0.458751 106.093C0.550501 105.396 0.642251 104.7 0.795168 104.003L0.489334 103.943ZM1.49859 100.431C1.25392 101.097 1.03984 101.763 0.856335 102.459L1.16217 102.55C1.34567 101.884 1.55975 101.188 1.80442 100.552L1.49859 100.431ZM1.34567 116.841C1.16217 116.145 1.00925 115.479 0.886919 114.782L0.581085 114.843C0.703418 115.539 0.886919 116.236 1.03984 116.932L1.34567 116.841ZM9.45027 132.918C9.0221 132.373 8.59394 131.828 8.16577 131.253L7.9211 131.435C8.34927 132.01 8.77744 132.585 9.23619 133.13L9.45027 132.918ZM9.66436 87.3507C9.87844 88.0471 10.0925 88.7132 10.3372 89.3793L10.6124 89.2885C10.3678 88.6527 10.1537 87.9563 9.93961 87.2902L9.66436 87.3507ZM11.744 135.795L11.9581 135.583C11.4688 135.129 10.9489 134.614 10.4595 134.069L10.2454 134.281C10.7348 134.826 11.2241 135.341 11.744 135.795ZM26.7299 98.8562L26.4852 98.6745C26.0876 99.1892 25.5371 99.5828 24.8337 99.8856L24.9561 100.158C25.6901 99.8553 26.2711 99.4315 26.7299 98.8562ZM11.0406 62.3112C10.7959 62.9773 10.5513 63.6434 10.3066 64.3095L10.5819 64.4003C10.7959 63.7342 11.0406 63.0681 11.3159 62.402L11.0406 62.3112ZM28.7178 138.459L28.5649 138.187C27.9226 138.52 27.2498 138.792 26.6381 139.035L26.7605 139.307C27.3721 139.065 28.045 138.792 28.7178 138.459ZM7.9211 91.6804C7.34002 92.1043 6.78952 92.5887 6.2696 93.0732L6.48368 93.2851C6.97302 92.8007 7.52352 92.3465 8.1046 91.9226L7.9211 91.6804ZM5.93318 128.377C6.30018 128.982 6.66718 129.618 7.06477 130.193L7.30943 130.042C6.94243 129.467 6.54485 128.861 6.17785 128.256L5.93318 128.377ZM8.22694 76.8141C8.22694 77.4197 8.22694 78.0555 8.25752 78.6611H8.56335C8.53277 78.0555 8.53277 77.45 8.53277 76.8444V76.5719H8.22694V76.8141ZM9.29735 67.8217L9.60319 67.8823C9.75611 67.2162 9.93961 66.5198 10.1537 65.8537L9.84786 65.7628C9.63377 66.4289 9.45027 67.1253 9.29735 67.8217ZM8.25752 75.0278H8.56335C8.59394 74.3314 8.6551 73.6047 8.71627 72.9083L8.41044 72.8781C8.34927 73.6047 8.2881 74.3011 8.25752 75.0278ZM11.1018 89.7729C10.4595 90.0757 9.81727 90.439 9.2056 90.8024L9.35852 91.0446C9.97019 90.6813 10.5819 90.3179 11.2241 90.0151L11.1018 89.7729ZM8.8386 83.8083C8.96094 84.5046 9.11385 85.201 9.26677 85.8974L9.57261 85.8368C9.41969 85.1707 9.26677 84.4744 9.14444 83.778L8.8386 83.8083ZM8.34927 80.1749C8.41044 80.8713 8.4716 81.598 8.59394 82.2944L8.89977 82.2641C8.80802 81.5677 8.71627 80.8713 8.6551 80.1749H8.34927ZM8.59394 71.3945L8.89977 71.4247C8.99152 70.7283 9.11385 70.032 9.26677 69.3356L8.96094 69.275C8.8386 70.0017 8.71627 70.6981 8.59394 71.3945Z" fill="#645D33"/>
</g>
<defs>
<clipPath id="clip0">
<rect width="58.7201" height="140.276" fill="white"/>
</clipPath>
</defs>
</svg>
