<svg width="299" height="322" viewBox="0 0 299 322" fill="none" xmlns="http://www.w3.org/2000/svg">
<path d="M169.131 321.861C240.448 321.861 298.262 264.027 298.262 192.686C298.262 121.345 240.448 63.5115 169.131 63.5115C97.814 63.5115 40 121.345 40 192.686C40 264.027 97.814 321.861 169.131 321.861Z" fill="#C1A073"/>
<path d="M298.262 194.172L249.451 162.007L138.527 273.033L161.964 321.667C164.353 321.796 166.742 321.861 169.131 321.861C239.96 321.861 297.423 264.83 298.262 194.172Z" fill="#D8C19E"/>
<path d="M138.527 273.033L162.223 266.962L169.131 192.686L138.527 273.033Z" fill="white"/>
<path d="M169.131 192.686L162.223 266.962L169.131 273.033V192.686Z" fill="#E6E7E8"/>
<path d="M199.8 273.033L176.104 266.962L169.131 192.686L199.8 273.033Z" fill="#E6E7E8"/>
<path d="M169.131 192.686L176.104 266.962L169.131 273.033V192.686Z" fill="white"/>
<path d="M174.167 246.552L176.104 266.962L199.8 273.033L185.143 234.539L174.167 246.552Z" fill="#E6E7E8"/>
<path d="M192.181 253.011L187.597 240.933C183.336 242.548 174.038 244.098 174.038 244.098L169.196 246.294L164.418 244.162C164.418 244.162 155.12 242.612 150.794 240.998L146.21 253.075C151.569 255.142 163.191 257.015 163.191 257.015L169.196 259.211L175.2 257.015C175.136 257.015 186.822 255.078 192.181 253.011Z" fill="#FFC152"/>
<path d="M182.948 228.855L178.364 216.777C176.233 217.617 171.585 218.392 171.585 218.392L169.196 219.813L166.742 218.392C166.742 218.392 162.158 217.617 160.027 216.777L155.443 228.855C158.671 230.082 165.645 231.245 165.645 231.245L169.26 233.376L172.876 231.245C172.747 231.245 179.72 230.147 182.948 228.855Z" fill="#FFC152"/>
<path d="M164.547 204.764C165.967 205.281 167.517 205.604 169.131 205.604C170.745 205.604 172.295 205.281 173.715 204.764L169.131 192.686L164.547 204.764Z" fill="#FFC152"/>
<path d="M204.255 271.159L216.716 250.104L169.131 192.686L204.255 271.159Z" fill="white"/>
<path d="M169.131 192.686L216.716 250.104L225.949 249.522L169.131 192.686Z" fill="#E6E7E8"/>
<path d="M247.578 227.821L226.594 240.286L169.131 192.686L247.578 227.821Z" fill="#E6E7E8"/>
<path d="M169.131 192.686L226.594 240.286L225.949 249.522L169.131 192.686Z" fill="white"/>
<path d="M210.776 227.24L226.594 240.287L247.578 227.822L210.066 211.029L210.776 227.24Z" fill="#E6E7E8"/>
<path d="M228.079 219.103L216.264 213.806C214.392 218.005 208.903 225.626 208.903 225.626L207.031 230.599L202.124 232.472C202.124 232.472 194.441 237.962 190.244 239.835L195.538 251.654C200.768 249.329 210.388 242.418 210.388 242.418L216.199 239.706L218.911 233.893C218.847 233.893 225.755 224.334 228.079 219.103Z" fill="#FFC152"/>
<path d="M204.513 208.51L192.762 203.214C191.794 205.281 189.082 209.156 189.082 209.156L188.372 211.869L185.66 212.579C185.66 212.579 181.85 215.292 179.784 216.261L185.079 228.016C188.242 226.595 193.989 222.526 193.989 222.526L198.056 221.428L199.089 217.359C198.96 217.423 203.093 211.675 204.513 208.51Z" fill="#FFC152"/>
<path d="M174.425 204.441C175.845 203.796 177.136 202.956 178.299 201.793C179.461 200.631 180.3 199.339 180.946 197.918L169.195 192.622L174.425 204.441Z" fill="#FFC152"/>
<path d="M249.451 162.072L243.381 185.711L169.131 192.686L249.451 162.072Z" fill="white"/>
<path d="M169.131 192.686L243.381 185.711L249.451 192.686H169.131Z" fill="#E6E7E8"/>
<path d="M249.451 223.301L243.381 199.597L169.131 192.686L249.451 223.301Z" fill="#E6E7E8"/>
<path d="M169.131 192.686L243.381 199.598L249.451 192.686H169.131Z" fill="white"/>
<path d="M222.979 197.724L243.381 199.597L249.451 223.301L211.034 208.639L222.979 197.724Z" fill="#E6E7E8"/>
<path d="M229.5 215.679L217.426 211.094C219.04 206.831 220.59 197.53 220.59 197.53L222.785 192.686L220.654 187.907C220.654 187.907 219.105 178.606 217.491 174.279L229.564 169.693C231.631 175.054 233.503 186.68 233.503 186.68L235.698 192.686L233.503 198.693C233.438 198.693 231.501 210.319 229.5 215.679Z" fill="#FFC152"/>
<path d="M205.352 206.508L193.279 201.922C194.118 199.791 194.893 195.141 194.893 195.141L196.313 192.751L194.893 190.297C194.893 190.297 194.118 185.711 193.279 183.579L205.352 178.994C206.579 182.223 207.741 189.199 207.741 189.199L209.872 192.815L207.741 196.432C207.741 196.303 206.579 203.279 205.352 206.508Z" fill="#FFC152"/>
<path d="M181.205 188.101C181.721 189.522 182.044 191.072 182.044 192.687C182.044 194.301 181.721 195.851 181.205 197.272L169.131 192.687L181.205 188.101Z" fill="#FFC152"/>
<path d="M204.255 114.213L216.716 135.268L169.131 192.687L204.255 114.213Z" fill="white"/>
<path d="M169.131 192.686L216.716 135.268L225.949 135.849L169.131 192.686Z" fill="#E6E7E8"/>
<path d="M247.578 157.551L226.53 145.085L169.131 192.686L247.578 157.551Z" fill="#E6E7E8"/>
<path d="M169.131 192.686L226.53 145.085L225.949 135.849L169.131 192.686Z" fill="white"/>
<path d="M210.776 158.132L226.53 145.085L247.578 157.551L210.066 174.344L210.776 158.132Z" fill="#E6E7E8"/>
<path d="M228.079 166.27L216.264 171.566C214.392 167.368 208.903 159.747 208.903 159.747L207.031 154.774L202.124 152.901C202.124 152.901 194.441 147.411 190.244 145.538L195.538 133.718C200.768 136.043 210.388 142.954 210.388 142.954L216.199 145.667L218.911 151.48C218.847 151.48 225.755 161.039 228.079 166.27Z" fill="#FFC152"/>
<path d="M204.513 176.862L192.762 182.158C191.858 180.092 189.082 176.216 189.082 176.216L188.372 173.504L185.66 172.793C185.66 172.793 181.85 170.081 179.784 169.112L185.079 157.357C188.242 158.778 193.989 162.847 193.989 162.847L198.056 163.945L199.089 168.014C198.96 167.949 203.093 173.698 204.513 176.862Z" fill="#FFC152"/>
<path d="M174.425 180.931C175.846 181.577 177.137 182.417 178.299 183.579C179.462 184.742 180.301 186.034 180.947 187.455L169.196 192.751L174.425 180.931Z" fill="#FFC152"/>
<path d="M138.527 112.34L162.223 118.411L169.131 192.686L138.527 112.34Z" fill="white"/>
<path d="M169.131 192.686L162.223 118.411L169.131 112.34V192.686Z" fill="#E6E7E8"/>
<path d="M199.8 112.34L176.104 118.411L169.131 192.686L199.8 112.34Z" fill="#E6E7E8"/>
<path d="M169.131 192.686L176.104 118.411L169.131 112.34V192.686Z" fill="white"/>
<path d="M174.167 138.82L176.104 118.411L199.8 112.34L185.143 150.833L174.167 138.82Z" fill="#E6E7E8"/>
<path d="M192.181 132.362L187.597 144.439C183.336 142.825 174.038 141.275 174.038 141.275L169.196 139.079L164.418 141.21C164.418 141.21 155.12 142.76 150.794 144.375L146.21 132.297C151.569 130.23 163.191 128.357 163.191 128.357L169.196 126.161L175.2 128.357C175.136 128.357 186.822 130.295 192.181 132.362Z" fill="#FFC152"/>
<path d="M182.948 156.517L178.364 168.595C176.233 167.755 171.585 166.98 171.585 166.98L169.196 165.559L166.742 166.98C166.742 166.98 162.158 167.755 160.027 168.595L155.443 156.517C158.671 155.29 165.645 154.128 165.645 154.128L169.26 151.996L172.876 154.128C172.747 154.128 179.72 155.226 182.948 156.517Z" fill="#FFC152"/>
<path d="M164.547 180.608C165.967 180.092 167.517 179.769 169.131 179.769C170.745 179.769 172.295 180.092 173.715 180.608L169.131 192.686L164.547 180.608Z" fill="#FFC152"/>
<path d="M134.007 114.213L121.546 135.268L169.131 192.687L134.007 114.213Z" fill="white"/>
<path d="M169.131 192.686L121.546 135.268L112.378 135.849L169.131 192.686Z" fill="#E6E7E8"/>
<path d="M90.6839 157.551L111.732 145.085L169.131 192.686L90.6839 157.551Z" fill="#E6E7E8"/>
<path d="M169.131 192.686L111.732 145.085L112.378 135.849L169.131 192.686Z" fill="white"/>
<path d="M127.551 158.132L111.732 145.085L90.6839 157.551L128.261 174.344L127.551 158.132Z" fill="#E6E7E8"/>
<path d="M110.247 166.27L122.063 171.566C123.935 167.368 129.423 159.747 129.423 159.747L131.296 154.774L136.203 152.901C136.203 152.901 143.886 147.411 148.083 145.538L142.788 133.718C137.559 136.043 127.938 142.954 127.938 142.954L122.127 145.667L119.416 151.48C119.416 151.48 112.572 161.039 110.247 166.27Z" fill="#FFC152"/>
<path d="M133.814 176.863L145.565 182.159C146.533 180.092 149.245 176.217 149.245 176.217L149.955 173.504L152.667 172.793C152.667 172.793 156.476 170.081 158.542 169.112L153.248 157.292C150.084 158.713 144.338 162.782 144.338 162.782L140.27 163.88L139.237 167.949C139.302 167.949 135.234 173.698 133.814 176.863Z" fill="#FFC152"/>
<path d="M163.901 180.931C162.481 181.577 161.19 182.417 160.027 183.579C158.865 184.742 158.026 186.034 157.38 187.455L169.131 192.751L163.901 180.931Z" fill="#FFC152"/>
<path d="M88.8116 162.072L94.8807 185.711L169.131 192.686L88.8116 162.072Z" fill="white"/>
<path d="M169.131 192.686L94.8807 185.711L88.8116 192.686H169.131Z" fill="#E6E7E8"/>
<path d="M88.8116 223.301L94.8807 199.597L169.131 192.686L88.8116 223.301Z" fill="#E6E7E8"/>
<path d="M169.131 192.686L94.8807 199.598L88.8116 192.686H169.131Z" fill="white"/>
<path d="M115.283 197.724L94.8807 199.597L88.8116 223.301L127.293 208.639L115.283 197.724Z" fill="#E6E7E8"/>
<path d="M108.827 215.679L120.901 211.094C119.286 206.831 117.737 197.53 117.737 197.53L115.542 192.686L117.672 187.907C117.672 187.907 119.222 178.606 120.836 174.279L108.762 169.693C106.696 175.054 104.824 186.68 104.824 186.68L102.629 192.686L104.824 198.693C104.888 198.693 106.761 210.319 108.827 215.679Z" fill="#FFC152"/>
<path d="M132.974 206.508L145.048 201.922C144.209 199.791 143.434 195.141 143.434 195.141L142.014 192.751L143.434 190.297C143.434 190.297 144.209 185.711 145.048 183.579L132.974 178.994C131.748 182.223 130.585 189.199 130.585 189.199L128.455 192.815L130.585 196.432C130.585 196.303 131.748 203.279 132.974 206.508Z" fill="#FFC152"/>
<path d="M157.122 188.101C156.605 189.522 156.283 191.072 156.283 192.687C156.283 194.301 156.605 195.851 157.122 197.272L169.196 192.687L157.122 188.101Z" fill="#FFC152"/>
<path d="M78.1961 266.697L94.778 276.517L95.2867 283.742L102.509 284.251L112.326 300.839L139.997 239.017L78.1961 266.697Z" fill="#645D33"/>
<path d="M73.2622 250.567L89.8441 260.387L135.063 222.887L73.2622 250.567Z" fill="white"/>
<path d="M135.063 222.887L89.8442 260.387L90.3528 267.613L135.063 222.887Z" fill="#E6E7E8"/>
<path d="M107.393 284.709L97.5756 268.121L135.063 222.887L107.393 284.709Z" fill="#E6E7E8"/>
<path d="M135.063 222.887L97.5756 268.122L90.3528 267.613L135.063 222.887Z" fill="white"/>
<path d="M107.901 255.706L97.5756 268.121L107.393 284.709L120.668 255.096L107.901 255.706Z" fill="#E6E7E8"/>
<path d="M114.31 269.343L118.481 260.031C115.175 258.556 109.173 254.231 109.173 254.231L105.256 252.755L103.781 248.888C103.781 248.888 99.4576 242.833 97.9825 239.526L88.6743 243.698C90.5054 247.82 95.9479 255.401 95.9479 255.401L98.0843 259.98L102.662 262.118C102.611 262.067 110.139 267.46 114.31 269.343Z" fill="#FFC152"/>
<path d="M122.601 250.72L126.772 241.459C125.144 240.696 122.092 238.559 122.092 238.559L119.956 237.999L119.397 235.862C119.397 235.862 117.26 232.86 116.497 231.232L107.24 235.404C108.359 237.898 111.563 242.426 111.563 242.426L112.428 245.632L115.633 246.446C115.582 246.395 120.109 249.651 122.601 250.72Z" fill="#FFC152"/>
<path d="M125.806 227.06C126.314 228.179 126.976 229.197 127.891 230.113C128.807 231.028 129.824 231.69 130.943 232.199L135.114 222.938L125.806 227.06Z" fill="#FFC152"/>
<path d="M108.956 98.5826C111.28 97.743 113.153 95.8699 113.992 93.5448C114.573 91.9301 114.509 91.9301 115.09 93.5448C115.929 95.8699 117.802 97.743 120.126 98.5826C121.74 99.1639 121.74 99.0993 120.126 99.6806C117.802 100.52 115.929 102.393 115.09 104.718C114.509 106.333 114.573 106.333 113.992 104.718C113.153 102.393 111.28 100.52 108.956 99.6806C107.342 99.0347 107.342 99.1639 108.956 98.5826Z" fill="white"/>
<path d="M99.4003 112.469C102.564 111.306 105.082 108.787 106.309 105.558C107.148 103.362 106.954 103.362 107.794 105.558C108.956 108.723 111.474 111.242 114.702 112.469C116.898 113.308 116.898 113.115 114.702 113.954C111.539 115.117 109.021 117.636 107.794 120.865C106.954 123.061 107.148 123.061 106.309 120.865C105.147 117.7 102.629 115.181 99.4003 113.954C97.2051 113.115 97.2051 113.244 99.4003 112.469Z" fill="white"/>
<path d="M135.751 84.1159C137.427 84.1159 138.785 82.7566 138.785 81.0798C138.785 79.403 137.427 78.0437 135.751 78.0437C134.075 78.0437 132.716 79.403 132.716 81.0798C132.716 82.7566 134.075 84.1159 135.751 84.1159Z" fill="white"/>
<path d="M278.247 199.34C279.923 199.34 281.281 197.98 281.281 196.304C281.281 194.627 279.923 193.268 278.247 193.268C276.571 193.268 275.212 194.627 275.212 196.304C275.212 197.98 276.571 199.34 278.247 199.34Z" fill="white"/>
<path d="M270.628 163.557C272.304 163.557 273.663 162.198 273.663 160.522C273.663 158.845 272.304 157.486 270.628 157.486C268.952 157.486 267.594 158.845 267.594 160.522C267.594 162.198 268.952 163.557 270.628 163.557Z" fill="white"/>
<path d="M78.6748 127.841C78.6748 129.068 77.6417 130.102 76.415 130.102C75.1882 130.102 74.1552 129.068 74.1552 127.841C74.1552 126.613 75.1882 125.58 76.415 125.58C77.7063 125.515 78.6748 126.549 78.6748 127.841Z" fill="white"/>
<path d="M278.247 173.245C278.247 173.956 277.666 174.602 276.891 174.602C276.181 174.602 275.535 174.021 275.535 173.245C275.535 172.535 276.116 171.889 276.891 171.889C277.666 171.889 278.247 172.535 278.247 173.245Z" fill="white"/>
<path d="M263.203 186.228C263.203 186.938 262.622 187.584 261.847 187.584C261.137 187.584 260.491 187.003 260.491 186.228C260.491 185.517 261.072 184.871 261.847 184.871C262.622 184.871 263.203 185.453 263.203 186.228Z" fill="white"/>
<path d="M119.674 120.413C119.674 121.124 119.093 121.77 118.318 121.77C117.608 121.77 116.962 121.188 116.962 120.413C116.962 119.703 117.543 119.057 118.318 119.057C119.028 119.121 119.674 119.703 119.674 120.413Z" fill="white"/>
<path d="M61.2938 84.3943C60.1125 85.4338 58.9969 86.4084 57.8812 87.4479L57.4219 86.9931C58.5375 85.9536 59.6531 84.9141 60.8344 83.9396L61.2938 84.3943ZM35.5031 210.953L35.8969 210.434C34.7156 209.524 33.6 208.55 32.4844 207.445L32.025 207.9C33.1406 209.004 34.3219 210.044 35.5031 210.953ZM42.6562 214.202C41.4094 213.747 40.0969 213.162 38.9156 212.448L38.5875 212.253L38.2594 212.837L38.5875 213.032C39.8344 213.747 41.1469 214.397 42.4594 214.852L42.6562 214.202ZM58.8656 209.134C59.0625 208.355 59.1937 207.575 59.1937 206.73C59.1937 206.016 59.1281 205.236 58.9313 204.457L58.275 204.586C58.4063 205.301 58.4719 206.016 58.4719 206.73C58.4719 207.51 58.4062 208.225 58.2094 208.939L58.8656 209.134ZM38.5219 299.701L38.7188 299.116C37.6688 298.791 36.5531 298.336 35.5031 297.817C35.175 297.687 34.8469 297.492 34.5187 297.362L34.1906 297.946C34.5187 298.141 34.8469 298.271 35.175 298.401C36.2906 298.921 37.4062 299.311 38.5219 299.701ZM34.5844 189.839C36.0281 189.644 37.4062 189.514 38.7844 189.514H39.1125V188.864H38.7844C37.4062 188.864 35.9625 188.994 34.5187 189.189L34.5844 189.839ZM39.2437 106.614C38.325 107.848 37.4062 109.082 36.4875 110.252L37.0125 110.642C37.8656 109.407 38.7844 108.173 39.7031 107.003L39.2437 106.614ZM32.1562 116.814L32.7469 117.139C33.5344 115.904 34.3875 114.605 35.2406 113.305L34.7156 112.916C33.7969 114.215 32.9437 115.514 32.1562 116.814ZM63.3281 81.7306L63.7875 82.2504C64.9031 81.2758 66.0844 80.3013 67.2656 79.3268L66.8719 78.807C65.6906 79.7816 64.5094 80.7561 63.3281 81.7306ZM41.2781 104.08L41.8031 104.47C42.7219 103.3 43.7062 102.131 44.7562 100.961L44.2313 100.507C43.2469 101.676 42.2625 102.91 41.2781 104.08ZM46.3969 300.35C44.8875 300.35 43.3781 300.155 41.8687 299.896L41.7375 300.545C43.2469 300.87 44.8219 301 46.3312 301L46.3969 300.35ZM42.3281 189.839C43.8375 190.098 45.3469 190.488 46.6594 191.008L46.9219 190.423C45.5438 189.839 43.9688 189.449 42.3937 189.189L42.3281 189.839ZM49.5469 192.437C50.7938 193.217 51.975 194.191 53.025 195.231L53.4844 194.776C52.3688 193.672 51.1875 192.697 49.875 191.853L49.5469 192.437ZM51.7781 92.3855L52.2375 92.8403C53.2875 91.8008 54.4031 90.6963 55.5187 89.6568L55.0594 89.202C53.9438 90.2415 52.8281 91.346 51.7781 92.3855ZM55.5844 197.31L55.0594 197.7C55.1906 197.895 55.3219 198.09 55.4531 198.285C56.175 199.389 56.7656 200.493 57.2906 201.598L57.8812 201.338C57.4219 200.234 56.7656 199.064 56.0438 197.96C55.9125 197.765 55.7812 197.505 55.5844 197.31ZM46.3969 98.1027L46.8563 98.5575C47.8406 97.4531 48.8906 96.3486 49.9406 95.2441L49.4813 94.7893C48.4313 95.8288 47.3812 96.9983 46.3969 98.1027ZM100.012 52.2348C101.062 51.1304 102.113 49.9609 103.031 48.7915L102.506 48.4017C101.522 49.5711 100.538 50.6756 99.4875 51.7801L100.012 52.2348ZM109.791 40.0207C110.644 38.7863 111.431 37.4869 112.219 36.1876L111.628 35.8627C110.841 37.1621 110.053 38.4615 109.2 39.6959L109.791 40.0207ZM113.859 33.3289C114.581 32.0296 115.303 30.6652 115.959 29.3009L115.369 29.041C114.713 30.4054 113.991 31.7697 113.269 33.0691L113.859 33.3289ZM50.3344 215.761L50.2687 215.111C48.825 215.306 47.3156 215.241 45.8063 214.981L45.675 215.631C46.5938 215.761 47.5781 215.891 48.4969 215.891C49.0875 215.891 49.6781 215.826 50.3344 215.761ZM105.131 46.3227C106.05 45.1533 107.034 43.9188 107.887 42.6844L107.363 42.2946C106.509 43.529 105.525 44.6985 104.606 45.9329L105.131 46.3227ZM122.916 11.6944C123.375 10.2651 123.769 8.77078 124.162 7.34146L123.506 7.14656C123.112 8.64084 122.653 10.0701 122.259 11.4995L122.916 11.6944ZM117.403 26.3773C117.994 25.013 118.65 23.5836 119.241 22.2193L118.65 21.9594C118.059 23.3887 117.469 24.7531 116.878 26.1174L117.403 26.3773ZM120.422 19.1008C120.947 17.6715 121.472 16.2422 121.931 14.8129L121.341 14.618C120.881 16.0473 120.356 17.4766 119.831 18.9059L120.422 19.1008ZM68.3812 293.074L67.9875 292.554C66.675 293.464 65.3625 294.243 64.1156 294.958L64.4437 295.543C65.7562 294.763 67.0687 293.983 68.3812 293.074ZM74.7469 288.461L74.3531 287.941C73.0406 288.981 71.8594 289.825 70.6781 290.67L71.0719 291.19C72.2531 290.345 73.4344 289.436 74.7469 288.461ZM69.4313 76.793L69.825 77.3128C71.0062 76.3382 72.2531 75.4287 73.4344 74.5191L73.0406 73.9994C71.7938 74.8439 70.6125 75.8185 69.4313 76.793ZM93.975 57.3674L94.4344 57.8221C95.55 56.7826 96.6656 55.6782 97.7156 54.6387L97.2562 54.1839C96.2062 55.2234 95.1562 56.3279 93.975 57.3674ZM75.6656 71.9853L76.0594 72.5051C77.3063 71.5955 78.4875 70.686 79.7344 69.7764L79.3406 69.2566C78.0938 70.1662 76.9125 71.0758 75.6656 71.9853ZM88.5281 63.0196C89.7094 62.0451 90.8906 61.0056 92.0062 60.0311L91.5469 59.5763C90.4313 60.5508 89.25 61.5903 88.0687 62.5649L88.5281 63.0196ZM82.3594 67.8273C83.6062 66.9178 84.7875 65.9432 85.9688 65.0337L85.575 64.5139C84.3937 65.4235 83.2125 66.398 81.9656 67.3076L82.3594 67.8273ZM80.85 283.523L80.4562 283.004C79.275 283.978 78.0938 284.953 76.9125 285.862L77.3063 286.382C78.5531 285.408 79.7344 284.498 80.85 283.523ZM125.344 0C125.016 1.36434 124.688 2.72869 124.359 4.02806L125.016 4.158C125.344 2.79365 125.672 1.36434 126 0H125.344ZM31.7625 295.738C30.5156 294.958 29.2687 294.048 28.0875 293.074L27.6938 293.594C28.9406 294.568 30.1875 295.478 31.4344 296.322L31.7625 295.738ZM24.0187 194.581L23.4281 194.841C24.0844 196.27 24.7406 197.635 25.4625 198.934L26.0531 198.609C25.2656 197.31 24.6094 195.946 24.0187 194.581ZM0.65625 243.243L1.3125 243.178C1.11563 241.684 0.91875 240.189 0.853125 238.695L0.196875 238.76C0.2625 240.189 0.459375 241.684 0.65625 243.243ZM11.0906 272.609L11.6812 272.284C10.9594 270.984 10.2375 269.62 9.58125 268.256L8.99062 268.516C9.64687 269.945 10.3687 271.309 11.0906 272.609ZM11.2219 202.053C10.2375 203.222 9.25313 204.457 8.4 205.691L8.925 206.081C9.77812 204.846 10.6969 203.677 11.6812 202.507L11.2219 202.053ZM30.5156 119.607C29.7281 120.907 29.0062 122.271 28.2844 123.635L28.875 123.96C29.5969 122.661 30.3188 121.297 31.1063 119.997L30.5156 119.607ZM26.775 126.494C26.1187 127.858 25.4625 129.288 24.8719 130.652L25.4625 130.912C26.0531 129.548 26.7094 128.118 27.3656 126.754L26.775 126.494ZM31.3687 190.488L31.2375 189.839C29.7937 190.228 28.2844 190.683 26.8406 191.268L27.1031 191.853C28.4812 191.333 29.9906 190.878 31.3687 190.488ZM30.3188 205.041C29.4 203.937 28.4812 202.702 27.6281 201.403L27.1031 201.728C27.9562 203.027 28.875 204.262 29.7938 205.431L30.3188 205.041ZM8.20312 265.332C7.54688 263.968 6.95625 262.539 6.43125 261.174L5.84062 261.434C6.43125 262.863 7.02187 264.228 7.67812 265.657L8.20312 265.332ZM0.65625 235.382C0.65625 234.927 0.65625 234.537 0.65625 234.082C0.65625 232.978 0.65625 231.938 0.721875 230.834L0.065625 230.769C0 231.938 0 232.978 0 234.082C0 234.537 0 234.927 0 235.382H0.65625ZM6.62813 208.42C5.84063 209.719 5.11875 211.083 4.52813 212.513L5.11875 212.773C5.775 211.408 6.43125 210.044 7.21875 208.744L6.62813 208.42ZM4.59375 258.381L5.18438 258.186C4.92188 257.471 4.65937 256.756 4.39687 256.042C4.13438 255.327 3.9375 254.612 3.675 253.898L3.01875 254.093C3.21563 254.807 3.47812 255.522 3.74062 256.302C4.06875 256.886 4.33125 257.601 4.59375 258.381ZM54.2062 299.961L54.0094 299.311C52.5 299.701 50.9906 300.025 49.5469 300.155L49.6125 300.805C51.1875 300.675 52.6969 300.415 54.2062 299.961ZM1.05 223.038C0.721875 224.532 0.525 226.026 0.328125 227.585L0.984375 227.65C1.18125 226.156 1.37812 224.662 1.70625 223.167L1.05 223.038ZM3.21563 215.501C2.69062 216.931 2.23125 218.36 1.8375 219.854L2.49375 220.049C2.8875 218.62 3.34687 217.125 3.87188 215.761L3.21563 215.501ZM2.8875 250.714C2.49375 249.22 2.16563 247.791 1.90313 246.296L1.24687 246.426C1.50937 247.921 1.90313 249.415 2.23125 250.909L2.8875 250.714ZM20.2781 285.213C19.3594 284.043 18.4406 282.874 17.5219 281.639L16.9969 282.029C17.9156 283.264 18.8344 284.498 19.8188 285.667L20.2781 285.213ZM20.7375 187.435C21.1969 188.929 21.6562 190.358 22.1812 191.788L22.7719 191.593C22.2469 190.228 21.7875 188.734 21.3281 187.305L20.7375 187.435ZM25.2 291.385L25.6594 290.93C24.6094 289.955 23.4937 288.851 22.4438 287.681L21.9844 288.136C23.0344 289.306 24.0844 290.41 25.2 291.385ZM57.3563 212.123L56.8312 211.733C55.9781 212.837 54.7969 213.682 53.2875 214.332L53.55 214.916C55.125 214.267 56.3719 213.357 57.3563 212.123ZM23.6906 133.706C23.1656 135.135 22.6406 136.564 22.1156 137.994L22.7062 138.188C23.1656 136.759 23.6906 135.33 24.2812 133.901L23.6906 133.706ZM61.6219 297.102L61.2938 296.517C59.9156 297.232 58.4719 297.817 57.1594 298.336L57.4219 298.921C58.7344 298.401 60.1781 297.817 61.6219 297.102ZM16.9969 196.725C15.75 197.635 14.5688 198.674 13.4531 199.714L13.9125 200.169C14.9625 199.129 16.1437 198.155 17.3906 197.245L16.9969 196.725ZM12.7312 275.467C13.5188 276.767 14.3063 278.131 15.1594 279.365L15.6844 279.041C14.8969 277.806 14.0438 276.507 13.2563 275.207L12.7312 275.467ZM17.6531 164.826C17.6531 166.125 17.6531 167.489 17.7188 168.789H18.375C18.3094 167.489 18.3094 166.19 18.3094 164.891V164.306H17.6531V164.826ZM19.95 145.53L20.6062 145.66C20.9344 144.231 21.3281 142.736 21.7875 141.307L21.1313 141.112C20.6719 142.541 20.2781 144.036 19.95 145.53ZM17.7188 160.992H18.375C18.4406 159.498 18.5719 157.939 18.7031 156.445L18.0469 156.38C17.9156 157.939 17.7844 159.433 17.7188 160.992ZM23.8219 192.632C22.4438 193.282 21.0656 194.062 19.7531 194.841L20.0813 195.361C21.3938 194.581 22.7063 193.802 24.0844 193.152L23.8219 192.632ZM18.9656 179.833C19.2281 181.328 19.5562 182.822 19.8844 184.316L20.5406 184.186C20.2125 182.757 19.8844 181.263 19.6219 179.768L18.9656 179.833ZM17.9156 172.037C18.0469 173.531 18.1781 175.091 18.4406 176.585L19.0969 176.52C18.9 175.026 18.7031 173.531 18.5719 172.037H17.9156ZM18.4406 153.196L19.0969 153.261C19.2938 151.767 19.5562 150.273 19.8844 148.778L19.2281 148.648C18.9656 150.208 18.7031 151.702 18.4406 153.196Z" fill="#645D33"/>
</svg>
