<svg width="303" height="224" viewBox="0 0 303 224" fill="none" xmlns="http://www.w3.org/2000/svg">
<g clip-path="url(#clip0)">
<path d="M245.776 168.69C233.086 134.256 229.614 96.4628 235.72 60.2292C235.84 59.7493 235.959 59.1494 236.318 58.9095C237.755 57.7097 238.833 62.5088 239.072 63.2287C239.91 65.6283 240.748 67.9079 241.586 70.3074C243.262 74.9866 244.818 79.7858 246.135 84.5849C248.889 93.9432 251.163 103.422 252.48 113.02C255.114 131.497 254.276 150.693 247.811 168.21C247.572 168.93 246.853 169.77 246.135 169.41C246.015 169.41 245.896 169.05 245.776 168.69C245.776 168.81 245.776 168.69 245.776 168.69Z" fill="#3A3F57"/>
<path d="M246.135 150.213C246.135 150.093 246.135 150.093 246.015 149.973C242.783 138.455 240.509 126.697 239.192 114.82C237.875 103.302 236.678 91.7837 237.635 80.2657C237.755 78.586 239.072 76.4264 240.269 78.706C240.868 79.6658 240.389 82.3054 240.509 83.5052C240.628 86.6246 240.868 89.744 240.987 92.8635C241.347 99.1024 241.945 105.341 242.544 111.46C243.861 123.818 245.537 136.296 247.691 148.534C247.811 149.133 247.931 149.733 247.691 150.213C247.452 150.693 246.734 151.053 246.255 150.573C246.255 150.453 246.255 150.333 246.135 150.213Z" fill="#495382"/>
<path d="M241.706 96.3429C243.741 94.4232 245.776 92.3836 247.931 90.464C248.17 91.4238 248.41 92.3836 248.649 93.4634C247.572 95.0231 246.494 96.4629 245.297 97.9026C244.339 99.1024 242.544 101.982 240.987 102.582C240.149 102.942 239.551 102.342 239.192 101.502C238.354 98.9824 240.03 97.9026 241.706 96.3429Z" fill="#495382"/>
<path d="M242.065 117.219C245.297 113.74 248.41 110.38 251.642 106.901C251.881 107.861 252.001 108.941 252.121 109.9C249.607 113.26 247.213 116.739 244.699 120.099C244.22 120.818 242.544 122.138 242.065 120.698C241.945 120.459 241.945 120.219 241.825 119.859C241.586 119.019 241.466 117.699 242.065 117.219Z" fill="#495382"/>
<path d="M244.699 132.576C247.452 129.217 250.445 126.098 253.558 123.098C253.677 124.538 253.797 125.978 253.797 127.417C251.163 130.657 248.649 134.016 246.015 137.255C245.537 137.735 244.699 138.815 243.98 137.975C243.741 137.735 243.621 137.256 243.621 136.776C243.621 135.336 244.22 133.176 244.699 132.576Z" fill="#495382"/>
<path d="M27.7741 51.4709C32.3232 86.9845 31.8444 122.618 24.5417 157.892C24.422 158.732 23.2249 158.372 23.3446 157.532C30.6472 122.498 31.0064 86.9845 26.4572 51.4709C26.4572 50.751 27.6543 50.751 27.7741 51.4709Z" fill="#68422D"/>
<path d="M24.0629 32.6343C24.1826 32.5143 24.3023 32.2744 24.422 32.2744C24.6614 32.2744 24.7812 32.3943 25.0206 32.6343C27.1755 35.1538 28.4923 38.2733 29.0909 41.3927C29.4501 43.6723 29.4501 45.9519 29.2106 48.2315C29.0909 49.3113 28.8515 50.3911 28.6121 51.4709C28.4923 52.3108 28.3726 53.2706 27.5346 53.7505C27.4149 53.8705 27.1755 53.8705 27.0558 53.8705C26.8163 53.8705 26.5769 53.5105 26.4572 53.2706C24.9009 50.0312 23.584 46.7917 22.8657 43.3124C22.2671 39.833 22.3868 36.1137 23.9431 32.8742C24.0629 32.7543 24.0629 32.6343 24.0629 32.6343Z" fill="#68422D"/>
<path d="M35.9147 53.9904C35.9147 53.9904 36.0344 53.9904 36.0344 53.8705C36.2738 53.7505 36.5133 53.9904 36.633 54.2304C36.7527 54.4704 36.633 54.7103 36.633 55.0702C36.2738 57.7098 35.6753 60.2293 34.3584 62.7489C33.0415 65.1485 31.3655 66.8282 29.45 68.7478C29.3303 68.8678 29.2106 68.9878 29.0909 68.8678C28.7317 68.8678 28.7318 68.3879 28.7318 68.0279C29.5698 62.8689 31.9641 57.9497 35.5555 54.1104C35.6753 54.1104 35.795 54.1104 35.9147 53.9904Z" fill="#68422D"/>
<path d="M19.6334 55.9101C19.7531 55.5501 20.232 55.6701 20.4714 55.7901C22.8657 57.1099 24.9009 59.1495 26.4572 61.4291C27.1755 62.6289 27.8938 63.9486 28.2529 65.2684C28.4924 65.9883 28.6121 66.5881 28.8515 67.308C28.9712 67.9079 29.2107 68.7478 28.2529 68.3878C27.1755 68.0279 26.2178 67.188 25.4995 66.2282C24.3023 64.7885 23.2249 63.1088 22.2671 61.4291C21.3094 59.7494 20.3517 57.9497 19.6334 56.15C19.6334 56.15 19.5137 56.03 19.6334 55.9101Z" fill="#68422D"/>
<path d="M190.946 77.0262C190.946 76.1864 192.143 76.1864 192.143 77.0262C194.059 110.98 200.524 144.574 211.298 176.848C211.537 177.568 210.34 177.928 210.101 177.208C199.326 144.934 192.862 111.22 190.946 77.0262Z" fill="#68422D"/>
<path d="M179.573 74.9866C176.7 74.0268 178.017 69.9475 178.376 67.7879C179.573 60.8291 186.397 63.9486 189.989 67.6679C189.629 66.4681 189.39 65.1484 189.151 63.8286C188.911 62.6288 188.432 60.9491 188.791 59.6294C189.51 57.3498 192.503 57.2298 194.418 57.3498C196.573 57.4697 198.967 58.4296 199.207 60.8291C199.326 61.789 198.848 62.7488 198.369 63.5886C197.65 64.9084 196.932 66.2282 196.214 67.428C198.249 66.3481 200.524 65.5083 202.439 65.6283C205.193 65.8682 205.552 69.5876 206.031 71.7472C207.347 77.6261 201.481 76.4263 197.172 74.8666C199.207 75.9464 201.362 76.9063 202.2 79.1859C203.038 81.4654 201.721 83.2651 199.925 84.4649C197.89 85.7847 195.735 86.2646 194.179 84.105C193.101 82.5452 192.383 80.6256 191.904 78.586C190.946 83.0252 188.911 87.7043 184.362 84.3449C182.566 83.0252 180.292 80.7456 181.609 78.346C182.207 77.1462 183.404 76.4263 184.482 75.7065C185.559 74.9866 186.756 74.2667 187.953 73.5469C186.517 73.9068 184.961 74.1468 183.524 74.3867C182.087 74.9866 180.771 75.3465 179.573 74.9866Z" fill="#C1A073"/>
<path d="M188.193 72.5871C188.193 71.9872 188.313 71.3873 188.552 70.9074C188.911 70.3075 189.39 69.8276 190.108 69.4676C191.066 68.8677 192.383 68.7478 193.46 69.1077C195.974 69.9475 196.693 73.187 194.897 75.1066C193.939 76.0664 192.622 76.5464 191.305 76.3064C189.989 76.0664 188.911 74.9866 188.432 73.7869C188.313 73.4269 188.193 73.067 188.193 72.5871Z" fill="#FFBE17"/>
<path d="M232.248 171.929C225.305 128.857 220.516 85.5447 217.763 41.9925C217.643 40.7927 219.558 40.7927 219.678 41.9925C222.431 85.3048 227.34 128.497 234.164 171.449C234.283 172.649 232.488 173.129 232.248 171.929Z" fill="#645D33"/>
<path d="M205.192 81.8254C205.432 81.8254 205.671 81.8254 205.911 81.8254C210.101 82.4253 213.932 84.4649 217.044 87.2244C218.122 88.1842 225.185 95.8629 223.269 96.8227C222.91 97.0626 222.312 96.9427 221.833 96.9427C214.291 95.7429 207.347 90.5838 204.235 83.5051C204.115 83.1451 203.995 82.7852 204.115 82.4253C204.354 81.9453 204.714 81.8254 205.192 81.8254Z" fill="#645D33"/>
<path d="M214.77 134.376C215.009 134.376 215.249 134.496 215.488 134.496C219.439 135.816 223.03 138.335 225.664 141.575C226.622 142.774 232.248 151.413 230.213 152.133C229.734 152.253 229.255 152.133 228.776 152.013C221.474 149.613 215.608 143.254 213.692 135.816C213.573 135.456 213.573 135.096 213.692 134.736C213.932 134.496 214.291 134.376 214.77 134.376Z" fill="#645D33"/>
<path d="M237.755 110.98C237.994 111.22 238.114 111.58 238.114 112.06C238.713 119.739 235.121 127.537 228.896 132.216C228.537 132.456 228.058 132.816 227.579 132.816C225.424 132.816 228.058 122.738 228.537 121.418C229.974 117.459 232.488 113.98 235.84 111.46C236.079 111.34 236.199 111.22 236.438 111.1C237.037 110.74 237.516 110.74 237.755 110.98Z" fill="#645D33"/>
<path d="M246.853 143.134C247.093 143.494 246.973 143.854 246.973 144.214C245.417 151.773 239.79 158.372 232.607 161.131C232.128 161.251 231.65 161.491 231.29 161.371C229.255 160.771 234.403 151.893 235.361 150.693C237.875 147.334 241.227 144.574 245.177 143.134C245.417 143.015 245.656 143.015 245.896 142.895C246.255 142.655 246.614 142.775 246.853 143.134Z" fill="#645D33"/>
<path d="M195.615 33.8339C196.094 33.474 196.812 33.1141 197.172 32.7541C196.693 32.6342 196.094 32.5142 195.735 32.1543C194.658 31.0744 194.897 29.6347 195.974 28.6749C197.531 27.1151 200.643 26.3953 202.678 25.9154C203.516 25.6754 204.354 25.5554 205.192 25.4354C204.115 25.1955 203.157 24.8356 202.2 24.3556C200.643 23.6358 197.65 21.8361 199.686 19.9164C199.925 19.6765 200.284 19.5565 200.524 19.4365C201.84 18.9566 201.721 19.0766 201.002 17.8768C200.524 17.0369 199.805 16.4371 200.404 15.3573C200.763 14.6374 201.362 14.2774 202.08 14.1575C202.918 14.0375 203.995 14.7574 204.833 14.8773C204.953 14.8773 205.192 14.9973 205.432 14.8773C206.39 14.6374 205.312 13.3176 205.192 12.8377C204.953 11.9978 204.953 11.278 205.312 10.4381C205.911 9.11837 207.347 8.39849 208.784 8.51846C210.699 8.63844 212.375 10.1982 213.692 11.5179C214.77 12.4778 215.727 13.5576 216.565 14.7574C216.087 12.2378 215.488 9.71825 215.368 7.31868C215.249 5.15906 215.727 2.87948 217.763 1.79968C218.601 1.31976 219.439 1.19978 220.396 1.43974C221.474 1.79967 221.953 2.87948 223.03 3.3594C224.826 4.19925 226.981 2.39956 228.537 3.71932C229.136 4.19923 229.375 4.91911 229.495 5.63899C229.614 5.99892 229.375 6.83877 229.614 7.19871C230.572 9.35832 231.53 8.15852 232.727 7.91857C234.403 7.55863 235.959 8.15853 236.558 9.83823C237.276 12.2378 235.241 14.5174 233.685 16.0771C232.368 17.5169 230.931 18.7166 229.375 19.7965C231.769 19.0766 234.164 18.3567 236.558 17.7568C238.593 17.1569 241.107 16.797 242.783 18.5967C243.861 19.6765 244.1 21.3562 243.262 22.6759C242.783 23.5158 241.825 23.6358 241.825 24.5956C241.945 25.6754 242.544 25.4354 243.262 26.0353C243.861 26.5153 244.339 27.1151 244.339 27.955C244.339 28.5549 243.98 29.0348 243.621 29.3947C242.903 29.9946 241.227 29.8746 241.586 30.7145C241.945 31.4344 242.903 31.4344 243.142 32.5142C243.262 33.234 243.023 33.9539 242.663 34.5538C241.347 36.4735 238.473 35.8736 236.558 35.6336C235.84 35.5136 235.241 35.3937 234.523 35.2737C236.678 37.1933 238.473 39.5929 239.431 42.3524C240.03 44.0321 240.269 46.1917 238.473 47.2715C237.635 47.7514 237.157 47.5115 236.319 47.5115C235.48 47.5115 234.403 46.7916 233.685 47.6315C233.804 47.5115 233.445 49.4312 233.565 49.4312C233.086 50.6309 232.009 51.4708 230.692 50.7509C229.495 50.151 230.093 48.9512 228.298 49.7911C227.579 50.151 227.46 50.7509 226.502 50.7509C224.347 50.8709 223.509 48.4713 222.91 46.7916C222.551 45.7118 222.192 44.632 221.833 43.5522C221.594 45.7118 220.875 47.8714 219.439 49.5511C218.72 50.391 217.523 51.2308 216.446 51.2308C214.77 51.2308 214.411 50.031 213.932 48.7113C213.812 48.4713 213.453 47.3915 213.094 47.6315C212.974 47.6315 212.974 47.7515 212.974 47.8714C212.735 48.4713 212.495 49.1912 211.777 49.4312C210.58 50.031 209.981 49.4312 209.502 48.4713C209.143 47.8714 208.784 47.1516 207.946 47.1516C206.988 47.0316 206.27 47.8714 205.312 47.2715C203.636 46.1917 204.115 44.1521 204.833 42.8323C205.312 41.9925 205.911 41.1526 206.509 40.4328C205.552 41.0327 204.474 41.3926 203.397 41.7525C201.84 42.2325 199.925 42.4724 198.728 41.0327C197.411 39.4729 198.848 37.5533 200.284 36.8334C199.207 36.9534 197.89 37.0734 196.693 37.0734C195.855 37.0734 195.017 36.7134 194.777 35.8736C194.418 35.0337 194.897 34.3139 195.615 33.8339Z" fill="#C1A073"/>
<path d="M209.383 31.3144C208.664 29.3947 209.622 27.595 211.298 26.7552C210.58 25.1955 210.58 23.3958 211.777 21.9561C213.094 20.2764 215.249 19.9164 217.164 20.6363C218.601 19.0766 220.396 17.7568 222.551 18.3567C223.868 18.7166 224.706 19.7964 224.826 20.9962C225.784 20.7563 226.981 20.8762 227.699 21.7161C228.776 22.7959 229.016 24.3556 228.537 25.6754C229.974 26.2753 230.812 28.075 230.333 29.6347C229.974 30.9544 229.016 31.7943 227.938 32.2742C228.657 33.474 228.657 35.0337 227.579 36.3535C225.903 38.3931 223.27 38.1532 221.234 36.8334C220.157 38.0332 218.481 38.7531 216.685 38.2731C214.77 37.7932 213.573 35.8736 213.453 33.9539C211.897 34.0739 209.981 33.1141 209.383 31.3144Z" fill="#FFC152"/>
<path d="M217.044 24.2356C218.241 23.6357 219.917 23.6357 221.115 23.9957C223.269 24.5956 224.706 26.8752 224.467 29.1547C224.227 31.3144 222.192 33.234 220.037 33.354C217.763 33.474 215.608 31.9143 215.009 29.7546C214.53 28.1949 215.009 26.3952 215.967 25.0755C216.206 24.8355 216.565 24.4756 217.044 24.2356Z" fill="#9F5D3A"/>
<path d="M257.987 59.0295C274.867 83.3852 289.831 108.941 303 135.456C303.359 136.176 302.282 136.776 301.923 136.056C288.874 109.66 273.909 84.225 257.149 59.8694C256.55 59.1495 257.508 58.3097 257.987 59.0295Z" fill="#68422D"/>
<path d="M242.304 40.5529C242.185 40.1929 242.304 39.713 242.663 39.593C242.903 39.4731 243.142 39.593 243.501 39.713C251.762 42.7125 255.832 50.991 258.107 59.0296C258.226 59.5095 258.226 60.3493 257.748 60.4693C257.388 60.5893 257.029 60.3493 256.79 60.1094C250.804 54.8303 246.015 48.3515 242.544 41.1528C242.424 40.9128 242.424 40.6729 242.304 40.5529Z" fill="#68422D"/>
<path d="M270.198 79.4259C270.078 79.3059 270.078 79.066 269.959 78.946C266.846 71.6273 265.05 63.8287 264.691 55.7901C264.691 55.5502 264.691 55.3102 264.811 55.0702C265.05 54.7103 265.529 54.7103 265.888 54.8303C266.607 55.1902 267.085 56.39 267.445 57.1099C268.043 58.1897 268.642 59.2695 269.121 60.2293C270.198 62.269 271.156 64.4286 271.874 66.7082C273.071 70.5475 273.43 74.8667 272.113 78.5861C271.874 79.186 271.515 79.9058 270.916 79.7858C270.557 79.7858 270.437 79.6659 270.198 79.4259Z" fill="#68422D"/>
<path d="M283.247 100.902C283.127 100.782 283.127 100.542 283.008 100.422C279.895 93.1035 278.099 85.3049 277.74 77.2663C277.74 77.0264 277.74 76.7864 277.86 76.5465C278.099 76.1865 278.578 76.1865 278.937 76.3065C279.656 76.6664 280.134 77.8662 280.494 78.5861C281.092 79.6659 281.691 80.7457 282.17 81.7055C283.247 83.7452 284.205 85.9048 284.923 88.1844C286.12 92.0237 286.479 96.3429 285.162 100.062C284.923 100.662 284.564 101.382 283.965 101.262C283.606 101.262 283.367 101.142 283.247 100.902Z" fill="#68422D"/>
<path d="M291.507 114.94C291.507 114.82 291.388 114.7 291.388 114.46C290.31 107.741 290.31 100.902 291.747 94.3032C291.747 94.0633 291.867 93.9433 291.986 93.8233C292.226 93.5834 292.705 93.7033 292.944 93.8233C293.423 94.3032 293.543 95.383 293.782 95.9829C294.021 96.9428 294.261 97.9026 294.5 98.9824C294.979 100.902 295.338 102.822 295.458 104.861C295.697 108.341 295.099 111.82 293.183 114.7C292.944 115.179 292.345 115.659 291.867 115.419C291.747 115.419 291.627 115.179 291.507 114.94Z" fill="#68422D"/>
<path d="M284.205 101.022C284.085 101.622 283.367 101.862 282.648 101.862C278.578 101.862 274.747 100.062 271.515 97.5427C269.599 96.103 267.923 94.5432 266.367 92.7436C265.529 91.9037 264.811 90.9439 263.973 90.104C263.494 89.5041 262.536 88.6643 262.417 87.9444C262.417 87.5845 262.536 87.1046 263.015 86.9846C263.255 86.9846 263.494 86.9846 263.733 87.1046C271.036 90.104 277.86 94.5432 283.606 99.9423C283.726 100.062 283.846 100.182 283.965 100.302C284.085 100.542 284.205 100.782 284.205 101.022Z" fill="#68422D"/>
<path d="M292.944 116.859C292.944 117.459 292.106 117.819 291.507 117.819C287.557 118.299 283.486 116.979 279.895 115.06C277.86 113.86 275.944 112.54 274.268 110.98C273.311 110.26 272.473 109.421 271.515 108.581C270.916 108.101 269.959 107.381 269.719 106.541C269.599 106.181 269.719 105.701 270.198 105.581C270.437 105.461 270.677 105.581 270.916 105.581C278.578 107.621 285.881 111.1 292.226 115.779C292.345 115.899 292.465 116.019 292.585 116.139C292.824 116.379 292.944 116.619 292.944 116.859Z" fill="#68422D"/>
<path d="M270.916 79.426C270.916 80.0258 270.198 80.2658 269.599 80.2658C266.008 80.5058 262.417 79.186 259.304 77.2663C257.508 76.1865 255.952 74.8668 254.396 73.427C253.558 72.7072 252.839 71.9873 252.001 71.1474C251.522 70.6675 250.565 70.0676 250.445 69.2278C250.325 68.8678 250.565 68.3879 250.924 68.3879C251.163 68.3879 251.283 68.3879 251.522 68.5079C258.346 70.6675 264.811 74.0269 270.318 78.4661C270.437 78.5861 270.557 78.7061 270.677 78.8261C270.797 78.946 270.916 79.186 270.916 79.426Z" fill="#68422D"/>
<path d="M211.298 175.649C211.418 175.889 211.537 176.248 211.418 176.488C211.178 177.208 210.101 176.968 209.383 176.608C193.221 167.37 180.292 153.093 170.475 137.255C165.327 128.977 161.017 120.218 157.067 111.34C155.032 106.781 153.236 102.102 151.44 97.4226C150.602 95.143 149.644 92.7434 148.806 90.3438C148.567 89.624 146.292 85.3047 148.208 85.1848C148.687 85.1848 149.166 85.5447 149.525 85.9046C177.418 109.78 198.967 141.095 211.298 175.649Z" fill="#3A3F57"/>
<path d="M199.207 162.091C199.207 162.691 198.369 162.931 197.89 162.691C197.411 162.451 197.052 161.971 196.812 161.491C190.587 150.693 184.003 140.135 177.059 129.817C173.588 124.658 169.996 119.499 166.285 114.459C164.489 111.94 162.574 109.42 160.658 106.901C159.94 105.941 158.025 104.261 157.785 103.062C157.306 100.422 159.581 101.382 160.778 102.462C168.919 110.74 175.383 120.338 181.728 129.937C188.313 139.895 194.179 150.453 199.087 161.251C199.087 161.371 199.207 161.371 199.207 161.491C199.087 161.851 199.207 161.971 199.207 162.091Z" fill="#495382"/>
<path d="M168.081 117.459C165.207 117.219 162.454 117.099 159.581 116.859C160.06 117.819 160.419 118.659 160.898 119.619C162.693 120.098 164.489 120.578 166.285 120.938C167.841 121.298 170.954 122.258 172.51 121.778C173.348 121.538 173.468 120.578 173.228 119.738C172.39 117.459 170.236 117.579 168.081 117.459Z" fill="#495382"/>
<path d="M181.13 133.776C176.461 133.176 171.792 132.576 167.243 131.976C167.722 132.816 168.2 133.776 168.799 134.616C172.869 135.696 176.94 136.655 181.01 137.735C181.848 137.975 184.003 137.975 183.524 136.536C183.404 136.296 183.285 136.056 183.165 135.816C182.686 134.736 181.848 133.776 181.13 133.776Z" fill="#495382"/>
<path d="M188.911 147.214C184.721 146.374 180.411 145.894 175.982 145.654C176.82 146.854 177.658 147.934 178.496 149.133C182.566 149.973 186.637 150.813 190.827 151.653C191.545 151.773 192.862 152.013 192.862 150.933C192.862 150.573 192.742 150.213 192.383 149.853C191.545 148.653 189.749 147.454 188.911 147.214Z" fill="#495382"/>
<path d="M41.1822 210.322C48.9637 174.449 66.3224 140.735 90.9838 113.62C91.343 113.26 91.7021 112.9 92.181 112.78C94.0964 112.66 92.4204 117.219 92.181 117.939C91.5824 120.339 91.1036 122.858 90.505 125.258C89.3078 130.177 88.1107 134.976 86.6741 139.775C83.9206 149.133 80.808 158.372 76.7377 167.25C69.0759 184.167 58.0621 200.004 43.0976 211.162C42.4991 211.642 41.4216 212.002 41.0625 211.282C40.9428 211.042 41.0625 210.682 41.1822 210.322C41.1822 210.442 41.1822 210.442 41.1822 210.322Z" fill="#3A3F57"/>
<path d="M51.4777 194.965C51.4777 194.845 51.4777 194.845 51.5975 194.725C55.0692 183.327 59.4987 172.169 64.7662 161.371C69.7942 151.053 75.0617 140.615 82.0052 131.377C82.9629 130.057 85.2375 128.857 84.9981 131.497C84.8784 132.696 83.2024 134.616 82.6038 135.696C81.0475 138.455 79.4912 141.095 78.0546 143.854C75.0617 149.373 72.1885 154.892 69.3154 160.411C63.6887 171.569 58.541 182.847 53.7523 194.365C53.5129 194.845 53.2735 195.445 52.7946 195.805C52.3158 196.165 51.4777 195.925 51.358 195.445C51.358 195.325 51.358 195.085 51.4777 194.965Z" fill="#495382"/>
<path d="M76.618 147.214C79.3715 146.614 82.2446 146.134 84.9981 145.534C84.639 146.494 84.3995 147.454 84.0404 148.414C82.3644 149.133 80.5686 149.853 78.8926 150.333C77.3363 150.813 74.3434 152.253 72.7871 152.013C71.8294 151.893 71.7097 151.053 71.8294 150.093C72.3082 147.694 74.4631 147.574 76.618 147.214Z" fill="#495382"/>
<path d="M65.7239 164.971C70.2731 163.771 74.8223 162.571 79.2518 161.371C78.8926 162.331 78.4138 163.291 78.0546 164.251C74.104 165.81 70.1534 167.37 66.3225 168.81C65.4845 169.17 63.4493 169.41 63.6888 167.85C63.6888 167.61 63.8085 167.37 63.9282 167.01C64.2873 166.17 65.0056 165.091 65.7239 164.971Z" fill="#495382"/>
<path d="M59.7381 179.368C63.8084 178.048 67.9985 176.968 72.3082 176.249C71.59 177.448 70.9914 178.768 70.2731 179.968C66.3225 181.288 62.3719 182.727 58.4212 184.047C57.8227 184.287 56.5058 184.647 56.2664 183.567C56.2664 183.207 56.3861 182.847 56.6255 182.368C57.3438 181.048 58.9001 179.608 59.7381 179.368Z" fill="#495382"/>
<path d="M55.7875 222.56C70.8716 189.086 94.695 159.692 124.504 138.095C124.863 137.855 125.342 137.495 125.941 137.495C127.856 137.735 125.223 141.815 124.863 142.535C123.786 144.814 122.828 147.094 121.751 149.373C119.596 153.933 117.321 158.372 115.047 162.811C110.497 171.449 105.469 179.728 99.6034 187.647C88.5896 202.644 74.4631 215.841 57.5832 223.76C56.8649 224.12 55.7875 224.24 55.5481 223.52C55.4283 223.16 55.5481 222.92 55.7875 222.56Z" fill="#3A3F57"/>
<path d="M68.9562 209.603C68.9562 209.483 69.0759 209.483 69.0759 209.363C74.8223 198.925 81.5264 188.846 88.829 179.488C95.8922 170.37 103.195 161.371 111.934 153.693C113.131 152.613 115.645 151.893 114.927 154.532C114.568 155.612 112.533 157.172 111.814 158.132C109.779 160.411 107.744 162.811 105.709 165.211C101.639 169.89 97.688 174.689 93.7373 179.608C85.9558 189.326 78.5335 199.404 71.4703 209.603C71.1111 210.083 70.752 210.562 70.2731 210.802C69.7942 211.042 68.9562 210.682 68.9562 210.083C68.8365 209.843 68.9562 209.723 68.9562 209.603Z" fill="#495382"/>
<path d="M103.434 167.97C106.307 167.97 109.181 168.09 111.934 168.09C111.455 168.93 110.976 169.89 110.378 170.73C108.582 171.089 106.786 171.329 104.871 171.569C103.315 171.809 100.082 172.529 98.526 171.929C97.688 171.569 97.688 170.73 98.0471 169.89C99.2443 167.61 101.279 167.97 103.434 167.97Z" fill="#495382"/>
<path d="M89.1882 183.207C93.8571 182.967 98.526 182.727 103.195 182.487C102.596 183.327 101.998 184.167 101.399 185.007C97.2091 185.727 93.1388 186.447 88.9488 187.047C88.1107 187.167 85.9559 187.047 86.5544 185.607C86.6742 185.367 86.7939 185.127 86.9136 184.887C87.5122 184.047 88.3502 183.207 89.1882 183.207Z" fill="#495382"/>
<path d="M80.3292 196.045C84.6389 195.565 88.9487 195.445 93.2585 195.565C92.3007 196.645 91.343 197.725 90.3853 198.804C86.1953 199.284 82.1249 199.884 77.9349 200.364C77.2166 200.484 75.8997 200.484 75.8997 199.524C75.8997 199.164 76.1392 198.804 76.4983 198.445C77.5757 197.245 79.4912 196.165 80.3292 196.045Z" fill="#495382"/>
<path d="M54.1115 165.211C54.1115 165.451 53.9918 165.81 53.7523 166.05C53.1538 166.53 52.3158 165.81 51.9566 165.091C42.4991 149.013 38.309 130.177 37.5907 111.58C37.2316 101.862 37.8302 92.1436 38.9076 82.4254C39.5062 77.5062 40.1048 72.4672 40.9428 67.548C41.3019 65.0285 41.7808 62.6289 42.1399 60.1093C42.2596 59.2695 42.4991 54.4704 44.1751 55.3102C44.6539 55.5502 44.7737 56.0301 45.0131 56.51C57.4635 91.1838 60.5761 128.977 54.1115 165.211Z" fill="#3A3F57"/>
<path d="M50.4003 147.454C50.0412 147.934 49.3229 147.814 48.9637 147.334C48.6046 146.854 48.6046 146.254 48.6046 145.654C48.6046 133.176 48.1257 120.699 47.168 108.221C46.6891 101.982 46.0905 95.743 45.492 89.6241C45.1328 86.5046 44.7737 83.3852 44.4145 80.3857C44.2948 79.186 43.4568 76.7864 43.8159 75.7066C44.6539 73.187 46.33 75.1067 46.6891 76.7864C49.5623 87.9444 50.52 99.5823 51.2383 111.1C51.9566 123.098 51.8369 135.096 50.7594 146.974C50.7594 147.094 50.7594 147.094 50.7594 147.214C50.52 147.214 50.4003 147.334 50.4003 147.454Z" fill="#495382"/>
<path d="M45.4919 93.2235C43.0976 91.6638 40.7033 90.104 38.309 88.5443C38.1893 89.5042 38.1893 90.584 38.0696 91.5438C39.3865 92.8636 40.7033 94.1833 42.1399 95.3831C43.3371 96.4629 45.4919 98.9825 47.168 99.2224C48.1257 99.4624 48.6045 98.7425 48.7243 97.7827C49.3228 95.2631 47.4074 94.4233 45.4919 93.2235Z" fill="#495382"/>
<path d="M48.7242 113.74C45.0131 110.86 41.3019 108.101 37.5907 105.221C37.5907 106.301 37.5907 107.261 37.5907 108.341C40.5836 111.22 43.6962 114.22 46.6891 117.099C47.2877 117.699 49.2031 118.779 49.4425 117.219C49.4425 116.979 49.5623 116.739 49.5623 116.379C49.5623 115.42 49.4425 114.22 48.7242 113.74Z" fill="#495382"/>
<path d="M48.844 129.337C45.6116 126.458 42.1399 123.938 38.4287 121.538C38.5484 122.978 38.7879 124.418 38.9076 125.738C42.0202 128.497 45.1328 131.257 48.3651 134.016C48.844 134.496 49.9214 135.336 50.52 134.376C50.6397 134.136 50.7594 133.656 50.6397 133.176C50.4003 131.977 49.4425 129.937 48.844 129.337Z" fill="#495382"/>
<path d="M139.349 114.819C141.264 113.02 144.018 114.699 145.694 115.899C147.25 116.979 148.567 118.179 149.764 119.499C148.806 117.339 147.968 115.299 147.011 113.14C144.856 111.22 143.06 108.941 141.743 106.301C141.145 105.101 140.785 103.661 141.504 102.582C141.743 102.222 142.222 101.982 142.581 101.862C143.3 101.622 144.138 101.742 144.736 102.102C145.814 102.702 146.532 103.781 146.891 104.981C147.849 107.621 148.447 110.14 148.208 113.02C149.644 116.139 151.081 119.379 152.398 122.618C152.278 120.578 152.398 118.539 152.996 116.619C153.475 115.059 155.032 113.5 156.827 114.22C158.863 115.179 158.384 117.939 157.905 119.499C157.306 122.258 155.989 124.658 154.194 126.817C155.271 129.697 156.349 132.456 157.306 135.336C157.426 133.776 157.785 132.216 158.384 130.777C159.102 128.857 160.658 126.097 163.172 126.697C168.679 128.137 161.137 138.095 159.102 140.615C159.94 143.134 160.658 145.654 161.496 148.293C161.975 146.494 162.454 144.694 163.172 142.894C163.651 141.695 164.729 140.855 165.926 141.575C169.278 143.614 164.13 148.653 162.095 150.573C163.053 154.052 164.01 157.412 164.729 160.891C164.968 161.611 163.771 162.091 163.531 161.251C162.693 157.772 161.855 154.412 160.898 150.933C160.778 150.813 160.658 150.813 160.658 150.693C157.546 150.573 154.553 149.853 151.919 148.293C150.363 147.454 146.652 145.414 147.849 143.134C149.046 140.975 152.278 142.654 153.715 143.374C156.229 144.574 158.264 146.374 160.179 148.293C159.341 145.654 158.623 143.014 157.665 140.255C157.546 140.255 157.426 140.135 157.306 140.015C154.433 139.175 151.799 137.735 149.525 135.816C148.328 134.856 145.095 132.456 146.771 130.657C148.328 128.977 151.081 131.137 152.398 132.216C153.835 133.296 155.032 134.616 156.109 135.936C154.673 131.856 153.236 127.897 151.56 123.938C151.56 123.938 151.44 123.938 151.44 123.818C149.405 122.978 147.49 122.018 145.454 121.178C143.659 120.338 141.624 119.739 139.947 118.659C138.75 118.179 137.793 116.259 139.349 114.819Z" fill="#68422D"/>
<path d="M47.7665 123.098C45.8511 123.578 43.6962 123.458 41.7808 123.578C39.6259 123.698 37.471 123.818 35.3161 123.938L35.1964 123.938C32.3232 127.057 29.4501 130.417 26.8163 133.656C28.2529 132.696 29.9289 131.976 31.6049 131.377C33.1612 130.897 36.5133 129.817 37.471 131.976C38.4287 134.256 34.5978 135.336 33.1612 135.936C30.4078 136.896 27.4149 137.255 24.422 137.135C24.3023 137.255 24.0629 137.255 23.9431 137.255C22.2671 139.415 20.4714 141.695 18.9151 143.854C21.3094 142.654 23.9431 141.815 26.6966 141.455C28.2529 141.215 31.9641 140.735 32.3232 143.254C32.6824 145.894 28.4923 146.494 26.6966 146.734C23.584 147.214 20.5911 146.854 17.5982 146.014C17.4785 146.134 17.3588 146.134 17.2391 146.134C15.2039 149.013 13.1687 151.893 11.1336 154.892C10.6547 155.612 9.697 154.772 10.1759 154.052C12.0913 151.053 14.1265 148.174 16.2814 145.294C15.0842 142.894 11.9716 136.296 15.8025 135.576C17.2391 135.216 17.9574 136.416 17.9574 137.735C18.0771 139.535 17.8377 141.455 17.7179 143.374C19.2742 141.215 20.9503 139.175 22.6263 137.016C21.5488 133.896 17.9574 122.018 23.584 122.618C26.098 122.858 26.5769 125.977 26.6966 128.017C26.6966 129.577 26.5769 131.137 26.098 132.696C28.0135 130.417 29.9289 128.017 31.9641 125.857C31.0064 123.218 30.6472 120.458 31.0064 117.699C31.2458 116.019 31.7247 113.26 33.8795 113.02C35.795 112.9 36.7527 114.939 36.633 116.499C36.633 118.419 35.9147 120.458 35.0767 122.258C37.471 119.739 39.8653 117.219 42.2596 114.699C42.9779 111.94 44.4145 109.78 46.33 107.621C47.168 106.661 48.1257 105.821 49.3228 105.701C50.0411 105.581 50.8791 105.821 51.4777 106.301C51.8369 106.541 52.0763 106.901 52.196 107.381C52.5552 108.701 51.5974 109.9 50.6397 110.74C48.6045 112.78 46.0905 114.34 43.3371 115.299C41.661 116.979 40.1047 118.539 38.5484 120.218C40.1047 119.379 41.9005 118.659 43.6962 118.299C45.7314 117.819 48.844 117.219 50.0411 119.499C50.9989 121.178 49.5623 122.738 47.7665 123.098Z" fill="#68422D"/>
<path d="M98.0471 145.534C98.1668 135.216 98.8851 124.898 100.322 114.58C100.441 113.74 101.639 114.1 101.519 114.939C100.202 124.418 99.4837 133.896 99.3639 143.494C103.793 134.016 108.821 125.018 114.568 116.379C115.047 115.659 116.124 116.379 115.645 116.979C108.462 127.657 102.477 139.055 97.4485 150.813C101.399 147.094 105.829 144.094 110.857 141.935C111.575 141.575 112.174 142.655 111.455 143.014C105.589 145.534 100.561 149.133 96.2513 153.693C93.9767 159.212 92.0613 164.851 90.2656 170.61C90.0261 171.329 88.829 171.089 89.0684 170.25C91.5824 161.851 94.695 153.693 98.1668 145.774C98.1668 145.774 98.0471 145.654 98.0471 145.534Z" fill="#645D33"/>
<path d="M118.04 108.581C124.624 110.38 121.87 120.578 115.286 118.779C108.821 117.099 111.455 106.901 118.04 108.581Z" fill="white"/>
<path d="M101.758 110.14C106.427 111.34 104.512 118.539 99.8428 117.339C95.2936 116.139 97.0894 108.941 101.758 110.14Z" fill="white"/>
<path d="M112.293 139.655C116.483 140.735 114.807 147.454 110.498 146.254C106.307 145.054 108.103 138.455 112.293 139.655Z" fill="white"/>
<path d="M268.522 130.177C266.487 119.979 263.853 110.02 260.621 100.182C260.381 99.4623 259.304 99.9422 259.543 100.662C262.536 109.66 265.05 118.899 266.966 128.257C260.98 119.859 254.276 111.82 246.973 104.381C246.375 103.781 245.417 104.621 246.015 105.221C254.994 114.46 263.135 124.418 270.198 135.096C265.649 132.216 260.741 130.057 255.353 128.857C254.635 128.737 254.156 129.817 254.994 130.057C261.219 131.377 266.846 134.016 271.994 137.735C275.226 142.775 278.219 147.934 280.972 153.333C281.332 154.053 282.409 153.453 282.05 152.853C277.98 145.054 273.55 137.615 268.522 130.537C268.522 130.537 268.642 130.417 268.522 130.177Z" fill="#645D33"/>
<path d="M242.065 97.6626C235.959 100.542 240.509 110.14 246.614 107.261C252.72 104.381 248.17 94.7831 242.065 97.6626Z" fill="white"/>
<path d="M258.346 96.2228C254.036 98.2624 257.269 104.981 261.579 102.942C265.888 100.902 262.656 94.1831 258.346 96.2228Z" fill="white"/>
<path d="M253.438 127.057C249.487 128.977 252.36 135.096 256.431 133.176C260.381 131.377 257.388 125.138 253.438 127.057Z" fill="white"/>
<path d="M168.559 76.0664C190.946 104.861 209.981 136.056 225.424 169.17C225.784 169.89 224.706 170.49 224.347 169.77C208.904 136.776 189.749 105.581 167.482 76.6663C167.003 76.0664 168.081 75.4665 168.559 76.0664Z" fill="#645D33"/>
<path d="M159.102 71.5072C159.701 70.5474 161.017 69.4676 161.377 69.1076C162.693 67.7879 164.489 66.948 166.285 66.4681C167.961 66.1082 167.841 69.3476 168.2 70.5474C168.679 72.707 169.158 74.7466 169.637 76.9063C169.757 77.2662 169.757 77.7461 169.397 77.9861C169.158 78.226 168.799 77.9861 168.44 77.8661C165.447 76.1864 162.334 74.6267 159.341 72.947C159.102 72.827 158.863 72.707 158.863 72.467C158.743 72.2271 158.863 71.8672 159.102 71.5072Z" fill="#645D33"/>
<path d="M138.511 73.0669C140.905 71.1473 144.257 70.1875 147.609 69.5876C142.222 68.3878 134.919 65.3883 137.553 59.9893C138.87 57.2298 142.701 57.2298 145.215 57.5897C147.609 57.9497 149.764 58.7895 151.68 59.9893C147.729 55.1901 143.3 47.2715 150.004 44.872C153.475 43.6722 157.306 46.1917 159.461 48.7113C161.616 51.1109 162.813 54.1103 163.172 57.2298C164.25 53.3905 165.327 49.4312 166.883 45.7118C167.961 43.1923 169.996 41.1526 172.989 41.7525C181.13 43.4322 176.94 54.1103 174.306 58.5495C170.355 65.5083 164.369 71.2673 157.546 75.4665C154.074 77.6261 150.243 79.3058 146.412 80.6256C143.659 81.4654 140.067 82.4253 137.673 80.2657C135.279 78.106 136.236 74.8666 138.511 73.0669Z" fill="#C1A073"/>
<path d="M169.996 101.502C170.235 100.902 170.595 100.422 171.073 100.062C172.031 99.4622 173.348 99.5821 174.426 99.9421C176.7 100.542 178.735 101.862 180.531 103.182C184.601 105.941 188.193 109.18 191.784 112.66C193.101 113.98 194.418 115.299 195.735 116.619C196.214 117.099 199.566 119.978 198.129 120.578C197.77 120.698 197.411 120.578 197.171 120.578C189.869 119.019 183.045 115.539 176.94 111.34C174.904 109.9 172.869 108.461 171.313 106.541C170.595 105.581 169.876 104.501 169.757 103.301C169.637 102.702 169.757 102.102 169.996 101.502Z" fill="#645D33"/>
<path d="M207.228 135.696C207.108 135.336 207.108 134.856 206.988 134.496C206.629 129.577 206.15 124.658 206.39 119.739C206.509 117.219 206.629 114.819 207.467 112.42C207.946 110.98 208.784 109.42 210.22 109.06C212.375 108.581 213.692 110.86 213.932 112.66C214.291 115.179 214.051 117.579 213.692 120.099C212.854 125.618 211.298 131.017 209.143 136.056C209.023 136.416 208.784 136.896 208.305 136.896C208.185 136.896 207.946 136.776 207.826 136.776C207.587 136.416 207.347 136.056 207.228 135.696Z" fill="#645D33"/>
<path d="M102.836 74.8667C102.955 74.7467 102.955 74.6268 103.195 74.5068C103.434 74.3868 103.793 74.6267 103.913 74.7467C104.871 75.5866 105.829 76.5464 106.667 77.5062C107.385 78.4661 108.582 80.0258 107.026 80.6257C105.11 81.4655 103.315 82.1854 101.399 82.9053C101.04 83.0253 100.561 83.1452 100.322 83.0253C99.9626 82.7853 99.9626 82.0654 100.082 81.5855C100.801 79.4259 101.758 77.1463 102.836 74.8667C102.836 74.9867 102.836 74.8667 102.836 74.8667Z" fill="#645D33"/>
<path d="M103.554 61.6691C104.631 58.4297 106.547 53.2706 110.617 53.0306C113.73 52.7907 115.047 55.9101 114.807 58.5496C114.568 61.3092 113.61 64.0686 112.293 66.4682C113.251 65.6284 114.209 64.6686 115.286 63.9487C116.723 62.8689 119.476 60.5893 121.272 62.5089C122.828 64.3086 120.913 66.7082 119.835 68.1479C118.638 69.5877 117.441 70.9074 116.004 72.1072C118.878 71.0274 122.23 70.4275 124.504 71.6273C127.737 73.307 125.222 75.9465 123.187 77.1463C117.321 80.8656 106.547 84.8249 102.716 76.0665C100.92 71.7473 101.998 65.9883 103.554 61.6691Z" fill="#C1A073"/>
<path d="M100.681 81.3455C101.16 80.7456 101.998 81.5855 101.519 82.1854C80.9278 107.981 64.6465 137.136 53.6326 168.33C53.3932 169.05 52.196 168.81 52.4355 167.97C63.569 136.656 79.8503 107.261 100.681 81.3455Z" fill="#645D33"/>
<path d="M84.1601 105.221C84.1601 105.101 84.2798 105.101 84.2798 104.981C85.3572 103.542 86.7938 102.342 88.4699 101.502C90.0262 100.662 91.8219 100.062 93.6176 99.5822C96.1316 98.8624 98.8851 98.1425 101.519 98.5024C102.357 98.6224 103.075 98.8624 103.674 99.3423C105.829 101.022 103.674 103.182 101.998 104.021C96.7302 106.661 90.7444 107.501 84.9981 106.541C84.639 106.421 84.1601 106.301 84.0404 105.941C83.9207 105.581 84.0404 105.341 84.1601 105.221Z" fill="#645D33"/>
<path d="M73.0265 94.5431C73.1463 94.5431 73.3857 94.5431 73.5054 94.5431C74.7026 94.6631 75.6603 95.5029 76.1391 96.5828C76.618 97.6626 76.8574 98.7424 76.9772 99.9421C77.6955 107.141 76.4983 114.58 74.3434 121.418C74.2237 122.018 73.7448 122.618 73.266 122.498C72.9068 122.378 72.6674 122.018 72.5477 121.658C71.1111 117.339 70.1534 112.9 69.4351 108.341C68.9562 105.341 68.7168 102.342 69.1956 99.3423C69.4351 98.1425 69.7942 97.0627 70.3928 96.1028C71.1111 95.143 72.0688 94.5431 73.0265 94.5431Z" fill="#645D33"/>
<path d="M61.4141 146.494C62.6113 145.414 63.9282 144.574 65.245 143.734C69.7942 140.735 74.3434 137.975 79.132 135.456C81.2869 134.256 83.5615 133.056 85.9558 132.216C87.0333 131.856 88.3501 131.496 89.4276 131.736C92.181 132.456 91.5825 135.336 89.7867 136.656C82.0052 143.014 72.0688 146.134 62.1324 147.454C61.893 147.454 61.6536 147.574 61.4141 147.454C61.1747 147.454 61.055 147.214 61.055 146.974C61.055 146.734 61.2944 146.614 61.4141 146.494Z" fill="#645D33"/>
<path d="M73.2659 52.4306C70.5125 92.6235 64.6464 132.696 55.6678 171.929C55.4283 173.129 53.6326 172.649 53.872 171.449C62.731 132.336 68.597 92.5035 71.3505 52.4306C71.4702 51.2309 73.3856 51.2309 73.2659 52.4306Z" fill="#68422D"/>
<path d="M69.3154 79.4258C69.4351 79.3058 69.4351 79.1858 69.5548 79.0658C73.7448 74.1467 78.6532 69.8275 84.0404 66.2282C84.3995 65.9882 84.6389 65.7482 84.9981 65.8682C86.5544 65.9882 83.9207 69.7075 83.5615 70.3074C82.4841 71.8671 81.2869 73.4269 79.8503 74.7466C77.0969 77.3862 73.6251 79.4258 69.9139 80.5056C69.6745 80.6256 69.4351 80.6256 69.3154 80.5056C69.0759 80.2656 69.1956 79.7857 69.3154 79.4258Z" fill="#68422D"/>
<path d="M58.9001 71.1473L59.0198 71.2673C61.6536 74.7467 63.8084 78.706 65.4845 82.7852C66.3225 84.8249 66.921 86.9845 67.5196 89.1441C67.7591 89.864 69.1956 95.143 67.7591 94.9031C67.3999 94.9031 67.1605 94.5431 66.921 94.3032C62.1324 89.0241 59.0198 82.1853 58.1818 74.9866C58.0621 73.9068 57.9424 72.827 57.9424 71.7472C57.9424 71.2673 57.9424 70.6674 58.4212 70.6674C58.541 70.7874 58.7804 71.0273 58.9001 71.1473Z" fill="#68422D"/>
<path d="M53.5129 10.4382C58.9001 4.43929 66.083 13.1977 70.0336 19.9165C70.0336 19.6766 70.0336 19.4366 69.9139 19.1966C69.4351 14.9974 68.8365 10.7982 68.3576 6.59891C68.1182 4.31931 68.1182 1.67978 70.6322 0.599977C73.1462 -0.47983 77.0968 0.480001 79.6109 0.959916C81.5263 1.31985 83.5615 1.91973 83.8009 4.07935C84.2798 7.07881 82.0052 11.1581 81.0475 13.9176C79.8503 17.037 78.4137 20.0365 76.9771 23.036C80.4489 18.9567 84.6389 14.7574 89.1881 12.4778C93.6176 10.1982 96.4908 13.6776 98.1668 17.5169C100.322 22.4361 98.4062 24.9556 93.857 27.1152C89.667 29.0349 85.1178 30.1147 80.4489 30.2347L86.7938 31.7944C89.5473 32.5143 92.6599 32.8742 95.2936 34.074C99.1245 35.7537 98.7654 38.9931 96.9696 42.2325C95.0542 45.7119 91.9416 49.0713 87.7515 46.9117C85.2375 45.5919 83.4418 42.8324 81.5263 40.6728C79.6109 38.3932 77.6954 36.2336 75.78 33.954C78.0546 39.1131 79.8503 44.6321 80.6883 50.1511C81.4066 55.5501 77.3363 56.8699 72.6674 57.4698C68.9562 57.9497 64.407 56.6299 64.0479 52.3107C63.8084 49.3113 65.3647 46.0718 66.2027 43.1924C67.0407 40.1929 67.9985 37.1934 69.0759 34.3139C65.4844 37.3134 61.5338 39.9529 57.2241 41.8726C53.6326 43.5523 49.9214 44.0322 48.6045 39.593C47.5271 35.9936 47.4074 31.6744 51.4777 30.1147C56.0269 28.435 61.6535 28.0751 66.6816 27.7151C61.7733 26.1554 57.1044 23.8758 53.034 20.6364C49.0834 17.6369 50.52 13.9176 53.5129 10.4382Z" fill="#C1A073"/>
<path d="M71.8294 19.1967C72.3082 19.1967 72.7871 19.1967 73.3857 19.1967C75.3011 19.4367 77.0968 20.3965 78.5334 21.8363C83.4418 26.8753 80.3292 36.2337 73.0265 36.3537C69.435 36.4736 65.9633 33.7141 65.1253 30.2347C64.6464 28.4351 64.8859 26.5154 65.4844 24.7157C65.9633 23.156 66.8013 21.7163 67.9985 20.7565C69.0759 19.9166 70.3928 19.3167 71.8294 19.1967Z" fill="#FFC152"/>
<path d="M72.7871 21.3563C75.1814 21.9562 74.2237 25.7955 71.8294 25.1956C69.3154 24.4758 70.3928 20.7564 72.7871 21.3563Z" fill="#9F5D3A"/>
<path d="M76.8574 25.9154C78.7729 26.3954 78.0546 29.5148 76.0194 28.9149C74.1039 28.435 74.942 25.4355 76.8574 25.9154Z" fill="#9F5D3A"/>
<path d="M73.8645 29.8747C77.2166 30.8346 75.8997 36.1136 72.4279 35.1538C69.0759 34.314 70.5125 29.0349 73.8645 29.8747Z" fill="#9F5D3A"/>
<path d="M68.8364 23.9958C71.2307 24.5957 70.273 28.435 67.8787 27.8352C65.4844 27.1153 66.4421 23.396 68.8364 23.9958Z" fill="#9F5D3A"/>
<path d="M68.3576 29.5149C69.7942 29.8748 69.1956 32.1544 67.759 31.7945C66.3224 31.4345 66.921 29.155 68.3576 29.5149Z" fill="#9F5D3A"/>
<path d="M26.936 85.4248C27.2952 84.705 28.3726 85.3049 28.0135 86.0247C16.2814 105.821 7.18298 126.937 1.19721 149.133C0.957774 149.853 -0.239381 149.613 4.96527e-05 148.774C6.10554 126.577 15.0842 105.221 26.936 85.4248Z" fill="#645D33"/>
<path d="M34.2387 73.7869C34.2387 73.7869 34.3584 73.6669 34.2387 73.7869C34.4781 73.6669 34.5979 73.5469 34.7176 73.6669C34.8373 73.7868 34.8373 73.9068 34.8373 74.1468C34.2387 79.3059 31.9641 84.105 27.2952 86.8645C27.1755 86.9845 26.9361 87.1045 26.8163 86.8645C26.8163 86.7445 26.8163 86.7445 26.8163 86.6246C27.2952 81.4655 30.0487 76.6663 34.2387 73.7869Z" fill="#645D33"/>
<path d="M30.6472 96.5829L30.7669 96.5829C30.8866 96.5829 31.1261 96.5829 31.1261 96.7029C31.2458 96.8228 31.1261 97.0628 31.0063 97.1828C27.774 101.262 23.3445 104.142 17.8376 103.902C17.5982 103.902 17.3588 103.782 17.3588 103.662C17.3588 103.542 17.3588 103.542 17.4785 103.422C20.5911 99.3424 25.4994 96.8228 30.6472 96.5829Z" fill="#645D33"/>
<path d="M23.3446 112.18C23.3446 112.18 23.4643 112.18 23.3446 112.18C23.584 112.18 23.7037 112.18 23.8235 112.3C23.9432 112.42 23.8234 112.54 23.7037 112.66C20.5911 116.259 16.4011 118.659 11.4928 118.299C11.373 118.299 11.1336 118.179 11.1336 118.059C11.1336 117.939 11.1336 117.939 11.2533 117.819C14.1265 114.34 18.6757 112.18 23.3446 112.18Z" fill="#645D33"/>
<path d="M17.2391 129.697C17.4785 129.697 17.5982 129.697 17.718 129.817C17.8377 129.937 17.718 130.177 17.5982 130.297C14.3659 134.136 9.93644 136.656 4.78868 136.176C4.54925 136.176 4.30981 136.056 4.30981 135.936C4.30981 135.816 4.30981 135.816 4.42953 135.696C7.54213 131.977 12.3308 129.697 17.2391 129.697Z" fill="#645D33"/>
<path d="M18.1968 103.062C18.1968 103.182 18.0771 103.182 18.0771 103.302C17.9573 103.422 17.7179 103.182 17.5982 103.062C14.8447 98.3825 15.0842 93.1035 16.9996 88.3043C17.1193 88.1843 17.1193 87.9444 17.3588 87.9444C17.4785 87.9444 17.5982 88.0644 17.7179 88.1844L17.7179 88.3043C20.1122 92.7435 20.2319 98.3825 18.1968 103.062Z" fill="#645D33"/>
<path d="M11.4928 117.459C11.4928 117.579 11.4928 117.579 11.3731 117.699C11.2533 117.819 11.0139 117.699 10.8942 117.459C7.78158 113.5 7.42244 108.701 8.73931 104.021C8.73931 103.901 8.85902 103.662 8.97874 103.662C9.09845 103.662 9.21817 103.782 9.33789 103.901C9.33789 103.901 9.33789 104.021 9.4576 104.021C11.9716 107.861 12.8096 112.9 11.4928 117.459Z" fill="#645D33"/>
<path d="M4.42953 135.456C4.42953 135.576 4.42953 135.576 4.30981 135.696C4.19009 135.816 3.95066 135.696 3.95066 135.576C1.07749 131.976 0.838059 127.537 1.9155 123.338C1.9155 123.218 2.03521 122.978 2.15493 122.978C2.27464 122.978 2.39436 123.098 2.39436 123.218C2.39436 123.218 2.39436 123.218 2.39436 123.338C4.90839 126.697 5.62668 131.257 4.42953 135.456Z" fill="#645D33"/>
</g>
<defs>
<clipPath id="clip0">
<rect width="303" height="224" fill="white" transform="matrix(1 -8.74228e-08 -8.74228e-08 -1 6.10352e-05 224)"/>
</clipPath>
</defs>
</svg>
