<svg width="157" height="210" viewBox="0 0 157 210" fill="none" xmlns="http://www.w3.org/2000/svg">
<path d="M145.561 104.4C142.048 101.55 137.711 99.7499 133.226 99.4499C126.871 98.9999 119.32 100.875 114.984 96.1499C110.947 91.7999 112.517 84.3749 108.779 79.7999C104.966 75.1499 97.7138 75.6749 92.0319 77.5499C86.35 79.4249 80.4438 82.1999 74.6124 80.6999C69.6033 79.4249 66.0147 75.2249 62.3514 71.5499C57.0433 66.2249 50.9128 61.5749 43.8104 59.1749C36.7081 56.7749 28.6338 56.6999 21.98 60.2249C10.8404 66.1499 7.47616 81.7499 17.1952 90.7499C19.8866 93.2249 23.2509 94.8749 26.0171 97.1249C28.8581 99.4499 31.2504 102.75 30.9514 106.425C30.5776 110.7 26.69 113.7 22.9519 115.8C19.2885 117.975 15.1019 120.075 13.4571 124.05C11.7376 128.25 13.4571 133.125 16.3728 136.575C19.2885 140.025 23.1762 142.425 26.7647 145.2C30.2785 147.975 33.7176 151.425 34.6895 155.775C35.6614 159.825 34.4652 164.1 34.7643 168.225C35.3624 175.65 40.8947 182.025 47.6233 185.25C54.3519 188.475 62.0524 189 69.4538 188.55C72.1452 188.4 74.8366 188.1 77.6028 188.325C80.6681 188.55 83.6585 189.45 86.7238 189.9C95.4709 191.175 104.667 188.925 111.919 183.75C119.096 178.575 124.179 170.55 125.824 161.85C126.572 157.95 126.647 153.75 128.815 150.45C132.029 145.575 138.384 144.15 143.393 141.15C151.468 136.2 155.654 125.775 153.411 116.55C152.29 111.75 149.449 107.475 145.561 104.4Z" fill="#D8C19E"/>
<path d="M62.6505 199.95C59.7348 201.975 56.52 203.4 54.4267 206.475C53.6791 207.6 53.1557 208.725 52.8567 210H101.601C99.8072 206.55 96.5176 203.625 93.6019 201C90.761 198.525 88.0695 195.975 86.4995 192.525C84.8548 188.925 84.3314 184.8 85.0791 180.9C85.2286 180.15 84.3314 179.7 83.8829 180.075C83.7334 180 83.5838 180 83.4343 180.075C79.8457 180.9 76.1824 180.9 72.5938 180.075C72.3695 180 72.1453 180.075 71.9957 180.225C71.5472 180.075 70.9491 180.3 71.0238 180.9C71.921 188.175 68.781 195.75 62.6505 199.95Z" fill="#AB7051"/>
<path d="M83.0606 182.25C80.2945 184.875 76.3321 184.575 73.8649 181.725C72.893 180.6 71.3978 182.25 72.2949 183.375C75.6592 187.2 80.9673 187.35 84.5559 183.9C85.6026 182.85 84.1073 181.275 83.0606 182.25Z" fill="#68422D"/>
<path d="M97.9381 147.525C96.5177 145.125 94.2 143.175 93.8262 140.4C93.7515 140.025 93.7515 139.575 93.6019 139.2C93.4524 138.825 93.0038 138.525 92.63 138.675C92.1815 138.825 92.0319 139.35 91.9572 139.8C91.4338 141.975 89.7891 143.775 87.8453 144.825C85.8267 145.875 83.5839 146.25 81.341 146.25C77.9019 146.325 74.4629 145.65 71.0238 145.35C67.5848 145.05 63.9962 145.05 60.7815 146.4C59.9591 146.7 59.2115 147.15 58.5386 147.75C56.9686 149.175 56.9686 150.75 56.8938 152.7C56.8191 154.8 56.6696 156.825 56.8938 158.925C57.4172 163.425 58.8377 167.775 61.1553 171.6C64.4448 177.15 69.4538 181.65 75.2853 184.275C82.5372 187.575 90.6862 179.325 93.901 173.625C96.8167 168.375 98.1624 162.45 98.9848 156.525C99.3586 153.975 99.6577 151.2 98.6858 148.8C98.4615 148.425 98.2372 147.975 97.9381 147.525Z" fill="#AB7051"/>
<path d="M72.1453 155.325C72.0705 155.325 71.921 155.4 71.8462 155.475C71.6967 155.625 71.5472 155.775 71.4724 156C70.7248 157.2 69.4539 158.025 68.1081 158.25C66.7624 158.4 65.2672 157.95 64.2953 156.975C64.071 156.75 63.8467 156.525 63.5477 156.45C62.0524 156.15 64.2205 158.7 64.5943 159C65.5662 159.75 66.8372 160.125 68.1081 160.05C70.2015 159.9 72.1453 158.25 72.6686 156.15C72.7434 155.925 72.7434 155.625 72.5191 155.475C72.3696 155.325 72.22 155.325 72.1453 155.325Z" fill="#291410"/>
<path d="M69.2297 171.9C70.052 169.65 69.0801 166.95 66.9868 165.675C66.3887 165.3 65.7159 165.075 65.043 165.15C64.2954 165.15 63.5478 165.45 62.8749 165.9C61.4544 166.875 60.4078 168.6 60.333 170.325C60.5573 170.85 60.8563 171.3 61.1554 171.825C61.7535 172.875 62.5011 173.925 63.2487 174.9C63.6225 175.05 63.9216 175.125 64.3701 175.125C66.4635 175.275 68.5568 173.85 69.2297 171.9Z" fill="#9F5D3A"/>
<path d="M70.9492 151.2C68.2578 149.85 65.1178 150.15 62.7254 151.95C62.3516 152.25 62.7254 152.925 63.0992 152.625C65.2673 150.975 68.0335 150.6 70.5006 151.875C71.024 152.1 71.3978 151.425 70.9492 151.2Z" fill="#291410"/>
<path d="M86.1259 155.1C85.9764 155.25 86.0511 155.55 86.1259 155.775C87.023 157.725 89.1911 159 91.2845 158.775C92.5554 158.625 93.6768 158.025 94.574 157.125C94.873 156.825 96.5925 153.9 95.0973 154.425C94.7983 154.5 94.6487 154.8 94.4245 155.1C93.6021 156.225 92.2564 156.975 90.8359 157.05C89.4154 157.125 88.0697 156.525 87.0978 155.475C86.9483 155.325 86.7987 155.175 86.6492 155.025C86.5745 154.95 86.4249 154.95 86.3502 154.95C86.3502 154.95 86.2006 155.025 86.1259 155.1Z" fill="#291410"/>
<path d="M96.8168 166.95C96.443 166.35 95.9196 165.825 95.3215 165.45C94.6487 165 93.9011 164.7 93.1534 164.7C92.4806 164.7 91.8077 164.85 91.2096 165.225C89.191 166.5 88.2191 169.2 88.9668 171.45C89.6396 173.25 91.4339 174.6 93.3777 174.675C93.602 174.375 93.7515 174.075 93.9011 173.775C95.172 171.6 96.0692 169.35 96.8168 166.95Z" fill="#9F5D3A"/>
<path d="M87.9948 150.45C90.6862 149.1 93.8262 149.4 96.2186 151.2C96.5924 151.5 96.2186 152.175 95.8448 151.875C93.6767 150.225 90.9105 149.85 88.4434 151.125C87.9201 151.35 87.5462 150.675 87.9948 150.45Z" fill="#291410"/>
<path d="M82.0885 162.45C82.0137 162.3 81.939 162.075 81.8642 161.925C81.0418 159.975 80.5933 157.8 80.9671 155.7C81.0418 155.475 81.0418 155.25 80.9671 155.025C80.8923 154.8 80.668 154.65 80.4437 154.725C80.2942 154.8 80.2194 155.025 80.2194 155.175C79.7709 157.875 80.2194 160.65 81.4156 163.125C81.7147 163.65 82.0137 164.25 82.1633 164.85C82.3128 165.45 82.3128 166.125 82.0137 166.65C81.6399 167.25 80.8923 167.475 80.1447 167.625C79.098 167.775 79.4718 168.45 80.2942 168.6C80.9671 168.75 81.8642 168.525 82.3128 167.925C83.0604 167.1 83.1352 165.9 82.9857 164.85C82.7614 164.025 82.3876 163.275 82.0885 162.45Z" fill="#291410"/>
<path d="M82.9856 173.475C82.8361 173.55 82.6866 173.7 82.537 173.85C81.8642 174.525 80.967 174.9 80.0699 174.9C79.1727 174.975 78.2008 174.6 77.528 174C77.3037 173.85 77.1542 173.625 76.8551 173.55C75.7337 173.325 77.0047 175.05 77.2289 175.275C77.827 175.875 78.4999 176.325 79.3223 176.475C80.668 176.775 82.0885 176.25 82.9856 175.2C83.2846 174.825 83.5089 174.375 83.5089 173.85C83.5089 173.775 83.5089 173.625 83.4342 173.55C83.3594 173.4 83.1351 173.4 82.9856 173.475Z" fill="#291410"/>
<path d="M98.8351 84.6001C98.8351 84.5251 98.8351 84.45 98.7603 84.45C97.7137 84.15 96.667 83.85 95.6203 83.55C96.0689 83.175 96.4427 82.8 96.8913 82.425C97.0408 82.275 96.8165 82.05 96.667 82.2C96.2184 82.575 95.7699 83.025 95.3213 83.4C95.1718 82.35 95.097 81.3 94.9475 80.25C94.9475 80.175 94.8727 80.1 94.798 80.1C94.7232 80.025 94.5737 80.025 94.5737 80.175C94.3494 81.3 94.1251 82.425 93.9756 83.475C93.6018 83.025 93.2279 82.575 92.7794 82.125C92.6299 81.975 92.4056 82.2 92.5551 82.35C92.9289 82.8 93.3027 83.175 93.6765 83.625C92.6299 83.775 91.5084 83.925 90.4618 84.075C90.3122 84.075 90.3122 84.225 90.387 84.3C90.387 84.375 90.387 84.45 90.4618 84.45C91.5832 84.75 92.7046 84.975 93.826 85.275C93.527 85.725 93.228 86.1001 92.9289 86.5501C92.7794 86.7001 93.0784 86.85 93.2279 86.7C93.527 86.325 93.826 85.8751 94.0503 85.5L94.6484 88.2751V88.3501C94.7232 88.5001 95.0222 88.4251 94.9475 88.2751L95.6203 85.65C95.9194 86.025 96.2184 86.325 96.4427 86.7C96.5922 86.85 96.8165 86.6251 96.667 86.4751C96.368 86.1001 95.9941 85.65 95.6951 85.275C96.7418 85.125 97.7137 84.975 98.7603 84.75C98.9099 84.825 98.9099 84.6751 98.8351 84.6001Z" fill="#C1A073"/>
<path d="M39.848 115.35C39.848 115.275 39.848 115.2 39.7733 115.2C38.7266 114.9 37.6799 114.6 36.6333 114.3C37.0818 113.925 37.4557 113.55 37.9042 113.175C38.0537 113.025 37.8295 112.8 37.6799 112.95C37.2314 113.325 36.7828 113.775 36.3342 114.15C36.1847 113.1 36.1099 112.05 35.9604 111C35.9604 110.925 35.8857 110.85 35.8109 110.85C35.7361 110.775 35.5866 110.775 35.5866 110.925C35.3623 112.05 35.138 113.175 34.9885 114.225C34.6147 113.775 34.2409 113.325 33.7923 112.875C33.6428 112.725 33.4185 112.95 33.568 113.1C33.9418 113.55 34.3157 113.925 34.6895 114.375C33.6428 114.525 32.5214 114.675 31.4747 114.825C31.3252 114.825 31.3252 114.975 31.3999 115.05C31.3999 115.125 31.3999 115.2 31.4747 115.2C32.5961 115.5 33.7176 115.725 34.839 116.025C34.5399 116.475 34.2409 116.85 33.9418 117.3C33.7923 117.45 34.0914 117.6 34.2409 117.45C34.5399 117.075 34.839 116.625 35.0633 116.25L35.6614 119.025V119.1C35.7361 119.25 36.0352 119.175 35.9604 119.025L36.6333 116.4C36.9323 116.775 37.2314 117.075 37.4556 117.45C37.6052 117.6 37.8295 117.375 37.6799 117.225C37.3809 116.85 37.0071 116.4 36.708 116.025C37.7547 115.875 38.7266 115.725 39.7733 115.5C39.848 115.575 39.848 115.425 39.848 115.35Z" fill="#C1A073"/>
<path d="M118.946 128.25C118.946 128.175 118.946 128.1 118.871 128.1C117.825 127.8 116.778 127.5 115.731 127.2C116.18 126.825 116.554 126.45 117.002 126.075C117.152 125.925 116.928 125.7 116.778 125.85C116.329 126.225 115.881 126.675 115.432 127.05C115.283 126 115.208 124.95 115.059 123.9C115.059 123.825 114.984 123.75 114.909 123.75C114.834 123.675 114.685 123.675 114.685 123.825C114.46 124.95 114.236 126.075 114.087 127.125C113.713 126.675 113.339 126.225 112.89 125.775C112.741 125.625 112.517 125.85 112.666 126C113.04 126.45 113.414 126.825 113.788 127.275C112.741 127.425 111.62 127.575 110.573 127.725C110.423 127.725 110.423 127.875 110.498 127.95C110.498 128.025 110.498 128.1 110.573 128.1C111.694 128.4 112.816 128.625 113.937 128.925C113.638 129.375 113.339 129.75 113.04 130.2C112.89 130.35 113.19 130.5 113.339 130.35C113.638 129.975 113.937 129.525 114.161 129.15L114.76 131.925V132C114.834 132.15 115.133 132.075 115.059 131.925L115.731 129.3C116.03 129.675 116.329 129.975 116.554 130.35C116.703 130.5 116.928 130.275 116.778 130.125C116.479 129.75 116.105 129.3 115.806 128.925C116.853 128.775 117.825 128.625 118.871 128.4C118.946 128.475 118.946 128.325 118.946 128.25Z" fill="#C1A073"/>
<path d="M53.1556 169.875C53.1556 169.8 53.1556 169.725 53.0809 169.725C52.0342 169.425 50.9876 169.125 49.9409 168.825C50.3895 168.45 50.7633 168.075 51.2118 167.7C51.3614 167.55 51.1371 167.325 50.9876 167.475C50.539 167.85 50.0904 168.3 49.6418 168.675C49.4923 167.625 49.4176 166.575 49.268 165.525C49.268 165.45 49.1933 165.375 49.1185 165.375C49.0437 165.3 48.8942 165.3 48.8942 165.45C48.6699 166.575 48.4456 167.7 48.2961 168.75C47.9223 168.3 47.5485 167.85 47.0999 167.4C46.9504 167.25 46.7261 167.475 46.8757 167.625C47.2495 168.075 47.6233 168.45 47.9971 168.9C46.9504 169.05 45.829 169.2 44.7823 169.35C44.6328 169.35 44.6328 169.5 44.7076 169.575C44.7076 169.65 44.7076 169.725 44.7823 169.725C45.9037 170.025 47.0252 170.25 48.1466 170.55C47.8476 171 47.5485 171.375 47.2495 171.825C47.0999 171.975 47.399 172.125 47.5485 171.975C47.8476 171.6 48.1466 171.15 48.3709 170.775L48.969 173.55V173.625C49.0437 173.775 49.3428 173.7 49.268 173.55L49.9409 170.925C50.2399 171.3 50.539 171.6 50.7633 171.975C50.9128 172.125 51.1371 171.9 50.9876 171.75C50.6885 171.375 50.3147 170.925 50.0157 170.55C51.0623 170.4 52.0342 170.25 53.0809 170.025C53.1556 170.1 53.1556 169.95 53.1556 169.875Z" fill="#C1A073"/>
<path d="M116.03 160.425C114.909 160.575 113.713 160.8 112.591 160.95C112.367 160.2 112.068 159.375 111.844 158.625C111.844 158.55 111.769 158.55 111.769 158.55C111.694 158.4 111.545 158.4 111.47 158.55C111.096 159.225 110.722 159.975 110.349 160.65H107.283H107.209C107.134 160.725 107.059 160.8 107.134 160.95L109.526 163.125C108.853 164.1 108.255 165.15 107.582 166.125C107.508 166.2 107.582 166.35 107.657 166.35C107.732 166.425 107.807 166.5 107.881 166.425C109.152 165.525 110.498 164.625 111.769 163.8C112.367 164.55 113.189 165.225 114.012 165.75C114.311 165.975 114.909 166.35 114.759 165.675C114.46 164.625 114.012 163.575 113.563 162.6C114.46 162 115.358 161.4 116.18 160.725C116.255 160.65 116.18 160.35 116.03 160.425Z" fill="#C1A073"/>
<path d="M70.7997 133.575C69.1549 133.8 67.4354 134.1 65.7906 134.325C65.4168 133.2 65.1177 132.075 64.7439 130.95C64.7439 130.875 64.6692 130.8 64.5944 130.8C64.5197 130.65 64.2206 130.5 64.1458 130.725C63.6225 131.775 63.0992 132.825 62.5758 133.8H58.0901C58.0154 133.8 58.0154 133.8 57.9406 133.8C57.7911 133.875 57.6416 134.1 57.8658 134.175L61.3796 137.325C60.4825 138.75 59.5106 140.25 58.6135 141.675C58.5387 141.825 58.6135 141.975 58.6882 142.05C58.763 142.2 58.9125 142.275 59.062 142.2C60.9311 140.925 62.8001 139.65 64.6692 138.3C65.5663 139.35 66.7625 140.4 67.8839 141.15C68.3325 141.45 69.2297 142.05 68.9306 141.075C68.482 139.575 67.8839 138 67.2111 136.575C68.482 135.675 69.753 134.775 71.0239 133.875C71.0239 133.875 71.0239 133.875 71.0987 133.8C71.2482 133.95 71.0987 133.5 70.7997 133.575Z" fill="#C1A073"/>
<path d="M109.751 94.575C108.33 94.8 106.984 95.025 105.564 95.175C105.265 94.275 104.966 93.3 104.667 92.4C104.667 92.325 104.592 92.325 104.592 92.25C104.517 92.1 104.293 92.025 104.218 92.175C103.77 93 103.321 93.9 102.872 94.725H99.1344C99.0596 94.725 99.0596 94.725 99.0596 94.725C98.9101 94.8 98.8353 94.95 98.9848 95.1L101.901 97.725C101.153 98.925 100.331 100.125 99.5829 101.325C99.5082 101.475 99.5829 101.55 99.6577 101.625C99.7324 101.7 99.8072 101.775 99.9567 101.7C101.527 100.65 103.097 99.525 104.667 98.475C105.414 99.375 106.386 100.2 107.358 100.875C107.732 101.1 108.48 101.625 108.255 100.8C107.881 99.525 107.358 98.25 106.835 97.05C107.881 96.3 108.928 95.55 110.05 94.8C110.05 94.8 110.05 94.8 110.124 94.725C110.124 94.875 110.05 94.575 109.751 94.575Z" fill="#C1A073"/>
<path d="M66.8372 100.65C65.4167 100.875 64.071 101.1 62.6505 101.25C62.3515 100.35 62.0524 99.375 61.7534 98.475C61.7534 98.4 61.6786 98.4 61.6786 98.325C61.6039 98.175 61.3796 98.1 61.3048 98.25C60.8563 99.075 60.4077 99.975 59.9591 100.8H56.221C56.1463 100.8 56.1463 100.8 56.1463 100.8C55.9967 100.875 55.922 101.025 56.0715 101.175L58.9872 103.8C58.2396 105 57.4172 106.2 56.6696 107.4C56.5948 107.55 56.6696 107.625 56.7444 107.7C56.8191 107.775 56.8939 107.85 57.0434 107.775C58.6134 106.725 60.1834 105.6 61.7534 104.55C62.501 105.45 63.4729 106.275 64.4448 106.95C64.8186 107.175 65.5663 107.7 65.342 106.875C64.9682 105.6 64.4448 104.325 63.9215 103.125C64.9682 102.375 66.0148 101.625 67.1363 100.875C67.1363 100.875 67.1363 100.875 67.211 100.8C67.211 100.95 67.0615 100.65 66.8372 100.65Z" fill="#C1A073"/>
<path d="M102.499 116.475C101.003 116.325 99.5828 116.1 98.0876 115.95C97.4895 114.075 96.8166 112.2 96.2185 110.325C96.2185 110.25 96.1438 110.25 96.1438 110.175C96.069 110.025 95.7699 110.025 95.6952 110.25L93.9009 116.4C92.4057 116.85 90.8357 117.225 89.2657 117.45C89.1909 117.45 89.1909 117.45 89.1161 117.45C88.8171 117.525 88.8171 117.975 89.1161 117.975H89.1909C90.5366 118.35 91.8076 118.725 93.1533 119.025C92.7047 120.75 92.2561 122.475 91.8076 124.2C91.7328 124.5 92.1066 124.65 92.2561 124.425C92.3309 124.425 92.3309 124.425 92.4057 124.35C93.6018 122.85 94.8728 121.275 96.069 119.775C97.3399 120.975 98.6857 122.25 99.9566 123.45C100.181 123.675 100.48 123.375 100.405 123.15C100.405 123.075 100.405 123.075 100.405 123C99.7323 121.425 99.1342 119.85 98.4614 118.275C99.8071 117.825 101.228 117.45 102.573 117C102.648 117 102.723 116.925 102.723 116.85C102.798 116.775 102.723 116.475 102.499 116.475Z" fill="#C1A073"/>
<path fill-rule="evenodd" clip-rule="evenodd" d="M58.9123 77.7C57.2675 77.7 57.2675 80.25 58.9123 80.25C60.557 80.25 60.557 77.7 58.9123 77.7Z" fill="#C1A073"/>
<path fill-rule="evenodd" clip-rule="evenodd" d="M130.684 107.025C129.039 107.025 129.039 109.575 130.684 109.575C132.329 109.575 132.329 107.025 130.684 107.025Z" fill="#C1A073"/>
<path fill-rule="evenodd" clip-rule="evenodd" d="M143.543 124.425C141.898 124.425 141.898 126.975 143.543 126.975C145.188 126.975 145.188 124.425 143.543 124.425Z" fill="#C1A073"/>
<path fill-rule="evenodd" clip-rule="evenodd" d="M104.442 175.8C102.798 175.8 102.798 178.35 104.442 178.35C106.087 178.35 106.087 175.8 104.442 175.8Z" fill="#C1A073"/>
<path fill-rule="evenodd" clip-rule="evenodd" d="M32.5214 137.775C30.8767 137.775 30.8767 140.325 32.5214 140.325C34.1662 140.325 34.1662 137.775 32.5214 137.775Z" fill="#C1A073"/>
<path fill-rule="evenodd" clip-rule="evenodd" d="M79.3224 84.2249C77.6777 84.2249 77.6777 86.7748 79.3224 86.7748C80.9672 86.7748 80.9672 84.2249 79.3224 84.2249Z" fill="#C1A073"/>
<path fill-rule="evenodd" clip-rule="evenodd" d="M41.4181 157.725C39.7734 157.725 39.7734 160.275 41.4181 160.275C43.0629 160.275 43.0629 157.725 41.4181 157.725Z" fill="#C1A073"/>
<path fill-rule="evenodd" clip-rule="evenodd" d="M143.543 108.3C141.898 108.3 141.898 110.85 143.543 110.85C145.188 110.85 145.188 108.3 143.543 108.3Z" fill="#C1A073"/>
<path fill-rule="evenodd" clip-rule="evenodd" d="M75.2104 101.85C73.5656 101.85 73.5656 104.4 75.2104 104.4C76.8551 104.4 76.8551 101.85 75.2104 101.85Z" fill="#C1A073"/>
<path fill-rule="evenodd" clip-rule="evenodd" d="M48.8942 96.75C47.2495 96.75 47.2495 99.3 48.8942 99.3C50.4642 99.3 50.539 96.75 48.8942 96.75Z" fill="#C1A073"/>
<path fill-rule="evenodd" clip-rule="evenodd" d="M110.349 114.525C108.704 114.525 108.704 117.075 110.349 117.075C111.993 117.075 111.993 114.525 110.349 114.525Z" fill="#C1A073"/>
<path fill-rule="evenodd" clip-rule="evenodd" d="M124.329 126.6C122.684 126.6 122.684 129.15 124.329 129.15C125.974 129.15 125.974 126.6 124.329 126.6Z" fill="#C1A073"/>
<path fill-rule="evenodd" clip-rule="evenodd" d="M106.61 130.8C104.966 130.8 104.966 133.35 106.61 133.35C108.255 133.35 108.255 130.8 106.61 130.8Z" fill="#C1A073"/>
<path fill-rule="evenodd" clip-rule="evenodd" d="M87.6957 106.35C86.051 106.35 86.051 108.9 87.6957 108.9C89.3405 108.975 89.3405 106.35 87.6957 106.35Z" fill="#C1A073"/>
<path fill-rule="evenodd" clip-rule="evenodd" d="M103.246 142.725C101.602 142.725 101.602 145.275 103.246 145.275C104.891 145.275 104.891 142.725 103.246 142.725Z" fill="#C1A073"/>
<path fill-rule="evenodd" clip-rule="evenodd" d="M81.4157 121.05C79.7709 121.05 79.7709 123.6 81.4157 123.6C83.0605 123.6 83.0605 121.05 81.4157 121.05Z" fill="#C1A073"/>
<path fill-rule="evenodd" clip-rule="evenodd" d="M125.6 136.5C123.955 136.5 123.955 139.05 125.6 139.05C127.245 139.05 127.245 136.5 125.6 136.5Z" fill="#C1A073"/>
<path fill-rule="evenodd" clip-rule="evenodd" d="M117.451 149.7C115.806 149.7 115.806 152.25 117.451 152.25C119.096 152.25 119.096 149.7 117.451 149.7Z" fill="#C1A073"/>
<path fill-rule="evenodd" clip-rule="evenodd" d="M67.1362 116.025C65.4914 116.025 65.4914 118.575 67.1362 118.575C68.7809 118.575 68.7809 116.025 67.1362 116.025Z" fill="#C1A073"/>
<path fill-rule="evenodd" clip-rule="evenodd" d="M114.685 172.125C113.04 172.125 113.04 174.675 114.685 174.675C116.329 174.675 116.329 172.125 114.685 172.125Z" fill="#C1A073"/>
<path fill-rule="evenodd" clip-rule="evenodd" d="M80.5934 132.075C78.9487 132.075 78.9487 134.625 80.5934 134.625C82.1634 134.625 82.1634 132.075 80.5934 132.075Z" fill="#C1A073"/>
<path fill-rule="evenodd" clip-rule="evenodd" d="M51.5109 150.975C49.8662 150.975 49.8662 153.525 51.5109 153.525C53.1557 153.525 53.1557 150.975 51.5109 150.975Z" fill="#C1A073"/>
<path fill-rule="evenodd" clip-rule="evenodd" d="M23.55 62.325C21.9052 62.325 21.9052 64.875 23.55 64.875C25.1947 64.875 25.1947 62.325 23.55 62.325Z" fill="#C1A073"/>
<path fill-rule="evenodd" clip-rule="evenodd" d="M46.3525 139.275C44.7077 139.275 44.7077 141.825 46.3525 141.825C47.9972 141.825 47.9972 139.275 46.3525 139.275Z" fill="#C1A073"/>
<path fill-rule="evenodd" clip-rule="evenodd" d="M38.9509 127.2C37.3061 127.2 37.3061 129.75 38.9509 129.75C40.5956 129.75 40.5956 127.2 38.9509 127.2Z" fill="#C1A073"/>
<path fill-rule="evenodd" clip-rule="evenodd" d="M46.3525 122.4C44.7077 122.4 44.7077 124.95 46.3525 124.95C47.9972 124.95 47.9972 122.4 46.3525 122.4Z" fill="#C1A073"/>
<path fill-rule="evenodd" clip-rule="evenodd" d="M24.821 120C23.1762 120 23.1762 122.55 24.821 122.55C26.391 122.55 26.4657 120 24.821 120Z" fill="#C1A073"/>
<path d="M69.7204 166.444C73.4283 166.444 76.4342 163.426 76.4342 159.704C76.4342 155.981 73.4283 152.963 69.7204 152.963C66.0125 152.963 63.0066 155.981 63.0066 159.704C63.0066 163.426 66.0125 166.444 69.7204 166.444Z" stroke="white" stroke-miterlimit="10"/>
<path d="M90.8947 164.889C94.6027 164.889 97.6085 161.987 97.6085 158.408C97.6085 154.828 94.6027 151.926 90.8947 151.926C87.1868 151.926 84.1809 154.828 84.1809 158.408C84.1809 161.987 87.1868 164.889 90.8947 164.889Z" stroke="white" stroke-miterlimit="10"/>
<path d="M76.4343 159.704L84.181 159.185" stroke="white" stroke-miterlimit="10"/>
</svg>
