<svg width="215" height="159" viewBox="0 0 215 159" fill="none" xmlns="http://www.w3.org/2000/svg">
<g clip-path="url(#clip0)">
<path d="M174.396 119.74C165.391 95.2978 162.928 68.4713 167.26 42.752C167.345 42.4113 167.43 41.9855 167.685 41.8152C168.704 40.9635 169.469 44.3701 169.639 44.8811C170.233 46.5843 170.828 48.2024 171.423 49.9057C172.612 53.2271 173.716 56.6336 174.65 60.0401C176.604 66.6829 178.218 73.4108 179.153 80.2239C181.021 93.339 180.427 106.965 175.84 119.399C175.67 119.91 175.16 120.506 174.65 120.251C174.566 120.251 174.481 119.995 174.396 119.74C174.396 119.825 174.396 119.74 174.396 119.74Z" fill="#3A3F57"/>
<path d="M174.651 106.625C174.651 106.539 174.651 106.539 174.566 106.454C172.272 98.2785 170.658 89.9325 169.724 81.5013C168.789 73.3257 167.94 65.15 168.619 56.9743C168.704 55.782 169.639 54.2491 170.488 55.8672C170.913 56.5485 170.573 58.4221 170.658 59.2737C170.743 61.488 170.913 63.7022 170.998 65.9164C171.253 70.3449 171.677 74.7734 172.102 79.1168C173.037 87.8886 174.226 96.7456 175.755 105.432C175.84 105.858 175.925 106.284 175.755 106.625C175.585 106.965 175.075 107.221 174.735 106.88C174.735 106.795 174.736 106.71 174.651 106.625Z" fill="#495382"/>
<path d="M171.507 68.3862C172.952 67.0236 174.396 65.5758 175.925 64.2132C176.095 64.8945 176.264 65.5758 176.434 66.3423C175.67 67.4494 174.905 68.4713 174.056 69.4933C173.376 70.3449 172.102 72.3889 170.998 72.8147C170.403 73.0702 169.978 72.6444 169.724 72.0482C169.129 70.2598 170.318 69.4933 171.507 68.3862Z" fill="#495382"/>
<path d="M171.762 83.2046C174.056 80.7349 176.265 78.3503 178.558 75.8806C178.728 76.5619 178.813 77.3284 178.898 78.0097C177.114 80.3942 175.415 82.864 173.631 85.2486C173.291 85.7595 172.102 86.6963 171.762 85.6744C171.678 85.504 171.678 85.3337 171.593 85.0782C171.423 84.4821 171.338 83.5453 171.762 83.2046Z" fill="#495382"/>
<path d="M173.631 94.1055C175.585 91.7209 177.709 89.5067 179.917 87.3776C180.002 88.3996 180.087 89.4215 180.087 90.4435C178.218 92.7429 176.434 95.1275 174.566 97.4269C174.226 97.7675 173.631 98.534 173.122 97.9379C172.952 97.7675 172.867 97.4269 172.867 97.0862C172.867 96.0643 173.291 94.5313 173.631 94.1055Z" fill="#495382"/>
<path d="M19.7076 36.5351C22.9356 61.7435 22.5958 87.037 17.414 112.075C17.3291 112.671 16.4796 112.416 16.5646 111.82C21.7463 86.9518 22.0011 61.7435 18.7732 36.5351C18.7732 36.0241 19.6226 36.0241 19.7076 36.5351Z" fill="#68422D"/>
<path d="M17.0743 23.1644C17.1593 23.0793 17.2442 22.9089 17.3292 22.9089C17.4991 22.9089 17.584 22.9941 17.7539 23.1644C19.283 24.9529 20.2174 27.1671 20.6421 29.3814C20.8969 30.9995 20.8969 32.6176 20.7271 34.2357C20.6421 35.0021 20.4722 35.7686 20.3023 36.5351C20.2174 37.1312 20.1324 37.8125 19.5378 38.1532C19.4529 38.2383 19.283 38.2383 19.198 38.2383C19.0281 38.2383 18.8582 37.9829 18.7733 37.8125C17.669 35.5131 16.7346 33.2137 16.2249 30.744C15.8001 28.2742 15.8851 25.6342 16.9894 23.3348C17.0743 23.2496 17.0743 23.1644 17.0743 23.1644Z" fill="#68422D"/>
<path d="M25.484 38.3235C25.484 38.3235 25.569 38.3235 25.569 38.2384C25.7388 38.1532 25.9087 38.3235 25.9937 38.4939C26.0786 38.6642 25.9937 38.8345 25.9937 39.09C25.7388 40.9636 25.3141 42.752 24.3797 44.5405C23.4453 46.2437 22.256 47.436 20.8969 48.7986C20.8119 48.8838 20.727 48.969 20.642 48.8838C20.3872 48.8838 20.3872 48.5431 20.3872 48.2876C20.9818 44.6256 22.6808 41.1339 25.2292 38.4087C25.3141 38.4087 25.3991 38.4087 25.484 38.3235Z" fill="#68422D"/>
<path d="M13.9313 39.6861C14.0163 39.4306 14.356 39.5158 14.5259 39.601C16.2249 40.5377 17.669 41.9855 18.7733 43.6036C19.283 44.4553 19.7926 45.3921 20.0475 46.3289C20.2174 46.8398 20.3023 47.2656 20.4722 47.7766C20.5572 48.2024 20.727 48.7986 20.0475 48.5431C19.283 48.2876 18.6034 47.6915 18.0937 47.0102C17.2442 45.9882 16.4797 44.7959 15.8001 43.6036C15.1206 42.4113 14.441 41.1339 13.9313 39.8564C13.9313 39.8564 13.8464 39.7713 13.9313 39.6861Z" fill="#68422D"/>
<path d="M135.49 54.6749C135.49 54.0788 136.339 54.0788 136.339 54.6749C137.699 78.7761 142.286 102.622 149.931 125.531C150.101 126.042 149.251 126.297 149.081 125.786C141.436 102.877 136.849 78.9465 135.49 54.6749Z" fill="#68422D"/>
<path d="M127.42 53.2271C125.381 52.5458 126.316 49.6503 126.571 48.1173C127.42 43.1779 132.262 45.3921 134.81 48.0322C134.556 47.1805 134.386 46.2437 134.216 45.3069C134.046 44.4553 133.706 43.263 133.961 42.3262C134.471 40.7081 136.594 40.623 137.953 40.7081C139.483 40.7933 141.181 41.4746 141.351 43.1779C141.436 43.8592 141.097 44.5405 140.757 45.1366C140.247 46.0734 139.737 47.0102 139.228 47.8618C140.672 47.0954 142.286 46.4992 143.645 46.5844C145.599 46.7547 145.854 49.3948 146.193 50.9277C147.128 55.1007 142.965 54.2491 139.907 53.142C141.351 53.9084 142.88 54.5898 143.475 56.2079C144.07 57.826 143.135 59.1034 141.861 59.955C140.417 60.8918 138.888 61.2325 137.784 59.6996C137.019 58.5924 136.509 57.2298 136.17 55.782C135.49 58.9331 134.046 62.2545 130.818 59.8699C129.544 58.9331 127.93 57.315 128.864 55.6117C129.289 54.7601 130.138 54.2491 130.903 53.7381C131.667 53.2271 132.517 52.7162 133.366 52.2052C132.347 52.4607 131.243 52.631 130.223 52.8013C129.204 53.2271 128.27 53.4826 127.42 53.2271Z" fill="#C1A073"/>
<path d="M133.536 51.5239C133.536 51.0981 133.621 50.6722 133.791 50.3316C134.046 49.9058 134.386 49.5651 134.895 49.3096C135.575 48.8838 136.509 48.7986 137.274 49.0541C139.058 49.6503 139.567 51.9497 138.293 53.3123C137.614 53.9936 136.679 54.3343 135.745 54.1639C134.81 53.9936 134.046 53.2271 133.706 52.3755C133.621 52.12 133.536 51.8645 133.536 51.5239Z" fill="#FFBE17"/>
<path d="M164.797 122.039C159.87 91.4655 156.472 60.7215 154.518 29.8072C154.433 28.9556 155.792 28.9556 155.877 29.8072C157.831 60.5512 161.314 91.21 166.156 121.698C166.241 122.55 164.966 122.891 164.797 122.039Z" fill="#645D33"/>
<path d="M145.599 58.0814C145.768 58.0814 145.938 58.0814 146.108 58.0814C149.081 58.5072 151.8 59.955 154.008 61.9138C154.773 62.5951 159.785 68.0455 158.425 68.7269C158.171 68.8972 157.746 68.812 157.406 68.812C152.054 67.9604 147.128 64.2984 144.919 59.2737C144.834 59.0182 144.749 58.7627 144.834 58.5072C145.004 58.1666 145.259 58.0814 145.599 58.0814Z" fill="#645D33"/>
<path d="M152.394 95.383C152.564 95.383 152.734 95.4681 152.904 95.4681C155.707 96.4049 158.256 98.1933 160.125 100.493C160.804 101.344 164.797 107.476 163.353 107.987C163.013 108.072 162.673 107.987 162.333 107.902C157.151 106.199 152.989 101.685 151.63 96.4049C151.545 96.1494 151.545 95.8939 151.63 95.6384C151.8 95.4681 152.055 95.383 152.394 95.383Z" fill="#645D33"/>
<path d="M168.704 78.7761C168.874 78.9465 168.959 79.202 168.959 79.5426C169.384 84.9931 166.835 90.5287 162.418 93.8501C162.163 94.0204 161.823 94.2759 161.484 94.2759C159.955 94.2759 161.823 87.1222 162.163 86.1854C163.182 83.375 164.966 80.9052 167.345 79.1168C167.515 79.0316 167.6 78.9465 167.77 78.8613C168.194 78.6058 168.534 78.6058 168.704 78.7761Z" fill="#645D33"/>
<path d="M175.16 101.6C175.33 101.855 175.245 102.111 175.245 102.366C174.141 107.732 170.148 112.416 165.052 114.374C164.712 114.46 164.372 114.63 164.117 114.545C162.673 114.119 166.326 107.817 167.005 106.965C168.789 104.581 171.168 102.622 173.971 101.6C174.141 101.515 174.311 101.515 174.481 101.43C174.735 101.259 174.99 101.344 175.16 101.6Z" fill="#645D33"/>
<path d="M138.803 24.0161C139.143 23.7606 139.652 23.5052 139.907 23.2497C139.567 23.1645 139.143 23.0793 138.888 22.8238C138.123 22.0574 138.293 21.0354 139.058 20.3541C140.162 19.247 142.371 18.736 143.815 18.3953C144.409 18.225 145.004 18.1399 145.599 18.0547C144.834 17.8844 144.155 17.6289 143.475 17.2882C142.371 16.7772 140.247 15.4998 141.691 14.1372C141.861 13.9668 142.116 13.8817 142.286 13.7965C143.22 13.4559 143.135 13.541 142.625 12.6894C142.286 12.0933 141.776 11.6674 142.201 10.901C142.456 10.39 142.88 10.1345 143.39 10.0493C143.985 9.96418 144.749 10.4752 145.344 10.5603C145.429 10.5603 145.599 10.6455 145.768 10.5603C146.448 10.39 145.684 9.4532 145.599 9.11254C145.429 8.5164 145.429 8.00542 145.684 7.40928C146.108 6.47248 147.128 5.9615 148.147 6.04666C149.506 6.13182 150.695 7.23895 151.63 8.17574C152.394 8.85705 153.074 9.62353 153.669 10.4752C153.329 8.68673 152.904 6.89829 152.819 5.19503C152.734 3.66209 153.074 2.04399 154.518 1.27752C155.113 0.936869 155.707 0.851702 156.387 1.02203C157.151 1.27752 157.491 2.04399 158.256 2.38465C159.53 2.98079 161.059 1.70333 162.163 2.64013C162.588 2.98078 162.758 3.49176 162.843 4.00274C162.928 4.25823 162.758 4.85438 162.928 5.10987C163.607 6.64281 164.287 5.79117 165.136 5.62084C166.326 5.36535 167.43 5.79117 167.855 6.98346C168.364 8.68672 166.92 10.3048 165.816 11.412C164.881 12.4339 163.862 13.2855 162.758 14.052C164.457 13.541 166.156 13.0301 167.855 12.6042C169.299 12.1784 171.083 11.9229 172.272 13.2004C173.036 13.9669 173.206 15.1591 172.612 16.0959C172.272 16.6921 171.592 16.7772 171.592 17.4586C171.677 18.225 172.102 18.0547 172.612 18.4805C173.036 18.8212 173.376 19.247 173.376 19.8431C173.376 20.2689 173.121 20.6096 172.866 20.8651C172.357 21.2909 171.168 21.2057 171.422 21.8019C171.677 22.3129 172.357 22.3129 172.527 23.0793C172.612 23.5903 172.442 24.1013 172.187 24.5271C171.252 25.8897 169.214 25.4639 167.855 25.2936C167.345 25.2084 166.92 25.1232 166.411 25.0381C167.94 26.4007 169.214 28.104 169.893 30.0627C170.318 31.255 170.488 32.7879 169.214 33.5544C168.619 33.8951 168.279 33.7247 167.685 33.7247C167.09 33.7247 166.326 33.2138 165.816 33.8099C165.901 33.7247 165.646 35.0874 165.731 35.0874C165.391 35.939 164.627 36.5351 163.692 36.0242C162.843 35.5983 163.267 34.7467 161.993 35.3428C161.484 35.5983 161.399 36.0242 160.719 36.0242C159.19 36.1093 158.595 34.4061 158.171 33.2138C157.916 32.4473 157.661 31.6808 157.406 30.9144C157.236 32.4473 156.727 33.9802 155.707 35.1725C155.198 35.7687 154.348 36.3648 153.584 36.3648C152.394 36.3648 152.139 35.5132 151.8 34.5764C151.715 34.406 151.46 33.6396 151.205 33.8099C151.12 33.8099 151.12 33.8951 151.12 33.9802C150.95 34.406 150.78 34.917 150.271 35.0874C149.421 35.5132 148.996 35.0874 148.657 34.406C148.402 33.9802 148.147 33.4693 147.552 33.4693C146.873 33.3841 146.363 33.9802 145.684 33.5544C144.494 32.7879 144.834 31.3402 145.344 30.4034C145.684 29.8072 146.108 29.2111 146.533 28.7001C145.853 29.1259 145.089 29.3814 144.324 29.6369C143.22 29.9776 141.861 30.1479 141.011 29.1259C140.077 28.0188 141.096 26.6562 142.116 26.1452C141.351 26.2304 140.417 26.3155 139.567 26.3155C138.973 26.3155 138.378 26.06 138.208 25.4639C137.953 24.8678 138.293 24.3568 138.803 24.0161Z" fill="#C1A073"/>
<path d="M148.572 22.2276C148.062 20.865 148.742 19.5876 149.931 18.9914C149.421 17.8843 149.421 16.6068 150.271 15.5849C151.205 14.3926 152.734 14.1371 154.093 14.6481C155.112 13.541 156.387 12.6042 157.916 13.03C158.85 13.2855 159.445 14.0519 159.53 14.9036C160.209 14.7333 161.059 14.8184 161.568 15.4146C162.333 16.181 162.503 17.2881 162.163 18.2249C163.182 18.6508 163.777 19.9282 163.437 21.0353C163.182 21.9721 162.503 22.5683 161.738 22.9089C162.248 23.7606 162.248 24.8677 161.484 25.8045C160.294 27.2523 158.425 27.0819 156.981 26.1451C156.217 26.9968 155.028 27.5078 153.753 27.1671C152.394 26.8264 151.545 25.4638 151.46 24.1012C150.355 24.1864 148.996 23.5051 148.572 22.2276Z" fill="#FFC152"/>
<path d="M154.008 17.203C154.858 16.7772 156.047 16.7772 156.896 17.0327C158.426 17.4585 159.445 19.0766 159.275 20.6947C159.105 22.2277 157.661 23.5903 156.132 23.6755C154.518 23.7606 152.989 22.6535 152.564 21.1206C152.224 20.0134 152.564 18.736 153.244 17.7992C153.414 17.6289 153.669 17.3734 154.008 17.203Z" fill="#9F5D3A"/>
<path d="M183.06 41.9004C195.038 59.1885 205.656 77.3283 215 96.1494C215.255 96.6604 214.491 97.0862 214.236 96.5752C204.977 77.8393 194.358 59.7847 182.466 42.4965C182.041 41.9855 182.721 41.3894 183.06 41.9004Z" fill="#68422D"/>
<path d="M171.932 28.7852C171.847 28.5297 171.932 28.1891 172.187 28.1039C172.357 28.0188 172.527 28.1039 172.782 28.1891C178.643 30.3182 181.531 36.1944 183.145 41.9004C183.23 42.241 183.23 42.8372 182.89 42.9224C182.635 43.0075 182.381 42.8372 182.211 42.6669C177.963 38.9197 174.566 34.3209 172.102 29.2111C172.017 29.0407 172.017 28.8704 171.932 28.7852Z" fill="#68422D"/>
<path d="M191.725 56.3781C191.64 56.293 191.64 56.1226 191.555 56.0375C189.346 50.8425 188.072 45.3069 187.817 39.6009C187.817 39.4306 187.817 39.2603 187.902 39.09C188.072 38.8345 188.412 38.8345 188.667 38.9196C189.177 39.1751 189.516 40.0267 189.771 40.5377C190.196 41.3042 190.621 42.0707 190.96 42.752C191.725 44.1998 192.404 45.7327 192.914 47.3508C193.764 50.076 194.018 53.1419 193.084 55.782C192.914 56.2078 192.659 56.7188 192.235 56.6336C191.98 56.6336 191.895 56.5484 191.725 56.3781Z" fill="#68422D"/>
<path d="M200.984 71.6224C200.899 71.5372 200.899 71.3669 200.814 71.2817C198.605 66.0868 197.331 60.5511 197.076 54.8452C197.076 54.6749 197.076 54.5045 197.161 54.3342C197.331 54.0787 197.671 54.0787 197.926 54.1639C198.436 54.4194 198.775 55.271 199.03 55.782C199.455 56.5485 199.88 57.3149 200.219 57.9962C200.984 59.444 201.664 60.977 202.173 62.5951C203.023 65.3203 203.277 68.3862 202.343 71.0262C202.173 71.4521 201.918 71.963 201.494 71.8779C201.239 71.8779 201.069 71.7927 200.984 71.6224Z" fill="#68422D"/>
<path d="M206.845 81.5865C206.845 81.5014 206.76 81.4162 206.76 81.2459C205.996 76.4767 205.996 71.6224 207.015 66.9384C207.015 66.7681 207.1 66.6829 207.185 66.5978C207.355 66.4274 207.695 66.5126 207.865 66.5978C208.204 66.9384 208.289 67.7049 208.459 68.1307C208.629 68.812 208.799 69.4933 208.969 70.2598C209.309 71.6224 209.564 72.985 209.648 74.4328C209.818 76.9025 209.394 79.3723 208.034 81.4162C207.865 81.7568 207.44 82.0975 207.1 81.9272C207.015 81.9272 206.93 81.7568 206.845 81.5865Z" fill="#68422D"/>
<path d="M201.664 71.7076C201.579 72.1334 201.069 72.3037 200.559 72.3037C197.671 72.3037 194.953 71.0263 192.659 69.2378C191.3 68.2159 190.111 67.1087 189.007 65.8313C188.412 65.2351 187.902 64.5538 187.308 63.9577C186.968 63.5319 186.288 62.9357 186.203 62.4248C186.203 62.1693 186.288 61.8286 186.628 61.7435C186.798 61.7435 186.968 61.7435 187.138 61.8286C192.32 63.9577 197.161 67.1087 201.239 70.9411C201.324 71.0263 201.409 71.1114 201.494 71.1966C201.579 71.3669 201.664 71.5372 201.664 71.7076Z" fill="#68422D"/>
<path d="M207.865 82.9491C207.865 83.3749 207.27 83.6304 206.845 83.6304C204.042 83.971 201.154 83.0342 198.606 81.6716C197.162 80.82 195.802 79.8832 194.613 78.7761C193.934 78.2651 193.339 77.669 192.659 77.0728C192.235 76.7322 191.555 76.2212 191.385 75.625C191.3 75.3696 191.385 75.0289 191.725 74.9437C191.895 74.8586 192.065 74.9437 192.235 74.9437C197.671 76.3915 202.853 78.8612 207.355 82.1826C207.44 82.2678 207.525 82.3529 207.61 82.4381C207.78 82.6084 207.865 82.7788 207.865 82.9491Z" fill="#68422D"/>
<path d="M192.235 56.3781C192.235 56.804 191.725 56.9743 191.3 56.9743C188.752 57.1446 186.203 56.2078 183.995 54.8452C182.72 54.0787 181.616 53.1419 180.512 52.12C179.917 51.609 179.408 51.098 178.813 50.5019C178.473 50.1612 177.794 49.7354 177.709 49.1393C177.624 48.8838 177.794 48.5431 178.048 48.5431C178.218 48.5431 178.303 48.5431 178.473 48.6283C183.315 50.1612 187.902 52.5458 191.81 55.6968C191.895 55.782 191.98 55.8672 192.065 55.9523C192.15 56.0375 192.235 56.2078 192.235 56.3781Z" fill="#68422D"/>
<path d="M149.931 124.679C150.016 124.849 150.101 125.105 150.016 125.275C149.846 125.786 149.082 125.616 148.572 125.36C137.104 118.803 127.93 108.668 120.964 97.4269C117.311 91.5506 114.253 85.3337 111.45 79.0316C110.006 75.7954 108.732 72.474 107.458 69.1526C106.863 67.5345 106.183 65.8313 105.589 64.128C105.419 63.617 103.805 60.5512 105.164 60.466C105.504 60.466 105.844 60.7215 106.099 60.977C125.891 77.9245 141.181 100.152 149.931 124.679Z" fill="#3A3F57"/>
<path d="M141.351 115.056C141.351 115.482 140.757 115.652 140.417 115.482C140.077 115.311 139.822 114.971 139.652 114.63C135.235 106.965 130.563 99.4708 125.636 92.1468C123.173 88.4848 120.624 84.8227 117.991 81.2459C116.717 79.4574 115.358 77.669 113.999 75.8806C113.489 75.1993 112.13 74.007 111.96 73.1553C111.62 71.2818 113.234 71.9631 114.084 72.7295C119.86 78.6058 124.447 85.4189 128.949 92.2319C133.621 99.3005 137.784 106.795 141.266 114.46C141.266 114.545 141.351 114.545 141.351 114.63C141.266 114.885 141.351 114.971 141.351 115.056Z" fill="#495382"/>
<path d="M119.265 83.375C117.227 83.2046 115.273 83.1195 113.234 82.9492C113.574 83.6305 113.829 84.2266 114.169 84.9079C115.443 85.2486 116.717 85.5892 117.991 85.8447C119.095 86.1002 121.304 86.7815 122.408 86.4409C123.003 86.2705 123.088 85.5892 122.918 84.9931C122.323 83.375 120.794 83.4601 119.265 83.375Z" fill="#495382"/>
<path d="M128.524 94.9572C125.212 94.5313 121.899 94.1055 118.671 93.6797C119.01 94.2758 119.35 94.9572 119.775 95.5533C122.663 96.3198 125.551 97.0011 128.44 97.7675C129.034 97.9379 130.563 97.9379 130.223 96.9159C130.138 96.7456 130.054 96.5753 129.969 96.4049C129.629 95.6385 129.034 94.9572 128.524 94.9572Z" fill="#495382"/>
<path d="M134.046 104.495C131.073 103.899 128.015 103.559 124.872 103.388C125.466 104.24 126.061 105.006 126.656 105.858C129.544 106.454 132.432 107.05 135.405 107.647C135.915 107.732 136.849 107.902 136.849 107.136C136.849 106.88 136.764 106.625 136.51 106.369C135.915 105.517 134.641 104.666 134.046 104.495Z" fill="#495382"/>
<path d="M29.2217 149.291C34.7432 123.828 47.0605 99.8966 64.5595 80.6497C64.8143 80.3942 65.0692 80.1387 65.409 80.0535C66.7681 79.9684 65.5789 83.2046 65.409 83.7156C64.9842 85.4188 64.6444 87.2073 64.2197 88.9105C63.3702 92.4022 62.5208 95.8088 61.5014 99.2153C59.5477 105.858 57.339 112.416 54.4508 118.718C49.0143 130.726 41.1992 141.967 30.5808 149.887C30.1561 150.228 29.3916 150.484 29.1367 149.973C29.0518 149.802 29.1368 149.547 29.2217 149.291C29.2217 149.377 29.2217 149.377 29.2217 149.291Z" fill="#3A3F57"/>
<path d="M36.5271 138.39C36.5271 138.305 36.5271 138.305 36.612 138.22C39.0755 130.13 42.2185 122.209 45.9562 114.545C49.5239 107.221 53.2616 99.8115 58.1885 93.2539C58.8681 92.3171 60.482 91.4655 60.3121 93.339C60.2272 94.1907 59.0379 95.5533 58.6132 96.3198C57.5089 98.2785 56.4046 100.152 55.3852 102.111C53.2616 106.028 51.2229 109.946 49.1841 113.863C45.1916 121.784 41.5389 129.789 38.1411 137.965C37.9712 138.305 37.8013 138.731 37.4615 138.987C37.1217 139.242 36.5271 139.072 36.4421 138.731C36.4421 138.646 36.4421 138.476 36.5271 138.39Z" fill="#495382"/>
<path d="M54.366 104.495C56.3197 104.07 58.3585 103.729 60.3122 103.303C60.0574 103.984 59.8875 104.666 59.6327 105.347C58.4434 105.858 57.1692 106.369 55.98 106.71C54.8757 107.05 52.752 108.072 51.6477 107.902C50.9681 107.817 50.8832 107.221 50.9681 106.539C51.3079 104.836 52.8369 104.751 54.366 104.495Z" fill="#495382"/>
<path d="M46.6356 117.1C49.8636 116.248 53.0916 115.396 56.2346 114.545C55.9798 115.226 55.64 115.907 55.3851 116.589C52.5819 117.696 49.7787 118.803 47.0604 119.825C46.4657 120.08 45.0216 120.251 45.1915 119.144C45.1915 118.973 45.2765 118.803 45.3614 118.547C45.6163 117.951 46.1259 117.185 46.6356 117.1Z" fill="#495382"/>
<path d="M42.3885 127.319C45.2767 126.382 48.2498 125.616 51.3079 125.105C50.7982 125.957 50.3735 126.893 49.8638 127.745C47.0606 128.682 44.2573 129.704 41.4541 130.641C41.0294 130.811 40.0949 131.066 39.925 130.3C39.925 130.044 40.01 129.789 40.1799 129.448C40.6896 128.512 41.7939 127.49 42.3885 127.319Z" fill="#495382"/>
<path d="M39.5853 157.978C50.2886 134.217 67.193 113.352 88.3447 98.023C88.5995 97.8527 88.9393 97.5972 89.364 97.5972C90.7232 97.7676 88.8544 100.663 88.5995 101.174C87.835 102.792 87.1554 104.41 86.3909 106.028C84.8619 109.265 83.2479 112.416 81.6339 115.567C78.4059 121.698 74.8382 127.575 70.6758 133.196C62.8607 143.841 52.837 153.209 40.8595 158.83C40.3498 159.085 39.5853 159.17 39.4154 158.659C39.3305 158.404 39.4154 158.234 39.5853 157.978Z" fill="#3A3F57"/>
<path d="M48.9294 148.78C48.9294 148.695 49.0143 148.695 49.0143 148.61C53.0917 141.201 57.8488 134.047 63.0305 127.404C68.0424 120.932 73.2241 114.545 79.4252 109.094C80.2747 108.328 82.0586 107.817 81.5489 109.69C81.294 110.457 79.8499 111.564 79.3403 112.245C77.8962 113.863 76.4521 115.567 75.008 117.27C72.1198 120.591 69.3166 123.998 66.5133 127.49C60.9918 134.388 55.7251 141.541 50.7132 148.78C50.4584 149.121 50.2036 149.462 49.8638 149.632C49.524 149.802 48.9294 149.547 48.9294 149.121C48.8444 148.951 48.9294 148.866 48.9294 148.78Z" fill="#495382"/>
<path d="M73.394 119.229C75.4328 119.229 77.4715 119.314 79.4253 119.314C79.0855 119.91 78.7457 120.591 78.321 121.187C77.0467 121.443 75.7725 121.613 74.4134 121.784C73.3091 121.954 71.0155 122.465 69.9112 122.039C69.3166 121.784 69.3166 121.187 69.5714 120.591C70.4209 118.973 71.865 119.229 73.394 119.229Z" fill="#495382"/>
<path d="M63.2853 130.044C66.5983 129.874 69.9112 129.704 73.2241 129.533C72.7994 130.13 72.3746 130.726 71.9499 131.322C68.9768 131.833 66.0886 132.344 63.1154 132.77C62.5208 132.855 60.9918 132.77 61.4165 131.748C61.5015 131.577 61.5864 131.407 61.6713 131.237C62.0961 130.641 62.6907 130.044 63.2853 130.044Z" fill="#495382"/>
<path d="M56.9992 139.157C60.0573 138.816 63.1154 138.731 66.1735 138.816C65.4939 139.583 64.8143 140.349 64.1347 141.116C61.1616 141.456 58.2734 141.882 55.3003 142.223C54.7906 142.308 53.8562 142.308 53.8562 141.627C53.8562 141.371 54.0261 141.116 54.2809 140.86C55.0455 140.009 56.4046 139.242 56.9992 139.157Z" fill="#495382"/>
<path d="M38.3961 117.27C38.3961 117.44 38.3111 117.696 38.1413 117.866C37.7165 118.207 37.1219 117.696 36.8671 117.185C30.1563 105.773 27.1831 92.4023 26.6734 79.202C26.4186 72.3037 26.8433 65.4055 27.6079 58.5073C28.0326 55.0156 28.4573 51.4387 29.052 47.947C29.3068 46.1586 29.6466 44.4553 29.9014 42.6669C29.9864 42.0707 30.1563 38.6642 31.3455 39.2603C31.6853 39.4307 31.7702 39.7713 31.9401 40.112C40.7746 64.7242 42.9832 91.5507 38.3961 117.27Z" fill="#3A3F57"/>
<path d="M35.7627 104.666C35.5079 105.006 34.9982 104.921 34.7433 104.581C34.4885 104.24 34.4885 103.814 34.4885 103.388C34.4885 94.5314 34.1487 85.6744 33.4691 76.8174C33.1293 72.3889 32.7046 67.9604 32.2799 63.6171C32.025 61.4028 31.7702 59.1886 31.5153 57.0595C31.4304 56.2079 30.8358 54.5046 31.0906 53.7381C31.6852 51.9497 32.8745 53.3123 33.1293 54.5046C35.1681 62.4248 35.8476 70.6856 36.3573 78.8613C36.867 87.3777 36.7821 95.894 36.0175 104.325C36.0175 104.41 36.0175 104.41 36.0175 104.496C35.8476 104.496 35.7627 104.581 35.7627 104.666Z" fill="#495382"/>
<path d="M32.2799 66.172C30.5809 65.0649 28.882 63.9578 27.1831 62.8507C27.0981 63.532 27.0981 64.2984 27.0132 64.9797C27.9476 65.9165 28.882 66.8533 29.9014 67.705C30.7508 68.4714 32.2799 70.2599 33.4691 70.4302C34.1487 70.6005 34.4885 70.0895 34.5734 69.4082C34.9982 67.6198 33.639 67.0237 32.2799 66.172Z" fill="#495382"/>
<path d="M34.5734 80.7349C31.94 78.691 29.3067 76.7323 26.6733 74.6883C26.6733 75.4548 26.6733 76.1361 26.6733 76.9026C28.797 78.9465 31.0056 81.0756 33.1293 83.1195C33.554 83.5453 34.9132 84.3118 35.0831 83.2047C35.0831 83.0344 35.168 82.864 35.168 82.6085C35.168 81.9272 35.0831 81.0756 34.5734 80.7349Z" fill="#495382"/>
<path d="M34.6584 91.8061C32.3649 89.7622 29.9014 87.9738 27.2681 86.2705C27.353 87.2925 27.5229 88.3144 27.6079 89.2512C29.8165 91.21 32.0251 93.1687 34.3186 95.1275C34.6584 95.4681 35.423 96.0643 35.8477 95.383C35.9326 95.2127 36.0176 94.872 35.9326 94.5314C35.7627 93.6797 35.0832 92.2319 34.6584 91.8061Z" fill="#495382"/>
<path d="M98.8781 81.5013C100.237 80.2239 102.191 81.4161 103.38 82.2678C104.485 83.0342 105.419 83.8859 106.268 84.8227C105.589 83.2897 104.994 81.842 104.315 80.309C102.786 78.9464 101.511 77.3283 100.577 75.4547C100.152 74.6031 99.8975 73.5811 100.407 72.8146C100.577 72.5592 100.917 72.3888 101.172 72.3037C101.681 72.1333 102.276 72.2185 102.701 72.474C103.465 72.8998 103.975 73.6663 104.23 74.5179C104.909 76.3915 105.334 78.1799 105.164 80.2239C106.184 82.4381 107.203 84.7375 108.137 87.0369C108.052 85.5891 108.137 84.1414 108.562 82.7788C108.902 81.6716 110.006 80.5645 111.28 81.0755C112.724 81.7568 112.385 83.7156 112.045 84.8227C111.62 86.7814 110.686 88.4847 109.412 90.0176C110.176 92.0616 110.941 94.0203 111.62 96.0642C111.705 94.9571 111.96 93.85 112.385 92.828C112.894 91.4654 113.999 89.5067 115.783 89.9325C119.69 90.9544 114.338 98.023 112.894 99.8114C113.489 101.6 113.999 103.388 114.593 105.262C114.933 103.984 115.273 102.707 115.783 101.43C116.122 100.578 116.887 99.9818 117.736 100.493C120.115 101.941 116.462 105.517 115.018 106.88C115.698 109.35 116.377 111.734 116.887 114.204C117.057 114.715 116.207 115.056 116.037 114.46C115.443 111.99 114.848 109.605 114.169 107.135C114.084 107.05 113.999 107.05 113.999 106.965C111.79 106.88 109.666 106.369 107.798 105.262C106.693 104.666 104.06 103.218 104.909 101.6C105.759 100.067 108.052 101.259 109.072 101.77C110.856 102.622 112.3 103.899 113.659 105.262C113.064 103.388 112.555 101.515 111.875 99.5559C111.79 99.5559 111.705 99.4708 111.62 99.3856C109.581 98.7895 107.713 97.7675 106.099 96.4049C105.249 95.7236 102.956 94.0203 104.145 92.7429C105.249 91.5506 107.203 93.0835 108.137 93.85C109.157 94.6165 110.006 95.5533 110.771 96.4901C109.751 93.5945 108.732 90.7841 107.543 87.9737C107.543 87.9737 107.458 87.9737 107.458 87.8886C106.014 87.2924 104.655 86.6111 103.21 86.015C101.936 85.4188 100.492 84.993 99.3029 84.2265C98.4534 83.8859 97.7738 82.5233 98.8781 81.5013Z" fill="#68422D"/>
<path d="M33.8938 87.3776C32.5346 87.7182 31.0056 87.6331 29.6465 87.7182C28.1174 87.8034 26.5884 87.8886 25.0593 87.9737L24.9744 87.9737C22.9357 90.188 20.8969 92.5725 19.0281 94.872C20.0475 94.1906 21.2367 93.6797 22.426 93.2539C23.5303 92.9132 25.9088 92.1467 26.5884 93.6797C27.2679 95.2978 24.5497 96.0642 23.5303 96.4901C21.5765 97.1714 19.4529 97.4269 17.3292 97.3417C17.2442 97.4269 17.0743 97.4269 16.9894 97.4269C15.8001 98.9598 14.5259 100.578 13.4216 102.111C15.1206 101.259 16.9894 100.663 18.9432 100.408C20.0475 100.237 22.6808 99.8966 22.9357 101.685C23.1905 103.559 20.2174 103.984 18.9432 104.155C16.7346 104.495 14.6109 104.24 12.4872 103.644C12.4023 103.729 12.3173 103.729 12.2324 103.729C10.7883 105.773 9.3442 107.817 7.90011 109.946C7.56032 110.457 6.88075 109.861 7.22054 109.35C8.57968 107.221 10.0238 105.177 11.5528 103.133C10.7033 101.43 8.49473 96.7456 11.213 96.2346C12.2324 95.9791 12.7421 96.8307 12.7421 97.7675C12.827 99.045 12.6571 100.408 12.5722 101.77C13.6765 100.237 14.8657 98.7895 16.055 97.2565C15.2905 95.0423 12.7421 86.6111 16.7346 87.0369C18.5184 87.2072 18.8582 89.4215 18.9432 90.8693C18.9432 91.9764 18.8582 93.0835 18.5184 94.1906C19.8776 92.5725 21.2367 90.8693 22.6808 89.3363C22.0013 87.4627 21.7464 85.504 22.0013 83.5452C22.1711 82.3529 22.5109 80.3942 24.04 80.2239C25.3991 80.1387 26.0787 81.5865 25.9937 82.6936C25.9937 84.0562 25.4841 85.504 24.8894 86.7814C26.5884 84.993 28.2873 83.2046 29.9862 81.4161C30.4959 79.4574 31.5153 77.9244 32.8744 76.3915C33.4691 75.7102 34.1486 75.114 34.9981 75.0289C35.5078 74.9437 36.1024 75.114 36.5271 75.4547C36.782 75.625 36.9519 75.8805 37.0368 76.2212C37.2916 77.158 36.6121 78.0096 35.9325 78.6057C34.4884 80.0535 32.7045 81.1606 30.7508 81.842C29.5615 83.0342 28.4572 84.1414 27.3529 85.3337C28.4572 84.7375 29.7314 84.2265 31.0056 83.971C32.4497 83.6304 34.6583 83.2046 35.5078 84.8227C36.1873 86.015 35.168 87.1221 33.8938 87.3776Z" fill="#68422D"/>
<path d="M69.5716 103.303C69.6565 95.9791 70.1662 88.6551 71.1855 81.331C71.2705 80.7349 72.12 80.9903 72.035 81.5865C71.1006 88.3144 70.5909 95.0423 70.506 101.855C73.649 95.1275 77.2167 88.7402 81.2942 82.6085C81.634 82.0975 82.3985 82.6085 82.0587 83.0343C76.9619 90.6138 72.7146 98.7043 69.1468 107.05C71.9501 104.41 75.0931 102.281 78.6608 100.748C79.1705 100.493 79.5953 101.259 79.0856 101.515C74.9232 103.303 71.3554 105.858 68.2974 109.094C66.6834 113.012 65.3242 117.014 64.05 121.102C63.8801 121.613 63.0307 121.443 63.2006 120.847C64.9844 114.885 67.1931 109.094 69.6565 103.473C69.6565 103.473 69.5716 103.388 69.5716 103.303Z" fill="#645D33"/>
<path d="M83.7575 77.0728C88.4296 78.3502 86.4758 85.5891 81.8038 84.3117C77.2167 83.1194 79.0855 75.8805 83.7575 77.0728Z" fill="white"/>
<path d="M72.2048 78.18C75.5177 79.0316 74.1585 84.1414 70.8456 83.2898C67.6176 82.4381 68.8918 77.3283 72.2048 78.18Z" fill="white"/>
<path d="M79.6803 99.1302C82.6534 99.8966 81.4642 104.666 78.4061 103.814C75.4329 102.963 76.7071 98.2785 79.6803 99.1302Z" fill="white"/>
<path d="M190.535 92.4023C189.091 85.1634 187.222 78.0948 184.929 71.1114C184.759 70.6005 183.994 70.9411 184.164 71.4521C186.288 77.8393 188.072 84.3969 189.431 91.0397C185.184 85.0782 180.427 79.3723 175.245 74.0922C174.82 73.6663 174.141 74.2625 174.565 74.6883C180.936 81.2459 186.713 88.3144 191.725 95.894C188.497 93.8501 185.014 92.3171 181.191 91.4655C180.682 91.3803 180.342 92.1468 180.936 92.3171C185.354 93.2539 189.346 95.1275 192.999 97.7676C195.292 101.344 197.416 105.006 199.37 108.839C199.625 109.35 200.389 108.924 200.134 108.498C197.246 102.963 194.103 97.6824 190.535 92.6578C190.535 92.6578 190.62 92.5726 190.535 92.4023Z" fill="#645D33"/>
<path d="M171.762 69.323C167.43 71.3669 170.658 78.18 174.99 76.1361C179.323 74.0921 176.095 67.2791 171.762 69.323Z" fill="white"/>
<path d="M183.315 68.301C180.257 69.7488 182.55 74.518 185.609 73.0702C188.667 71.6224 186.373 66.8533 183.315 68.301Z" fill="white"/>
<path d="M179.832 90.188C177.029 91.5506 179.068 95.894 181.956 94.5313C184.759 93.2539 182.635 88.8254 179.832 90.188Z" fill="white"/>
<path d="M119.605 53.9936C135.49 74.4328 148.997 96.5752 159.955 120.08C160.21 120.591 159.445 121.017 159.19 120.506C148.232 97.0862 134.641 74.9438 118.84 54.4194C118.501 53.9936 119.265 53.5677 119.605 53.9936Z" fill="#645D33"/>
<path d="M112.894 50.7574C113.319 50.0761 114.253 49.3096 114.508 49.0541C115.443 48.1173 116.717 47.5212 117.991 47.1805C119.18 46.925 119.095 49.2244 119.35 50.0761C119.69 51.609 120.03 53.0568 120.369 54.5897C120.454 54.8452 120.454 55.1859 120.2 55.3562C120.03 55.5265 119.775 55.3562 119.52 55.271C117.396 54.0787 115.188 52.9716 113.064 51.7793C112.894 51.6942 112.724 51.609 112.724 51.4387C112.639 51.2683 112.724 51.0129 112.894 50.7574Z" fill="#645D33"/>
<path d="M98.2834 51.8645C99.9823 50.5019 102.361 49.8206 104.739 49.3948C100.917 48.5432 95.735 46.4141 97.6038 42.5817C98.5382 40.623 101.257 40.623 103.04 40.8785C104.739 41.134 106.268 41.7301 107.628 42.5817C104.824 39.1752 101.681 33.5544 106.438 31.8511C108.902 30.9995 111.62 32.7879 113.149 34.5764C114.678 36.2796 115.528 38.4087 115.782 40.623C116.547 37.8977 117.311 35.0873 118.416 32.4473C119.18 30.6588 120.624 29.2111 122.748 29.6369C128.524 30.8292 125.551 38.4087 123.682 41.5598C120.879 46.4992 116.632 50.5871 111.79 53.5678C109.326 55.1007 106.608 56.293 103.89 57.2298C101.936 57.826 99.3877 58.5073 97.6887 56.9743C95.9898 55.4414 96.6694 53.142 98.2834 51.8645Z" fill="#C1A073"/>
<path d="M120.624 72.0482C120.794 71.6224 121.049 71.2817 121.389 71.0262C122.068 70.6004 123.003 70.6856 123.767 70.941C125.381 71.3669 126.825 72.3037 128.1 73.2405C130.988 75.1992 133.536 77.4986 136.085 79.9684C137.019 80.9052 137.953 81.842 138.888 82.7788C139.228 83.1194 141.606 85.1633 140.587 85.5892C140.332 85.6743 140.077 85.5892 139.907 85.5892C134.725 84.482 129.884 82.0123 125.551 79.0316C124.107 78.0096 122.663 76.9877 121.559 75.625C121.049 74.9437 120.539 74.1773 120.454 73.3256C120.37 72.8998 120.454 72.474 120.624 72.0482Z" fill="#645D33"/>
<path d="M147.043 96.3198C146.958 96.0643 146.958 95.7236 146.873 95.4681C146.618 91.9764 146.278 88.4847 146.448 84.993C146.533 83.2046 146.618 81.5013 147.213 79.7981C147.552 78.7761 148.147 77.669 149.166 77.4135C150.695 77.0728 151.63 78.6909 151.8 79.9684C152.055 81.7568 151.885 83.4601 151.63 85.2485C151.035 89.166 149.931 92.9984 148.402 96.5752C148.317 96.8307 148.147 97.1714 147.807 97.1714C147.722 97.1714 147.552 97.0862 147.467 97.0862C147.298 96.8307 147.128 96.5752 147.043 96.3198Z" fill="#645D33"/>
<path d="M72.9694 53.1419C73.0544 53.0568 73.0544 52.9716 73.2243 52.8864C73.3942 52.8013 73.649 52.9716 73.7339 53.0568C74.4135 53.6529 75.0931 54.3342 75.6877 55.0155C76.1974 55.6968 77.0469 56.804 75.9426 57.2298C74.5834 57.8259 73.3092 58.3369 71.9501 58.8479C71.6952 58.933 71.3554 59.0182 71.1855 58.933C70.9307 58.7627 70.9307 58.2517 71.0156 57.9111C71.5253 56.3781 72.2049 54.76 72.9694 53.1419C72.9694 53.2271 72.9694 53.1419 72.9694 53.1419Z" fill="#645D33"/>
<path d="M73.4792 43.774C74.2437 41.4746 75.6028 37.8125 78.491 37.6422C80.6997 37.4719 81.6341 39.6861 81.4642 41.5597C81.2943 43.5185 80.6147 45.4772 79.6803 47.1805C80.3599 46.5844 81.0394 45.9031 81.804 45.3921C82.8233 44.6256 84.7771 43.0075 86.0513 44.3701C87.1556 45.6476 85.7965 47.3508 85.0319 48.3728C84.1825 49.3948 83.333 50.3316 82.3136 51.1832C84.3524 50.4167 86.7309 49.9909 88.3449 50.8425C90.6384 52.0348 88.8546 53.9084 87.4105 54.7601C83.2481 57.4001 75.6029 60.2105 72.8846 53.9936C71.6104 50.9277 72.3749 46.8399 73.4792 43.774Z" fill="#C1A073"/>
<path d="M71.4404 57.7407C71.7802 57.3149 72.3748 57.9111 72.035 58.3369C57.4242 76.647 45.8715 97.3417 38.0564 119.484C37.8865 119.995 37.037 119.825 37.2069 119.229C45.1069 97.0011 56.6597 76.136 71.4404 57.7407Z" fill="#645D33"/>
<path d="M59.7178 74.6883C59.7178 74.6031 59.8027 74.6031 59.8027 74.5179C60.5673 73.496 61.5866 72.6443 62.7759 72.0482C63.8802 71.4521 65.1544 71.0262 66.4286 70.6856C68.2125 70.1746 70.1662 69.6636 72.0351 69.9191C72.6297 70.0043 73.1394 70.1746 73.5641 70.5153C75.0931 71.7075 73.5641 73.2405 72.3748 73.8366C68.6372 75.7102 64.3899 76.3064 60.3124 75.6251C60.0576 75.5399 59.7178 75.4547 59.6328 75.1992C59.5479 74.9438 59.6328 74.7734 59.7178 74.6883Z" fill="#645D33"/>
<path d="M51.8178 67.1087C51.9028 67.1087 52.0727 67.1087 52.1576 67.1087C53.0071 67.1939 53.6866 67.79 54.0264 68.5565C54.3662 69.323 54.5361 70.0894 54.621 70.9411C55.1307 76.0508 54.2813 81.331 52.7522 86.1853C52.6673 86.6111 52.3275 87.0369 51.9877 86.9517C51.7329 86.8666 51.563 86.6111 51.478 86.3556C50.4587 83.2897 49.7791 80.1387 49.2694 76.9025C48.9296 74.7734 48.7597 72.6443 49.0995 70.5152C49.2694 69.6636 49.5243 68.8971 49.949 68.2158C50.4587 67.5345 51.1382 67.1087 51.8178 67.1087Z" fill="#645D33"/>
<path d="M43.5778 103.984C44.4273 103.218 45.3617 102.622 46.2961 102.026C49.5241 99.8966 52.7521 97.9379 56.1499 96.1494C57.679 95.2978 59.293 94.4462 60.9919 93.85C61.7564 93.5945 62.6908 93.339 63.4553 93.5094C65.4091 94.0203 64.9844 96.0643 63.7102 97.0011C58.1887 101.515 51.1381 103.729 44.0875 104.666C43.9176 104.666 43.7477 104.751 43.5778 104.666C43.4079 104.666 43.323 104.495 43.323 104.325C43.323 104.155 43.4929 104.07 43.5778 103.984Z" fill="#645D33"/>
<path d="M51.9874 37.2164C50.0336 65.7461 45.8712 94.1907 39.5002 122.039C39.3303 122.891 38.0561 122.55 38.226 121.698C44.5121 93.9352 48.6744 65.661 50.6282 37.2164C50.7132 36.3648 52.0723 36.3648 51.9874 37.2164Z" fill="#68422D"/>
<path d="M49.1843 56.3782C49.2692 56.293 49.2692 56.2078 49.3542 56.1227C52.3273 52.631 55.8101 49.5651 59.6327 47.0102C59.8875 46.8399 60.0574 46.6695 60.3123 46.7547C61.4166 46.8399 59.5478 49.4799 59.2929 49.9057C58.5284 51.0129 57.6789 52.12 56.6596 53.0568C54.7058 54.9304 52.2423 56.3782 49.609 57.1446C49.4391 57.2298 49.2692 57.2298 49.1843 57.1446C49.0144 56.9743 49.0993 56.6336 49.1843 56.3782Z" fill="#68422D"/>
<path d="M41.7938 50.5018L41.8788 50.587C43.7476 53.0567 45.2766 55.8671 46.4659 58.7627C47.0605 60.2105 47.4853 61.7434 47.91 63.2763C48.0799 63.7873 49.0992 67.5345 48.0799 67.3642C47.825 67.3642 47.6551 67.1087 47.4853 66.9384C44.0874 63.1912 41.8788 58.3369 41.2841 53.2271C41.1992 52.4606 41.1143 51.6941 41.1143 50.9277C41.1143 50.587 41.1143 50.1612 41.454 50.1612C41.539 50.2464 41.7089 50.4167 41.7938 50.5018Z" fill="#68422D"/>
<path d="M37.9712 7.40926C41.7938 3.15109 46.8906 9.368 49.6938 14.1371C49.6938 13.9668 49.6938 13.7965 49.6089 13.6262C49.2691 10.6455 48.8444 7.66475 48.5046 4.68403C48.3347 3.06593 48.3347 1.19234 50.1186 0.425868C51.9025 -0.340604 54.7057 0.340704 56.4896 0.68136C57.8487 0.936849 59.2928 1.36266 59.4627 2.8956C59.8025 5.02468 58.1885 7.92023 57.5089 9.87898C56.6595 12.0932 55.6401 14.2223 54.6208 16.3514C57.0842 13.4558 60.0573 10.4751 63.2853 8.85703C66.4283 7.23892 68.4671 9.70866 69.6563 12.4339C71.1854 15.9256 69.8262 17.714 66.5982 19.2469C63.6251 20.6096 60.3971 21.376 57.0842 21.4612L61.5864 22.5683C63.5402 23.0793 65.7488 23.3348 67.6176 24.1864C70.3359 25.3787 70.081 27.6781 68.8068 29.9775C67.4477 32.4473 65.2391 34.8318 62.266 33.2989C60.4821 32.3621 59.2079 30.4033 57.8487 28.8704C56.4896 27.2523 55.1304 25.7194 53.7713 24.1013C55.3853 27.7633 56.6595 31.6808 57.2541 35.5983C57.7638 39.4307 54.8756 40.3674 51.5627 40.7933C48.9293 41.1339 45.7014 40.1971 45.4465 37.1312C45.2766 35.0022 46.3809 32.7028 46.9755 30.6588C47.5702 28.5298 48.2498 26.4007 49.0143 24.3567C46.4659 26.4858 43.6626 28.3594 40.6045 29.722C38.0561 30.9143 35.4228 31.255 34.4884 28.1039C33.7239 25.549 33.6389 22.4832 36.5271 21.376C39.7551 20.1837 43.7476 19.9283 47.3153 19.6728C43.8325 18.5656 40.5196 16.9475 37.6314 14.6481C34.8282 12.5191 35.8475 9.87899 37.9712 7.40926Z" fill="#C1A073"/>
<path d="M50.968 13.6262C51.3078 13.6262 51.6476 13.6262 52.0723 13.6262C53.4315 13.7965 54.7057 14.4778 55.7251 15.4998C59.2079 19.0767 56.9993 25.7194 51.8175 25.8046C49.2691 25.8897 46.8057 23.931 46.211 21.4612C45.8712 20.1838 46.0411 18.8212 46.4659 17.5437C46.8057 16.4366 47.4003 15.4146 48.2497 14.7333C49.0143 14.1372 49.9487 13.7114 50.968 13.6262Z" fill="#FFC152"/>
<path d="M51.6476 15.1592C53.3465 15.585 52.6669 18.3102 50.968 17.8844C49.1841 17.3734 49.9486 14.7333 51.6476 15.1592Z" fill="#9F5D3A"/>
<path d="M54.5359 18.3953C55.895 18.736 55.3853 20.9502 53.9412 20.5244C52.5821 20.1837 53.1767 18.0546 54.5359 18.3953Z" fill="#9F5D3A"/>
<path d="M52.4122 21.2057C54.7907 21.887 53.8563 25.6342 51.3928 24.9529C49.0143 24.3568 50.0337 20.6096 52.4122 21.2057Z" fill="#9F5D3A"/>
<path d="M48.8443 17.0328C50.5433 17.4586 49.8637 20.1838 48.1648 19.758C46.4658 19.247 47.1454 16.6069 48.8443 17.0328Z" fill="#9F5D3A"/>
<path d="M48.5045 20.9502C49.5239 21.2057 49.0992 22.8238 48.0798 22.5683C47.0604 22.3128 47.4852 20.6947 48.5045 20.9502Z" fill="#9F5D3A"/>
<path d="M19.1131 60.6363C19.368 60.1254 20.1325 60.5512 19.8776 61.0622C11.5529 75.1141 5.09692 90.1029 0.849589 105.858C0.679696 106.369 -0.169771 106.199 0.000122452 105.603C4.3324 89.8474 10.7034 74.6883 19.1131 60.6363Z" fill="#645D33"/>
<path d="M24.2948 52.3755C24.2948 52.3755 24.3797 52.2904 24.2948 52.3755C24.4647 52.2904 24.5496 52.2052 24.6346 52.2903C24.7195 52.3755 24.7195 52.4607 24.7195 52.631C24.2948 56.293 22.6808 59.6996 19.3679 61.6583C19.2829 61.7435 19.113 61.8286 19.0281 61.6583C19.0281 61.5732 19.0281 61.5732 19.0281 61.488C19.3679 57.826 21.3216 54.4194 24.2948 52.3755Z" fill="#645D33"/>
<path d="M21.7465 68.5565L21.8314 68.5565C21.9164 68.5565 22.0862 68.5565 22.0862 68.6417C22.1712 68.7269 22.0862 68.8972 22.0013 68.9824C19.7077 71.8779 16.5647 73.9218 12.6572 73.7515C12.4873 73.7515 12.3174 73.6663 12.3174 73.5812C12.3174 73.496 12.3174 73.496 12.4023 73.4109C14.6109 70.5153 18.0938 68.7269 21.7465 68.5565Z" fill="#645D33"/>
<path d="M16.5647 79.6278C16.5647 79.6278 16.6497 79.6278 16.5647 79.6278C16.7346 79.6278 16.8195 79.6278 16.9045 79.7129C16.9894 79.7981 16.9045 79.8832 16.8195 79.9684C14.6109 82.5233 11.6378 84.2266 8.15499 83.9711C8.07004 83.9711 7.90015 83.8859 7.90015 83.8008C7.90015 83.7156 7.90015 83.7156 7.98509 83.6304C10.0238 81.1607 13.2518 79.6278 16.5647 79.6278Z" fill="#645D33"/>
<path d="M12.2323 92.0616C12.4022 92.0616 12.4872 92.0616 12.5721 92.1468C12.6571 92.2319 12.5721 92.4023 12.4872 92.4874C10.1936 95.2127 7.0506 97.0011 3.39789 96.6605C3.228 96.6605 3.05811 96.5753 3.05811 96.4901C3.05811 96.405 3.05811 96.405 3.14305 96.3198C5.35166 93.6797 8.74953 92.0616 12.2323 92.0616Z" fill="#645D33"/>
<path d="M12.9121 73.1553C12.9121 73.2405 12.8271 73.2405 12.8271 73.3257C12.7422 73.4108 12.5723 73.2405 12.4873 73.1553C10.5335 69.834 10.7034 66.0868 12.0626 62.6802C12.1475 62.5951 12.1475 62.4247 12.3174 62.4247C12.4024 62.4247 12.4873 62.5099 12.5723 62.5951L12.5723 62.6802C14.2712 65.8313 14.3561 69.834 12.9121 73.1553Z" fill="#645D33"/>
<path d="M8.15505 83.3749C8.15505 83.4601 8.15505 83.4601 8.07011 83.5453C7.98516 83.6304 7.81527 83.5453 7.73032 83.3749C5.52171 80.5645 5.26687 77.158 6.20128 73.8367C6.20128 73.7515 6.28623 73.5812 6.37117 73.5812C6.45612 73.5812 6.54107 73.6663 6.62601 73.7515C6.62601 73.7515 6.62601 73.8367 6.71096 73.8367C8.49484 76.5619 9.08947 80.1387 8.15505 83.3749Z" fill="#645D33"/>
<path d="M3.14312 96.1494C3.14312 96.2346 3.14312 96.2346 3.05817 96.3198C2.97322 96.4049 2.80333 96.3198 2.80333 96.2346C0.76461 93.6797 0.594717 90.5287 1.35924 87.5479C1.35924 87.4628 1.44418 87.2924 1.52913 87.2924C1.61408 87.2924 1.69902 87.3776 1.69902 87.4628C1.69902 87.4628 1.69902 87.4628 1.69902 87.5479C3.4829 89.9325 3.99258 93.1687 3.14312 96.1494Z" fill="#645D33"/>
</g>
<defs>
<clipPath id="clip0">
<rect width="215" height="159" fill="white" transform="matrix(1 -8.74228e-08 -8.74228e-08 -1 0 159)"/>
</clipPath>
</defs>
</svg>
